<svg width="20px" height="20px" viewBox="0 0 0.8 0.8" xmlns="http://www.w3.org/2000/svg"><g fill="none" fill-rule="evenodd"><path fill="#F4B731" fill-rule="nonzero" cx="16" cy="16" r="16" d="M0.8 0.4A0.4 0.4 0 0 1 0.4 0.8A0.4 0.4 0 0 1 0 0.4A0.4 0.4 0 0 1 0.8 0.4z"/><path d="M0.232 0.2h0.164c0.1 0 0.175 0.053 0.203 0.13H0.65v0.047h-0.04c0.001 0.007 0.001 0.015 0.001 0.022v0.001c0 0.009 -0.001 0.017 -0.002 0.025H0.65v0.047h-0.052C0.569 0.548 0.494 0.6 0.396 0.6H0.232v-0.128H0.175v-0.047h0.057v-0.049H0.175v-0.047h0.057V0.2zm0.046 0.272v0.087h0.118c0.073 0 0.127 -0.035 0.152 -0.087H0.278zm0.284 -0.047H0.278v-0.049h0.284c0.001 0.008 0.002 0.016 0.002 0.024v0.001c0 0.008 -0.001 0.016 -0.002 0.024zM0.396 0.242c0.073 0 0.127 0.036 0.152 0.088h-0.271V0.242h0.118z" fill="#FFF"/></g></svg>