<svg width="20px" height="20px" viewBox="0 0 0.6 0.6" fill="none" xmlns="http://www.w3.org/2000/svg"><path clip-rule="evenodd" d="M0.3 0.081a0.019 0.019 0 0 1 0.017 0.011l0.1 0.209a0.019 0.019 0 0 1 -0.008 0.025l-0.1 0.052a0.019 0.019 0 0 1 -0.017 0l-0.1 -0.052a0.019 0.019 0 0 1 -0.008 -0.025l0.1 -0.209A0.019 0.019 0 0 1 0.3 0.081zm-0.075 0.22L0.3 0.34l0.075 -0.039L0.3 0.144zm-0.039 0.065a0.019 0.019 0 0 1 0.023 -0.005L0.3 0.409l0.091 -0.048a0.019 0.019 0 0 1 0.023 0.028l-0.1 0.122a0.019 0.019 0 0 1 -0.029 0l-0.1 -0.122a0.019 0.019 0 0 1 0 -0.024zm0.087 0.071L0.3 0.47l0.027 -0.033 -0.019 0.01a0.019 0.019 0 0 1 -0.017 0z" fill="#000000" fill-rule="evenodd"/></svg>