<svg width="384" height="210" viewBox="0 0 384 210" fill="none" xmlns="http://www.w3.org/2000/svg">
<g clip-path="url(#clip0_439_11612)">
<rect y="12" width="371" height="198" rx="10" fill="#2E4099"/>
<path d="M1114 52.1337C1061.36 -1.25524 1073.85 25.3506 1003.87 32.9705C934.913 40.4763 937.536 -23.684 846.448 4.80782C797.916 19.984 776.745 20.8448 727.935 27.2367C657.766 36.426 649.204 42.5396 579.06 24.0091C526.253 10.0606 494.276 27.8697 459.853 20.1738C410.022 9.03532 403.907 -41.9613 329.085 -15.9505C271.978 3.90896 273.542 2.66863 213.787 6.11129C162.166 9.09843 151.221 22.8443 95.6653 9.87062C40.5004 -3.01445 71.0648 32.5022 10.2764 -21.8359L3.24046 -28.1267L0 -31V67.8797V144.457V162C99.6497 162 199.299 162 298.949 162H302.631C513.757 162 724.896 162 936.023 162H997.757H1101.39H1114L1114 52.1337Z" fill="#2E4099"/>
<path d="M1114 115.874L1077.02 78.639C1044.26 88.4993 1044.36 98.9397 1014.14 100.2C978.995 101.663 956.954 95.926 934.245 82.0559C929.214 78.9919 894.993 42.0726 891.689 37.1929C883.405 45.6409 856.585 82.119 845.969 85.5991C827.988 91.4749 809.844 78.1724 798.508 79.0422C784.31 80.1139 759.836 85.9015 744.478 88.4991C724.984 91.7901 706.398 94.2615 686.615 95.3081C636.998 97.6031 627.945 116.201 578.089 88.5117C565.379 81.4506 552.177 74.7804 539.114 67.9968C532.746 71.0356 498.412 88.0451 494.289 88.1713C490.695 88.2975 484.68 85.4729 476.472 86.6708C459.916 89.1043 451.997 93.6939 437.548 80.1267C433.588 76.4071 412.115 52.9542 410.11 51.8194C409.858 51.6806 394.891 48.4276 393.315 48.0872L364.15 12C360.418 14.4461 327.067 57.0524 326.449 57.1783C326.399 57.1909 317.143 55.8417 315.593 56.3588C311.81 57.6323 291.434 75.4616 282.065 79.1686C266.241 85.4102 243.065 72.6246 227.531 66.8496C218.402 63.4704 209.248 60.1289 200.106 56.7623C188.316 64.6178 155.546 88.6758 144.323 91.3994C126.759 95.6487 109.497 80.354 94.8327 71.3006C90.7096 68.7535 86.5863 66.2066 82.4632 63.672L79.3741 61.7554L51.9114 78.8408L0 33.0444V131.547V207.832V225.32C99.6496 225.32 199.299 225.32 298.949 225.32H302.631H650.465H936.023H997.757H1101.39H1114V115.874Z" fill="#446FC3"/>
<path d="M227.53 66.8491C218.401 63.4699 209.247 60.1284 200.105 56.7617C200.105 56.7617 212.752 82.3329 216.623 91.3737C220.494 100.414 213.61 109.455 213.61 109.455C213.61 109.455 219.044 127.562 214.24 140.965C218.25 141.873 240.442 109.796 245.246 110.968C261.814 115.041 319.072 118.282 319.072 118.282C306.261 110.035 234.162 69.3205 227.53 66.8491Z" fill="#5782D8"/>
<path d="M494.503 88.1588C494.415 88.1713 494.352 88.1713 494.289 88.1713C490.695 88.2975 484.68 85.4729 476.472 86.6708C459.916 89.1043 451.998 93.6939 437.548 80.1268C433.589 76.4071 412.115 52.9542 410.111 51.8194C409.858 51.6806 394.891 48.4276 393.315 48.0872L364.15 12C364.15 12 370.909 36.9281 374.137 50.0541C377.365 63.1801 391.777 67.0511 394.576 67.2655C397.375 67.4799 393.933 78.4623 390.919 92.2316C387.906 106.013 390.062 108.157 415.885 120.426C441.709 132.694 466.246 109.884 471.63 106.442C473.912 104.979 477.884 102.609 481.705 100.339C481.705 100.339 487.896 94.5514 494.503 88.1588Z" fill="#5782D8"/>
<path d="M79.375 61.7549C79.375 61.7549 85.5912 77.6045 88.1763 86.2164C90.7611 94.8284 106.245 95.6859 106.245 95.6859L118.955 112.469L161.99 119.567C161.99 119.567 125.928 102.709 121.968 94.3872C117.997 86.0779 107.367 79.5842 107.367 79.5842L79.375 61.7549Z" fill="#5782D8"/>
<path d="M0 33.0439C0 33.0439 7.21246 55.6268 10.2133 67.7694C13.2142 79.8993 31.2074 83.7451 31.2074 83.7451L45.9473 108.736L95.9298 125.809C95.9298 125.809 54.0424 96.6821 49.4402 84.7034C44.8505 72.7374 32.5061 62.0828 32.5061 62.0828L0 33.0439Z" fill="#5782D8"/>
<path d="M146.131 208.774H721.872V124.757C518.508 96.5796 178.562 157.382 146.131 208.774Z" fill="#8FD1EB"/>
<path d="M461.487 208.775H721.872V166.766C564.226 147.486 396.602 165.779 338.17 168.393C338.17 168.393 419.163 195.921 461.487 208.775Z" fill="#7BC1DD"/>
<path d="M721.872 132.865V124.757C599.961 107.865 428.987 122.954 304.584 148.819C409.306 141.807 621.012 120.088 721.872 132.865Z" fill="#E4F7FF"/>
<path d="M175.094 95.5174L149.45 99.4741C147.736 99.7386 146.387 100.754 145.653 102.321L140.137 114.06C139.402 115.627 138.045 116.637 136.339 116.9L90.7731 123.931C89.1452 124.182 87.6067 123.061 87.3544 121.426L84.5363 103.161C84.4008 102.521 84.3212 101.909 84.2618 101.383L84.0583 100.063C83.1692 98.0124 74.7468 96.434 75.294 113.97C67.4115 119.745 58.3694 141.654 59.955 151.93L60.7151 156.857C61.6888 163.167 67.6498 167.541 73.9676 166.566L198.645 147.329C204.956 146.356 209.328 140.388 208.355 134.077L205.887 118.085C203.623 103.406 189.766 93.2536 175.094 95.5174Z" fill="#14B577"/>
<path d="M175.093 95.5176L149.449 99.4743C147.735 99.7388 146.387 100.754 145.652 102.321L145.06 103.573C145.06 103.573 163.355 100.141 172.057 99.679C180.751 99.2113 190.035 107.367 195.86 115.051C201.679 122.736 199.471 125.463 204.204 127.302C205.711 127.885 206.771 128.286 207.504 128.562L205.887 118.085C203.622 103.406 189.766 93.2538 175.093 95.5176ZM143.585 106.715L140.137 114.061C139.402 115.628 138.045 116.637 136.339 116.9L90.7729 123.931C89.145 124.182 87.6065 123.061 87.3542 121.426L84.536 103.161C84.4006 102.521 84.3209 101.91 84.2616 101.383L84.058 100.063C83.7852 99.4374 82.8068 98.8541 81.5948 98.8503C81.6015 98.8933 84.6721 119.366 85.3596 122.204C86.0471 125.042 86.8647 127.485 96.1279 126.614C105.392 125.75 139.293 118.016 139.293 118.016L143.585 106.715Z" fill="#12DCB0"/>
<path d="M185.789 149.313L198.647 147.329C203.358 146.602 206.988 143.098 208.121 138.739L193.956 139.955C193.956 139.955 186.85 124.833 173.558 124.381C160.264 123.921 150.46 136.747 150.46 136.747L185.789 149.313Z" fill="#157350"/>
<path d="M80.1207 99.1358C77.636 100.114 74.979 103.879 75.2952 113.969C67.4127 119.745 58.3706 141.653 59.9562 151.93L60.7163 156.856C61.69 163.167 67.651 167.541 73.9688 166.566L94.0408 163.469C96.8487 161.92 110.714 160.896 123.765 158.882L146.261 155.412C146.686 155.309 128.748 157.394 128.414 156.653C127.937 155.61 127.24 154.374 127.821 154.241C138.29 151.81 146.248 149.76 143.215 148.753C136.02 146.375 124.598 143.63 122.479 141.46C119.16 138.074 112.651 135.194 106.292 134.95C98.6556 134.659 91.3395 137.396 91.3395 137.396C91.3395 137.396 89.6856 137.336 94.3576 134.831C99.0225 132.327 140.052 121.929 140.052 121.929C140.052 121.929 100.368 128.154 91.9603 128.953C83.5605 129.757 82.6761 127.213 82.1074 120.958L80.1207 99.1358Z" fill="#157350"/>
<path d="M148.403 154.883C149.104 154.907 149.824 154.862 150.548 154.75L190.176 148.636C189.747 137.197 180.025 129.381 168.522 131.155C157.027 132.929 148.089 143.522 148.403 154.883Z" fill="#161616"/>
<path d="M169.779 133.393C180.471 131.743 188.742 138.521 188.252 148.53C187.763 158.539 178.693 167.992 168.001 169.642C157.309 171.292 149.039 164.514 149.528 154.505C150.017 144.496 159.087 135.042 169.779 133.393Z" fill="#905A4B"/>
<path d="M150.353 149.958C149.893 151.446 149.614 152.972 149.542 154.503C149.053 164.512 157.315 171.284 168 169.635C169.9 169.342 171.747 168.8 173.504 168.051C172.527 168.334 171.532 168.547 170.528 168.701C158.724 170.523 149.598 163.047 150.14 152.002C150.175 151.322 150.245 150.635 150.353 149.958Z" fill="#4E3A37"/>
<path d="M169.781 133.407C168.627 133.585 167.487 133.857 166.374 134.212C178.599 132.597 187.967 140.447 187.402 151.965C187.371 152.528 187.325 153.086 187.249 153.641C187.815 151.975 188.153 150.264 188.238 148.532C188.728 138.531 180.466 131.759 169.781 133.407Z" fill="#B27B6F"/>
<path d="M169.681 135.324C160.129 136.798 152.028 145.25 151.595 154.194C151.153 163.131 158.542 169.193 168.094 167.719C177.653 166.244 185.754 157.792 186.195 148.855C186.629 139.912 179.24 133.849 169.681 135.324ZM169.351 142.225C163.865 143.072 159.209 147.916 158.959 153.057C158.709 158.191 162.952 161.663 168.438 160.816C173.924 159.97 178.573 155.126 178.823 149.992C179.073 144.851 174.83 141.38 169.351 142.225Z" fill="#694A43"/>
<path d="M156.468 148.706C155.509 150.484 154.925 152.409 154.823 154.371C154.494 161.088 160.05 165.642 167.228 164.534C169.272 164.219 171.207 163.487 172.963 162.445C172.081 162.728 171.182 162.94 170.264 163.082C162.046 164.35 155.684 159.142 156.06 151.441C156.102 150.524 156.24 149.607 156.468 148.706Z" fill="#B27B6F"/>
<path d="M169.787 140.388C176.148 139.407 181.066 143.442 180.772 149.39C180.486 155.345 175.091 160.964 168.73 161.946C162.376 162.926 157.46 158.898 157.745 152.943C158.039 146.995 163.433 141.369 169.787 140.388Z" fill="#1F0A0A"/>
<path d="M167.842 126.128C179.56 124.32 189.208 131.466 190.29 142.333C190.403 143.395 189.654 144.348 188.6 144.51L147.854 150.797C147.215 150.896 146.621 150.709 146.155 150.259C145.688 149.803 145.481 149.218 145.558 148.575C146.897 137.649 156.354 127.901 167.842 126.128Z" fill="#14B577"/>
<path d="M189.888 143.761C189.581 144.153 189.132 144.428 188.601 144.51L147.855 150.797C147.216 150.896 146.622 150.708 146.156 150.259C145.69 149.802 145.482 149.218 145.559 148.574C146.187 143.463 148.595 138.606 152.149 134.709C155.395 131.147 160.213 129.97 164.743 131.635C167.141 132.521 168.35 133.597 168.35 133.597C162.244 135.758 155.688 143.7 173.74 144.072C181.657 144.231 189.888 143.761 189.888 143.761Z" fill="#157350"/>
<path d="M167.843 126.129C179.338 124.355 188.844 131.199 190.225 141.72L187.228 142.182C182.965 135.491 167.872 126.697 160.764 128.315C162.988 127.259 165.369 126.51 167.843 126.129Z" fill="#12DCB0"/>
<path d="M81.9987 165.129C82.6999 165.153 83.4198 165.108 84.144 164.996L123.765 158.883C123.343 147.443 113.621 139.627 102.118 141.402C90.6227 143.175 81.6848 153.768 81.9987 165.129Z" fill="#161616"/>
<path d="M103.373 143.637C114.065 141.987 122.335 148.765 121.846 158.774C121.357 168.783 112.287 178.237 101.595 179.886C90.9026 181.536 82.6325 174.758 83.1218 164.749C83.6111 154.74 92.6807 145.287 103.373 143.637Z" fill="#905A4B"/>
<path d="M83.9399 160.204C83.4865 161.691 83.208 163.217 83.1359 164.747C82.6393 174.758 90.9085 181.528 101.593 179.88C103.494 179.587 105.341 179.045 107.098 178.296C106.121 178.579 105.126 178.791 104.115 178.947C92.3181 180.768 83.1913 173.292 83.7339 162.247C83.7684 161.566 83.8386 160.88 83.9399 160.204Z" fill="#4E3A37"/>
<path d="M103.375 143.651C102.213 143.831 101.08 144.101 99.9678 144.456C112.185 142.843 121.553 150.692 120.996 162.209C120.965 162.772 120.919 163.33 120.843 163.885C121.408 162.219 121.746 160.508 121.832 158.777C122.322 148.775 114.053 142.004 103.375 143.651Z" fill="#B27B6F"/>
<path d="M103.274 145.569C93.7218 147.042 85.621 155.495 85.1803 164.439C84.7456 173.375 92.1345 179.437 101.686 177.964C111.238 176.49 119.346 168.036 119.788 159.099C120.222 150.156 112.833 144.094 103.274 145.569ZM102.936 152.471C97.4577 153.316 92.8016 158.161 92.5522 163.302C92.3018 168.436 96.545 171.907 102.031 171.061C107.517 170.214 112.159 165.372 112.416 160.237C112.666 155.096 108.422 151.624 102.936 152.471Z" fill="#694A43"/>
<path d="M90.0614 158.95C89.1023 160.728 88.5184 162.654 88.4172 164.615C88.088 171.332 93.6436 175.886 100.822 174.778C102.859 174.464 104.801 173.731 106.557 172.689C105.675 172.972 104.776 173.184 103.858 173.326C95.6323 174.595 89.2781 169.386 89.6538 161.685C89.6959 160.768 89.8334 159.852 90.0614 158.95Z" fill="#B27B6F"/>
<path d="M103.379 150.633C109.74 149.652 114.657 153.687 114.364 159.635C114.071 165.591 108.683 171.209 102.322 172.19C95.9682 173.171 91.0445 169.144 91.337 163.188C91.6307 157.24 97.0252 151.613 103.379 150.633Z" fill="#1F0A0A"/>
<path d="M101.436 136.374C113.154 134.566 122.802 141.712 123.884 152.579C123.989 153.642 123.248 154.594 122.194 154.757L81.4473 161.043C80.809 161.142 80.2148 160.955 79.7491 160.505C79.2822 160.049 79.0745 159.464 79.1515 158.821C80.4905 147.895 89.9478 138.147 101.436 136.374Z" fill="#14B577"/>
<path d="M123.474 154.008C123.175 154.399 122.726 154.674 122.195 154.756L81.4484 161.043C80.8101 161.142 80.2159 160.954 79.7502 160.505C79.2834 160.048 79.0756 159.464 79.1526 158.82C79.7809 153.709 82.1813 148.853 85.7428 144.955C88.9889 141.393 93.8072 140.216 98.3299 141.883C100.735 142.767 101.937 143.844 101.937 143.844C95.8383 146.004 89.2813 153.946 107.334 154.318C115.243 154.478 123.474 154.008 123.474 154.008Z" fill="#157350"/>
<path d="M101.436 136.375C112.932 134.601 122.431 141.446 123.812 151.967L120.814 152.43C116.559 145.737 101.465 136.943 94.3582 138.561C96.5816 137.505 98.9623 136.756 101.436 136.375Z" fill="#12DCB0"/>
<path d="M154.714 110.248L177.504 106.731L176.317 114.741C176.017 116.792 174.465 118.345 172.406 118.656L148.381 122.253L150.961 113.521C151.488 111.751 152.893 110.529 154.714 110.248Z" fill="#157350"/>
<path d="M175.729 116.432C175.038 117.611 173.851 118.44 172.409 118.655L148.383 122.252L150.964 113.521C151.19 112.752 151.587 112.089 152.107 111.553L152.153 119.417L175.729 116.432Z" fill="#12DCB0"/>
<path d="M67.6249 109.36L55.4414 130.799C52.5468 135.878 62.6831 142.045 65.5693 136.96L77.7539 115.529C80.6473 110.442 70.5122 104.282 67.6249 109.36Z" fill="#4E3A37"/>
<path d="M67.6255 109.361L56.3366 129.222C60.0512 128.649 69.8541 110.434 71.1081 110.806C72.355 111.179 77.7544 115.529 77.7544 115.529C80.6479 110.442 70.5128 104.282 67.6255 109.361Z" fill="#694A43"/>
<path d="M207.817 130.526C207.125 130.662 191.419 132.791 191.253 133.235L193.956 139.955C193.703 140.647 194.153 140.894 195.228 140.728L209.062 138.593C214.605 137.738 213.382 129.388 207.817 130.526Z" fill="#4D4D4D"/>
<path d="M207.809 130.527C207.125 130.662 191.419 132.791 191.253 133.235C192.547 133.293 203.309 132.572 205.737 132.704C208.165 132.829 211.236 134.844 211.577 137.339C213.947 134.807 212.28 129.617 207.809 130.527Z" fill="#7D7D7D"/>
<path d="M143.811 140.38L124.543 143.353C124.076 143.425 123.636 143.904 123.827 144.33L126.608 150.457C126.798 150.883 127.117 151.237 127.583 151.165L143.216 148.753C143.682 148.681 143.873 148.248 143.933 147.784L144.781 141.097C144.842 140.632 144.27 140.309 143.811 140.38Z" fill="#4D4D4D"/>
<path d="M143.809 140.38L124.54 143.353C124.131 143.416 123.742 143.792 123.785 144.167C126.753 143.848 141.87 142.088 142.456 142.218C143.034 142.349 144.317 144.765 144.317 144.765L144.779 141.096C144.839 140.632 144.268 140.309 143.809 140.38Z" fill="#7D7D7D"/>
<path d="M205.147 108.978C201.626 109.522 199.188 112.658 199.702 115.993C200.217 119.327 201.163 122.75 204.691 122.205C206.957 121.856 209.066 120.913 210.495 119.562C215.113 115.186 209.887 108.247 205.147 108.978Z" fill="#D62920"/>
<path d="M200.282 112.423C199.736 113.499 199.507 114.731 199.702 115.993C200.217 119.327 201.163 122.75 204.691 122.205C204.871 122.177 205.05 122.15 205.228 122.115C206.912 120.754 208.124 119.422 208.124 119.422C202.93 118.784 200.723 118.089 200.282 112.423Z" fill="#9E211B"/>
<path d="M205.047 109.654C203.814 109.845 202.738 110.392 201.91 111.159C205.987 110.845 208.439 115.027 207.992 117.841C213.773 116.575 210.132 108.87 205.047 109.654Z" fill="#FF7C5E"/>
<path d="M195.876 106.461C195.427 105.261 194.143 104.633 193.008 105.057C191.872 105.481 191.316 106.798 191.764 107.998C192.213 109.198 193.497 109.827 194.632 109.402C195.768 108.978 196.325 107.661 195.876 106.461Z" fill="black"/>
<path d="M194.563 105.874C194.074 105.538 193.548 105.454 193.389 105.685C193.23 105.917 193.498 106.377 193.987 106.712C194.476 107.048 195.002 107.133 195.161 106.901C195.32 106.67 195.052 106.21 194.563 105.874Z" fill="white"/>
<path d="M108.779 101.102C108.779 101.102 108.855 94.9817 108.069 93.172C107.275 91.3563 100.694 89.6258 97.7008 85.4036C94.7144 81.1803 92.3909 78.6828 94.7507 69.5672C97.1095 60.4444 100.839 56.2055 107.208 53.2843C113.58 50.3704 120.526 50.5174 120.526 50.5174C120.526 50.5174 123.168 57.7453 122.749 59.6454C122.33 61.5455 122.719 61.735 123.672 62.3002C124.626 62.8652 124.786 61.6217 125.428 61.1629C126.07 60.7114 127.868 62.4676 127.546 63.9931C127.224 65.5258 127.417 65.4888 129.025 66.0115C130.631 66.5271 132.347 68.6999 132.971 71.4596C133.601 74.2111 133.772 76.3212 134.49 76.974C135.2 77.6279 136.305 79.1754 134.743 80.2828C133.181 81.3902 130.104 81.6226 129.678 82.8116C129.245 84.0017 126.523 88.3865 125.238 90.6256C123.953 92.8578 119.853 96.6472 117.462 100.276C115.07 103.905 113.994 105.495 113.994 105.495C113.994 105.495 108.441 103.195 108.779 101.102Z" fill="#7DB037"/>
<path d="M124.553 62.2452C124.846 61.9577 125.059 61.4329 125.428 61.1631C126.071 60.7116 127.869 62.4678 127.546 63.9932C127.225 65.5259 127.417 65.4889 129.025 66.0117C130.632 66.5273 132.347 68.7001 132.971 71.4598C133.601 74.2113 133.772 76.3213 134.49 76.9742L134.569 77.0574C134.086 77.5431 133.311 78.2794 132.707 78.6002C131.772 79.1043 125.786 79.8075 124.909 78.6874C124.024 77.5684 124.024 77.5684 124.024 77.5684C124.024 77.5684 127.261 77.994 129.115 77.2529C130.974 76.5034 130.974 76.5034 130.974 76.5034C130.974 76.5034 131.222 74.0645 129.61 72.3748C128.007 70.6913 127.388 70.0598 127.026 67.9499C126.671 65.8389 126.365 64.0946 126.659 63.2416C126.953 62.3886 125.2 61.6828 124.553 62.2452Z" fill="#9CDE40"/>
<path d="M108.778 101.101C108.778 101.101 108.855 94.9812 108.069 93.1715C107.275 91.3558 100.694 89.6253 97.7001 85.4031C94.7137 81.1798 92.3902 78.6823 94.75 69.5667C95.6146 66.2248 96.6611 63.5378 97.9583 61.3334C103.005 58.2126 109.102 56.4276 109.102 56.4276C109.102 56.4276 110.14 62.6769 111.821 65.3396C113.502 68.0022 115.075 71.1516 117.242 70.685C119.401 70.2124 119.401 70.2124 119.401 70.2124C119.401 70.2124 115.665 73.219 114.232 72.6839C112.805 72.1478 110.843 72.4211 110.843 72.4211C110.843 72.4211 113.659 73.3964 113.539 74.1418C113.539 74.1418 110.627 73.3061 109.302 76.0436C107.969 78.7749 108.437 82.8069 110.569 85.1064C112.693 87.4069 115.959 89.3993 117.44 91.3366C118.922 93.2811 118.153 96.8138 118.153 96.8138C118.153 96.8138 117.376 96.0158 116.695 96.3118C116.022 96.6138 113.51 100.599 113.993 105.495C113.993 105.495 108.441 103.195 108.778 101.101Z" fill="#6A962D"/>
<path d="M122.601 61.1651C122.89 62.9413 122.729 66.6078 120.638 68.2813C119.298 69.3543 116.768 67.6597 115.946 66.7073C114.053 64.5252 109.184 57.1416 109.184 57.1416C109.184 57.1416 112.766 57.3745 116.78 58.2675C119.13 58.7933 121.254 60.1396 122.601 61.1651Z" fill="#6A962D"/>
<path d="M132.219 81.7147C130.973 81.9657 129.884 82.2365 129.679 82.8114C129.59 83.0454 129.418 83.4024 129.185 83.8421C127.378 84.3118 122.985 83.5359 119.399 79.1848C118.504 79.6679 114.581 80.6035 112.985 79.2052C109.883 76.5635 111.162 73.9581 111.162 73.9581C111.162 73.9581 113.02 76.7696 113.934 77.6933C114.848 78.6241 117.939 78.2426 118.914 77.85C119.887 77.4502 120.131 77.4126 120.399 77.7677C120.666 78.1156 128.996 80.4792 131.202 80.6454C132.057 80.7119 132.276 81.1774 132.219 81.7147Z" fill="#6A962D"/>
<path d="M114.097 71.6195C114.097 71.6195 110.252 70.6342 108.252 72.0369C106.258 73.4384 104.635 77.4332 104.649 78.525C104.664 79.6167 104.664 79.6167 104.664 79.6167C104.664 79.6167 103.339 73.507 106.721 71.1571C110.094 68.801 113.662 70.7982 114.097 71.6195Z" fill="#8DC63F"/>
<path d="M122.139 62.8305C122.139 62.8305 123.926 67.5177 121.714 70.3553C119.508 73.1918 117.512 73.3384 115.109 74.3699C115.682 73.4225 121.188 68.2338 122.139 62.8305Z" fill="#6A962D"/>
<path d="M122.087 62.2436C122.087 62.2436 120.013 61.0363 117.943 60.1811C115.881 59.3319 113.486 58.9893 113.486 58.9893C114.449 61.9463 116.108 66.8003 119.42 67.8972C121.603 68.625 122.556 66.0477 122.087 62.2436Z" fill="white"/>
<path d="M113.113 68.3487C113.113 68.3487 108.408 67.4962 105.898 68.9775C103.388 70.4586 101.241 74.5342 101.227 75.6304C101.205 76.7276 101.205 76.7276 101.205 76.7276C101.205 76.7276 99.7947 70.6312 104.037 68.1485C108.285 65.6575 112.606 67.5385 113.113 68.3487Z" fill="#8DC63F"/>
<path d="M135.023 77.4716C135.483 76.7399 134.408 74.9601 133.428 76.7927C133.302 77.025 132.97 77.4432 132.437 77.8412C128.118 81.114 122.973 76.8418 119.756 75.0256C119.756 75.0256 119.743 77.032 117.258 77.9587C114.771 78.8782 119.835 77.5317 119.835 77.5317C119.835 77.5317 123.195 79.8472 125.242 80.5518C127.288 81.2494 134.78 80.2254 134.821 79.3969C134.855 78.5695 135.023 77.4716 135.023 77.4716Z" fill="#6A962D"/>
<path d="M119.945 76.061C118.047 79.6064 113.164 77.8415 111.162 73.9581C111.187 79.4973 116.315 79.9469 120.002 77.8584C123.09 81.4125 128.126 83.4548 132.71 81.7123C134.937 80.8694 136.832 79.2114 135.022 77.4717C134.907 78.3924 134.411 79.0784 133.661 79.5466C130.458 81.5754 122.601 79.7627 119.945 76.061Z" fill="#9CDE40"/>
<path d="M118.638 47.4822C112.347 38.3063 98.3787 43.5598 89.2491 48.1989C87.6899 48.9902 84.9655 47.0831 83.7488 47.7628C83.4929 47.9124 84.5384 50.7392 84.2946 50.8723C87.931 55.5019 87.4259 62.1729 88.357 68.3506L111.946 53.7422L118.638 47.4822Z" fill="#FF453A"/>
<path d="M118.639 47.4827C118.146 46.7657 117.601 46.1305 117.017 45.5818C117.01 45.5829 103.148 47.6776 97.598 51.8671C92.0551 56.0555 92.0551 56.0555 92.0551 56.0555L94.8932 49.0393C94.8932 49.0393 91.9106 49.7417 88.6064 50.2148C87.672 50.3443 86.4481 51.1204 85.178 52.168C87.8517 56.6966 87.5129 62.7324 88.3578 68.3508L101.137 60.4321C105.756 56.6799 112.202 51.919 114.071 50.7569C114.935 50.2197 115.622 49.9155 116.309 49.6554L118.639 47.4827Z" fill="#BF2A22"/>
<path d="M122.278 54.835C114.66 53.8591 98.4239 63.1629 94.1239 72.4091C93.5469 73.6655 93.9296 74.671 93.7823 75.9052C90.5937 74.7966 89.5089 71.572 88.3584 68.3503C88.2153 67.9466 88.2057 67.5515 88.3375 67.1202C91.9753 54.9146 107.642 48.1068 117.825 46.7265C119.609 46.488 121.126 47.6122 121.332 49.3277C121.605 51.6202 122.278 54.835 122.278 54.835Z" fill="#D4CAC1"/>
<path d="M122.275 54.8354C114.658 53.8595 98.5931 62.2778 94.2941 71.5312C94.1216 71.8882 93.7431 75.5735 93.7797 75.9056C92.8137 74.3073 93.1248 69.4723 94.0155 67.5361C95.5593 64.1703 102.749 60.2785 104.122 56.7114C103.181 57.0842 93.2709 62.7099 93.2709 62.7099C93.2709 62.7099 98.3928 57.03 104.206 53.1155C110.012 49.2095 120.471 47.5664 120.478 47.5653C120.936 48.0158 121.243 48.6219 121.33 49.3281C121.603 51.6206 122.275 54.8354 122.275 54.8354Z" fill="#F4F4F4"/>
<path d="M82.9267 46.9036C80.9844 47.3994 79.6442 49.3204 79.9333 51.1945C80.2225 53.0685 82.0315 54.1859 83.9739 53.6901C85.9162 53.1943 87.2564 51.2733 86.9672 49.3992C86.6781 47.5251 84.8691 46.4078 82.9267 46.9036Z" fill="#C7C7C7"/>
<path d="M121.478 65.2158C121.19 65.4438 120.749 65.4897 120.458 65.2703C120.259 65.1247 120.142 64.886 120.07 64.6549C119.978 64.346 119.929 64.0304 119.888 63.7138C119.794 63.1043 119.854 62.5443 120.478 62.2572C120.848 62.0899 121.297 62.0499 121.564 62.398C121.813 62.7267 121.82 63.2982 121.873 63.6865C121.95 64.2326 121.956 64.8411 121.478 65.2158Z" fill="black"/>
<path d="M121.115 59.5667C120.195 58.8423 119.284 58.1238 118.372 57.3983C117.42 56.6495 116.404 55.8738 115.152 55.8467C115.696 56.0931 116.154 56.4923 116.482 56.9997C115.03 56.4823 113.489 55.9639 111.894 56.2906C112.187 56.4731 112.48 56.6627 112.78 56.8441C110.966 56.7936 109.073 57.2766 107.385 58.2345C108.055 58.1459 108.724 58.0574 109.386 57.9699C108.869 58.2405 108.352 58.548 107.95 58.9917C107.542 59.4365 107.259 60.0308 107.296 60.605C109.142 58.4847 112.104 57.5064 114.512 58.2214C114.944 58.353 115.359 58.5239 115.769 58.703C117.27 59.345 118.779 59.9859 120.281 60.6351C121.303 61.0722 122.443 61.513 123.568 61.0971C123.033 60.9594 122.869 60.5148 122.463 60.2617C122.04 59.9967 121.541 59.9048 121.115 59.5667Z" fill="black"/>
<path d="M126.081 118.681C126.081 118.681 120.909 97.9599 111.478 98.791C102.046 99.6149 96.698 108.59 93.9702 115.273C91.2435 121.964 90.7616 123.932 90.7616 123.932L126.081 118.681Z" fill="#BF2A22"/>
<path d="M96.4104 110.205C96.4104 110.205 103.359 101.997 110.842 103.816C118.333 105.633 119.371 106.699 120.648 105.364C121.932 104.028 122.817 102.482 121.303 100.285C119.79 98.0887 114.888 97.0096 110.939 97.3031C106.744 97.62 93.443 100.538 94.1027 106.479C94.3071 108.327 96.4104 110.205 96.4104 110.205Z" fill="#F4F4F4"/>
<path d="M96.4094 110.205C96.4094 110.205 103.358 101.997 110.841 103.816C118.332 105.633 119.37 106.699 120.647 105.364C121.19 104.796 121.67 104.193 121.917 103.509C121.898 103.527 120.294 104.743 118.911 104.252C117.529 103.76 109.143 101.471 105.764 102.169C102.391 102.865 98.2395 104.938 98.2395 104.938C98.2395 104.938 99.1385 101.723 100.926 100.272C100.926 100.272 96.4987 101.792 94.2983 104.804C94.1082 105.333 94.0406 105.894 94.1015 106.479C94.3062 108.327 96.4094 110.205 96.4094 110.205Z" fill="#D4CAC1"/>
<path d="M102.855 106.773C102.855 106.773 100.382 111.545 100.325 113.742C100.276 115.945 103.531 122.674 120.18 118.042C129.677 115.402 129.825 116.98 129.825 116.98L127.732 107.362L115.519 110.193C113.782 110.594 113.519 110.223 112.908 108.599C112.109 106.461 110.209 105.095 107.927 105.007C106.006 104.929 103.929 105.264 102.855 106.773Z" fill="#F53B31"/>
<path d="M131.583 115.718C131.583 115.718 136.803 115.625 139.171 115.267C141.545 114.908 144.032 113.944 145.457 112.424C148.457 109.216 145.007 105.416 140.331 106.277C138.925 106.538 138.776 106.525 138.776 106.525C138.776 106.525 139.434 106.122 139.896 105.552C140.326 105.008 140.34 104.338 139.919 103.845C139.504 103.343 138.779 103.162 138.078 103.38C137.313 103.608 136.377 103.965 135.646 104.46C134.134 105.464 129.784 108.58 129.784 108.58C129.784 108.58 130.537 112.465 131.583 115.718Z" fill="#D7C5E4"/>
<path d="M131.582 115.718C131.582 115.718 136.803 115.624 139.17 115.266C141.545 114.907 144.032 113.944 145.457 112.424C145.487 112.383 145.526 112.348 145.556 112.306C145.995 111.247 145.672 110.49 145.672 110.49C145.672 110.49 145.672 110.49 144.875 110.892C144.078 111.294 140.544 112.654 139.109 112.824C137.682 113 134.823 113.023 134.26 111.854C133.698 110.685 130.996 108.063 130.996 108.063C130.996 108.063 130.408 109.152 130.079 109.973C130.387 111.394 130.93 113.682 131.582 115.718Z" fill="#B4A8BC"/>
<path d="M127.127 116.714C127.127 116.714 128.68 117.025 130.031 116.978C130.542 116.958 131.051 116.879 131.494 116.796C132.198 116.651 132.707 116.044 132.675 115.366C132.578 113.45 132.263 109.6 131.25 108.361C130.094 106.961 129.745 106.839 129.664 106.837C129.628 106.842 129.598 106.839 129.56 106.831C129.195 106.799 127.743 106.715 126.016 107.466C124.022 108.339 123.962 108.238 123.962 108.238C123.962 108.238 125.257 109.352 126.106 111.761C126.956 114.178 127.135 115.905 127.127 116.714Z" fill="#FCF2E9"/>
<path d="M127.128 116.713C127.128 116.713 128.681 117.024 130.032 116.977C130.543 116.957 131.053 116.886 131.495 116.796C131.844 116.727 132.146 116.541 132.356 116.288C132.915 115.196 131.186 115.081 130.096 114.919C129.007 114.757 128.166 113.969 127.456 112.463C126.747 110.957 125.076 109.695 125.076 109.695C125.415 110.179 125.784 110.856 126.107 111.761C126.957 114.177 127.136 115.905 127.128 116.713Z" fill="#D4CAC1"/>
<path d="M144.493 96.164L143.596 106.816C143.553 107.439 142.889 108.041 142.101 108.163L139.834 108.512C139.053 108.633 138.447 108.227 138.483 107.605L139.172 96.2728C139.219 95.4359 140.281 94.5158 141.598 94.3421C142.827 94.1744 144.54 95.3785 144.493 96.164Z" fill="#4E3A37"/>
<path d="M32.1359 124.448C33.6212 141.324 38.0314 150.886 41.456 158.665L16.6709 160.844C20.214 152.866 19.15 142.102 17.6986 125.689L32.1359 124.448Z" fill="#7A3E25"/>
<path d="M33.7629 159.341L16.6706 160.843C19.6434 154.146 19.3717 145.489 18.3503 133.177C18.3503 133.177 22.4513 137.956 24.2944 143.319C26.1356 148.684 25.9672 150.398 27.2026 152.822C28.438 155.247 33.7629 159.341 33.7629 159.341Z" fill="#BA633D"/>
<path d="M40.2946 107.137C48.7324 113.766 54.5082 113.821 56.5176 115.57C58.5293 117.319 61.5653 123.367 37.2851 125.881C13.0069 128.395 -3.35496 130.415 -10.6367 127.418C-17.9184 124.421 -11.7686 119.053 -6.14516 116.351C14.8769 106.246 17.1782 93.3061 16.0394 77.0276C24.0806 85.2952 34.8036 102.822 40.2946 107.137Z" fill="#097A4F"/>
<path d="M21.0219 127.56C5.59885 129.079 -5.12503 129.687 -10.6381 127.418C-17.9199 124.421 -11.77 119.053 -6.1466 116.351C-0.186789 113.487 4.26601 110.394 7.56443 107.063L7.56661 107.063C7.56661 107.063 5.17245 111.361 5.00756 113.013C4.84266 114.665 7.31834 114.365 9.586 113.589C11.8537 112.813 11.1838 115.591 10.7504 117.528C10.3192 119.464 13.3404 118.282 16.031 118.899C18.7212 119.513 26.8279 124.905 26.8279 124.905C26.8279 124.905 24.3549 126.104 21.0219 127.56Z" fill="#00B067"/>
<path d="M4.06312 87.0393C-1.65997 94.3989 -6.46981 95.6378 -7.8011 97.5369C-9.13262 99.4339 -10.4621 105.185 10.3085 102.302C31.0811 99.4159 40.8954 98.7654 46.3787 94.723C51.8595 90.6786 45.6561 87.4005 40.4225 86.2716C20.8595 82.0499 20.6079 70.5443 18.3192 56.5124C13.2519 65.1791 7.79065 82.2475 4.06312 87.0393Z" fill="#097A4F"/>
<path d="M4.06181 87.0393C-1.66128 94.3989 -6.47113 95.6378 -7.80241 97.5369C-9.13393 99.4339 -10.4634 105.185 10.3072 102.302C13.6781 101.834 16.7573 101.424 19.5777 101.049C21.2662 100.493 22.2845 100.082 22.2584 99.9397C21.7824 97.304 15.7024 92.3791 13.8131 87.9686C11.3358 89.845 10.3295 92.2732 6.86395 92.4516C6.86395 92.4516 7.19288 89.5239 7.71846 87.7643C8.24431 86.0068 8.72861 83.2482 7.93456 84.1603C7.42226 84.7508 5.54613 86.0946 4.66905 86.1742C4.46226 86.4933 4.26102 86.7852 4.06181 87.0393Z" fill="#00B067"/>
<path d="M24.2717 62.2752C28.8794 67.1306 36.7316 67.5335 38.0709 69.0807C39.4125 70.6277 41.649 75.916 26.9474 77.6954C12.2479 79.4746 2.36166 80.9564 -2.28328 78.2415C-6.92849 75.5245 -3.5009 70.9768 -0.228496 68.7277C12.0014 60.3197 12.5975 49.1493 10.8776 35.0308C16.3199 42.3237 19.6664 57.4217 24.2717 62.2752Z" fill="#097A4F"/>
<path d="M25.8166 77.8345C11.7395 79.5493 2.24049 80.887 -2.28328 78.2415C-6.92849 75.5245 -3.5009 70.9768 -0.228495 68.7277C12.0014 60.3197 12.5975 49.1493 10.8776 35.0308C10.8776 35.0308 14.8735 50.6163 13.7613 56.0247C12.6467 61.4312 10.4623 64.9594 10.4623 64.9594C10.4623 64.9594 12.8419 65.4918 14.554 64.0905C16.2662 62.6891 16.2662 62.6891 16.2662 62.6891C16.2662 62.6891 14.6121 66.5799 12.4234 69.0494C10.2343 71.5168 13.7922 72.0281 18.8129 72.9882C21.2035 73.4463 24.798 75.7222 25.8166 77.8345Z" fill="#00B067"/>
<path d="M-5.52467 83.7312C-7.29084 84.814 -8.27495 86.9143 -7.83829 89.097C-7.26564 91.9466 -4.4887 93.8615 -1.63134 93.3719C1.22388 92.8826 3.0762 90.173 2.50573 87.3232C2.06906 85.1405 0.336618 83.506 -1.73162 83.0797L-1.91511 82.1665C-2.13173 81.0893 -5.92583 81.7321 -5.70816 82.818L-5.52467 83.7312Z" fill="#C2342D"/>
<path d="M-1.05073 84.5874C0.711593 85.336 1.54881 88.5626 1.35216 90.1718C1.35216 90.1718 2.65803 88.7754 1.75498 86.5209C0.849717 84.2667 -1.05073 84.5874 -1.05073 84.5874Z" fill="#FF453A"/>
<path d="M12.041 71.9645L15.9501 75.1399C16.2837 75.4113 16.7554 75.4361 17.1383 75.2018L22.5981 71.8963C22.9567 71.6804 23.1368 71.3048 23.0702 70.9193L22.216 65.9258C22.1335 65.4449 21.886 65.0635 21.4695 64.7822L17.1195 61.8371C16.7849 61.6122 16.3553 61.6067 15.9967 61.8226L10.5391 65.1278C10.1537 65.3602 9.97457 65.7799 10.0857 66.1866L11.4068 70.9998C11.5142 71.3936 11.7172 71.7008 12.041 71.9645Z" fill="#7F38A3"/>
<path d="M17.1673 75.1845L22.5981 71.8958C22.9567 71.68 23.1368 71.3044 23.0703 70.9188L22.2621 66.1961C22.2232 65.9664 22.078 65.7894 21.8526 65.6995C21.6273 65.6096 21.3867 65.6321 21.1744 65.7595L15.5932 69.1393C15.1584 69.402 14.9551 69.8777 15.0813 70.3357L16.2568 74.6225C16.3245 74.8708 16.4991 75.0531 16.7556 75.1437C16.8918 75.1913 17.0306 75.2055 17.1673 75.1845Z" fill="#753794"/>
<path d="M12.042 71.9644L15.8162 75.0301C15.9092 75.105 16.0407 75.1135 16.1477 75.0474C16.255 74.9836 16.305 74.867 16.2736 74.7536L15.1133 70.5202C14.88 69.6705 14.8491 69.5792 13.8986 68.7965L10.4562 65.9693L10.4538 65.9673C10.321 65.8574 10.2607 65.7055 10.2777 65.5353C10.2969 65.365 10.3878 65.2213 10.5401 65.1277C10.3196 65.2605 10.1663 65.4559 10.0977 65.6743C10.0445 65.8378 10.0392 66.0131 10.0867 66.1865L11.4078 70.9997L11.4124 71.019L11.4188 71.0359L11.4234 71.0553L11.4299 71.0722L11.4344 71.0915L11.4409 71.1084L11.4474 71.1253L11.4541 71.1444L11.4606 71.1613L11.4649 71.1785L11.4714 71.1954L11.4736 71.1951L11.48 71.212L11.4865 71.2289L11.493 71.2458L11.4995 71.2628L11.5081 71.2794L11.5146 71.2963L11.5233 71.3129L11.5297 71.3299L11.5381 71.3443L11.5468 71.361L11.5554 71.3776L11.5533 71.3779L11.5617 71.3923L11.5703 71.409L11.5787 71.4234L11.5895 71.4398L11.5979 71.4543L11.6066 71.4709L11.615 71.4854L11.6258 71.5018L11.6342 71.5162L11.6447 71.5304L11.664 71.5613C11.6745 71.5755 11.6851 71.5897 11.6957 71.6039L11.7168 71.6323L11.7401 71.6604L11.7506 71.6746L11.7612 71.6888L11.7739 71.7027L11.7844 71.717L11.7972 71.7309L11.81 71.7448L11.8352 71.7705L11.8606 71.7984L11.8731 71.8101L11.8859 71.8241L11.9133 71.8495L11.926 71.8635C11.9407 71.8749 11.9534 71.8889 11.9683 71.9026L11.9681 71.9004L11.983 71.914L11.9977 71.9255L12.0126 71.9392L12.0273 71.9507L12.042 71.9644Z" fill="#EE82FF"/>
<path d="M16.2607 74.921C16.2854 74.8693 16.2894 74.8114 16.2736 74.7536L15.1133 70.5202C14.8803 69.6727 14.8491 69.5792 13.8986 68.7965L10.4562 65.9693L10.4538 65.9673C10.3233 65.8571 10.2607 65.7055 10.2774 65.5332C10.2969 65.365 10.3878 65.2213 10.5401 65.1277C10.3196 65.2605 10.1663 65.4559 10.0977 65.6743C10.0445 65.8378 10.0392 66.0131 10.0867 66.1865C10.0867 66.1865 13.5347 68.8229 14.4797 71.4416C15.4249 74.0625 15.5628 74.6539 16.2607 74.921Z" fill="#F4ABFF"/>
<path d="M21.1759 64.5835L17.1825 61.8805C16.8091 61.6271 16.3286 61.6212 15.929 61.8641L10.5476 65.1225C10.3887 65.2169 10.2956 65.3609 10.277 65.5356C10.2602 65.7079 10.3228 65.8595 10.458 65.9714L14.2396 69.0804C14.6125 69.3847 15.1401 69.4137 15.5708 69.1537L21.1067 65.8015C21.3354 65.6632 21.4686 65.4481 21.4845 65.1963C21.4983 64.9447 21.388 64.7281 21.1759 64.5835Z" fill="#BF5AF2"/>
<path d="M20.9681 64.4425L17.1819 61.8802C16.8085 61.6269 16.3279 61.6209 15.9283 61.8639L10.5469 65.1223C13.8492 63.7408 15.0199 63.4023 18.8865 64.0156L18.8888 64.0175L18.8978 64.0186C18.9903 64.034 19.0851 64.049 19.1819 64.0639C19.2812 64.0806 19.3786 64.0997 19.4722 64.1238C19.8505 64.1974 20.3808 64.3035 20.9681 64.4425Z" fill="#EE82FF"/>
<path d="M13.4992 70.2225C13.3239 69.9982 12.8315 69.4741 12.474 69.6633C12.4326 69.686 12.3965 69.7169 12.368 69.7557C12.1082 70.1122 12.5356 70.8477 12.7529 71.1265C12.926 71.351 13.4184 71.8752 13.7758 71.686C13.8173 71.6633 13.8534 71.6324 13.8818 71.5936C14.1416 71.2371 13.7146 70.5038 13.4992 70.2225Z" fill="#7F38A3"/>
<path d="M17.3286 62.6018C16.9336 62.298 16.262 62.3218 15.825 62.5848C15.3761 62.858 15.238 63.3612 15.6642 63.6855C16.0592 63.9893 16.7307 63.9655 17.1677 63.7026C17.6145 63.4296 17.7526 62.9264 17.3286 62.6018ZM16.0468 67.175C15.6518 66.8712 14.9802 66.895 14.5435 67.1602C14.0965 67.431 13.9583 67.9342 14.3827 68.2609C14.7776 68.5647 15.4492 68.5409 15.8859 68.2758C16.3351 68.0047 16.4711 67.5018 16.0468 67.175ZM20.0166 64.8968C19.6216 64.593 18.95 64.6168 18.5153 64.8795C18.0663 65.1528 17.928 65.6538 18.3523 65.9805C18.7494 66.2841 19.4188 66.2605 19.8555 65.9954C20.3047 65.7243 20.4428 65.2211 20.0166 64.8968ZM16.8314 64.8157C16.4343 64.5122 15.763 64.5382 15.3282 64.8009C14.879 65.072 14.7408 65.5751 15.1652 65.9019C15.5623 66.2054 16.2339 66.1817 16.6684 65.9168C17.1176 65.6457 17.2558 65.1425 16.8314 64.8157ZM13.6444 64.7371C13.2494 64.4333 12.5778 64.4571 12.1411 64.7223C11.6919 64.9933 11.5538 65.4965 11.9802 65.823C12.3752 66.1268 13.0465 66.1009 13.4813 65.8382C13.9306 65.5671 14.0687 65.0639 13.6444 64.7371Z" fill="#54256B"/>
<path d="M15.9501 75.1393C16.2836 75.4108 16.7554 75.4355 17.1383 75.2012L22.598 71.8957C22.9566 71.6798 23.1368 71.3042 23.0702 70.9187L22.216 65.9252C22.4149 67.7519 22.3342 69.6059 21.4898 71.0702C20.7241 72.399 19.2758 73.3858 17.8594 74.1432C17.2447 74.4719 16.6693 74.9793 15.9501 75.1393Z" fill="#A650D1"/>
<path d="M21.4702 64.7819L21.4025 64.8255C21.4644 64.9352 21.4906 65.0603 21.4849 65.1958C21.469 65.4476 21.3358 65.6628 21.1071 65.801L15.5712 69.1533C15.2682 69.3359 14.915 69.3764 14.6044 69.2769C14.6044 69.2769 14.5893 69.3164 14.5667 69.3854C14.8897 69.7156 14.9549 69.9443 15.113 70.52L16.1034 74.1349L16.1394 74.1947C16.0123 71.665 16.3184 70.54 17.8566 68.9806C18.4791 68.3502 21.4268 67.036 21.7746 65.561C21.8325 65.3086 21.5792 65.0429 21.4702 64.7819Z" fill="#54256B"/>
<path d="M21.5502 68.0821C21.3785 67.5589 20.7794 67.5054 20.3157 67.7848C19.8605 68.0611 19.5235 68.6569 19.6852 69.1525C19.8569 69.6757 20.456 69.7292 20.9175 69.45C21.375 69.1735 21.7119 68.5777 21.5502 68.0821ZM18.8957 72.1293C18.7237 71.604 18.1247 71.5504 17.661 71.8299C17.2057 72.1061 16.8688 72.7019 17.0305 73.1976C17.2024 73.7229 17.8015 73.7765 18.2649 73.4948C18.7202 73.2186 19.0574 72.625 18.8957 72.1293Z" fill="#EE82FF"/>
<path d="M12.5081 69.648C12.4975 69.6515 12.4871 69.6572 12.4746 69.6631C12.4331 69.6858 12.397 69.7167 12.3685 69.7556C12.1087 70.1121 12.5361 70.8475 12.7534 71.1264C12.9265 71.3509 13.4189 71.8751 13.7764 71.6859C13.8178 71.6632 13.8539 71.6323 13.8824 71.5934C13.9124 71.55 13.9355 71.503 13.9469 71.4507C13.5926 71.5931 13.1252 71.0925 12.9572 70.874C12.7683 70.6292 12.4151 70.0308 12.5081 69.648Z" fill="#BF5AF2"/>
<path d="M17.3274 62.6006C16.9324 62.2968 16.2608 62.3206 15.8239 62.5836C15.5973 62.7216 15.4487 62.9187 15.4137 63.1219C15.4865 63.0114 15.5915 62.9103 15.7255 62.8299C16.1602 62.5672 16.8318 62.5434 17.229 62.8469C17.4364 63.0076 17.5096 63.211 17.4759 63.4075C17.6455 63.1459 17.625 62.83 17.3274 62.6006ZM16.0456 67.1738C15.6506 66.8701 14.9791 66.8938 14.5424 67.159C14.3158 67.297 14.1672 67.4941 14.1321 67.6973C14.205 67.5868 14.3099 67.4856 14.4439 67.4053C14.8806 67.1402 15.5522 67.1164 15.9472 67.4202C16.1568 67.5805 16.2279 67.7842 16.1944 67.9829C16.3661 67.721 16.3453 67.4029 16.0456 67.1738ZM20.0154 64.8956C19.6205 64.5919 18.9489 64.6156 18.5141 64.8783C18.2854 65.0166 18.139 65.2134 18.1039 65.4167C18.1746 65.3064 18.2817 65.205 18.4135 65.1249C18.8505 64.8619 19.522 64.8382 19.9168 65.1398C20.1266 65.3023 20.1999 65.5057 20.1662 65.7022C20.3357 65.4406 20.3151 65.1247 20.0154 64.8956ZM16.8303 64.8146C16.4331 64.5111 15.7618 64.537 15.327 64.7997C15.0983 64.938 14.9519 65.1348 14.9168 65.3381C14.9875 65.2278 15.0946 65.1264 15.2286 65.046C15.6631 64.7811 16.3347 64.7574 16.7297 65.0611C16.9392 65.2215 17.0125 65.4249 16.979 65.6236C17.1486 65.362 17.1278 65.0439 16.8303 64.8146ZM13.6432 64.736C13.2482 64.4322 12.5766 64.456 12.1399 64.7211C11.9134 64.8591 11.7648 65.0562 11.7297 65.2594C11.8026 65.1489 11.9075 65.0477 12.0415 64.9674C12.476 64.7025 13.1476 64.6787 13.5426 64.9825C13.7522 65.1429 13.8254 65.3463 13.792 65.545C13.9613 65.2812 13.9408 64.9653 13.6432 64.736Z" fill="#753794"/>
<path d="M21.5508 68.0822C21.4948 67.9121 21.394 67.7916 21.2677 67.7162C21.2953 67.7615 21.3169 67.812 21.3346 67.8673C21.4985 68.3627 21.1591 68.9566 20.7039 69.2328C20.3908 69.4233 20.0171 69.4597 19.7525 69.3015C19.9825 69.685 20.5041 69.7015 20.9181 69.4501C21.3756 69.1736 21.7125 68.5778 21.5508 68.0822ZM18.8963 72.1294C18.8403 71.9593 18.7395 71.8388 18.6129 71.7613C18.6405 71.8066 18.6621 71.857 18.6799 71.9124C18.8438 72.4078 18.5068 73.0036 18.0494 73.2801C17.7361 73.4683 17.3623 73.5047 17.098 73.3488C17.3277 73.7301 17.8515 73.7463 18.2655 73.4949C18.7208 73.2187 19.058 72.6251 18.8963 72.1294Z" fill="#54256B"/>
<path d="M36.7679 78.6628C34.9646 79.7501 33.8999 81.8602 34.2428 84.0543C34.6915 86.921 37.3745 88.8451 40.2384 88.3548C43.1001 87.8647 45.0571 85.1424 44.6065 82.2781C44.2635 80.084 42.6095 78.44 40.5696 78.0103L40.4256 77.0946C40.2567 76.0094 36.4539 76.6532 36.6258 77.7446L36.7679 78.6628Z" fill="#38A270"/>
<path d="M36.7666 78.6629C34.993 79.7023 33.9979 81.6935 34.4258 83.749C34.9718 86.3784 37.6415 88.1383 40.4422 87.7463C38.2191 87.0822 36.9895 84.4316 37.5222 82.2377C37.8506 80.8955 38.8279 79.7799 40.0502 79.0814C40.0502 79.0814 38.371 79.4947 37.5206 79.2836C36.6725 79.0723 36.7666 78.6629 36.7666 78.6629Z" fill="#59F2AA"/>
<path d="M38.4353 76.716C37.6359 76.8525 37.0209 77.1613 37.0597 77.4087C37.0961 77.6542 37.7767 77.7421 38.5761 77.6055C39.3731 77.4671 39.9902 77.158 39.9517 76.9128C39.9129 76.6654 39.2345 76.5772 38.4353 76.716Z" fill="#59F2AA"/>
<path d="M36.7109 77.7607C36.928 78.0197 37.6802 78.1321 38.3793 78.0807C38.1122 78.4314 37.871 78.7591 37.7194 79.0406C37.3956 79.0334 37.0252 78.8593 36.8573 78.6961C36.801 78.3403 36.7653 78.119 36.7109 77.7607Z" fill="#59F2AA"/>
<path d="M41.1836 79.5258C42.9048 80.2816 43.6022 83.5229 43.3402 85.1401C43.3402 85.1401 44.6963 83.7377 43.8913 81.4713C43.0884 79.2046 41.1836 79.5258 41.1836 79.5258Z" fill="#59F2AA"/>
<path d="M36.696 78.7067C36.6807 79.257 37.2333 79.639 37.5691 79.7642C35.8081 80.926 34.747 82.5359 34.843 84.5719C34.843 84.5719 33.4344 81.3194 36.696 78.7067Z" fill="#81FFDD"/>
<path d="M36.854 78.062L36.9174 78.6226C36.9174 78.6226 37.0599 78.7402 37.1744 78.7728C37.2867 78.8057 37.1734 78.1073 37.1734 78.1073L36.854 78.062Z" fill="#81FFDD"/>
<path d="M37.4553 83.2322C36.9722 83.315 36.662 83.8943 36.7603 84.5237C36.8586 85.153 37.3303 85.5979 37.8112 85.5153C38.2943 85.4325 38.6048 84.8554 38.5063 84.2239C38.408 83.5945 37.9362 83.1497 37.4553 83.2322Z" fill="#59F2AA"/>
<path d="M38.1502 77.1998C37.9489 76.5232 37.8162 74.5868 37.7809 73.8746C37.7706 73.6989 37.9028 73.5481 38.0752 73.5294L38.4925 73.4877C38.5865 73.4786 38.6691 73.504 38.7364 73.5666C38.8056 73.6267 38.8418 73.7064 38.8442 73.799C38.8457 73.8297 38.845 73.8608 38.8465 73.8916C38.8569 74.3613 38.9775 76.3987 39.1839 76.8801C38.9201 77.0934 38.5339 77.264 38.1502 77.1998Z" fill="#433160"/>
<path d="M20.5921 107.597C18.7891 108.687 17.7219 110.795 18.0652 112.991C18.5136 115.856 21.1989 117.782 24.0607 117.292C26.9222 116.799 28.8794 114.079 28.4307 111.213C28.0855 109.019 26.4318 107.377 24.3919 106.947L24.2477 106.029C24.079 104.946 20.2762 105.59 20.4481 106.682L20.5921 107.597Z" fill="#FF9500"/>
<path d="M20.5911 107.597C18.8155 108.639 17.8202 110.628 18.2481 112.684C18.794 115.313 21.4659 117.073 24.2646 116.683C22.0438 116.019 20.8141 113.368 21.3468 111.174C21.6729 109.83 22.6504 108.717 23.8748 108.018C23.8748 108.018 22.1935 108.431 21.3453 108.22C20.495 108.009 20.5911 107.597 20.5911 107.597Z" fill="#FFDB3A"/>
<path d="M22.2575 105.651C21.4603 105.787 20.8434 106.098 20.8819 106.344C20.9204 106.589 21.5989 106.677 22.3984 106.54C23.1978 106.404 23.8127 106.095 23.7739 105.848C23.7354 105.603 23.057 105.514 22.2575 105.651Z" fill="#FFDB3A"/>
<path d="M20.5332 106.698C20.7503 106.957 21.5022 107.067 22.2016 107.018C21.9345 107.369 21.693 107.694 21.5417 107.978C21.2179 107.971 20.8472 107.795 20.6796 107.634C20.6232 107.278 20.5895 107.054 20.5332 106.698Z" fill="#FFDB3A"/>
<path d="M25.0059 108.46C26.7293 109.216 27.4245 112.457 27.1628 114.077C27.1628 114.077 28.5186 112.672 27.7157 110.406C26.911 108.141 25.0059 108.46 25.0059 108.46Z" fill="#FFDB3A"/>
<path d="M20.5182 107.641C20.5033 108.194 21.0556 108.574 21.3938 108.701C19.6303 109.861 18.5692 111.47 18.6656 113.509C18.6656 113.509 17.2569 110.256 20.5182 107.641Z" fill="white"/>
<path d="M20.6784 106.998L20.7394 107.557C20.7394 107.557 20.8843 107.676 20.9966 107.709C21.1087 107.74 20.9955 107.042 20.9955 107.042L20.6784 106.998Z" fill="white"/>
<path d="M21.2775 112.169C20.7944 112.252 20.484 112.829 20.5825 113.46C20.683 114.089 21.1523 114.532 21.6333 114.45C22.1164 114.367 22.4268 113.79 22.3286 113.16C22.2302 112.531 21.7584 112.086 21.2775 112.169Z" fill="#FFDB3A"/>
<path d="M21.9744 106.137C21.7731 105.461 21.6404 103.524 21.6048 102.81C21.5971 102.636 21.727 102.486 21.8994 102.467L22.3189 102.425C22.4106 102.416 22.4933 102.441 22.5625 102.502C22.6298 102.564 22.6679 102.641 22.6684 102.736C22.6696 102.765 22.6714 102.798 22.6707 102.829C22.6812 103.299 22.8015 105.334 23.0081 105.818C22.744 106.029 22.3603 106.201 21.9744 106.137Z" fill="#433160"/>
<path d="M38.8126 68.4997C38.966 68.5983 39.0914 68.7025 39.1866 68.8126C40.6002 70.4437 42.9574 76.016 27.4646 77.8911C20.3908 78.7495 6.28558 80.9808 -0.571995 79.5332C-3.48576 78.9174 -5.5181 77.1069 -5.3641 73.9947C-5.29737 72.6643 -4.91143 71.5231 -3.39178 72.1484C0.894997 73.9138 1.24956 71.8741 5.25271 72.8491C6.66074 73.1916 8.05459 73.673 9.34831 74.3501C11.1852 75.386 13.9123 74.9895 16.2397 73.2816C17.6612 72.2383 21.2496 70.9372 24.2718 70.9142C26.1983 70.8999 27.9853 71.944 28.5399 72.1599C31.9957 73.5084 34.5323 69.8934 36.1504 68.7202C36.8863 68.1866 37.8512 68.0101 38.8126 68.4997Z" fill="white"/>
<path d="M54.4753 127.809C52.7092 128.892 51.7251 130.992 52.1617 133.175C52.7344 136.025 55.5113 137.94 58.3687 137.45C61.2239 136.961 63.0762 134.251 62.5057 131.401C62.0688 129.216 60.3366 127.584 58.2684 127.158L58.0849 126.245C57.8682 125.167 54.0742 125.81 54.2919 126.896L54.4753 127.809Z" fill="#7F38A3"/>
<path d="M54.4757 127.81C52.7348 128.845 51.8203 130.826 52.3351 132.869C52.9944 135.485 55.7513 137.234 58.55 136.845C56.2877 136.185 54.9404 133.549 55.3859 131.366C55.6574 130.028 56.5935 128.92 57.7941 128.224C57.7941 128.224 56.1214 128.636 55.2602 128.427C54.3968 128.217 54.4757 127.81 54.4757 127.81Z" fill="#BF5AF2"/>
<path d="M56.0681 125.87C55.2711 126.009 54.6649 126.317 54.7143 126.56C54.7618 126.807 55.4489 126.894 56.2462 126.758C57.0432 126.619 57.6494 126.311 57.6 126.067C57.5525 125.821 56.8653 125.734 56.0681 125.87Z" fill="#BF5AF2"/>
<path d="M54.3789 126.912C54.6069 127.17 55.3678 127.281 56.0691 127.229C55.8151 127.579 55.587 127.905 55.4462 128.185C55.1203 128.178 54.7411 128.005 54.5645 127.843C54.4929 127.489 54.4508 127.268 54.3789 126.912Z" fill="#BF5AF2"/>
<path d="M58.9493 128.665C60.7116 129.414 61.5485 132.639 61.3522 134.25C61.3522 134.25 62.6581 132.854 61.755 130.599C60.8519 128.345 58.9493 128.665 58.9493 128.665Z" fill="#BF5AF2"/>
<path d="M54.403 127.851C54.412 128.401 54.982 128.781 55.3265 128.905C53.6045 130.06 52.6044 131.662 52.7879 133.69C52.7879 133.69 51.2354 130.455 54.403 127.851Z" fill="#EE82FF"/>
<path d="M54.5371 127.212L54.6223 127.77C54.6223 127.77 54.7714 127.887 54.8859 127.919C55.0026 127.952 54.8588 127.257 54.8588 127.257L54.5371 127.212Z" fill="#EE82FF"/>
<path d="M55.358 132.355C54.8771 132.438 54.5887 133.014 54.7153 133.64C54.8397 134.267 55.3311 134.709 55.812 134.627C56.2929 134.544 56.5813 133.967 56.4547 133.341C56.3303 132.715 55.8389 132.273 55.358 132.355Z" fill="#BF5AF2"/>
<path d="M55.8004 126.353C55.5708 125.68 55.3553 123.753 55.2914 123.042C55.2749 122.87 55.3983 122.72 55.5729 122.701L55.9902 122.659C56.0842 122.65 56.1668 122.676 56.2385 122.738C56.312 122.797 56.3504 122.877 56.3571 122.969C56.3584 122.997 56.3601 123.03 56.3638 123.061C56.3916 123.528 56.5994 125.555 56.8276 126.034C56.5725 126.246 56.1906 126.416 55.8004 126.353Z" fill="#614A31"/>
<path d="M-0.757152 118.686C0.919377 119.091 2.33499 119.862 3.21616 120.748L4.56707 121.076L4.21532 122.737C4.16403 122.971 4.03469 123.181 3.89505 123.379C3.04161 124.586 0.624045 125.056 -2.00948 124.417C-4.8704 123.726 -6.9732 121.973 -6.94904 120.382L-6.52684 118.39L-5.17593 118.717C-4.02285 118.323 -2.43391 118.279 -0.757152 118.686Z" fill="#01D180"/>
<path d="M-0.333387 116.705C2.73047 117.447 4.92426 119.403 4.56729 121.076C4.21059 122.751 1.43823 123.505 -1.62565 122.763C-4.68951 122.022 -6.88333 120.065 -6.52636 118.392C-6.16965 116.717 -3.3975 115.962 -0.333387 116.705Z" fill="#00A868"/>
<path d="M-0.567365 117.794C1.83633 118.361 3.59799 119.689 3.36947 120.761C3.14065 121.83 1.0076 122.238 -1.39368 121.673C-3.79737 121.106 -5.56122 119.778 -5.33241 118.709C-5.10386 117.638 -2.97082 117.229 -0.567365 117.794Z" fill="#007A4B"/>
<path d="M-1.152 120.273L-0.561842 120.947L-1.35484 121.319L-1.94526 120.643L-1.152 120.273ZM0.688514 119.402L0.56544 119.262L-0.682054 117.835L-2.36238 118.622L-2.5277 118.699C-2.99226 118.917 -3.08922 119.413 -2.74279 119.809C-2.57092 120.005 -2.32014 120.14 -2.05652 120.199C-1.79099 120.255 -1.51016 120.237 -1.27775 120.129L-1.11246 120.052L-0.989414 120.191C-0.817285 120.389 -0.566505 120.525 -0.303121 120.582C-0.0373241 120.64 0.243502 120.622 0.475649 120.512C0.935813 120.294 1.03251 119.796 0.688514 119.402ZM-0.185807 119.614L-0.269577 119.653L-1.11276 120.049L-1.73922 119.331L-1.80074 119.261C-1.97287 119.063 -1.92565 118.814 -1.69321 118.707C-1.57618 118.65 -1.43563 118.642 -1.30177 118.67C-1.16983 118.701 -1.04458 118.767 -0.955111 118.867L-0.89353 118.937L-0.811977 118.898C-0.694682 118.844 -0.554392 118.834 -0.420302 118.864C-0.286183 118.894 -0.163077 118.961 -0.0738447 119.059C0.0936014 119.255 0.0463401 119.504 -0.185807 119.614Z" fill="#F4F4F4"/>
<path d="M1.8615 117.51L0.860703 118.248C1.56073 118.532 2.1535 118.881 2.58962 119.25L3.96159 119.131C3.48196 118.53 2.75499 117.968 1.8615 117.51Z" fill="#F4F4F4"/>
<path d="M3.38221 120.448C3.39488 120.553 3.39201 120.657 3.36904 120.759C3.36791 120.768 3.36676 120.777 3.36348 120.786C3.28957 121.089 3.06101 121.338 2.71662 121.526L3.87629 122.155C4.22813 121.865 4.46828 121.511 4.56031 121.101L4.56613 121.076C4.59326 120.954 4.60462 120.829 4.60458 120.7L3.38221 120.448Z" fill="#F4F4F4"/>
<path d="M1.0872 123.038L0.448143 121.924C-0.115695 121.906 -0.728816 121.827 -1.35916 121.68L-1.59187 122.772C-0.649271 122.996 0.263096 123.08 1.0872 123.038Z" fill="#F4F4F4"/>
<path d="M3.87804 122.154L3.53434 123.772C3.67449 123.651 3.79564 123.52 3.89585 123.379C4.03549 123.181 4.16483 122.971 4.21611 122.737L4.56205 121.101C4.47005 121.51 4.22988 121.864 3.87804 122.154Z" fill="#33FFB1"/>
<path d="M0.737617 124.691L1.08824 123.038C0.264127 123.081 -0.64824 122.997 -1.59084 122.772C-1.60224 122.769 -1.61369 122.766 -1.62512 122.763L-1.97684 124.424C-1.02258 124.654 -0.0949451 124.736 0.737617 124.691Z" fill="#33FFB1"/>
<path d="M-13.5555 122.15C-13.7526 122.293 -13.9035 122.435 -14.0039 122.574C-15.4976 124.647 -16.7121 131.129 8.52662 129.335C19.7735 128.535 31.7041 127.958 42.8138 126.428C45.9874 125.993 61.6828 124.093 59.1187 117.834C58.4282 116.149 56.5285 114.612 54.8436 115.654C52.8585 116.882 52.1015 117.79 49.4188 117.823C47.4604 117.848 47.5485 117.114 44.8663 117.589C42.0563 118.086 37.9198 119.663 35.465 121.159C33.0361 122.705 28.5637 122.95 24.1347 121.708C21.4295 120.952 15.1945 120.446 10.4251 121.16C7.38433 121.615 5.03937 123.159 4.26301 123.523C-0.57432 125.795 -6.19046 122.583 -9.26288 121.734C-10.6628 121.349 -12.2622 121.399 -13.5555 122.15Z" fill="white"/>
<path d="M-8.46199 98.5785C-8.61556 98.7165 -8.73645 98.8505 -8.81565 98.9817C-9.97802 100.925 -10.8418 106.887 9.41707 104.435C29.6782 101.982 43.4154 100.62 48.5062 96.5504C51.8185 93.9006 50.2755 91.456 47.3466 89.7098C46.6862 89.7897 46.2628 90.0002 46.3184 90.3318C46.5359 91.6167 42.8958 93.258 40.8454 92.4492C38.7969 91.6379 32.8563 94.6058 30.9316 96.0969C29.0068 97.5859 25.4139 97.9544 21.8312 96.964C19.6438 96.3575 14.6214 96.0964 10.8006 96.9016C8.3641 97.4154 6.50539 98.903 5.88749 99.2608C2.03791 101.491 -2.53225 98.7365 -5.01751 98.0621C-6.15168 97.7527 -7.43562 97.8506 -8.46199 98.5785Z" fill="white"/>
<path d="M719.3 208.775H-15.0781V109.646C232.674 192.488 516.026 155.626 719.3 208.775Z" fill="#B3E8FE"/>
<path d="M-6.41947 112.472C239.255 191.626 518.389 156.243 719.301 208.775C719.301 208.775 647.691 203.344 578.092 194.132C508.492 184.92 244.934 181.846 146.67 169.565C48.4112 157.284 -6.4375 112.481 -6.4375 112.481L-6.41947 112.472Z" fill="#E4F7FF"/>
<path d="M540.282 208.775H-15.0781V120.927C25.9976 179.665 79.1743 190.72 197.268 196.53C254.122 199.328 540.282 208.775 540.282 208.775Z" fill="#8FD1EB"/>
<path d="M221.308 199.179L232.895 222.368C235.643 227.874 218.351 236.131 215.604 230.634L204.017 207.444C201.269 201.939 218.56 193.674 221.308 199.179Z" fill="#4E3A37"/>
<path d="M221.308 199.179L232.044 220.66C226.612 220.439 217.59 200.664 215.586 201.235C213.583 201.813 204.017 207.444 204.017 207.444C201.269 201.939 218.56 193.674 221.308 199.179Z" fill="#694A43"/>
<path d="M200.382 224.322L305.893 200.446C308.577 199.837 312.084 202.22 311.634 205.19L304.651 251.251C304.2 254.221 303.228 257.045 300.513 257.442L221.259 269.058C218.544 269.456 217.001 266.917 215.518 264.315L196.245 230.521C194.763 227.919 197.706 224.93 200.382 224.322Z" fill="#A449D1"/>
<path d="M200.381 224.323L298.548 202.109C303.615 206.196 307.95 210.128 307.95 210.128L308.727 209.914C308.727 209.914 240.047 227.714 235.24 230.606C230.434 233.498 232.728 242.421 225.729 250.903C225.381 251.316 226.948 252.442 229.411 251.796C231.347 251.289 232.386 249.865 234.557 248.962C243.883 245.061 248.738 250.065 253.074 258.842L260.733 258.752C260.733 258.752 270.47 246.356 282.628 245.953C291.994 245.635 296.949 253.898 298.732 257.704L221.257 269.059C218.542 269.457 216.999 266.918 215.516 264.316L196.244 230.521C194.761 227.92 197.704 224.931 200.381 224.323Z" fill="#753894"/>
<path d="M199.304 224.381L307.548 198.657C310.302 197.999 313.971 200.858 313.562 204.323L313.339 206.266C313.155 207.849 312.065 209.087 310.52 209.475C288.447 214.959 215.564 231.734 200.25 235.25C198.559 235.644 196.873 234.859 196.076 233.312L195.162 231.543C193.579 228.471 196.55 225.039 199.304 224.381Z" fill="#BE4BC0"/>
<path d="M199.306 224.38L307.55 198.655C310.304 197.998 313.973 200.857 313.572 204.32L313.341 206.264C313.268 206.922 313.033 207.526 312.675 208.026C312.66 208.028 306.185 209.362 302.83 210.016C299.475 210.669 297.855 204.089 297.855 204.089C297.855 204.089 281.488 209.038 255.543 215.383C234.068 220.641 206.239 225.644 195.489 227.242C196.36 225.828 197.862 224.722 199.306 224.38Z" fill="#EE5DF0"/>
<path d="M307.321 204.366C305.38 203.734 304.522 203.606 303.023 203.525C298.65 212.578 287.845 218.637 287.845 218.637C283.747 218.321 282.532 213.392 283.521 211.837C283.521 211.837 283.888 212.238 290.096 209.133C296.296 206.029 299.416 196.99 299.416 196.99C299.023 194.26 298.949 194.802 296.009 191.25C294.382 189.294 292.882 187.942 293.527 185.352C293.996 183.504 295.312 181.501 298.049 181.046C299.747 181.752 299.63 182.686 301.373 183.593C303.686 179.88 303.907 175.08 304.397 170.802C306.123 155.668 316.318 154.805 319.204 157.941C322.255 163.255 314.053 168.101 315.094 173.101C322.15 170.581 339.477 167.918 341.769 173.467C344.572 180.243 333.267 178.842 331.548 178.832C327.408 178.807 321.501 178.448 317.674 180.927C319.208 186.872 328.773 185.285 330.578 187.139C331.595 188.191 332.897 193.87 325.532 192.446C324.025 192.151 322.111 191.7 320.623 191.271C319.514 190.956 319.417 190.978 318.329 190.706C315.722 190.048 312.339 188.78 310.628 191.134C309.928 192.091 309.496 194.766 309.8 196.154C310.606 199.872 314.035 199.038 316.81 199.101C318.341 199.139 319.594 200.28 319.778 201.801C319.956 203.331 319.007 204.733 317.524 205.128C314.143 206.024 310.761 205.495 307.321 204.366Z" fill="#924F33"/>
<path d="M307.321 204.366C305.379 203.734 304.521 203.605 303.022 203.525C298.649 212.577 287.844 218.636 287.844 218.636C286.388 218.526 285.3 217.831 284.541 216.91C284.538 216.887 284.29 215.46 284.515 214.68C284.739 213.9 292.772 211.213 297.19 206.459C301.607 201.699 303.918 193.973 304.496 191.4C305.075 188.835 309.879 179.25 319.818 177.477C329.74 175.699 335.983 178.928 336.008 178.94L335.984 178.936L335.425 178.956C333.665 178.983 332.103 178.835 331.547 178.831C327.485 178.811 321.711 178.463 317.885 180.795C317.799 180.839 317.728 180.88 317.673 180.926C315.568 182.537 313.398 184.757 315.354 186.597C317.309 188.428 320.456 189.662 323.414 190.453C326.371 191.237 326.814 191.626 327.172 192.652C326.675 192.625 326.134 192.558 325.532 192.446C324.025 192.151 322.11 191.7 320.622 191.271C319.513 190.956 319.416 190.977 318.329 190.706C315.721 190.048 312.339 188.78 310.627 191.133C310.466 191.35 310.326 191.655 310.2 192.005C310.2 192.005 306.596 195.06 306.777 198.445C306.965 201.83 310.233 203.631 312.866 204.046C314.909 204.371 316.464 204.205 317.648 205.086C317.604 205.101 317.567 205.114 317.523 205.128C314.142 206.024 310.76 205.495 307.321 204.366Z" fill="#683A26"/>
<path d="M311.523 198.644C312.973 199.386 315.028 199.062 316.813 199.101C318.344 199.138 319.597 200.279 319.781 201.801C319.87 202.566 319.677 203.295 319.278 203.885C319.583 202.338 317.236 201.095 315.035 200.848C312.826 200.594 311.523 198.644 311.523 198.644Z" fill="#F38657"/>
<path d="M320.232 184.233C323.675 186.278 329.245 185.762 330.579 187.138C331.214 187.792 331.961 190.256 330.635 191.667C330.844 190.311 330.054 188.864 327.369 188.094C324.691 187.323 320.232 184.233 320.232 184.233Z" fill="#F38657"/>
<path d="M317.52 172.346C325.498 170.129 339.707 168.478 341.771 173.468C342.237 174.601 342.316 175.506 342.105 176.222C342.044 176.17 337.51 172.143 333.088 172.406C328.651 172.664 319.376 173.661 315.989 175.459C312.609 177.256 308.526 179.203 308.526 179.203C308.526 179.203 310.227 174.778 317.52 172.346Z" fill="#F38657"/>
<path d="M309.81 158.593C313.336 155.642 317.518 156.108 319.204 157.94C322.255 163.255 314.053 168.1 315.094 173.101C310.784 170.236 315.983 163.504 316.657 160.694C317.479 157.261 309.944 158.566 309.81 158.593Z" fill="#F38657"/>
<path d="M229.925 199.171C229.925 199.171 236.078 204.678 247.295 201.64C258.519 198.601 258.064 189.293 258.064 189.293C257.777 181.132 255.403 173.769 246.642 172.38C241.957 171.634 237.719 173.411 233.981 175.815C229.026 179.006 228.205 190.796 228.205 190.796C228.205 190.796 226.339 189.26 221.872 190.738C217.406 192.217 217.417 192.293 217.417 192.293C217.417 192.293 223.587 201.333 229.925 199.171Z" fill="#FFA889"/>
<path d="M229.926 199.171C229.926 199.171 236.079 204.678 247.296 201.64C249.747 200.972 251.633 200.018 253.097 198.917C249.336 198.267 250.635 195.835 247.784 195.93C237.135 196.273 230.624 188.323 235.467 177.276C235.467 177.276 233.83 177.77 231.485 178.591C228.732 183.247 228.206 190.796 228.206 190.796C228.206 190.796 226.34 189.259 221.873 190.738C217.406 192.217 217.418 192.292 217.418 192.292C217.418 192.292 222.653 198.843 228.4 198.432C228.919 198.394 229.399 199.356 229.926 199.171Z" fill="#D6876B"/>
<path d="M185.935 184.998C191.415 169.467 221.774 160.812 236.39 165.356C242.678 167.315 246.746 171.371 246.746 171.371C246.746 171.371 238.552 172.272 234.568 177.046C230.585 181.82 228.203 190.797 228.203 190.797C228.203 190.797 219.572 182.941 209.277 181.654C198.984 180.374 186.879 186.339 186.879 186.339L185.935 184.998Z" fill="#14B577"/>
<path d="M204.651 168.829C215.473 164.362 228.331 162.847 236.393 165.355C240.09 166.508 243.022 168.381 244.808 169.737C240.39 171.863 234.839 172.515 234.709 171.625C233.58 163.926 209.807 167.85 204.651 168.829Z" fill="#00FF96"/>
<path d="M188.456 180.323L188.464 180.322C194.042 177.964 210.164 167.929 226.005 174.211C228.623 175.252 231.242 177.095 233.312 178.763C230.091 183.695 228.205 190.796 228.205 190.796C228.205 190.796 219.574 182.941 209.279 181.654C202.257 180.78 194.396 183.273 190.105 184.95C189.116 182.352 188.486 180.419 188.456 180.323Z" fill="#059659"/>
<path d="M220.206 191.299L218.67 185.708L225.745 186.312L223.287 179.108L231.683 178.263L228.718 170.178L237.33 170.071L237.475 162.655C241.114 164.409 247.147 167.523 246.642 172.38C234.966 173.283 231.547 181.91 228.205 190.796C228.205 190.796 228.326 190.309 224.262 190.804C220.206 191.298 219.633 191.49 219.633 191.49L220.206 191.299Z" fill="#F53B31"/>
<path d="M220.206 191.298L218.671 185.708C218.671 185.708 220.873 187.126 223.575 187.323C226.269 187.521 226.205 187.662 225.745 186.312L223.288 179.108C223.288 179.108 225.243 180.046 228.135 180.277C231.027 180.515 231.683 178.263 231.683 178.263L228.719 170.178C228.719 170.178 232.668 171.532 234.862 172.097C237.048 172.662 238.721 171.993 238.721 171.993L237.33 170.071L237.458 163.798C237.458 163.798 240.142 167.079 240.332 169.323C240.529 171.559 241.201 172.146 238.614 174.782C233.064 178.122 230.609 184.39 228.205 190.796C228.205 190.796 228.326 190.309 224.262 190.804C220.206 191.299 219.633 191.49 219.633 191.49L220.206 191.298Z" fill="#BF2A22"/>
<path d="M190.955 188.761C193.509 186.584 192.554 182.172 189.834 180.799C187.271 179.495 184.029 180.502 181.947 182.062C178.626 184.575 180.961 189.471 183.136 190.592C185.918 192.026 188.849 190.525 190.955 188.761Z" fill="#FFB71C"/>
<path d="M257.427 186.413C259.342 186.132 260.661 184.304 260.372 182.33C260.082 180.356 258.295 178.983 256.379 179.264C254.463 179.545 253.145 181.373 253.434 183.347C253.723 185.321 255.511 186.693 257.427 186.413Z" fill="#FFC9A6"/>
<path d="M259.075 180.26C259.87 181.064 260.105 182.328 259.601 183.082C259.098 183.837 258.045 183.797 257.251 182.993C256.457 182.189 256.222 180.925 256.725 180.17C257.229 179.416 258.281 179.456 259.075 180.26Z" fill="#FFE6D6"/>
<path d="M243.473 175.464L243.317 175.556C240.955 176.888 240.097 179.918 241.416 182.29C242.742 184.668 245.763 185.519 248.126 184.187L248.281 184.095C250.651 182.762 251.501 179.733 250.182 177.354C248.856 174.983 245.843 174.131 243.473 175.464Z" fill="white"/>
<path d="M246.11 177.526C244.249 179.593 247.525 182.71 249.386 180.643C251.248 178.575 247.972 175.458 246.11 177.526Z" fill="black"/>
<path d="M241.874 172.101L241.99 172.053C244.481 171.018 247.31 171.928 248.279 174.074L239.111 177.898C238.141 175.745 239.385 173.144 241.874 172.101Z" fill="black"/>
<path d="M256.385 190.078C257.396 196.138 252.606 194.091 251.876 189.584C251.847 189.388 251.922 189.161 252.158 189.196C254.314 189.558 254.548 189.369 255.87 189.561C256.09 189.59 256.343 189.845 256.385 190.078Z" fill="black"/>
<path d="M218.318 192.6C218.318 192.6 221.722 194.958 224.748 195.632C227.766 196.306 227.804 196.301 227.804 196.301C227.804 196.301 227.357 194.826 227.204 193.993C227.043 193.162 226.245 191.499 218.318 192.6Z" fill="#965D48"/>
<path d="M262.689 209.322C262.689 209.322 258.757 193.429 248.857 194.31C238.966 195.198 233.101 203.429 230.055 209.552C227.008 215.668 229.632 217.178 229.632 217.178L262.689 209.322Z" fill="#BF2A22"/>
<path d="M232.755 204.905C232.755 204.905 240.266 197.341 248.058 198.895C255.842 200.45 256.897 201.397 258.274 200.171C259.656 198.936 260.634 197.514 259.113 195.542C257.59 193.562 252.48 192.647 248.337 192.969C243.942 193.313 229.924 196.153 230.445 201.546C230.613 203.223 232.755 204.905 232.755 204.905Z" fill="#F4F4F4"/>
<path d="M232.754 204.904C232.754 204.904 240.265 197.34 248.057 198.894C255.841 200.449 256.896 201.396 258.273 200.17C258.866 199.644 259.377 199.084 259.656 198.465C259.634 198.476 257.92 199.605 256.486 199.176C255.053 198.754 246.337 196.781 242.786 197.464C239.227 198.147 234.828 200.086 234.828 200.086C234.828 200.086 235.855 197.155 237.775 195.803C237.775 195.803 233.088 197.252 230.698 200.021C230.491 200.506 230.396 201.013 230.443 201.545C230.612 203.223 232.754 204.904 232.754 204.904Z" fill="#D4CAC1"/>
<path d="M239.603 201.697C239.603 201.697 236.877 206.064 236.763 208.068C236.641 210.073 239.856 216.141 257.423 211.703C267.45 209.17 267.553 210.603 267.553 210.603L265.643 201.886L252.766 204.628C250.943 205.019 250.678 204.68 250.078 203.212C249.302 201.285 247.351 200.061 244.965 200.018C242.955 199.973 240.771 200.309 239.603 201.697Z" fill="#F53B31"/>
<path d="M269.436 209.427C269.436 209.427 274.899 209.281 277.388 208.923C279.885 208.565 282.516 207.648 284.052 206.244C287.285 203.29 283.782 199.883 278.86 200.727C277.38 200.983 277.225 200.975 277.225 200.975C277.225 200.975 277.931 200.594 278.424 200.067C278.899 199.574 278.925 198.962 278.497 198.516C278.078 198.069 277.33 197.909 276.583 198.119C275.776 198.345 274.792 198.674 274.005 199.136C272.394 200.073 267.757 202.963 267.757 202.963C267.757 202.963 268.428 206.493 269.436 209.427Z" fill="#D7C5E4"/>
<path d="M269.435 209.426C269.435 209.426 274.898 209.28 277.387 208.923C279.884 208.564 282.515 207.647 284.051 206.244C284.091 206.207 284.125 206.171 284.165 206.134C284.648 205.17 284.338 204.476 284.338 204.476C284.338 204.476 284.338 204.476 283.486 204.863C282.64 205.241 278.899 206.521 277.4 206.695C275.894 206.877 272.899 206.939 272.343 205.88C271.787 204.821 269.033 202.483 269.033 202.483C269.033 202.483 268.386 203.479 268.018 204.226C268.3 205.517 268.803 207.585 269.435 209.426Z" fill="#B4A8BC"/>
<path d="M264.74 210.399C264.74 210.399 266.35 210.664 267.766 210.602C268.302 210.578 268.844 210.498 269.302 210.416C270.052 210.275 270.601 209.71 270.58 209.096C270.533 207.355 270.313 203.859 269.287 202.746C268.125 201.491 267.763 201.383 267.67 201.381C267.632 201.386 267.601 201.383 267.562 201.381C267.181 201.353 265.663 201.298 263.833 202.005C261.719 202.823 261.66 202.732 261.66 202.732C261.66 202.732 262.985 203.731 263.805 205.914C264.626 208.097 264.763 209.664 264.74 210.399Z" fill="#FCF2E9"/>
<path d="M264.741 210.399C264.741 210.399 266.351 210.664 267.767 210.603C268.303 210.578 268.846 210.499 269.304 210.416C269.671 210.347 269.993 210.177 270.22 209.943C270.836 208.944 269.037 208.861 267.893 208.728C266.757 208.594 265.898 207.888 265.198 206.527C264.505 205.165 262.793 204.045 262.793 204.045C263.126 204.481 263.493 205.09 263.806 205.915C264.627 208.098 264.764 209.664 264.741 210.399Z" fill="#D4CAC1"/>
<path d="M283.654 192.236L282.321 201.375C282.26 201.908 281.537 202.437 280.715 202.558L278.332 202.907C277.503 203.028 276.884 202.695 276.944 202.163L278.077 192.445C278.165 191.731 279.302 190.918 280.685 190.738C281.985 190.571 283.733 191.562 283.654 192.236Z" fill="#4E3A37"/>
<path d="M77.2836 194.828C69.1984 193.963 61.0683 193.081 52.9156 192.21C44.7461 191.339 36.5261 190.479 28.3004 189.625C28.0307 183.67 27.7722 177.714 27.5025 171.764C27.2328 165.802 26.9687 159.847 26.6934 153.896C36.2675 154.801 45.8024 155.762 55.2866 156.734C64.7539 157.706 74.1933 158.684 83.5933 159.65C83.391 164.999 83.1887 170.359 82.9864 175.691C82.7898 181.034 82.5819 186.383 82.3853 191.721C82.346 192.659 81.7953 193.474 80.7784 194.098C79.7558 194.716 78.559 194.963 77.2836 194.828Z" fill="#6B4020"/>
<path d="M27.5881 173.854C27.442 170.533 27.2959 167.201 27.1498 163.875C26.9981 160.555 26.8464 157.223 26.6947 153.896C21.2334 156.689 15.8003 159.493 10.4344 162.279C5.09675 165.049 -0.207307 167.848 -5.45508 170.618C0.0904837 171.163 5.61363 171.702 11.1255 172.236C16.6205 172.775 22.1155 173.314 27.5881 173.854Z" fill="#A6581C"/>
<path d="M50.8195 211.931C55.6628 209.329 60.5285 206.717 65.4449 204.121C70.3892 201.514 75.3842 198.918 80.4073 196.311C81.5928 195.693 82.2615 194.794 82.3063 193.771C82.5256 188.091 82.739 182.399 82.9469 176.719C83.1604 171.033 83.3795 165.341 83.593 159.649C77.9688 162.403 72.367 165.161 66.8326 167.92C61.3152 170.662 55.8595 173.426 50.4375 176.179C50.5049 182.135 50.5723 188.097 50.6341 194.058C50.6959 200.014 50.7633 205.975 50.8195 211.931Z" fill="#BF2E2E"/>
<path d="M83.1773 170.673C83.2222 169.51 83.5593 160.824 83.593 159.649C77.9688 162.403 72.367 165.161 66.8326 167.92C61.3152 170.662 55.8595 173.426 50.4375 176.179C50.4487 176.938 50.4487 177.691 50.46 178.438C68.7543 169.808 80.913 171.707 83.1773 170.673Z" fill="#A62A23"/>
<path d="M50.8211 211.931C42.5337 211.038 34.2069 210.127 25.852 209.234C17.4745 208.335 9.0579 207.425 0.618644 206.531C-0.976984 206.363 -2.19629 205.408 -2.30874 204.239C-2.8369 198.637 -3.35381 193.03 -3.87635 187.434C-4.39881 181.826 -4.927 176.225 -5.45508 170.617C3.9449 171.539 13.3167 172.449 22.6436 173.365C31.9369 174.275 41.2077 175.219 50.4391 176.18C50.5065 182.135 50.5739 188.097 50.6357 194.058C50.6975 200.02 50.7593 205.975 50.8211 211.931Z" fill="#F76031"/>
<path d="M-5.23598 172.865C-5.30333 172.118 -5.38204 171.376 -5.45508 170.623C3.9449 171.539 13.3167 172.449 22.6436 173.365C31.9369 174.275 41.2077 175.219 50.4391 176.18C50.4503 176.938 50.5122 183.119 50.5234 183.872C32.0212 181.933 11.7605 175.826 -5.23598 172.865Z" fill="#BF2E2E"/>
<path d="M50.9336 169.742C50.9616 172.13 50.984 174.518 51.0066 176.9C56.541 174.09 62.1034 171.264 67.722 168.466C73.3801 165.646 79.0942 162.853 84.842 160.044C85.4881 159.729 85.8365 159.268 85.859 158.735C85.9264 156.892 85.9995 155.049 86.0837 153.206C86.1006 152.734 85.6399 152.358 84.9769 152.29C84.106 152.206 83.2127 152.116 82.3305 152.021C82.6564 152.599 82.9991 153.178 83.325 153.762C77.8187 156.425 72.3519 159.089 66.9411 161.758C61.5697 164.41 56.2376 167.073 50.9336 169.742Z" fill="#E83A3A"/>
<path d="M-8.21477 165.06C-8.18106 165.464 -8.13606 165.874 -8.09673 166.273C-7.26516 165.582 -6.43923 164.891 -5.60205 164.189C3.89345 165.099 13.3665 166.015 22.8058 166.925C32.2113 167.824 41.5888 168.774 50.9327 169.74C56.2366 167.071 61.5688 164.408 66.9401 161.756C72.3509 159.087 77.8235 156.424 83.3241 153.761C83.8017 153.53 84.0376 153.148 83.9196 152.766C83.8017 152.384 83.3747 152.126 82.8072 152.064C73.6038 151.12 64.3725 150.182 55.1017 149.243C45.8084 148.299 36.4759 147.35 27.1209 146.485C26.2219 146.406 25.4016 146.541 24.6879 146.9C19.2997 149.625 13.962 152.367 8.6636 155.092C3.39336 157.801 -1.83763 160.526 -7.01244 163.245C-7.84962 163.689 -8.28789 164.335 -8.21477 165.06Z" fill="#FF7B57"/>
<path d="M51.0057 176.899C50.9832 174.517 50.9608 172.129 50.9327 169.741C41.5889 168.775 32.2114 167.825 22.8058 166.926C13.3665 166.016 3.88788 165.1 -5.602 164.19C-6.30433 164.123 -6.92236 164.269 -7.43366 164.583C-7.94496 164.898 -8.18657 165.308 -8.136 165.786C-8.00677 167.106 -7.8832 168.426 -7.75397 169.741C-7.68085 170.517 -6.80995 171.146 -5.70877 171.253C3.82614 172.18 13.3328 173.112 22.7946 174.04C32.2226 174.966 41.6338 175.922 51.0057 176.899Z" fill="#F76031"/>
<path d="M75.2325 159.571C74.9066 166.404 74.5695 173.219 74.2549 180.046C73.9346 186.861 73.6087 193.682 73.2829 200.503C73.2435 201.329 72.7154 202.054 71.7826 202.548C69.2374 203.891 66.6809 205.234 64.1413 206.577C63.2985 207.026 62.3659 207.201 61.3489 207.111C60.905 207.071 60.4724 207.038 60.034 206.993C60.9668 206.498 61.8939 205.998 62.8153 205.504C62.6412 198.958 62.4783 192.407 62.2984 185.861C62.1186 179.315 61.9163 172.764 61.731 166.213C61.6972 165.005 60.4556 164.021 58.7194 163.842C49.4374 162.864 40.1329 161.875 30.7948 160.959C21.4285 160.043 12.0284 159.133 2.58917 158.223C1.60021 158.74 0.622664 159.251 -0.37754 159.763C-0.37754 159.695 -0.383122 159.633 -0.388818 159.56C-0.484336 158.504 0.133785 157.583 1.36428 156.942C4.40952 155.363 7.46044 153.784 10.5282 152.206C11.9498 151.475 13.5679 151.194 15.3547 151.368C24.9063 152.29 34.4356 153.172 43.9142 154.15C53.3873 155.122 62.8209 156.127 72.2209 157.111C74.03 157.296 75.283 158.335 75.2325 159.571Z" fill="#E89F00"/>
<path d="M75.2325 159.571C75.1931 160.313 75.1538 161.049 75.1144 161.768C70.6533 163.976 66.2201 166.173 61.7927 168.376C61.7814 167.651 61.7534 166.932 61.7309 166.212C61.6971 165.184 60.7926 164.336 59.4609 163.982C63.9727 161.751 68.5126 159.504 73.0749 157.268C74.4066 157.65 75.283 158.532 75.2325 159.571Z" fill="#FFBD24"/>
<path d="M59.461 163.982C59.225 163.909 58.9835 163.87 58.7194 163.842C49.4374 162.864 40.1329 161.875 30.7948 160.959C21.4285 160.043 12.0284 159.133 2.58917 158.223C1.60021 158.74 0.622664 159.251 -0.37754 159.763C-0.37754 159.695 -0.383122 159.633 -0.388818 159.56C-0.484336 158.504 0.133785 157.583 1.36428 156.942C4.40952 155.363 7.46044 153.784 10.5282 152.206C11.9498 151.475 13.5679 151.194 15.3547 151.368C24.9063 152.29 34.4356 153.172 43.9142 154.15C53.3873 155.122 62.8209 156.127 72.2209 157.111C72.5243 157.139 72.8109 157.201 73.0749 157.268C68.5127 159.504 63.9728 161.752 59.461 163.982Z" fill="#E89F00"/>
<path d="M61.7313 207.132C61.6077 207.127 61.4785 207.121 61.3493 207.11C60.9054 207.07 60.4728 207.037 60.0345 206.992C60.9672 206.497 61.8943 205.997 62.8158 205.503C62.6417 198.957 62.4787 192.406 62.2989 185.86C62.1191 179.314 61.9167 172.763 61.7314 166.212C61.6976 165.004 60.456 164.02 58.7198 163.841C49.4378 162.863 40.1334 161.874 30.7952 160.958C21.4289 160.042 12.0288 159.132 2.58961 158.222C1.60064 158.739 0.623098 159.25 -0.377106 159.762C-0.377106 159.694 -0.382688 159.632 -0.388384 159.559C-0.416478 159.211 -0.371488 158.874 -0.253496 158.559C-0.0624606 158.469 0.12295 158.368 0.302748 158.273C1.89284 157.435 3.73015 157.121 5.7585 157.312C13.6527 158.076 21.5356 158.835 29.3848 159.599C37.2116 160.363 45.0271 161.177 52.8089 161.992C55.3766 162.268 57.9556 162.532 60.5064 162.801C62.2482 162.987 63.5012 163.959 63.535 165.172C63.7091 171.735 63.8721 178.286 64.0294 184.838C64.1868 191.383 64.3329 197.929 64.4901 204.475C64.507 205.233 64.0518 205.891 63.1978 206.346C62.7089 206.61 62.2202 206.874 61.7313 207.132Z" fill="#FFD240"/>
<path d="M30.3125 209.712C30.3125 209.712 30.4193 210.729 31.6217 211.021C32.824 211.313 34.4029 210.156 34.4029 210.156C33.0432 210.015 31.6778 209.864 30.3125 209.712Z" fill="#E89F00"/>
<path d="M11.7539 166.544C12.6473 173.506 13.5463 180.462 14.4172 187.417C15.2936 194.373 16.1589 201.329 17.013 208.291C17.0299 208.392 17.1871 209.313 18.3446 209.583C22.1821 210.004 26.0084 210.426 29.8177 210.841C30.4189 210.903 31.0258 210.965 31.6214 211.021C30.4077 210.729 30.3122 209.712 30.3122 209.712C30.3122 202.857 30.3235 195.997 30.3291 189.142C30.3403 182.288 30.374 175.433 30.4022 168.572C30.4078 167.55 31.0371 166.668 32.2395 166.055C37.2344 163.499 42.2687 160.976 47.3254 158.459C47.0951 157.891 46.8591 157.33 46.6175 156.768C48.2807 156.627 49.9382 156.481 51.5901 156.335C55.7366 154.279 59.9225 152.222 64.1196 150.16C64.4511 150.194 64.7826 150.228 65.1141 150.256C65.1141 150.233 65.1141 150.211 65.1141 150.183C65.0973 149.885 64.7827 149.655 64.3387 149.61C58.5291 149.014 52.7026 148.413 46.8648 147.823C46.2242 147.761 45.6399 147.857 45.123 148.109C39.6898 150.79 34.3016 153.498 28.9582 156.223C23.6486 158.925 18.3895 161.639 13.1641 164.353C12.136 164.881 11.6416 165.668 11.7539 166.544Z" fill="#FFBD24"/>
<path d="M16.9395 207.729C16.9675 207.92 16.99 208.111 17.0125 208.29C17.0294 208.391 17.1867 209.313 18.3441 209.583C22.1817 210.004 26.0079 210.425 29.8173 210.841C30.4185 210.903 31.0253 210.965 31.6209 211.021C30.4073 210.729 30.3117 209.712 30.3117 209.712C30.3117 209.532 30.3117 209.347 30.3117 209.167C25.8618 208.684 21.4119 208.206 16.9395 207.729Z" fill="#EDAA0E"/>
<path d="M11.7546 166.545C11.8277 167.112 11.9062 167.68 11.9794 168.247C18.1374 168.843 24.2785 169.45 30.3972 170.045C30.4028 169.556 30.4029 169.068 30.4029 168.573C30.4085 167.551 31.0434 166.674 32.2402 166.056C32.5267 165.904 32.8244 165.753 33.1223 165.601C26.8575 165 20.5703 164.393 14.2718 163.786C13.9065 163.972 13.5301 164.163 13.1648 164.354C12.1366 164.887 11.6479 165.668 11.7546 166.545Z" fill="#FFDD6E"/>
<path d="M22.1023 164.533C19.4896 164.281 16.8825 164.028 14.2699 163.786C13.9046 163.972 13.5282 164.163 13.1629 164.354C12.5393 164.674 12.1235 165.095 11.9043 165.567C14.6688 165.64 18.2816 165.292 22.1023 164.533Z" fill="#FFBD24"/>
<path d="M28.649 176.203C28.649 180.686 28.6434 185.181 28.6434 189.659C28.649 192.974 28.649 196.284 28.6547 199.599C28.6603 202.908 28.6772 206.217 28.6716 209.532C28.6716 209.532 28.7783 210.555 29.9806 210.847C29.4525 210.796 28.9299 210.746 28.3906 210.69C28.4019 210.684 28.4075 210.684 28.4075 210.684C28.8906 210.746 29.3457 210.796 29.8177 210.841C30.4189 210.903 31.0257 210.965 31.6213 211.021C30.4077 210.729 30.3121 209.712 30.3121 209.712C30.3178 206.397 30.3178 203.093 30.3178 199.778C30.3178 196.463 30.3178 193.154 30.3234 189.845C30.3347 185.355 30.3514 180.866 30.3739 176.371C30.3795 175.854 30.3738 175.326 30.3683 174.787C30.3738 174.568 30.3795 174.348 30.3683 174.124C30.3795 172.275 30.3964 170.427 30.4021 168.572C30.4021 168.258 30.4695 167.96 30.5818 167.679C30.8572 167.038 31.4022 166.482 32.2394 166.055C38.5996 162.785 45.0218 159.571 51.4945 156.341C55.6803 154.284 59.8942 152.222 64.1194 150.16C64.4509 150.194 64.7824 150.228 65.1139 150.256C65.1139 150.233 65.1139 150.211 65.1139 150.183C65.0971 149.885 64.7825 149.654 64.3385 149.61C63.7598 149.548 63.1755 149.491 62.5799 149.43C63.007 149.469 63.3102 149.705 63.3327 150.003C63.3383 150.025 63.3441 150.048 63.3441 150.07C63.007 150.042 62.6755 150.008 62.3327 149.969C58.1187 152.037 53.9103 154.099 49.7244 156.155C43.2574 159.392 36.841 162.617 30.4806 165.892C29.6547 166.314 29.1097 166.859 28.8457 167.505C28.7276 167.786 28.6658 168.084 28.6658 168.398C28.6658 170.264 28.6602 172.107 28.6545 173.955C28.6489 174.18 28.6546 174.399 28.6433 174.618C28.649 175.152 28.6547 175.674 28.649 176.203Z" fill="#E89F00"/>
<path d="M31.3746 165.431C36.1729 162.97 40.9993 160.521 45.8593 158.082C45.8537 157.61 45.8481 157.127 45.8481 156.65C47.1347 156.487 48.4383 156.324 49.7249 156.155C53.9109 154.099 58.1192 152.037 62.3332 149.969C62.6759 150.008 63.0074 150.042 63.3446 150.07C63.3446 150.048 63.3389 150.025 63.3332 150.003C63.3107 149.716 63.0073 149.48 62.5916 149.43C57.3606 148.896 52.1185 148.356 46.8651 147.823C46.2245 147.755 45.6402 147.851 45.1233 148.109C45.0615 148.137 45.0053 148.171 44.9492 148.199C40.7633 150.261 36.5999 152.34 32.4533 154.441C30.5823 155.391 28.7169 156.34 26.846 157.284C22.6376 159.453 18.4405 161.616 14.2715 163.785C18.581 164.195 22.8961 164.611 27.1999 165.021C28.5934 165.167 29.9868 165.297 31.3746 165.431Z" fill="#FFD240"/>
<path d="M31.9814 154.678C30.2733 155.549 28.5541 156.425 26.846 157.285C22.6376 159.454 18.4405 161.617 14.2715 163.785C16.8841 164.027 19.4912 164.28 22.1039 164.533C22.4073 164.471 18.3674 165.336 23.0421 164.336C27.7224 163.33 34.8637 159.206 34.8637 159.206C34.8637 159.206 34.0321 154.925 33.0151 154.751C31.9982 154.577 32.3691 154.683 31.9814 154.678Z" fill="#E89F00"/>
<path d="M-3.2936 153.486C-3.2936 153.486 -3.74309 157.234 0.279883 159.74C4.3084 162.245 12.8262 163.526 31.0306 158.655C32.5309 158.329 34.0367 158.003 35.5424 157.666C29.7383 156.009 23.923 154.351 18.1134 152.688C12.2869 151.031 6.45478 149.373 0.60011 147.71C-0.439346 148.89 -1.47884 150.092 -2.52953 151.272C-2.7823 152.02 -3.03522 152.756 -3.2936 153.486Z" fill="#D18100"/>
<path d="M29.6111 155.97C23.0317 154.11 16.4298 152.228 9.82784 150.34C9.37835 150.947 9.11994 151.413 9.11994 151.413C9.11994 151.413 7.42314 154.677 9.13122 157.077C10.8393 159.47 22.1496 159.223 26.9592 158.161C31.7687 157.093 29.7459 156.914 29.6111 155.97Z" fill="#B06D00"/>
<path d="M35.2058 144.895C30.7053 143.833 27.396 141.659 24.0248 139.546C20.6537 137.428 17.2038 135.36 12.4561 134.478C9.00059 133.844 4.35402 133.742 2.12902 136.9C2.0616 136.979 1.99976 137.074 1.95481 137.159C-1.74221 143.114 -3.29297 153.486 -3.29297 153.486C-1.32643 148.519 3.17966 147.654 13.7034 153.829C24.126 160.009 33.7339 157.976 33.7339 157.976C34.2282 153.627 34.7114 149.261 35.2058 144.895Z" fill="#FFBD24"/>
<path d="M35.2059 144.896C35.0823 144.867 34.9531 144.834 34.8182 144.794C34.4025 148.621 33.981 152.453 33.5428 156.273C31.8123 156.543 29.7165 156.521 28.0983 156.414C23.2831 156.071 21.53 153.812 17.3554 151.34C13.0965 148.84 5.39337 144.553 0.943372 145.705C1.71883 142.064 1.91538 136.704 4.3258 135.029C3.46614 135.462 2.7189 136.058 2.12902 136.9C2.0616 136.979 1.99976 137.075 1.95481 137.159C-1.74221 143.115 -3.29297 153.487 -3.29297 153.487C-1.32643 148.52 3.17966 147.654 13.7034 153.829C24.126 160.01 33.7339 157.976 33.7339 157.976C34.2282 153.627 34.7115 149.261 35.2059 144.896Z" fill="#FFDD6E"/>
<path d="M76.5307 155.177C76.5307 155.177 76.6487 158.891 72.5864 161.217C68.541 163.526 60.3265 164.459 43.5999 158.897C42.229 158.509 40.841 158.133 39.459 157.734C45.0439 156.323 50.6513 154.896 56.2644 153.497C61.8999 152.092 67.5803 150.705 73.2776 149.306C74.2834 150.497 75.3059 151.682 76.3116 152.874C76.379 153.649 76.4521 154.424 76.5307 155.177Z" fill="#D18100"/>
<path d="M46.2019 156.032C53.0567 154.295 59.9395 152.576 66.8672 150.868C67.047 151.733 67.1314 152.363 67.1314 152.363C67.1314 152.363 68.39 157.273 65.0637 158.852C61.7375 160.437 49.9159 159.774 46.9942 158.717C44.0725 157.655 45.7019 157.29 46.2019 156.032Z" fill="#B06D00"/>
<path d="M40.6777 146.064C43.931 145.558 46.3583 145.665 51.5105 141.94C54.893 139.529 58.6574 137.124 62.832 136.551C66.2145 136.096 70.788 136.259 72.5635 139.692C75.6594 145.704 76.3392 155.924 76.3392 155.924C75.7493 153.199 70.6701 150.227 60.2082 155.829C49.8586 161.481 40.9812 158.796 40.9812 158.796C40.8801 154.565 40.7957 150.317 40.6777 146.064Z" fill="#D18100"/>
<path d="M75.5653 153.514C73.5876 151.564 68.677 150.615 60.3783 155.104C56.3553 157.318 52.557 158.262 49.4219 158.588C49.4219 158.588 55.7259 155.34 60.2995 152.486C64.8674 149.631 72.7896 149.3 75.5653 153.514Z" fill="#FFD240"/>
<path d="M42.8408 145.553C43.3297 144.153 42.3351 143.047 40.5989 143.075C38.8796 143.131 37.0816 144.3 36.604 145.693C36.5928 145.721 33.4857 154.683 39.6607 159.801C40.5821 160.577 41.5373 161.296 42.4362 161.987C45.768 164.555 48.2008 166.437 45.8579 170.364C45.0545 171.735 45.6444 173.033 47.1615 173.275C48.6953 173.494 50.6113 172.573 51.4317 171.202C55.6794 164.15 52.2463 161.504 47.5323 157.874C46.6895 157.245 45.8074 156.571 44.8915 155.807C40.5091 152.138 42.8352 145.569 42.8408 145.553Z" fill="#D18100"/>
<path d="M36.4688 155.132C37.0305 156.801 38.0139 158.436 39.6602 159.802C40.5817 160.577 41.5368 161.296 42.4357 161.987C45.7675 164.555 48.2004 166.437 45.8575 170.365C45.4024 171.14 45.3912 171.893 45.7508 172.444C46.5767 171.988 47.4532 171.365 48.1948 170.533C50.2624 168.207 50.4985 163.87 45.7788 161.729C41.0535 159.588 36.5306 154.964 36.5306 154.964L36.4688 155.132Z" fill="#FFDD6E"/>
<path d="M40.2521 147.362C41.9321 146.558 42.8536 144.996 42.2973 143.856C41.7355 142.721 39.8982 142.473 38.2069 143.299C25.919 149.244 27.0653 155.874 28.2339 163.004C29.0654 168.398 29.9195 174.146 22.7557 179.326C21.2949 180.388 20.851 181.978 21.7556 182.883C22.6489 183.776 24.5425 183.652 26.0033 182.591C31.2512 178.815 33.6334 175.101 34.5887 171.499C35.5438 167.887 35.0326 164.358 34.5381 160.948C33.712 155.75 32.9367 150.913 40.2521 147.362Z" fill="#D18100"/>
<path d="M31.8524 151.328C31.858 151.317 31.858 151.323 31.8524 151.328V151.328ZM28.0036 153.25C28.2846 152.261 28.7004 151.289 29.3071 150.322C29.6386 149.794 30.0263 149.272 30.4814 148.749C31.5939 147.474 33.0885 146.221 35.0775 145.002C36.0102 144.428 37.0496 143.861 38.2071 143.299C39.5556 142.636 40.994 142.664 41.8087 143.277C41.9435 143.372 42.0559 143.484 42.1514 143.614C41.7468 143.687 41.331 143.827 40.9265 144.024C39.1735 144.872 37.6959 145.732 36.4541 146.608C36.4092 146.637 36.3642 146.67 36.3192 146.698C36.218 146.771 36.1113 146.85 36.0158 146.923C35.0324 147.648 34.2122 148.378 33.5211 149.12C33.0379 149.637 32.622 150.16 32.2625 150.688C32.1221 150.896 31.9872 151.103 31.8524 151.328C31.3748 152.137 31.0264 152.958 30.7792 153.789C30.7399 153.913 30.7061 154.036 30.6724 154.16C30.6106 154.413 30.5544 154.66 30.5039 154.913C30.4702 155.098 30.4364 155.284 30.4139 155.475C30.3859 155.666 30.3578 155.857 30.3409 156.054C30.3128 156.351 30.2904 156.655 30.2791 156.952C30.2679 157.222 30.2679 157.492 30.2679 157.762C30.2734 157.981 30.2792 158.194 30.2848 158.413C30.3353 159.475 30.4588 160.548 30.6218 161.633C30.6667 161.942 30.7116 162.245 30.7623 162.554C30.8241 162.942 30.8859 163.335 30.9533 163.729C31.0994 164.684 31.2455 165.645 31.3522 166.611C31.6219 169.145 31.5938 171.724 30.4813 174.252C30.369 174.5 30.251 174.752 30.1161 174.994C29.8071 175.584 29.4306 176.174 28.9755 176.753C28.1102 177.871 26.9641 178.978 25.4751 180.056C24.1267 181.034 23.6492 182.456 24.284 183.377C23.2839 183.607 22.3174 183.444 21.7556 182.883C20.8509 181.978 21.2949 180.388 22.7557 179.326C24.0929 178.36 25.1549 177.371 25.9864 176.365C26.464 175.786 26.8685 175.207 27.2057 174.617C27.3461 174.376 27.481 174.129 27.599 173.881C28.8126 171.37 28.9081 168.802 28.6721 166.268C28.5935 165.431 28.4754 164.594 28.3518 163.768C28.3349 163.661 28.3181 163.549 28.3013 163.442C28.2788 163.296 28.2563 163.15 28.2339 163.004C28.2283 162.953 28.217 162.903 28.2114 162.852C27.9979 161.565 27.79 160.296 27.6664 159.043C27.6326 158.722 27.6102 158.402 27.5878 158.082C27.5653 157.717 27.554 157.363 27.5484 157.003C27.5484 156.874 27.5484 156.745 27.5484 156.615C27.554 156.391 27.5597 156.16 27.5765 155.935C27.5765 155.896 27.5764 155.862 27.582 155.823C27.6101 155.374 27.6607 154.918 27.7337 154.475C27.7787 154.211 27.8349 153.946 27.8967 153.682C27.9304 153.542 27.9641 153.401 28.0034 153.261C28.0036 153.261 28.0036 153.255 28.0036 153.25Z" fill="#FFDD6E"/>
<path d="M-17.8635 205.626C-26.5968 209.095 -24.8592 209.365 -24.8592 209.365L12.8756 209.61C9.10439 206.938 9.07446 205.089 6.0972 203.966C0.711819 201.939 -9.13014 202.158 -17.8635 205.626Z" fill="#E4F7FF"/>
<path d="M64.4828 213.648L94.7629 198.858L57.5273 180.675L64.4828 213.648Z" fill="#00FF96"/>
<path d="M64.4824 213.649L86.0682 194.612L66.2163 184.923L64.4824 213.649Z" fill="#00844B"/>
<path d="M94.7627 198.858L92.2942 185.927L86.0684 194.616L94.7627 198.858Z" fill="#00844B"/>
<path d="M57.5273 180.675L69.2446 174.669L66.2166 184.922L57.5273 180.675Z" fill="white"/>
<path d="M86.0687 194.615L80.7672 180.295L66.2168 184.922L86.0687 194.615Z" fill="#00C773"/>
<path d="M92.295 185.926L80.7676 180.295L86.0691 194.615L92.295 185.926Z" fill="#00FF96"/>
<path d="M80.7672 180.295L66.2168 184.922L69.2448 174.669L80.7672 180.295Z" fill="#BE5ADD"/>
<path d="M66.2166 184.922L64.4828 213.648L57.5273 180.675L66.2166 184.922Z" fill="#00C773"/>
<path d="M66.2168 184.922L69.2448 174.669L80.7672 180.295" fill="#00FF96"/>
<path d="M25.2773 213.702L135.092 214.168C103.228 205.731 98.4327 195.317 62.5033 202.905C47.2576 206.126 41.1658 212.103 25.2773 213.702Z" fill="#E4F7FF"/>
<rect opacity="0.75" x="-7" y="9" width="390" height="202" fill="#111A41"/>
</g>
<rect x="2" y="14" width="367" height="194" rx="8" stroke="white" stroke-width="4"/>
<rect x="2" y="14" width="367" height="194" rx="8" stroke="#FF0000" stroke-width="4" stroke-dasharray="16 16"/>
<circle cx="368.5" cy="15.5" r="15.5" fill="#FF0000"/>
<path d="M365.806 9L368.932 13.0898H369.053L372.194 9H375.894L371.164 15L376 21H372.231L369.053 16.9043H368.932L365.754 21H362L366.851 15L362.091 9H365.806Z" fill="white"/>
<defs>
<clipPath id="clip0_439_11612">
<rect y="12" width="371" height="198" rx="10" fill="white"/>
</clipPath>
</defs>
</svg>
