<svg width="16" height="16" viewBox="0 0 16 16" fill="none" xmlns="http://www.w3.org/2000/svg">
<path fill-rule="evenodd" clip-rule="evenodd" d="M8 0C12.4 0 16 3.1 16 7C16 10.9 12.4 14 8 14C7.6 14 7.2 14 6.9 13.9L2 16V11.6C0.8 10.4 0 8.8 0 7C0 3.1 3.6 0 8 0ZM12 6C12.2761 6 12.5 5.77614 12.5 5.5C12.5 5.22386 12.2761 5 12 5H4C3.72386 5 3.5 5.22386 3.5 5.5C3.5 5.77614 3.72386 6 4 6H12ZM12.5 8.5C12.5 8.77614 12.2761 9 12 9H4C3.72386 9 3.5 8.77614 3.5 8.5C3.5 8.22386 3.72386 8 4 8H12C12.2761 8 12.5 8.22386 12.5 8.5Z" fill="white"/>
</svg>
