<?xml version="1.0" encoding="UTF-8"?>
<svg xmlns="http://www.w3.org/2000/svg" viewBox="0 0 1994 1939.29">
  <defs>
    <style>
      .cls-1 {
        mix-blend-mode: overlay;
      }

      .cls-2, .cls-3, .cls-4, .cls-5, .cls-6, .cls-7, .cls-8, .cls-9 {
        stroke-width: 0px;
      }

      .cls-10 {
        isolation: isolate;
      }

      .cls-3 {
        fill: #552c11;
      }

      .cls-4 {
        fill: #626262;
      }

      .cls-5 {
        fill: #110010;
      }

      .cls-6 {
        fill: #e2a684;
      }

      .cls-7 {
        fill: #fff;
      }

      .cls-8 {
        fill: #faed22;
      }

      .cls-9 {
        fill: #fdc7a5;
      }
    </style>
  </defs>
  <g class="cls-10">
    <g id="Layer_2" data-name="Layer 2">
      <g id="Layer_4" data-name="Layer 4">
        <g>
          <g>
            <g>
              <g>
                <g>
                  <polygon class="cls-8" points="890.75 856.71 505.3 286.78 646.89 955.04 890.75 856.71"/>
                  <polygon class="cls-8" points="782.19 878.38 206.38 693.4 739.72 1043.36 782.19 878.38"/>
                  <path class="cls-8" d="M617,1000.03c-6.29,0-558.51,23.33-558.51,23.33l684.37,91.66-125.86-114.99Z"/>
                  <path class="cls-8" d="M659.48,1175.01c-4.72,0-482.99,283.3-482.99,283.3l569.52-144.98-86.53-138.32Z"/>
                  <polygon class="cls-8" points="768.03 1318.33 785.34 1886.6 939.52 1235.01 768.03 1318.33"/>
                  <polygon class="cls-8" points="1016.61 1333.33 1313.43 1827.72 1192.82 1266.67 1016.61 1333.33"/>
                  <polygon class="cls-8" points="1230.57 1343.33 1757.62 1464.98 1156.63 1090.02 1230.57 1343.33"/>
                  <polygon class="cls-8" points="1183.38 936.71 1807.96 996.7 1210.12 1120.02 1183.38 936.71"/>
                  <polygon class="cls-8" points="999.3 843.38 1501.18 590.08 1123.59 995.03 999.3 843.38"/>
                  <polygon class="cls-8" points="914.35 878.38 1054.37 300.11 1022.9 885.05 914.35 878.38"/>
                </g>
                <g>
                  <ellipse class="cls-8" cx="1081.9" cy="727.56" rx="173.85" ry="184.15"/>
                  <ellipse class="cls-8" cx="847.48" cy="659.24" rx="173.85" ry="184.15"/>
                  <ellipse class="cls-8" cx="617" cy="808.39" rx="160.47" ry="169.98"/>
                  <ellipse class="cls-8" cx="543.06" cy="1121.69" rx="229.7" ry="243.31"/>
                  <ellipse class="cls-8" cx="714.54" cy="1417.49" rx="148.67" ry="157.48"/>
                  <ellipse class="cls-8" cx="975.71" cy="1530.25" rx="148.67" ry="157.48"/>
                  <ellipse class="cls-8" cx="1260.47" cy="1304.17" rx="148.67" ry="157.48"/>
                  <ellipse class="cls-8" cx="1340.7" cy="917.54" rx="148.67" ry="157.48"/>
                </g>
                <path class="cls-8" d="M1241.84,1105.44l145.07,67.86,422.74,248.51-99.83-20.07,155.22,99.27-77.13-21.55,206.1,118.76-574.96-218.3,80.46,64.51-94.45-24.63,40.87,30.77-361.17-183.88-26.21-22.2,62.5,11.27c53.1,9.57,132.89-94.73,120.78-150.33Z"/>
                <path class="cls-8" d="M591.75,1199.37l-107.08.37-325.2-31.69,66.79-17.45-121.49-16.82,53.17-9.58L0,1110.3l411.28-34.19-66.36-17.14,64.65-12.87-33.19-7.42,270.47,8.71,21.92,6.35-41.48,11.76c-35.24,9.99-57.42,101.64-35.54,133.85Z"/>
                <path class="cls-8" d="M766.78,1122.71l-79.59,136.11-206.12,436.56,68.31-72.72-71.6,166.61,49.7-60.94-101.71,210.96,341.19-499.63-30.48,96.62,61.76-73.24-16.5,47.52,190.56-350.62,9.33-32.41-43.43,44.51c-36.9,37.82-152.67,1.3-171.41-49.33Z"/>
                <path class="cls-8" d="M1032.71,1242.2l39.74,110.19,81.97,414.59-27.97-51.4,45.92,167.59-181.35-411.68,9.39,74.39-121.27-306.98-2.5-24.82,25.58,38.6c21.74,32.79,110.28,23.4,130.48-10.48Z"/>
                <ellipse class="cls-8" cx="1284.07" cy="1121.13" rx="190.89" ry="202.2"/>
                <ellipse class="cls-8" cx="893.37" cy="1096.69" rx="323.57" ry="342.74"/>
                <path class="cls-8" d="M1202.31,1020.25c-23.26,34.89-29.11,77.24-19.52,115.53,3.82-16.08,10.31-31.73,19.88-46.09,41.67-62.53,123.3-77.43,182.33-33.29,26.08,19.51,43.35,47.29,50.95,77.61,12.82-53.95-5.84-113.04-51.31-147.05-59.03-44.14-140.66-29.23-182.33,33.29Z"/>
                <path class="cls-8" d="M698.6,947.26c-.75-6.38-1.26-12.85-1.26-19.44,0-39.68,14.07-75.79,37.06-103.35-33.51,4.91-62.03,26.3-78.13,56.17-3.62-.31-7.25-.58-10.95-.58-74.72,0-135.3,64.17-135.3,143.32,0,4.16.21,8.27.54,12.35,53-45.66,117.41-77.03,188.04-88.45Z"/>
                <path class="cls-8" d="M992.49,927.82c0,29.65,4.65,57.27-8.89,80.9,16.11,11-10.13-7.21,4.26,6.1,51.36-26.06,69.66-56.44,162.48-56.44s59.94,50.39,103.84,68.33c.17-3.06,73.94-.23,73.94-3.33,0-88.36-67.62-159.98-151.03-159.98-10.62,0-20.97,1.19-30.97,3.39-14.27-91.69-89.24-161.71-179.85-161.71-55.4,0-104.89,26.24-138.3,67.54,5.57-.68,11.21-1.11,16.95-1.11,81.5,0,147.57,69.99,147.57,156.32Z"/>
                <g>
                  <path class="cls-8" d="M828.31,634.77l79.79-522.69,6.66,57.7L933.88,0l14.86,444.85,18.41-70.91-1.51,326.06-6.71,23.4-9.13-45.18c-7.76-38.39-91.03-65.81-121.48-43.44Z"/>
                  <path class="cls-8" d="M1000.41,722.8c15.09,71.79-27.61,142.94-95.38,158.93-67.77,15.99-134.94-29.25-150.04-101.03-15.09-71.79,27.61-142.94,95.38-158.93,67.77-15.99,134.94,29.25,150.04,101.03Z"/>
                </g>
                <polygon class="cls-8" points="747.48 1372.74 661.15 1501.35 668.66 1479.23 586.89 1626.9 686.95 1411.15 667.34 1431.28 716.81 1312.53 733.8 1266.18 718.74 1379.99 747.48 1372.74"/>
                <g>
                  <polygon class="cls-8" points="564.85 761.89 442.22 672.28 463.21 679.93 322.65 595.41 527.73 698.33 508.46 677.84 621.25 728.55 665.25 745.89 557.6 731.56 564.85 761.89"/>
                  <polygon class="cls-8" points="1402.79 835.5 1478.57 784.36 1469.64 794.92 1546.96 732.03 1444.84 828.57 1460.11 822.04 1407.04 876.52 1387.62 898.34 1420.4 838.35 1402.79 835.5"/>
                  <polygon class="cls-8" points="1126.99 626.41 1220.37 507.58 1211.47 528.6 1301.74 390.79 1188.82 593.66 1209.4 575.55 1152.72 687.64 1132.86 731.59 1155.58 621.59 1126.99 626.41"/>
                </g>
                <polygon class="cls-8" points="1304.76 1389.68 1427.39 1479.28 1406.4 1471.64 1546.96 1556.16 1341.88 1453.24 1361.15 1473.73 1248.36 1423.02 1204.36 1405.67 1312.01 1420.01 1304.76 1389.68"/>
                <polygon class="cls-8" points="466.82 1316.07 391.04 1367.21 399.97 1356.65 322.65 1419.54 424.76 1322.99 409.5 1329.53 462.57 1275.05 481.99 1253.23 449.2 1313.22 466.82 1316.07"/>
                <path class="cls-8" d="M839.63,1189.95l18.22,184.87,9.53-29.98,4.88,262.87,9.58-186.98,3.17,25.49,8.8-158.71c-27.6-24.44-47.19-58.62-54.18-97.56Z"/>
              </g>
              <g class="cls-1">
                <path class="cls-8" d="M1406.4,1471.64l20.98,7.64-72.83-53.22c5.18-4.49,9.97-9.43,14.53-14.61l76.84,39.12-40.87-30.77,94.45,24.63-68.36-54.81,34.29,7.92,528.58,200.68-206.1-118.77,77.13,21.55-155.22-99.27,99.83,20.07-355.47-208.97c13.26-27.53,20.78-58.68,20.78-91.71,0-18.82-2.48-37.01-7.02-54.29l340.02-70.14-325.63-31.28c4.55-15.1,7.05-31.18,7.05-47.88,0-35.59-11.28-68.31-30.07-94.68l.81-.83-1.07.46c-1.05-1.46-2.02-2.99-3.11-4.41l91.02-86.06-77.32,62.89,8.93-10.56-32.59,22c-26.5-28.15-63.01-45.66-103.39-46.2l158.59-170.08-246.06,124.19c-3.23-47.73-23.57-90.34-54.63-121.1l8.91-17.62-14.22,12.52c-.72-.66-1.38-1.39-2.11-2.03l108.67-195.24-90.27,137.81,8.89-21.02-48.97,62.32c-26.17-16.7-56.72-26.49-89.49-26.49-14.12,0-27.77,1.98-40.91,5.34l13.37-248.65-62.24,257.03c-7.37-11.69-16.05-22.33-25.69-31.93l.7-151.27-18.41,70.91L933.88,0l-19.12,169.78-6.66-57.7-55.46,363.28c-1.73-.05-3.42-.27-5.16-.27-64.99,0-121.56,37.84-151.39,93.8l-190.8-282.11,75.46,356.14c-25.7,6.29-49.01,19.08-68.33,36.71l-3.97-1.79,2.77,2.94c-2.14,1.99-4.28,3.98-6.32,6.09l-182.25-91.46,140.56,84.51-20.99-7.64,46.64,34.08c-14.14,19.9-24.37,43.08-29.17,68.41l-253.31-81.38,258.86,169.86c2.88,8.93,6.31,17.58,10.49,25.77-59.98,19.45-109.47,64.23-137.47,122.55-139.8,5.87-279.76,11.78-279.76,11.78l262.73,35.18c-2.11,8.33-3.84,16.82-5.11,25.48L0,1110.3l157.93,13.9-53.17,9.58,121.49,16.82-66.79,17.45,161.48,15.73c13.89,55.87,46.07,103.84,89.34,136.37-118.13,69.64-233.8,138.15-233.8,138.15l366.59-93.32c10.96,0,21.73-.87,32.28-2.44-6.03,17.13-9.49,35.58-9.49,54.94,0,24.2,5.31,47.04,14.52,67.53l-99.32,210.37,68.3-72.72-71.6,166.61,49.7-60.94-101.71,210.95,252.21-369.32c11.72,3.15,23.93,5,36.58,5,21.72,0,42.29-5.05,60.88-13.91l9.91,325.55,64.54-272.74c26.3,44.32,72.75,73.87,125.83,73.87,35.98,0,68.97-13.54,94.68-36.07l101.98,231.5-45.92-167.59,27.97,51.4-37.24-188.36c4.64-15.24,7.21-31.47,7.21-48.35,0-6.63-.51-13.11-1.26-19.52l190.31,316.99-79.26-368.68c8.55,1.62,17.3,2.61,26.29,2.61,18.19,0,35.54-3.63,51.65-9.97l49.03,22.04-19.28-20.48,205.08,102.91-140.55-84.51Z"/>
              </g>
            </g>
            <g>
              <g>
                <path class="cls-7" d="M1170.6,1503.98c12.07-82.26-117.17-127.54-175.54-78.87-31.33,26.07-29.2,74.41,17.27,86.21,13.97,3.62,33.02.92,43.58-9.6,14.19-14.18,4.17-28.75-8.61-35.79-11.28-6.05-23.37,8.59-11.96,14.13,8.28,3.93,13.14,16.18-11.98,14.8-13.19-.71-23.46-12.77-22.18-28.33,3.07-32.25,42.71-43.15,69.22-40.34,25.84,2.78,51.49,16.33,66.83,37.69,17.56,24.61,10.23,52.38-7.64,74.34-43.37,53.29-121.46,48.81-182.36,38.82-45.61-7.57-107.65-24.66-120.8-74.67-11.95-44.9,38.36-80.75,73.5-96.51,26.61-11.99,76.87-34.77,80.35-67.08,1.09-1.69,1.65-3.72,1.71-5.77-.16-5.48-2.07-10.72-4.51-15.5-.98-1.97-2.96-4.88-5.25-6.17-.2-.28-.35-.58-.54-.86-4.55-6.45-43.44,19.79-42.55,28.28,2.15,22.37-34.15,40.6-51.02,49.13-30.49,15.35-59.86,33.75-75.23,65.25-25.67,52.34,3.43,98.59,48.59,122.78,50.08,26.97,127.04,36.16,183.18,32.03,57.62-4.3,126.63-41.17,135.95-103.97Z"/>
                <path class="cls-7" d="M1012.33,1511.32c13.97,3.62,33.02.92,43.58-9.6,12.41-12.43,6.31-25.11-4-32.76-.31.97,2.04,2.51,3.19,4.57,6.69,7.26,5.25,15.01-4.54,22.78-14.1,11.23-40.02,9.2-54.28-.93-29.19-20.81-22.73-61.66,13.36-79.04,3.43-1.67,6.73-3.72,10.21-5.19-9.05,3.27-17.52,7.8-24.8,13.95-31.33,26.07-29.2,74.41,17.27,86.21Z"/>
                <path class="cls-7" d="M1170.6,1503.98c6.13-41.62-24-73.76-62.79-89.08,12.28,5.22,23.47,12.17,32.85,20.3,19.65,17,34.06,44.24,27.95,70.81-7.49,31.65-34.14,54.76-62.15,68.94-67.73,34.28-147.2,28.08-216.83,4.74-27.31-9.14-55.51-27.35-70.28-53.66-13.44-24.07-16.94-58.54,3.81-80.64,16.32-17.38,33.23-21.94,8.07,7.25-25.08,29.09-6.67,72.79,19.61,91.48,26.74,19.08,60.81,28.34,92.63,35.07,38.08,7.98,79.07,11.84,117.15,1.8,32.63-8.57,71.46-26.28,89.07-56.87,34.04-58.65-33.85-104.75-85.8-108.64-23.08-1.61-50.98,3.67-63.75,25.43-8.33,14.34-10.55,33.83,4.75,44.77,1,.68,2.14,1.38,3.27,2.06-4.86-5.13-7.63-12.66-6.98-21.21,3.07-32.25,42.71-43.15,69.22-40.34,25.84,2.78,51.49,16.33,66.83,37.69,17.56,24.61,10.23,52.38-7.64,74.34-43.37,53.29-121.46,48.81-182.36,38.82-45.61-7.57-107.65-24.66-120.8-74.67-11.95-44.9,38.36-80.75,73.5-96.51,26.61-11.99,76.87-34.77,80.35-67.08,1.09-1.69,1.65-3.72,1.71-5.77-.16-5.48-2.07-10.72-4.51-15.5-.98-1.97-2.96-4.88-5.25-6.17-.2-.28-.35-.58-.54-.86-4.55-6.45-43.44,19.79-42.55,28.28,2.15,22.37-34.15,40.6-51.02,49.13-30.49,15.35-59.86,33.75-75.23,65.25-25.67,52.34,3.43,98.59,48.59,122.78,50.08,26.97,127.04,36.16,183.18,32.03,57.62-4.3,126.63-41.17,135.95-103.97Z"/>
                <path class="cls-7" d="M1034.53,1473.23c-1.54-.71-2.41-1.89-2.68-3.19-2,3.38-1.56,7.59,3.5,10.02,3.72,1.8,6.81,5.26,6.72,8.36,4.84-4.97-.15-11.66-7.54-15.19Z"/>
              </g>
              <g>
                <g>
                  <path class="cls-7" d="M1314.14,1052.91c-5.27-1.07-9.75-4.06-13.74-9.18-3.79-4.96-7.5-7.53-11.82-8.4-1.9-.39-3.81-.44-6.16-.26-3.04.38-6.19,1.02-9.18,1.63-3.16.57-6.36,1.23-9.62,1.63-.36.02-.74.05-1.12,0-.49-.12-1.13-.46-1.49-.89-1.04.03-1.87-.1-2.75-.27-8.11-1.67-11.58-11.35-11.3-19.59.18-8.79,5.56-25.79,16.78-25.91.26-.04.48-.03.72.03.41.1.7.23,1.06.43,5.43-1.83,10.45-5.16,14.76-8.17,1.48-.95,2.87-1.98,4.44-2.89,4.7-3.12,9.54-6.29,13-10.06,10.25-11.43,11.01-28.97,11.72-44.43l.16-4.57c.45-10.76,1.07-22.86,5.08-32.54-6.69-8.42-10.75-18.64-10.78-27.49.05-8.52,5.85-19.79,14.63-22.87,2.63-1.02,5.19-1.21,7.81-.68,4.42.91,8.35,3.97,10.71,8.49,2.92-1.14,5.33-1.47,7.49-1.06,1.17.25,2.36.75,3.25,1.46,1.84,1.3,3.37,3.11,4.35,5.25,2.16-1.05,4.43-1.29,6.47-.86,3.22.65,5.68,3.04,6.76,6.87,1.33-.45,2.54-.58,3.81-.34,3.32.68,5.76,3.91,6.31,8.26.92-.13,1.84-.12,2.6.03,4.55.93,7.27,6,6.51,11.94-.69,5.63-3.8,12.92-9.18,17.18,7.18,17.85-.51,37.05-7.2,54.08-1.62,4.1-3.18,8.08-4.55,12.01-3.67,10.11-4.81,21-6.07,31.48-1.09,8.34-1.98,16.98-4.12,25.32-5.47,20.87-15.24,32.45-29.07,34.42-3.84.56-7.17.52-10.29-.08h0Z"/>
                  <path class="cls-7" d="M1326.04,839.88c4.55.94,8.27,4.38,10.44,8.88,2.4-1.07,5.21-1.94,7.8-1.41.97.2,1.73.57,2.61,1.1,2.2,1.59,3.7,3.76,4.59,6.09,2.35-1.34,4.78-1.87,6.89-1.45,2.71.54,4.99,2.79,6,6.98.03.21.07.46,0,.67,1.7-1.02,3.11-1.31,4.56-1.02,3.05.61,5.19,4.2,5.26,8.58,1.27-.5,2.54-.57,3.64-.35,3.91.79,5.99,5.42,5.32,10.3-.74,6.13-4.12,13.22-9.52,16.91,9.5,21.76-4.18,45.43-11.42,66.03-6.36,18.48-5.36,38.12-10.16,56.97-3.76,14.52-11.15,31.07-27.78,33.44-3.68.45-6.84.42-9.82-.19-4.98-1.02-9.04-3.74-12.89-8.59-3.69-4.72-7.52-7.88-12.68-8.91-1.95-.38-4.19-.54-6.58-.28-6.32.7-12.54,2.57-18.86,3.21-.19.09-.36.05-.63,0-.5-.1-.92-.47-1.3-.91-.99.12-2.01.09-2.96-.13-7.13-1.42-10.45-10.52-10.18-18.24.31-8.06,5.12-24.31,15.45-24.44.11.04.19-.03.38,0,.41.09.75.34,1.04.6,5.73-1.7,11.03-5.17,16.01-8.59,5.68-3.95,12.86-8.02,17.52-13.16,11.42-12.58,11.43-32.63,12.27-48.45.51-11.25.87-24.31,5.31-34.27-6.32-7.67-10.87-17.86-10.94-27.29-.04-8.16,5.59-18.62,13.57-21.49,2.55-.88,4.9-1.03,7.05-.6h0ZM1326.64,836.95c-2.79-.56-5.7-.31-8.64.76-9.56,3.47-15.59,15.3-15.52,24.27,0,8.98,3.88,19.18,10.54,27.71-3.83,9.73-4.35,21.66-4.86,32.19l-.13,1.47-.12,3.2c-.69,15.22-1.36,32.51-11.28,43.42-3.29,3.69-8.06,6.86-12.67,9.89-1.52.97-3.08,1.93-4.48,2.88-4,2.85-8.79,6.02-13.87,7.81-.27-.13-.6-.19-.83-.26-.36-.09-.64-.13-1.07-.04-12.34.11-17.95,17.76-18.27,27.26-.18,8.86,3.58,19.35,12.52,21.17.84.18,1.6.24,2.47.26.49.34,1.17.65,1.81.77.52.09,1.06.12,1.6.05,3.26-.28,6.54-.96,9.64-1.61,3.18-.63,6.16-1.22,9.11-1.58,2.11-.25,3.94-.22,5.74.16,3.99.82,7.32,3.27,10.91,7.93,4.16,5.34,8.94,8.54,14.62,9.69,3.24.67,6.77.67,10.78.18,14.56-2.09,24.77-14.05,30.3-35.55,2.13-8.51,3.15-17.16,4.16-25.53,1.27-10.9,2.48-21.2,5.98-31.26,1.39-3.82,2.89-7.79,4.55-11.95,6.7-16.91,14.27-36.04,7.56-54.14,5.51-4.77,8.29-12.16,8.91-17.38.93-6.73-2.33-12.51-7.67-13.58-.53-.13-1.09-.21-1.67-.19-.99-4.24-3.73-7.45-7.21-8.15-1.08-.22-2.12-.18-3.17-.02-1.88-4.74-5.38-6.16-7.41-6.57-1.95-.38-4.02-.15-6.12.49-1.07-1.82-2.39-3.37-4.11-4.54-1.19-.83-2.55-1.41-3.85-1.68-2.09-.43-4.44-.27-7.03.61-2.77-4.26-6.67-7.19-11.19-8.13h0Z"/>
                </g>
                <path class="cls-7" d="M1376.47,917.2c-1.81,2.78-4.45,4.71-8.14,4.06-9.8-1.76-15.04-11.31-22.38-16.84-7.07-5.35-17.01-4.33-16.08,6.13.56,6.54,3.57,12.84,5.51,19.01,2.19,7.04,3.68,14.27,4.38,21.45,1.2,13.7-.27,27.92-4.85,40.91-2.98,8.06-6.69,20.6-14.53,25.49-4.91,2.96-10.17,1.48-11.26-4.61-1.64-9.61,1.85-19.55,4.1-28.82,4.02-16.04,8.2-34.48,5.92-51.12-1.8-13.31-6.91-30.35-.86-43.2,3.51-7.36,15.86-7.91,25.18-7.65,11.13-.95,23.57,4.12,30.31,12.98,3.19-2.15,5.48-5.48,7.2-9.03-.68.55-1.46,1.06-2.27,1.47-1.16.6-2.42-.55-2.55-1.67-.9-5.69,1.02-11.92,3.34-17.1-1.14-.65-2.55-.99-4.14-.7-.14,1.05-.36,2.13-.6,3.02-.03.11-.03.15-.04.21-.32.86-.51,1.68-1.01,2.47-.43,1.14-2,1.37-2.9.56-3.65-3.18-3.87-8.36-2.35-12.63.05-.66.19-1.27.29-1.86-1.26-.24-2.78-.02-4.37,1.02.07-.2.03-.46,0-.67-.28-.75-.46-1.44-.72-2.06.08,1.56-.11,3.19-.43,4.78-.18,2.53-.79,7.56-3.9,7.51-3.8-.1-4.85-5.55-4.74-8.55.05-2.46.56-6.36,2.27-8.77-1.16.02-2.38.27-3.53.77.05,5.21-1.75,11.27-3.4,13.92-.78,1.23-2.44,1.36-3.45.18-2.11-2.98-3-7.28-3.63-10.88-.36-3.12-.88-6.6-.23-9.76-2.13-.01-4.23.68-6.1,1.55-1.43-2.95-3.54-5.44-6.1-7.09,3.21,8.18,2.19,21.63.37,27.38-3.19,10.14-14.49,10.68-19.75,2.09-3.45-5.65-4.19-13.22-2.73-20.04-1.74,3.55-2.86,7.42-2.86,10.89.07,9.43,4.62,19.62,10.94,27.29-4.44,9.96-4.8,23.01-5.31,34.27-.84,15.81-.85,35.87-12.27,48.45-4.66,5.14-11.84,9.21-17.52,13.16-4.98,3.43-10.29,6.89-16.01,8.59-.4-.39-.87-.63-1.42-.61-10.33.14-15.14,16.38-15.45,24.44-.24,8.72,3.96,19.13,13.14,18.37.47.58,1.07.98,1.94.9,6.32-.64,12.54-2.51,18.86-3.21,8.69-.95,14.17,2.63,19.26,9.19,6,7.73,13.02,10.1,22.71,8.78,16.63-2.37,24.02-18.92,27.78-33.44,4.8-18.85,3.8-38.48,10.16-56.97,4.89-13.8,12.54-28.97,14.27-44.01Z"/>
                <path class="cls-7" d="M1336.97,929.67c-.29-.51-1.26-.06-.88.54,8.26,18.32,9.03,40.66,2.33,59.55-.29.6.53,1.06.88.45,10.66-16.8,7.73-44.06-2.34-60.54Z"/>
                <path class="cls-7" d="M1336.15,846.24c-.53-.52-1.43.11-1.2.92,1.42,5.43,3.11,9.97,3.24,15.73.09,6.18-1.17,12.28-3.17,18.05-.19.31.34.4.41.19,4.73-7.85,8.88-27.7.72-34.88Z"/>
                <path class="cls-7" d="M1350.35,851.49c-.5-.37-1.17.13-1,.74,1.99,7.65,3.69,16.64-1.54,23.74-.16.17.15.53.35.27,4.52-5.59,8.69-19.06,2.19-24.75Z"/>
                <path class="cls-7" d="M1364.03,858.03c-.61-.73-1.82-.2-1.44.73,2.6,6.85,0,15.66-4.47,21.4-.03.05.12.07.12.07,5.55-4.07,10.19-15.98,5.79-22.2Z"/>
                <path class="cls-7" d="M1374.79,865.85c-.41-.85-1.59-.64-1.59.37-.06,6.22-.52,12.39-4.98,17.3-.29.32.17.64.47.38,4.26-3.73,8.9-12.24,6.09-18.06Z"/>
                <path class="cls-7" d="M1344.66,879.04c-.47-.11-.61.61-.12.77,13.06,2.83,24.36,9.03,30.26,21.37.32.74,1.5.62,1.4-.33-.58-13.92-20.73-19.55-31.54-21.8Z"/>
                <path class="cls-7" d="M1324.36,882.48c-5.21,1.06-8.77,5.3-10.36,10.18-.27,1.01,1.06,1.26,1.56.56,1.15-1.9,2.04-4,3.37-5.78,1.34-1.91,3.49-3.31,5.56-4.39.22-.1.23-.55-.14-.56Z"/>
              </g>
              <g>
                <path class="cls-7" d="M725.85,1061.48s-.13-.07-.35-.22c0,.15.02.3.03.45.11-.07.21-.16.32-.23Z"/>
                <path class="cls-7" d="M1290.29,1037.09c-2.92-5.1-16.74-13.37-16.74-13.37,0,0,18.65-3.22,14.77-11.52-3.84-8.27-21.1-6.8-21.1-6.8,6.56-2.62,14.87-18.94,12.17-20.46-2.7-1.56-12.36,4.41-12.36,4.41,12.63-10.87,5.9-22.27,3.77-18.7-2.2,3.62-4.21,8.15-23.65,15.72-19.59,7.49-43.07,2.27-97.76,35.61-54.76,33.38-81.05,74.53-81.05,74.53-20.67-14.69-50.55-34.75-66.76-23.52-16.28,11.18-35.63,56.71-35.63,56.71l-.89-14.55c39.91,10.05-70.07-77.54-106.63-93.24-16.15-6.89-37.31,3.79-61.23,8.58-30.24,6.01-62.13,7.64-62.13,7.64-5.26,3.44-8.63,6.5-10.69,9.19.41,3.43.73,7.24.96,11.48.04.83.1,1.64.15,2.46.22.15.35.22.35.22-.11.07-.22.16-.32.23,8.31,138.16,75.42,230.44,75.42,230.44l-.17.97c33.63,52.34,78.52,62.95,106.91,62.3,135.44-3.3,177.65-104.43,177.65-104.43,13.89-24.2,18.06-51.88,18.06-51.88,3.52,2.19,10.92,5.25,9.21-1.09-1.71-6.36-6.25-15.82-6.25-15.82,6.61,4.35,18.36,5.26,20.36.64,1.92-4.57-9.06-12.32-9.06-12.32,0,0,20.63-.31,20.42-3.91-.25-3.55-10.89-8.15-10.89-8.15,13.55-.28,15.42-6.88,15.42-6.88-8.69.74-17.88-3.61-17.88-3.61,26.21-74.69,88.98-90.47,118.03-96.05,29.13-5.59,37.49.14,37.49.14,6.09-7.82-8.1-14.16-5.53-14.62,2.61-.46,18.57,4.76,15.56-.38Z"/>
              </g>
              <g>
                <path class="cls-7" d="M796.22,1254.68c13.19-9.38,24.73-20.94,34.08-34.09,4.67-6.51,14.44-19.86,8.43-28.17-.65-.84-1.83-1.12-2.69-.54-5.95,3.73-10.74,8.45-15.34,13.52,1.91-6.28,3.2-12.77,2.88-19.68,0-1.29-1.84-2.33-3.05-1.44-9.42,7.79-14.65,20.63-22.99,29.68-8.09,8.83-17.26,16.88-26.99,24.02,4.45,9.53,8.76,17.92,12.66,25.08,4.44-2.65,8.81-5.4,13.01-8.38Z"/>
                <path class="cls-7" d="M725.5,1061.26c0,.15.02.3.03.45.11-.07.21-.16.32-.23,0,0-.13-.07-.35-.22Z"/>
                <path class="cls-7" d="M1061,1174.28c-6.7-6.79-12.49-14.38-20.47-19.8-1.38-.98-2.6.32-2.73,1.64-.16.32-.28.71-.33,1.14.42,12.48-.09,24.91-.77,37.34-.53,11.01-3.04,23.25-1.09,34.18,1.99,11.7,13.75.5,17.32-3.5,8.08-9.3,19.99-23.63,18.58-36.68-.68-5.57-6.87-10.53-10.51-14.33Z"/>
                <path class="cls-7" d="M1142.29,1152.13c-8.49,2.42-16.61,1.91-25.62-1.95,3.27,4.14,7.07,7.87,9.53,12.7.72,1.43-.24,3.31-2.02,2.97-6.71-1.44-12.36-4.81-18.25-8.15,3.09,4.66,6.26,9.2,7.29,14.91.2,1.36-1.2,2.17-2.3,2.08-19.58-2-36.09-17.2-50.7-29.07-15.93-12.94-27.58-33.05-46.99-41.34-4.67,22.61-4.67,46.4-8.18,69.27-1.84,12.11-4.11,24.21-6.95,36.16-4.43,18.48-9.35,44.17-23.96,57.69-4.59,4.32-10.74,7.21-17.04,4.28-10.88-5.17-13.59-17.93-13.72-28.99-.21-19.16,1.77-38.19,6.21-56.79,4.5-19.03,11.72-37.35,16.05-56.39l-.24-.18c-13.17,17.43-21.81,37.25-31.18,56.9-3.5,7.24-11.37,26.62-21.88,27.26-.42.15-.69.14-1.13.01-.86-.03-1.75-.16-2.65-.52-.57-.13-.77-.52-.94-.85-29.95-13.26-42.27-50.39-54.59-78.01-4.06-9.08-8.24-18.25-11.58-27.71-1.84-5.46-2.91-12.81-6.79-17.34-13.95-16.08-35.72,27.36-37.4,36.85-1.93,11.31-.13,21.51,1.38,32.77.72,5.87.05,10.65-3.5,15.58-3.72,5.15-12.08,20.62-20.21,12.52-19.14-18.96-20.45-45.6-19.3-71.11-4.87,4.38-8.48,9.97-13.06,14.65-.99,1.12-3.41.74-3.41-1.13.34-5.19,1.25-10.26,2.39-15.26-2.7,4.74-5.07,9.75-7.13,14.93,9.12,44.39,23.23,81.51,36.12,109.09,3.73,11,7.18,15.2,12.66,25.08,10.26,18.81,17.73,29.09,17.73,29.09l-.17.97c33.63,52.34,78.52,62.95,106.91,62.3,135.44-3.3,177.65-104.43,177.65-104.43,13.89-24.2,18.06-51.88,18.06-51.88,3.52,2.19,10.92,5.25,9.21-1.09-1.71-6.36-6.25-15.82-6.25-15.82,6.61,4.35,18.36,5.26,20.36.64,1.92-4.57-9.06-12.32-9.06-12.32,0,0,20.63-.31,20.42-3.91-.25-3.55-10.89-8.15-10.89-8.15,11.13-.23,14.38-4.73,15.09-6.36ZM1052.94,1225.28c-3.57,4-15.34,15.2-17.32,3.5-1.95-10.93.56-23.17,1.09-34.18.68-12.43,1.19-24.85.77-37.34.04-.44.17-.82.33-1.14.13-1.32,1.35-2.62,2.73-1.64,7.98,5.41,13.78,13.01,20.47,19.8,3.63,3.8,9.83,8.76,10.51,14.33,1.41,13.05-10.5,27.37-18.58,36.68Z"/>
                <path class="cls-7" d="M725.5,1061.26c.22.15.35.22.35.22-.11.07-.22.16-.32.23.17,2.87.37,5.71.59,8.54,7.04-3.4,15.41-4.46,20.2,2.28,21.13,2.63,45.16-6.97,62.76-16.65,14.09-7.86,27.87-22.73,37.95-36.2-14.24-.23-31.14,7.08-49.8,10.8-30.24,6.01-62.13,7.64-62.13,7.64-5.26,3.44-8.63,6.5-10.69,9.19.41,3.43.73,7.24.96,11.48.04.83.1,1.64.15,2.46Z"/>
              </g>
              <path class="cls-7" d="M1290.29,1037.09c-2.92-5.1-16.74-13.37-16.74-13.37,0,0,18.65-3.22,14.77-11.52-3.84-8.27-21.1-6.8-21.1-6.8,4.29-1.66,9.2-9.12,11.5-14.57-4.31,6.69-12.26,11.83-20.07,15.1,6.9.7,13.64,2.51,18.04,7.17,1,1.06.77,2.79-.66,3.36-5.73,2.14-11.55,2.51-17.42,2.31,2.63,1.62,4.83,3.75,5.71,7.07.35,1.25-.41,2.41-1.76,2.55-12.06,1.17-24.36-.9-36.35,1.28-12.75,2.35-25.23,6.01-37.09,11.25-11.87,5.22-23.63,11.24-33.79,19.42-10.03,8.03-18.9,17.18-28.29,25.9-9.32,8.78-28.44,29.1-43.12,19.2-8.29-5.52-10.03-11.85-8.69-18.46-4.68,5.94-6.88,9.53-6.88,9.53-3.85-2.77-8.01-5.58-12.43-8.51,4.49,4.73,8.51,9.71,13.89,13.67,7.65,5.46,14.19,12.25,21.04,18.73,9.24,8.73,19.1,23.11,31.33,27.63,2.15.62,4.24,1.19,6.31,1.38-2.3-.77-3.76-1.41-3.76-1.41,26.21-74.69,88.98-90.47,118.02-96.05,29.13-5.59,37.49.14,37.49.14,6.09-7.82-8.1-14.16-5.52-14.62,2.61-.46,18.57,4.76,15.56-.38Z"/>
              <g>
                <path class="cls-7" d="M919.38,1274.53c-14.98-3.05-38.01-16.27-62.39-61.94l-.47-1.06.82-.73c.45-.45-5.98-9.43-5.98-9.43l-1.74-3.88c-.92-1.99-1.74-3.87-2.56-5.87l-.21-.54.15-.6c.39-.88-1.28-1.29-1.12-2.05.13-.64-.48-1.86-1.73-2.1l.19-1.91c-.29-.05,1.67.86,1.4.94l-1.22.25-.5-1.16c-16.34-40.45-18.71-70.56-6.86-89.33,8.1-12.99,22.75-20.29,43.39-21.62,9.67-.68,19.54-.03,29.19,1.94,25.14,5.09,47.63,18.44,63.16,37.55l.58.76-.49.89c-25.98,48.46-40.09,113.37-47.28,159.37l-.23,1.3-1.22-.07c-1.68-.13-3.39-.38-4.89-.7h0Z"/>
                <path class="cls-7" d="M909.45,1076.93c23.89,4.85,46.43,17.48,62.27,36.94-29.23,54.56-42.61,128.74-47.45,159.87-1.48-.03-2.94-.3-4.6-.64-14.73-2.98-37.47-16.38-61.46-61.23q-2.53-5.1-6.06-12.41c-.4-.86-.81-1.67-1.21-2.57-1-2.07-1.71-3.9-2.51-5.86-3.88-8.52-.62-2.41-2.95-7.12-31.25-77.17-7.13-106.21,35.25-109.01,9.6-.55,19.23.12,28.74,2.05h0ZM910.04,1074.06c-9.85-2.03-19.76-2.76-29.55-2.04-21.21,1.39-36.14,8.87-44.58,22.29-12.06,19.28-9.78,49.79,6.8,90.75l.93,2.2,1.58,3.88.52,1.08c.8,1.92,1.64,3.85,2.51,5.85.2.54.53,1.1.72,1.59l.41.99,1.22,2.55,4.06,8.05.98,2.01c24.68,46.19,48.11,59.61,63.46,62.73,1.66.34,3.33.59,4.99.67l2.64.22.48-2.71c7.18-45.83,21.13-110.57,47.15-158.87l.87-1.69-1.24-1.57c-15.7-19.34-38.35-32.81-63.95-37.98h0Z"/>
              </g>
              <path class="cls-7" d="M971.16,1113.18c-8.43,10.22-15.72,21.51-21.76,33.57-5.48,10.83-10.62,22.16-14.75,33.67-2.32,6.5-3.66,13.77-7.28,19.81-6.17,10.26-16.47,10.56-22.77,0-7.1-11.59-12.03-27.86-10.43-41.62.09-1.28,1.76-1.78,2.76-1.32,8.13,3.72,18.95,4.35,24.99-3.71,6.08-8.27,5.37-19.25,2.8-28.61-3.94-15.07-11.58-28.57-17.84-42.71-.37-.89.26-2.25,1.31-2.46,1.95-.58,3.88-1.17,5.85-1.8-11.01-2.77-22.27-3.78-33.34-3.1-42.38,2.81-66.5,31.85-35.25,109.01,2.14,6.62.6,2.61,2.95,7.12.8,1.97,1.52,3.8,2.51,5.86.4.9.81,1.71,1.21,2.57,5.07,11.32.08,3.1,6.06,12.41,26.73,49.86,51.73,60.88,66.07,61.87,4.84-31.13,18.23-105.31,47.45-159.87-.16-.18-.5-.42-.56-.69Z"/>
              <path class="cls-7" d="M1111.26,1199.51c-3.8-.05-8.16-3.46-11.04-5.65-2.33-1.63-4.65-3.31-7.18-4.68-.69-2.36-1.46-4.44-2.19-6.12-.42-1.07-1.97-.54-1.6.56,1.58,5.85,4.73,21.85-.54,27.19-4.28-5.82-6.93-12.45-10.64-18.71-4.29-7.3-10.66-13.69-16.4-19.91-6.08-6.47-12.42-12.77-18.4-19.35-5.18-5.67-9.97-11.55-16.51-15.6-.29-.14-.5.14-.31.37,3.99,3.33,7.17,7.27,10.24,11.37-.34,14.02-1.03,27.46-3.44,41.32-2.51,13.42-5.42,26.76-8.56,40.07-3.24,13.41-7.08,26.66-11.36,39.87-3.81,12.24-6.73,24.35-13.16,35.56-.58.87.77,1.73,1.39.95,7.8-8.48,10.61-20.1,13.88-30.88,4.44-14.02,9.03-27.75,12.6-42.02,3.5-14.13,6.62-28.48,8.77-42.82,1.96-12.53,3.49-26.57,1.79-39.35,1.21,1.63,2.44,3.33,3.65,4.95,4.91,6.73,10.94,12.69,16.62,18.72,6.17,6.42,12.25,13.19,16.86,20.94,3.71,6.42,6.03,13.41,11.19,18.94.67.71,1.78.67,2.53.19,6.76-4.25,6.56-14.01,4.64-22.38,4.6,4.96,10.83,10.19,17.44,7.42.55-.23.31-.86-.29-.95Z"/>
              <path class="cls-7" d="M1133.43,1150.75c-3.34-1.66-6.91-2.97-10.43-4.18-9.56-10.02-18.69-20.28-28.99-29.46-10.6-9.41-21.88-17.99-33.45-26.3-.28-.16-.7.17-.4.38,10.12,9.98,21.22,18.75,31.89,28.11,8.66,7.58,15.89,16.75,24,24.7-3.99-1.63-7.69-3.55-10.95-6.67-.29-.23-.74.18-.34.42,4.67,5.12,10.52,8.96,16.85,11.32.21.22.47.43.77.71.58.41,1.15.35,1.57.02,2.98.93,6.03,1.61,9.23,1.87.58.05.79-.66.23-.94Z"/>
              <path class="cls-7" d="M985.83,1094.66s-25.2,39.09-43.36,113.41c-18.06,74.31-16.59,89.23-16.59,89.23,0,0-1.44-67.03,26.23-138.32,27.5-71.2,33.73-64.33,33.73-64.33Z"/>
              <g>
                <g>
                  <path class="cls-7" d="M1119.37,1261.12c-7.01-1.43-12.25-5.7-15.56-12.88-3.97-8.2-5.47-17.06-7.01-25.57-.47-2.58-.79-5.2-1.36-7.69l-.57-2.9c-1.19-6.44-2.44-13.09-6.23-18.17-2.3-3.11-4.72-6.1-7.17-9.06-2.52-3.14-5.05-6.39-7.47-9.67-4.16-2.67-6.26-7.63-5.39-12.85,1.16-7.63,5.68-13.8,12.92-17.85,5.84-3.21,14.5-6.76,22.47-5.14,1.03.19,2.05.49,3.09.86,6.48,2.55,12.03,7.3,15.74,10.77,5.31,3.35,10.33,6.34,15.82,7.48.67.11,1.43.22,2.28.34,8.95.87,18.78-4.85,29.19-17.06,2.43-2.9,4.91-6.43,7.57-10.08,5.67-7.93,12.06-16.94,20.03-22.47-.62-5.77.25-12.52,2.35-18.63,1.85-5.6,5.78-12.03,11.37-13.7,1.87-.54,3.61-.58,5.45-.2,1.87.39,3.8,1.17,5.56,2.59,2.9-3.84,8.22-5.96,12.77-5.05,1.37.27,2.66.86,3.83,1.59,1.09.85,2.11,1.96,2.98,3.22,2.57-1.76,5.51-2.47,8.3-1.91,1.97.4,3.76,1.47,5.29,3.05.86-.19,1.94-.16,3.18.09,2.75.54,5.47,2.22,7.09,3.74,3.2-4.3,8.03-6.17,13.4-5.08,7.54,1.53,15.69,9.15,16.36,19.28.63,11.91-5.04,24.77-14.36,32.07-2.83,2.18-6.98,5.04-11.42,6.74-1.92,17.21-22.91,33.26-36.82,43.8-3.25,2.41-5.83,4.45-8.07,6.28-14.41,11.98-28.85,24.96-42.58,38.57-6.69,6.65-13.42,12.98-20.79,18.46-.15.25-.33.44-.45.65-10.09,10.03-28.15,19.16-41.8,16.39h0Z"/>
                  <path class="cls-7" d="M1279,1080.37c7.4,1.49,14.6,8.81,15.15,17.89.66,11.31-4.77,23.81-13.8,30.82-2.99,2.31-7.38,5.29-11.77,6.85-1.59,20.53-31.94,39.49-44.53,50-14.79,12.33-28.96,25.19-42.7,38.68-6.67,6.54-13.52,13.08-20.97,18.57-.11.13-.16.38-.3.5-9.3,9.32-26.84,18.77-40.4,16.02-6.01-1.22-11.27-4.91-14.62-12.09-4.85-10.4-5.93-21.78-8.18-32.88-1.41-7.34-2.52-15.55-7.04-21.73-4.89-6.4-10.11-12.45-14.76-18.82-3.82-2.35-5.73-6.75-5.02-11.64,1.22-7.42,5.7-13.09,12.21-16.72,6.19-3.53,14.23-6.48,21.43-5,.97.18,1.88.47,2.83.78,5.6,2.2,10.64,6.07,15.28,10.44,5.23,3.33,10.61,6.64,16.54,7.85.76.16,1.52.28,2.43.37,12.12,1.23,23.16-8.99,30.42-17.56,7.98-9.43,16.45-25.01,28.05-32.79-.81-6.24.29-13.19,2.19-18.92,1.6-4.79,5.23-11.13,10.41-12.7,1.68-.5,3.2-.51,4.77-.19,2.18.45,4.36,1.7,6.05,3.35,2.29-4.05,7.76-6.74,12.27-5.83,1.1.21,2.23.71,3.2,1.36,1.54,1.09,2.65,2.62,3.42,4.28,2.41-2.16,5.48-3.35,8.5-2.72,1.59.32,3.29,1.24,4.77,3.02,0,.03.07.27.23.35.93-.46,2.17-.52,3.43-.28,2.66.56,5.65,2.47,6.94,4.04.23.26.44.52.57.79,3.2-5.48,8.17-7.06,12.99-6.08h0ZM1279.57,1077.44c-5.24-1.08-10.37.55-13.89,4.51-1.92-1.5-4.39-2.7-6.59-3.16-1.09-.21-2.03-.26-3.03-.19-1.63-1.58-3.48-2.53-5.42-2.92-2.8-.57-5.65-.06-8.25,1.43-.76-1.05-1.64-1.78-2.56-2.57-1.32-.84-2.75-1.53-4.32-1.84-4.55-.93-9.91,1.01-13.35,4.54-1.65-.99-3.36-1.66-4.99-2-2.03-.4-4.15-.38-6.17.23-6.17,1.82-10.4,8.79-12.43,14.63-2,6.09-2.85,12.59-2.42,18.41-7.76,5.69-14.05,14.49-19.66,22.34-2.65,3.66-5.16,7.11-7.53,9.93-10.09,11.83-19.41,17.39-27.97,16.57-.65-.14-1.37-.19-2.05-.34-5.17-1.03-10.03-3.93-15.39-7.34-3.68-3.46-9.47-8.26-16.02-10.78-1.02-.39-2.13-.72-3.25-.96-8.52-1.73-17.5,1.93-23.42,5.3-7.76,4.28-12.52,10.86-13.74,18.88-.85,5.82,1.33,11.15,5.81,14.22,2.48,3.21,4.96,6.41,7.45,9.44,2.29,2.95,4.76,5.96,7.03,9.03,3.58,4.79,4.76,11.29,6,17.65.26.94.35,1.91.58,2.81.53,2.61.92,5.07,1.47,7.65,1.44,8.61,2.99,17.59,6.95,25.93,3.46,7.49,9.27,12.21,16.67,13.72,14.29,2.9,32.48-6.23,43.13-16.77.19-.18.27-.36.5-.67,7.37-5.53,14.1-11.82,20.67-18.39,13.79-13.58,28.12-26.58,42.54-38.55,2.22-1.78,4.79-3.84,7.94-6.15,14.81-11.25,34.76-26.55,37.37-44.01,4.36-1.77,8.2-4.52,10.93-6.59,9.68-7.58,15.63-20.95,14.84-33.34-.59-9.88-8.1-18.74-17.45-20.64h0Z"/>
                </g>
                <path class="cls-7" d="M1287.24,1112.01c-10.57,1.92-10.39-7.04-11.24-14.76-.46-4.43-3.97-11.39-3.27-16.52-2.39.83-4.57,2.45-6.21,5.05.96,3.52.93,7.36-.3,10.85-.52,1.47-2.62,1.24-3.38.24-1.91-2.87-2.78-6.03-3.15-9.27-.35-.26-.44-.55-.43-1.04-.24-1.04-.1-1.94.18-2.74-.06-.69,0-1.28-.1-1.92-1.55-.49-3.15-.59-4.3.01-.1-.05-.16-.08-.15-.18.69,3.58.15,7.69-.91,10.53-.47,1.22-2.19,1.41-3.04.62-2.59-2.49-5.42-9.7-4.2-14.28-1.53.23-2.9.98-4.24,1.93.15,2.02.14,3.87-.24,5.03-.65,3.04-2.51,5.7-5.92,5.64-3.14-.12-5.31-3.18-6.16-5.91-.81-2.63-1.14-6.44-.08-9.39-2.91.8-5.62,2.72-7.18,5.11.56,1.94.5,4.15.2,6.61-1.16,6.35-4.04,11.92-9.69,15.29-6.61,3.92-14.3,9.68-17.25,17.2,6.8-1.63,12.69-6.19,19.99-6.98,4.86-.46,9.66-1.04,14.38-1.08,4.99-.06,18.83-.95,19.96,6.2,1.13,6.74-10.28,5.67-14.19,5.59-14.42-.27-25.46-1.44-38,7.75-16.33,11.91-27.38,29.49-35.37,47.75-4.84,11.22-10.3,23.77-23.23,27.13-5.75,1.56-15.18-.27-15.28-7.97-.02-3.51.57-6.11,2.57-8.99,1.48-2.28,10.83-13.05,5.76-13.92-1.98-.26-2.02-3.12-.25-3.77,1.83-.52,3.64-1.31,5.3-2.32,3.47-4.7,3.41-7.04-.3-6.96-1.83-.16-3.53-.32-5.32-.59-1.87-.28-2.2-3.28-.34-3.74.27-.06.67-.14.79-.16-3.72-1.59-7.28-3.76-10.88-6.04-4.64-4.36-9.68-8.24-15.28-10.44-8.02-3.04-17.25.29-24.26,4.22-6.51,3.63-10.99,9.31-12.21,16.72-.71,4.89,1.2,9.3,5.02,11.64,4.65,6.37,9.87,12.42,14.76,18.82,4.52,6.18,5.63,14.39,7.04,21.73,2.25,11.1,3.34,22.48,8.18,32.88,10.91,23.38,41.35,9.62,55.02-3.93.14-.12.2-.36.3-.5,7.45-5.5,14.3-12.03,20.97-18.57,13.73-13.49,27.9-26.36,42.7-38.68,12.59-10.5,42.94-29.47,44.53-50,4.38-1.56,8.77-4.54,11.77-6.85,7.09-5.42,11.91-14.22,13.26-23.09-1.09,2.97-3.09,5.44-6.36,6.04Z"/>
                <path class="cls-7" d="M1216.27,1156.96c.12-1.48-1.94-1.89-2.46-.51-2.08,6.9-4.44,12.81-8.63,18.67-3.36,4.77-7.77,8.41-11.89,12.43-.38.31.12.8.42.58,10.68-6.66,20.75-18.37,22.56-31.18Z"/>
                <path class="cls-7" d="M1137.16,1216.54c-6.28-2.65-12.49-5.28-13.52-12.88-.7-5.19,1.4-10.28,2.39-15.3.09-.31-.33-.41-.47-.15-3.19,5.04-5.97,12.25-4.36,18.31,1.85,7.55,8.38,10.78,15.78,11.03.49.02.67-.78.18-1.02Z"/>
                <path class="cls-7" d="M1256.27,1116.09c5.95-1.49,9.46-9.59,11.28-14.66,1.65-4.48,2.33-15.33-3.41-17.33-.81-.23-1.1.9-.67,1.36,7.74,8.81.11,24.31-8.46,29.73-1.36-1.08-2.76-2.03-3.89-2.7-1.03-.63-2.23-1.22-3.33-1.71,9.36-4.28,13.54-25.59,5.67-31.56-.81-.62-2.11.27-1.38,1.19,6.41,8.16,2.93,24.33-5.63,29.76-2.7-1.2-5.34-2.07-8.08-2.62,7.64-5.62,9.7-22.02,3.38-28.81-.79-.88-2.39.25-1.87,1.25,4.49,9.25,3.79,19.91-3.35,27.27-4.03-.66-8.14-.67-12.13-.09,7.02-6.24,7.62-21.1-1.51-27.33-1.56-.99-2.57,1.24-1.27,2.47,8.25,7.85,6.29,18.96.8,25.3-5.17,1.07-10.08,3.17-14.52,6.46-.19.2-.03.64.25.45,12.67-5.44,22.87-7.91,36.17-2.71,11.15,4.31,25.91,17.06,22.04,30.43-.16.55.56.87.96.54,7.41-8.31-2.69-20.04-11.03-26.68Z"/>
              </g>
              <path class="cls-7" d="M1137.63,1152.47c.46-.02.42-.81-.03-.84-5.51-.42-10.27-1.29-15.25-2.95-6.25-3.5-12.38-6.83-18.21-11.34-5.55-4.27-10.51-9.32-15.27-14.41-9.81-10.23-19.17-20.35-30.08-29.43-9.65-7.92-21.07-16.28-33.1-19.73-1.97-.55-8.56-2.53-12.22-1.59-3.75-.76-7.82-.32-4.72,4.68,1.71,2.81,4.95,5.1,7.69,6.9,6.64,4.33,13.85,7.74,20.64,12.05,28.22,17.96,47.57,49.01,79.59,61.12,1.13.47,2.34-.97,1.32-1.81-2.74-2.14-5.5-4.16-8.25-6.15,8.48,4.32,19.22,5.59,27.88,3.52Z"/>
              <path class="cls-7" d="M1271.21,991c-3.21-.15-6.45-.24-9.71-.19,1.58-1.1,2.91-2.45,4.38-3.95,1.61-1.63-.68-3.64-2.35-2.75-9.9,5-21.56,7.25-32.85,9.49-4.91.8-9.81,1.81-14.47,3.03-.63.15-1.22.27-1.83.45-.34.07-.46.15-.76.23-2.17.53-4.35,1.2-6.38,1.84-13.6,3.94-26.72,8.98-39.54,14.97-25.12,11.68-48.86,28.37-66.47,50.09-2.99,2.99-5.53,6.42-7.07,10.84-1.16,3.54,3.54,5.94,6.25,4.21,12.41-8.01,23.25-17.92,34.81-27,13.27-10.57,28.18-19.66,42.83-28.32,16.53-9.83,34.58-15.48,53.43-19.06,13.89-2.71,28.67-2.34,40.86-10.66,1.61-1.03.52-3.17-1.12-3.21Z"/>
              <path class="cls-7" d="M843.31,1178.41s13.69,32.03,20.41,43.47c6.72,11.44-.18,3.04-.18,3.04l-14.59-28.47-6.15-16.05.5-1.99Z"/>
              <g>
                <path class="cls-7" d="M883.34,1025.51c15.8-32.91,65.79-72.52,95.66-133.37-6.22-72.02,17.49-110.56,63.77-73.09,4.89,6.36,9.89,13.04,13.96,19.41,5.76,9.01,6.68,20.28,2.56,30.14-33.26,79.73-59.68,173.65-129.05,224.63-28.81-21.36-55.64-40.35-46.9-67.73Z"/>
                <path class="cls-7" d="M1058.3,856.72c-31.53,13.29-72.42,6.89-79.78-.02.31-45.21,32.81-63.11,64.26-37.65,1.33,1.73,2.85,3.27,4.49,4.68,15.53,13.27,21.21,34.77,13.43,53.66-31.79,77.28-66.56,168.89-130.46,215.84-9.51-7.05-15.52-4.57,10.63-27.73,68.98-61.08,71.5-112.74,117.43-208.78Z"/>
              </g>
              <path class="cls-7" d="M975,1113.26c-44.27-98.04-56.06-162.05-165.02-139.37-89.1,18.55-93.98,107.37-72.98,215.37,28,137,134,174,134,174-3-32,61.33-118.27,61.33-118.27l17.67-75.73,25-56Z"/>
              <path class="cls-7" d="M957.53,1073.22s34.81-41.17,50.14-74.57c0,0-31.52-54.07-56.09-61.73l-38.58,70.34,44.53,65.97Z"/>
              <path class="cls-7" d="M804.98,1001.89c106.99-22.27,118.66,35.32,161.02,130.37l9-19c-44.27-98.04-56.06-162.05-165.02-139.37-54.07,11.25,15.1-2.23,10.02,49.37,10.06-36.88-58.72-12.27-15.02-21.37Z"/>
              <g>
                <path class="cls-7" d="M882.47,1027.29l-24.53,51.79s-77.86-36.98-77.4-101.79l37.48-24.64,109.42,57.58s14.65,38.21-13.07,57.11l-31.89-40.04Z"/>
                <path class="cls-7" d="M869,1055.72l13.47-28.43,17.23,21.64c12.46-6.9,22.82-17.98,30.32-29.06-1.13-5.82-2.59-9.64-2.59-9.64l-68.94-36.28c-35.79.95-69.4,4.74-69.4,4.74,28.46,54.37,56.08,74.66,79.91,77.04Z"/>
                <path class="cls-7" d="M858.65,1081.08l-1.36-.64c-.2-.09-19.88-9.54-39.23-26.83-25.72-22.99-39.22-49.39-39.03-76.33v-.8s38.89-25.57,38.89-25.57l110.7,58.26.2.53c.15.39,14.74,39.55-13.63,58.88l-1.15.78-31.26-39.25-24.14,50.97Z"/>
              </g>
              <g>
                <g>
                  <path class="cls-7" d="M862.52,667.56c7.62,44.75,46.19,51.23,75.13,28.73,6.09-4.73,10.57-11.17,11.19-14.98,5.65-34.47-7.94-36.77-19-84.39-10.08-43.99-40-40.81-49.26-27.86-43.01-21.18-67.45-9.44-42.5,20.46-14.1-7.72-29.45,27.61-6.83,32.52-24.26,3.73-3.7,32.34.68,38.97,8.58,12.98,25.3,13.05,30.59,6.56Z"/>
                  <path class="cls-7" d="M841.18,588.56c9.63,2.97,20.05,4.75,30.86,3.92-6.9,3.61-22.91,1.62-36.01-1.53-16.63,1.25-15.85,27.99-1.11,29.62,5.5,1.17,13.7,1.86,18.36,1.74-2,.9-7.93,2.17-16.41,1.46-23.16.22-11.57,20.36-3.91,34.3,5.64,10.27,23.24,14.65,29.57,5.44-.92-3.98-1.14-6.29-1.31-6.96-13.36-.98-19.35-6.66-21.61-11.67,6.78,7.43,16.74,9.55,21.31,9.32-.2-1.93-.02-4.56.51-6.7,4.44,18.68,5.28,45.74,31.28,55.22-6.81-20.4-6.52-43.18,21.14-51.93,20.68-6.54,31.99,8.74,36.3,14.62,1.14-26.66-14.99-55.03-20.31-68.47-12.44-31.44-33.24-38.18-44.48-25.83,8.28,2.44,26.74,11.89,29.3,13.81,9,13.1,16.26,42.39,16.41,44.5-5.25-12.9-11.2-33.65-18.78-41.28-39.75-18.84-71-33.55-80.26-18.83-.67,8.18,5.1,14.96,9.14,19.27Z"/>
                </g>
                <path class="cls-7" d="M898.95,699.71c48.05,134.42,27.11,156.44,73.15,198.31,14.19,12.9,40.55,28.08,61.93,25.56,22-18.02,38.42-59.02,19.33-103.8-16.75-39.29-61.78-15.41-103.23-151.79-24.56-33.09-69.67-10.69-51.18,31.73Z"/>
                <path class="cls-7" d="M948.45,670.99c-14.73-19.98-65.87-25.53-40.78,35.55,47.24,115.75,21.12,121.71,65.08,176.9,15.06,18.9,40.88,44.02,66.9,30.65,13.74-20.77,33.41-62.87,13.19-95.51-34.02-39.72-65.36-12.14-104.39-147.58Z"/>
              </g>
              <g>
                <path class="cls-7" d="M904.97,825.44c-17.38,33.6-9.39,57.94,19.74,73.01,29.13,15.07,60.99,11.34,78.37-22.26,17.38-33.6,7.85-73.05-21.27-88.11-29.13-15.07-59.46,3.76-76.84,37.36Z"/>
                <path class="cls-7" d="M958.09,867.61l-38.07-3.22-13.02,21.13c4.56,4.88,10.48,9.19,17.71,12.93,12.92,6.69,26.38,9.66,38.88,7.98-8.79-7.88-24.52-25.67-5.5-38.82Z"/>
                <path class="cls-7" d="M925.3,798.25c16.45-15,36.75-20.39,56.51-10.17,22.27,11.52,33.07,37.3,29.15,63.81-5.83-32.25-24.69-78.47-85.66-53.65Z"/>
                <path class="cls-7" d="M956.56,908.41c-10.44,0-21.48-2.91-32.54-8.63-15.08-7.8-24.53-18.06-28.06-30.48-3.62-12.71-1.04-27.7,7.68-44.55,19.23-37.18,50.92-52.45,78.86-38,14.48,7.49,24.72,21.02,28.85,38.09,4.1,16.99,1.64,35.48-6.93,52.05-8.37,16.18-20.74,26.61-35.77,30.15-3.91.92-7.95,1.38-12.09,1.38ZM960.95,784.29c-22.63,0-42.77,18.88-54.64,41.84h0c-8.35,16.15-10.86,30.4-7.46,42.35,3.3,11.59,12.24,21.23,26.56,28.64,14.79,7.65,29.51,10.07,42.56,6.99,14.15-3.34,25.83-13.23,33.79-28.61,8.24-15.93,10.61-33.67,6.68-49.96-3.91-16.21-13.61-29.04-27.31-36.13-6.84-3.54-13.61-5.13-20.17-5.13Z"/>
                <circle class="cls-7" cx="949.14" cy="845.16" r="36.18" transform="translate(-6.27 7.1) rotate(-.43)"/>
                <circle class="cls-7" cx="925.23" cy="853.78" r="22.26" transform="translate(-227.74 1359.4) rotate(-66.38)"/>
                <path class="cls-7" d="M981.28,861.78c3.69-9.25,3.79-19.42.36-28.26-1.7-4.41-4.22-8.49-7.48-11.88-3.25-3.4-7.21-6.08-11.51-7.92-8.61-3.7-18.72-3.7-27.32.1-4.3,1.87-8.21,4.61-11.46,8.02-.79.87-1.63,1.71-2.29,2.68l-1.06,1.41c-.37.46-.63,1-.95,1.49-1.28,1.99-2.36,4.11-3.19,6.33l-1.83-1.94h.01c3.36-.87,6.65-1.25,10.05-1.26,3.38.01,6.81.46,10.07,1.64,3.25,1.18,6.31,3.14,8.6,5.82,1.19,1.3,2.09,2.82,2.91,4.34.75,1.56,1.41,3.16,1.83,4.82.91,3.27,1.41,6.72,1.02,10.22-.33,3.49-1.73,6.92-3.92,9.66-2.2,2.74-5.05,4.77-8.07,6.23-3.03,1.45-6.27,2.36-9.54,2.64,3.07-1.13,5.94-2.62,8.56-4.36,2.62-1.75,4.94-3.85,6.66-6.31,1.69-2.47,2.85-5.25,3.18-8.23.41-2.96.02-6.08-.79-9.04-.38-1.5-.97-2.9-1.62-4.27-.72-1.32-1.49-2.63-2.5-3.73-1.94-2.27-4.52-3.93-7.36-4.96-5.71-2.02-12.35-1.77-18.28-.31h0s-2.75.85-2.75.85l.91-2.79c3.21-9.79,10.66-18.27,20.24-22.48,9.5-4.34,20.86-4.35,30.4-.12,9.59,4.11,17.26,12.43,20.52,22.25,1.66,4.89,2.21,10.14,1.63,15.22-.59,5.07-2.31,9.98-5.06,14.13Z"/>
                <path class="cls-7" d="M918.48,840.88c-1.08,3.13,2.41,7.16,7.78,9.01,5.38,1.85,10.61.82,11.68-2.31,1.08-3.13-2.41-7.16-7.78-9.01-5.38-1.85-10.61-.82-11.68,2.31Z"/>
              </g>
              <path class="cls-7" d="M733.71,874.35c-1.08,10.22-1.45,20.47-1.11,30.69.14,4.74.45,9.49.9,14.21,0,.02.01.05.01.07.67,6.92,1.66,13.82,2.97,20.67,1.18,6.12,2.39,12.42,4.36,18.39.48-2.54,1.07-5.01,1.74-7.42,0-.05.02-.09.03-.14.47-1.72.98-3.42,1.54-5.06.12-.36.47-.6.85-.58.38.02.7.29.78.65,2.14,9.48,5.01,18.93,9.43,30.95.11-6.03.89-12.03,2.32-17.9.09-.37.42-.63.8-.64.37-.01.72.24.84.61,3.57,12.02,7.25,24.41,13.98,35.1-1.4-5.53-2.09-11.2-2.05-16.91,0-.36.25-.69.6-.8.35-.11.73.02.94.33,7.75,11.06,16.96,20.84,27.41,29.22-4.63-5.9-8.06-12.89-10.15-20.42-.02-.06-.03-.12-.05-.19-2.94-10.7-3.17-22.48-.27-33.81.77-3.02,1.74-5.99,2.86-8.82.46-1.17.96-2.34,1.5-3.5.73-1.65,1.55-3.28,2.41-4.87,1.44-2.68,3.07-5.33,4.83-7.9.3-.43.6-.85.89-1.25.77-11.91-3.87-23.96-12.44-32.24-2.51-2.43-5.4-4.59-8.19-6.68-4.48-3.36-9.12-6.84-12.4-11.53-3.36-4.8-5.22-10.76-5.47-17.31h-27.58c-1,5.79-1.69,11.56-2.27,17.09Z"/>
              <g>
                <path class="cls-7" d="M955.62,813.77c0,64.01-52.88,115.9-118.1,115.9s-118.1-51.89-118.1-115.9,53.54-84.71,118.1-93.83c104.38-14.75,118.1,29.82,118.1,93.83Z"/>
                <path class="cls-7" d="M783.78,871.39c2.22,1.48,4.57,2.72,6.97,3.85,2.4,1.12,4.85,2.13,7.36,2.96,2.5.84,5.03,1.57,7.6,2.11,2.56.59,5.15.94,7.74,1.24l-.44,2.97c-2.67-.56-5.32-1.18-7.89-2.04-2.59-.8-5.1-1.8-7.57-2.88-2.47-1.08-4.85-2.34-7.16-3.69-2.31-1.36-4.55-2.84-6.62-4.52Z"/>
                <path class="cls-7" d="M736.76,761.72c-5.05,9.93-9.32,24.61-6.73,44.09,0,0,9.77-34.8,36.91-47.89,0,0-18.04,14.05-24.1,35.44,0,0,17.88-26.66,37.19-32.09,0,0-19.63,16.44-23.15,36.24,0,0,10.38-19.63,32.72-28.73,0,0-19.87,12.53-17.88,46.53,2,34,169.43,8.08,169.43,8.08,0,0,10.23-6.32,4.48-38.81,0,0,4.87,9.9,5.35,30.49,0,0,3.49-11.45,3.32-29.79-5.22-48.02-28.77-77.77-116.8-65.33-42.3,5.98-79.88,16.93-100.76,41.77Z"/>
              </g>
              <path class="cls-7" d="M938.61,871.43c2.82,9.88,4.94,19.92,6.36,30.05.68,4.7,1.19,9.42,1.55,14.15,0,.02,0,.05,0,.07.53,6.93.74,13.9.62,20.88-.11,6.23-.22,12.65-1.14,18.87-.91-2.42-1.91-4.76-2.98-7.01,0-.04-.04-.09-.06-.13-.76-1.61-1.55-3.2-2.39-4.72-.18-.33-.57-.51-.93-.42-.37.09-.64.41-.66.78-.48,9.71-1.69,19.51-3.98,32.11-1.14-5.92-2.94-11.7-5.35-17.24-.15-.35-.52-.55-.9-.5-.37.05-.67.36-.72.74-1.46,12.46-2.96,25.29-7.75,36.98.43-5.69.14-11.39-.88-17.02-.06-.36-.36-.64-.73-.69-.36-.05-.72.15-.87.48-5.74,12.23-13.13,23.44-21.99,33.49,3.55-6.61,5.73-14.08,6.5-21.86.01-.06.01-.13.01-.2,1.06-11.05-.73-22.69-5.54-33.35-1.27-2.84-2.74-5.6-4.33-8.2-.66-1.08-1.35-2.14-2.08-3.19-1.01-1.5-2.08-2.96-3.21-4.38-1.88-2.39-3.94-4.73-6.11-6.95-.37-.37-.73-.73-1.09-1.08-2.81-11.6-.29-24.27,6.72-33.9,2.05-2.82,4.53-5.45,6.92-7.99,3.84-4.08,7.81-8.3,10.24-13.49,2.49-5.3,3.3-11.5,2.42-17.99l27.17-4.72c1.97,5.52,3.64,11.08,5.17,16.43Z"/>
              <path class="cls-7" d="M907.45,763.87c-16.7,0-31.48,9.14-40.52,23.16-10.99-12.8-27.94-21.02-46.97-21.02-33.14,0-48.23,24.89-48.23,55.6s15.09,55.6,48.23,55.6c20.07,0,37.83-9.14,48.73-23.17,9.13,12.56,23.1,20.59,38.76,20.59,27.52,0,40.06-24.8,40.06-55.38s-12.54-55.38-40.06-55.38Z"/>
              <g>
                <path class="cls-7" d="M756.17,825.44c17.38,33.6,9.39,57.94-19.74,73.01-29.13,15.07-60.99,11.34-78.37-22.26-17.38-33.6-7.85-73.05,21.27-88.11,29.13-15.07,59.46,3.76,76.84,37.36Z"/>
                <path class="cls-7" d="M735.84,798.25c-16.45-15-36.75-20.39-56.51-10.17-22.27,11.52-33.07,37.3-29.15,63.81,5.83-32.25,24.69-78.47,85.66-53.65Z"/>
                <path class="cls-7" d="M704.55,908.5c-19.99,0-37.09-10.87-47.82-31.61-8.57-16.57-11.03-35.05-6.93-52.05,4.12-17.07,14.37-30.6,28.85-38.09,14.29-7.39,29.58-7.24,44.21.43,13.46,7.06,25.77,20.4,34.65,37.57,17.22,33.28,10.17,59.23-20.38,75.03-11.31,5.85-22.32,8.71-32.57,8.71ZM700.19,784.33c-6.83,0-13.61,1.69-20.16,5.08-13.7,7.08-23.39,19.92-27.31,36.13-3.93,16.29-1.56,34.04,6.68,49.96,11.26,21.77,28.06,29.81,45.09,29.81,10.77,0,21.64-3.21,31.26-8.19,29.22-15.12,35.65-39,19.1-70.99-8.6-16.63-20.45-29.51-33.38-36.29-7-3.67-14.17-5.51-21.28-5.51Z"/>
                <circle class="cls-7" cx="712" cy="845.16" r="36.18" transform="translate(-368.14 611.63) rotate(-37.69)"/>
                <path class="cls-7" d="M688.26,829.24c17.75-9.18,39.58-2.24,48.76,15.51,3.74,7.23,4.8,15.14,3.55,22.6,8.37-10.79,10.25-25.89,3.56-38.82-9.18-17.75-31.01-24.69-48.76-15.51-10.52,5.44-17.24,15.32-19.06,26.17,3.12-4.02,7.13-7.45,11.95-9.94Z"/>
                <circle class="cls-7" cx="735.91" cy="853.78" r="22.26" transform="translate(-281.92 369.51) rotate(-23.8)"/>
                <path class="cls-7" d="M679.86,861.78c-2.75-4.16-4.47-9.06-5.06-14.13-.58-5.07-.03-10.32,1.63-15.22,3.26-9.83,10.94-18.15,20.52-22.25,9.54-4.23,20.9-4.23,30.4.12,9.58,4.21,17.03,12.69,20.24,22.48l.91,2.79-2.75-.85h0c-5.93-1.46-12.57-1.71-18.28.31-2.84,1.03-5.42,2.7-7.36,4.96-1.01,1.1-1.78,2.41-2.5,3.73-.65,1.37-1.24,2.78-1.62,4.27-.82,2.97-1.21,6.08-.79,9.04.33,2.98,1.5,5.76,3.18,8.23,1.72,2.46,4.04,4.56,6.66,6.31,2.63,1.74,5.5,3.23,8.56,4.36-3.27-.28-6.51-1.19-9.54-2.64-3.02-1.46-5.87-3.49-8.07-6.23-2.18-2.73-3.59-6.17-3.92-9.66-.38-3.5.11-6.95,1.03-10.22.42-1.65,1.09-3.26,1.83-4.82.83-1.52,1.73-3.04,2.91-4.34,2.29-2.67,5.35-4.64,8.6-5.82,3.27-1.18,6.7-1.62,10.07-1.64,3.4.01,6.69.39,10.05,1.26h.01s-1.83,1.94-1.83,1.94c-.83-2.23-1.91-4.34-3.19-6.33-.32-.5-.57-1.03-.95-1.49l-1.06-1.41c-.67-.98-1.5-1.81-2.29-2.68-3.25-3.4-7.16-6.15-11.46-8.02-8.6-3.8-18.71-3.8-27.32-.1-4.31,1.85-8.26,4.53-11.51,7.92-3.26,3.39-5.77,7.47-7.48,11.88-3.43,8.84-3.33,19.01.36,28.26Z"/>
                <path class="cls-7" d="M742.66,840.88c1.08,3.13-2.41,7.16-7.78,9.01-5.38,1.85-10.61.82-11.68-2.31-1.08-3.13,2.41-7.16,7.78-9.01,5.38-1.85,10.61-.82,11.68,2.31Z"/>
              </g>
              <g>
                <path class="cls-7" d="M878.88,802c1.04-2.22,2.47-4.23,4.04-6.13,1.59-1.89,3.37-3.62,5.32-5.16,3.9-3.08,8.49-5.39,13.39-6.56,2.44-.6,4.94-.96,7.45-.97,1.25-.06,2.5.04,3.74.09.62.05,1.24.15,1.85.23.62.07,1.23.16,1.84.3,4.87.93,9.52,2.72,13.67,5.24-4.64-1.45-9.3-2.57-13.98-3-2.34-.2-4.68-.27-7-.08-2.32.18-4.62.5-6.85,1.1-4.48,1.16-8.75,3.09-12.66,5.67-3.92,2.57-7.55,5.68-10.82,9.27Z"/>
                <path class="cls-7" d="M863.43,802c-3.27-3.6-6.9-6.7-10.82-9.27-3.91-2.58-8.18-4.51-12.66-5.67-2.23-.6-4.54-.93-6.85-1.1-2.32-.19-4.66-.12-7,.08-4.69.43-9.35,1.55-13.98,3,4.16-2.52,8.8-4.31,13.67-5.24.61-.13,1.22-.22,1.84-.3.62-.07,1.23-.18,1.85-.23,1.24-.05,2.49-.15,3.74-.09,2.5.01,5.01.37,7.45.97,4.9,1.16,9.49,3.47,13.39,6.56,1.95,1.54,3.73,3.28,5.32,5.16,1.57,1.89,3,3.91,4.04,6.13Z"/>
              </g>
              <g>
                <path class="cls-7" d="M940.5,959.68c0,50.39-23.13,72.68-67.35,76.76-46.06,4.25-84.97-26.11-84.97-76.5s35.79-91.23,79.93-91.23,72.38,40.58,72.38,90.97Z"/>
                <path class="cls-7" d="M885.88,880.05c-.31,3.23-5.8,5.33-12.27,4.71-6.46-.63-11.45-3.75-11.14-6.97.31-3.23,5.8-5.33,12.27-4.71,6.46.63,11.45,3.75,11.14,6.97Z"/>
                <path class="cls-7" d="M864.53,1038.34c-20.63,0-39.41-6.9-53.6-19.84-15.64-14.26-24.25-35.06-24.25-58.56,0-51.13,36.53-92.73,81.43-92.73,21.69,0,40.34,9.4,53.94,27.18,12.86,16.82,19.95,40,19.95,65.29,0,49.06-21.83,73.93-68.71,78.26-2.95.27-5.87.41-8.76.41ZM868.11,870.21c-43.25,0-78.43,40.25-78.43,89.73,0,22.98,8.05,42.46,23.28,56.35,15.54,14.17,36.87,20.8,60.05,18.66,22.43-2.07,38.55-8.79,49.28-20.54,11.24-12.3,16.7-30.21,16.7-54.73s-6.86-47.17-19.33-63.47c-13.01-17.01-30.84-26-51.55-26Z"/>
              </g>
              <g>
                <ellipse class="cls-7" cx="840.89" cy="892.66" rx="16.78" ry="34.72" transform="translate(-276.99 1396.93) rotate(-70.99)"/>
                <path class="cls-7" d="M846.35,876.79c-18.13-6.25-35.28-4.21-38.3,4.56-1.92,5.56,2.32,12.49,10.31,18.41l.2-1.25c-8.33-14.8,9.35-19.73,25.51-14.12,16.16,5.61,29.76,13.95,24.32,23.98-.29.54-.5,1.05-.67,1.54,2.99-1.37,5.11-3.36,6-5.94,3.02-8.76-9.23-20.93-27.36-27.18Z"/>
                <path class="cls-7" d="M857.98,901.81c-1.35,3.93-9.04,4.84-17.16,2.04-8.13-2.8-13.62-8.25-12.26-12.18,1.35-3.93,9.04-4.84,17.16-2.04,8.13,2.8,13.62,8.25,12.26,12.18Z"/>
              </g>
              <g>
                <ellipse class="cls-7" cx="908.49" cy="892.66" rx="29.8" ry="16.78" transform="translate(-241.21 344.6) rotate(-19.01)"/>
                <path class="cls-7" d="M936.67,882.95c-3.02-8.76-18.08-11.52-33.64-6.16-15.56,5.36-25.73,16.81-22.71,25.57,1.03,2.98,3.45,5.27,6.82,6.78h0c-7.74-4.68-.73-18.2,17.64-25.09,17.91-6.72,30.96.28,25.57,14.94,5.45-5.13,8.05-11.03,6.32-16.04Z"/>
                <path class="cls-7" d="M893.96,900.93c1.35,3.93,8.1,5.16,15.08,2.76,6.97-2.4,11.53-7.53,10.18-11.46-1.35-3.93-8.1-5.16-15.08-2.76-6.97,2.4-11.53,7.53-10.18,11.46Z"/>
              </g>
              <g>
                <circle class="cls-7" cx="828.46" cy="824.93" r="36.23"/>
                <ellipse class="cls-7" cx="831.64" cy="815.7" rx="26.47" ry="32.5" transform="translate(-210.47 1336.29) rotate(-70.99)"/>
                <path class="cls-7" d="M828.46,862.67c-20.81,0-37.73-16.93-37.73-37.73s16.93-37.73,37.73-37.73,37.73,16.93,37.73,37.73-16.93,37.73-37.73,37.73ZM828.46,790.2c-19.15,0-34.73,15.58-34.73,34.73s15.58,34.73,34.73,34.73,34.73-15.58,34.73-34.73-15.58-34.73-34.73-34.73Z"/>
                <path class="cls-7" d="M824.21,866.62c4.91-.25,9.8-.85,14.43-2.19l1.73-.52,1.68-.63c1.14-.37,2.19-.93,3.28-1.4,2.11-1.09,4.11-2.34,5.91-3.82,3.61-2.98,6.36-6.84,8.16-11.13.93-2.13,1.61-4.38,2.05-6.69.49-2.27.74-4.7.77-6.91l2.99-.19c.11,1.39.07,2.62-.02,3.92-.1,1.28-.23,2.56-.48,3.82-.48,2.52-1.21,5-2.23,7.38-2.05,4.74-5.33,9.01-9.52,12.04-2.09,1.51-4.34,2.76-6.69,3.74-2.37.91-4.79,1.68-7.27,2.08-1.22.28-2.48.36-3.71.54-1.24.13-2.48.19-3.72.26l-3.71-.04c-1.23-.07-2.46-.17-3.69-.26Z"/>
                <circle class="cls-7" cx="830.57" cy="825.29" r="24.32" transform="translate(-163.47 1444.03) rotate(-76.72)"/>
                <path class="cls-7" d="M848.51,824.8c.57,2.9.18,6.04-.93,8.95-1.15,2.91-3.16,5.51-5.69,7.53-2.55,2-5.67,3.3-8.93,3.79-3.26.5-6.66.07-9.76-1.1-6.25-2.33-10.99-8.12-12.06-14.52-.58-3.18-.28-6.46.8-9.39,1.1-2.92,2.93-5.5,5.3-7.27-3.08,5.03-3.74,10.81-2.11,15.71,1.54,4.9,5.32,8.85,9.95,10.59l.87.33c.29.09.6.16.89.24.59.19,1.21.25,1.82.36.61.12,1.24.11,1.86.18.62-.02,1.25-.01,1.87-.06,2.49-.21,4.94-.97,7.17-2.25,2.2-1.31,4.21-3.11,5.75-5.34,1.56-2.22,2.6-4.86,3.21-7.75Z"/>
                <path class="cls-7" d="M826.64,821.83c-1.63,3.23-7.05,3.78-12.11,1.23-5.05-2.55-7.83-7.24-6.2-10.47,1.63-3.23,7.05-3.78,12.11-1.23,5.05,2.55,7.83,7.24,6.2,10.47Z"/>
              </g>
              <g>
                <circle class="cls-7" cx="907.51" cy="825.92" r="33.64"/>
                <ellipse class="cls-7" cx="904.56" cy="817.35" rx="30.17" ry="24.58" transform="translate(-216.9 339.21) rotate(-19.01)"/>
                <path class="cls-7" d="M907.51,861.06c-19.38,0-35.14-15.76-35.14-35.14s15.76-35.14,35.14-35.14,35.14,15.76,35.14,35.14-15.76,35.14-35.14,35.14ZM907.51,793.78c-17.72,0-32.14,14.42-32.14,32.14s14.42,32.14,32.14,32.14,32.14-14.42,32.14-32.14-14.42-32.14-32.14-32.14Z"/>
                <path class="cls-7" d="M911.46,864.62c-1.14.1-2.28.19-3.43.26l-3.45.05c-1.15-.06-2.31-.11-3.46-.22-1.14-.17-2.31-.24-3.45-.49-2.31-.37-4.56-1.08-6.77-1.92-2.19-.91-4.29-2.06-6.24-3.47-3.9-2.82-6.97-6.8-8.88-11.21-.96-2.21-1.65-4.52-2.08-6.88-.22-1.18-.35-2.37-.44-3.56-.08-1.21-.12-2.35,0-3.65l2.99.19c.04,2.04.27,4.29.73,6.39.43,2.12,1.06,4.2,1.9,6.18,1.66,3.97,4.2,7.54,7.53,10.3,1.67,1.37,3.52,2.54,5.46,3.55,1.01.44,1.98.96,3.04,1.31l1.56.59,1.6.49c4.29,1.26,8.82,1.83,13.38,2.09Z"/>
                <circle class="cls-7" cx="903.14" cy="825.92" r="22.58"/>
                <path class="cls-7" d="M886.49,825.46c.81,2.69,1.96,5,3.44,6.95,1.49,1.94,3.31,3.47,5.27,4.62,1.98,1.12,4.14,1.77,6.34,2.03,2.21.26,4.45-.05,6.54-.77,4.19-1.46,7.73-4.97,9.23-9.45,1.57-4.47,1.06-9.86-1.79-14.55,2.19,1.65,3.96,4.01,4.99,6.73,1.04,2.72,1.35,5.78.85,8.78-.92,6.02-5.3,11.55-11.2,13.87l-1.11.43c-.38.12-.76.22-1.14.33-.76.23-1.55.33-2.33.45-.78.13-1.57.12-2.36.18-.79-.02-1.58-.06-2.36-.15-3.14-.4-6.17-1.65-8.62-3.58-2.43-1.94-4.33-4.5-5.34-7.32-1-2.82-1.18-5.86-.4-8.56Z"/>
                <path class="cls-7" d="M916.56,818.57c1.51,3,5.29,4.15,8.43,2.56,3.14-1.59,4.46-5.3,2.94-8.3-1.51-3-5.29-4.15-8.43-2.56-3.14,1.59-4.46,5.3-2.94,8.3Z"/>
              </g>
              <path class="cls-7" d="M880.47,916.04c0,6.14-1.48,11.11-3.3,11.11s-3.3-4.98-3.3-11.11,1.48-6.89,3.3-6.89,3.3.75,3.3,6.89Z"/>
              <g>
                <path class="cls-7" d="M806.88,727.94c60.06-23.56,57.56-29.78,57.81-45.78,0,0,8.69,5.54,5.36,21.77,0,0,16-18.44,16.89-49.33,0,0,46.37,8.93,24.52,62.5,0,0,7.92-7.17,13.77-20.8,0,0,8.38,25.19-13.77,46.52-22.15,21.33-104.58-14.89-104.58-14.89Z"/>
                <path class="cls-7" d="M894.35,686.24c-1.28,5.97-3.97,11.6-7.3,16.76-3.35,5.17-7.5,9.85-12.25,13.81-4.73,3.99-10.09,7.22-15.76,9.62-5.68,2.38-11.67,3.95-17.73,4.55,5.77-1.96,11.34-4.17,16.64-6.88,1.32-.69,2.62-1.4,3.91-2.13,1.27-.76,2.54-1.52,3.77-2.35,1.26-.77,2.45-1.66,3.66-2.51,1.16-.91,2.35-1.79,3.48-2.74,4.58-3.74,8.66-8.07,12.31-12.77,3.6-4.73,6.8-9.82,9.27-15.37Z"/>
                <path class="cls-7" d="M903.16,682.61c.27,2.6.16,5.19-.11,7.76-.25,2.57-.73,5.11-1.35,7.61-.61,2.5-1.4,4.97-2.41,7.35-.96,2.39-2.19,4.7-3.69,6.84.39-2.6,1.01-5.05,1.57-7.52.57-2.47,1.19-4.91,1.8-7.35.63-2.44,1.26-4.88,1.95-7.33.67-2.45,1.38-4.89,2.23-7.36Z"/>
              </g>
              <g>
                <path class="cls-7" d="M861.62,774.69c-5.08-4.03-10.47-7.54-16.11-10.46-5.63-2.93-11.59-5.18-17.75-6.33-6.15-1.19-12.51-1.06-18.64.37-6.14,1.42-11.93,4.29-17.38,7.79,2.39-2.18,4.94-4.25,7.78-5.9,2.79-1.73,5.84-3.07,9-4.07,3.15-1.06,6.48-1.55,9.81-1.76,3.33-.24,6.69.06,9.96.63,3.29.55,6.48,1.52,9.58,2.7,3.09,1.21,6.03,2.72,8.85,4.41,2.81,1.71,5.49,3.62,7.99,5.72,2.48,2.12,4.87,4.37,6.9,6.91Z"/>
                <path class="cls-7" d="M941.93,774.18c-4.81-5.32-10.3-9.93-16.35-13.43-6.03-3.5-12.8-5.64-19.65-5.58-3.42.03-6.84.54-10.14,1.59-.84.19-1.63.57-2.45.86-.81.31-1.63.59-2.4,1l-2.37,1.11c-.77.4-1.52.86-2.29,1.29-6.09,3.5-11.53,8.17-16.68,13.18,4.27-5.77,9.38-11.03,15.48-15.09,2.99-2.11,6.36-3.71,9.84-4.97,3.48-1.3,7.24-1.86,10.96-1.95,3.74-.09,7.48.54,11.03,1.65,3.55,1.12,6.88,2.8,9.96,4.81,3.07,2.03,5.87,4.39,8.41,6.99,2.5,2.63,4.81,5.44,6.64,8.56Z"/>
              </g>
              <g>
                <path class="cls-7" d="M790.46,1025.51c-15.8-32.91-65.79-72.52-95.66-133.37,6.22-72.02-17.49-110.56-63.77-73.09-4.89,6.36-9.89,13.04-13.96,19.41-5.76,9.01-6.68,20.28-2.56,30.14,33.26,79.73,59.68,173.65,129.05,224.63,28.81-21.36,55.64-40.35,46.9-67.73Z"/>
                <path class="cls-7" d="M615.5,856.72c31.53,13.29,72.42,6.89,79.78-.02-.31-45.21-32.81-63.11-64.26-37.65-1.33,1.73-2.85,3.27-4.49,4.68-15.53,13.27-21.21,34.77-13.43,53.66,31.79,77.28,66.56,168.89,130.46,215.84,9.51-7.05,15.52-4.57-10.63-27.73-68.98-61.08-71.5-112.74-117.43-208.78Z"/>
              </g>
              <path class="cls-7" d="M759.5,1166.76c-14.16-72.83-16.54-136.94,10.73-176.66-50.25,34.44-50.5,110.3-33.23,199.16,28,137,134,174,134,174-.7-7.47,2.27-17.9,7.23-29.5-30.38-16.01-97.33-62.3-118.73-167Z"/>
              <g>
                <g>
                  <path class="cls-7" d="M811.28,667.56c-7.62,44.75-46.19,51.23-75.13,28.73-6.09-4.73-10.57-11.17-11.19-14.98-5.65-34.47,7.94-36.77,19-84.39,10.08-43.99,40-40.81,49.26-27.86,43.01-21.18,67.45-9.44,42.5,20.46,14.1-7.72,29.45,27.61,6.83,32.52,24.26,3.73,3.7,32.34-.68,38.97-8.58,12.98-25.3,13.05-30.59,6.56Z"/>
                  <path class="cls-7" d="M832.62,588.56c-9.63,2.97-20.05,4.75-30.86,3.92,6.9,3.61,22.91,1.62,36.01-1.53,16.63,1.25,15.85,27.99,1.11,29.62-5.5,1.17-13.7,1.86-18.36,1.74,2,.9,7.93,2.17,16.41,1.46,23.16.22,11.57,20.36,3.91,34.3-5.64,10.27-23.24,14.65-29.57,5.44.92-3.98,1.14-6.29,1.31-6.96,13.36-.98,19.35-6.66,21.61-11.67-6.78,7.43-16.74,9.55-21.31,9.32.2-1.93.02-4.56-.51-6.7-4.44,18.68-5.28,45.74-31.28,55.22,6.81-20.4,6.52-43.18-21.14-51.93-20.68-6.54-31.99,8.74-36.3,14.62-1.14-26.66,14.99-55.03,20.31-68.47,12.44-31.44,33.24-38.18,44.48-25.83-8.28,2.44-26.74,11.89-29.3,13.81-9,13.1-16.26,42.39-16.41,44.5,5.25-12.9,11.2-33.65,18.78-41.28,39.75-18.84,71-33.55,80.26-18.83.67,8.18-5.1,14.96-9.14,19.27Z"/>
                </g>
                <path class="cls-7" d="M774.85,699.71c-48.05,134.42-27.11,156.44-73.15,198.31-14.19,12.9-40.55,28.08-61.93,25.56-22-18.02-38.42-59.02-19.33-103.8,16.75-39.29,61.78-15.41,103.23-151.79,24.56-33.09,69.67-10.69,51.18,31.73Z"/>
                <path class="cls-7" d="M725.35,670.99c14.73-19.98,65.87-25.53,40.78,35.55-47.24,115.75-21.12,121.71-65.08,176.9-15.06,18.9-40.88,44.02-66.9,30.65-13.74-20.77-33.41-62.87-13.19-95.51,34.02-39.72,65.36-12.14,104.39-147.58Z"/>
              </g>
              <path class="cls-7" d="M745,1098.26s54-25,49-70l-13-22s-45-53-47-58c0,0-13,60-68,61,0,0,39,75,79,89Z"/>
              <path class="cls-7" d="M688.92,1004.88c-6.68,2.61-14.28,4.22-22.92,4.38,0,0,39,75,79,89,0,0,2.26-1.05,5.81-3.1-30.03-17.31-54.15-71.32-61.89-90.28Z"/>
              <path class="cls-7" d="M985.83,1094.66s-25.2,39.09-43.36,113.41c-18.06,74.31-16.59,89.23-16.59,89.23,0,0-1.44-67.03,26.23-138.32,27.5-71.2,33.73-64.33,33.73-64.33Z"/>
              <g>
                <path class="cls-7" d="M920.77,957.57c-74.89-32.89-104.19-23.56-115.76,0-11.57,23.56,10.87,32.44,46.65,20.22,35.78-12.22,52.18-10.13,60.93-2.22,17.7,16,29.91-9.15,8.18-18Z"/>
                <g>
                  <path class="cls-7" d="M907.8,961.27l3.26-7.83c-36.58-15.06-61.35-19.22-78.14-16.31l7.62,17.79-12.04,28.1c6.76-.59,14.57-2.3,23.16-5.23,35.78-12.22,52.18-10.13,60.93-2.22.85.77,1.69,1.44,2.52,2.03l-7.3-16.33Z"/>
                  <path class="cls-7" d="M909.34,957.58l1.72-4.14c-36.58-15.06-61.35-19.22-78.14-16.31l6.5,15.18c24.35-9.95,60.41,1.83,69.92,5.27Z"/>
                  <polyline class="cls-7" points="832.92 937.13 844.74 964.57 851.35 949.73 854.76 958.03 857.28 952.85"/>
                  <polyline class="cls-7" points="890.76 956.81 893.54 962.81 898.44 956.25 903.76 965.28 911.06 953.44"/>
                </g>
                <path class="cls-7" d="M920.77,957.57c-74.89-32.89-104.19-23.56-115.76,0-11.57,23.56,10.87,32.44,46.65,20.22,35.78-12.22,52.18-10.13,60.93-2.22,17.7,16,29.91-9.15,8.18-18Z"/>
              </g>
            </g>
            <g>
              <path class="cls-5" d="M947.21,836.02c-3.52-26.28-3.22-74.48-47.23-94.7-21.35-9.81-53.14-11.51-82.92-5.42.04.03,20.54,14.22,20.97,15.18.43.96,6.07,10.71,11.38,17.17,5.31,6.46,16.81,7.64,16.81,7.64l-22.94-2.36-19.78-17.99-40.26-8.65c-15.9,7.44-29.24,17.71-37.21,30.74-15.26,24.96-31.43,129.23,30.19,128.38,0,0-4.34,27.52,1.68,34.46,6.02,6.94,44.74,3.5,44.74,3.5,0,0-4.17,24.83,2.82,28.13,6.99,3.29,95.2-2.44,95.55-7.81.35-5.36-12.14-28.08-12.14-28.08,0,0,43.77-10.6,42.5-18.91-1.28-8.31-10.91-33.53-10.91-33.53,0,0,10.28-21.45,6.76-47.73ZM856.38,886.42c-1.53,24.57-21.92,29.28-31.15,30.2-9.23.93-21.19-7.64-29.85-18.76-8.66-11.12-9.55-37.66-9.11-46.59.44-8.92,16.25-28.27,23.86-31.19,7.61-2.92,20.98-3.38,29.4.1,12.97,5.36,18.38,41.66,16.85,66.23ZM893.54,929.37c-2.42,2.46-12.96-8.09-12.96-8.09,0,0-8.32,12.82-10.83,9.96-2.51-2.86,4.12-34.15,8.39-35.91,4.26-1.76,17.82,31.58,15.41,34.04ZM926.92,881.56c-7.29,15.82-8.39,27.03-24.08,21.06,0,0-15.43-12.21-16.84-26.28-1.41-14.06-6.74-40.61,1.57-55.2,5.21-9.16,29.44-16.27,39.29-6.6,9.85,9.67,7.35,51.2.06,67.03Z"/>
              <path class="cls-5" d="M872.14,1066.05c-12.21-3.23-41.42-45.57-40.1-50.14,1.32-4.57,87.83-13.97,91.79-5.49,3.96,8.48-37.09,59.49-51.69,55.62Z"/>
              <path class="cls-5" d="M875.88,1060.84c-9.65-2.73-32.88-37.98-31.86-41.77,1.02-3.79,69.27-11.23,72.43-4.18,3.16,7.05-29.04,49.21-40.57,45.95Z"/>
              <ellipse class="cls-5" cx="767.31" cy="789.45" rx="22.33" ry="17.79" transform="translate(-311.73 1007.8) rotate(-57.25)"/>
              <path class="cls-5" d="M947.21,836.02c-3.52-26.28-3.22-74.48-47.23-94.7-21.35-9.81-53.14-11.51-82.92-5.42.02.02,7.09,4.91,13.01,9.15,23.68-3.16,47.6-.99,64.4,6.73,39.92,18.35,39.65,62.06,42.84,85.9,3.2,23.84-6.13,43.3-6.13,43.3,0,0,8.74,22.88,9.9,30.42,1.16,7.53-38.55,17.15-38.55,17.15,0,0,9.08,27.07,8.76,31.93-.1,1.56-7.73,3.08-18.24,4.33-.44-3.48-1.69-11.8-3.91-14.87-2.36-3.28-2.52,10.78-2.51,15.57-9.41.93-20.15,1.64-29.68,2.01-.35-3.6-1.51-14.19-2.97-14.05s-2.53,10.23-2.92,14.23c-9.96.24-17.7,0-19.57-.88-6.34-2.99-3.07-30.64-3.07-30.64,0,0-39.24,2.53-44.7-3.77-5.46-6.3-1.52-31.26-1.52-31.26-55.9.77-41.23-93.8-27.38-116.45,6.97-11.4,18.48-20.46,32.24-27.14l30,3.61,26.21,12.35-19.78-17.99-23.46-5.04h0l-16.81-3.61c-15.9,7.44-29.24,17.71-37.21,30.74-15.26,24.96-31.43,129.23,30.19,128.38,0,0-4.34,27.52,1.68,34.46,6.02,6.94,44.74,3.5,44.74,3.5,0,0-4.17,24.83,2.82,28.13,6.99,3.29,95.2-2.44,95.55-7.81.35-5.36-12.14-28.08-12.14-28.08,0,0,43.77-10.6,42.5-18.91-1.28-8.31-10.91-33.53-10.91-33.53,0,0,10.28-21.45,6.76-47.73Z"/>
              <g>
                <path class="cls-5" d="M811.29,836.69c4.42-4.4,11.57-4.38,15.97.04,4.4,4.42,4.38,11.57-.04,15.97-4.42,4.4-11.57,4.38-15.97-.04s-4.38-11.57.04-15.97Z"/>
                <path class="cls-5" d="M811.61,838.19c3.6-3.58,9.42-3.57,13.01.03,3.58,3.6,3.57,9.42-.03,13.01-3.6,3.58-9.42,3.57-13.01-.03-3.58-3.6-3.57-9.42.03-13.01Z"/>
                <path class="cls-2" d="M813.44,843.12c.86-.86,2.26-.86,3.12,0,.86.86.86,2.26,0,3.12-.86.86-2.26.86-3.12,0-.86-.86-.86-2.26,0-3.12Z"/>
              </g>
              <g>
                <path class="cls-5" d="M900.83,872.87c4.42-4.4,11.57-4.38,15.97.04,4.4,4.42,4.38,11.57-.04,15.97-4.42,4.4-11.57,4.38-15.97-.04-4.4-4.42-4.38-11.57.04-15.97Z"/>
                <path class="cls-5" d="M901.15,874.37c3.6-3.58,9.42-3.57,13.01.03s3.57,9.42-.03,13.01c-3.6,3.58-9.42,3.57-13.01-.03-3.58-3.6-3.57-9.42.03-13.01Z"/>
                <path class="cls-2" d="M902.98,879.3c.86-.86,2.26-.86,3.12,0,.86.86.86,2.26,0,3.12s-2.26.86-3.12,0c-.86-.86-.86-2.26,0-3.12Z"/>
              </g>
            </g>
            <path class="cls-5" d="M759.47,672.01c-.71-33.76-53.42-5.84-18.52,9.84-30.16,45.05-57.51,95.29-78.04,147.29-44.55-18.95-39.79,46.29.25,24.7,7.15,39.01,50.37,11.62,21.16-13.02,37.55-48.56,64.01-95.92,84.16-146.32,41.5,1.94,26.81-40.91-9.02-22.48ZM681.53,822.32c18.79-40.51,40.12-80.08,63.31-118.61-9.97,43.34-31.83,84.29-63.31,118.61Z"/>
            <path class="cls-5" d="M680.57,891.93c-2.6-4.83-9.12-8.12-14.02-5.27-5.18,3.02-5.25,10.15-4.66,15.95-4.75-1.22-9.78-2.03-14.62-.93-4.84,1.1-9.43,4.47-10.65,9.16-1.58,6.02,2.94,12.19,8.65,14.72,5.74,2.52,12.37,2.25,18.88,1.63,23.34,43.64,49.4,85.86,78.29,126.28-2.31,4.4-3.43,9.66-1.7,14.28,1.69,4.58,6.76,8.11,11.69,7.1,3.49-.71,6.32-3.47,7.95-6.59,1.62-3.12,2.27-6.61,2.89-10.06,3.41,1.87,7.15,3.38,11.09,3.51,3.94.13,8.11-1.29,10.53-4.36,4.37-5.52,1.18-14.14-4.88-17.61-6.06-3.47-13.73-2.96-20.96-1.04-26.61-41.41-53.25-82.81-79.38-124.5.08-.1,6.6-11.65.9-22.25Z"/>
            <path class="cls-5" d="M1040.85,883.18c2.71-4.77,2.03-12.04-2.98-14.68-5.31-2.79-11.38.94-15.99,4.52-1.49-4.67-3.48-9.36-6.98-12.88-3.5-3.52-8.8-5.61-13.42-4.16-5.94,1.86-8.77,8.97-7.87,15.15.91,6.21,4.67,11.68,8.65,16.86-24.57,42.96-46.5,87.47-65.39,133.42-4.95.38-10.01,2.23-13,6.14-2.98,3.87-3.28,10.03.2,13.68,2.46,2.57,6.3,3.51,9.81,3.23,3.51-.28,6.81-1.59,10.06-2.9.23,3.88.94,7.85,2.92,11.26,1.98,3.41,5.4,6.19,9.29,6.61,7,.77,12.61-6.51,12.33-13.49-.28-6.98-4.79-13.21-10.25-18.31,20.94-44.54,41.87-89.11,63.3-133.39.12.02,13.38-.6,19.33-11.06Z"/>
            <path class="cls-5" d="M1002.55,837.61c28.53,18.07,34.39-41.29,2.03-20.87-20.87-50.03-47.63-100.59-79.62-146.44,40.41-26.66-16.59-58.74-20.72-13.44-36.46-15.6-37.52,35.56-.84,24.84,19.72,58.13,44.56,106.36,75.43,151.01-24.55,33.51,19.28,44.95,23.72,4.91ZM920.36,689.59c23.38,38.05,44.56,77.69,63.86,118.32-30.61-32.27-52.66-73.11-63.86-118.32Z"/>
            <g>
              <g>
                <path class="cls-5" d="M780.09,663.17c5.36,2.43,25.67-3.98,37.16-9.83,1.63-.82,3.43-2.01,3.49-3.85.07-1.75-1.66-3.15-3.37-3.46-1.72-.3-3.48.17-5.21.5-4.63.87-9.48.57-13.97-.86-7.03,4.99-13.48,10.84-18.1,17.5Z"/>
                <path class="cls-5" d="M805.75,657.88c1.02-3.41,1.44-6.97,1.19-10.52"/>
              </g>
              <g>
                <path class="cls-5" d="M809.92,635.31c8.15-9.42,18.48-16.95,29.94-21.85,1.9-.81,4.23-2.22,3.79-4.25-.42-2.05-3.19-2.4-5.26-2.15-14.1,1.62-27.5,8.71-36.78,19.42,2.77,2.36,5.16,5.14,8.31,8.82Z"/>
                <path class="cls-5" d="M820.8,624.43c-1.19-3.41-3.08-6.6-5.53-9.25"/>
                <path class="cls-5" d="M834.74,615.42c-.56-2.6-1.88-5.02-3.78-6.85"/>
              </g>
              <g>
                <path class="cls-5" d="M802.06,624.37c7.21-10.45,16.46-19.47,27.1-26.39,1.82-1.17,3.91-3.08,3.04-5.06-.73-1.58-2.89-1.76-4.63-1.57-7.15.81-13.88,3.99-19.78,8.13-5.88,4.16-11.01,9.31-16,14.48,4.11,2.44,7.6,5.86,10.27,10.41Z"/>
                <path class="cls-5" d="M812.67,611.35c-1.86-3.66-4.88-6.73-8.49-8.66"/>
                <path class="cls-5" d="M824.93,600.88c-1.21-3.04-3.44-5.68-6.25-7.37"/>
              </g>
              <g>
                <path class="cls-5" d="M781.29,607.53c7.81-10.16,14.18-22.1,25.08-28.83,1.35-.83,2.84-1.6,4.42-1.64s3.31.85,3.74,2.38c.56,1.91-1,3.75-2.37,5.19-7.45,7.8-13.53,16.88-17.91,26.72-3.16-.84-6.37-1.71-12.95-3.83Z"/>
                <path class="cls-5" d="M801.1,598.83c-2.49-2.71-5.62-4.8-9.06-6.09"/>
                <path class="cls-5" d="M810.44,586.26c-2.01-2.14-4.65-3.73-7.5-4.48"/>
              </g>
              <g>
                <path class="cls-5" d="M772.87,604.86c-1.3-6.64.47-13.83,4.7-19.09,4.25-5.28,10.87-8.52,17.66-8.67.89,0,1.86.05,2.56.6,1.16.92.96,2.86.05,4.05s-2.31,1.87-3.56,2.67c-6.69,4.32-9.7,13.56-6.83,21-4.41.08-8.82.17-14.58-.56Z"/>
                <path class="cls-5" d="M787.74,592.21c-1.5-1.75-3.63-2.91-5.9-3.25-2.28-.34-4.66.18-6.59,1.41"/>
                <path class="cls-5" d="M792.45,585.58c.39-1.57.03-3.33-.98-4.61-.99-1.29-2.59-2.08-4.23-2.08"/>
              </g>
              <path class="cls-5" d="M758.73,635.25c.34,12.18,8.32,23.16,21.62,28.26,12.62-6.98,23.35-16.06,32-30.15-5.22-17.62-21.63-30.96-39.83-31.82-6.5,10.2-14.14,21.12-13.79,33.71Z"/>
            </g>
            <g>
              <path class="cls-5" d="M909.55,627.84c-2.71,9.45-11.13,16.43-22.53,17.74-8.45-7.96-15.22-18.59-19.15-31.33,7.59-12.71,23.14-18.91,37.51-15.95,3.04,9.28,6.98,19.77,4.17,29.53Z"/>
              <g>
                <path class="cls-5" d="M887.31,645.37c-4.66.82-19.25-8.23-27.06-15.11-1.1-.96-2.27-2.25-1.96-3.7.3-1.38,1.91-2.13,3.32-2.02,1.41.11,2.68.85,3.96,1.44,3.44,1.59,7.29,2.32,11.08,2.1,11.33.71,19.01,14.41,10.65,17.29Z"/>
                <path class="cls-5" d="M868.33,636.12c-.12-2.86.28-5.73,1.16-8.44"/>
              </g>
              <g>
                <g>
                  <path class="cls-5" d="M872.7,615.51c-1.64,1.11-3.89.61-4.88-1.11-4.38-7.64-10.27-14.4-17.25-19.78-1.33-1.01-2.84-2.57-2.13-4.07.75-1.52,2.97-1.24,4.53-.63,8.56,3.28,16.07,9.18,21.33,16.66,2.05,2.89,1.37,6.89-1.56,8.87,0,.03-.03.03-.05.06Z"/>
                  <path class="cls-5" d="M863.26,606.99c1.62-2.43,3.73-4.55,6.17-6.12"/>
                  <path class="cls-5" d="M854.17,597.15c.94-1.91,2.47-3.53,4.32-4.6"/>
                </g>
                <g>
                  <path class="cls-5" d="M882.87,606.81c-2.71,1.57-6.21.59-7.53-2.26-3.4-7.26-7.91-13.99-13.33-19.9-1.18-1.28-2.44-3.2-1.36-4.54.88-1.1,2.62-.81,3.93-.31,5.43,2.07,10.05,5.89,13.82,10.32,2.43,2.84,4.51,5.95,6.46,9.12,1.58,2.58.76,6.01-1.88,7.51-.04.02-.07.04-.11.06Z"/>
                  <path class="cls-5" d="M872.23,598.41c2.19-2.49,5.16-4.28,8.38-5.07"/>
                  <path class="cls-5" d="M864.73,587.76c1.56-2.14,3.82-3.75,6.35-4.51"/>
                </g>
                <g>
                  <path class="cls-5" d="M892.47,601.95c2.43-.1,4.05-2.56,3.17-4.82-3.16-8.21-5.95-16.7-11.99-22.95-.89-.92-1.89-1.82-3.12-2.16-1.24-.36-2.75,0-3.4,1.1-.83,1.39.03,3.13.83,4.53,3.35,5.97,5.88,12.4,7.52,19.03.77,3.18,3.63,5.39,6.89,5.27.03.03.07.01.1.01Z"/>
                  <path class="cls-5" d="M883.75,590.94c2.48-1.62,5.36-2.62,8.3-2.94"/>
                  <path class="cls-5" d="M878.97,579.24c2-1.29,4.37-1.98,6.76-2.01"/>
                </g>
                <g>
                  <path class="cls-5" d="M900.39,600.61c2.61.51,5.17-1.22,5.66-3.83.72-3.8.27-7.81-1.33-11.33-2.26-4.96-6.8-8.84-12.05-10.3-.69-.19-1.46-.35-2.11-.04-1.1.51-1.33,2.03-.86,3.15.48,1.1,1.42,1.91,2.24,2.8,3.31,3.57,4.41,8.95,3.11,13.61-.67,2.41.67,4.9,3.1,5.46.72.16,1.45.34,2.23.48Z"/>
                  <path class="cls-5" d="M895.51,588.44c1.52-1.06,3.42-1.55,5.25-1.36,1.83.19,3.61,1.07,4.87,2.43"/>
                  <path class="cls-5" d="M893.16,582.31c.02-1.31.64-2.6,1.68-3.41s2.45-1.1,3.71-.79"/>
                </g>
              </g>
            </g>
            <g>
              <path class="cls-5" d="M933.91,1256.71c-.88.1-1.81-.07-2.63-.55-20.56-11.86-45.1-42.6-52.53-65.78-.72-2.26.52-4.68,2.78-5.4,2.27-.72,4.68.52,5.4,2.78,6.77,21.12,29.95,50.17,48.64,60.96,2.06,1.19,2.76,3.81,1.57,5.87-.71,1.23-1.93,1.97-3.23,2.12Z"/>
              <g>
                <g>
                  <g>
                    <g>
                      <path class="cls-5" d="M941.04,1160.34c14.37-25.66-46.14-.46-49.05,17.13-1.82,11.05,34.72-19.88,49.05-17.13Z"/>
                      <path class="cls-5" d="M942.18,1150.88c-9.59,17.06-26.56,27.57-45.62,31.79-2.26.49-4.6.92-6.54,2.2-1.94,1.28-3.33,3.76-2.56,5.86,1.03,2.77,4.82,3.08,7.84,2.82,12.57-1.05,25.52-4.24,35.53-12.24,10-7.96,16.9-22.41,11.35-30.43Z"/>
                    </g>
                    <g>
                      <path class="cls-5" d="M939.37,1124.67c17.21-37.84-62.86,11.05-59.28,29.86,2.04,10.82,40.23-39.88,59.28-29.86Z"/>
                      <path class="cls-5" d="M939.14,1111.2c-4.07,17.32-29.21,39.35-52.53,49-3.85,1.58-8.66,4.29-8.02,8.26.36,2.21,2.47,3.73,4.69,4.1,2.2.38,4.52-.16,6.74-.75,14.6-3.86,28.34-11.35,38.74-22.46,10.4-11.07,20.97-32.43,10.38-38.15Z"/>
                    </g>
                    <g>
                      <path class="cls-5" d="M929.83,1093.4c12.78-42.56-66.73,10.69-58.75,29.82,3.7,8.88,38.46-41.84,58.75-29.82Z"/>
                      <path class="cls-5" d="M925.18,1077.85c-5.66,23.63-24.6,44.24-47.93,52.12-2.85.97-5.89,1.84-8.09,3.89-2.2,2.06-3.15,5.86-1.11,7.89,1.76,1.75,4.73,1.44,7.25.87,17.78-4.08,33.33-15.56,46.11-28.78,5.46-5.63,10.7-12,12.19-19.53,1.51-7.51-2.13-16.31-8.42-16.46Z"/>
                    </g>
                    <g>
                      <path class="cls-5" d="M911.84,1065.19c4.78-39.56-70.92,12.83-57.96,27.69,6.32,7.21,33.19-39.99,57.96-27.69Z"/>
                      <path class="cls-5" d="M905.71,1051.22c6.24,2.41,9.29,9.72,8.55,16.46-.74,6.73-4.5,12.86-8.72,18.35-11.49,14.95-27.14,26.8-44.61,33.82-1.46.58-3.13,1.13-4.48.41-1.61-.86-1.77-3.22-.89-4.88s2.54-2.77,4.09-3.87c21.06-14.85,37.37-36.37,46.05-60.29Z"/>
                    </g>
                  </g>
                  <g>
                    <g>
                      <path class="cls-5" d="M824.53,1212.53c-28.21-5.8,30.1-36.05,44.87-26.67,9.23,5.85-37.42,13.74-44.87,26.67Z"/>
                      <path class="cls-5" d="M816.88,1207.15c18.75,3.84,37.63-2.36,53.29-14.34,1.83-1.41,3.7-2.95,5.92-3.6s4.95-.1,5.95,1.88c1.33,2.63-.93,5.75-3.13,7.93-9.05,9.03-19.94,16.98-32.36,19.43-12.41,2.5-27.47-1.71-29.67-11.3Z"/>
                    </g>
                    <g>
                      <path class="cls-5" d="M799.61,1187.69c-38.95-11.63,49.56-41.38,60.9-26.2,6.54,8.74-55.63,4.84-60.9,26.2Z"/>
                      <path class="cls-5" d="M789.94,1178.63c15.31,8.29,47.97,3.36,70.38-8.35,3.69-1.93,8.83-3.89,11.31-.76,1.36,1.72,1.09,4.37-.1,6.35-1.19,1.97-3.1,3.38-4.99,4.72-12.45,8.77-26.99,14.44-41.94,15.19-14.93.74-37.49-5.19-34.66-17.15Z"/>
                    </g>
                    <g>
                      <path class="cls-5" d="M783.12,1159.64c-39.45-18.19,51.83-44.61,60.51-25.83,4.02,8.75-55.89,2.2-60.51,25.83Z"/>
                      <path class="cls-5" d="M774.87,1145.79c20.97,11.19,48.5,10.14,69.62-2.71,2.59-1.58,5.21-3.35,8.19-3.69s6.34,1.44,6.49,4.36c.11,2.53-2.07,4.61-4.15,6.19-14.7,11.08-33.34,15.54-51.4,16.72-7.69.5-15.8.37-22.29-3.45-6.49-3.82-10.52-12.46-6.45-17.42Z"/>
                    </g>
                    <g>
                      <path class="cls-5" d="M774.41,1127.12c-32.01-22.41,56.14-46.44,58.44-26.63,1.11,9.67-51.04-.69-58.44,26.63Z"/>
                      <path class="cls-5" d="M768.29,1113.14c-2.37,6.4.97,13.61,6.35,17.46,5.38,3.85,12.35,5.01,19.13,5.37,18.48.95,37.46-3.33,54.11-12.22,1.39-.74,2.88-1.69,3.25-3.19.44-1.81-1.18-3.51-2.98-3.89s-3.69.13-5.51.62c-24.71,6.5-51.2,4.91-74.35-4.14Z"/>
                    </g>
                  </g>
                </g>
                <path class="cls-5" d="M890.83,1034.74c-16.32,12.52-39.48,17.77-50.84,32.17-6.02,7.64-9.53,11.38-20.82,12.16-21.35,1.49-40.67,14.46-60.97,20.15-7.77,2.18-4.61,9.31,2.03,7.82,19.42-4.36,37.66-17.95,58.41-18.69,16.05-.57,24.93-7.88,34.32-19.59,9.77-12.21,48.45-22.31,50.1-34.2.74-5.4-5.35-5.11-12.23.17Z"/>
              </g>
              <path class="cls-5" d="M993.7,1175.45c-10.96-2.49-22.65,5.1-29.61,14.4-6.92,9.31-10.77,20.32-16.98,30.07-14.69,23.03-43.32,37.31-70.04,34.96-13.15-1.17-23.75,7.81-26.7,18.64-2.91,10.79,2.12,22.65,11.78,27.77,10.37,5.49,25.23,3.99,32.29,13.14,2.86,3.74,4.13,8.97,8.41,11.06,4.38,2.1,9.92-.05,14.17-2.94,13.72-9.35,20.99-25.17,32.36-37.17,12.04-12.74,29.01-21,46.28-22.52,6.86-.63,13.92-.24,20.45-2.81,6.51-2.56,12.27-9.38,10.47-15.71-.84-2.96-3.16-5.17-4.96-7.64-7.01-9.41-7-22.23-8.77-33.96-1.84-11.74-7.33-24.56-19.14-27.28ZM924.51,1299.64c.09,2.46-1.4,4.89-3.39,6.9-1.38,1.39-3.04,2.67-5.01,3.44-1.97.73-4.27.98-6.14.27-2.6-.94-3.85-3.48-3.39-5.81.45-2.39,2.37-4.56,4.73-6.15,2.34-1.6,4.96-3.27,7.88-3.69,3.23-.42,5.24,2.61,5.33,5.04ZM910.56,1284.6c-4.78,4.9-11.75,7.63-18.43,8.81-4.64.83-9.43,1.05-13.59-.15-4.18-1.22-7.68-3.96-8.81-7.8-1.56-5.35,1.88-11.95,7.28-15.93,5.37-3.98,12.3-5.61,18.65-5.51,6.35.1,13.2.4,17.95,3.63,5.19,3.5,1.75,12.06-3.05,16.94ZM1003.95,1250.59c-2.05,1.78-4.86,2.52-7.54,2.5-2.69-.04-5.6-.17-7.78-1.57-2.41-1.54-1.45-5.38.3-7.55,1.72-2.18,4.48-3.39,7.26-3.95,1.9-.39,3.89-.48,5.72.04,1.85.53,3.46,1.74,4.15,3.46.99,2.37-.06,5.27-2.11,7.08ZM998.39,1220.41c-2.68,7.19-9.3,13.63-16.95,17.51-3.8,1.96-8.08,3.32-11.9,2.82-5.7-.79-8.87-5.63-9.67-10.71-1.32-8.58,2.85-18.68,10.73-25.86,7.09-6.47,17.41-6.53,23.17-2.6,5.76,3.93,7.35,11.67,4.61,18.84Z"/>
            </g>
            <path class="cls-5" d="M996.92,1114.74c3.05-4.9,9.49-7.75,13.67-4.24,4.4,3.7,3.56,11.32,2.24,17.43,4.56-.82,9.3-1.21,13.63.43,4.33,1.64,8.13,5.67,8.68,10.76.69,6.54-4.27,12.69-9.92,14.79-5.65,2.13-11.73,1.19-17.67-.09-27.25,44.13-56.8,86.49-88.73,126.64,1.58,4.91,1.9,10.61-.27,15.35-2.17,4.74-7.3,7.97-11.73,6.4-3.14-1.11-5.39-4.28-6.48-7.77-1.1-3.49-1.23-7.25-1.35-10.97-3.4,1.66-7.03,2.89-10.69,2.65-3.66-.24-7.33-2.17-9.17-5.68-3.32-6.28.74-15.15,6.79-18.24,6.05-3.09,13.08-1.81,19.51.93,29.97-41.41,59.97-82.85,89.53-124.63-.15-.09-4.66-13.03,1.98-23.76Z"/>
            <path class="cls-5" d="M1154.81,1192.04c3.55,2.7,5.28,7.86,2.28,10.82-3.16,3.12-8.96,1.92-13.57.47.31,3.57.26,7.24-1.31,10.46s-4.95,5.85-8.91,5.9c-5.09.06-9.45-4.2-10.67-8.7-1.23-4.5-.08-9.11,1.34-13.59-32-24.14-62.46-49.94-91.06-77.4-3.89.87-8.3.7-11.8-1.32s-5.6-6.19-4.08-9.49c1.08-2.33,3.68-3.84,6.45-4.43s5.67-.42,8.54-.25c-1.03-2.74-1.71-5.62-1.27-8.42s2.19-5.48,5.03-6.64c5.07-2.1,11.61,1.66,13.55,6.54,1.94,4.88.45,10.19-2.12,14.95,29.71,26.04,59.43,52.11,89.46,77.86.08-.11,10.36-2.65,18.14,3.23Z"/>
            <path class="cls-5" d="M1097.31,1075.18c2.82-4.53,8.77-7.17,12.64-3.92,4.07,3.42,3.29,10.47,2.08,16.12,4.22-.76,8.6-1.12,12.61.39,4.01,1.51,7.52,5.24,8.03,9.95.63,6.05-3.95,11.73-9.18,13.68-5.22,1.97-10.84,1.11-16.34-.08-25.2,40.81-52.53,79.98-82.06,117.11,1.47,4.54,1.76,9.81-.25,14.2-2.01,4.38-6.75,7.37-10.85,5.92-2.9-1.02-4.98-3.96-6-7.18-1.01-3.22-1.14-6.71-1.25-10.14-3.15,1.53-6.5,2.67-9.89,2.45-3.38-.22-6.78-2-8.48-5.25-3.07-5.81.69-14.01,6.28-16.87,5.59-2.86,12.09-1.67,18.04.86,27.72-38.29,55.45-76.62,82.79-115.26-.14-.08-4.31-12.05,1.83-21.97Z"/>
            <path class="cls-5" d="M1286.25,982.88c4.49-2.36,10.7-1.69,12.41,2.79,1.8,4.72-2.16,10.1-5.83,14.13,3.89,1.38,7.72,3.16,10.36,6.3,2.64,3.13,3.83,7.84,2.04,11.92-2.31,5.24-8.81,7.7-14.1,6.81-5.29-.87-9.59-4.24-13.63-7.81-40.23,21.34-81.48,40.34-123.61,56.62-.91,4.4-3.14,8.84-6.88,11.46-3.74,2.62-9.11,2.81-11.86-.32-1.95-2.21-2.31-5.59-1.65-8.7.66-3.11,2.2-6.01,3.71-8.87-3.35-.24-6.69-.91-9.42-2.69s-4.73-4.85-4.63-8.3c.16-6.19,7.15-11.1,13.17-10.78,6.02.32,10.9,4.37,14.69,9.25,41.16-18.1,82.35-36.21,123.36-54.76-.08-.13,2.05-11.87,11.84-17.05Z"/>
            <g>
              <path class="cls-5" d="M1353.36,903.17c3.87-.26,7.15-3.24,7.76-7.07.24-1.49.3-3.01.2-4.51-.33-4.82-2.49-9.71-6.49-12.41-4.01-2.7-9.96-2.65-13.34.8-2.18,2.22-2.96,3.74-2.49,8.52.92,4.33,3.96,6,5.23,9.33,1.11,2.9,3.79,5.06,6.88,5.31.74.06,1.5.07,2.25.02Z"/>
              <path class="cls-5" d="M1348.8,921.27c5.64.03,10.29-4.59,10.74-10.22.09-1.18.1-2.37.02-3.55-.39-5.72-2.95-11.51-7.7-14.71-4.75-3.2-11.8-3.14-15.81.95-.93.95-1.62,2.06-2.1,3.26-1.26,3.14-.79,6.78,1.05,9.61,1.62,2.5,3.03,5.08,4.12,7.82,1.57,3.92,5.28,6.77,9.5,6.84.06,0,.12,0,.19,0Z"/>
              <path class="cls-5" d="M1347.01,1001.51c-7.14,12.42-25.22,13.07-33.23,1.19-4.59-6.82-6.87-14.69-4.42-21.88,2.12-6.23,6.49-11.67,12.13-15.08.06-.03.11-.07.17-.1,10.58-6.29,24.54-.52,28.22,11.23,1.33,4.26,1.79,8.79,1.2,13.36-.48,3.72-1.95,7.59-4.07,11.27Z"/>
              <path class="cls-5" d="M1312.91,978.06c1.65-11.98,6.35-23.49,13.31-33.36,3.48-4.94,7.53-9.48,12.06-13.48,2.62-2.31,6.84-4.46,6.84-4.46,0,0,4.48.23,7.63,2.66,2.59,2,3.92,8.48,3.92,8.48,0,0-7.81,26.5-7.14,39.92-10.75,7.45-25.48,7.09-36.62.23Z"/>
              <path class="cls-5" d="M1344.79,944.29c6.55.04,11.95-5.33,12.47-11.86.11-1.37.12-2.76.02-4.13-.45-6.64-3.42-13.37-8.94-17.09-5.52-3.72-13.71-3.65-18.37,1.1-1.34,1.37-2.25,3.01-2.8,4.78-1.07,3.42-.37,7.17,1.58,10.18,1.83,2.83,3.42,5.73,4.68,8.82,1.88,4.64,6.14,8.12,11.15,8.2.07,0,.14,0,.22,0Z"/>
            </g>
            <g>
              <path class="cls-5" d="M1236.25,1134.37c3.26,2.11,7.67,1.67,10.45-1.03,1.08-1.05,2.04-2.23,2.86-3.5,2.62-4.06,3.81-9.27,2.21-13.83-1.6-4.56-6.4-8.08-11.17-7.33-3.08.48-4.61,1.23-7.09,5.35-1.84,4.02-.42,7.18-1.38,10.61-.84,2.99.01,6.32,2.34,8.37.56.49,1.16.95,1.79,1.36Z"/>
              <path class="cls-5" d="M1221.78,1146.15c4.5,3.4,10.99,2.47,14.72-1.77.78-.89,1.5-1.84,2.14-2.83,3.11-4.81,4.52-10.99,2.62-16.4s-7.58-9.57-13.25-8.69c-1.32.21-2.53.68-3.63,1.35-2.89,1.76-4.69,4.96-4.91,8.33-.2,2.97-.61,5.88-1.37,8.73-1.09,4.08.19,8.58,3.53,11.16.05.04.1.08.15.11Z"/>
              <path class="cls-5" d="M1172.37,1209.41c-13.15,5.69-28.03-4.6-27.35-18.91.39-8.21,3.28-15.88,9.53-20.18,5.43-3.73,12.18-5.48,18.73-4.84.07,0,.13.01.2.02,12.24,1.28,19.99,14.26,15.91,25.87-1.48,4.21-3.82,8.12-7.02,11.43-2.61,2.7-6.1,4.92-10,6.61Z"/>
              <path class="cls-5" d="M1159.05,1170.24c8.49-8.62,19.13-15.03,30.61-18.79,5.74-1.88,11.71-3.1,17.73-3.6,3.48-.29,8.15.51,8.15.51,0,0,3.46,2.86,4.53,6.7.88,3.15-1.92,9.15-1.92,9.15,0,0-22.1,16.58-29.59,27.74-13.07-.45-24.67-9.55-29.5-21.7Z"/>
              <path class="cls-5" d="M1204.79,1162.21c5.23,3.95,12.76,2.87,17.09-2.06.91-1.04,1.74-2.14,2.49-3.3,3.61-5.59,5.25-12.76,3.04-19.05-2.2-6.28-8.81-11.12-15.39-10.1-1.89.3-3.6,1.07-5.1,2.16-2.9,2.1-4.58,5.53-4.82,9.1-.22,3.36-.68,6.64-1.52,9.87-1.26,4.84.07,10.18,4.04,13.24.06.04.11.09.17.13Z"/>
            </g>
          </g>
          <path class="cls-4" d="M758.63,297.39c.04-7.13.08-14.27.12-21.4,0-4.98,0-9.96,0-15.3h161.27c.08,5.12.15,10.21.23,15.3.04,7.13.08,14.27.12,21.4,0,5.11,0,10.23,0,15.87-6.29,0-11.91.16-17.51-.06-3.02-.12-4.84.9-6.43,3.48-5.42,8.78-11.03,17.44-16.7,26.06-1.36,2.07-1.88,4.14-1.83,6.55.09,5.16.02,10.32.03,15.48.02,17.77-7.83,30.53-24.14,37.92-.45.21-.88.46-1.72.9.26,1.78.5,3.71.82,5.63,5.24,30.98,10.49,61.97,15.75,92.95,1.22,7.21,2.5,14.42,3.75,21.63-3.66.49-7.31.98-10.97,1.47-6.76-39.92-13.53-79.84-20.28-119.67h-4.78c-6.8,39.98-13.56,79.78-20.32,119.57-3.33-.59-6.67-1.18-10-1.77,3.47-20.66,6.92-41.32,10.41-61.97,3.11-18.36,6.27-36.71,9.38-55.06.16-.96.12-1.96.19-3.1-1.4-.72-2.73-1.36-4.02-2.07-13.35-7.4-20.37-18.71-20.82-33.98-.18-6.15.09-12.32-.11-18.47-.06-1.88-.63-3.97-1.62-5.55-5.63-9.03-11.54-17.9-17.17-26.93-1.42-2.29-3.02-3.12-5.66-3.04-5.65.18-11.3.06-17.57.06-.15-5.41-.29-10.64-.43-15.87ZM812.98,354.55c0,5.84-.56,11.22.12,16.43,1.31,10,7.1,16.88,16.44,20.99,6.73-5.25,13.39-4.05,19.66.13,8.01-3.42,13.25-8.93,15.81-16.79,2.2-6.76,1.07-13.69,1.19-20.76h-53.21Z"/>
          <path class="cls-9" d="M745.66,620.68c-.28.47-.58.76-.53.94.06.21.44.34.68.5-.04-.41-.09-.83-.15-1.45Z"/>
          <path class="cls-3" d="M890.54,561.11c-3.29,2.45-6.58,4.9-10.04,7.48-5.28-2.06-10.66-4.18-16.07-6.25-2.92-1.12-5.88-2.13-8.83-3.18-1.68-10.41-3.37-20.81-5.06-31.3,3.93-.93,7.41-1.76,10.9-2.59,3.66-.49,7.31-.98,10.97-1.47,3.74-.6,7.48-1.19,11.72-1.87,2.19,13.33,4.31,26.25,6.43,39.18Z"/>
          <path class="cls-3" d="M822.93,559.09c-10.3,1.51-19.76,5.56-29.26,9.89-2.13-2-4.18-3.93-6.22-5.86,2.28-13.45,4.57-26.89,6.96-40.94,3.9.4,7.77.8,11.64,1.2,3.33.59,6.67,1.18,10,1.77,3.85.85,7.71,1.69,11.94,2.63-.5,3.16-.97,6.23-1.47,9.3-1.19,7.34-2.39,14.68-3.59,22.01Z"/>
          <path class="cls-6" d="M746.97,589.12c-.43,1.02-.85,2.04-1.28,3.06.43-1.02.85-2.04,1.28-3.06Z"/>
          <path class="cls-6" d="M745.66,620.68c.07.62.11,1.03.15,1.45-.24-.16-.62-.29-.68-.5-.05-.19.25-.48.53-.94Z"/>
          <path class="cls-6" d="M928,619.18c.28.67.57,1.34.85,2-.22.06-.45.13-.67.19-.06-.74-.11-1.47-.17-2.21h0Z"/>
        </g>
      </g>
    </g>
  </g>
</svg>