<?xml version="1.0" encoding="UTF-8"?>
<svg id="Layer_2" data-name="Layer 2" xmlns="http://www.w3.org/2000/svg" xmlns:xlink="http://www.w3.org/1999/xlink" viewBox="0 0 776.58 1348.2">
  <defs>
    <style>
      .cls-1 {
        clip-path: url(#clippath);
      }

      .cls-2 {
        fill: none;
      }

      .cls-2, .cls-3, .cls-4, .cls-5, .cls-6, .cls-7, .cls-8, .cls-9, .cls-10, .cls-11, .cls-12, .cls-13, .cls-14, .cls-15, .cls-16, .cls-17, .cls-18, .cls-19, .cls-20, .cls-21, .cls-22, .cls-23 {
        stroke-width: 0px;
      }

      .cls-3 {
        fill: #552c11;
      }

      .cls-4 {
        fill: #448bf3;
      }

      .cls-5 {
        fill: #351b07;
      }

      .cls-6 {
        fill: #626262;
      }

      .cls-7 {
        fill: #337cd3;
      }

      .cls-8 {
        fill: #57a0f7;
      }

      .cls-9 {
        fill: #44260e;
      }

      .cls-10 {
        fill: #e2a481;
      }

      .cls-11 {
        fill: #e2a684;
      }

      .cls-12 {
        fill: #c7e1ef;
      }

      .cls-13 {
        fill: #bd2436;
      }

      .cls-14 {
        fill: #8d5322;
      }

      .cls-15 {
        fill: #9d4e40;
      }

      .cls-16 {
        fill: #fde1bf;
      }

      .cls-17 {
        fill: #73441b;
      }

      .cls-18 {
        fill: #fff;
      }

      .cls-19 {
        fill: #fdc7a5;
      }

      .cls-20 {
        fill: #fdc7a6;
      }

      .cls-21 {
        fill: #fd3447;
      }

      .cls-22 {
        fill: #0257a6;
      }

      .cls-23 {
        fill: #00c2d9;
      }
    </style>
    <clipPath id="clippath">
      <path class="cls-2" d="M677.28,813.69c-40.71-13.86-104.45-17.43-144.86,61.39,0,0-5.03,5.65-13.95,13.56,3.49,1.21,9.04,2.72,14.51,2.28,0,0-1.88,6.6-15.42,6.88,0,0,10.64,4.6,10.89,8.15.21,3.6-20.42,3.91-20.42,3.91,0,0,10.98,7.74,9.06,12.32-2,4.62-13.75,3.7-20.36-.64,0,0,4.54,9.46,6.25,15.82,1.12,4.27-1.77,4.24-4.92,3.19-1.53.03-3.04-.38-4.41-1.03-3.41-1.43-6.58-4.34-9.18-7.16,1.92,8.37,2.13,18.13-4.64,22.38-.75.47-1.86.52-2.53-.19-1.69-1.83-3.07-3.93-4.38-6-.07,6.17.74,13.05,2.79,21.09,8.91,35.61,15.52,67.3,67.31,37.75,51.81-29.62,113.65-96.2,131.04-120.78,17.28-24.65,43.84-59.01,3.24-72.9Z"/>
    </clipPath>
  </defs>
  <g id="Layer_3" data-name="Layer 3">
    <g>
      <g>
        <path class="cls-14" d="M560.96,1243.29c12.07-82.26-117.17-127.54-175.54-78.87-31.33,26.07-29.2,74.41,17.27,86.21,13.97,3.62,33.02.92,43.58-9.6,14.19-14.18,4.17-28.75-8.61-35.79-11.28-6.05-23.37,8.59-11.96,14.13,8.28,3.93,13.14,16.18-11.98,14.8-13.19-.71-23.46-12.77-22.18-28.33,3.07-32.25,42.71-43.15,69.22-40.34,25.84,2.78,51.49,16.33,66.83,37.69,17.56,24.61,10.23,52.38-7.64,74.34-43.37,53.29-121.46,48.81-182.36,38.82-45.61-7.57-107.65-24.66-120.8-74.67-11.95-44.9,38.36-80.75,73.5-96.51,26.61-11.99,76.87-34.77,80.35-67.08,1.09-1.69,1.65-3.72,1.71-5.77-.16-5.48-2.07-10.72-4.51-15.5-.98-1.97-2.96-4.88-5.25-6.17-.2-.28-.35-.58-.54-.86-4.55-6.45-43.44,19.79-42.55,28.28,2.15,22.37-34.15,40.6-51.02,49.13-30.49,15.35-59.86,33.75-75.23,65.25-25.67,52.34,3.43,98.59,48.59,122.78,50.08,26.97,127.04,36.16,183.18,32.03,57.62-4.3,126.63-41.17,135.95-103.97Z"/>
        <path class="cls-17" d="M402.69,1250.63c13.97,3.62,33.02.92,43.58-9.6,12.41-12.43,6.31-25.11-4-32.76-.31.97,2.04,2.51,3.19,4.57,6.69,7.26,5.25,15.01-4.54,22.78-14.1,11.23-40.02,9.2-54.28-.93-29.19-20.81-22.73-61.66,13.36-79.04,3.43-1.67,6.73-3.72,10.21-5.19-9.05,3.27-17.52,7.8-24.8,13.95-31.33,26.07-29.2,74.41,17.27,86.21Z"/>
        <path class="cls-17" d="M560.96,1243.29c6.13-41.62-24-73.76-62.79-89.08,12.28,5.22,23.47,12.17,32.85,20.3,19.65,17,34.06,44.24,27.95,70.81-7.49,31.65-34.14,54.76-62.15,68.94-67.73,34.28-147.2,28.08-216.83,4.74-27.31-9.14-55.51-27.35-70.28-53.66-13.44-24.07-16.94-58.54,3.81-80.64,16.32-17.38,33.23-21.94,8.07,7.25-25.08,29.09-6.67,72.79,19.61,91.48,26.74,19.08,60.81,28.34,92.63,35.07,38.08,7.98,79.07,11.84,117.15,1.8,32.63-8.57,71.46-26.28,89.07-56.87,34.04-58.65-33.85-104.75-85.8-108.64-23.08-1.61-50.98,3.67-63.75,25.43-8.33,14.34-10.55,33.83,4.75,44.77,1,.68,2.14,1.38,3.27,2.06-4.86-5.13-7.63-12.66-6.98-21.21,3.07-32.25,42.71-43.15,69.22-40.34,25.84,2.78,51.49,16.33,66.83,37.69,17.56,24.61,10.23,52.38-7.64,74.34-43.37,53.29-121.46,48.81-182.36,38.82-45.61-7.57-107.65-24.66-120.8-74.67-11.95-44.9,38.36-80.75,73.5-96.51,26.61-11.99,76.87-34.77,80.35-67.08,1.09-1.69,1.65-3.72,1.71-5.77-.16-5.48-2.07-10.72-4.51-15.5-.98-1.97-2.96-4.88-5.25-6.17-.2-.28-.35-.58-.54-.86-4.55-6.45-43.44,19.79-42.55,28.28,2.15,22.37-34.15,40.6-51.02,49.13-30.49,15.35-59.86,33.75-75.23,65.25-25.67,52.34,3.43,98.59,48.59,122.78,50.08,26.97,127.04,36.16,183.18,32.03,57.62-4.3,126.63-41.17,135.95-103.97Z"/>
        <path class="cls-17" d="M424.89,1212.53c-1.54-.71-2.41-1.89-2.68-3.19-2,3.38-1.56,7.59,3.5,10.02,3.72,1.8,6.81,5.26,6.72,8.36,4.84-4.97-.15-11.66-7.54-15.19Z"/>
      </g>
      <g>
        <g>
          <path class="cls-16" d="M704.5,792.22c-5.27-1.07-9.75-4.06-13.74-9.18-3.79-4.96-7.5-7.53-11.82-8.4-1.9-.39-3.81-.44-6.16-.26-3.04.38-6.19,1.02-9.18,1.63-3.16.57-6.36,1.23-9.62,1.63-.36.02-.74.05-1.12,0-.49-.12-1.13-.46-1.49-.89-1.04.03-1.87-.1-2.75-.27-8.11-1.67-11.58-11.35-11.3-19.59.18-8.79,5.56-25.79,16.78-25.91.26-.04.48-.03.72.03.41.1.7.23,1.06.43,5.43-1.83,10.45-5.16,14.76-8.17,1.48-.95,2.87-1.98,4.44-2.89,4.7-3.12,9.54-6.29,13-10.06,10.25-11.43,11.01-28.97,11.72-44.43l.16-4.57c.45-10.76,1.07-22.86,5.08-32.54-6.69-8.42-10.75-18.64-10.78-27.49.05-8.52,5.85-19.79,14.63-22.87,2.63-1.02,5.19-1.21,7.81-.68,4.42.91,8.35,3.97,10.71,8.49,2.92-1.14,5.33-1.47,7.49-1.06,1.17.25,2.36.75,3.25,1.46,1.84,1.3,3.37,3.11,4.35,5.25,2.16-1.05,4.43-1.29,6.47-.86,3.22.65,5.68,3.04,6.76,6.87,1.33-.45,2.54-.58,3.81-.34,3.32.68,5.76,3.91,6.31,8.26.92-.13,1.84-.12,2.6.03,4.55.93,7.27,6,6.51,11.94-.69,5.63-3.8,12.92-9.18,17.18,7.18,17.85-.51,37.05-7.2,54.08-1.62,4.1-3.18,8.08-4.55,12.01-3.67,10.11-4.81,21-6.07,31.48-1.09,8.34-1.98,16.98-4.12,25.32-5.47,20.87-15.24,32.45-29.07,34.42-3.84.56-7.17.52-10.29-.08h0Z"/>
          <path class="cls-10" d="M716.4,579.18c4.55.94,8.27,4.38,10.44,8.88,2.4-1.07,5.21-1.94,7.8-1.41.97.2,1.73.57,2.61,1.1,2.2,1.59,3.7,3.76,4.59,6.09,2.35-1.34,4.78-1.87,6.89-1.45,2.71.54,4.99,2.79,6,6.98.03.21.07.46,0,.67,1.7-1.02,3.11-1.31,4.56-1.02,3.05.61,5.19,4.2,5.26,8.58,1.27-.5,2.54-.57,3.64-.35,3.91.79,5.99,5.42,5.32,10.3-.74,6.13-4.12,13.22-9.52,16.91,9.5,21.76-4.18,45.43-11.42,66.03-6.36,18.48-5.36,38.12-10.16,56.97-3.76,14.52-11.15,31.07-27.78,33.44-3.68.45-6.84.42-9.82-.19-4.98-1.02-9.04-3.74-12.89-8.59-3.69-4.72-7.52-7.88-12.68-8.91-1.95-.38-4.19-.54-6.58-.28-6.32.7-12.54,2.57-18.86,3.21-.19.09-.36.05-.63,0-.5-.1-.92-.47-1.3-.91-.99.12-2.01.09-2.96-.13-7.13-1.42-10.45-10.52-10.18-18.24.31-8.06,5.12-24.31,15.45-24.44.11.04.19-.03.38,0,.41.09.75.34,1.04.6,5.73-1.7,11.03-5.17,16.01-8.59,5.68-3.95,12.86-8.02,17.52-13.16,11.42-12.58,11.43-32.63,12.27-48.45.51-11.25.87-24.31,5.31-34.27-6.32-7.67-10.87-17.86-10.94-27.29-.04-8.16,5.59-18.62,13.57-21.49,2.55-.88,4.9-1.03,7.05-.6h0ZM717,576.26c-2.79-.56-5.7-.31-8.64.76-9.56,3.47-15.59,15.3-15.52,24.27,0,8.98,3.88,19.18,10.54,27.71-3.83,9.73-4.35,21.66-4.86,32.19l-.13,1.47-.12,3.2c-.69,15.22-1.36,32.51-11.28,43.42-3.29,3.69-8.06,6.86-12.67,9.89-1.52.97-3.08,1.93-4.48,2.88-4,2.85-8.79,6.02-13.87,7.81-.27-.13-.6-.19-.83-.26-.36-.09-.64-.13-1.07-.04-12.34.11-17.95,17.76-18.27,27.26-.18,8.86,3.58,19.35,12.52,21.17.84.18,1.6.24,2.47.26.49.34,1.17.65,1.81.77.52.09,1.06.12,1.6.05,3.26-.28,6.54-.96,9.64-1.61,3.18-.63,6.16-1.22,9.11-1.58,2.11-.25,3.94-.22,5.74.16,3.99.82,7.32,3.27,10.91,7.93,4.16,5.34,8.94,8.54,14.62,9.69,3.24.67,6.77.67,10.78.18,14.56-2.09,24.77-14.05,30.3-35.55,2.13-8.51,3.15-17.16,4.16-25.53,1.27-10.9,2.48-21.2,5.98-31.26,1.39-3.82,2.89-7.79,4.55-11.95,6.7-16.91,14.27-36.04,7.56-54.14,5.51-4.77,8.29-12.16,8.91-17.38.93-6.73-2.33-12.51-7.67-13.58-.53-.13-1.09-.21-1.67-.19-.99-4.24-3.73-7.45-7.21-8.15-1.08-.22-2.12-.18-3.17-.02-1.88-4.74-5.38-6.16-7.41-6.57-1.95-.38-4.02-.15-6.12.49-1.07-1.82-2.39-3.37-4.11-4.54-1.19-.83-2.55-1.41-3.85-1.68-2.09-.43-4.44-.27-7.03.61-2.77-4.26-6.67-7.19-11.19-8.13h0Z"/>
        </g>
        <path class="cls-20" d="M766.83,656.5c-1.81,2.78-4.45,4.71-8.14,4.06-9.8-1.76-15.04-11.31-22.38-16.84-7.07-5.35-17.01-4.33-16.08,6.13.56,6.54,3.57,12.84,5.51,19.01,2.19,7.04,3.68,14.27,4.38,21.45,1.2,13.7-.27,27.92-4.85,40.91-2.98,8.06-6.69,20.6-14.53,25.49-4.91,2.96-10.17,1.48-11.26-4.61-1.64-9.61,1.85-19.55,4.1-28.82,4.02-16.04,8.2-34.48,5.92-51.12-1.8-13.31-6.91-30.35-.86-43.2,3.51-7.36,15.86-7.91,25.18-7.65,11.13-.95,23.57,4.12,30.31,12.98,3.19-2.15,5.48-5.48,7.2-9.03-.68.55-1.46,1.06-2.27,1.47-1.16.6-2.42-.55-2.55-1.67-.9-5.69,1.02-11.92,3.34-17.1-1.14-.65-2.55-.99-4.14-.7-.14,1.05-.36,2.13-.6,3.02-.03.11-.03.15-.04.21-.32.86-.51,1.68-1.01,2.47-.43,1.14-2,1.37-2.9.56-3.65-3.18-3.87-8.36-2.35-12.63.05-.66.19-1.27.29-1.86-1.26-.24-2.78-.02-4.37,1.02.07-.2.03-.46,0-.67-.28-.75-.46-1.44-.72-2.06.08,1.56-.11,3.19-.43,4.78-.18,2.53-.79,7.56-3.9,7.51-3.8-.1-4.85-5.55-4.74-8.55.05-2.46.56-6.36,2.27-8.77-1.16.02-2.38.27-3.53.77.05,5.21-1.75,11.27-3.4,13.92-.78,1.23-2.44,1.36-3.45.18-2.11-2.98-3-7.28-3.63-10.88-.36-3.12-.88-6.6-.23-9.76-2.13-.01-4.23.68-6.1,1.55-1.43-2.95-3.54-5.44-6.1-7.09,3.21,8.18,2.19,21.63.37,27.38-3.19,10.14-14.49,10.68-19.75,2.09-3.45-5.65-4.19-13.22-2.73-20.04-1.74,3.55-2.86,7.42-2.86,10.89.07,9.43,4.62,19.62,10.94,27.29-4.44,9.96-4.8,23.01-5.31,34.27-.84,15.81-.85,35.87-12.27,48.45-4.66,5.14-11.84,9.21-17.52,13.16-4.98,3.43-10.29,6.89-16.01,8.59-.4-.39-.87-.63-1.42-.61-10.33.14-15.14,16.38-15.45,24.44-.24,8.72,3.96,19.13,13.14,18.37.47.58,1.07.98,1.94.9,6.32-.64,12.54-2.51,18.86-3.21,8.69-.95,14.17,2.63,19.26,9.19,6,7.73,13.02,10.1,22.71,8.78,16.63-2.37,24.02-18.92,27.78-33.44,4.8-18.85,3.8-38.48,10.16-56.97,4.89-13.8,12.54-28.97,14.27-44.01Z"/>
        <path class="cls-10" d="M727.33,668.98c-.29-.51-1.26-.06-.88.54,8.26,18.32,9.03,40.66,2.33,59.55-.29.6.53,1.06.88.45,10.66-16.8,7.73-44.06-2.34-60.54Z"/>
        <path class="cls-10" d="M726.51,585.55c-.53-.52-1.43.11-1.2.92,1.42,5.43,3.11,9.97,3.24,15.73.09,6.18-1.17,12.28-3.17,18.05-.19.31.34.4.41.19,4.73-7.85,8.88-27.7.72-34.88Z"/>
        <path class="cls-10" d="M740.71,590.79c-.5-.37-1.17.13-1,.74,1.99,7.65,3.69,16.64-1.54,23.74-.16.17.15.53.35.27,4.52-5.59,8.69-19.06,2.19-24.75Z"/>
        <path class="cls-10" d="M754.39,597.34c-.61-.73-1.82-.2-1.44.73,2.6,6.85,0,15.66-4.47,21.4-.03.05.12.07.12.07,5.55-4.07,10.19-15.98,5.79-22.2Z"/>
        <path class="cls-10" d="M765.15,605.16c-.41-.85-1.59-.64-1.59.37-.06,6.22-.52,12.39-4.98,17.3-.29.32.17.64.47.38,4.26-3.73,8.9-12.24,6.09-18.06Z"/>
        <path class="cls-10" d="M735.02,618.35c-.47-.11-.61.61-.12.77,13.06,2.83,24.36,9.03,30.26,21.37.32.74,1.5.62,1.4-.33-.58-13.92-20.73-19.55-31.54-21.8Z"/>
        <path class="cls-10" d="M714.72,621.79c-5.21,1.06-8.77,5.3-10.36,10.18-.27,1.01,1.06,1.26,1.56.56,1.15-1.9,2.04-4,3.37-5.78,1.34-1.91,3.49-3.31,5.56-4.39.22-.1.23-.55-.14-.56Z"/>
      </g>
      <g>
        <path class="cls-2" d="M116.21,800.79s-.13-.07-.35-.22c0,.15.02.3.03.45.11-.07.21-.16.32-.23Z"/>
        <path class="cls-14" d="M680.65,776.4c-2.92-5.1-16.74-13.37-16.74-13.37,0,0,18.65-3.22,14.77-11.52-3.84-8.27-21.1-6.8-21.1-6.8,6.56-2.62,14.87-18.94,12.17-20.46-2.7-1.56-12.36,4.41-12.36,4.41,12.63-10.87,5.9-22.27,3.77-18.7-2.2,3.62-4.21,8.15-23.65,15.72-19.59,7.49-43.07,2.27-97.76,35.61-54.76,33.38-81.05,74.53-81.05,74.53-20.67-14.69-50.55-34.75-66.76-23.52-16.28,11.18-35.63,56.71-35.63,56.71l-.89-14.55c39.91,10.05-70.07-77.54-106.63-93.24-16.15-6.89-37.31,3.79-61.23,8.58-30.24,6.01-62.13,7.64-62.13,7.64-5.26,3.44-8.63,6.5-10.69,9.19.41,3.43.73,7.24.96,11.48.04.83.1,1.64.15,2.46.22.15.35.22.35.22-.11.07-.22.16-.32.23,8.31,138.16,75.42,230.44,75.42,230.44l-.17.97c33.63,52.34,78.52,62.95,106.91,62.3,135.44-3.3,177.65-104.43,177.65-104.43,13.89-24.2,18.06-51.88,18.06-51.88,3.52,2.19,10.92,5.25,9.21-1.09-1.71-6.36-6.25-15.82-6.25-15.82,6.61,4.35,18.36,5.26,20.36.64,1.92-4.57-9.06-12.32-9.06-12.32,0,0,20.63-.31,20.42-3.91-.25-3.55-10.89-8.15-10.89-8.15,13.55-.28,15.42-6.88,15.42-6.88-8.69.74-17.88-3.61-17.88-3.61,26.21-74.69,88.98-90.47,118.03-96.05,29.13-5.59,37.49.14,37.49.14,6.09-7.82-8.1-14.16-5.53-14.62,2.61-.46,18.57,4.76,15.56-.38Z"/>
      </g>
      <g>
        <path class="cls-2" d="M186.58,993.99c13.19-9.38,24.73-20.94,34.08-34.09,4.67-6.51,14.44-19.86,8.43-28.17-.65-.84-1.83-1.12-2.69-.54-5.95,3.73-10.74,8.45-15.34,13.52,1.91-6.28,3.2-12.77,2.88-19.68,0-1.29-1.84-2.33-3.05-1.44-9.42,7.79-14.65,20.63-22.99,29.68-8.09,8.83-17.26,16.88-26.99,24.02,4.45,9.53,8.76,17.92,12.66,25.08,4.44-2.65,8.81-5.4,13.01-8.38Z"/>
        <path class="cls-2" d="M115.86,800.57c0,.15.02.3.03.45.11-.07.21-.16.32-.23,0,0-.13-.07-.35-.22Z"/>
        <path class="cls-2" d="M451.36,913.58c-6.7-6.79-12.49-14.38-20.47-19.8-1.38-.98-2.6.32-2.73,1.64-.16.32-.28.71-.33,1.14.42,12.48-.09,24.91-.77,37.34-.53,11.01-3.04,23.25-1.09,34.18,1.99,11.7,13.75.5,17.32-3.5,8.08-9.3,19.99-23.63,18.58-36.68-.68-5.57-6.87-10.53-10.51-14.33Z"/>
        <path class="cls-17" d="M532.65,891.44c-8.49,2.42-16.61,1.91-25.62-1.95,3.27,4.14,7.07,7.87,9.53,12.7.72,1.43-.24,3.31-2.02,2.97-6.71-1.44-12.36-4.81-18.25-8.15,3.09,4.66,6.26,9.2,7.29,14.91.2,1.36-1.2,2.17-2.3,2.08-19.58-2-36.09-17.2-50.7-29.07-15.93-12.94-27.58-33.05-46.99-41.34-4.67,22.61-4.67,46.4-8.18,69.27-1.84,12.11-4.11,24.21-6.95,36.16-4.43,18.48-9.35,44.17-23.96,57.69-4.59,4.32-10.74,7.21-17.04,4.28-10.88-5.17-13.59-17.93-13.72-28.99-.21-19.16,1.77-38.19,6.21-56.79,4.5-19.03,11.72-37.35,16.05-56.39l-.24-.18c-13.17,17.43-21.81,37.25-31.18,56.9-3.5,7.24-11.37,26.62-21.88,27.26-.42.15-.69.14-1.13.01-.86-.03-1.75-.16-2.65-.52-.57-.13-.77-.52-.94-.85-29.95-13.26-42.27-50.39-54.59-78.01-4.06-9.08-8.24-18.25-11.58-27.71-1.84-5.46-2.91-12.81-6.79-17.34-13.95-16.08-35.72,27.36-37.4,36.85-1.93,11.31-.13,21.51,1.38,32.77.72,5.87.05,10.65-3.5,15.58-3.72,5.15-12.08,20.62-20.21,12.52-19.14-18.96-20.45-45.6-19.3-71.11-4.87,4.38-8.48,9.97-13.06,14.65-.99,1.12-3.41.74-3.41-1.13.34-5.19,1.25-10.26,2.39-15.26-2.7,4.74-5.07,9.75-7.13,14.93,9.12,44.39,23.23,81.51,36.12,109.09,3.73,11,7.18,15.2,12.66,25.08,10.26,18.81,17.73,29.09,17.73,29.09l-.17.97c33.63,52.34,78.52,62.95,106.91,62.3,135.44-3.3,177.65-104.43,177.65-104.43,13.89-24.2,18.06-51.88,18.06-51.88,3.52,2.19,10.92,5.25,9.21-1.09-1.71-6.36-6.25-15.82-6.25-15.82,6.61,4.35,18.36,5.26,20.36.64,1.92-4.57-9.06-12.32-9.06-12.32,0,0,20.63-.31,20.42-3.91-.25-3.55-10.89-8.15-10.89-8.15,11.13-.23,14.38-4.73,15.09-6.36ZM443.3,964.59c-3.57,4-15.34,15.2-17.32,3.5-1.95-10.93.56-23.17,1.09-34.18.68-12.43,1.19-24.85.77-37.34.04-.44.17-.82.33-1.14.13-1.32,1.35-2.62,2.73-1.64,7.98,5.41,13.78,13.01,20.47,19.8,3.63,3.8,9.83,8.76,10.51,14.33,1.41,13.05-10.5,27.37-18.58,36.68Z"/>
        <path class="cls-17" d="M115.86,800.57c.22.15.35.22.35.22-.11.07-.22.16-.32.23.17,2.87.37,5.71.59,8.54,7.04-3.4,15.41-4.46,20.2,2.28,21.13,2.63,45.16-6.97,62.76-16.65,14.09-7.86,27.87-22.73,37.95-36.2-14.24-.23-31.14,7.08-49.8,10.8-30.24,6.01-62.13,7.64-62.13,7.64-5.26,3.44-8.63,6.5-10.69,9.19.41,3.43.73,7.24.96,11.48.04.83.1,1.64.15,2.46Z"/>
      </g>
      <path class="cls-17" d="M680.65,776.4c-2.92-5.1-16.74-13.37-16.74-13.37,0,0,18.65-3.22,14.77-11.52-3.84-8.27-21.1-6.8-21.1-6.8,4.29-1.66,9.2-9.12,11.5-14.57-4.31,6.69-12.26,11.83-20.07,15.1,6.9.7,13.64,2.51,18.04,7.17,1,1.06.77,2.79-.66,3.36-5.73,2.14-11.55,2.51-17.42,2.31,2.63,1.62,4.83,3.75,5.71,7.07.35,1.25-.41,2.41-1.76,2.55-12.06,1.17-24.36-.9-36.35,1.28-12.75,2.35-25.23,6.01-37.09,11.25-11.87,5.22-23.63,11.24-33.79,19.42-10.03,8.03-18.9,17.18-28.29,25.9-9.32,8.78-28.44,29.1-43.12,19.2-8.29-5.52-10.03-11.85-8.69-18.46-4.68,5.94-6.88,9.53-6.88,9.53-3.85-2.77-8.01-5.58-12.43-8.51,4.49,4.73,8.51,9.71,13.89,13.67,7.65,5.46,14.19,12.25,21.04,18.73,9.24,8.73,19.1,23.11,31.33,27.63,2.15.62,4.24,1.19,6.31,1.38-2.3-.77-3.76-1.41-3.76-1.41,26.21-74.69,88.98-90.47,118.02-96.05,29.13-5.59,37.49.14,37.49.14,6.09-7.82-8.1-14.16-5.52-14.62,2.61-.46,18.57,4.76,15.56-.38Z"/>
      <g>
        <path class="cls-16" d="M309.74,1013.84c-14.98-3.05-38.01-16.27-62.39-61.94l-.47-1.06.82-.73c.45-.45-5.98-9.43-5.98-9.43l-1.74-3.88c-.92-1.99-1.74-3.87-2.56-5.87l-.21-.54.15-.6c.39-.88-1.28-1.29-1.12-2.05.13-.64-.48-1.86-1.73-2.1l.19-1.91c-.29-.05,1.67.86,1.4.94l-1.22.25-.5-1.16c-16.34-40.45-18.71-70.56-6.86-89.33,8.1-12.99,22.75-20.29,43.39-21.62,9.67-.68,19.54-.03,29.19,1.94,25.14,5.09,47.63,18.44,63.16,37.55l.58.76-.49.89c-25.98,48.46-40.09,113.37-47.28,159.37l-.23,1.3-1.22-.07c-1.68-.13-3.39-.38-4.89-.7h0Z"/>
        <path class="cls-17" d="M299.81,816.24c23.89,4.85,46.43,17.48,62.27,36.94-29.23,54.56-42.61,128.74-47.45,159.87-1.48-.03-2.94-.3-4.6-.64-14.73-2.98-37.47-16.38-61.46-61.23q-2.53-5.1-6.06-12.41c-.4-.86-.81-1.67-1.21-2.57-1-2.07-1.71-3.9-2.51-5.86-3.88-8.52-.62-2.41-2.95-7.12-31.25-77.17-7.13-106.21,35.25-109.01,9.6-.55,19.23.12,28.74,2.05h0ZM300.39,813.36c-9.85-2.03-19.76-2.76-29.55-2.04-21.21,1.39-36.14,8.87-44.58,22.29-12.06,19.28-9.78,49.79,6.8,90.75l.93,2.2,1.58,3.88.52,1.08c.8,1.92,1.64,3.85,2.51,5.85.2.54.53,1.1.72,1.59l.41.99,1.22,2.55,4.06,8.05.98,2.01c24.68,46.19,48.11,59.61,63.46,62.73,1.66.34,3.33.59,4.99.67l2.64.22.48-2.71c7.18-45.83,21.13-110.57,47.15-158.87l.87-1.69-1.24-1.57c-15.7-19.34-38.35-32.81-63.95-37.98h0Z"/>
      </g>
      <path class="cls-17" d="M361.52,852.49c-8.43,10.22-15.72,21.51-21.76,33.57-5.48,10.83-10.62,22.16-14.75,33.67-2.32,6.5-3.66,13.77-7.28,19.81-6.17,10.26-16.47,10.56-22.77,0-7.1-11.59-12.03-27.86-10.43-41.62.09-1.28,1.76-1.78,2.76-1.32,8.13,3.72,18.95,4.35,24.99-3.71,6.08-8.27,5.37-19.25,2.8-28.61-3.94-15.07-11.58-28.57-17.84-42.71-.37-.89.26-2.25,1.31-2.46,1.95-.58,3.88-1.17,5.85-1.8-11.01-2.77-22.27-3.78-33.34-3.1-42.38,2.81-66.5,31.85-35.25,109.01,2.14,6.62.6,2.61,2.95,7.12.8,1.97,1.52,3.8,2.51,5.86.4.9.81,1.71,1.21,2.57,5.07,11.32.08,3.1,6.06,12.41,26.73,49.86,51.73,60.88,66.07,61.87,4.84-31.13,18.23-105.31,47.45-159.87-.16-.18-.5-.42-.56-.69Z"/>
      <path class="cls-17" d="M501.61,938.82c-3.8-.05-8.16-3.46-11.04-5.65-2.33-1.63-4.65-3.31-7.18-4.68-.69-2.36-1.46-4.44-2.19-6.12-.42-1.07-1.97-.54-1.6.56,1.58,5.85,4.73,21.85-.54,27.19-4.28-5.82-6.93-12.45-10.64-18.71-4.29-7.3-10.66-13.69-16.4-19.91-6.08-6.47-12.42-12.77-18.4-19.35-5.18-5.67-9.97-11.55-16.51-15.6-.29-.14-.5.14-.31.37,3.99,3.33,7.17,7.27,10.24,11.37-.34,14.02-1.03,27.46-3.44,41.32-2.51,13.42-5.42,26.76-8.56,40.07-3.24,13.41-7.08,26.66-11.36,39.87-3.81,12.24-6.73,24.35-13.16,35.56-.58.87.77,1.73,1.39.95,7.8-8.48,10.61-20.1,13.88-30.88,4.44-14.02,9.03-27.75,12.6-42.02,3.5-14.13,6.62-28.48,8.77-42.82,1.96-12.53,3.49-26.57,1.79-39.35,1.21,1.63,2.44,3.33,3.65,4.95,4.91,6.73,10.94,12.69,16.62,18.72,6.17,6.42,12.25,13.19,16.86,20.94,3.71,6.42,6.03,13.41,11.19,18.94.67.71,1.78.67,2.53.19,6.76-4.25,6.56-14.01,4.64-22.38,4.6,4.96,10.83,10.19,17.44,7.42.55-.23.31-.86-.29-.95Z"/>
      <path class="cls-17" d="M523.79,890.06c-3.34-1.66-6.91-2.97-10.43-4.18-9.56-10.02-18.69-20.28-28.99-29.46-10.6-9.41-21.88-17.99-33.45-26.3-.28-.16-.7.17-.4.38,10.12,9.98,21.22,18.75,31.89,28.11,8.66,7.58,15.89,16.75,24,24.7-3.99-1.63-7.69-3.55-10.95-6.67-.29-.23-.74.18-.34.42,4.67,5.12,10.52,8.96,16.85,11.32.21.22.47.43.77.71.58.41,1.15.35,1.57.02,2.98.93,6.03,1.61,9.23,1.87.58.05.79-.66.23-.94Z"/>
      <path class="cls-17" d="M376.19,833.97s-25.2,39.09-43.36,113.41c-18.06,74.31-16.59,89.23-16.59,89.23,0,0-1.44-67.03,26.23-138.32,27.5-71.2,33.73-64.33,33.73-64.33Z"/>
      <g class="cls-1">
        <g>
          <g>
            <path class="cls-16" d="M509.73,1000.43c-7.01-1.43-12.25-5.7-15.56-12.88-3.97-8.2-5.47-17.06-7.01-25.57-.47-2.58-.79-5.2-1.36-7.69l-.57-2.9c-1.19-6.44-2.44-13.09-6.23-18.17-2.3-3.11-4.72-6.1-7.17-9.06-2.52-3.14-5.05-6.39-7.47-9.67-4.16-2.67-6.26-7.63-5.39-12.85,1.16-7.63,5.68-13.8,12.92-17.85,5.84-3.21,14.5-6.76,22.47-5.14,1.03.19,2.05.49,3.09.86,6.48,2.55,12.03,7.3,15.74,10.77,5.31,3.35,10.33,6.34,15.82,7.48.67.11,1.43.22,2.28.34,8.95.87,18.78-4.85,29.19-17.06,2.43-2.9,4.91-6.43,7.57-10.08,5.67-7.93,12.06-16.94,20.03-22.47-.62-5.77.25-12.52,2.35-18.63,1.85-5.6,5.78-12.03,11.37-13.7,1.87-.54,3.61-.58,5.45-.2,1.87.39,3.8,1.17,5.56,2.59,2.9-3.84,8.22-5.96,12.77-5.05,1.37.27,2.66.86,3.83,1.59,1.09.85,2.11,1.96,2.98,3.22,2.57-1.76,5.51-2.47,8.3-1.91,1.97.4,3.76,1.47,5.29,3.05.86-.19,1.94-.16,3.18.09,2.75.54,5.47,2.22,7.09,3.74,3.2-4.3,8.03-6.17,13.4-5.08,7.54,1.53,15.69,9.15,16.36,19.28.63,11.91-5.04,24.77-14.36,32.07-2.83,2.18-6.98,5.04-11.42,6.74-1.92,17.21-22.91,33.26-36.82,43.8-3.25,2.41-5.83,4.45-8.07,6.28-14.41,11.98-28.85,24.96-42.58,38.57-6.69,6.65-13.42,12.98-20.79,18.46-.15.25-.33.44-.45.65-10.09,10.03-28.15,19.16-41.8,16.39h0Z"/>
            <path class="cls-10" d="M669.36,819.67c7.4,1.49,14.6,8.81,15.15,17.89.66,11.31-4.77,23.81-13.8,30.82-2.99,2.31-7.38,5.29-11.77,6.85-1.59,20.53-31.94,39.49-44.53,50-14.79,12.33-28.96,25.19-42.7,38.68-6.67,6.54-13.52,13.08-20.97,18.57-.11.13-.16.38-.3.5-9.3,9.32-26.84,18.77-40.4,16.02-6.01-1.22-11.27-4.91-14.62-12.09-4.85-10.4-5.93-21.78-8.18-32.88-1.41-7.34-2.52-15.55-7.04-21.73-4.89-6.4-10.11-12.45-14.76-18.82-3.82-2.35-5.73-6.75-5.02-11.64,1.22-7.42,5.7-13.09,12.21-16.72,6.19-3.53,14.23-6.48,21.43-5,.97.18,1.88.47,2.83.78,5.6,2.2,10.64,6.07,15.28,10.44,5.23,3.33,10.61,6.64,16.54,7.85.76.16,1.52.28,2.43.37,12.12,1.23,23.16-8.99,30.42-17.56,7.98-9.43,16.45-25.01,28.05-32.79-.81-6.24.29-13.19,2.19-18.92,1.6-4.79,5.23-11.13,10.41-12.7,1.68-.5,3.2-.51,4.77-.19,2.18.45,4.36,1.7,6.05,3.35,2.29-4.05,7.76-6.74,12.27-5.83,1.1.21,2.23.71,3.2,1.36,1.54,1.09,2.65,2.62,3.42,4.28,2.41-2.16,5.48-3.35,8.5-2.72,1.59.32,3.29,1.24,4.77,3.02,0,.03.07.27.23.35.93-.46,2.17-.52,3.43-.28,2.66.56,5.65,2.47,6.94,4.04.23.26.44.52.57.79,3.2-5.48,8.17-7.06,12.99-6.08h0ZM669.93,816.74c-5.24-1.08-10.37.55-13.89,4.51-1.92-1.5-4.39-2.7-6.59-3.16-1.09-.21-2.03-.26-3.03-.19-1.63-1.58-3.48-2.53-5.42-2.92-2.8-.57-5.65-.06-8.25,1.43-.76-1.05-1.64-1.78-2.56-2.57-1.32-.84-2.75-1.53-4.32-1.84-4.55-.93-9.91,1.01-13.35,4.54-1.65-.99-3.36-1.66-4.99-2-2.03-.4-4.15-.38-6.17.23-6.17,1.82-10.4,8.79-12.43,14.63-2,6.09-2.85,12.59-2.42,18.41-7.76,5.69-14.05,14.49-19.66,22.34-2.65,3.66-5.16,7.11-7.53,9.93-10.09,11.83-19.41,17.39-27.97,16.57-.65-.14-1.37-.19-2.05-.34-5.17-1.03-10.03-3.93-15.39-7.34-3.68-3.46-9.47-8.26-16.02-10.78-1.02-.39-2.13-.72-3.25-.96-8.52-1.73-17.5,1.93-23.42,5.3-7.76,4.28-12.52,10.86-13.74,18.88-.85,5.82,1.33,11.15,5.81,14.22,2.48,3.21,4.96,6.41,7.45,9.44,2.29,2.95,4.76,5.96,7.03,9.03,3.58,4.79,4.76,11.29,6,17.65.26.94.35,1.91.58,2.81.53,2.61.92,5.07,1.47,7.65,1.44,8.61,2.99,17.59,6.95,25.93,3.46,7.49,9.27,12.21,16.67,13.72,14.29,2.9,32.48-6.23,43.13-16.77.19-.18.27-.36.5-.67,7.37-5.53,14.1-11.82,20.67-18.39,13.79-13.58,28.12-26.58,42.54-38.55,2.22-1.78,4.79-3.84,7.94-6.15,14.81-11.25,34.76-26.55,37.37-44.01,4.36-1.77,8.2-4.52,10.93-6.59,9.68-7.58,15.63-20.95,14.84-33.34-.59-9.88-8.1-18.74-17.45-20.64h0Z"/>
          </g>
          <path class="cls-20" d="M677.6,851.32c-10.57,1.92-10.39-7.04-11.24-14.76-.46-4.43-3.97-11.39-3.27-16.52-2.39.83-4.57,2.45-6.21,5.05.96,3.52.93,7.36-.3,10.85-.52,1.47-2.62,1.24-3.38.24-1.91-2.87-2.78-6.03-3.15-9.27-.35-.26-.44-.55-.43-1.04-.24-1.04-.1-1.94.18-2.74-.06-.69,0-1.28-.1-1.92-1.55-.49-3.15-.59-4.3.01-.1-.05-.16-.08-.15-.18.69,3.58.15,7.69-.91,10.53-.47,1.22-2.19,1.41-3.04.62-2.59-2.49-5.42-9.7-4.2-14.28-1.53.23-2.9.98-4.24,1.93.15,2.02.14,3.87-.24,5.03-.65,3.04-2.51,5.7-5.92,5.64-3.14-.12-5.31-3.18-6.16-5.91-.81-2.63-1.14-6.44-.08-9.39-2.91.8-5.62,2.72-7.18,5.11.56,1.94.5,4.15.2,6.61-1.16,6.35-4.04,11.92-9.69,15.29-6.61,3.92-14.3,9.68-17.25,17.2,6.8-1.63,12.69-6.19,19.99-6.98,4.86-.46,9.66-1.04,14.38-1.08,4.99-.06,18.83-.95,19.96,6.2,1.13,6.74-10.28,5.67-14.19,5.59-14.42-.27-25.46-1.44-38,7.75-16.33,11.91-27.38,29.49-35.37,47.75-4.84,11.22-10.3,23.77-23.23,27.13-5.75,1.56-15.18-.27-15.28-7.97-.02-3.51.57-6.11,2.57-8.99,1.48-2.28,10.83-13.05,5.76-13.92-1.98-.26-2.02-3.12-.25-3.77,1.83-.52,3.64-1.31,5.3-2.32,3.47-4.7,3.41-7.04-.3-6.96-1.83-.16-3.53-.32-5.32-.59-1.87-.28-2.2-3.28-.34-3.74.27-.06.67-.14.79-.16-3.72-1.59-7.28-3.76-10.88-6.04-4.64-4.36-9.68-8.24-15.28-10.44-8.02-3.04-17.25.29-24.26,4.22-6.51,3.63-10.99,9.31-12.21,16.72-.71,4.89,1.2,9.3,5.02,11.64,4.65,6.37,9.87,12.42,14.76,18.82,4.52,6.18,5.63,14.39,7.04,21.73,2.25,11.1,3.34,22.48,8.18,32.88,10.91,23.38,41.35,9.62,55.02-3.93.14-.12.2-.36.3-.5,7.45-5.5,14.3-12.03,20.97-18.57,13.73-13.49,27.9-26.36,42.7-38.68,12.59-10.5,42.94-29.47,44.53-50,4.38-1.56,8.77-4.54,11.77-6.85,7.09-5.42,11.91-14.22,13.26-23.09-1.09,2.97-3.09,5.44-6.36,6.04Z"/>
          <path class="cls-10" d="M606.63,896.26c.12-1.48-1.94-1.89-2.46-.51-2.08,6.9-4.44,12.81-8.63,18.67-3.36,4.77-7.77,8.41-11.89,12.43-.38.31.12.8.42.58,10.68-6.66,20.75-18.37,22.56-31.18Z"/>
          <path class="cls-10" d="M527.52,955.85c-6.28-2.65-12.49-5.28-13.52-12.88-.7-5.19,1.4-10.28,2.39-15.3.09-.31-.33-.41-.47-.15-3.19,5.04-5.97,12.25-4.36,18.31,1.85,7.55,8.38,10.78,15.78,11.03.49.02.67-.78.18-1.02Z"/>
          <path class="cls-10" d="M646.63,855.39c5.95-1.49,9.46-9.59,11.28-14.66,1.65-4.48,2.33-15.33-3.41-17.33-.81-.23-1.1.9-.67,1.36,7.74,8.81.11,24.31-8.46,29.73-1.36-1.08-2.76-2.03-3.89-2.7-1.03-.63-2.23-1.22-3.33-1.71,9.36-4.28,13.54-25.59,5.67-31.56-.81-.62-2.11.27-1.38,1.19,6.41,8.16,2.93,24.33-5.63,29.76-2.7-1.2-5.34-2.07-8.08-2.62,7.64-5.62,9.7-22.02,3.38-28.81-.79-.88-2.39.25-1.87,1.25,4.49,9.25,3.79,19.91-3.35,27.27-4.03-.66-8.14-.67-12.13-.09,7.02-6.24,7.62-21.1-1.51-27.33-1.56-.99-2.57,1.24-1.27,2.47,8.25,7.85,6.29,18.96.8,25.3-5.17,1.07-10.08,3.17-14.52,6.46-.19.2-.03.64.25.45,12.67-5.44,22.87-7.91,36.17-2.71,11.15,4.31,25.91,17.06,22.04,30.43-.16.55.56.87.96.54,7.41-8.31-2.69-20.04-11.03-26.68Z"/>
        </g>
      </g>
      <path class="cls-14" d="M527.99,891.77c.46-.02.42-.81-.03-.84-5.51-.42-10.27-1.29-15.25-2.95-6.25-3.5-12.38-6.83-18.21-11.34-5.55-4.27-10.51-9.32-15.27-14.41-9.81-10.23-19.17-20.35-30.08-29.43-9.65-7.92-21.07-16.28-33.1-19.73-1.97-.55-8.56-2.53-12.22-1.59-3.75-.76-7.82-.32-4.72,4.68,1.71,2.81,4.95,5.1,7.69,6.9,6.64,4.33,13.85,7.74,20.64,12.05,28.22,17.96,47.57,49.01,79.59,61.12,1.13.47,2.34-.97,1.32-1.81-2.74-2.14-5.5-4.16-8.25-6.15,8.48,4.32,19.22,5.59,27.88,3.52Z"/>
      <path class="cls-14" d="M661.57,730.31c-3.21-.15-6.45-.24-9.71-.19,1.58-1.1,2.91-2.45,4.38-3.95,1.61-1.63-.68-3.64-2.35-2.75-9.9,5-21.56,7.25-32.85,9.49-4.91.8-9.81,1.81-14.47,3.03-.63.15-1.22.27-1.83.45-.34.07-.46.15-.76.23-2.17.53-4.35,1.2-6.38,1.84-13.6,3.94-26.72,8.98-39.54,14.97-25.12,11.68-48.86,28.37-66.47,50.09-2.99,2.99-5.53,6.42-7.07,10.84-1.16,3.54,3.54,5.94,6.25,4.21,12.41-8.01,23.25-17.92,34.81-27,13.27-10.57,28.18-19.66,42.83-28.32,16.53-9.83,34.58-15.48,53.43-19.06,13.89-2.71,28.67-2.34,40.86-10.66,1.61-1.03.52-3.17-1.12-3.21Z"/>
      <path class="cls-10" d="M233.66,917.71s13.69,32.03,20.41,43.47c6.72,11.44-.18,3.04-.18,3.04l-14.59-28.47-6.15-16.05.5-1.99Z"/>
      <g>
        <path class="cls-17" d="M273.7,764.81c15.8-32.91,65.79-72.52,95.66-133.37-6.22-72.02,17.49-110.56,63.77-73.09,4.89,6.36,9.89,13.04,13.96,19.41,5.76,9.01,6.68,20.28,2.56,30.14-33.26,79.73-59.68,173.65-129.05,224.63-28.81-21.36-55.64-40.35-46.9-67.73Z"/>
        <path class="cls-17" d="M448.66,596.03c-31.53,13.29-72.42,6.89-79.78-.02.31-45.21,32.81-63.11,64.26-37.65,1.33,1.73,2.85,3.27,4.49,4.68,15.53,13.27,21.21,34.77,13.43,53.66-31.79,77.28-66.56,168.89-130.46,215.84-9.51-7.05-15.52-4.57,10.63-27.73,68.98-61.08,71.5-112.74,117.43-208.78Z"/>
      </g>
      <path class="cls-4" d="M365.36,852.57c-44.27-98.04-56.06-162.05-165.02-139.37-89.1,18.55-93.98,107.37-72.98,215.37,28,137,134,174,134,174-3-32,61.33-118.27,61.33-118.27l17.67-75.73,25-56Z"/>
      <path class="cls-7" d="M347.89,812.53s34.81-41.17,50.14-74.57c0,0-31.52-54.07-56.09-61.73l-38.58,70.34,44.53,65.97Z"/>
      <path class="cls-8" d="M195.34,741.2c106.99-22.27,118.66,35.32,161.02,130.37l9-19c-44.27-98.04-56.06-162.05-165.02-139.37-54.07,11.25,15.1-2.23,10.02,49.37,10.06-36.88-58.72-12.27-15.02-21.37Z"/>
      <g>
        <path class="cls-4" d="M272.83,766.6l-24.53,51.79s-77.86-36.98-77.4-101.79l37.48-24.64,109.42,57.58s14.65,38.21-13.07,57.11l-31.89-40.04Z"/>
        <path class="cls-22" d="M259.36,795.03l13.47-28.43,17.23,21.64c12.46-6.9,22.82-17.98,30.32-29.06-1.13-5.82-2.59-9.64-2.59-9.64l-68.94-36.28c-35.79.95-69.4,4.74-69.4,4.74,28.46,54.37,56.08,74.66,79.91,77.04Z"/>
        <path class="cls-7" d="M249.01,820.38l-1.36-.64c-.2-.09-19.88-9.54-39.23-26.83-25.72-22.99-39.22-49.39-39.03-76.33v-.8s38.89-25.57,38.89-25.57l110.7,58.26.2.53c.15.39,14.74,39.55-13.63,58.88l-1.15.78-31.26-39.25-24.14,50.97Z"/>
      </g>
      <g>
        <g>
          <path class="cls-10" d="M252.88,406.87c7.62,44.75,46.19,51.23,75.13,28.73,6.09-4.73,10.57-11.17,11.19-14.98,5.65-34.47-7.94-36.77-19-84.39-10.08-43.99-40-40.81-49.26-27.86-43.01-21.18-67.45-9.44-42.5,20.46-14.1-7.72-29.45,27.61-6.83,32.52-24.26,3.73-3.7,32.34.68,38.97,8.58,12.98,25.3,13.05,30.59,6.56Z"/>
          <path class="cls-20" d="M231.54,327.87c9.63,2.97,20.05,4.75,30.86,3.92-6.9,3.61-22.91,1.62-36.01-1.53-16.63,1.25-15.85,27.99-1.11,29.62,5.5,1.17,13.7,1.86,18.36,1.74-2,.9-7.93,2.17-16.41,1.46-23.16.22-11.57,20.36-3.91,34.3,5.64,10.27,23.24,14.65,29.57,5.44-.92-3.98-1.14-6.29-1.31-6.96-13.36-.98-19.35-6.66-21.61-11.67,6.78,7.43,16.74,9.55,21.31,9.32-.2-1.93-.02-4.56.51-6.7,4.44,18.68,5.28,45.74,31.28,55.22-6.81-20.4-6.52-43.18,21.14-51.93,20.68-6.54,31.99,8.74,36.3,14.62,1.14-26.66-14.99-55.03-20.31-68.47-12.44-31.44-33.24-38.18-44.48-25.83,8.28,2.44,26.74,11.89,29.3,13.81,9,13.1,16.26,42.39,16.41,44.5-5.25-12.9-11.2-33.65-18.78-41.28-39.75-18.84-71-33.55-80.26-18.83-.67,8.18,5.1,14.96,9.14,19.27Z"/>
        </g>
        <path class="cls-17" d="M289.31,439.02c48.05,134.42,27.11,156.44,73.15,198.31,14.19,12.9,40.55,28.08,61.93,25.56,22-18.02,38.42-59.02,19.33-103.8-16.75-39.29-61.78-15.41-103.23-151.79-24.56-33.09-69.67-10.69-51.18,31.73Z"/>
        <path class="cls-17" d="M338.81,410.3c-14.73-19.98-65.87-25.53-40.78,35.55,47.24,115.75,21.12,121.71,65.08,176.9,15.06,18.9,40.88,44.02,66.9,30.65,13.74-20.77,33.41-62.87,13.19-95.51-34.02-39.72-65.36-12.14-104.39-147.58Z"/>
      </g>
      <g>
        <path class="cls-20" d="M295.33,564.75c-17.38,33.6-9.39,57.94,19.74,73.01,29.13,15.07,60.99,11.34,78.37-22.26,17.38-33.6,7.85-73.05-21.27-88.11-29.13-15.07-59.46,3.76-76.84,37.36Z"/>
        <path class="cls-10" d="M348.45,606.92l-38.07-3.22-13.02,21.13c4.56,4.88,10.48,9.19,17.71,12.93,12.92,6.69,26.38,9.66,38.88,7.98-8.79-7.88-24.52-25.67-5.5-38.82Z"/>
        <path class="cls-16" d="M315.66,537.56c16.45-15,36.75-20.39,56.51-10.17,22.27,11.52,33.07,37.3,29.15,63.81-5.83-32.25-24.69-78.47-85.66-53.65Z"/>
        <path class="cls-20" d="M346.92,647.72c-10.44,0-21.48-2.91-32.54-8.63-15.08-7.8-24.53-18.06-28.06-30.48-3.62-12.71-1.04-27.7,7.68-44.55,19.23-37.18,50.92-52.45,78.86-38,14.48,7.49,24.72,21.02,28.85,38.09,4.1,16.99,1.64,35.48-6.93,52.05-8.37,16.18-20.74,26.61-35.77,30.15-3.91.92-7.95,1.38-12.09,1.38ZM351.3,523.6c-22.63,0-42.77,18.88-54.64,41.84h0c-8.35,16.15-10.86,30.4-7.46,42.35,3.3,11.59,12.24,21.23,26.56,28.64,14.79,7.65,29.51,10.07,42.56,6.99,14.15-3.34,25.83-13.23,33.79-28.61,8.24-15.93,10.61-33.67,6.68-49.96-3.91-16.21-13.61-29.04-27.31-36.13-6.84-3.54-13.61-5.13-20.17-5.13Z"/>
        <circle class="cls-10" cx="339.5" cy="584.47" r="36.18" transform="translate(-4.35 2.55) rotate(-.43)"/>
        <circle class="cls-20" cx="315.59" cy="593.09" r="22.26" transform="translate(-354.26 644.6) rotate(-66.38)"/>
        <path class="cls-15" d="M371.64,601.09c3.69-9.25,3.79-19.42.36-28.26-1.7-4.41-4.22-8.49-7.48-11.88-3.25-3.4-7.21-6.08-11.51-7.92-8.61-3.7-18.72-3.7-27.32.1-4.3,1.87-8.21,4.61-11.46,8.02-.79.87-1.63,1.71-2.29,2.68l-1.06,1.41c-.37.46-.63,1-.95,1.49-1.28,1.99-2.36,4.11-3.19,6.33l-1.83-1.94h.01c3.36-.87,6.65-1.25,10.05-1.26,3.38.01,6.81.46,10.07,1.64,3.25,1.18,6.31,3.14,8.6,5.82,1.19,1.3,2.09,2.82,2.91,4.34.75,1.56,1.41,3.16,1.83,4.82.91,3.27,1.41,6.72,1.02,10.22-.33,3.49-1.73,6.92-3.92,9.66-2.2,2.74-5.05,4.77-8.07,6.23-3.03,1.45-6.27,2.36-9.54,2.64,3.07-1.13,5.94-2.62,8.56-4.36,2.62-1.75,4.94-3.85,6.66-6.31,1.69-2.47,2.85-5.25,3.18-8.23.41-2.96.02-6.08-.79-9.04-.38-1.5-.97-2.9-1.62-4.27-.72-1.32-1.49-2.63-2.5-3.73-1.94-2.27-4.52-3.93-7.36-4.96-5.71-2.02-12.35-1.77-18.28-.31h0s-2.75.85-2.75.85l.91-2.79c3.21-9.79,10.66-18.27,20.24-22.48,9.5-4.34,20.86-4.35,30.4-.12,9.59,4.11,17.26,12.43,20.52,22.25,1.66,4.89,2.21,10.14,1.63,15.22-.59,5.07-2.31,9.98-5.06,14.13Z"/>
        <path class="cls-16" d="M308.84,580.18c-1.08,3.13,2.41,7.16,7.78,9.01,5.38,1.85,10.61.82,11.68-2.31,1.08-3.13-2.41-7.16-7.78-9.01-5.38-1.85-10.61-.82-11.68,2.31Z"/>
      </g>
      <path class="cls-17" d="M124.07,613.66c-1.08,10.22-1.45,20.47-1.11,30.69.14,4.74.45,9.49.9,14.21,0,.02.01.05.01.07.67,6.92,1.66,13.82,2.97,20.67,1.18,6.12,2.39,12.42,4.36,18.39.48-2.54,1.07-5.01,1.74-7.42,0-.05.02-.09.03-.14.47-1.72.98-3.42,1.54-5.06.12-.36.47-.6.85-.58.38.02.7.29.78.65,2.14,9.48,5.01,18.93,9.43,30.95.11-6.03.89-12.03,2.32-17.9.09-.37.42-.63.8-.64.37-.01.72.24.84.61,3.57,12.02,7.25,24.41,13.98,35.1-1.4-5.53-2.09-11.2-2.05-16.91,0-.36.25-.69.6-.8.35-.11.73.02.94.33,7.75,11.06,16.96,20.84,27.41,29.22-4.63-5.9-8.06-12.89-10.15-20.42-.02-.06-.03-.12-.05-.19-2.94-10.7-3.17-22.48-.27-33.81.77-3.02,1.74-5.99,2.86-8.82.46-1.17.96-2.34,1.5-3.5.73-1.65,1.55-3.28,2.41-4.87,1.44-2.68,3.07-5.33,4.83-7.9.3-.43.6-.85.89-1.25.77-11.91-3.87-23.96-12.44-32.24-2.51-2.43-5.4-4.59-8.19-6.68-4.48-3.36-9.12-6.84-12.4-11.53-3.36-4.8-5.22-10.76-5.47-17.31h-27.58c-1,5.79-1.69,11.56-2.27,17.09Z"/>
      <g>
        <path class="cls-17" d="M345.98,553.08c0,64.01-52.88,115.9-118.1,115.9s-118.1-51.89-118.1-115.9,53.54-84.71,118.1-93.83c104.38-14.75,118.1,29.82,118.1,93.83Z"/>
        <path class="cls-9" d="M174.14,610.7c2.22,1.48,4.57,2.72,6.97,3.85,2.4,1.12,4.85,2.13,7.36,2.96,2.5.84,5.03,1.57,7.6,2.11,2.56.59,5.15.94,7.74,1.24l-.44,2.97c-2.67-.56-5.32-1.18-7.89-2.04-2.59-.8-5.1-1.8-7.57-2.88-2.47-1.08-4.85-2.34-7.16-3.69-2.31-1.36-4.55-2.84-6.62-4.52Z"/>
        <path class="cls-14" d="M127.12,501.03c-5.05,9.93-9.32,24.61-6.73,44.09,0,0,9.77-34.8,36.91-47.89,0,0-18.04,14.05-24.1,35.44,0,0,17.88-26.66,37.19-32.09,0,0-19.63,16.44-23.15,36.24,0,0,10.38-19.63,32.72-28.73,0,0-19.87,12.53-17.88,46.53,2,34,169.43,8.08,169.43,8.08,0,0,10.23-6.32,4.48-38.81,0,0,4.87,9.9,5.35,30.49,0,0,3.49-11.45,3.32-29.79-5.22-48.02-28.77-77.77-116.8-65.33-42.3,5.98-79.88,16.93-100.76,41.77Z"/>
      </g>
      <path class="cls-17" d="M328.97,610.74c2.82,9.88,4.94,19.92,6.36,30.05.68,4.7,1.19,9.42,1.55,14.15,0,.02,0,.05,0,.07.53,6.93.74,13.9.62,20.88-.11,6.23-.22,12.65-1.14,18.87-.91-2.42-1.91-4.76-2.98-7.01,0-.04-.04-.09-.06-.13-.76-1.61-1.55-3.2-2.39-4.72-.18-.33-.57-.51-.93-.42-.37.09-.64.41-.66.78-.48,9.71-1.69,19.51-3.98,32.11-1.14-5.92-2.94-11.7-5.35-17.24-.15-.35-.52-.55-.9-.5-.37.05-.67.36-.72.74-1.46,12.46-2.96,25.29-7.75,36.98.43-5.69.14-11.39-.88-17.02-.06-.36-.36-.64-.73-.69-.36-.05-.72.15-.87.48-5.74,12.23-13.13,23.44-21.99,33.49,3.55-6.61,5.73-14.08,6.5-21.86.01-.06.01-.13.01-.2,1.06-11.05-.73-22.69-5.54-33.35-1.27-2.84-2.74-5.6-4.33-8.2-.66-1.08-1.35-2.14-2.08-3.19-1.01-1.5-2.08-2.96-3.21-4.38-1.88-2.39-3.94-4.73-6.11-6.95-.37-.37-.73-.73-1.09-1.08-2.81-11.6-.29-24.27,6.72-33.9,2.05-2.82,4.53-5.45,6.92-7.99,3.84-4.08,7.81-8.3,10.24-13.49,2.49-5.3,3.3-11.5,2.42-17.99l27.17-4.72c1.97,5.52,3.64,11.08,5.17,16.43Z"/>
      <path class="cls-20" d="M297.8,503.18c-16.7,0-31.48,9.14-40.52,23.16-10.99-12.8-27.94-21.02-46.97-21.02-33.14,0-48.23,24.89-48.23,55.6s15.09,55.6,48.23,55.6c20.07,0,37.83-9.14,48.73-23.17,9.13,12.56,23.1,20.59,38.76,20.59,27.52,0,40.06-24.8,40.06-55.38s-12.54-55.38-40.06-55.38Z"/>
      <g>
        <path class="cls-20" d="M146.53,564.75c17.38,33.6,9.39,57.94-19.74,73.01-29.13,15.07-60.99,11.34-78.37-22.26-17.38-33.6-7.85-73.05,21.27-88.11,29.13-15.07,59.46,3.76,76.84,37.36Z"/>
        <path class="cls-16" d="M126.2,537.56c-16.45-15-36.75-20.39-56.51-10.17-22.27,11.52-33.07,37.3-29.15,63.81,5.83-32.25,24.69-78.47,85.66-53.65Z"/>
        <path class="cls-20" d="M94.91,647.8c-19.99,0-37.09-10.87-47.82-31.61-8.57-16.57-11.03-35.05-6.93-52.05,4.12-17.07,14.37-30.6,28.85-38.09,14.29-7.39,29.58-7.24,44.21.43,13.46,7.06,25.77,20.4,34.65,37.57,17.22,33.28,10.17,59.23-20.38,75.03-11.31,5.85-22.32,8.71-32.57,8.71ZM90.54,523.64c-6.83,0-13.61,1.69-20.16,5.08-13.7,7.08-23.39,19.92-27.31,36.13-3.93,16.29-1.56,34.04,6.68,49.96,11.26,21.77,28.06,29.81,45.09,29.81,10.77,0,21.64-3.21,31.26-8.19,29.22-15.12,35.65-39,19.1-70.99-8.6-16.63-20.45-29.51-33.38-36.29-7-3.67-14.17-5.51-21.28-5.51Z"/>
        <circle class="cls-10" cx="102.36" cy="584.47" r="36.18" transform="translate(-335.96 184.52) rotate(-37.69)"/>
        <path class="cls-15" d="M78.62,568.55c17.75-9.18,39.58-2.24,48.76,15.51,3.74,7.23,4.8,15.14,3.55,22.6,8.37-10.79,10.25-25.89,3.56-38.82-9.18-17.75-31.01-24.69-48.76-15.51-10.52,5.44-17.24,15.32-19.06,26.17,3.12-4.02,7.13-7.45,11.95-9.94Z"/>
        <circle class="cls-20" cx="126.27" cy="593.09" r="22.26" transform="translate(-228.57 101.37) rotate(-23.8)"/>
        <path class="cls-15" d="M70.22,601.09c-2.75-4.16-4.47-9.06-5.06-14.13-.58-5.07-.03-10.32,1.63-15.22,3.26-9.83,10.94-18.15,20.52-22.25,9.54-4.23,20.9-4.23,30.4.12,9.58,4.21,17.03,12.69,20.24,22.48l.91,2.79-2.75-.85h0c-5.93-1.46-12.57-1.71-18.28.31-2.84,1.03-5.42,2.7-7.36,4.96-1.01,1.1-1.78,2.41-2.5,3.73-.65,1.37-1.24,2.78-1.62,4.27-.82,2.97-1.21,6.08-.79,9.04.33,2.98,1.5,5.76,3.18,8.23,1.72,2.46,4.04,4.56,6.66,6.31,2.63,1.74,5.5,3.23,8.56,4.36-3.27-.28-6.51-1.19-9.54-2.64-3.02-1.46-5.87-3.49-8.07-6.23-2.18-2.73-3.59-6.17-3.92-9.66-.38-3.5.11-6.95,1.03-10.22.42-1.65,1.09-3.26,1.83-4.82.83-1.52,1.73-3.04,2.91-4.34,2.29-2.67,5.35-4.64,8.6-5.82,3.27-1.18,6.7-1.62,10.07-1.64,3.4.01,6.69.39,10.05,1.26h.01s-1.83,1.94-1.83,1.94c-.83-2.23-1.91-4.34-3.19-6.33-.32-.5-.57-1.03-.95-1.49l-1.06-1.41c-.67-.98-1.5-1.81-2.29-2.68-3.25-3.4-7.16-6.15-11.46-8.02-8.6-3.8-18.71-3.8-27.32-.1-4.31,1.85-8.26,4.53-11.51,7.92-3.26,3.39-5.77,7.47-7.48,11.88-3.43,8.84-3.33,19.01.36,28.26Z"/>
        <path class="cls-16" d="M133.02,580.18c1.08,3.13-2.41,7.16-7.78,9.01-5.38,1.85-10.61.82-11.68-2.31-1.08-3.13,2.41-7.16,7.78-9.01,5.38-1.85,10.61-.82,11.68,2.31Z"/>
      </g>
      <g>
        <path class="cls-10" d="M269.24,541.31c1.04-2.22,2.47-4.23,4.04-6.13,1.59-1.89,3.37-3.62,5.32-5.16,3.9-3.08,8.49-5.39,13.39-6.56,2.44-.6,4.94-.96,7.45-.97,1.25-.06,2.5.04,3.74.09.62.05,1.24.15,1.85.23.62.07,1.23.16,1.84.3,4.87.93,9.52,2.72,13.67,5.24-4.64-1.45-9.3-2.57-13.98-3-2.34-.2-4.68-.27-7-.08-2.32.18-4.62.5-6.85,1.1-4.48,1.16-8.75,3.09-12.66,5.67-3.92,2.57-7.55,5.68-10.82,9.27Z"/>
        <path class="cls-10" d="M253.79,541.31c-3.27-3.6-6.9-6.7-10.82-9.27-3.91-2.58-8.18-4.51-12.66-5.67-2.23-.6-4.54-.93-6.85-1.1-2.32-.19-4.66-.12-7,.08-4.69.43-9.35,1.55-13.98,3,4.16-2.52,8.8-4.31,13.67-5.24.61-.13,1.22-.22,1.84-.3.62-.07,1.23-.18,1.85-.23,1.24-.05,2.49-.15,3.74-.09,2.5.01,5.01.37,7.45.97,4.9,1.16,9.49,3.47,13.39,6.56,1.95,1.54,3.73,3.28,5.32,5.16,1.57,1.89,3,3.91,4.04,6.13Z"/>
      </g>
      <g>
        <path class="cls-20" d="M330.86,698.98c0,50.39-23.13,72.68-67.35,76.76-46.06,4.25-84.97-26.11-84.97-76.5s35.79-91.23,79.93-91.23,72.38,40.58,72.38,90.97Z"/>
        <path class="cls-10" d="M312.34,756.21c-.84-9.28-3.86-17.73-3.86-17.73l-27.26-34.57-32.14-7.14c19.5,7.77,23.33,15.9,24.15,44.94.38,13.46,4.27,24.05,9.73,30.69,12.02-3.24,21.83-8.54,29.38-16.18Z"/>
        <path class="cls-10" d="M235.96,712.36c4.33-1.75,8.91-2.78,13.53-3.45,1.15-.21,2.32-.28,3.48-.4,1.16-.13,2.33-.19,3.5-.25,1.17-.05,2.34-.09,3.51-.05,1.17.03,2.35-.02,3.52.09,4.69.26,9.36,1.06,13.87,2.38,4.51,1.34,8.8,3.43,12.59,6.11-4.4-1.56-8.71-2.93-13.17-3.77-4.46-.79-8.93-1.4-13.46-1.59-2.26-.07-4.52-.22-6.79-.15-2.27-.06-4.54.07-6.82.12-4.56.2-9.12.51-13.76.94Z"/>
        <path class="cls-16" d="M276.24,619.36c-.31,3.23-5.8,5.33-12.27,4.71-6.46-.63-11.45-3.75-11.14-6.97.31-3.23,5.8-5.33,12.27-4.71,6.46.63,11.45,3.75,11.14,6.97Z"/>
        <path class="cls-10" d="M254.89,777.65c-20.63,0-39.41-6.9-53.6-19.84-15.64-14.26-24.25-35.06-24.25-58.56,0-51.13,36.53-92.73,81.43-92.73,21.69,0,40.34,9.4,53.94,27.18,12.86,16.82,19.95,40,19.95,65.29,0,49.06-21.83,73.93-68.71,78.26-2.95.27-5.87.41-8.76.41ZM258.47,609.52c-43.25,0-78.43,40.25-78.43,89.73,0,22.98,8.05,42.46,23.28,56.35,15.54,14.17,36.87,20.8,60.05,18.66,22.43-2.07,38.55-8.79,49.28-20.54,11.24-12.3,16.7-30.21,16.7-54.73s-6.86-47.17-19.33-63.47c-13.01-17.01-30.84-26-51.55-26Z"/>
      </g>
      <g>
        <ellipse class="cls-20" cx="231.25" cy="631.97" rx="16.78" ry="34.72" transform="translate(-441.58 644.76) rotate(-70.99)"/>
        <path class="cls-16" d="M236.71,616.1c-18.13-6.25-35.28-4.21-38.3,4.56-1.92,5.56,2.32,12.49,10.31,18.41l.2-1.25c-8.33-14.8,9.35-19.73,25.51-14.12,16.16,5.61,29.76,13.95,24.32,23.98-.29.54-.5,1.05-.67,1.54,2.99-1.37,5.11-3.36,6-5.94,3.02-8.76-9.23-20.93-27.36-27.18Z"/>
        <path class="cls-9" d="M248.34,641.12c-1.35,3.93-9.04,4.84-17.16,2.04-8.13-2.8-13.62-8.25-12.26-12.18,1.35-3.93,9.04-4.84,17.16-2.04,8.13,2.8,13.62,8.25,12.26,12.18Z"/>
      </g>
      <g>
        <ellipse class="cls-20" cx="298.85" cy="631.97" rx="29.8" ry="16.78" transform="translate(-189.55 131.81) rotate(-19.01)"/>
        <path class="cls-16" d="M327.03,622.26c-3.02-8.76-18.08-11.52-33.64-6.16-15.56,5.36-25.73,16.81-22.71,25.57,1.03,2.98,3.45,5.27,6.82,6.78h0c-7.74-4.68-.73-18.2,17.64-25.09,17.91-6.72,30.96.28,25.57,14.94,5.45-5.13,8.05-11.03,6.32-16.04Z"/>
        <path class="cls-9" d="M284.32,640.23c1.35,3.93,8.1,5.16,15.08,2.76,6.97-2.4,11.53-7.53,10.18-11.46-1.35-3.93-8.1-5.16-15.08-2.76-6.97,2.4-11.53,7.53-10.18,11.46Z"/>
      </g>
      <g>
        <circle class="cls-12" cx="218.82" cy="564.24" r="36.23"/>
        <ellipse class="cls-18" cx="222" cy="555.01" rx="26.47" ry="32.5" transform="translate(-375.06 584.12) rotate(-70.99)"/>
        <path class="cls-10" d="M218.82,601.98c-20.81,0-37.73-16.93-37.73-37.73s16.93-37.73,37.73-37.73,37.73,16.93,37.73,37.73-16.93,37.73-37.73,37.73ZM218.82,529.51c-19.15,0-34.73,15.58-34.73,34.73s15.58,34.73,34.73,34.73,34.73-15.58,34.73-34.73-15.58-34.73-34.73-34.73Z"/>
        <path class="cls-10" d="M214.57,605.93c4.91-.25,9.8-.85,14.43-2.19l1.73-.52,1.68-.63c1.14-.37,2.19-.93,3.28-1.4,2.11-1.09,4.11-2.34,5.91-3.82,3.61-2.98,6.36-6.84,8.16-11.13.93-2.13,1.61-4.38,2.05-6.69.49-2.27.74-4.7.77-6.91l2.99-.19c.11,1.39.07,2.62-.02,3.92-.1,1.28-.23,2.56-.48,3.82-.48,2.52-1.21,5-2.23,7.38-2.05,4.74-5.33,9.01-9.52,12.04-2.09,1.51-4.34,2.76-6.69,3.74-2.37.91-4.79,1.68-7.27,2.08-1.22.28-2.48.36-3.71.54-1.24.13-2.48.19-3.72.26l-3.71-.04c-1.23-.07-2.46-.17-3.69-.26Z"/>
        <circle class="cls-5" cx="220.93" cy="564.6" r="24.32" transform="translate(-379.33 649.9) rotate(-76.72)"/>
        <path class="cls-23" d="M238.87,564.1c.57,2.9.18,6.04-.93,8.95-1.15,2.91-3.16,5.51-5.69,7.53-2.55,2-5.67,3.3-8.93,3.79-3.26.5-6.66.07-9.76-1.1-6.25-2.33-10.99-8.12-12.06-14.52-.58-3.18-.28-6.46.8-9.39,1.1-2.92,2.93-5.5,5.3-7.27-3.08,5.03-3.74,10.81-2.11,15.71,1.54,4.9,5.32,8.85,9.95,10.59l.87.33c.29.09.6.16.89.24.59.19,1.21.25,1.82.36.61.12,1.24.11,1.86.18.62-.02,1.25-.01,1.87-.06,2.49-.21,4.94-.97,7.17-2.25,2.2-1.31,4.21-3.11,5.75-5.34,1.56-2.22,2.6-4.86,3.21-7.75Z"/>
        <path class="cls-18" d="M217,561.14c-1.63,3.23-7.05,3.78-12.11,1.23-5.05-2.55-7.83-7.24-6.2-10.47,1.63-3.23,7.05-3.78,12.11-1.23,5.05,2.55,7.83,7.24,6.2,10.47Z"/>
      </g>
      <g>
        <circle class="cls-12" cx="297.87" cy="565.23" r="33.64"/>
        <ellipse class="cls-18" cx="294.92" cy="556.66" rx="30.17" ry="24.58" transform="translate(-165.23 126.42) rotate(-19.01)"/>
        <path class="cls-10" d="M297.87,600.37c-19.38,0-35.14-15.76-35.14-35.14s15.76-35.14,35.14-35.14,35.14,15.76,35.14,35.14-15.76,35.14-35.14,35.14ZM297.87,533.09c-17.72,0-32.14,14.42-32.14,32.14s14.42,32.14,32.14,32.14,32.14-14.42,32.14-32.14-14.42-32.14-32.14-32.14Z"/>
        <path class="cls-10" d="M301.82,603.93c-1.14.1-2.28.19-3.43.26l-3.45.05c-1.15-.06-2.31-.11-3.46-.22-1.14-.17-2.31-.24-3.45-.49-2.31-.37-4.56-1.08-6.77-1.92-2.19-.91-4.29-2.06-6.24-3.47-3.9-2.82-6.97-6.8-8.88-11.21-.96-2.21-1.65-4.52-2.08-6.88-.22-1.18-.35-2.37-.44-3.56-.08-1.21-.12-2.35,0-3.65l2.99.19c.04,2.04.27,4.29.73,6.39.43,2.12,1.06,4.2,1.9,6.18,1.66,3.97,4.2,7.54,7.53,10.3,1.67,1.37,3.52,2.54,5.46,3.55,1.01.44,1.98.96,3.04,1.31l1.56.59,1.6.49c4.29,1.26,8.82,1.83,13.38,2.09Z"/>
        <circle class="cls-5" cx="293.5" cy="565.23" r="22.58"/>
        <path class="cls-23" d="M276.85,564.76c.81,2.69,1.96,5,3.44,6.95,1.49,1.94,3.31,3.47,5.27,4.62,1.98,1.12,4.14,1.77,6.34,2.03,2.21.26,4.45-.05,6.54-.77,4.19-1.46,7.73-4.97,9.23-9.45,1.57-4.47,1.06-9.86-1.79-14.55,2.19,1.65,3.96,4.01,4.99,6.73,1.04,2.72,1.35,5.78.85,8.78-.92,6.02-5.3,11.55-11.2,13.87l-1.11.43c-.38.12-.76.22-1.14.33-.76.23-1.55.33-2.33.45-.78.13-1.57.12-2.36.18-.79-.02-1.58-.06-2.36-.15-3.14-.4-6.17-1.65-8.62-3.58-2.43-1.94-4.33-4.5-5.34-7.32-1-2.82-1.18-5.86-.4-8.56Z"/>
        <path class="cls-18" d="M306.92,557.88c1.51,3,5.29,4.15,8.43,2.56,3.14-1.59,4.46-5.3,2.94-8.3-1.51-3-5.29-4.15-8.43-2.56-3.14,1.59-4.46,5.3-2.94,8.3Z"/>
      </g>
      <path class="cls-10" d="M270.83,655.34c0,6.14-1.48,11.11-3.3,11.11s-3.3-4.98-3.3-11.11,1.48-6.89,3.3-6.89,3.3.75,3.3,6.89Z"/>
      <g>
        <path class="cls-14" d="M197.24,467.25c60.06-23.56,57.56-29.78,57.81-45.78,0,0,8.69,5.54,5.36,21.77,0,0,16-18.44,16.89-49.33,0,0,46.37,8.93,24.52,62.5,0,0,7.92-7.17,13.77-20.8,0,0,8.38,25.19-13.77,46.52-22.15,21.33-104.58-14.89-104.58-14.89Z"/>
        <path class="cls-17" d="M284.71,425.55c-1.28,5.97-3.97,11.6-7.3,16.76-3.35,5.17-7.5,9.85-12.25,13.81-4.73,3.99-10.09,7.22-15.76,9.62-5.68,2.38-11.67,3.95-17.73,4.55,5.77-1.96,11.34-4.17,16.64-6.88,1.32-.69,2.62-1.4,3.91-2.13,1.27-.76,2.54-1.52,3.77-2.35,1.26-.77,2.45-1.66,3.66-2.51,1.16-.91,2.35-1.79,3.48-2.74,4.58-3.74,8.66-8.07,12.31-12.77,3.6-4.73,6.8-9.82,9.27-15.37Z"/>
        <path class="cls-17" d="M293.52,421.92c.27,2.6.16,5.19-.11,7.76-.25,2.57-.73,5.11-1.35,7.61-.61,2.5-1.4,4.97-2.41,7.35-.96,2.39-2.19,4.7-3.69,6.84.39-2.6,1.01-5.05,1.57-7.52.57-2.47,1.19-4.91,1.8-7.35.63-2.44,1.26-4.88,1.95-7.33.67-2.45,1.38-4.89,2.23-7.36Z"/>
      </g>
      <g>
        <path class="cls-17" d="M251.98,514c-5.08-4.03-10.47-7.54-16.11-10.46-5.63-2.93-11.59-5.18-17.75-6.33-6.15-1.19-12.51-1.06-18.64.37-6.14,1.42-11.93,4.29-17.38,7.79,2.39-2.18,4.94-4.25,7.78-5.9,2.79-1.73,5.84-3.07,9-4.07,3.15-1.06,6.48-1.55,9.81-1.76,3.33-.24,6.69.06,9.96.63,3.29.55,6.48,1.52,9.58,2.7,3.09,1.21,6.03,2.72,8.85,4.41,2.81,1.71,5.49,3.62,7.99,5.72,2.48,2.12,4.87,4.37,6.9,6.91Z"/>
        <path class="cls-17" d="M332.29,513.49c-4.81-5.32-10.3-9.93-16.35-13.43-6.03-3.5-12.8-5.64-19.65-5.58-3.42.03-6.84.54-10.14,1.59-.84.19-1.63.57-2.45.86-.81.31-1.63.59-2.4,1l-2.37,1.11c-.77.4-1.52.86-2.29,1.29-6.09,3.5-11.53,8.17-16.68,13.18,4.27-5.77,9.38-11.03,15.48-15.09,2.99-2.11,6.36-3.71,9.84-4.97,3.48-1.3,7.24-1.86,10.96-1.95,3.74-.09,7.48.54,11.03,1.65,3.55,1.12,6.88,2.8,9.96,4.81,3.07,2.03,5.87,4.39,8.41,6.99,2.5,2.63,4.81,5.44,6.64,8.56Z"/>
      </g>
      <g>
        <path class="cls-9" d="M223.27,698.08c30.36-10.72,61.88-10.07,83.02,1.17,17.49,9.3-83.02-1.17-83.02-1.17Z"/>
        <g>
          <path class="cls-21" d="M249.07,693.54c38.45,2.1,25.64,76.77,63.84,76.77s14.69-90.74-63.84-76.77Z"/>
          <path class="cls-13" d="M305.39,704.46c-13.53-9.68-32.36-15.18-56.32-10.91,7.78.43,13.46,3.82,17.89,8.97,18.72-4.9,25.78-1.93,33.2,21.35,8.05,25.24,9.29,27.16,9.34,23.61.05-3.56-13.14-39.11-12.99-40.89.1-1.17,1.74-3.75,8.87-2.13Z"/>
          <path class="cls-21" d="M312.91,771.82c-20.24,0-26.89-19.72-33.31-38.79-6.41-19.02-12.46-36.99-30.61-37.98l-12.93-.71,12.75-2.27c42.23-7.51,64.3,15.16,71.83,25.25,11.07,14.83,14.79,33.17,9.06,44.59-3.21,6.39-9.17,9.91-16.79,9.91ZM257.77,693.9c13.66,5.5,19.25,22.06,24.67,38.17,6.37,18.9,12.38,36.75,30.47,36.75,6.52,0,11.4-2.85,14.11-8.25,5.16-10.28,1.46-27.71-8.79-41.45-6.68-8.96-25.36-28.27-60.47-25.22Z"/>
        </g>
      </g>
      <g>
        <path class="cls-14" d="M180.82,764.81c-15.8-32.91-65.79-72.52-95.66-133.37,6.22-72.02-17.49-110.56-63.77-73.09-4.89,6.36-9.89,13.04-13.96,19.41-5.76,9.01-6.68,20.28-2.56,30.14,33.26,79.73,59.68,173.65,129.05,224.63,28.81-21.36,55.64-40.35,46.9-67.73Z"/>
        <path class="cls-17" d="M5.86,596.03c31.53,13.29,72.42,6.89,79.78-.02-.31-45.21-32.81-63.11-64.26-37.65-1.33,1.73-2.85,3.27-4.49,4.68-15.53,13.27-21.21,34.77-13.43,53.66,31.79,77.28,66.56,168.89,130.46,215.84,9.51-7.05,15.52-4.57-10.63-27.73-68.98-61.08-71.5-112.74-117.43-208.78Z"/>
      </g>
      <path class="cls-7" d="M149.86,906.07c-14.16-72.83-16.54-136.94,10.73-176.66-50.25,34.44-50.5,110.3-33.23,199.16,28,137,134,174,134,174-.7-7.47,2.27-17.9,7.23-29.5-30.38-16.01-97.33-62.3-118.73-167Z"/>
      <g>
        <g>
          <path class="cls-10" d="M201.64,406.87c-7.62,44.75-46.19,51.23-75.13,28.73-6.09-4.73-10.57-11.17-11.19-14.98-5.65-34.47,7.94-36.77,19-84.39,10.08-43.99,40-40.81,49.26-27.86,43.01-21.18,67.45-9.44,42.5,20.46,14.1-7.72,29.45,27.61,6.83,32.52,24.26,3.73,3.7,32.34-.68,38.97-8.58,12.98-25.3,13.05-30.59,6.56Z"/>
          <path class="cls-20" d="M222.98,327.87c-9.63,2.97-20.05,4.75-30.86,3.92,6.9,3.61,22.91,1.62,36.01-1.53,16.63,1.25,15.85,27.99,1.11,29.62-5.5,1.17-13.7,1.86-18.36,1.74,2,.9,7.93,2.17,16.41,1.46,23.16.22,11.57,20.36,3.91,34.3-5.64,10.27-23.24,14.65-29.57,5.44.92-3.98,1.14-6.29,1.31-6.96,13.36-.98,19.35-6.66,21.61-11.67-6.78,7.43-16.74,9.55-21.31,9.32.2-1.93.02-4.56-.51-6.7-4.44,18.68-5.28,45.74-31.28,55.22,6.81-20.4,6.52-43.18-21.14-51.93-20.68-6.54-31.99,8.74-36.3,14.62-1.14-26.66,14.99-55.03,20.31-68.47,12.44-31.44,33.24-38.18,44.48-25.83-8.28,2.44-26.74,11.89-29.3,13.81-9,13.1-16.26,42.39-16.41,44.5,5.25-12.9,11.2-33.65,18.78-41.28,39.75-18.84,71-33.55,80.26-18.83.67,8.18-5.1,14.96-9.14,19.27Z"/>
        </g>
        <path class="cls-17" d="M165.21,439.02c-48.05,134.42-27.11,156.44-73.15,198.31-14.19,12.9-40.55,28.08-61.93,25.56-22-18.02-38.42-59.02-19.33-103.8,16.75-39.29,61.78-15.41,103.23-151.79,24.56-33.09,69.67-10.69,51.18,31.73Z"/>
        <path class="cls-14" d="M115.71,410.3c14.73-19.98,65.87-25.53,40.78,35.55-47.24,115.75-21.12,121.71-65.08,176.9-15.06,18.9-40.88,44.02-66.9,30.65-13.74-20.77-33.41-62.87-13.19-95.51,34.02-39.72,65.36-12.14,104.39-147.58Z"/>
      </g>
      <path class="cls-4" d="M135.36,837.57s54-25,49-70l-13-22s-45-53-47-58c0,0-13,60-68,61,0,0,39,75,79,89Z"/>
      <path class="cls-7" d="M79.28,744.19c-6.68,2.61-14.28,4.22-22.92,4.38,0,0,39,75,79,89,0,0,2.26-1.05,5.81-3.1-30.03-17.31-54.15-71.32-61.89-90.28Z"/>
      <path class="cls-17" d="M376.19,833.97s-25.2,39.09-43.36,113.41c-18.06,74.31-16.59,89.23-16.59,89.23,0,0-1.44-67.03,26.23-138.32,27.5-71.2,33.73-64.33,33.73-64.33Z"/>
    </g>
    <path class="cls-6" d="M148.99,36.7c.04-7.13.08-14.27.12-21.4,0-4.98,0-9.96,0-15.3h161.27c.08,5.12.15,10.21.23,15.3.04,7.13.08,14.27.12,21.4,0,5.11,0,10.23,0,15.87-6.29,0-11.91.16-17.51-.06-3.02-.12-4.84.9-6.43,3.48-5.42,8.78-11.03,17.44-16.7,26.06-1.36,2.07-1.88,4.14-1.83,6.55.09,5.16.02,10.32.03,15.48.02,17.77-7.83,30.53-24.14,37.92-.45.21-.88.46-1.72.9.26,1.78.5,3.71.82,5.63,5.24,30.98,10.49,61.97,15.75,92.95,1.22,7.21,2.5,14.42,3.75,21.63-3.66.49-7.31.98-10.97,1.47-6.76-39.92-13.53-79.84-20.28-119.67h-4.78c-6.8,39.98-13.56,79.78-20.32,119.57-3.33-.59-6.67-1.18-10-1.77,3.47-20.66,6.92-41.32,10.41-61.97,3.11-18.36,6.27-36.71,9.38-55.06.16-.96.12-1.96.19-3.1-1.4-.72-2.73-1.36-4.02-2.07-13.35-7.4-20.37-18.71-20.82-33.98-.18-6.15.09-12.32-.11-18.47-.06-1.88-.63-3.97-1.62-5.55-5.63-9.03-11.54-17.9-17.17-26.93-1.42-2.29-3.02-3.12-5.66-3.04-5.65.18-11.3.06-17.57.06-.15-5.41-.29-10.64-.43-15.87ZM203.34,93.86c0,5.84-.56,11.22.12,16.43,1.31,10,7.1,16.88,16.44,20.99,6.73-5.25,13.39-4.05,19.66.13,8.01-3.42,13.25-8.93,15.81-16.79,2.2-6.76,1.07-13.69,1.19-20.76h-53.21Z"/>
    <path class="cls-19" d="M136.02,359.99c-.28.47-.58.76-.53.94.06.21.44.34.68.5-.04-.41-.09-.83-.15-1.45Z"/>
    <path class="cls-3" d="M280.89,300.41c-3.29,2.45-6.58,4.9-10.04,7.48-5.28-2.06-10.66-4.18-16.07-6.25-2.92-1.12-5.88-2.13-8.83-3.18-1.68-10.41-3.37-20.81-5.06-31.3,3.93-.93,7.41-1.76,10.9-2.59,3.66-.49,7.31-.98,10.97-1.47,3.74-.6,7.48-1.19,11.72-1.87,2.19,13.33,4.31,26.25,6.43,39.18Z"/>
    <path class="cls-3" d="M213.29,298.4c-10.3,1.51-19.76,5.56-29.26,9.89-2.13-2-4.18-3.93-6.22-5.86,2.28-13.45,4.57-26.89,6.96-40.94,3.9.4,7.77.8,11.64,1.2,3.33.59,6.67,1.18,10,1.77,3.85.85,7.71,1.69,11.94,2.63-.5,3.16-.97,6.23-1.47,9.3-1.19,7.34-2.39,14.68-3.59,22.01Z"/>
    <path class="cls-11" d="M137.32,328.43c-.43,1.02-.85,2.04-1.28,3.06.43-1.02.85-2.04,1.28-3.06Z"/>
    <path class="cls-11" d="M136.02,359.99c.07.62.11,1.03.15,1.45-.24-.16-.62-.29-.68-.5-.05-.19.25-.48.53-.94Z"/>
    <path class="cls-11" d="M318.35,358.49c.28.67.57,1.34.85,2-.22.06-.45.13-.67.19-.06-.74-.11-1.47-.17-2.21h0Z"/>
  </g>
</svg>