<svg width="5116" height="423" viewBox="0 0 5116 423" fill="none" xmlns="http://www.w3.org/2000/svg">
<g clip-path="url(#clip0_290_361311)">
<rect width="5116" height="423" fill="white"/>
<g clip-path="url(#clip1_290_361311)">
<path opacity="0.8" d="M-19 423.1H5122.2V-17H-19V423.1Z" fill="url(#paint0_linear_290_361311)"/>
<path opacity="0.2" d="M-19 423.1H5122.2V-17H-19V423.1Z" fill="url(#paint1_linear_290_361311)"/>
<path opacity="0.2" d="M3436.3 393.7C3437 392.7 3437.7 391.7 3438.4 390.7C3441.8 385.8 3445.3 381 3448.8 376.3C3449.8 374.9 3450.9 373.5 3451.9 372.1C3455.4 367.5 3458.9 363 3462.4 358.5C3463.3 357.3 3464.3 356.1 3465.2 355C3474.1 343.9 3483.3 333 3492.9 322.5C3494.4 320.9 3495.9 319.3 3497.3 317.7C3500.5 314.2 3503.8 310.7 3507.1 307.2C3508.9 305.3 3510.8 303.3 3512.7 301.4C3515.8 298.2 3518.9 295.1 3522 292C3523.9 290.1 3525.9 288.1 3527.8 286.2C3531.5 282.7 3535.2 279.2 3538.9 275.7C3542 272.8 3545.1 270 3548.3 267.2C3551.3 264.5 3554.4 261.7 3557.5 259.1C3560.3 256.7 3563 254.4 3565.8 252C3568.2 250 3570.6 247.9 3573.1 245.9C3576.1 243.4 3579.2 241 3582.2 238.5C3584.4 236.8 3586.6 235.1 3588.8 233.4C3592.1 230.8 3595.4 228.3 3598.8 225.8C3600.1 224.8 3601.4 223.9 3602.7 223C3610.4 217.3 3618.3 211.7 3626.2 206.3C3627.2 205.6 3628.2 204.9 3629.2 204.2C3649.7 190.4 3670.9 177.6 3692.7 166C3708.8 157.4 3725.8 149.3 3744 147.5C3767.1 145.3 3790.1 153.6 3809.4 166.4L3809.5 166.3C3809.8 165.9 3810 165.5 3810.3 165.1C3811.6 163.1 3812.9 161.1 3814.2 159C3814.3 158.9 3814.3 158.8 3814.4 158.7C3815.8 156.3 3817.2 154 3818.6 151.5C3823 143.7 3827.2 135.7 3831.6 127.8C3832.5 126.1 3833.5 124.5 3834.4 122.8C3841.8 110.1 3850 98.2004 3861.1 88.9004C3892.1 63.0004 3939.2 64.4004 3975.8 81.6004C4012.4 98.8004 4040.8 135.4 4073.4 159.3C4087.6 169.7 4106.2 171.2 4123.7 173.3C4141.2 175.4 4160 179.1 4171.8 192.1C4178.4 199.4 4181.9 208.6 4184.4 218.2C4196.6 214.7 4209.3 213.3 4222 214.9C4253 218.6 4276.3 251.1 4306.3 259.8C4324.7 265.1 4340.4 277.8 4352.5 292.7C4359.3 301 4365.1 310.1 4370.4 319.4C4374.6 326.7 4378.5 334.2 4382.4 341.7C4394.3 364.6 4406.3 387.6 4418.2 410.5C4418.4 405.7 4419.6 399.7 4421.2 393.2C4423.3 387.4 4425.6 381.7 4428.3 376.2C4430.4 369.2 4432.4 362.5 4433.5 357.5C4434.5 352.9 4436.2 349 4440.2 345.9C4446.5 340.9 4452.4 338.9 4457.7 334.3C4459.2 331.6 4460.7 328.9 4461.8 326C4461.9 325.9 4462.1 325.9 4462.2 325.8C4462.2 325.6 4462.2 325.4 4462.1 325.2C4462.6 323.9 4463.1 322.6 4463.5 321.2C4460.7 298.5 4460.2 275.3 4460.2 252.5C4460.2 228 4459.3 203.4 4464.3 179.2C4464.5 178.3 4464.7 177.3 4465.4 176.6C4467.3 174.7 4469.6 178 4471.2 178.7C4474.2 180 4477.6 180.2 4480.5 181.6C4482.9 182.8 4485.3 184 4487.7 185.2C4492.9 187.8 4497.7 190.8 4499.7 196.4C4501.1 200.3 4501.1 204.2 4501.3 208.3C4501.4 209.2 4501.4 210 4501.6 210.7C4501.6 210.8 4501.6 210.8 4501.6 210.9C4501.7 211.6 4501.9 212.4 4502.1 213.1C4502.4 214.1 4502.7 215.1 4503.1 216.2C4503.8 217.9 4504.4 212.3 4504.3 211.2C4503.7 203.2 4502.8 195.4 4502.2 187.4C4501.3 174.5 4499.7 161.1 4499.8 148.1C4499.8 140.7 4502.7 133 4509.2 131.4C4509.3 131.4 4509.5 131.3 4509.6 131.3C4509.9 131.2 4510.2 131.2 4510.6 131.2C4510.9 131.2 4511.1 131.1 4511.4 131.1C4511.7 131.1 4512 131.1 4512.3 131.1C4512.6 131.1 4513 131.1 4513.3 131.2C4513.6 131.2 4513.9 131.3 4514.2 131.3C4514.6 131.4 4515.1 131.5 4515.5 131.6C4515.7 131.7 4516 131.7 4516.2 131.8C4516.9 132 4517.6 132.2 4518.4 132.6C4519 132.8 4519.4 133.2 4519.7 133.5C4527.4 135.5 4535.9 138.5 4543.5 142.5C4547.4 143.8 4551.2 145.2 4555 146.6C4560.4 148 4565.8 149.5 4570.9 151.4C4577 153.7 4582.1 161.8 4580.8 168.4C4581.7 174.5 4581.9 180.9 4581.4 186.8C4582.7 188.1 4584 189.2 4585.4 190.2C4585.2 189.6 4585.1 189 4585 188.3C4584.8 187.6 4584.7 186.9 4584.7 186.2C4584.5 182 4587 178 4590.3 174.7C4590.8 174.2 4591.4 173.6 4592 173.2C4596.6 169.3 4602.3 166.3 4606.3 161.9C4609.8 158 4612.6 152.6 4618.1 151.5C4621.4 150.8 4624.9 152 4628.3 151.5C4631.7 151.1 4636.5 148.6 4634.2 146.2C4634.4 131 4636.2 115.8 4639.8 100.9C4640.5 98.2004 4641.2 95.3004 4643.1 93.1004C4645 90.9004 4650.1 90.0004 4653.1 90.8004C4664.4 88.3004 4676 95.9004 4680.9 105.4C4685.8 114.9 4685.7 125.8 4685.8 136.2C4685.9 146.7 4684.9 157.1 4692.2 165.3C4693.5 166.8 4696.3 166.5 4697.9 165.2C4699.5 163.9 4700.1 161.9 4700.6 160.1C4705.5 143.7 4710.5 127.3 4715.4 111C4716.4 107.5 4717.6 103.9 4720.2 101.3C4722.9 98.6004 4727.9 93.4004 4731.5 94.9004C4738.9 98.0004 4741.2 106.3 4742.5 113.6C4743.9 121.8 4745 130 4745.9 138.3C4746.5 143.9 4747 149.5 4747.4 155.1C4747.5 156.8 4747.6 158.5 4747.7 160.1C4747.8 162.1 4747.9 164.2 4748 166.2C4748.1 167.7 4748.1 169.3 4748.2 170.8C4752.6 169.1 4756.9 167.3 4760.7 165.4C4761.1 165.2 4761.4 165.1 4761.8 164.9C4761.8 162.1 4761.9 159.3 4761.9 156.5C4762 153.9 4762.1 151.2 4762.2 148.6C4762.4 142.4 4762.7 136.2 4762.7 130.1C4768.4 125.5 4776.1 125.7 4783.7 126.3C4788.9 126.7 4792.7 126.1 4796.7 124.8C4797.8 124.5 4798.9 124 4800 123.6C4800.3 123.5 4800.6 123.4 4800.9 123.3C4802 122.9 4803.1 122.4 4804.3 121.9C4804.3 121.4 4804.6 120.9 4805 120.2C4806.1 117.2 4808.1 111.1 4809.3 109.9C4815 103.8 4825.2 102 4834.5 101.9C4838.7 101.9 4842.8 102.2 4846.2 102.6C4847.1 102.7 4848.1 102.9 4849 103C4850.3 103.2 4851.7 103.4 4853 103.6C4864.2 105.5 4875.4 108.2 4886.5 110.3C4886.5 110.3 4886.5 110.3 4886.4 110.3C4886.9 110.4 4887.3 110.5 4887.8 110.6C4893.9 111.8 4899.7 108.1 4905.9 107.4C4908 107.1 4910.1 107.2 4912.1 107.3C4921.1 108 4929.5 112.4 4937.8 116.3C4946.1 120.2 4952.3 129.8 4955.5 137.7C4957.1 141.6 4957.3 145.7 4959.2 149.2C4959.5 149.7 4959.8 150.2 4960.1 150.7C4960.5 151.2 4960.9 151.6 4961.3 152.1C4961.3 152.1 4961.3 152.1 4961.3 152.2C4962.5 153.3 4963.7 154.3 4964.9 155.3L4965 155.4C4965.9 155.3 4966.9 155.5 4967.6 156.1C4969.8 158 4972.1 159.8 4974.4 161.5C4974.8 161.8 4975.3 162 4975.8 162.2C4976.9 162.8 4978 163.4 4979.1 163.9C4980.1 164.4 4981 164.8 4982 165.3C4982.4 165.5 4982.7 165.6 4983.1 165.8C4983.7 166.1 4984.4 166.4 4985 166.7C4990.2 169 4995.6 171.2 5000.9 173.3C5003.2 174.2 5005.5 175.2 5007.8 176.2C5008.1 176.3 5008.3 176.4 5008.6 176.5C5011.1 177.6 5013.6 178.7 5016 179.9C5023 183.4 5027.3 192.4 5028.3 199.6C5030.8 217.7 5036.2 235.7 5035.9 253.9C5035.8 262.3 5035.6 270.8 5039.2 278.6C5040.2 280.7 5041.1 282.8 5042 284.9C5042.3 285.6 5042.6 286.3 5042.9 287.1C5043.5 288.5 5044 289.9 5044.6 291.3C5044.9 292.2 5045.3 293.1 5045.6 293.9C5046.1 295.2 5046.5 296.4 5047 297.7C5047.3 298.6 5047.7 299.6 5048 300.5C5048.4 301.7 5048.8 302.9 5049.2 304.1C5049.5 305.1 5049.8 306.1 5050.2 307.1C5050.6 308.3 5050.9 309.5 5051.3 310.6C5051.6 311.6 5051.9 312.6 5052.2 313.7C5052.5 314.8 5052.9 316 5053.2 317.1C5053.5 318.2 5053.8 319.2 5054.1 320.3C5054.4 321.3 5054.7 322.4 5055 323.4C5055.9 326.5 5056.7 329.6 5057.6 332.6C5059.6 339.7 5062.7 345.7 5070.2 348.7C5083.4 354 5094.7 362.4 5105.9 370.8C5109.8 373.7 5114.6 376.1 5119 378.8C5123.4 381.5 5127.3 384.5 5129.3 388.6C5131.9 394 5133.6 399.8 5134.3 405.6C5135.1 411.4 5134.9 417.4 5133.7 423.2H5108H5085.2H4932.2H4909.1H4882.8H4846.7H4818H4814.4H4778.3H4766.3H4682H4671.6H4623H4615H4578.4H4572.3H4557.7H4549.5H4484H4466.2H4420.4H4418.9H4418.1H4416.3C4416.4 422.5 4416.5 421.9 4416.6 421.2C4416.6 421.1 4416.5 421 4416.5 420.9C4416.7 420 4416.9 419 4417.1 418C4417.4 416 4417.8 414 4418.3 412H4043.7H3959.2H3959H3908.2H3720.5H3424.1C3428 405.7 3432.2 399.7 3436.3 393.7Z" fill="#0A4C1B"/>
<path opacity="0.2" d="M1719.3 420.5C1719.4 420.5 1719.4 420.5 1719.3 420.5C1721.1 418.4 1723.1 416.3 1725 414.2C1725.3 413.9 1725.6 413.5 1725.9 413.2C1727.7 411.3 1729.5 409.4 1731.3 407.5C1731.9 406.9 1732.4 406.3 1733 405.7C1733.4 405.3 1733.7 405 1734 404.6C1791.3 345.7 1887.9 270.9 1921.3 245.299C1943.7 228.199 1967.4 212.5 1990.4 196.1C1991.9 195.1 1993.3 194 1994.8 193C1996.5 191.7 1998.3 190.5 2000 189.2C2003.2 186.899 2006.3 184.5 2009.4 182.1C2010.5 181.3 2011.5 180.5 2012.6 179.6C2015.5 177.4 2018.3 175.099 2021.1 172.899C2021.8 172.299 2022.5 171.799 2023.2 171.2C2026.6 168.399 2029.9 165.6 2033.2 162.7C2034 162 2034.8 161.3 2035.6 160.6C2039 157.6 2042.3 154.5 2045.6 151.3C2088.8 109.3 2126.9 77.5995 2193 84.0995C2225 87.2995 2252 94.1995 2275 107.9C2277.6 109.4 2280.1 111 2282.5 112.7C2297.3 122.8 2310.4 136 2322.2 153.2C2340.7 180.299 2360.8 207.7 2382.7 233.5C2390 242.1 2397.5 250.5 2405.3 258.6C2408.6 262.1 2412.1 265.5 2415.5 268.9C2417.8 271.2 2420.2 273.499 2422.6 275.799C2452.5 304.4 2485.6 330.2 2516.7 357.5C2526.1 365.799 2535.2 374.299 2543.8 382.799C2595 341.199 2676.4 279.7 2677.6 279.6C2679.9 277.9 2682.2 276.3 2684.5 274.7C2710.4 256.2 2737.9 237.9 2768.7 234.2C2775.8 233.3 2783 233.3 2790.1 234C2797.8 234.7 2805.5 236.3 2813 238.5C2813.1 238.5 2813.3 238.6 2813.4 238.6C2817.7 239.9 2822 241.4 2826.2 243.2C2826.4 243.3 2826.6 243.299 2826.7 243.4C2827.8 243.9 2828.9 244.4 2830.1 244.9C2830.7 245.2 2831.3 245.4 2831.8 245.7C2832.8 246.2 2833.8 246.6 2834.8 247.1C2835 247.2 2835.1 247.299 2835.3 247.299C2840.5 238.199 2845.7 229.1 2850.8 220.1C2854.7 213.2 2858.5 206.4 2862.3 199.6C2863.1 198.2 2863.9 196.799 2864.6 195.399C2865.7 193.399 2866.8 191.399 2868 189.399C2869.6 186.599 2871.2 183.8 2872.8 181C2873.5 179.7 2874.3 178.399 2875 177.2C2877.2 173.299 2879.4 169.5 2881.6 165.7C2882.3 164.5 2882.9 163.4 2883.6 162.3C2885.4 159.3 2887.2 156.2 2888.9 153.3C2889.5 152.2 2890.2 151.2 2890.8 150.1C2893.1 146.3 2895.4 142.5 2897.7 138.8C2898.1 138.1 2898.6 137.4 2899.1 136.7C2901 133.6 2903 130.6 2904.9 127.6C2905.6 126.6 2906.2 125.6 2906.9 124.6C2909.3 121 2911.7 117.4 2914.1 114C2916.6 110.3 2919.7 107 2923.2 104C2940.8 88.5995 2968.5 81.7995 2991.3 83.5995C2992.9 83.6995 2994.3 83.8995 2995.8 84.0995C2995.9 84.0995 2996 84.0995 2996.1 84.0995C3026.2 86.3995 3040.3 99.1995 3054.4 118C3061.3 127 3067.3 137.2 3073.2 148.1C3073.7 149 3074.1 149.9 3074.6 150.8C3092.4 184 3108.4 218.1 3123.3 252.5C3136.2 243.4 3149.7 236.5 3164.1 234.3C3190.2 230.4 3216.5 243 3238.5 262.5C3258 279.8 3340.2 376.8 3355.7 406.7L3355.8 406.799C3356.3 407.699 3356.7 408.6 3357 409.4C3357 409.5 3357.1 409.6 3357.1 409.6C3357.5 410.4 3357.7 411.199 3357.9 411.9H3082.8H3046.7H2923.8H2857.5H2706H2571.6C2587.7 429.699 2600.6 445.799 2608.7 457.299H2576.5H2557.4H2509H2490.4H2446.7H2407.5H2383.4H2339.2H2308.8H2294.6H2260.4H2182.5H2129.4H2102.3H2071.5H2039.3H1949H1893.5H1788.4H1736.7H1693H1692.9C1697.6 447 1707 434.4 1719.3 420.5Z" fill="#3C227F"/>
<g opacity="0.2">
<path d="M260.5 188.4C260.3 188.1 260.2 187.9 260 187.6C260.4 188.1 260.9 188.8 261.3 189.3C261.4 189.5 261.4 189.7 261.5 189.9C261.2 189.3 260.8 188.7 260.5 188.4Z" fill="#914199"/>
<path d="M37.1 381.4C39.5 376 42.2 370.9 45.4 366.1C46.8 364.1 48.2 362 49.7 360C49.8 359.8 50 359.7 50.1 359.5C53.3 355.2 56.7 351 60.3 347C62.5 344.6 64.8 342.2 67.2 340C72 335.5 77.1 331.6 82.5 328.3C87.4 325.3 92.6 323 98 321.5C99.9 320.2 102.2 319.5 104.4 318.9C108.3 318 111 317.8 112.8 318.1C114.6 317.6 116.4 316.9 118.2 316.3C126.8 306.8 135.3 297.4 143.9 287.9C143.9 288.1 143.9 288.3 143.9 288.5C148.6 286.7 169.8 283.5 172.2 286.5C192.1 275.8 214.3 264.3 225.2 247.1C229.3 240.6 232.4 233.4 234.6 225.9C235.9 221.4 236.9 216.8 237.6 212.1C240.8 208.3 244.8 204 248.8 199.7C252.8 195.4 256.9 191.2 260 187.3C260.2 187.6 260.3 187.8 260.5 188.1C260.8 188.4 261.1 189 261.5 189.7C261.4 189.5 261.4 189.3 261.3 189.1C267.4 197.1 274.4 207.9 281.2 219.7C281.6 220.3 281.9 220.9 282.3 221.5C282.9 222.6 283.6 223.8 284.2 224.9C284.5 225.4 284.8 225.9 285.1 226.5C285.8 227.8 286.5 229.1 287.2 230.3C287.2 230.4 287.3 230.5 287.3 230.6C289.8 235.3 292.2 240 294.4 244.6V244.7C295.2 246.3 295.9 247.8 296.6 249.4C297.4 251 298.1 252.6 298.8 254.2C299.1 255 299.5 255.7 299.8 256.5C302.3 262.3 304.5 267.9 306.2 273C306.3 273.2 306.4 273.4 306.5 273.5C308.5 277.5 311.2 282.7 314.5 286.7C316.5 282.5 318.7 278.4 321.4 274.6C327.6 266 339.3 254.3 349.2 257C354.1 250.7 359 244.4 363.9 238.2C367.6 233.1 371.4 228.1 375.6 223.3C382 215.2 388.3 207 394.7 198.9C398.1 194.5 403.6 193.9 408.1 191.1C408.2 191 408.3 191 408.4 190.9C409 190.5 409.7 190 410.2 189.5C422.6 178.2 433.6 165.9 448.2 158.4C461.7 151.5 474.5 132.8 475.4 116.9C479.2 126.2 482.1 136.6 485.6 146.3C486.4 148.6 487.3 151 488.2 153.2C489.4 153.9 490.6 154.7 491.8 155.4C492.2 155.6 492.5 155.9 492.9 156.1C493.7 156.7 494.5 157.2 495.3 157.8C495.7 158.1 496.1 158.4 496.4 158.7C497.2 159.3 498 159.9 498.7 160.6C499 160.9 499.3 161.1 499.6 161.4C501.7 163.2 503.7 165.1 505.7 167.1C506 167.4 506.2 167.7 506.5 168C506.9 168.4 507.4 168.9 507.8 169.3C508.1 169.6 508.3 169.9 508.6 170.2C508.9 170.5 509.2 170.8 509.5 171.2C510.2 172 510.9 172.8 511.6 173.6C511.8 173.9 512 174.1 512.3 174.4C514 176.4 515.6 178.5 517.2 180.7C519.4 183.7 521.5 186.8 523.6 189.9C528.2 196.8 532.5 204.1 536.9 211.3C544.5 223.7 552.4 236 562.2 246.3C571.9 256.5 582.1 266.1 590.8 276.6C593.4 279.7 595.8 282.9 598.1 286.3C602.9 288.6 606.3 297.2 608.3 305.4C609.2 307.7 610 310.1 610.7 312.5C612.8 319.9 615.6 328.5 619.3 336.7C620 338.2 620.7 339.7 621.4 341.1C621.8 341.8 622.1 342.6 622.5 343.3C624.4 346.9 626.5 350.3 628.7 353.4C629.2 354 629.6 354.6 630.1 355.2C632.4 358.2 634.9 360.8 637.7 362.9C638.2 363.3 638.8 363.7 639.4 364.1C642.7 366.4 646.4 368 650.3 368.5C651.3 368.6 652.4 368.8 653.4 369.1C657.5 370 661.3 371.7 664.8 373.9C666.1 374.7 667.3 375.6 668.6 376.5C706.3 350.4 748.4 328.6 772.8 290.5C779.7 279.8 788.2 266.4 798.5 256.9C803.2 252.5 808.2 248.8 813.6 246.6C817.7 243.3 824 241.5 829.5 241.9C829.9 241.9 830.2 242 830.5 242C834.8 237.7 839.4 233.6 845 231.4C851.9 228.7 862.6 231.1 867 237.1C890.2 220.4 913.4 203.7 936.6 187C939.2 185.1 941.9 183.2 944.5 181.4C951.1 176.9 957.9 173.2 965.6 172.1C967.1 171.9 968.7 171.8 970.3 171.8C970.4 170.4 971.4 169.3 972.6 168.7C973.3 168.3 974.2 168.1 975 168.1C977.2 168 979.3 169 981.3 170C989.4 174 997.3 179.2 1005.3 184.3C1006.4 185 1007.6 185.7 1008.7 186.5C1017.9 192.2 1027.3 197.5 1037.1 200.5C1047.4 203.6 1057 190.4 1067.3 191.2C1068 191.3 1068.7 191.4 1069.4 191.6C1071.9 192.3 1073.9 193.8 1075.7 195.6C1077.5 197.5 1079 199.7 1080.4 201.8C1083.8 207 1087 212.4 1090.1 217.9C1095.4 211.3 1104.1 208.7 1111.2 204.3C1122.2 197.5 1131.5 188.9 1139.4 179.1C1149.1 165.3 1159.1 151.7 1171.5 141.3C1172.1 140.8 1172.7 140.2 1173.4 139.7C1173.5 139.6 1173.6 139.6 1173.7 139.5C1174.5 138.8 1175.4 138.1 1176.2 137.4C1176.3 137.3 1176.5 137.2 1176.6 137.1C1180.3 133.9 1183.9 130.5 1187.7 127C1188.6 125.8 1189.6 124.7 1190.7 123.6C1191.8 122.4 1193 121.2 1194.3 120C1194.4 120 1194.4 119.9 1194.5 119.9C1194.9 119.6 1195.3 119.3 1195.7 118.9C1195.8 118.8 1195.9 118.7 1196.1 118.6C1196.4 118.3 1196.8 118.1 1197.2 117.8C1197.3 117.7 1197.5 117.6 1197.7 117.5C1198.1 117.2 1198.4 117 1198.8 116.7C1199 116.6 1199.1 116.5 1199.3 116.4C1199.7 116.1 1200.1 115.9 1200.6 115.6C1200.8 115.5 1200.9 115.4 1201.1 115.3C1201.6 115 1202.2 114.7 1202.8 114.3C1202.9 114.3 1202.9 114.2 1203 114.2C1203.7 113.8 1204.3 113.5 1205.1 113.1C1205.2 113.1 1205.2 113 1205.3 113C1210.4 109.8 1215.9 107.5 1221.7 106.8C1222 106.8 1222.3 106.7 1222.6 106.7C1230.8 104.4 1237.4 87.6996 1245 79.7996C1245.6 79.1996 1246.2 78.6996 1246.8 78.1996C1247.2 77.8996 1247.6 77.6996 1247.9 77.3996C1248.2 77.1996 1248.5 76.8996 1248.9 76.7996C1250.2 76.0996 1251.6 75.7996 1253 75.8996C1255.5 76.0996 1259.3 78.0996 1264 81.3996C1267.7 83.9996 1271.9 87.4996 1276.6 91.6996C1278.9 93.7996 1281.3 96.0996 1283.7 98.5996C1284.5 99.3996 1285.3 100.3 1286.1 101.2C1286.6 101.8 1287.2 102.4 1287.7 103C1288 103.3 1288.2 103.6 1288.4 103.9C1289.4 105.2 1290.5 106.5 1291.5 107.8C1298 116.7 1303.4 126.5 1311.1 134.5C1331.8 151.9 1352 169.8 1372.2 187.4C1376.5 191.2 1380.9 194.9 1385.2 198.7C1399.1 181.4 1417.1 155.3 1435.3 162C1442.8 164.7 1448.8 170.3 1454.6 175.8C1488.4 207.5 1521.2 240.7 1556.1 271.2C1590.3 301 1602.8 283.6 1633 257.5C1643.9 247.7 1653.2 243.1 1660.7 258.4C1679.7 296.8 1679.8 316.2 1703.2 352.2C1710.2 362.9 1728 391.3 1725.7 419.4H1679H1327.5H1323.3H1317.3H1289H1203.5H1006.7H940.1H934.3H779.3H726.9H620.1C620.5 418.9 621 418.3 621.4 417.8H607.4H595H591.2H544.7H521.6H504.2H452.6H363.4H340.4H279.2H277.8H272.9H270.8H247.3H198.9H154.8H132H124.3H123.8H60.4H54.8H23.6H2.79999C13.4 405 24.9 392.8 37.1 381.4Z" fill="#914199"/>
<path d="M261.4 189.3C261 188.7 260.5 188.1 260.1 187.6C260.6 187.8 261 188.4 261.4 189.3Z" fill="#914199"/>
</g>
</g>
</g>
<defs>
<linearGradient id="paint0_linear_290_361311" x1="5122.19" y1="203.047" x2="-19" y2="203.047" gradientUnits="userSpaceOnUse">
<stop stop-color="#00A651"/>
<stop offset="0.5075" stop-color="#662D91"/>
<stop offset="1" stop-color="#EE2A7B"/>
</linearGradient>
<linearGradient id="paint1_linear_290_361311" x1="2551.6" y1="393.283" x2="2551.6" y2="-26.6331" gradientUnits="userSpaceOnUse">
<stop offset="0.000326339" stop-color="white"/>
<stop offset="1" stop-color="white" stop-opacity="0"/>
</linearGradient>
<clipPath id="clip0_290_361311">
<rect width="5116" height="423" fill="white"/>
</clipPath>
<clipPath id="clip1_290_361311">
<rect width="5154.4" height="474.2" fill="white" transform="translate(-19 -17)"/>
</clipPath>
</defs>
</svg>
