<svg width="5155" height="423" viewBox="0 0 5155 423" fill="none" xmlns="http://www.w3.org/2000/svg">
<g clip-path="url(#clip0_235_11479)">
<path opacity="0.8" d="M5155 -17H0.234833V423.842H5155V-17Z" fill="url(#paint0_linear_235_11479)"/>
<path opacity="0.2" d="M5155 -17H0.234833V423.842H5155V-17Z" fill="url(#paint1_linear_235_11479)"/>
<path opacity="0.2" d="M1690.58 394.393C1689.88 393.391 1689.18 392.389 1688.48 391.388C1685.07 386.479 1681.56 381.671 1678.05 376.963C1677.05 375.561 1675.94 374.159 1674.94 372.756C1671.43 368.148 1667.92 363.641 1664.41 359.133C1663.51 357.931 1662.51 356.729 1661.61 355.627C1652.68 344.509 1643.46 333.59 1633.83 323.073C1632.33 321.47 1630.83 319.867 1629.42 318.264C1626.21 314.759 1622.9 311.253 1619.6 307.747C1617.79 305.844 1615.89 303.84 1613.98 301.937C1610.87 298.732 1607.77 295.626 1604.66 292.521C1602.75 290.618 1600.75 288.615 1598.84 286.711C1595.13 283.205 1591.42 279.7 1587.71 276.194C1584.6 273.289 1581.5 270.484 1578.29 267.679C1575.28 264.975 1572.17 262.17 1569.06 259.566C1566.26 257.162 1563.55 254.858 1560.74 252.454C1558.34 250.45 1555.93 248.347 1553.42 246.343C1550.41 243.839 1547.31 241.435 1544.3 238.931C1542.09 237.228 1539.89 235.525 1537.68 233.822C1534.37 231.218 1531.06 228.714 1527.65 226.209C1526.35 225.208 1525.05 224.306 1523.74 223.405C1516.02 217.695 1508.1 212.086 1500.18 206.677C1499.18 205.975 1498.18 205.274 1497.17 204.573C1476.62 190.75 1455.36 177.928 1433.51 166.309C1417.36 157.694 1400.32 149.58 1382.07 147.777C1358.91 145.574 1335.85 153.888 1316.5 166.709L1316.4 166.609C1316.1 166.208 1315.9 165.808 1315.6 165.407C1314.29 163.404 1312.99 161.4 1311.69 159.297C1311.59 159.197 1311.59 159.096 1311.49 158.996C1310.08 156.592 1308.68 154.288 1307.27 151.784C1302.86 143.971 1298.65 135.957 1294.24 128.044C1293.34 126.341 1292.34 124.739 1291.43 123.036C1284.01 110.314 1275.79 98.3942 1264.66 89.0785C1233.58 63.1348 1186.36 64.5372 1149.66 81.7662C1112.96 98.9952 1084.49 135.657 1051.8 159.597C1037.56 170.015 1018.92 171.517 1001.37 173.621C983.823 175.724 964.974 179.431 953.142 192.453C946.525 199.765 943.016 208.98 940.509 218.597C928.277 215.091 915.544 213.688 902.81 215.291C871.728 218.997 848.367 251.552 818.288 260.267C799.839 265.576 784.098 278.297 771.966 293.222C765.148 301.536 759.332 310.652 754.018 319.967C749.807 327.28 745.897 334.792 741.987 342.305C730.055 365.244 718.024 388.282 706.092 411.221C705.892 406.413 704.689 400.403 703.084 393.892C700.979 388.082 698.673 382.372 695.966 376.863C693.86 369.851 691.855 363.14 690.752 358.132C689.749 353.524 688.045 349.617 684.034 346.512C677.718 341.504 671.802 339.5 666.488 334.892C664.984 332.188 663.48 329.483 662.377 326.578C662.277 326.478 662.076 326.478 661.976 326.378C661.976 326.178 661.976 325.977 662.076 325.777C661.575 324.475 661.074 323.173 660.673 321.77C663.48 299.032 663.982 275.793 663.982 252.954C663.982 228.413 664.884 203.772 659.871 179.531C659.67 178.629 659.47 177.628 658.768 176.926C656.863 175.023 654.557 178.329 652.953 179.03C649.945 180.332 646.536 180.533 643.628 181.935C641.222 183.137 638.815 184.339 636.409 185.541C631.195 188.145 626.383 191.15 624.377 196.76C622.974 200.666 622.974 204.573 622.773 208.68C622.673 209.581 622.673 210.383 622.472 211.084C622.472 211.184 622.472 211.184 622.472 211.284C622.372 211.985 622.171 212.787 621.971 213.488C621.67 214.49 621.369 215.491 620.968 216.593C620.266 218.296 619.665 212.687 619.765 211.585C620.367 203.571 621.269 195.758 621.871 187.745C622.773 174.823 624.377 161.4 624.277 148.378C624.277 140.966 621.369 133.253 614.852 131.65C614.752 131.65 614.551 131.55 614.451 131.55C614.15 131.45 613.85 131.45 613.448 131.45C613.148 131.45 612.947 131.35 612.646 131.35C612.346 131.35 612.045 131.35 611.744 131.35C611.443 131.35 611.042 131.35 610.741 131.45C610.441 131.45 610.14 131.55 609.839 131.55C609.438 131.65 608.937 131.75 608.536 131.851C608.335 131.951 608.034 131.951 607.834 132.051C607.132 132.251 606.43 132.452 605.628 132.852C605.026 133.053 604.625 133.453 604.325 133.754C596.604 135.757 588.082 138.762 580.462 142.769C576.551 144.071 572.741 145.473 568.931 146.876C563.517 148.278 558.103 149.781 552.989 151.684C546.873 153.988 541.76 162.101 543.063 168.713C542.161 174.823 541.96 181.234 542.462 187.144C541.158 188.446 539.855 189.548 538.451 190.549C538.652 189.948 538.752 189.347 538.852 188.646C539.053 187.945 539.153 187.244 539.153 186.543C539.354 182.336 536.847 178.329 533.538 175.023C533.037 174.522 532.435 173.921 531.834 173.521C527.222 169.614 521.507 166.609 517.496 162.202C513.987 158.295 511.179 152.886 505.665 151.784C502.356 151.083 498.847 152.285 495.438 151.784C492.029 151.383 487.216 148.879 489.522 146.475C489.322 131.25 487.517 116.024 483.908 101.099C483.206 98.3942 482.504 95.4893 480.599 93.2856C478.694 91.0819 473.58 90.1803 470.573 90.9817C459.243 88.4775 447.612 96.0903 442.699 105.606C437.786 115.122 437.887 126.041 437.786 136.458C437.686 146.976 438.689 157.394 431.369 165.607C430.066 167.11 427.259 166.809 425.654 165.507C424.05 164.205 423.449 162.202 422.947 160.399C418.034 143.971 413.021 127.543 408.108 111.216C407.106 107.71 405.902 104.104 403.296 101.499C400.588 98.7949 395.575 93.5861 391.966 95.0886C384.546 98.1938 382.24 106.508 380.937 113.82C379.533 122.034 378.43 130.248 377.528 138.562C376.926 144.171 376.425 149.781 376.024 155.39C375.923 157.093 375.823 158.796 375.723 160.399C375.623 162.402 375.522 164.506 375.422 166.509C375.322 168.011 375.322 169.614 375.222 171.117C370.81 169.414 366.499 167.611 362.689 165.708C362.288 165.507 361.987 165.407 361.586 165.207C361.586 162.402 361.485 159.597 361.485 156.793C361.385 154.188 361.285 151.484 361.185 148.879C360.984 142.669 360.683 136.458 360.683 130.348C354.968 125.74 347.248 125.941 339.628 126.542C334.414 126.942 330.604 126.341 326.594 125.039C325.491 124.739 324.388 124.238 323.285 123.837C322.984 123.737 322.683 123.637 322.383 123.537C321.28 123.136 320.177 122.635 318.974 122.134C318.974 121.633 318.673 121.132 318.272 120.431C317.169 117.426 315.164 111.316 313.96 110.114C308.245 104.004 298.018 102.201 288.694 102.1C284.483 102.1 280.372 102.401 276.963 102.802C276.061 102.902 275.058 103.102 274.156 103.202C272.852 103.403 271.449 103.603 270.145 103.803C258.916 105.706 247.686 108.411 236.557 110.515C236.557 110.515 236.557 110.515 236.657 110.515C236.156 110.615 235.755 110.715 235.253 110.815C229.137 112.017 223.322 108.311 217.106 107.61C215 107.309 212.894 107.409 210.889 107.51C201.865 108.211 193.443 112.618 185.121 116.525C176.799 120.431 170.583 130.047 167.375 137.961C165.77 141.867 165.57 145.974 163.665 149.48C163.364 149.981 163.063 150.482 162.763 150.983C162.361 151.484 161.96 151.884 161.559 152.385C161.559 152.385 161.559 152.385 161.559 152.485C160.356 153.587 159.153 154.589 157.95 155.591L157.85 155.691C156.947 155.59 155.945 155.791 155.243 156.392C153.037 158.295 150.731 160.098 148.425 161.801C148.024 162.101 147.522 162.302 147.021 162.502C145.918 163.103 144.815 163.704 143.712 164.205C142.71 164.706 141.807 165.107 140.805 165.607C140.404 165.808 140.103 165.908 139.702 166.108C139.1 166.409 138.398 166.709 137.797 167.01C132.583 169.314 127.169 171.517 121.855 173.621C119.549 174.522 117.243 175.524 114.937 176.526C114.636 176.626 114.435 176.726 114.135 176.826C111.628 177.928 109.121 179.03 106.715 180.232C99.6966 183.738 95.3852 192.753 94.3826 199.965C91.876 218.096 86.4617 236.126 86.7625 254.357C86.8628 262.771 87.0633 271.285 83.4538 279.099C82.4512 281.202 81.5488 283.306 80.6464 285.409C80.3456 286.11 80.0449 286.812 79.7441 287.613C79.1425 289.015 78.6412 290.418 78.0396 291.82C77.7388 292.721 77.3377 293.623 77.0369 294.424C76.5356 295.727 76.1346 296.929 75.6332 298.231C75.3325 299.132 74.9314 300.134 74.6306 301.035C74.2296 302.237 73.8285 303.44 73.4274 304.642C73.1266 305.643 72.8259 306.645 72.4248 307.647C72.0237 308.849 71.723 310.051 71.3219 311.153C71.0211 312.154 70.7203 313.156 70.4195 314.258C70.1187 315.36 69.7177 316.562 69.4169 317.663C69.1161 318.765 68.8153 319.767 68.5145 320.869C68.2137 321.871 67.9129 322.972 67.6121 323.974C66.7098 327.079 65.9077 330.185 65.0053 333.19C63 340.302 59.8918 346.312 52.372 349.317C39.1372 354.626 27.8074 363.04 16.5778 371.454C12.6676 374.359 7.85489 376.763 3.44328 379.468C-0.968331 382.172 -4.87862 385.177 -6.8839 389.284C-9.49076 394.693 -11.1952 400.503 -11.8971 406.313C-12.6992 412.123 -12.4987 418.133 -11.2955 423.942H14.4723H37.3325H190.736H213.897H239.665H275.86H305.338H308.947H345.142H357.174H441.797H452.224H500.852H508.873H545.57H551.686H566.325H574.546H640.219H658.066H703.987H705.491H706.293H708.098C707.997 423.241 707.897 422.64 707.797 421.939C707.797 421.839 707.897 421.739 707.897 421.639C707.697 420.737 707.496 419.735 707.296 418.734C706.995 416.73 706.594 414.727 706.092 412.724H1081.68H1166.4H1166.6H1217.54H1405.73H1702.92C1698.9 406.413 1694.79 400.403 1690.58 394.393Z" fill="#0B236D"/>
<path opacity="0.2" d="M3412.11 421.238C3410.31 419.135 3408.3 417.031 3406.4 414.928C3406.1 414.627 3405.8 414.227 3405.5 413.926C3403.69 412.023 3401.89 410.12 3400.08 408.216C3399.48 407.615 3398.98 407.014 3398.38 406.413C3397.98 406.013 3397.68 405.712 3397.37 405.312C3339.92 346.312 3243.07 271.386 3209.58 245.743C3187.12 228.614 3163.36 212.887 3140.3 196.46C3138.79 195.458 3137.39 194.356 3135.89 193.355C3134.18 192.052 3132.38 190.85 3130.67 189.548C3127.46 187.244 3124.36 184.84 3121.25 182.436C3120.15 181.635 3119.14 180.833 3118.04 179.932C3115.13 177.728 3112.32 175.424 3109.52 173.221C3108.82 172.62 3108.11 172.119 3107.41 171.518C3104 168.713 3100.69 165.908 3097.39 163.003C3096.58 162.302 3095.78 161.601 3094.98 160.9C3091.57 157.895 3088.26 154.79 3084.95 151.584C3041.64 109.513 3003.44 77.7599 2937.16 84.2709C2905.08 87.4763 2878.01 94.3879 2854.95 108.111C2852.34 109.614 2849.83 111.216 2847.43 112.919C2832.59 123.036 2819.45 136.258 2807.62 153.487C2789.07 180.633 2768.92 208.079 2746.96 233.923C2739.64 242.537 2732.12 250.952 2724.3 259.065C2720.99 262.571 2717.49 265.977 2714.08 269.383C2711.77 271.687 2709.36 273.99 2706.96 276.294C2676.98 304.943 2643.79 330.786 2612.61 358.132C2603.18 366.446 2594.06 374.96 2585.44 383.475C2534.1 341.805 2452.49 280.201 2451.29 280.101C2448.98 278.398 2446.67 276.795 2444.37 275.192C2418.4 256.661 2390.83 238.33 2359.94 234.624C2352.83 233.723 2345.61 233.723 2338.49 234.424C2330.77 235.125 2323.05 236.728 2315.53 238.931C2315.43 238.931 2315.23 239.032 2315.13 239.032C2310.82 240.334 2306.5 241.836 2302.29 243.639C2302.09 243.739 2301.89 243.739 2301.79 243.84C2300.69 244.34 2299.59 244.841 2298.38 245.342C2297.78 245.643 2297.18 245.843 2296.68 246.144C2295.68 246.644 2294.67 247.045 2293.67 247.546C2293.47 247.646 2293.37 247.746 2293.17 247.746C2287.96 238.631 2282.74 229.515 2277.63 220.5C2273.72 213.589 2269.91 206.777 2266.1 199.966C2265.3 198.563 2264.49 197.161 2263.79 195.759C2262.69 193.755 2261.59 191.752 2260.38 189.748C2258.78 186.944 2257.17 184.139 2255.57 181.334C2254.87 180.032 2254.07 178.73 2253.36 177.528C2251.16 173.621 2248.95 169.815 2246.75 166.009C2246.05 164.806 2245.44 163.705 2244.74 162.603C2242.94 159.598 2241.13 156.492 2239.43 153.588C2238.83 152.486 2238.12 151.484 2237.52 150.382C2235.22 146.576 2232.91 142.769 2230.6 139.063C2230.2 138.362 2229.7 137.661 2229.2 136.96C2227.3 133.854 2225.29 130.849 2223.39 127.844C2222.68 126.843 2222.08 125.841 2221.38 124.839C2218.97 121.233 2216.57 117.627 2214.16 114.221C2211.65 110.515 2208.55 107.209 2205.04 104.204C2187.39 88.7785 2159.62 81.967 2136.76 83.77C2135.15 83.8702 2133.75 84.0705 2132.25 84.2709C2132.15 84.2709 2132.05 84.2709 2131.94 84.2709C2101.77 86.5747 2087.63 99.3963 2073.49 118.228C2066.57 127.243 2060.56 137.46 2054.64 148.379C2054.14 149.28 2053.74 150.182 2053.24 151.083C2035.39 184.339 2019.35 218.497 2004.41 252.955C1991.48 243.84 1977.94 236.928 1963.5 234.724C1937.33 230.818 1910.96 243.439 1888.91 262.972C1869.35 280.301 1786.94 377.465 1771.4 407.415L1771.3 407.515C1770.79 408.417 1770.39 409.318 1770.09 410.12C1770.09 410.22 1769.99 410.32 1769.99 410.32C1769.59 411.121 1769.39 411.923 1769.19 412.624H2045.02H2081.21H2204.44H2270.91H2422.81H2557.56C2541.42 430.454 2528.49 446.581 2520.37 458.1H2552.65H2571.8H2620.33H2638.98H2682.79H2722.1H2746.26H2790.58H2821.06H2835.3H2869.59H2947.69H3000.93H3028.1H3058.98H3091.27H3181.81H3237.45H3342.83H3394.67H3438.48H3438.58C3433.87 447.783 3424.55 435.162 3412.11 421.238Z" fill="#6B2F07"/>
<g opacity="0.2">
<path d="M4874.76 174.723C4874.96 174.423 4875.06 174.222 4875.26 173.922C4874.86 174.423 4874.36 175.124 4873.96 175.625C4873.86 175.825 4873.86 176.025 4873.76 176.226C4874.16 175.625 4874.46 175.024 4874.76 174.723Z" fill="#0E3804"/>
<path d="M5098.75 368.049C5096.35 362.64 5093.64 357.531 5090.43 352.723C5089.03 350.72 5087.62 348.616 5086.12 346.613C5086.02 346.412 5085.82 346.312 5085.72 346.112C5082.51 341.805 5079.1 337.598 5075.49 333.591C5073.29 331.187 5070.98 328.783 5068.57 326.579C5063.76 322.071 5058.65 318.165 5053.23 314.859C5048.32 311.854 5043.11 309.55 5037.69 308.048C5035.79 306.746 5033.48 306.044 5031.27 305.443C5027.36 304.542 5024.66 304.342 5022.85 304.642C5021.05 304.141 5019.24 303.44 5017.44 302.839C5008.82 293.323 5000.29 283.907 4991.67 274.391C4991.67 274.591 4991.67 274.792 4991.67 274.992C4986.96 273.189 4965.7 269.984 4963.3 272.989C4943.34 262.271 4921.08 250.751 4910.16 233.522C4906.05 227.011 4902.94 219.799 4900.73 212.286C4899.43 207.779 4898.42 203.171 4897.72 198.463C4894.51 194.657 4890.5 190.35 4886.49 186.042C4882.48 181.735 4878.37 177.528 4875.26 173.621C4875.06 173.922 4874.96 174.122 4874.76 174.423C4874.46 174.723 4874.16 175.324 4873.76 176.025C4873.86 175.825 4873.86 175.625 4873.96 175.424C4867.84 183.438 4860.83 194.256 4854.01 206.076C4853.61 206.677 4853.31 207.278 4852.91 207.879C4852.3 208.981 4851.6 210.183 4851 211.285C4850.7 211.786 4850.4 212.286 4850.1 212.887C4849.4 214.19 4848.69 215.492 4847.99 216.694C4847.99 216.794 4847.89 216.894 4847.89 216.994C4845.39 221.702 4842.98 226.41 4840.77 231.018V231.118C4839.97 232.721 4839.27 234.223 4838.57 235.826C4837.76 237.429 4837.06 239.032 4836.36 240.634C4836.06 241.436 4835.66 242.137 4835.36 242.938C4832.85 248.748 4830.65 254.357 4828.94 259.466C4828.84 259.666 4828.74 259.867 4828.64 259.967C4826.64 263.974 4823.93 269.182 4820.62 273.189C4818.61 268.982 4816.41 264.875 4813.7 261.069C4807.49 252.454 4795.75 240.734 4785.83 243.439C4780.92 237.128 4776 230.818 4771.09 224.607C4767.38 219.499 4763.57 214.49 4759.36 209.682C4752.94 201.568 4746.63 193.355 4740.21 185.241C4736.8 180.834 4731.28 180.233 4726.77 177.428C4726.67 177.328 4726.57 177.328 4726.47 177.227C4725.87 176.827 4725.17 176.326 4724.67 175.825C4712.23 164.506 4701.21 152.185 4686.57 144.673C4673.03 137.761 4660.2 119.029 4659.3 103.103C4655.49 112.418 4652.58 122.836 4649.07 132.552C4648.27 134.856 4647.36 137.26 4646.46 139.464C4645.26 140.165 4644.06 140.966 4642.85 141.668C4642.45 141.868 4642.15 142.168 4641.75 142.369C4640.95 142.97 4640.15 143.471 4639.34 144.072C4638.94 144.372 4638.54 144.673 4638.24 144.973C4637.44 145.574 4636.64 146.175 4635.93 146.876C4635.63 147.177 4635.33 147.377 4635.03 147.678C4632.93 149.481 4630.92 151.384 4628.92 153.387C4628.61 153.688 4628.41 153.988 4628.11 154.289C4627.71 154.689 4627.21 155.19 4626.81 155.591C4626.51 155.892 4626.31 156.192 4626.01 156.493C4625.71 156.793 4625.41 157.094 4625.11 157.494C4624.4 158.296 4623.7 159.097 4623 159.898C4622.8 160.199 4622.6 160.399 4622.3 160.7C4620.59 162.703 4618.99 164.807 4617.39 167.01C4615.18 170.015 4613.07 173.121 4610.97 176.226C4606.36 183.137 4602.04 190.45 4597.63 197.662C4590.01 210.083 4582.09 222.404 4572.27 232.721C4562.54 242.938 4552.31 252.554 4543.59 263.072C4540.98 266.177 4538.58 269.383 4536.27 272.788C4531.46 275.092 4528.05 283.707 4526.04 291.921C4525.14 294.224 4524.34 296.629 4523.64 299.033C4521.53 306.445 4518.73 315.06 4515.02 323.273C4514.31 324.776 4513.61 326.278 4512.91 327.681C4512.51 328.382 4512.21 329.183 4511.81 329.885C4509.9 333.491 4507.8 336.896 4505.59 340.002C4505.09 340.603 4504.69 341.204 4504.19 341.805C4501.88 344.81 4499.37 347.414 4496.57 349.518C4496.07 349.918 4495.46 350.319 4494.86 350.72C4491.55 353.024 4487.84 354.626 4483.93 355.127C4482.93 355.227 4481.83 355.428 4480.83 355.728C4476.72 356.63 4472.91 358.332 4469.4 360.536C4468.09 361.337 4466.89 362.239 4465.59 363.141C4427.79 336.997 4385.58 315.16 4361.11 276.995C4354.19 266.277 4345.67 252.855 4335.34 243.339C4330.63 238.931 4325.62 235.225 4320.2 233.021C4316.09 229.716 4309.78 227.913 4304.26 228.313C4303.86 228.313 4303.56 228.414 4303.26 228.414C4298.95 224.106 4294.34 219.999 4288.72 217.796C4281.8 215.091 4271.07 217.495 4266.66 223.505C4243.4 206.777 4220.14 190.049 4196.88 173.321C4194.27 171.418 4191.56 169.514 4188.96 167.711C4182.34 163.204 4175.52 159.498 4167.8 158.396C4166.3 158.195 4164.69 158.095 4163.09 158.095C4162.99 156.693 4161.99 155.591 4160.78 154.99C4160.08 154.589 4159.18 154.389 4158.38 154.389C4156.17 154.289 4154.07 155.29 4152.06 156.292C4143.94 160.299 4136.02 165.508 4128 170.616C4126.89 171.317 4125.69 172.019 4124.59 172.82C4115.36 178.53 4105.94 183.839 4096.11 186.844C4085.79 189.949 4076.16 176.727 4065.83 177.528C4065.13 177.628 4064.43 177.728 4063.73 177.929C4061.22 178.63 4059.22 180.132 4057.41 181.935C4055.61 183.839 4054.1 186.042 4052.7 188.146C4049.29 193.355 4046.08 198.764 4042.97 204.273C4037.66 197.662 4028.94 195.057 4021.82 190.65C4010.79 183.839 4001.46 175.224 3993.54 165.408C3983.82 151.584 3973.79 137.961 3961.36 127.544C3960.76 127.043 3960.16 126.442 3959.45 125.941C3959.35 125.841 3959.25 125.841 3959.15 125.741C3958.35 125.04 3957.45 124.338 3956.65 123.637C3956.55 123.537 3956.35 123.437 3956.25 123.337C3952.54 120.131 3948.93 116.726 3945.12 113.22C3944.21 112.018 3943.21 110.916 3942.11 109.814C3941.01 108.612 3939.8 107.41 3938.5 106.208C3938.4 106.208 3938.4 106.108 3938.3 106.108C3937.9 105.807 3937.5 105.507 3937.09 105.106C3936.99 105.006 3936.89 104.906 3936.69 104.805C3936.39 104.505 3935.99 104.305 3935.59 104.004C3935.49 103.904 3935.29 103.804 3935.09 103.704C3934.69 103.403 3934.39 103.203 3933.99 102.902C3933.79 102.802 3933.69 102.702 3933.49 102.602C3933.08 102.301 3932.68 102.101 3932.18 101.8C3931.98 101.7 3931.88 101.6 3931.68 101.5C3931.18 101.199 3930.58 100.899 3929.98 100.498C3929.88 100.498 3929.88 100.398 3929.78 100.398C3929.07 99.9974 3928.47 99.6969 3927.67 99.2962C3927.57 99.2962 3927.57 99.196 3927.47 99.196C3922.36 95.9906 3916.84 93.6867 3911.03 92.9856C3910.73 92.9856 3910.42 92.8854 3910.12 92.8854C3901.9 90.5815 3895.28 73.8533 3887.66 65.94C3887.06 65.339 3886.46 64.8381 3885.86 64.3373C3885.46 64.0368 3885.06 63.8365 3884.76 63.536C3884.46 63.3356 3884.16 63.0351 3883.75 62.9349C3882.45 62.2338 3881.05 61.9333 3879.64 62.0334C3877.14 62.2338 3873.33 64.2371 3868.61 67.5427C3864.9 70.1471 3860.69 73.653 3855.98 77.8601C3853.68 79.9636 3851.27 82.2675 3848.86 84.7717C3848.06 85.5731 3847.26 86.4746 3846.46 87.3761C3845.96 87.9771 3845.35 88.5781 3844.85 89.1791C3844.55 89.4797 3844.35 89.7802 3844.15 90.0807C3843.15 91.3829 3842.04 92.6851 3841.04 93.9872C3834.52 102.902 3829.11 112.719 3821.39 120.732C3800.64 138.162 3780.38 156.092 3760.13 173.722C3755.82 177.528 3751.41 181.234 3747.09 185.041C3733.16 167.711 3715.11 141.567 3696.86 148.279C3689.34 150.983 3683.33 156.593 3677.51 162.102C3643.62 193.855 3610.74 227.111 3575.74 257.663C3541.45 287.513 3528.92 270.084 3498.64 243.94C3487.71 234.123 3478.39 229.515 3470.87 244.841C3451.82 283.306 3451.72 302.739 3428.26 338.8C3421.24 349.518 3403.39 377.966 3405.7 406.113H3452.52H3804.95H3809.16H3815.17H3843.55H3929.27H4126.59H4193.37H4199.18H4354.59H4407.13H4514.61C4514.21 405.612 4513.71 405.011 4513.31 404.51H4527.35H4539.78H4543.59H4590.21H4613.37H4630.82H4682.56H4771.99H4795.05H4856.41H4857.82H4862.73H4864.84H4888.4H4936.93H4981.14H5004H5011.72H5012.22H5075.79H5081.41H5112.69H5133.54C5122.51 391.689 5110.98 379.468 5098.75 368.049Z" fill="#0E3804"/>
<path d="M4873.96 175.625C4874.36 175.024 4874.86 174.423 4875.26 173.922C4874.76 174.122 4874.26 174.723 4873.96 175.625Z" fill="#0E3804"/>
</g>
</g>
<defs>
<linearGradient id="paint0_linear_235_11479" x1="0.27925" y1="203.419" x2="5155.04" y2="203.419" gradientUnits="userSpaceOnUse">
<stop stop-color="#4AB6FF"/>
<stop offset="0.5075" stop-color="#F7941D"/>
<stop offset="1" stop-color="#489D4A"/>
</linearGradient>
<linearGradient id="paint1_linear_235_11479" x1="2577.66" y1="393.975" x2="2577.66" y2="-26.6493" gradientUnits="userSpaceOnUse">
<stop offset="0.000326339" stop-color="white"/>
<stop offset="1" stop-color="white" stop-opacity="0"/>
</linearGradient>
<clipPath id="clip0_235_11479">
<rect width="5168" height="475" fill="white" transform="translate(-13 -17)"/>
</clipPath>
</defs>
</svg>
