<svg width="5116" height="423" viewBox="0 0 5116 423" fill="none" xmlns="http://www.w3.org/2000/svg">
<g clip-path="url(#clip0_398_126370)">
<rect width="5116" height="423" fill="white"/>
<g clip-path="url(#clip1_398_126370)">
<path opacity="0.8" d="M5118.2 -11.1016H-23V428.998H5118.2V-11.1016Z" fill="url(#paint0_linear_398_126370)"/>
<path opacity="0.2" d="M1693.18 416.599C1692.48 415.599 1691.78 414.599 1691.08 413.599C1687.68 408.699 1684.18 403.899 1680.68 399.199C1679.68 397.799 1678.58 396.399 1677.58 394.999C1674.08 390.399 1670.58 385.899 1667.08 381.399C1666.18 380.199 1665.18 378.999 1664.28 377.899C1655.38 366.799 1646.18 355.899 1636.58 345.399C1635.08 343.799 1633.58 342.199 1632.18 340.599C1628.98 337.099 1625.68 333.599 1622.38 330.099C1620.58 328.199 1618.68 326.199 1616.78 324.299C1613.68 321.099 1610.58 317.999 1607.48 314.899C1605.58 312.999 1603.58 310.999 1601.68 309.099C1597.98 305.599 1594.28 302.099 1590.58 298.599C1587.48 295.699 1584.38 292.899 1581.18 290.099C1578.18 287.399 1575.08 284.599 1571.98 281.999C1569.18 279.599 1566.48 277.299 1563.68 274.899C1561.28 272.899 1558.88 270.799 1556.38 268.799C1553.38 266.299 1550.28 263.899 1547.28 261.399C1545.08 259.699 1542.88 257.999 1540.68 256.299C1537.38 253.699 1534.08 251.199 1530.68 248.699C1529.38 247.699 1528.08 246.799 1526.78 245.899C1519.08 240.199 1511.18 234.599 1503.28 229.199C1502.28 228.499 1501.28 227.799 1500.28 227.099C1479.78 213.299 1458.58 200.499 1436.78 188.899C1420.68 180.299 1403.68 172.199 1385.48 170.399C1362.38 168.199 1339.38 176.499 1320.08 189.299L1319.98 189.199C1319.68 188.799 1319.48 188.399 1319.18 187.999C1317.88 185.999 1316.58 183.999 1315.28 181.899C1315.18 181.799 1315.18 181.699 1315.08 181.599C1313.68 179.199 1312.28 176.899 1310.88 174.399C1306.48 166.599 1302.28 158.599 1297.88 150.699C1296.98 148.999 1295.98 147.399 1295.08 145.699C1287.68 132.999 1279.48 121.099 1268.38 111.799C1237.38 85.8988 1190.28 87.2988 1153.68 104.499C1117.08 121.699 1088.68 158.299 1056.08 182.199C1041.88 192.599 1023.28 194.099 1005.78 196.199C988.28 198.299 969.48 201.999 957.68 214.999C951.08 222.299 947.58 231.499 945.08 241.099C932.88 237.599 920.18 236.199 907.48 237.799C876.48 241.499 853.18 273.999 823.18 282.699C804.78 287.999 789.08 300.699 776.98 315.599C770.18 323.899 764.38 332.999 759.08 342.299C754.88 349.599 750.98 357.099 747.08 364.599C735.18 387.499 723.18 410.499 711.28 433.399C711.08 428.599 709.88 422.599 708.28 416.099C706.18 410.299 703.88 404.599 701.18 399.099C699.08 392.099 697.08 385.399 695.98 380.399C694.98 375.799 693.28 371.899 689.28 368.799C682.98 363.799 677.08 361.799 671.78 357.199C670.28 354.499 668.78 351.799 667.68 348.899C667.58 348.799 667.38 348.799 667.28 348.699C667.28 348.499 667.28 348.299 667.38 348.099C666.88 346.799 666.38 345.499 665.98 344.099C668.78 321.399 669.28 298.199 669.28 275.399C669.28 250.899 670.18 226.299 665.18 202.099C664.98 201.199 664.78 200.199 664.08 199.499C662.18 197.599 659.88 200.899 658.28 201.599C655.28 202.899 651.88 203.099 648.98 204.499C646.58 205.699 644.18 206.899 641.78 208.099C636.58 210.699 631.78 213.699 629.78 219.299C628.38 223.199 628.38 227.099 628.18 231.199C628.08 232.099 628.08 232.899 627.88 233.599C627.88 233.699 627.88 233.699 627.88 233.799C627.78 234.499 627.58 235.299 627.38 235.999C627.08 236.999 626.78 237.999 626.38 239.099C625.68 240.799 625.08 235.199 625.18 234.099C625.78 226.099 626.68 218.299 627.28 210.299C628.18 197.399 629.78 183.999 629.68 170.999C629.68 163.599 626.78 155.899 620.28 154.299C620.18 154.299 619.98 154.199 619.88 154.199C619.58 154.099 619.28 154.099 618.88 154.099C618.58 154.099 618.38 153.999 618.08 153.999C617.78 153.999 617.48 153.999 617.18 153.999C616.88 153.999 616.48 153.999 616.18 154.099C615.88 154.099 615.58 154.199 615.28 154.199C614.88 154.299 614.38 154.399 613.98 154.499C613.78 154.599 613.479 154.599 613.28 154.699C612.58 154.899 611.88 155.099 611.08 155.499C610.48 155.699 610.08 156.099 609.78 156.399C602.08 158.399 593.58 161.399 585.98 165.399C582.08 166.699 578.28 168.099 574.48 169.499C569.08 170.899 563.68 172.399 558.58 174.299C552.48 176.599 547.38 184.699 548.68 191.299C547.78 197.399 547.58 203.799 548.08 209.699C546.78 210.999 545.48 212.099 544.08 213.099C544.28 212.499 544.38 211.899 544.48 211.199C544.68 210.499 544.78 209.799 544.78 209.099C544.979 204.899 542.48 200.899 539.18 197.599C538.68 197.099 538.08 196.499 537.48 196.099C532.88 192.199 527.18 189.199 523.18 184.799C519.68 180.899 516.88 175.499 511.38 174.399C508.08 173.699 504.58 174.899 501.18 174.399C497.78 173.999 492.979 171.499 495.28 169.099C495.08 153.899 493.28 138.699 489.68 123.799C488.98 121.099 488.28 118.199 486.38 115.999C484.48 113.799 479.38 112.899 476.38 113.699C465.08 111.199 453.48 118.799 448.58 128.299C443.68 137.799 443.78 148.699 443.68 159.099C443.58 169.599 444.58 179.999 437.28 188.199C435.979 189.699 433.18 189.399 431.58 188.099C429.98 186.799 429.38 184.799 428.88 182.999C423.98 166.599 418.98 150.199 414.08 133.899C413.08 130.399 411.88 126.799 409.28 124.199C406.58 121.499 401.58 116.299 397.98 117.799C390.58 120.899 388.28 129.199 386.98 136.499C385.58 144.699 384.48 152.899 383.58 161.199C382.98 166.799 382.48 172.399 382.08 177.999C381.98 179.699 381.88 181.399 381.78 182.999C381.68 184.999 381.58 187.099 381.48 189.099C381.38 190.599 381.38 192.199 381.28 193.699C376.88 191.999 372.58 190.199 368.78 188.299C368.38 188.099 368.08 187.999 367.68 187.799C367.68 184.999 367.58 182.199 367.58 179.399C367.48 176.799 367.38 174.099 367.28 171.499C367.08 165.299 366.78 159.099 366.78 152.999C361.08 148.399 353.38 148.599 345.78 149.199C340.58 149.599 336.78 148.999 332.78 147.699C331.68 147.399 330.58 146.899 329.48 146.499C329.18 146.399 328.88 146.299 328.58 146.199C327.48 145.799 326.38 145.299 325.18 144.799C325.18 144.299 324.88 143.799 324.48 143.099C323.38 140.099 321.38 133.999 320.18 132.799C314.48 126.699 304.28 124.899 294.98 124.799C290.78 124.799 286.68 125.099 283.28 125.499C282.38 125.599 281.38 125.799 280.48 125.899C279.18 126.099 277.78 126.299 276.48 126.499C265.28 128.399 254.08 131.099 242.98 133.199C242.98 133.199 242.98 133.199 243.08 133.199C242.58 133.299 242.18 133.399 241.68 133.499C235.58 134.699 229.78 130.999 223.58 130.299C221.48 129.999 219.38 130.099 217.38 130.199C208.38 130.899 199.98 135.299 191.68 139.199C183.38 143.099 177.18 152.699 173.98 160.599C172.38 164.499 172.18 168.599 170.28 172.099C169.979 172.599 169.68 173.099 169.38 173.599C168.98 174.099 168.58 174.499 168.18 174.999C168.18 174.999 168.18 174.999 168.18 175.099C166.98 176.199 165.78 177.199 164.58 178.199L164.48 178.299C163.58 178.199 162.58 178.399 161.88 178.999C159.68 180.899 157.38 182.699 155.08 184.399C154.68 184.699 154.18 184.899 153.68 185.099C152.58 185.699 151.48 186.299 150.38 186.799C149.38 187.299 148.48 187.699 147.48 188.199C147.08 188.399 146.78 188.499 146.38 188.699C145.78 188.999 145.08 189.299 144.48 189.599C139.28 191.899 133.88 194.099 128.58 196.199C126.28 197.099 123.98 198.099 121.68 199.099C121.38 199.199 121.18 199.299 120.88 199.399C118.38 200.499 115.88 201.599 113.48 202.799C106.48 206.299 102.18 215.299 101.18 222.499C98.6799 240.599 93.2798 258.599 93.5798 276.799C93.6798 285.199 93.8795 293.699 90.2795 301.499C89.2795 303.599 88.3798 305.699 87.4797 307.799C87.1797 308.499 86.8799 309.199 86.5798 309.999C85.9799 311.399 85.4796 312.799 84.8796 314.199C84.5796 315.099 84.1797 315.999 83.8796 316.799C83.3796 318.099 82.9797 319.299 82.4797 320.599C82.1797 321.499 81.7798 322.499 81.4797 323.399C81.0797 324.599 80.6796 325.799 80.2795 326.999C79.9795 327.999 79.6796 328.999 79.2795 329.999C78.8795 331.199 78.58 332.399 78.1799 333.499C77.8799 334.499 77.5796 335.499 77.2795 336.599C76.9795 337.699 76.5796 338.899 76.2795 339.999C75.9795 341.099 75.6797 342.099 75.3796 343.199C75.0796 344.199 74.7798 345.299 74.4797 346.299C73.5797 349.399 72.7797 352.499 71.8796 355.499C69.8796 362.599 66.7795 368.599 59.2795 371.599C46.0796 376.899 34.7798 385.299 23.5798 393.699C19.6798 396.599 14.8798 398.999 10.4797 401.699C6.07971 404.399 2.17993 407.399 0.179932 411.499C-2.42004 416.899 -4.12012 422.699 -4.82007 428.499C-5.62012 434.299 -5.42041 440.299 -4.22046 446.099H21.4797H44.2795H197.28H220.38H246.68H282.78H312.18H315.78H351.88H363.88H448.28H458.68H507.18H515.18H551.78H557.88H572.48H580.68H646.18H663.48H709.28H710.78H711.58H713.38C713.28 445.399 713.18 444.799 713.08 444.099C713.08 443.999 713.18 443.899 713.18 443.799C712.98 442.899 712.78 441.899 712.58 440.899C712.28 438.899 711.88 436.899 711.38 434.899H1085.98H1170.48H1170.68H1221.48H1409.18H1705.48C1701.58 428.599 1697.38 422.599 1693.18 416.599Z" fill="#292E72"/>
<path opacity="0.2" d="M3410.18 443.4C3408.38 441.3 3406.38 439.2 3404.48 437.1C3404.18 436.8 3403.88 436.4 3403.58 436.1C3401.78 434.2 3399.98 432.3 3398.18 430.4C3397.58 429.8 3397.08 429.2 3396.48 428.6C3396.08 428.2 3395.78 427.9 3395.48 427.5C3338.18 368.6 3241.58 293.8 3208.18 268.2C3185.78 251.1 3162.08 235.4 3139.08 219C3137.58 218 3136.18 216.9 3134.68 215.9C3132.98 214.6 3131.18 213.4 3129.48 212.1C3126.28 209.8 3123.18 207.4 3120.08 205C3118.98 204.2 3117.98 203.4 3116.88 202.5C3113.98 200.3 3111.18 198 3108.38 195.8C3107.68 195.2 3106.98 194.7 3106.28 194.1C3102.88 191.3 3099.58 188.5 3096.28 185.6C3095.48 184.9 3094.68 184.2 3093.88 183.5C3090.48 180.5 3087.18 177.4 3083.88 174.2C3040.68 132.2 3002.58 100.5 2936.48 107C2904.48 110.2 2877.48 117.1 2854.48 130.8C2851.88 132.3 2849.38 133.9 2846.98 135.6C2832.18 145.7 2819.08 158.9 2807.28 176.1C2788.78 203.2 2768.68 230.6 2746.78 256.4C2739.48 265 2731.98 273.4 2724.18 281.5C2720.88 285 2717.38 288.4 2713.98 291.8C2711.68 294.1 2709.28 296.4 2706.88 298.7C2676.98 327.3 2643.88 353.1 2612.78 380.4C2603.38 388.7 2594.28 397.2 2585.68 405.7C2534.48 364.1 2453.08 302.6 2451.88 302.5C2449.58 300.8 2447.28 299.2 2444.98 297.6C2419.08 279.1 2391.58 260.8 2360.78 257.1C2353.68 256.2 2346.48 256.2 2339.38 256.9C2331.68 257.6 2323.98 259.2 2316.48 261.4C2316.38 261.4 2316.18 261.5 2316.08 261.5C2311.78 262.8 2307.48 264.3 2303.28 266.1C2303.08 266.2 2302.88 266.2 2302.78 266.3C2301.68 266.8 2300.58 267.3 2299.38 267.8C2298.78 268.1 2298.18 268.3 2297.68 268.6C2296.68 269.1 2295.68 269.5 2294.68 270C2294.48 270.1 2294.38 270.2 2294.18 270.2C2288.98 261.1 2283.78 252 2278.68 243C2274.78 236.1 2270.98 229.3 2267.18 222.5C2266.38 221.1 2265.58 219.7 2264.88 218.3C2263.78 216.3 2262.68 214.3 2261.48 212.3C2259.88 209.5 2258.28 206.7 2256.68 203.9C2255.98 202.6 2255.18 201.3 2254.48 200.1C2252.28 196.2 2250.08 192.4 2247.88 188.6C2247.18 187.4 2246.58 186.3 2245.88 185.2C2244.08 182.2 2242.28 179.1 2240.58 176.2C2239.98 175.1 2239.28 174.1 2238.68 173C2236.38 169.2 2234.08 165.4 2231.78 161.7C2231.38 161 2230.88 160.3 2230.38 159.6C2228.48 156.5 2226.48 153.5 2224.58 150.5C2223.88 149.5 2223.28 148.5 2222.58 147.5C2220.18 143.9 2217.78 140.3 2215.38 136.9C2212.88 133.2 2209.78 129.9 2206.28 126.9C2188.68 111.5 2160.98 104.7 2138.18 106.5C2136.58 106.6 2135.18 106.8 2133.68 107C2133.58 107 2133.48 107 2133.38 107C2103.28 109.3 2089.18 122.1 2075.08 140.9C2068.18 149.9 2062.18 160.1 2056.28 171C2055.78 171.9 2055.38 172.8 2054.88 173.7C2037.08 206.9 2021.08 241 2006.18 275.4C1993.28 266.3 1979.78 259.4 1965.38 257.2C1939.28 253.3 1912.98 265.9 1890.98 285.4C1871.48 302.7 1789.28 399.7 1773.78 429.6L1773.68 429.7C1773.18 430.6 1772.78 431.5 1772.48 432.3C1772.48 432.4 1772.38 432.5 1772.38 432.5C1771.98 433.3 1771.78 434.1 1771.58 434.8H2046.68H2082.78H2205.68H2271.98H2423.48H2557.88C2541.78 452.6 2528.88 468.7 2520.78 480.2H2552.98H2572.08H2620.48H2639.08H2682.78H2721.98H2746.08H2790.28H2820.68H2834.88H2869.08H2946.98H3000.08H3027.18H3057.98H3090.18H3180.48H3235.98H3341.08H3392.78H3436.48H3436.58C3431.98 469.9 3422.58 457.3 3410.18 443.4Z" fill="#292E72"/>
<g opacity="0.2">
<path d="M4869.08 197.198C4869.28 196.898 4869.38 196.698 4869.58 196.398C4869.18 196.898 4868.68 197.598 4868.28 198.098C4868.18 198.298 4868.18 198.498 4868.08 198.698C4868.38 198.098 4868.78 197.598 4869.08 197.198Z" fill="#292E72"/>
<path d="M5092.48 390.3C5090.08 384.9 5087.38 379.8 5084.18 375C5082.78 373 5081.38 370.9 5079.88 368.9C5079.78 368.7 5079.58 368.6 5079.48 368.4C5076.28 364.1 5072.88 359.9 5069.28 355.9C5067.08 353.5 5064.78 351.1 5062.38 348.9C5057.58 344.4 5052.48 340.5 5047.08 337.2C5042.18 334.2 5036.98 331.9 5031.58 330.4C5029.68 329.1 5027.38 328.4 5025.18 327.8C5021.28 326.9 5018.58 326.7 5016.78 327C5014.98 326.5 5013.18 325.8 5011.38 325.2C5002.78 315.7 4994.28 306.3 4985.68 296.8C4985.68 297 4985.68 297.2 4985.68 297.4C4980.98 295.6 4959.78 292.4 4957.38 295.4C4937.48 284.7 4915.28 273.2 4904.38 256C4900.28 249.5 4897.18 242.3 4894.98 234.8C4893.68 230.3 4892.68 225.7 4891.98 221C4888.78 217.2 4884.78 212.9 4880.78 208.6C4876.78 204.3 4872.68 200.1 4869.58 196.2C4869.38 196.5 4869.28 196.7 4869.08 197C4868.78 197.3 4868.48 197.9 4868.08 198.6C4868.18 198.4 4868.18 198.2 4868.28 198C4862.18 206 4855.18 216.8 4848.38 228.6C4847.98 229.2 4847.68 229.8 4847.28 230.4C4846.68 231.5 4845.98 232.7 4845.38 233.8C4845.08 234.3 4844.78 234.8 4844.48 235.4C4843.78 236.7 4843.08 238 4842.38 239.2C4842.38 239.3 4842.28 239.4 4842.28 239.5C4839.78 244.2 4837.38 248.9 4835.18 253.5V253.6C4834.38 255.2 4833.68 256.7 4832.98 258.3C4832.18 259.9 4831.48 261.5 4830.78 263.1C4830.48 263.9 4830.08 264.6 4829.78 265.4C4827.28 271.2 4825.08 276.8 4823.38 281.9C4823.28 282.1 4823.18 282.3 4823.08 282.4C4821.08 286.4 4818.38 291.6 4815.08 295.6C4813.08 291.4 4810.88 287.3 4808.18 283.5C4801.98 274.9 4790.28 263.2 4780.38 265.9C4775.48 259.6 4770.58 253.3 4765.68 247.1C4761.98 242 4758.18 237 4753.98 232.2C4747.58 224.1 4741.28 215.9 4734.88 207.8C4731.48 203.4 4725.98 202.8 4721.48 200C4721.38 199.9 4721.28 199.9 4721.18 199.8C4720.58 199.4 4719.88 198.9 4719.38 198.4C4706.98 187.1 4695.98 174.8 4681.38 167.3C4667.88 160.4 4655.08 141.7 4654.18 125.8C4650.38 135.1 4647.48 145.5 4643.98 155.2C4643.18 157.5 4642.28 159.9 4641.38 162.1C4640.18 162.8 4638.98 163.6 4637.78 164.3C4637.38 164.5 4637.08 164.8 4636.68 165C4635.88 165.6 4635.08 166.1 4634.28 166.7C4633.88 167 4633.48 167.3 4633.18 167.6C4632.38 168.2 4631.58 168.8 4630.88 169.5C4630.58 169.8 4630.28 170 4629.98 170.3C4627.88 172.1 4625.88 174 4623.88 176C4623.58 176.3 4623.38 176.6 4623.08 176.9C4622.68 177.3 4622.18 177.8 4621.78 178.2C4621.48 178.5 4621.28 178.8 4620.98 179.1C4620.68 179.4 4620.38 179.7 4620.08 180.1C4619.38 180.9 4618.68 181.7 4617.98 182.5C4617.78 182.8 4617.58 183 4617.28 183.3C4615.58 185.3 4613.98 187.4 4612.38 189.6C4610.18 192.6 4608.08 195.7 4605.98 198.8C4601.38 205.7 4597.08 213 4592.68 220.2C4585.08 232.6 4577.18 244.9 4567.38 255.2C4557.68 265.4 4547.48 275 4538.78 285.5C4536.18 288.6 4533.78 291.8 4531.48 295.2C4526.68 297.5 4523.28 306.1 4521.28 314.3C4520.38 316.6 4519.58 319 4518.88 321.4C4516.78 328.8 4513.98 337.4 4510.28 345.6C4509.58 347.1 4508.88 348.6 4508.18 350C4507.78 350.7 4507.48 351.5 4507.08 352.2C4505.18 355.8 4503.08 359.2 4500.88 362.3C4500.38 362.9 4499.98 363.5 4499.48 364.1C4497.18 367.1 4494.68 369.7 4491.88 371.8C4491.38 372.2 4490.78 372.6 4490.18 373C4486.88 375.3 4483.18 376.9 4479.28 377.4C4478.28 377.5 4477.18 377.7 4476.18 378C4472.08 378.9 4468.28 380.6 4464.78 382.8C4463.48 383.6 4462.28 384.5 4460.98 385.4C4423.28 359.3 4381.18 337.5 4356.78 299.4C4349.88 288.7 4341.38 275.3 4331.08 265.8C4326.38 261.4 4321.38 257.7 4315.98 255.5C4311.88 252.2 4305.58 250.4 4300.08 250.8C4299.68 250.8 4299.38 250.9 4299.08 250.9C4294.78 246.6 4290.18 242.5 4284.58 240.3C4277.68 237.6 4266.98 240 4262.58 246C4239.38 229.3 4216.18 212.6 4192.98 195.9C4190.38 194 4187.68 192.1 4185.08 190.3C4178.48 185.8 4171.68 182.1 4163.98 181C4162.48 180.8 4160.88 180.7 4159.28 180.7C4159.18 179.3 4158.18 178.2 4156.98 177.6C4156.28 177.2 4155.38 177 4154.58 177C4152.38 176.9 4150.28 177.9 4148.28 178.9C4140.18 182.9 4132.28 188.1 4124.28 193.2C4123.18 193.9 4121.98 194.6 4120.88 195.4C4111.68 201.1 4102.28 206.4 4092.48 209.4C4082.18 212.5 4072.58 199.3 4062.28 200.1C4061.58 200.2 4060.88 200.3 4060.18 200.5C4057.68 201.2 4055.68 202.7 4053.88 204.5C4052.08 206.4 4050.58 208.6 4049.18 210.7C4045.78 215.9 4042.58 221.3 4039.48 226.8C4034.18 220.2 4025.48 217.6 4018.38 213.2C4007.38 206.4 3998.08 197.8 3990.18 188C3980.48 174.2 3970.48 160.6 3958.08 150.2C3957.48 149.7 3956.88 149.1 3956.18 148.6C3956.08 148.5 3955.98 148.5 3955.88 148.4C3955.08 147.7 3954.18 147 3953.38 146.3C3953.28 146.2 3953.08 146.1 3952.98 146C3949.28 142.8 3945.68 139.4 3941.88 135.9C3940.98 134.7 3939.98 133.6 3938.88 132.5C3937.78 131.3 3936.58 130.1 3935.28 128.9C3935.18 128.9 3935.18 128.8 3935.08 128.8C3934.68 128.5 3934.28 128.2 3933.88 127.8C3933.78 127.7 3933.68 127.6 3933.48 127.5C3933.18 127.2 3932.78 127 3932.38 126.7C3932.28 126.6 3932.08 126.5 3931.88 126.4C3931.48 126.1 3931.18 125.9 3930.78 125.6C3930.58 125.5 3930.48 125.4 3930.28 125.3C3929.88 125 3929.48 124.8 3928.98 124.5C3928.78 124.4 3928.68 124.3 3928.48 124.2C3927.98 123.9 3927.38 123.6 3926.78 123.2C3926.68 123.2 3926.68 123.1 3926.58 123.1C3925.88 122.7 3925.28 122.4 3924.48 122C3924.38 122 3924.38 121.9 3924.28 121.9C3919.18 118.7 3913.68 116.4 3907.88 115.7C3907.58 115.7 3907.28 115.6 3906.98 115.6C3898.78 113.3 3892.18 96.6 3884.58 88.7C3883.98 88.1 3883.38 87.6 3882.78 87.1C3882.38 86.8 3881.98 86.6 3881.68 86.3C3881.38 86.1 3881.08 85.8 3880.68 85.7C3879.38 85 3877.98 84.7 3876.58 84.8C3874.08 85 3870.28 87 3865.58 90.3C3861.88 92.9 3857.68 96.4 3852.98 100.6C3850.68 102.7 3848.28 105 3845.88 107.5C3845.08 108.3 3844.28 109.2 3843.48 110.1C3842.98 110.7 3842.38 111.3 3841.88 111.9C3841.58 112.2 3841.38 112.5 3841.18 112.8C3840.18 114.1 3839.08 115.4 3838.08 116.7C3831.58 125.6 3826.18 135.4 3818.48 143.4C3797.78 160.8 3777.58 178.7 3757.38 196.3C3753.08 200.1 3748.68 203.8 3744.38 207.6C3730.48 190.3 3712.48 164.2 3694.28 170.9C3686.78 173.6 3680.78 179.2 3674.98 184.7C3641.18 216.4 3608.38 249.6 3573.48 280.1C3539.28 309.9 3526.78 292.5 3496.58 266.4C3485.68 256.6 3476.38 252 3468.88 267.3C3449.88 305.7 3449.78 325.1 3426.38 361.1C3419.38 371.8 3401.58 400.2 3403.88 428.3H3450.58H3802.08H3806.28H3812.28H3840.58H3926.08H4122.48H4189.08H4194.88H4349.88H4402.28H4509.48C4509.08 427.8 4508.58 427.2 4508.18 426.7H4522.18H4534.48H4538.28H4584.78H4607.88H4625.28H4676.88H4766.08H4789.08H4850.28H4851.68H4856.58H4858.68H4882.18H4930.58H4974.68H4997.48H5005.18H5005.68H5069.18H5074.78H5105.98H5126.78C5116.18 413.9 5104.68 401.6 5092.48 390.3Z" fill="#292E72"/>
<path d="M4868.18 198.2C4868.58 197.6 4869.08 197 4869.48 196.5C4868.98 196.6 4868.58 197.3 4868.18 198.2Z" fill="#292E72"/>
</g>
<path opacity="0.2" d="M5138.2 -11H-3V429.1H5138.2V-11Z" fill="url(#paint1_linear_398_126370)"/>
</g>
</g>
<defs>
<linearGradient id="paint0_linear_398_126370" x1="-23" y1="208.933" x2="5118.19" y2="208.933" gradientUnits="userSpaceOnUse">
<stop offset="0.000326339" stop-color="#8BFFFB"/>
<stop offset="0.5071" stop-color="#0081FB"/>
<stop offset="0.9997" stop-color="#92278F"/>
</linearGradient>
<linearGradient id="paint1_linear_398_126370" x1="2567.6" y1="399.283" x2="2567.6" y2="-20.6331" gradientUnits="userSpaceOnUse">
<stop offset="0.000326339" stop-color="white"/>
<stop offset="1" stop-color="white" stop-opacity="0"/>
</linearGradient>
<clipPath id="clip0_398_126370">
<rect width="5116" height="423" fill="white"/>
</clipPath>
<clipPath id="clip1_398_126370">
<rect width="5161.2" height="498.1" fill="white" transform="translate(-23 -18)"/>
</clipPath>
</defs>
</svg>
