<svg width="154" height="57" viewBox="0 0 154 57" fill="none" xmlns="http://www.w3.org/2000/svg">
<path fill-rule="evenodd" clip-rule="evenodd" d="M47.5162 20.9113C47.2448 21.6653 47.0035 22.3589 46.7623 23.0223C46.521 23.6858 46.3099 24.3794 46.0687 25.073C45.8274 25.7666 45.556 26.4301 45.3148 27.1237C45.1037 27.7871 44.8021 28.4506 44.6212 29.1442C46.5814 29.1442 48.4812 29.1442 50.4414 29.1442C50.4113 29.0537 50.4113 28.9934 50.4113 28.9331C50.1399 28.2093 49.8986 27.5157 49.6272 26.7919C49.0542 25.1936 48.4812 23.5651 47.9083 21.9668C47.8178 21.6351 47.6972 21.3335 47.5162 20.9113ZM54.9348 38.0405C56.0808 38.4627 57.2267 38.523 58.4029 38.3722C57.8902 38.8547 57.3172 39.2467 56.7442 39.6086C56.2617 39.9102 55.7491 40.2118 55.2062 40.453C54.2412 40.9355 53.2159 41.2974 52.1905 41.5688C48.7225 42.5037 44.2894 42.2926 41.1229 40.5737C40.3992 40.1816 39.6754 39.7293 39.0421 39.1563C38.6501 38.7944 38.258 38.4627 37.8961 38.0706C37.1724 37.2865 36.5391 36.4422 35.9963 35.5073C35.4233 34.5121 34.9709 33.4868 34.6694 32.4011C34.4281 31.617 34.2472 30.833 34.1567 30.0187C34.0662 29.2648 33.9758 28.5109 34.0059 27.7268C34.0361 27.184 34.0964 26.6412 34.1567 26.1285C34.2773 25.0428 34.5789 24.0175 34.9408 22.962C35.4534 21.5145 36.1772 20.1876 37.1724 19.0115C37.474 18.6496 37.7454 18.2877 38.0771 17.956C38.8009 17.2925 39.5246 16.6592 40.3389 16.1465C41.3642 15.5132 42.4498 15.0006 43.626 14.6689C46.3702 13.8848 49.6272 13.734 52.3715 14.5181C53.4873 14.8196 54.5428 15.2418 55.538 15.845C56.503 16.418 57.3775 17.0814 58.1315 17.8956C58.8251 18.6194 59.4282 19.4336 59.971 20.3082C60.6345 21.424 61.1472 22.6001 61.509 23.8366C61.7201 24.5905 61.9011 25.3444 62.0217 26.0983C62.2328 27.3046 62.2026 28.4807 62.1725 29.687C62.1423 30.3203 62.082 30.9536 61.9614 31.5869C61.8709 32.1599 61.7503 32.7329 61.5693 33.2757C61.2376 34.301 60.8154 35.2359 60.0615 35.9898C58.8854 37.1056 56.9855 37.4373 55.5078 36.8342C54.965 36.6231 54.4222 36.3517 53.9698 35.9295C53.3968 35.4168 52.9445 34.8137 52.5826 34.1201C51.9794 32.944 51.4065 31.7678 50.9239 30.5314C50.8938 30.4711 50.8636 30.4409 50.8636 30.3806C48.632 30.3806 46.4004 30.3806 44.1688 30.3806C43.7768 31.4964 43.4149 32.6122 43.053 33.728C42.9022 34.1804 42.8117 34.6327 42.8117 35.0851C42.8419 35.5073 42.9927 35.9295 43.5657 36.0803C43.8672 36.1707 44.1989 36.2311 44.5307 36.2914C44.5307 36.4422 44.5307 36.5929 44.5307 36.7136C44.2291 36.7739 40.1278 36.804 39.5246 36.7437C39.5246 36.5929 39.5246 36.4723 39.5246 36.2914C39.5849 36.2612 39.6453 36.2009 39.7357 36.2009C40.3992 36.0803 40.8817 35.6882 41.1531 35.0851C41.4547 34.482 41.7261 33.8788 41.9673 33.2757C42.5102 31.8281 43.053 30.3505 43.5657 28.9029C44.1688 27.2443 44.7719 25.5857 45.3751 23.927C45.9782 22.2684 46.5814 20.6098 47.1845 18.9511C47.4559 18.2274 47.7273 17.5036 47.9686 16.7497C48.1495 16.7497 48.3003 16.7497 48.4511 16.7497C48.5717 17.0814 48.6923 17.4131 48.813 17.7449C49.4161 19.3733 50.0494 21.032 50.6525 22.6604C51.0446 23.6858 51.4065 24.7111 51.7985 25.7666C52.1905 26.7919 52.5524 27.7871 52.9445 28.8125C53.2159 29.5362 53.4873 30.26 53.7587 30.9837C54.1507 32.0694 54.7237 33.0344 55.4777 33.909C55.93 34.4216 56.503 34.7534 57.1664 34.9042C57.5585 34.9645 57.9204 34.874 58.2822 34.7232C58.8251 34.4518 59.187 34.0296 59.4885 33.5471C60.0313 32.7027 60.3028 31.7678 60.544 30.7727C60.8456 29.3854 60.8757 27.9681 60.7551 26.5808C60.6646 25.1936 60.3631 23.8064 59.8806 22.5097C59.398 21.1828 58.7648 19.9463 57.8902 18.8305C56.895 17.5941 55.7189 16.5687 54.2714 15.845C50.7129 14.0054 46.0084 14.0959 42.3292 15.5736C41.3642 15.9656 40.4897 16.4783 39.6754 17.0814C39.1024 17.5036 38.5898 17.956 38.1073 18.4686C37.474 19.1622 36.901 19.9162 36.4486 20.7304C35.9963 21.5446 35.6344 22.389 35.363 23.2636C35.182 23.8667 35.0614 24.5 34.9408 25.1031C34.609 27.003 34.8201 29.3854 35.3027 31.2853C35.7249 32.9138 36.4185 34.4216 37.4136 35.8089C37.8358 36.3818 38.3183 36.9548 38.8612 37.4373C39.9468 38.4024 41.0928 39.1563 42.4499 39.6991C45.7068 41.026 49.205 40.8149 52.462 39.5483C53.0953 39.3071 53.6984 39.0055 54.2412 38.5833C54.5126 38.3722 54.7237 38.2214 54.9348 38.0405Z" fill="white"/>
<path fill-rule="evenodd" clip-rule="evenodd" d="M67.1791 36.5023C67.1791 36.5927 67.1489 36.6531 67.1489 36.7134C66.0331 36.7134 64.9173 36.7134 63.7714 36.7134C63.7714 36.6531 63.7714 36.5626 63.7412 36.5023C64.0126 36.4118 64.284 36.3515 64.5253 36.261C65.0078 36.0801 65.0983 35.5674 65.0983 35.0849C65.2491 32.5819 65.1284 30.0789 65.1586 27.5758C65.1586 27.0632 65.1586 26.1886 64.6761 25.9474C64.465 25.8569 64.2539 25.7966 64.0126 25.7966C63.8317 25.7966 63.8317 25.7664 63.8015 25.495C64.7364 25.495 65.6411 25.495 66.6061 25.495C66.968 26.4299 67.36 27.3949 67.7219 28.3298C68.114 29.2948 68.4457 30.2598 68.8377 31.1947C69.2298 32.1295 69.5313 33.0945 69.9837 34.0596C71.0693 31.1645 72.1248 28.3298 73.1803 25.4648C74.1453 25.4648 75.0501 25.4648 75.9849 25.4648C76.0151 25.7363 76.0151 25.7363 75.8341 25.7664C75.6834 25.7966 75.5627 25.7966 75.4119 25.8569C75.0199 25.9775 74.8691 26.2188 74.8088 26.6108C74.7183 27.2743 74.7485 27.9377 74.7485 28.6012C74.7485 30.6217 74.7485 32.6422 74.7485 34.6325C74.7485 34.9643 74.7786 35.296 74.839 35.6579C74.8993 35.9896 75.1405 36.2007 75.4421 36.2912C75.623 36.3515 75.8341 36.3816 76.0151 36.4118C76.0151 36.5023 76.0151 36.5324 75.9849 36.6229C74.658 36.6229 73.3311 36.6229 72.0042 36.6229C72.0042 36.5626 71.974 36.5023 71.974 36.4721C72.0042 36.442 72.0042 36.4118 72.0344 36.4118C72.1852 36.3816 72.3661 36.3515 72.5169 36.3213C73.1803 36.2007 73.2406 35.7484 73.2406 35.1754C73.2406 32.5819 73.2406 30.0185 73.2406 27.425C73.2406 27.3647 73.2406 27.2743 73.2105 27.1235C72.2756 29.4757 71.3709 31.828 70.4662 34.1802C70.1646 34.9643 69.8932 35.7484 69.5917 36.5324C69.5615 36.6531 69.471 36.7134 69.2901 36.6832C68.0838 33.6374 66.9077 30.5915 65.6713 27.4854C65.6411 27.6361 65.6411 27.6965 65.6411 27.7869C65.6411 30.1392 65.6411 32.4613 65.6411 34.8135C65.6411 35.1754 65.7014 35.5071 65.8522 35.8388C65.9728 36.1102 66.1839 36.2912 66.4855 36.3515C66.8172 36.4118 66.968 36.4721 67.1791 36.5023Z" fill="white"/>
<path fill-rule="evenodd" clip-rule="evenodd" d="M119.139 34.5725C119.23 34.663 119.29 34.7535 119.35 34.8439C119.35 34.9042 119.35 34.9344 119.35 34.9646C118.657 35.9899 117.692 36.6835 116.485 36.9549C115.641 37.166 114.616 37.0454 113.832 36.7438C113.078 36.4724 112.475 36.02 111.962 35.3867C111.449 34.7535 111.087 34.0598 110.876 33.2758C110.635 32.4012 110.575 31.6171 110.635 30.7124C110.695 29.3855 111.087 28.1792 111.902 27.1238C112.505 26.3397 113.259 25.7064 114.284 25.4651C114.767 25.3445 115.219 25.2842 115.671 25.2842C116.787 25.2842 117.239 25.6762 118.084 25.827C118.416 25.8873 118.596 25.7365 118.868 25.3143H118.898H119.049V28.6316V28.6618H118.898C118.898 28.6618 118.898 28.6618 118.868 28.6618H118.717V28.5411C118.717 28.5411 118.717 28.511 118.687 28.511C118.596 28.2396 118.536 27.938 118.416 27.6666C118.084 26.8523 117.601 26.1286 116.757 25.7667C115.701 25.2842 114.465 25.4953 113.651 26.2794C112.957 26.9428 112.565 27.7269 112.354 28.6316C112.173 29.3554 112.052 30.441 112.113 31.1949C112.173 32.0695 112.264 32.9139 112.656 33.698C113.108 34.663 113.771 35.4169 114.827 35.7185C115.551 35.9597 116.274 35.8693 116.998 35.628C117.601 35.4169 118.084 35.0852 118.506 34.6328C118.808 34.9344 118.958 34.7535 119.139 34.5725Z" fill="white"/>
<path fill-rule="evenodd" clip-rule="evenodd" d="M84.0965 27.6966C83.8251 28.2395 82.4982 32.0996 82.4681 32.4011C83.5537 32.4011 84.6394 32.4011 85.7853 32.4011C85.2425 30.833 84.6695 29.295 84.0965 27.6966ZM89.5248 36.5025C89.4946 36.5929 89.4946 36.6533 89.4946 36.7136C88.2883 36.7136 87.0821 36.7136 85.8758 36.7136C85.8758 36.6533 85.8456 36.5929 85.8456 36.5025C86.0266 36.4723 86.2075 36.412 86.3885 36.3818C86.7503 36.2914 86.9313 36.0501 86.871 35.7184C86.8107 35.4168 86.7202 35.1454 86.6297 34.874C86.4488 34.3312 86.2377 33.8185 86.0567 33.2757C86.0266 33.2154 85.9663 33.0646 85.8758 33.0646C84.6695 33.0646 83.4632 33.0646 82.1966 33.0646C82.1665 33.1551 82.1062 33.2757 82.076 33.3963C81.8649 33.9994 81.6538 34.6327 81.4729 35.2359C81.4126 35.447 81.3824 35.6882 81.4126 35.8993C81.4126 36.1104 81.5633 36.2914 81.7744 36.3517C81.9554 36.412 82.1665 36.4723 82.3474 36.5025C82.3474 36.5628 82.3474 36.6533 82.3474 36.7136H82.257C81.3523 36.7136 80.4475 36.7136 79.5428 36.7136C79.5428 36.6533 79.5127 36.5929 79.5127 36.5025C79.6333 36.4422 79.7539 36.412 79.8746 36.3517C80.4777 36.0803 80.8094 34.9645 81.0507 34.3613C81.684 32.5821 82.3173 30.833 82.9506 29.0537C83.3728 27.8776 83.795 26.7316 84.2172 25.5555C84.2473 25.465 84.2775 25.4047 84.3378 25.3143C84.4282 25.3143 84.5187 25.3143 84.6092 25.3143C85.152 26.7316 85.6647 28.1792 86.2075 29.5965C86.871 31.4361 87.5646 33.2455 88.2582 35.0851C88.3486 35.2962 88.4391 35.5073 88.5296 35.7184C88.6804 36.0803 88.9518 36.3517 89.3438 36.4422C89.4042 36.4723 89.4343 36.4723 89.5248 36.5025Z" fill="white"/>
<path fill-rule="evenodd" clip-rule="evenodd" d="M94.4706 35.9293C94.6214 35.4769 94.5912 35.0849 94.5912 34.6326C94.5912 31.9787 94.5912 29.3249 94.5912 26.6711C94.5912 26.5203 94.5912 26.3997 94.5912 26.2188C92.1786 26.0981 91.8469 26.46 91.485 28.179C91.485 28.2091 91.4549 28.2694 91.4549 28.2996C91.3644 28.2996 91.2739 28.2996 91.1835 28.2996L91.2438 25.495H92.2691H99.356H99.4465C99.4465 26.3092 99.4766 27.1536 99.4766 27.9679C99.4766 28.0583 99.4766 28.179 99.4766 28.2996C99.3862 28.2996 99.2957 28.2996 99.1751 28.2996C99.1147 28.0583 99.0544 27.8171 98.964 27.5457C98.9036 27.3346 98.8433 27.1536 98.7529 26.9425C98.4815 26.0981 97.0038 26.2188 96.0387 26.1886V26.46C96.0387 29.3249 96.0387 32.1898 96.0387 35.0548C96.0387 35.688 96.1292 36.2007 96.8228 36.3515C97.0038 36.3817 97.2149 36.442 97.3958 36.4721V36.5324H93.2341C93.2341 36.4721 93.2341 36.3817 93.2341 36.3213C93.596 36.5023 94.35 36.3213 94.4706 35.9293Z" fill="white"/>
<path fill-rule="evenodd" clip-rule="evenodd" d="M106.564 36.7134H102.854V36.5023H102.915C103.126 36.4722 103.337 36.442 103.518 36.3817C104.181 36.2008 104.242 35.5976 104.242 34.9945C104.242 32.401 104.242 29.8377 104.242 27.2442C104.242 25.9474 103.91 26.0379 102.824 25.7665V25.7363H107.076V25.857V25.8871V25.9776C106.714 25.9776 106.141 26.1284 105.9 26.4299C105.719 26.6712 105.689 27.0632 105.689 27.3648C105.689 30.0488 105.689 32.7327 105.689 35.4167C105.689 35.6881 105.719 35.9294 105.81 36.1706C105.961 36.5627 106.624 36.7436 106.986 36.7436V36.9245V36.9547H106.564V36.7134Z" fill="white"/>
<path fill-rule="evenodd" clip-rule="evenodd" d="M70.3145 41.5681V39.4873H70.8272V42.0205H70.0129L69.3193 39.9397V42.0205H68.8066V39.4873H69.6209L70.3145 41.5681Z" fill="white"/>
<path fill-rule="evenodd" clip-rule="evenodd" d="M64.4944 40.1818C64.3436 40.5738 64.3436 40.996 64.4944 41.388C64.6452 41.8102 65.3086 41.8102 65.4594 41.388C65.6102 40.996 65.58 40.5738 65.4594 40.1818C65.3388 39.7897 64.6452 39.7897 64.4944 40.1818ZM64.9769 42.1118C63.5595 42.1721 63.4389 39.4882 64.9769 39.458C66.5149 39.4882 66.4244 42.1721 64.9769 42.1118Z" fill="white"/>
<path fill-rule="evenodd" clip-rule="evenodd" d="M99.7475 39.8793L99.4761 41.1459H99.8681H100.26L99.9887 39.8793H99.7475ZM99.8379 41.6284H99.4157L99.3253 42.0506L98.8428 42.0205L99.4157 39.4873H99.8681H100.32L100.893 42.0205L100.411 42.0506L100.32 41.6284H99.8379Z" fill="white"/>
<path fill-rule="evenodd" clip-rule="evenodd" d="M86.6299 41.6284H86.841H87.7155V42.0205H86.1172V39.4873H87.7155V39.9095H86.6299V40.573H87.4441V40.9952H86.841H86.6299V41.6284Z" fill="white"/>
<path fill-rule="evenodd" clip-rule="evenodd" d="M73.6924 42.0217C73.6924 41.1773 73.6924 40.3631 73.6924 39.5488C73.8432 39.5488 73.994 39.5488 74.1749 39.5488C74.1749 40.2123 74.1749 40.9059 74.1749 41.5693C74.5066 41.5693 74.778 41.5693 75.0796 41.5693V41.9915L73.6924 42.0217Z" fill="white"/>
<path d="M78.2766 39.4873H77.8242V42.0205H78.2766V39.4873Z" fill="white"/>
<path d="M119.17 38.04H63.7412V38.2813H119.17V38.04Z" fill="white"/>
<path fill-rule="evenodd" clip-rule="evenodd" d="M82.7696 41.5681V39.4873H83.2521V42.0205H82.468L81.7442 39.9397V42.0205H81.2617V39.4873H82.0458L82.7696 41.5681Z" fill="white"/>
<path fill-rule="evenodd" clip-rule="evenodd" d="M114.103 41.5681V39.4873H114.615V42.0205H113.801L113.107 39.9397V42.0205H112.595V39.4873H113.409L114.103 41.5681Z" fill="white"/>
<path d="M91.4852 40.8447H90.4297V41.2368H91.4852V40.8447Z" fill="white"/>
<path fill-rule="evenodd" clip-rule="evenodd" d="M96.0986 39.9095C95.8573 39.9095 95.5256 39.9095 95.3145 39.9095C94.9526 39.9397 94.8621 40 94.8018 40.3317C94.7717 40.5428 94.7717 40.7841 94.7717 40.9952C94.8018 41.538 94.9526 41.6586 95.5859 41.5983H95.6161V41.538V41.1761V41.0253H95.405C95.405 40.9047 95.405 40.7841 95.405 40.6634H95.7065H96.0986V41.0253V42.0205C95.7668 42.0506 95.405 42.0808 95.0733 42.0808C94.6511 42.0506 94.4098 41.8395 94.2892 41.4173C94.1685 40.965 94.1685 40.5126 94.3193 40.0603C94.4098 39.6984 94.6812 39.4873 95.0733 39.4873L96.0986 39.5175V39.9095V39.9095Z" fill="white"/>
<path fill-rule="evenodd" clip-rule="evenodd" d="M119.26 39.9095C119.018 39.9095 118.687 39.9095 118.476 39.9095C118.114 39.9397 118.023 40 117.963 40.3317C117.933 40.5428 117.933 40.7841 117.933 40.9952C117.963 41.538 118.114 41.6586 118.747 41.5983H118.777V41.538V41.1761V41.0253H118.566C118.566 40.9047 118.566 40.7841 118.566 40.6634H118.868H119.26V41.0253V42.0205C118.928 42.0506 118.566 42.0808 118.234 42.0808C117.812 42.0506 117.571 41.8395 117.45 41.4173C117.33 40.965 117.33 40.5126 117.48 40.0603C117.571 39.6984 117.842 39.4873 118.234 39.4873L119.26 39.5175V39.9095V39.9095Z" fill="white"/>
<path d="M109.64 39.4873H109.188V42.0205H109.64V39.4873Z" fill="white"/>
<path fill-rule="evenodd" clip-rule="evenodd" d="M104.905 42.0205H104.663L104.181 40.1809V42.0205H103.698V39.4873H104.482L104.905 41.2062L105.297 39.4873H106.111V42.0205H105.598V40.1809L105.116 42.0205H104.905Z" fill="white"/>
</svg>
