<svg width="154" height="57" viewBox="0 0 154 57" fill="none" xmlns="http://www.w3.org/2000/svg">
<path fill-rule="evenodd" clip-rule="evenodd" d="M80.9994 25.8592H72.9252C72.7306 25.4701 72.7306 24.5297 72.8603 24.1081H83.3017L83.2044 23.3948H81.0967C80.967 23.3299 80.8697 22.8759 80.7724 22.7138C80.4482 22.0653 79.9617 21.4816 79.4105 21.06C76.4921 18.9199 72.4712 20.9952 72.3739 24.5297C72.3415 26.832 74.0277 28.6155 76.0382 28.9721C77.7568 29.264 79.3457 28.5506 80.3185 27.286C80.5454 26.9293 80.9346 26.3456 80.9994 25.8592ZM82.4262 22.3571C82.1343 21.6113 81.6804 20.9303 81.0967 20.3467C80.74 19.99 80.3509 19.6981 79.9294 19.4387L80.0915 18.9847C80.5779 19.2766 81.0318 19.6333 81.4534 20.0224C82.1019 20.6709 82.5883 21.4167 82.9126 22.2923L82.4262 22.3571ZM81.5182 28.3885C82.3289 27.3832 82.8153 26.1186 82.8478 24.7243L83.3342 24.627C83.3342 26.1835 82.7504 27.6427 81.8425 28.7452L81.5182 28.3885ZM76.0382 30.5935C76.2976 30.6259 76.557 30.6583 76.8488 30.6583C77.8865 30.6583 78.8268 30.3989 79.6699 29.9449L79.9942 30.3341C79.0538 30.8529 77.9838 31.1447 76.8488 31.1447C76.5246 31.1447 76.2003 31.1123 75.876 31.0799L76.0382 30.5935ZM71.239 26.8644C71.5308 27.6102 71.9848 28.2912 72.5685 28.8749C72.9252 29.2316 73.3143 29.5234 73.7358 29.7828L73.5737 30.2368C73.0873 29.9449 72.6333 29.5883 72.2118 29.1991C71.5633 28.5506 71.0769 27.8048 70.7526 26.9293L71.239 26.8644ZM72.147 20.8331C71.3363 21.8383 70.8499 23.1029 70.8174 24.4973L70.331 24.5945C70.331 23.0381 70.9147 21.5789 71.8227 20.4764L72.147 20.8331ZM76.8488 18.5956C75.8112 18.5956 74.8708 18.855 74.0277 19.309L73.7034 18.9199C74.6438 18.4011 75.7139 18.1092 76.8488 18.1092C77.1731 18.1092 77.4974 18.1416 77.8216 18.1741L77.6595 18.628C77.4001 18.5956 77.1082 18.5956 76.8488 18.5956ZM76.8488 33.5119C77.4649 33.5119 78.1135 33.6416 78.8268 33.9983C79.6375 34.3874 80.4157 34.9386 80.9994 35.425C81.3237 35.7169 81.6479 35.9763 81.9398 36.2681C83.172 37.3707 82.8153 37.6949 84.1448 37.6949H89.6249C89.7546 37.6949 89.8519 37.6301 89.8519 37.5328V37.3058C89.787 37.0464 89.6249 36.6897 89.5601 36.4951L88.0684 32.5391C87.4199 30.7556 86.7389 29.0046 86.0904 27.2535C85.4095 25.5025 84.7933 23.719 84.1124 22.0004C83.4314 20.2494 82.8153 18.4659 82.1343 16.7149C81.7776 15.8394 81.4534 14.9638 81.1615 14.0883C80.8373 13.2128 80.4806 12.3373 80.1887 11.4618C79.6375 9.87285 79.8321 10.0026 77.9838 10.0026C77.7892 10.0026 77.3676 10.0026 76.8488 10.0026C76.33 10.0026 75.9084 10.0026 75.7139 10.0026C73.8656 10.0026 74.0925 9.87285 73.5089 11.4618C73.1846 12.3373 72.8603 13.2128 72.5361 14.0883C72.2118 14.9638 71.8875 15.8394 71.5633 16.7149C70.8823 18.4659 70.2662 20.2494 69.5852 22.0004C68.9043 23.719 68.2882 25.5025 67.6072 27.2535C66.9263 29.037 66.2777 30.7556 65.6292 32.5391L64.1376 36.4951C64.0727 36.6897 63.8781 37.0464 63.8457 37.3058V37.5328C63.8781 37.6301 63.943 37.6949 64.0727 37.6949H69.5528C70.8499 37.6949 70.5256 37.4031 71.7578 36.2681C72.0497 35.9763 72.3739 35.7169 72.6982 35.425C73.2819 34.9386 74.0601 34.3874 74.8708 33.9983C75.5842 33.6416 76.2327 33.5119 76.8488 33.5119Z" fill="white"/>
<path fill-rule="evenodd" clip-rule="evenodd" d="M47.2427 40.419C47.3399 40.5487 48.0209 42.4294 48.1182 42.7213H47.2427H46.3671C46.432 42.4619 47.1454 40.5487 47.2427 40.419ZM107.264 41.2297C106.486 41.4566 106.194 42.2349 106.292 43.2401C106.389 44.0508 106.908 44.829 107.848 44.5696C109.405 44.1805 109.015 40.7108 107.264 41.2297ZM108.724 44.6993C108.788 45.51 108.659 46.1909 107.978 46.4179C107.686 46.5152 107.232 46.5152 106.94 46.4179C106.519 46.2882 106.389 46.0288 106.356 45.737L105.611 45.6397C105.611 46.6125 106.194 47.034 107.102 47.1313C108.107 47.2286 108.886 46.9043 109.242 46.2882C109.632 45.6397 109.534 44.4075 109.534 43.5968C109.534 42.5916 109.534 41.6188 109.534 40.6135H108.821V41.1324C108.497 40.8405 108.367 40.646 107.848 40.5487C106.551 40.2569 105.513 41.1972 105.481 42.7861C105.416 44.7966 107.07 45.7045 108.302 45.056C108.464 44.9587 108.561 44.7966 108.724 44.6993ZM58.2353 45.2506H59.4675L59.5324 42.3646C59.5324 41.8782 59.8242 41.5215 60.343 41.4566C61.251 41.3594 61.2185 42.1376 61.2185 42.8834C61.2185 43.6616 61.2185 44.4399 61.2185 45.2181H62.4508C62.4508 44.6344 62.5156 43.3374 62.4508 42.3322C62.3859 41.2945 62.1914 40.5163 60.9267 40.4838C60.6024 40.4838 60.3106 40.5487 60.0512 40.6784C59.7594 40.8405 59.6621 40.9702 59.4675 41.1324V38.7977H58.2353V45.2506ZM87.549 44.375V42.0079H84.8576V42.7861H86.7383C86.7383 44.0832 86.9004 43.9535 86.1871 44.3102C84.4684 45.1533 82.3607 44.375 82.5553 41.7809C82.7499 39.511 84.7603 39.1868 85.8952 39.7705C86.3168 39.9974 86.5762 40.3541 86.7059 40.9054L87.4517 40.7108C87.4193 40.192 86.9653 39.4786 86.3816 39.1543C85.7655 38.7977 84.89 38.7328 84.1117 38.8625C82.685 39.1219 81.8095 40.192 81.6797 41.7161C81.2906 45.3478 85.117 46.3531 87.549 44.375ZM64.1694 42.5591H65.9853C65.9204 41.0999 64.1369 41.1324 64.1694 42.5591ZM67.1202 43.9859L65.9204 43.7914C65.5313 44.9263 64.1694 44.5696 64.1369 43.305H67.1851C67.3148 42.7537 67.0554 41.9106 66.8284 41.4891C66.6014 41.0675 66.1474 40.7108 65.5313 40.5811C63.1966 40.0947 62.4183 42.6564 63.0993 44.1805C63.3263 44.6993 63.683 45.056 64.2342 45.2506C64.7855 45.4451 65.5961 45.4451 66.115 45.1857C66.5041 44.9911 67.0554 44.5047 67.1202 43.9859ZM91.1808 42.9807C90.8889 43.0455 90.662 43.1428 90.3377 43.1753C89.8189 43.2725 89.073 43.2725 88.8785 43.7589C88.7488 44.0508 88.8785 44.4075 89.0406 44.5372C89.4297 44.8614 90.2404 44.7642 90.662 44.5047C91.1159 44.1805 91.1808 43.7265 91.1808 42.9807ZM88.1327 41.9755L88.8785 42.0727C89.0406 41.3918 89.3973 41.1648 90.1756 41.1972C90.9214 41.2296 91.2132 41.5539 91.1808 42.2997C90.5647 42.7213 87.776 42.2349 87.9705 44.1805C88.0354 44.8939 88.5867 45.283 89.3325 45.3478C90.3053 45.4127 90.6295 45.0884 91.2132 44.6993C91.278 44.8614 91.3105 45.0884 91.3753 45.2506H92.2184C91.9266 44.2453 91.9914 44.0508 91.9914 42.8834C91.9914 42.0079 92.0887 41.1972 91.505 40.8081C90.7592 40.3217 89.1379 40.3866 88.5218 41.0351C88.3921 41.2296 88.1002 41.6836 88.1327 41.9755ZM93.4506 41.2621V40.9702V40.6784H93.094H92.7373V42.4619V45.3154H93.5479V42.4619C93.5804 42.2024 93.6452 41.9755 93.7425 41.7809C93.9046 41.5215 94.1316 41.3269 94.5207 41.2621C95.0071 41.1972 95.2665 41.3594 95.3962 41.6512C95.4935 41.8782 95.4935 42.1376 95.5259 42.4294V45.283H96.3366V42.6889C96.3366 42.1052 96.4987 41.3918 97.1473 41.2297C97.8607 41.0675 98.2498 41.4891 98.2822 42.1376C98.2822 42.2349 98.2822 42.3322 98.2822 42.397V45.2506H99.0929V42.8834C99.0929 42.624 99.0929 42.4294 99.0605 42.17C98.9956 41.3594 98.8983 40.7108 97.9579 40.5163C97.4067 40.419 96.596 40.5163 96.1745 41.2621C96.0772 41.0027 95.9151 40.8081 95.7205 40.6784C95.4935 40.5487 95.2341 40.4838 94.8774 40.4838C94.5207 40.4838 94.2613 40.5811 94.0343 40.7108C93.7749 40.9054 93.6128 41.0675 93.4506 41.2621ZM68.8712 41.2945V40.6784H67.7363V45.3154H68.9685C68.9685 44.5372 68.9685 43.7589 68.9685 42.9807C69.0009 42.2349 69.0982 41.6188 69.844 41.5215C70.7195 41.4242 70.7196 42.2024 70.7196 42.9483C70.7196 43.7265 70.7196 44.5047 70.7196 45.283H71.9518C71.9518 44.4399 72.0815 41.8133 71.7572 41.2297C71.3681 40.5487 70.2656 40.3541 69.4873 40.7757C69.0982 41.0027 69.0009 41.1324 68.8712 41.2945ZM53.8901 45.283H54.8629L54.8953 40.646H54.3441H53.6631C53.6631 40.873 53.6631 41.2296 53.6631 41.6512V42.7213C53.6631 43.2725 53.6307 43.7589 53.501 43.9535C53.4037 44.148 53.0795 44.375 52.7876 44.4075C51.8797 44.5047 51.9121 43.7265 51.9121 42.9807C51.9121 42.2024 51.9445 41.4242 51.9121 40.646H50.6799C50.6475 41.3594 50.6799 42.0727 50.6799 42.7861C50.6799 43.4022 50.615 44.1805 50.8745 44.6993C51.2636 45.4127 52.3337 45.6073 53.1443 45.1533C53.274 45.0884 53.3713 45.0236 53.4686 44.9263C53.5334 44.8614 53.5983 44.7966 53.6631 44.7317V45.283H53.8901V45.283ZM81.3879 43.7265C81.2258 43.6292 80.4475 43.4995 80.1881 43.4995C80.0908 43.6941 79.9936 44.5696 79.0208 44.3102C78.4371 44.1805 78.3074 43.5644 78.2749 43.0455C78.2425 42.4294 78.3398 41.8133 78.8262 41.5863C79.0856 41.4566 79.4423 41.4566 79.7017 41.5863C79.9287 41.716 80.026 41.9106 80.0909 42.2025L81.2906 41.9755C81.0961 40.873 79.9612 40.2893 78.6641 40.5487C77.5616 40.7757 76.9779 41.7161 77.0103 43.0131C77.0428 44.2778 77.6913 45.1533 78.8262 45.3154C80.1881 45.5424 81.1934 44.8614 81.3879 43.7265ZM55.7709 39.738V40.646H55.2196V41.6188H55.7709C55.7709 42.4294 55.7384 43.2725 55.7709 44.0832C55.8033 44.9587 56.0951 45.3803 57.0031 45.3803C57.2949 45.3803 57.6841 45.3154 57.911 45.1857L57.8462 44.2453C57.2301 44.3102 57.0031 44.6993 57.0031 43.4671C57.0031 42.851 57.0031 42.2349 57.0031 41.6188H57.8137V40.646H56.9707V39.0246L55.7709 39.738ZM101.979 41.2621V40.646H101.265V42.4294V45.283H102.076V42.5916C102.076 42.1376 102.303 41.6512 102.692 41.3594C103.308 40.9702 104.119 41.2296 104.216 42.17C104.216 42.2349 104.216 42.3322 104.249 42.4294V45.283H105.059V42.8834C105.059 42.5916 105.059 42.3322 105.059 42.0403C104.865 40.2244 102.757 39.9974 101.979 41.2621ZM75.2917 45.283H76.4915V40.6784L75.2593 40.646C75.2269 41.1972 75.1944 44.9911 75.2917 45.283ZM99.7414 45.283H100.52V40.6784L99.7414 40.646V45.283ZM75.2593 40.0299H76.4915V38.8949H75.2593V40.0299ZM99.7414 39.738V39.8029H100.52V38.8949H99.7414V39.738ZM72.7949 39.738V40.646H72.2436V41.6188H72.7949C72.7949 42.4294 72.7625 43.2725 72.7949 44.0832C72.8273 44.9587 73.1191 45.3803 74.0271 45.3803C74.3189 45.3803 74.708 45.3154 74.935 45.1857L74.8702 44.2453C74.254 44.3102 74.0271 44.6993 74.0271 43.4671C74.0271 42.851 74.0271 42.2349 74.0271 41.6188H74.8377V40.646H73.9946V39.0246L72.7949 39.738ZM47.2427 43.8238H48.5397C48.6046 44.0508 48.7343 44.3426 48.8316 44.5696L49.0261 45.1208C49.0586 45.2181 49.0585 45.283 49.2207 45.283H50.4853L47.9561 38.8949H47.2427H46.5293L44 45.283H45.2646C45.4268 45.283 45.4268 45.2506 45.4592 45.1208L45.6538 44.5696C45.751 44.3426 45.8807 44.0508 45.9456 43.8238H47.2427V43.8238Z" fill="white"/>
</svg>
