<svg width="153" height="56" viewBox="0 0 153 56" fill="none" xmlns="http://www.w3.org/2000/svg">
<path d="M63.1221 27.9579V19.4219H68.021C68.7901 19.4219 69.3465 19.5064 69.6947 19.6753C70.0973 19.8755 70.4004 20.2043 70.6129 20.6667C70.7621 20.9868 70.8346 21.3159 70.8346 21.6581C70.8346 22.0938 70.717 22.5028 70.4818 22.8852C70.2465 23.272 69.948 23.5344 69.5771 23.6854C70.4184 24.0632 70.8346 24.7347 70.8346 25.695C70.8346 26.2463 70.7034 26.7176 70.4366 27.0998C70.2058 27.4243 69.9073 27.6511 69.5409 27.7756C69.1745 27.8956 68.6316 27.9579 67.917 27.9579H63.1221ZM64.9722 22.9207H67.4828C67.7407 22.9207 67.9306 22.9117 68.0482 22.8851C68.1702 22.8628 68.2879 22.8051 68.401 22.7161C68.6724 22.5116 68.8081 22.2315 68.8081 21.8759C68.8081 21.5381 68.6814 21.2847 68.4281 21.1157C68.2427 21.0002 67.9396 20.9424 67.5188 20.9424H64.9721V22.9207H64.9722ZM64.9722 26.4373H67.4828C67.7407 26.4373 67.9306 26.424 68.0528 26.3973C68.1795 26.3751 68.2971 26.3173 68.4012 26.2328C68.6726 26.0283 68.8082 25.7438 68.8082 25.3837C68.8082 25.0458 68.6815 24.7924 68.4283 24.6189C68.2429 24.5033 67.9398 24.4456 67.519 24.4456H64.9722V26.4373ZM78.7193 19.4219V20.9423H76.3082C75.6795 20.9423 75.2271 20.9823 74.9376 21.0668C74.6526 21.1513 74.4129 21.3157 74.2183 21.5648C74.1007 21.7204 74.0147 21.8849 73.9651 22.0538C73.9199 22.2273 73.8746 22.5206 73.8384 22.9475H78.7193V24.4679H73.8384C73.9017 25.206 74.1234 25.7217 74.4898 26.0062C74.8607 26.2951 75.4985 26.4375 76.3942 26.4375H78.7193V27.9579H76.3082C75.6523 27.9579 75.0778 27.9179 74.5892 27.8379C73.8157 27.7134 73.1914 27.3799 72.7255 26.8332C72.0696 26.0463 71.7439 24.9837 71.7439 23.641C71.7439 22.1517 72.2052 20.9958 73.1326 20.1687C73.4492 19.8932 73.7884 19.702 74.1459 19.5864C74.5032 19.4752 74.9872 19.4219 75.5979 19.4219H78.7193ZM80.0718 19.4219H81.9173V24.21C81.9173 24.5124 81.9218 24.7436 81.9353 24.908C81.9489 25.0725 81.9716 25.2458 81.9987 25.4237C82.0529 25.806 82.243 26.0728 82.5641 26.2195C82.8898 26.3661 83.4507 26.4373 84.2469 26.4373H86.0155V27.9577H84.0568C83.1204 27.9577 82.4465 27.9088 82.0348 27.8021C81.0848 27.5266 80.4787 26.9264 80.2208 26.006C80.171 25.8192 80.1348 25.5836 80.1077 25.2991C80.085 25.0146 80.0714 24.65 80.0714 24.2099V19.4219H80.0718ZM86.5359 27.9579L90.1231 19.4219H92.2492L95.8409 27.9579H93.6741L92.8372 25.9795H89.5395L88.7027 27.9579H86.5359ZM91.1998 21.4669L89.9559 24.4546H92.4302L91.1998 21.4669ZM97.6593 20.9423H94.9045V19.4219H102.382V20.9423H99.505V27.9579H97.6594L97.6593 20.9423ZM105.173 24.7124V27.9579H103.323V19.4219H107.552C108.765 19.4219 109.611 19.5731 110.099 19.8753C110.416 20.0709 110.669 20.3421 110.855 20.6844C111.035 21.0268 111.126 21.3957 111.126 21.796C111.126 22.6095 110.918 23.2364 110.502 23.6721C110.248 23.9299 109.909 24.1344 109.47 24.2856C109.642 24.3434 109.787 24.4012 109.918 24.4591C110.045 24.517 110.149 24.5836 110.239 24.6547C110.407 24.7836 110.561 24.9792 110.71 25.246C110.805 25.4282 110.877 25.6238 110.931 25.8329C110.963 25.9485 110.99 26.0818 111.013 26.224C111.035 26.3663 111.049 26.5175 111.049 26.6687C111.049 26.9488 111.072 27.211 111.117 27.4511C111.144 27.6201 111.194 27.789 111.257 27.958H109.19C109.127 27.7579 109.063 27.3801 109.005 26.8199C108.95 26.2596 108.855 25.8551 108.719 25.6017C108.593 25.3394 108.389 25.1304 108.113 24.9748C107.783 24.8013 107.299 24.7126 106.657 24.7126L105.173 24.7124ZM105.173 23.1918H107.756C108.181 23.1918 108.489 23.1296 108.674 23.005C108.95 22.8139 109.086 22.4848 109.086 22.018C109.086 21.4978 108.878 21.1689 108.466 21.0177C108.326 20.9688 108.091 20.9421 107.756 20.9421H105.173V23.1918H105.173ZM111.786 27.9579L115.378 19.4219H117.504L121.091 27.9579H118.925L118.088 25.9795H114.79L113.953 27.9579H111.786ZM116.45 21.4669L115.211 24.4546H117.681L116.45 21.4669Z" fill="white"/>
<path d="M71.8834 33.7057H76.1491V38.7784H72.2725C71.5804 38.7784 71.0466 38.7294 70.6575 38.6317C70.2731 38.5294 69.9247 38.3605 69.6035 38.116C68.6942 37.4314 68.2373 36.2399 68.2373 34.546C68.2373 33.4391 68.4545 32.5231 68.8887 31.7852C69.2053 31.2516 69.6442 30.8604 70.2005 30.6159C70.7569 30.367 71.4762 30.2425 72.3628 30.2425H76.149V31.7629H72.5664C71.7974 31.7629 71.2365 31.9274 70.8836 32.2653C70.4765 32.6564 70.2684 33.3545 70.2684 34.3682C70.2684 34.8928 70.3227 35.3641 70.4267 35.7775C70.5308 36.191 70.68 36.5021 70.8701 36.7156C71.0375 36.9024 71.2636 37.0401 71.5531 37.129C71.8425 37.2136 72.2 37.258 72.6296 37.258H74.2988V35.2262H71.8832V33.7057H71.8834ZM76.8955 38.7784L80.4872 30.2423H82.6133L86.2005 38.7784H84.0382L83.2013 36.8H79.9036L79.0623 38.7784H76.8955ZM81.5592 32.2874L80.3198 35.2794H82.7896L81.5592 32.2874ZM89.8057 30.2423L91.9634 36.9156L94.2343 30.2423H96.9257V38.7784H95.1707V32.363L92.8998 38.7784L90.9999 38.7827L88.8693 32.3674L88.8602 38.7784H87.1051V30.2423H89.8057ZM105.208 30.2423V31.7628H102.802C102.173 31.7628 101.716 31.8071 101.431 31.8873C101.146 31.9718 100.907 32.1362 100.712 32.3852C100.59 32.5408 100.508 32.7054 100.459 32.8743C100.409 33.0477 100.368 33.341 100.328 33.7679H105.209V35.2884H100.332C100.396 36.0264 100.617 36.5421 100.984 36.8266C101.355 37.1157 101.988 37.258 102.888 37.258H105.209V38.7784H102.802C102.142 38.7784 101.567 38.7384 101.083 38.6628C100.305 38.5338 99.6855 38.2004 99.2195 37.6535C98.5637 36.871 98.2333 35.804 98.2333 34.4659C98.2333 32.9765 98.6993 31.8162 99.6266 30.9892C99.9432 30.718 100.283 30.5225 100.64 30.4113C100.997 30.2957 101.481 30.2423 102.092 30.2423H105.208ZM106.638 38.7784V37.258H110.587C111.216 37.258 111.641 37.1957 111.853 37.0712C112.161 36.8933 112.31 36.6265 112.31 36.262C112.31 35.853 112.134 35.5462 111.776 35.3506C111.573 35.244 111.252 35.1861 110.808 35.1861H109.207C108.23 35.1861 107.529 35.0126 107.086 34.6659C106.823 34.448 106.611 34.1679 106.457 33.8344C106.303 33.4966 106.226 33.1365 106.226 32.7585C106.226 32.1628 106.403 31.6159 106.76 31.1136C107.095 30.6468 107.656 30.3667 108.429 30.2778C108.682 30.2555 109.067 30.2422 109.587 30.2422H113.885V31.7626H110.003C109.433 31.7626 109.049 31.7893 108.85 31.8382C108.461 31.9315 108.266 32.2206 108.266 32.7007C108.266 33.1097 108.429 33.3853 108.755 33.5231C108.859 33.5675 109.004 33.6031 109.185 33.6298C109.37 33.652 109.587 33.6654 109.845 33.6654H111.234C111.587 33.6654 111.894 33.6831 112.161 33.7098C112.428 33.7408 112.65 33.7854 112.826 33.8476C113.437 34.0478 113.857 34.4079 114.088 34.9279C114.274 35.3414 114.369 35.786 114.369 36.2573C114.369 36.7641 114.246 37.231 114.007 37.6533C113.672 38.2269 113.161 38.5781 112.478 38.6981C112.116 38.7514 111.618 38.778 110.994 38.778H106.638V38.7784Z" fill="white"/>
<path fill-rule="evenodd" clip-rule="evenodd" d="M46.9138 14.5157C46.9138 14.5157 52.8215 18.2991 56.3318 22.2203C59.8421 26.1416 61.0362 28.4534 61.3982 30.2985C61.7555 32.139 61.837 36.376 58.1277 38.6479C56.852 39.4303 55.486 39.6705 54.2466 39.6482C51.2792 39.5949 49.1531 38.5945 47.5924 36.1805C47.6829 38.3677 49.3747 39.9906 51.3243 40.8041C52.4009 41.2575 54.1968 41.3731 54.1968 41.3731V42H46.9138H39.6354V41.3731C39.6354 41.3731 41.4313 41.2575 42.5078 40.8041C44.453 39.9906 46.1493 38.3677 46.2352 36.1805C44.6791 38.5945 42.553 39.5949 39.5856 39.6482C38.3417 39.6705 36.98 39.4303 35.7044 38.6479C31.9951 36.376 32.0765 32.1392 32.434 30.2985C32.6512 29.1736 33.185 27.8711 34.3611 26.1372L31.4886 23.3141C31.1628 22.994 31 22.5716 31 22.1536C31 21.7313 31.1628 21.3089 31.4885 20.9888L38.1111 14.4801C38.4368 14.16 38.8664 14 39.2961 14C39.7214 14 40.151 14.16 40.4767 14.4801L43.1908 17.1476C45.2673 15.5739 46.9138 14.5157 46.9138 14.5157ZM34.8631 25.4303L38.7218 29.2227C38.8801 29.3783 39.0882 29.4539 39.2963 29.4539C39.5044 29.4539 39.708 29.3783 39.8663 29.2227L46.4887 22.714C46.647 22.5584 46.7239 22.3583 46.7239 22.1538C46.7239 21.9493 46.647 21.7448 46.4887 21.5892L42.5078 17.6768L39.8661 15.0803C39.7078 14.9247 39.5042 14.8491 39.2961 14.8491C39.0836 14.8491 38.8799 14.9247 38.7216 15.0803L32.0992 21.589C31.9409 21.7446 31.864 21.9447 31.864 22.1536C31.864 22.3582 31.9409 22.5583 32.0992 22.7139L34.8631 25.4303Z" fill="white"/>
<path d="M120.408 20.4496V19.3203H120.897C121.019 19.3203 121.109 19.3293 121.168 19.3514C121.222 19.3691 121.268 19.4047 121.299 19.458C121.336 19.5113 121.349 19.5692 121.349 19.6359C121.349 19.7204 121.326 19.7915 121.272 19.8448C121.222 19.9025 121.15 19.9381 121.046 19.9514C121.096 19.9781 121.141 20.0092 121.173 20.0448C121.205 20.0804 121.25 20.1426 121.304 20.227L121.444 20.4492H121.164L121.001 20.2047C120.938 20.1158 120.897 20.0581 120.874 20.0358C120.856 20.0135 120.829 20.0002 120.806 19.9914C120.779 19.9825 120.743 19.9781 120.689 19.9781H120.643V20.4494L120.408 20.4496ZM120.643 19.796H120.815C120.924 19.796 120.996 19.7916 121.023 19.7827C121.051 19.7737 121.073 19.7604 121.087 19.7337C121.105 19.7115 121.109 19.6848 121.109 19.6492C121.109 19.6136 121.1 19.5825 121.078 19.5603C121.06 19.5336 121.028 19.5203 120.992 19.5159C120.974 19.5115 120.915 19.5115 120.824 19.5115H120.643V19.796Z" fill="white"/>
<path fill-rule="evenodd" clip-rule="evenodd" d="M120.874 18.7812C120.25 18.7812 119.743 19.2792 119.743 19.8928C119.743 20.5063 120.25 21.0043 120.874 21.0043C121.494 21.0043 122 20.5063 122 19.8928C122.001 19.2792 121.494 18.7812 120.874 18.7812ZM120.874 19.0035C120.372 19.0035 119.965 19.3992 119.965 19.8926C119.965 20.386 120.372 20.7817 120.874 20.7817C121.372 20.7817 121.779 20.386 121.779 19.8926C121.779 19.3992 121.372 19.0035 120.874 19.0035Z" fill="white"/>
</svg>
