<svg width="154" height="57" viewBox="0 0 154 57" fill="none" xmlns="http://www.w3.org/2000/svg">
<path d="M34.9491 28.0925H33.6484V24.8853H34.8422C35.3767 24.8853 35.7687 25.0099 36.036 25.2773C36.3032 25.5445 36.428 25.9542 36.428 26.5067C36.428 27.0235 36.3032 27.3976 36.0538 27.6648C35.8044 27.9321 35.4301 28.0747 34.9491 28.0925Z" fill="white"/>
<path d="M33.6484 33.1529V29.7318H35.4659C35.9291 29.7318 36.2676 29.8744 36.4814 30.1952C36.6775 30.4981 36.7844 30.9435 36.7844 31.5137C36.7844 32.066 36.6597 32.458 36.428 32.7431C36.1786 33.0103 35.8044 33.1529 35.3055 33.1529H33.6484Z" fill="white"/>
<path fill-rule="evenodd" clip-rule="evenodd" d="M42.3614 19.736H28V37.7679H42.3614V19.736ZM31.4746 23.0145V35.0417L35.4837 35.0418C36.7131 35.0418 37.6396 34.7389 38.2989 34.1509C38.9582 33.545 39.2968 32.6719 39.2968 31.5316C39.2968 30.8545 39.1364 30.2843 38.8335 29.7854C38.5305 29.2865 38.0672 28.9657 37.4259 28.8232C37.9425 28.5915 38.3167 28.2708 38.584 27.8254C38.8335 27.3799 38.9582 26.8632 38.9582 26.293C38.9582 25.2062 38.6018 24.3865 37.9068 23.8341C37.2119 23.2818 36.2498 23.0145 35.0025 23.0145H31.4746Z" fill="white"/>
<path d="M100.055 37.7679H100.892V19.736H100.055V37.7679Z" fill="white"/>
<path d="M114.719 37.7679H115.556V19.736H114.719V37.7679Z" fill="white"/>
<path d="M85.4062 37.7679H86.2259V19.736H85.4062V37.7679Z" fill="white"/>
<path d="M70.8008 37.7679H71.6384V19.736H70.8008V37.7679Z" fill="white"/>
<path d="M56.1367 37.7679H56.9742V19.736H56.1367V37.7679Z" fill="white"/>
<path d="M52.9074 33.046C52.6401 33.5271 52.1947 33.9726 51.571 34.3467C50.9474 34.7386 50.1634 34.9347 49.2012 34.9347C47.9361 34.9347 46.9204 34.5427 46.1542 33.7765C45.3881 33.0282 44.9961 31.9235 44.9961 30.5159V26.9522C44.9961 25.5624 45.3703 24.4754 46.1008 23.7271C46.8313 22.9609 47.7935 22.5688 49.0052 22.5688C50.2346 22.5688 51.179 22.8896 51.8205 23.4955C52.4797 24.1191 52.8183 24.9922 52.8718 26.0969L52.8539 26.1504H51.2681C51.2325 25.402 51.0365 24.8318 50.6623 24.4398C50.3059 24.03 49.7535 23.8341 49.0231 23.8341C48.2925 23.8341 47.7223 24.1013 47.2947 24.6359C46.867 25.1526 46.671 25.9187 46.671 26.9344V30.5159C46.671 31.5314 46.8849 32.3154 47.3482 32.85C47.7936 33.4023 48.4172 33.6696 49.2012 33.6696C49.7714 33.6696 50.2169 33.5627 50.5376 33.3666C50.8406 33.1706 51.09 32.9212 51.2325 32.6183V29.8921H49.1834V28.6804H52.9074V33.046Z" fill="white"/>
<path fill-rule="evenodd" clip-rule="evenodd" d="M61.8689 31.9598H65.6997L66.5729 34.9889H68.2657L64.5949 22.9795H62.9913L59.2852 34.9889H60.9957L61.8689 31.9598ZM65.3077 30.6413H62.2429L63.7577 25.3849H63.8109L65.3077 30.6413Z" fill="white"/>
<path d="M75.6833 22.9795L78.4986 32.7795H78.5518L81.3674 22.9795H83.5234V34.9889H81.8662V30.374L82.0086 25.7591L81.9554 25.7412L79.0686 34.9889H77.9641L75.0774 25.7591H75.0418L75.1842 30.374V34.9889H73.5273V22.9795H75.6833Z" fill="white"/>
<path d="M92.2695 22.9795H93.9267V34.9889H92.2695V22.9795Z" fill="white"/>
<path d="M111.959 34.9889H110.301L105.74 26.062H105.687V34.9889H104.012V22.9795H105.687L110.248 31.8886L110.301 31.8707V22.9795H111.959V34.9889Z" fill="white"/>
<path d="M124.645 34.418C125.269 34.0261 125.714 33.5984 126 33.1173V28.7341H122.258V29.9636H124.325V32.6897C124.164 32.9926 123.933 33.2421 123.612 33.4381C123.291 33.6341 122.846 33.7232 122.276 33.7232C121.492 33.7232 120.886 33.4559 120.422 32.9213C119.977 32.3868 119.745 31.6028 119.745 30.5694V26.9879C119.745 25.9901 119.959 25.224 120.387 24.6894C120.814 24.1727 121.384 23.9054 122.115 23.9054C122.846 23.9054 123.38 24.1014 123.754 24.4934C124.111 24.8854 124.324 25.4556 124.342 26.2217H125.928L125.946 26.1683C125.893 25.0458 125.554 24.1905 124.912 23.5669C124.253 22.9432 123.309 22.6403 122.097 22.6403C120.886 22.6403 119.906 23.0145 119.175 23.7806C118.444 24.5467 118.07 25.6337 118.07 27.0235V30.5871C118.07 31.9948 118.462 33.0817 119.229 33.8479C119.995 34.614 121.028 34.9882 122.276 34.9882C123.238 34.9882 124.04 34.8099 124.645 34.418Z" fill="white"/>
</svg>
