<svg width="154" height="57" viewBox="0 0 154 57" fill="none" xmlns="http://www.w3.org/2000/svg">
<path fill-rule="evenodd" clip-rule="evenodd" d="M50.1723 12.6098C41.3925 13.3153 34.8468 21.1545 35.5523 30.1303C36.2578 39.067 43.9402 45.7695 52.7201 45.0248C61.5 44.3193 68.0457 36.4801 67.3402 27.5042C66.9482 22.4087 64.2045 17.8228 59.9713 15.0791C57.0708 13.1977 53.6216 12.3354 50.1723 12.6098ZM50.0548 12.061C59.1482 11.2771 67.1442 18.1364 67.9281 27.3866C68.3984 32.8741 66.2035 38.2439 62.0487 41.7715C56.0909 46.8278 47.5071 46.9454 41.3925 42.1243C34.1804 36.4409 32.887 25.858 38.4528 18.4892C41.2357 14.8047 45.4689 12.453 50.0548 12.061Z" fill="white"/>
<path fill-rule="evenodd" clip-rule="evenodd" d="M57.2277 23.3495C55.8558 23.8199 54.7584 24.7998 54.1313 26.1324C53.4257 27.5435 53.3081 29.1897 53.5433 30.7184C53.7393 32.1686 54.484 33.5405 55.6599 34.4812C56.7574 35.3435 58.2076 35.6178 59.5403 35.5395C60.9121 35.4219 62.3232 35.0691 63.3815 34.1676C63.3815 32.2078 63.3815 30.248 63.3815 28.2882C62.0096 28.2882 60.677 28.2882 59.3051 28.2882C59.3051 29.0329 59.3051 29.7777 59.3051 30.5224H60.9121C60.9121 31.2671 60.9121 32.0118 60.9121 32.7566C60.089 33.3445 58.9916 33.3445 58.0509 32.9917C57.0318 32.5998 56.3262 31.5807 56.1302 30.5224C55.9343 29.4249 55.9735 28.3274 56.3654 27.3083C56.7574 26.3676 57.5413 25.6229 58.5212 25.4269C59.7363 25.1133 60.9905 25.6229 61.892 26.4068C62.2448 25.7013 62.5976 24.9958 62.9895 24.2902C61.4609 22.8792 59.1483 22.7224 57.2277 23.3495ZM46.3313 22.9968C47.4288 23.3887 48.1735 24.4078 48.5262 25.5053C48.9966 25.5053 49.5061 25.5053 49.9765 25.5053C49.9765 28.7586 49.9765 32.051 49.9765 35.3043H52.485C52.485 32.051 52.485 28.7586 52.485 25.5053C52.9554 25.5053 53.4257 25.5053 53.8569 25.5053C54.6016 24.3686 55.6207 23.4279 56.9142 22.9968C53.3865 23.036 49.8589 22.9968 46.3313 22.9968ZM42.1373 23.2319C41.1966 23.4671 40.2951 24.0942 39.8639 24.9566C39.8247 28.0138 39.864 31.0711 39.8248 34.1284C40.5303 34.5988 41.275 34.9515 42.0981 35.1475C43.0388 35.3827 44.0187 35.3435 44.9986 35.2651C45.9785 35.1867 46.9584 34.9515 47.7031 34.2852C48.8398 33.3053 49.1534 31.5415 48.5654 30.1304C48.2518 29.3465 47.5463 28.7978 46.8016 28.445C47.5463 27.9747 48.1343 27.1907 48.0559 26.25C48.0951 24.6038 46.684 23.1927 45.1162 23.036C44.1755 22.9576 43.1172 22.9576 42.1373 23.2319ZM62.4408 21.7033L61.6177 21.3505L62.088 22.0953C61.892 22.3304 61.696 22.5264 61.5001 22.7616L62.3624 22.5656L62.8327 23.3103L62.9111 22.4088L63.7734 22.2128L62.9503 21.8601L63.0287 20.9586L62.4408 21.7033ZM39.9031 20.9978C39.9423 21.3113 39.9423 21.5857 39.9815 21.8993L39.1584 22.252L40.0207 22.448C40.0599 22.7616 40.0599 23.036 40.0991 23.3495C40.2559 23.1144 40.4127 22.84 40.5694 22.6048L41.4318 22.8008L40.883 22.1345L41.3534 21.3897L40.5303 21.7425C40.2559 21.4681 40.0599 21.233 39.9031 20.9978ZM57.7373 18.8812L56.287 18.6852C56.6398 19.038 56.9925 19.3907 57.3453 19.7043C57.1493 20.1355 56.9142 20.6058 56.7182 21.0762L58.0116 20.3706C58.3644 20.7234 58.7172 21.0762 59.1091 21.4289C58.9915 20.9586 58.9523 20.449 58.874 19.9395C59.3051 19.7043 59.7362 19.4691 60.1674 19.234L58.7172 19.038C58.5996 18.5676 58.5604 18.0581 58.4428 17.5877C58.1684 17.9797 57.9724 18.4108 57.7373 18.8812ZM44.5283 17.5093C44.4107 17.9797 44.3715 18.4892 44.2539 18.9596L42.8036 19.1556L44.0971 19.8611C44.0187 20.3314 43.9403 20.841 43.8619 21.3113C44.2147 20.9586 44.5675 20.645 44.9594 20.2922C45.3906 20.5274 45.8217 20.7626 46.2528 20.9978C46.0569 20.5666 45.8217 20.0963 45.6257 19.6259C45.9785 19.2732 46.3313 18.9204 46.684 18.5676C46.2137 18.646 45.7041 18.6852 45.2338 18.7636C44.9594 18.4108 44.7242 17.9797 44.5283 17.5093ZM51.4659 13.7465C51.1524 14.6872 50.8388 15.6671 50.5252 16.647C49.5453 16.647 48.5262 16.6078 47.5463 16.6862C48.3694 17.2742 49.1533 17.8621 49.9765 18.4892C49.6629 19.4299 49.3494 20.4098 49.075 21.3897C49.8981 20.8018 50.682 20.2139 51.5051 19.6259C52.3282 20.2139 53.1122 20.8018 53.9353 21.3897C53.6217 20.449 53.3081 19.4691 53.0338 18.4892C53.8569 17.9013 54.6408 17.3134 55.4639 16.6862C54.484 16.647 53.4649 16.6862 52.485 16.6862C52.0539 15.6671 51.7403 14.7264 51.4659 13.7465ZM49.1534 13.4722C56.7574 12.2963 64.0478 17.0782 66.1252 24.643C67.2619 28.837 66.6739 33.5405 64.283 37.1465C62.1272 38.1264 59.6971 38.3224 57.3453 38.2048C53.4257 38.0088 49.6237 36.9897 45.7041 36.8721C43.5092 36.7937 41.2358 37.1073 39.1584 38.0088C34.1805 31.1103 35.6308 21.3505 42.4117 16.2943C44.4107 14.8048 46.7232 13.8641 49.1534 13.4722Z" fill="white"/>
<path fill-rule="evenodd" clip-rule="evenodd" d="M96.62 18.0973C96.62 17.6269 96.62 17.1174 96.62 16.6078C97.4823 16.6078 98.3838 16.6078 99.2461 16.6078V18.0973C98.3838 18.0973 97.4823 18.0973 96.62 18.0973ZM89.016 16.5686C91.3286 16.5686 93.7195 16.5686 96.0713 16.5686C96.0713 17.039 96.0713 17.5485 96.0713 18.0581H93.9547C93.9547 20.6842 93.9547 23.3495 93.9547 25.9756C93.3668 25.9756 92.7788 25.9756 92.1909 25.9756C92.1909 23.3103 92.1909 20.6842 92.1909 18.0581H89.016V16.5686ZM78.7467 16.6078H81.3728C81.3728 17.0782 81.3728 17.5877 81.3728 18.0973C80.4713 18.0973 79.609 18.0973 78.7075 18.0973C78.7075 17.5877 78.7467 17.0782 78.7467 16.6078ZM73.4944 21.5073C73.4944 22.5264 73.4944 23.5847 73.4944 24.6038C74.2391 24.643 74.9839 24.7214 75.6894 24.447C76.8653 24.0942 76.9045 22.0169 75.7286 21.6641C75.0623 21.4289 74.2783 21.5073 73.4944 21.5073ZM73.4944 17.9405C73.4944 18.6852 73.4944 19.4299 73.4944 20.1746C74.1607 20.2138 74.8663 20.2922 75.4934 19.9787C76.199 19.6651 76.3165 18.5284 75.611 18.1365C74.9839 17.8229 74.2391 17.9405 73.4944 17.9405ZM71.7698 16.5686C72.7497 16.5294 73.6904 16.4902 74.6703 16.4902C75.5326 16.5294 76.3949 16.647 77.1005 17.1958C77.7668 17.7445 78.0019 18.646 77.7668 19.4691C77.61 20.0571 77.1004 20.4098 76.6301 20.6842C77.2964 20.9194 77.9235 21.3505 78.1979 22.0168C78.5899 22.9576 78.5507 24.1334 77.806 24.9174C77.0612 25.7405 75.9638 26.054 74.9055 26.054C73.8472 26.0932 72.7497 26.054 71.6914 26.054L71.7698 16.5686ZM96.62 19.1164H99.2853V26.0148H97.5607C97.5607 24.1334 97.5607 22.2912 97.5607 20.449C97.2471 20.449 96.9336 20.449 96.62 20.449V19.1164V19.1164ZM78.7075 19.1164H81.3728C81.3728 21.3897 81.3728 23.7023 81.3728 26.0148H79.6482C79.6482 24.1334 79.6482 22.2912 79.6482 20.449H78.7075C78.7467 20.0179 78.7075 19.5475 78.7075 19.1164ZM114.18 20.449C113.592 20.645 113.239 21.2329 113.082 21.8209C114.258 21.8209 115.473 21.8209 116.649 21.8209C116.532 21.3897 116.453 20.9194 116.061 20.645C115.512 20.2922 114.768 20.253 114.18 20.449ZM112.142 20.2138C113.396 18.7636 115.748 18.6068 117.237 19.7827C118.217 20.5274 118.57 21.9385 118.217 23.0751C116.492 23.0751 114.768 23.0751 113.004 23.0751C113.082 23.7415 113.435 24.4078 114.101 24.6038C115.003 24.9173 116.1 24.839 116.884 24.2118C117.08 24.6038 117.315 25.0349 117.551 25.4661C116.571 26.1324 115.316 26.2108 114.141 26.0932C113.004 25.9756 111.867 25.1917 111.475 24.055C111.044 22.7616 111.201 21.2329 112.142 20.2138ZM102.029 19.7043C103.127 18.6852 104.93 18.8028 106.027 19.7043C107.007 18.8812 108.575 18.7244 109.672 19.4299C110.299 19.8611 110.613 20.645 110.613 21.3897C110.613 22.9184 110.613 24.4862 110.613 26.0148H108.928C108.928 24.6038 108.928 23.2319 108.928 21.7817C108.928 21.3505 108.849 20.8802 108.536 20.6058C107.908 20.1355 106.889 20.3314 106.497 20.9978C106.458 22.6832 106.497 24.3294 106.458 26.0148H104.773C104.773 24.4862 104.812 22.9184 104.773 21.3897C104.812 20.4882 103.636 20.1354 102.931 20.5274C102.695 20.6842 102.264 20.8802 102.264 21.2329C102.225 22.84 102.264 24.4078 102.264 26.0148H100.579V19.1164H101.755L102.029 19.7043ZM84.5477 20.4098C83.7246 20.7234 83.607 21.9385 84.1949 22.5264C84.5869 22.9184 85.1748 22.9575 85.6451 22.8008C86.3899 22.5264 86.5859 21.4289 86.1547 20.841C85.8019 20.2922 85.0964 20.2138 84.5477 20.4098ZM87.2914 18.6068C87.6834 18.9596 88.0753 19.2731 88.4673 19.6259C88.2321 19.8219 87.9185 19.9787 87.6834 20.1746C88.1929 20.9978 88.2321 22.0561 87.8009 22.9184C87.3306 23.7415 86.3899 24.2118 85.4884 24.2118C85.0964 24.251 84.6652 24.055 84.2733 24.2902C84.1165 24.3686 83.8422 24.6038 84.1165 24.7214C84.4301 24.839 84.7436 24.7606 85.0572 24.6822C85.9587 24.5254 87.017 24.4862 87.8009 24.9957C88.7808 25.7013 88.6633 27.3475 87.6442 27.9746C85.9587 29.0721 83.6854 28.8761 82.0391 27.7787C82.3919 27.3475 82.7447 26.9163 83.1366 26.5244C84.0381 27.3475 85.41 27.5827 86.5075 26.9555C86.7427 26.8379 86.8602 26.5244 86.7035 26.25C86.6251 26.1324 86.5467 26.054 86.3899 26.0148C85.41 25.7013 84.4301 26.1716 83.4502 25.9756C82.9014 25.9364 82.3135 25.6229 82.2743 25.0349C82.1567 24.4078 82.7055 23.9375 83.215 23.6631C81.9999 22.9968 81.608 21.1937 82.4703 20.0963C83.411 18.842 85.2532 18.7244 86.5859 19.3123L87.2914 18.6068Z" fill="white"/>
<path fill-rule="evenodd" clip-rule="evenodd" d="M98.0695 28.9933C98.9318 28.9933 99.8333 28.9933 100.735 28.9933C100.735 29.4636 100.735 29.9732 100.735 30.4827C99.8725 30.4827 98.971 30.4827 98.1087 30.4827C98.0695 30.0124 98.0695 29.5028 98.0695 28.9933ZM73.4937 29.8164C74.5127 29.0325 75.8846 28.7581 77.1389 28.8757C78.0012 28.9541 78.8243 29.2285 79.5298 29.7772C79.2947 30.2084 79.0595 30.6787 78.7851 31.1491C77.9228 30.5611 76.9037 30.2083 75.8846 30.4435C74.7872 30.6395 73.9248 31.5802 73.6896 32.6777C73.4545 33.736 73.4937 34.8727 74.0816 35.8134C74.9047 37.1852 76.9037 37.538 78.1972 36.6365C78.1972 36.0093 78.1972 35.3822 78.1972 34.7551H76.8253C76.8253 34.2847 76.8253 33.8144 76.8253 33.3048C77.8836 33.3048 78.9419 33.3048 79.961 33.3048C79.961 34.7159 79.961 36.1269 79.961 37.538C78.9027 38.2827 77.57 38.5571 76.355 38.5571C75.1399 38.5963 73.8072 38.1651 72.9841 37.1852C71.8866 36.0093 71.6123 34.2847 71.8474 32.7169C71.9258 31.6194 72.553 30.5219 73.4937 29.8164ZM98.0695 31.541H100.735C100.735 33.8144 100.735 36.1269 100.735 38.4395H99.0494C99.0494 36.5581 99.0494 34.7159 99.0494 32.8737H98.1087C98.0695 32.4033 98.0695 31.9722 98.0695 31.541ZM103.518 32.1289C104.341 31.3058 105.674 31.2274 106.732 31.541C107.673 31.8546 108.339 32.7953 108.378 33.8144C108.417 35.343 108.378 36.8717 108.417 38.4003H106.732C106.732 37.0284 106.732 35.6958 106.732 34.3239C106.732 33.7752 106.614 33.1872 106.105 32.9129C105.321 32.5209 104.38 32.7561 103.792 33.344C103.753 35.0294 103.792 36.6757 103.792 38.3611H102.107C102.107 36.0877 102.107 33.7752 102.107 31.4626H103.322C103.322 31.737 103.4 31.933 103.518 32.1289ZM88.8585 32.0898C89.9168 31.0707 91.759 31.1882 92.8564 32.0898C93.8363 31.2666 95.4042 31.1098 96.4625 31.8154C97.0896 32.2465 97.4032 33.0304 97.4032 33.7752C97.4424 35.3038 97.4032 36.8717 97.4032 38.4395H95.7178C95.7178 37.0284 95.7178 35.6566 95.7178 34.2063C95.7178 33.7752 95.6394 33.3048 95.3258 32.9913C94.6987 32.5209 93.6796 32.7169 93.2484 33.3832C93.2092 35.0686 93.2484 36.7149 93.2092 38.4003H91.5238C91.4846 36.8717 91.563 35.3038 91.4846 33.7752C91.4846 32.8737 90.3087 32.5209 89.6424 32.9129C89.4072 33.0697 88.976 33.2656 88.976 33.6184C88.976 35.2254 88.976 36.7933 88.976 38.4003H87.2906C87.2906 36.1269 87.2906 33.8144 87.2906 31.5018H88.4665C88.6233 31.6978 88.7409 31.8938 88.8585 32.0898ZM82.352 35.4606C81.764 35.8134 81.7248 36.9108 82.4303 37.1852C83.0183 37.342 83.7238 37.342 84.1942 36.9108C84.6253 36.4797 84.5469 35.7742 84.5469 35.1862C83.8022 35.0686 82.9791 35.0294 82.352 35.4606ZM80.9409 31.7762C82.1559 31.3058 83.4886 31.2274 84.7429 31.6586C85.4484 31.8938 85.958 32.5993 86.0756 33.344C86.3108 34.5591 86.154 35.7742 86.2716 36.95C86.3108 37.3812 86.5067 37.7732 86.8203 38.0475C86.5067 38.4787 85.958 38.5963 85.4876 38.4787C85.0957 38.3611 84.8997 38.0475 84.7037 37.734C84.2334 38.2827 83.4886 38.4787 82.8223 38.5179C82.0776 38.5571 81.2936 38.4003 80.7449 37.8516C80.157 37.2636 80.0786 36.3621 80.3138 35.5782C80.5489 34.8335 81.2545 34.3239 81.9992 34.0887C82.8223 33.8536 83.6846 33.7752 84.5469 33.932C84.4685 33.5008 84.3117 33.0697 83.8806 32.9129C83.0575 32.5993 82.1168 32.7169 81.2936 33.0305C81.1761 32.6385 81.0585 32.2073 80.9409 31.7762ZM111.357 32.8345C110.455 33.1872 110.416 34.6767 111.239 35.1078C111.788 35.4214 112.611 35.343 112.964 34.7551C113.278 34.2063 113.278 33.5008 112.807 33.0305C112.454 32.6777 111.827 32.6385 111.357 32.8345ZM113.473 31.6978C113.669 31.4626 113.905 31.2274 114.14 30.9923C114.532 31.345 114.924 31.6586 115.316 32.0114C115.081 32.2073 114.767 32.3641 114.532 32.5601C114.963 33.3048 115.081 34.2455 114.728 35.0294C114.375 35.8526 113.669 36.4013 112.807 36.5189C112.376 36.5973 111.906 36.5189 111.474 36.5189C111.239 36.5973 110.847 36.6757 110.808 36.9892C111.043 37.2636 111.435 37.146 111.749 37.1068C112.65 36.9108 113.669 36.8717 114.532 37.342C115.512 37.9299 115.512 39.4978 114.689 40.2033C113.826 40.9088 112.729 41.1048 111.67 41.0656C110.691 41.0264 109.711 40.7129 108.888 40.1249C109.24 39.6938 109.593 39.3018 109.946 38.8706C110.573 39.4194 111.396 39.6938 112.219 39.6154C112.69 39.537 113.278 39.4978 113.552 39.0274C113.709 38.6747 113.356 38.3219 113.003 38.2827C111.945 38.1259 110.887 38.5963 109.867 38.2043C109.397 38.0867 109.084 37.6556 109.084 37.1852C109.044 36.5973 109.593 36.2445 110.024 35.9701C108.809 35.3038 108.417 33.5008 109.28 32.4033C110.338 31.2666 112.141 31.1099 113.473 31.6978Z" fill="white"/>
<path fill-rule="evenodd" clip-rule="evenodd" d="M42.0977 41.0653C43.4303 41.1437 44.8022 41.3397 46.0172 41.9276C47.3891 42.5548 48.6042 43.4171 49.8193 44.2794C46.9972 43.9266 44.3318 42.8291 42.0977 41.0653ZM44.4494 38.5568C46.37 38.596 48.1731 39.2623 50.0153 39.8502C53.0333 40.8301 56.0122 42.006 59.1871 42.2804C57.8152 43.0251 56.4042 43.6522 54.8755 44.005C54.6795 44.0834 54.4836 43.8874 54.2876 43.8482C52.4062 42.7899 50.6032 41.5748 48.7218 40.4382C47.3499 39.6151 45.9781 38.9095 44.4494 38.5568ZM47.3499 37.5769C51.7791 38.008 56.2082 39.2231 60.6765 38.7135C61.7348 38.596 62.7931 38.3608 63.8122 37.9688C63.0283 39.0271 62.2051 40.007 61.1469 40.7909C60.3237 40.9477 59.5007 40.8693 58.6775 40.7517C56.2866 40.4382 53.974 39.6934 51.7007 38.9095C50.2896 38.4784 48.8394 37.9296 47.3499 37.5769ZM42.568 29.7377C43.4303 29.7769 44.3318 29.6201 45.1941 29.9337C46.4092 30.404 46.3308 32.5206 45.1158 32.9518C44.2927 33.0693 43.3911 33.1085 42.6072 32.7166C42.568 31.7367 42.568 30.7176 42.568 29.7377ZM42.8032 25.8573C43.4303 25.0734 44.9198 25.191 45.3117 26.1709C45.4685 26.7196 45.2333 27.4251 44.6454 27.5819C43.9791 27.7779 43.2736 27.6603 42.568 27.6995C42.6072 27.1116 42.4112 26.406 42.8032 25.8573Z" fill="white"/>
</svg>
