<svg width="154" height="57" viewBox="0 0 154 57" fill="none" xmlns="http://www.w3.org/2000/svg">
<path fill-rule="evenodd" clip-rule="evenodd" d="M104.821 32.8805C104.719 33.0165 104.651 33.1185 104.549 33.1865C104.447 33.2545 104.345 33.2885 104.175 33.2885C104.039 33.2885 103.903 33.2545 103.767 33.1525C103.631 33.0845 103.461 32.9825 103.257 32.8805C103.087 32.7786 102.849 32.6766 102.611 32.6086C102.373 32.5406 102.101 32.4726 101.795 32.4726C101.251 32.4726 100.877 32.5746 100.605 32.8126C100.334 33.0505 100.232 33.3564 100.232 33.7304C100.232 33.9683 100.3 34.1723 100.47 34.3422C100.639 34.5122 100.843 34.6482 101.081 34.7501C101.319 34.8521 101.625 34.9881 101.965 35.0561C102.305 35.1581 102.611 35.26 102.985 35.396C103.325 35.532 103.665 35.6679 104.005 35.8379C104.345 36.0079 104.617 36.2118 104.889 36.4498C105.126 36.6877 105.364 37.0276 105.5 37.3676C105.67 37.7415 105.738 38.1494 105.738 38.6593C105.738 39.2372 105.636 39.7471 105.432 40.257C105.228 40.7668 104.957 41.1748 104.583 41.5487C104.209 41.9226 103.733 42.1945 103.223 42.3985C102.679 42.6024 102.067 42.7044 101.353 42.7044C100.979 42.7044 100.571 42.6704 100.198 42.6024C99.7896 42.5345 99.4157 42.3985 99.0418 42.2625C98.6679 42.1266 98.328 41.9566 97.988 41.7526C97.6481 41.5487 97.3762 41.3447 97.1382 41.1068L97.988 39.7811C98.056 39.6791 98.158 39.6111 98.26 39.5431C98.362 39.4751 98.4979 39.4411 98.6339 39.4411C98.8039 39.4411 98.9738 39.5091 99.1438 39.6111C99.3138 39.7131 99.5177 39.849 99.7217 39.951C99.9256 40.087 100.198 40.189 100.47 40.2909C100.741 40.3929 101.081 40.4609 101.455 40.4609C101.965 40.4609 102.373 40.3589 102.645 40.121C102.917 39.883 103.087 39.5431 103.087 39.0332C103.087 38.7613 103.019 38.5233 102.849 38.3194C102.679 38.1494 102.475 37.9794 102.237 37.8775C101.999 37.7755 101.693 37.6395 101.353 37.5715C101.013 37.4696 100.707 37.3676 100.368 37.2656C100.028 37.1636 99.6877 37.0276 99.3817 36.8577C99.0418 36.6877 98.7699 36.4838 98.4979 36.2118C98.26 35.9399 98.022 35.6339 97.8861 35.226C97.7161 34.8521 97.6481 34.3422 97.6481 33.7983C97.6481 33.3564 97.7501 32.8805 97.9201 32.4386C98.09 31.9967 98.362 31.6228 98.7359 31.2829C99.1098 30.943 99.5177 30.671 100.062 30.4671C100.571 30.2631 101.183 30.1611 101.863 30.1611C102.237 30.1611 102.611 30.1951 102.951 30.2631C103.325 30.3311 103.631 30.3991 103.971 30.5351C104.277 30.637 104.583 30.773 104.855 30.943C105.126 31.1129 105.364 31.2829 105.602 31.4868L104.821 32.8805ZM91.2915 32.5746V35.43H95.1327V37.5375H91.2915V40.4609H96.3224V42.6364H88.4361V30.3991H96.3224V32.5746H91.2915ZM86.0566 30.3651V42.6024H83.5412V35.566C83.5412 35.396 83.5412 35.226 83.5412 35.0221C83.5412 34.8181 83.5752 34.6482 83.5752 34.4442L80.3119 40.7329C80.2099 40.9368 80.0739 41.0728 79.9039 41.1748C79.734 41.2767 79.53 41.3447 79.3261 41.3447H78.9521C78.7482 41.3447 78.5442 41.3107 78.3743 41.1748C78.2043 41.0728 78.0683 40.9368 77.9664 40.7329L74.7031 34.4102C74.7371 34.6142 74.7371 34.8181 74.7371 34.9881C74.7371 35.192 74.7711 35.362 74.7711 35.532V42.5685H72.2556V30.3311H74.4311C74.5671 30.3311 74.6691 30.3311 74.7371 30.3311C74.839 30.3311 74.907 30.3651 74.975 30.3651C75.043 30.3991 75.111 30.4331 75.179 30.5011C75.2469 30.569 75.2809 30.637 75.3489 30.739L78.5102 36.9597C78.6122 37.1636 78.7482 37.4016 78.8162 37.6395C78.9182 37.8775 79.0201 38.1154 79.1221 38.3534C79.2241 38.1154 79.3261 37.8775 79.428 37.6395C79.53 37.4016 79.632 37.1976 79.768 36.9597L82.8953 30.773C82.9633 30.671 82.9973 30.569 83.0653 30.5351C83.1332 30.4671 83.2012 30.4331 83.2692 30.3991C83.3372 30.3651 83.4392 30.3651 83.5072 30.3651C83.6091 30.3651 83.7111 30.3651 83.8131 30.3651H86.0566V30.3651ZM66.8168 37.9454L65.695 34.5802C65.593 34.3762 65.525 34.1043 65.4231 33.8323C65.3211 33.5264 65.2191 33.2205 65.1511 32.8805C65.0491 33.2205 64.9812 33.5264 64.8792 33.8323C64.7772 34.1383 64.7092 34.3762 64.6072 34.5802L63.4855 37.9115H66.8168V37.9454ZM71.3378 42.6024H69.1283C68.8903 42.6024 68.6864 42.5345 68.5164 42.4325C68.3464 42.3305 68.2445 42.1605 68.1765 41.9906L67.4626 39.849H62.8056L62.0918 41.9906C62.0238 42.1605 61.9218 42.2965 61.7519 42.4325C61.5819 42.5685 61.3779 42.6364 61.174 42.6364H58.9645L63.6894 30.3991H66.6128L71.3378 42.6024ZM54.2735 36.2798H58.6245V41.4467C57.9787 41.8886 57.3328 42.2285 56.619 42.4325C55.9051 42.6364 55.1573 42.7384 54.4094 42.7384C53.3897 42.7384 52.4719 42.5685 51.656 42.2625C50.8402 41.9566 50.1264 41.5147 49.5485 40.9708C48.9706 40.4269 48.4947 39.7471 48.1888 38.9992C47.8829 38.2174 47.7129 37.4016 47.7129 36.5178C47.7129 35.6 47.8829 34.7501 48.1548 34.0023C48.4607 33.2205 48.9026 32.5746 49.4465 32.0307C50.0244 31.4868 50.7042 31.0449 51.4861 30.739C52.2679 30.4331 53.1857 30.2631 54.1715 30.2631C54.6814 30.2631 55.1573 30.2971 55.5992 30.3991C56.0411 30.5011 56.449 30.603 56.8229 30.739C57.1968 30.875 57.5368 31.0449 57.8427 31.2489C58.1486 31.4529 58.4206 31.6568 58.6925 31.8948L57.8767 33.1525C57.7407 33.3564 57.5708 33.4584 57.3668 33.5264C57.1629 33.5604 56.9249 33.5264 56.7209 33.3564C56.483 33.2205 56.279 33.1185 56.0751 33.0165C55.8711 32.9145 55.6672 32.8466 55.4632 32.7786C55.2593 32.7106 55.0213 32.6766 54.8174 32.6426C54.5794 32.6086 54.3415 32.6086 54.0355 32.6086C53.4916 32.6086 53.0157 32.7106 52.6078 32.8805C52.1659 33.0505 51.826 33.3225 51.5201 33.6624C51.2141 34.0023 50.9762 34.4102 50.8402 34.8861C50.6703 35.362 50.6023 35.9059 50.6023 36.4838C50.6023 37.1296 50.7042 37.7075 50.8742 38.2174C51.0442 38.7273 51.3161 39.1352 51.622 39.5091C51.962 39.849 52.3359 40.121 52.8118 40.2909C53.2537 40.4609 53.7636 40.5629 54.3415 40.5629C54.6814 40.5629 54.9873 40.5289 55.2593 40.4609C55.5312 40.3929 55.8031 40.2909 56.0751 40.189V38.3194H54.8514C54.6814 38.3194 54.5454 38.2854 54.4434 38.1834C54.3415 38.0814 54.2735 37.9794 54.2735 37.8095V36.2798Z" fill="white"/>
<path fill-rule="evenodd" clip-rule="evenodd" d="M69.4686 21.8999C69.1286 23.7695 67.497 25.1292 65.5934 25.1292H65.4914C65.2195 25.1292 64.9135 25.1292 64.1657 24.8233C63.4179 24.5173 63.2819 24.3134 62.738 23.9055C62.4321 23.6675 61.9902 23.1916 61.5483 22.8177C61.1064 23.2936 60.1206 24.3814 60.0526 24.4494C60.4265 24.8573 61.3443 25.6731 61.7182 25.945L61.6502 25.911C62.4661 26.5909 63.4519 27.0668 64.5396 27.2368C64.8795 27.3047 65.1855 27.3047 65.4574 27.3047C65.7634 27.3047 66.0353 27.3047 66.3072 27.2707C68.7547 26.9648 70.7943 25.2312 71.4401 22.8517L69.4686 21.8999ZM113.931 21.0841H118.282V26.251C117.636 26.6929 116.99 27.0328 116.276 27.2368C115.563 27.4407 114.815 27.5427 114.067 27.5427C113.047 27.5427 112.129 27.3727 111.314 27.0668C110.498 26.7609 109.784 26.319 109.206 25.7751C108.628 25.2312 108.152 24.5513 107.846 23.8035C107.54 23.0217 107.37 22.2058 107.37 21.322C107.37 20.4042 107.54 19.5544 107.812 18.8066C108.118 18.0247 108.56 17.3789 109.104 16.835C109.682 16.2911 110.362 15.8492 111.144 15.5433C111.925 15.2373 112.843 15.0674 113.829 15.0674C114.339 15.0674 114.815 15.1014 115.257 15.2034C115.699 15.3053 116.106 15.4073 116.48 15.5433C116.854 15.6792 117.194 15.8492 117.5 16.0532C117.806 16.2571 118.078 16.4611 118.35 16.699L117.534 17.9568C117.398 18.1607 117.228 18.2627 117.024 18.3307C116.82 18.3647 116.582 18.3307 116.378 18.1607C116.14 18.0247 115.937 17.9228 115.733 17.8208C115.529 17.7188 115.325 17.6508 115.121 17.5828C114.917 17.5149 114.679 17.4809 114.475 17.4469C114.237 17.4129 113.999 17.4129 113.693 17.4129C113.149 17.4129 112.673 17.5149 112.265 17.6848C111.823 17.8548 111.483 18.1267 111.178 18.4666C110.872 18.8066 110.634 19.2145 110.498 19.6904C110.328 20.1663 110.26 20.7102 110.26 21.288C110.26 21.9339 110.362 22.5118 110.532 23.0217C110.702 23.5316 110.974 23.9395 111.28 24.3134C111.619 24.6533 111.993 24.9253 112.469 25.0952C112.911 25.2652 113.421 25.3672 113.999 25.3672C114.339 25.3672 114.645 25.3332 114.917 25.2652C115.189 25.1972 115.461 25.0952 115.733 24.9932V23.1236H114.509C114.339 23.1236 114.203 23.0896 114.101 22.9877C113.999 22.8857 113.931 22.7837 113.931 22.6138V21.0841ZM105.705 15.1694V27.4067H104.209C104.005 27.4067 103.801 27.3727 103.665 27.3047C103.529 27.2368 103.359 27.1008 103.223 26.9308L97.4445 19.6224C97.4785 19.8264 97.4785 20.0643 97.4785 20.2683C97.4785 20.4722 97.4785 20.6762 97.4785 20.8461V27.4067H94.9631V15.1694H96.4587C96.5947 15.1694 96.6967 15.1694 96.7647 15.2034C96.8666 15.2034 96.9346 15.2373 97.0026 15.2713C97.0706 15.3053 97.1386 15.3393 97.2066 15.4073C97.2746 15.4753 97.3425 15.5433 97.4105 15.6453L103.223 22.9877C103.189 22.7497 103.189 22.5118 103.155 22.3078C103.155 22.0699 103.121 21.8659 103.121 21.696V15.2034L105.705 15.1694ZM92.6516 27.4407H89.7962V15.2034H92.6516V27.4407ZM87.4167 15.1694V27.4067H84.9012V20.3702C84.9012 20.2003 84.9012 20.0303 84.9012 19.8264C84.9012 19.6224 84.9352 19.4524 84.9352 19.2485L81.6719 25.5371C81.5699 25.7411 81.434 25.877 81.264 25.979C81.094 26.081 80.8901 26.149 80.6861 26.149H80.3122C80.1083 26.149 79.9043 26.115 79.7343 25.979C79.5644 25.877 79.4284 25.7411 79.3264 25.5371L76.0631 19.2145C76.0971 19.4184 76.0971 19.6224 76.0971 19.7924C76.0971 19.9963 76.1311 20.1663 76.1311 20.3362V27.3727H73.6157V15.1354H75.7912C75.9272 15.1354 76.0291 15.1354 76.0971 15.1354C76.1991 15.1354 76.2671 15.1694 76.3351 15.1694C76.4031 15.2033 76.471 15.2373 76.539 15.3053C76.607 15.3733 76.641 15.4413 76.709 15.5433L79.8703 21.7639C79.9723 21.9679 80.1083 22.2058 80.1762 22.4438C80.2782 22.6817 80.3802 22.9197 80.4822 23.1576C80.5842 22.9197 80.6861 22.6817 80.7881 22.4438C80.8901 22.2058 80.9921 22.0019 81.128 21.7639L84.2554 15.5773C84.3234 15.4753 84.3573 15.3733 84.4253 15.3393C84.4933 15.2713 84.5613 15.2373 84.6293 15.2034C84.6973 15.1694 84.7993 15.1694 84.8672 15.1694C84.9692 15.1694 85.0712 15.1694 85.1732 15.1694H87.4167V15.1694ZM39.861 25.2992C40.2349 25.2992 40.5408 25.2652 40.7788 25.1632C41.0167 25.0612 41.2207 24.9592 41.3566 24.7893C41.4926 24.6193 41.5946 24.4833 41.6286 24.2794C41.6626 24.0754 41.6966 23.9055 41.6966 23.7015C41.6966 23.4636 41.6626 23.2596 41.5946 23.0896C41.5266 22.9197 41.4246 22.7497 41.2886 22.6477C41.1527 22.5118 40.9487 22.4438 40.7108 22.3758C40.4728 22.3078 40.1669 22.2738 39.827 22.2738H37.8554V25.3332H39.861V25.2992ZM37.8554 17.3109V20.3362H39.3511C39.657 20.3362 39.9629 20.3022 40.2009 20.2683C40.4388 20.2343 40.6768 20.1323 40.8467 20.0303C41.0167 19.9283 41.1527 19.7584 41.2546 19.5544C41.3566 19.3505 41.3906 19.1125 41.3906 18.8066C41.3906 18.5006 41.3566 18.2627 41.2886 18.0927C41.2207 17.8888 41.1187 17.7528 40.9487 17.6168C40.7788 17.5149 40.6088 17.4129 40.3708 17.3789C40.1329 17.3449 39.861 17.3109 39.555 17.3109H37.8554ZM39.521 15.1694C40.3708 15.1694 41.0847 15.2373 41.6966 15.4073C42.2744 15.5773 42.7843 15.7812 43.1582 16.0872C43.5322 16.3931 43.8041 16.733 43.9741 17.1409C44.144 17.5488 44.246 17.9907 44.246 18.5006C44.246 18.7726 44.212 19.0445 44.144 19.2825C44.076 19.5204 43.9401 19.7924 43.7701 19.9963C43.6001 20.2343 43.3962 20.4382 43.1242 20.6082C42.8523 20.7781 42.5464 20.9481 42.1725 21.0841C42.9883 21.288 43.5662 21.594 43.9741 22.0359C44.348 22.4778 44.5519 23.0557 44.5519 23.7355C44.5519 24.2454 44.45 24.7553 44.246 25.1972C44.042 25.6391 43.7361 26.047 43.3622 26.3529C42.9883 26.6929 42.4784 26.9308 41.9345 27.1348C41.3566 27.3047 40.7108 27.4067 39.9629 27.4067H35V15.1354H39.521V15.1694Z" fill="white"/>
<path fill-rule="evenodd" clip-rule="evenodd" d="M62.6362 18.6032C63.35 17.7534 64.4038 17.2435 65.5935 17.2435C66.5113 17.2435 67.3952 17.5495 68.075 18.1273L67.1232 18.8072L71.4403 20.7788L70.9984 16.0538L69.8766 16.8356C68.7549 15.7138 67.2252 15.068 65.5596 15.068C63.656 15.068 61.9903 15.9178 60.8686 17.2775C60.8346 17.3455 57.4353 21.4586 56.0416 22.8523C55.9736 22.9203 55.8716 22.9883 55.8037 23.0563L55.7697 23.0903C55.6677 23.1922 55.5657 23.2602 55.4637 23.3282C55.4297 23.3622 55.4297 23.3622 55.3957 23.3622C55.2938 23.4302 55.2258 23.4982 55.1238 23.5662C55.0898 23.6001 55.0898 23.6001 55.0558 23.6341C54.9878 23.6681 54.9199 23.7361 54.8859 23.7701C54.8519 23.8041 54.8519 23.8041 54.8179 23.8381C54.7839 23.8721 54.7839 23.8721 54.7499 23.8721C54.6819 23.9401 54.5799 23.9741 54.5119 24.042C54.4779 24.076 54.4779 24.076 54.444 24.076L54.206 24.212C54.172 24.212 54.172 24.246 54.138 24.246C54.07 24.28 54.002 24.314 53.9341 24.348C53.9001 24.348 53.9001 24.382 53.8661 24.382C53.7981 24.416 53.7641 24.45 53.6961 24.484C53.2882 24.7219 52.9483 24.8579 52.6763 24.9259C52.4044 25.0278 52.1664 25.0618 51.7245 25.0618C49.549 24.9599 47.8154 23.0563 47.9853 20.8127C48.1213 18.8752 49.719 17.3115 51.6566 17.1755C52.8803 17.1075 54.002 17.6174 54.8179 18.4333C54.9538 18.5692 56.0416 19.759 56.2796 20.0309C56.6875 19.589 57.7072 18.3993 57.7412 18.3653C57.5373 18.0933 56.7215 17.2435 56.6535 17.1755C55.4637 15.8498 53.7641 15 51.8265 15C48.6312 15.034 45.9798 17.5834 45.8098 20.7788C45.6399 24.178 48.2233 26.9994 51.5206 27.2374C51.6226 27.2374 52.1664 27.2714 52.4384 27.2374C52.7103 27.2034 52.9823 27.1354 53.1862 27.1014C53.5262 27.0334 53.9001 26.8294 53.9001 26.8294C53.9341 26.8294 53.9341 26.7955 53.9681 26.7955C54.036 26.7615 54.104 26.7275 54.172 26.6935C54.206 26.6935 54.24 26.6595 54.274 26.6595C54.342 26.6255 54.444 26.5915 54.5119 26.5575C54.5459 26.5575 54.5799 26.5235 54.6139 26.5235C54.8179 26.4215 55.0558 26.2856 55.2938 26.1156C55.3278 26.0816 55.3618 26.0816 55.3957 26.0476C55.4977 25.9796 55.5657 25.9456 55.6677 25.8777C55.7017 25.8437 55.7357 25.8097 55.8037 25.8097C55.9056 25.7417 55.9736 25.6737 56.0756 25.6057C56.1096 25.5717 56.1436 25.5377 56.1776 25.5037C56.2796 25.4357 56.3475 25.3678 56.4495 25.2998C56.4835 25.2658 56.4835 25.2658 56.5175 25.2318C56.5515 25.2318 56.5515 25.1978 56.5515 25.1978C56.6875 25.0958 56.8234 24.9598 56.9594 24.8579C56.9934 24.8239 57.0274 24.7899 57.0614 24.7559C57.1634 24.6539 57.2653 24.5859 57.4013 24.484C57.4353 24.45 57.5033 24.382 57.5373 24.348C57.5713 24.314 57.5713 24.314 57.6053 24.28C57.6733 24.212 57.7752 24.144 57.8432 24.042C57.8772 24.0081 59.1349 22.7843 59.9508 21.7645C60.8006 20.9147 61.7184 19.691 62.6362 18.6032Z" fill="white"/>
</svg>
