<svg xmlns="http://www.w3.org/2000/svg" width="80" height="80" viewBox="0 0 80 80">
    <g fill="none" fill-rule="evenodd">
        <path fill="#111A41" stroke="#47558A" d="M76 .5H4c-.966 0-1.841.392-2.475 1.025C.892 2.16.5 3.034.5 4v72c0 .966.392 1.841 1.025 2.475C2.16 79.108 3.034 79.5 4 79.5h72c.966 0 1.841-.392 2.475-1.025.633-.634 1.025-1.509 1.025-2.475V4c0-.966-.392-1.841-1.025-2.475C77.84.892 76.966.5 76 .5z"/>
        <g fill-rule="nonzero" opacity=".5" transform="translate(23 22)">
            <path fill="#F7BD48" d="M20.973 9.68c-.36-.122-.617-.439-.664-.816-.126-1.01-.64-6.15 1.67-7.815.644-.468 1.774-.855 3.478-.048 2.13 1.008 2.97.75 3.232.6.209-.144.347-.37.38-.622.005-.362.207-.693.527-.863.32-.17.706-.152 1.01.046.302.198.473.546.446.907 0 .15-.102 1.49-1.338 2.233-1.182.711-2.9.543-5.1-.5-.665-.314-1.158-.36-1.467-.137-1.004.724-1.109 3.985-.864 5.962.042.34-.094.677-.359.892-.265.216-.623.28-.946.17l-.005-.009z"/>
            <circle cx="16.728" cy="18.771" r="13.128" fill="#FE320E" transform="rotate(-71.12 16.728 18.77)"/>
            <path fill="#FE320E" d="M17.389 4.726H24.924V6.928H17.389z" transform="rotate(18.88 21.156 5.827)"/>
            <path fill="#111A41" d="M25.644 24.769c2.052-3.206 2.281-7.25.605-10.667-1.675-3.418-5.013-5.713-8.804-6.054 6.008 3.266 9.296 9.971 8.2 16.72z"/>
        </g>
    </g>
</svg>
