<svg xmlns="http://www.w3.org/2000/svg" width="88" height="121" viewBox="0 0 88 121">
    <g fill="none" transform="translate(-13)">
        <path fill="#FFF" d="M48.792 44.822c-1.188.43-2.517.143-3.422-.738-2.43-2.365-14.437-14.642-11.903-23.761.703-2.554 2.833-5.907 8.934-7.353 7.628-1.806 9.27-4.226 9.643-5.159.241-.809.129-1.682-.309-2.404-.767-.928-.968-2.2-.526-3.319.443-1.12 1.46-1.91 2.653-2.061 1.194-.153 2.377.357 3.086 1.33l.12.164c1.754 2.503 2.189 5.7 1.167 8.58-1.591 4.3-6.4 7.433-14.282 9.299-2.38.564-3.757 1.467-4.096 2.689-1.102 3.99 5.403 12.65 10.147 17.28.823.794 1.177 1.956.936 3.073-.24 1.117-1.042 2.03-2.118 2.415l-.03-.035z"/>
        <path fill="#FF624D" d="M39.947 24.718l-6.216 2.24c.818 2.563 1.993 4.999 3.492 7.233l6.45-2.32c-1.765-2.499-3.182-5.058-3.726-7.153z"/>
        <circle cx="56.66" cy="77.239" r="43.66" fill="#F1475D" transform="rotate(-19.79 56.66 77.24)"/>
        <path fill="#F1475D" d="M28.732 30.768H53.79V38.091H28.732z" transform="rotate(-19.79 41.26 34.43)"/>
        <path fill="#FF624D" d="M42.4 28.382H53.364999999999995V35.705H42.4z" transform="rotate(-19.79 47.882 32.044)"/>
        <path fill="#FFF" d="M47.725 27.453H53.207V34.775999999999996H47.725z" transform="rotate(-19.79 50.466 31.115)"/>
        <path fill="#FFF" d="M92.273 74.295c-1.331-12.593-9.14-23.576-20.597-28.97-11.456-5.393-24.897-4.413-35.45 2.585 22.39-4.009 44.869 6.573 56.047 26.385z"/>
    </g>
</svg>
