<svg xmlns="http://www.w3.org/2000/svg" width="80" height="80" viewBox="0 0 80 80">
    <g fill="none" fill-rule="evenodd">
        <g fill-rule="nonzero">
            <path fill="#FE320E" d="M46.559 32.807L62 21.509 45.665 21.509 52.373 8.246 37.698 15.778 32.609 0 28.044 14.157 16.493 2.522 19.48 21.509 3.219 21.509 12.83 28.542 0 35.126 20.238 38.355 14.444 56.309 23.867 49.415 25.687 61 34.198 44.179 50.773 56.309 46.324 42.517 58.058 44.389z" transform="translate(9 10)"/>
            <path fill="#F7BD48" d="M42.044 32.126L53 24.16 41.408 24.16 46.17 14.813 35.754 20.122 32.142 9 28.902 18.978 20.705 10.777 22.824 24.16 11.285 24.16 18.106 29.119 9 33.76 23.362 36.035 19.251 48.692 25.939 43.833 27.231 52 33.27 40.141 45.033 48.692 41.876 38.97 50.202 40.288z" transform="translate(9 10)"/>
        </g>
    </g>
</svg>
