<svg fill="none" xmlns="http://www.w3.org/2000/svg" viewBox="0.77 0.29 105.95 102.06"> <path fill-rule="evenodd" clip-rule="evenodd" d="M98.776 84.675L75.191 74.588V39.992L103.326 49.862L98.776 84.675Z" fill="#C2780F"></path> <path fill-rule="evenodd" clip-rule="evenodd" d="M14.116 50.905L75.1909 39.992V74.587L18.016 86.585L14.116 50.905Z" fill="#D6820D"></path> <path fill-rule="evenodd" clip-rule="evenodd" d="M41.6 62.076L103.326 49.862L98.776 84.674L41.6 96.672V62.076Z" fill="#FFB71C"></path> <path fill-rule="evenodd" clip-rule="evenodd" d="M41.6 96.672L18.016 86.585L14.116 50.906L41.6 62.076V96.672Z" fill="#C2780F"></path> <path fill-rule="evenodd" clip-rule="evenodd" d="M46.514 66.112L97.567 56.01L94.355 80.581L46.514 90.621V66.112Z" fill="#9740C2"></path> <path fill-rule="evenodd" clip-rule="evenodd" d="M36.687 89.227L22.589 83.197L19.895 58.558L36.687 65.383V89.227Z" fill="#9740C2"></path> <path fill-rule="evenodd" clip-rule="evenodd" d="M20.532 64.385L20.057 60.037L36.687 66.811V70.965L20.532 64.385ZM21.429 72.594L20.785 66.704L36.686 73.181V78.809L21.429 72.594ZM22.251 80.106L21.683 74.914L36.687 81.026V86.143L22.251 80.106Z" fill="#7F38A3"></path> <path fill-rule="evenodd" clip-rule="evenodd" d="M75.191 39.992L14.116 50.905L10.108 15.768L71.183 7.021L75.191 39.992Z" fill="#FFB71C"></path> <path fill-rule="evenodd" clip-rule="evenodd" d="M69.753 35.973L18.405 45.148L15.531 19.956L66.912 12.596L69.753 35.973Z" fill="#D6820D"></path> <path fill-rule="evenodd" clip-rule="evenodd" d="M63.086 13.144L66.911 12.596L69.753 35.972C69.753 35.972 61.879 35.304 60.474 26.407C59.5 20.233 60.696 15.805 63.086 13.144Z" fill="#C2780F"></path> <path fill-rule="evenodd" clip-rule="evenodd" d="M90.9001 81.306L46.514 90.621V88.925L88.24 80.169L92.709 79.231L95.695 56.38L97.567 56.01L94.355 80.581L90.9001 81.306Z" fill="#7F38A3"></path> <path fill-rule="evenodd" clip-rule="evenodd" d="M36.687 89.227L22.589 83.197L19.895 58.558L21.379 59.161L23.888 82.113L36.687 87.587V89.227Z" fill="#7F38A3"></path> <path fill-rule="evenodd" clip-rule="evenodd" d="M50.331 99.556L41.6 101.389V93.805L49.521 92.143L50.331 99.556Z" fill="#FFB71C"></path> <path fill-rule="evenodd" clip-rule="evenodd" d="M41.6 101.389L34.743 98.456L35.682 91.274L41.6 93.805V101.389Z" fill="#C2780F"></path> <path fill-rule="evenodd" clip-rule="evenodd" d="M49.521 92.143L46.944 90.991L41.6 92.074L37.6 90.639L35.682 91.274L41.6 93.805L49.521 92.143Z" fill="#FFC64A"></path> <path fill-rule="evenodd" clip-rule="evenodd" d="M102.846 88.013L94.115 89.846V82.262L102.036 80.6L102.846 88.013Z" fill="#FFB71C"></path> <path fill-rule="evenodd" clip-rule="evenodd" d="M94.115 89.846L91.319 88.65L92.258 81.468L94.115 82.262V89.846Z" fill="#C2780F"></path> <path fill-rule="evenodd" clip-rule="evenodd" d="M102.036 80.6L99.459 79.448L94.355 80.581L92.258 81.468L94.115 82.262L102.036 80.6Z" fill="#FFC64A"></path> <path fill-rule="evenodd" clip-rule="evenodd" d="M24.986 91.749L21.486 92.483V84.9L24.176 84.335L24.986 91.749Z" fill="#FFB71C"></path> <path fill-rule="evenodd" clip-rule="evenodd" d="M21.486 92.483L14.629 89.55L15.568 82.368L21.486 84.9V92.483Z" fill="#C2780F"></path> <path fill-rule="evenodd" clip-rule="evenodd" d="M24.176 84.335C21.817 83.281 19.948 82.617 17.486 81.733L15.567 82.368L21.486 84.899L24.176 84.335Z" fill="#FFC64A"></path> <path fill-rule="evenodd" clip-rule="evenodd" d="M92.815 65.143L92.06 70.92L46.513 79.941V74.314L92.815 65.143ZM91.763 73.195L91.124 78.083L46.514 87.401V82.157L91.763 73.195ZM46.514 67.943L93.67 58.603L93.113 62.867L46.514 72.097V67.943V67.943Z" fill="#BF5AF2"></path> <path fill-rule="evenodd" clip-rule="evenodd" d="M50.331 69.558L41.6 71.39V63.807L49.521 62.145L50.331 69.558Z" fill="#FFB71C"></path> <path fill-rule="evenodd" clip-rule="evenodd" d="M41.6 71.39L34.743 68.457L35.682 61.275L41.6 63.807V71.39Z" fill="#C2780F"></path> <path fill-rule="evenodd" clip-rule="evenodd" d="M49.521 62.145L46.944 60.993L41.6 62.076L37.782 60.524L35.682 61.275L41.6 63.807L49.521 62.145Z" fill="#FFC64A"></path> <path fill-rule="evenodd" clip-rule="evenodd" d="M106.713 58.427L97.982 60.259V52.676L105.903 51.014L106.713 58.427Z" fill="#FFB71C"></path> <path fill-rule="evenodd" clip-rule="evenodd" d="M97.982 60.259L95.186 59.063L96.125 51.881L97.982 52.676V60.259Z" fill="#C2780F"></path> <path fill-rule="evenodd" clip-rule="evenodd" d="M105.903 51.014L103.326 49.862L98.222 50.995L96.125 51.881L97.982 52.676L105.903 51.014Z" fill="#FFC64A"></path> <path fill-rule="evenodd" clip-rule="evenodd" d="M21.576 61.021L18.076 61.756V54.172L20.766 53.608L21.576 61.021Z" fill="#FFB71C"></path> <path fill-rule="evenodd" clip-rule="evenodd" d="M18.076 61.756L11.219 58.823L12.158 51.641L18.076 54.172V61.756Z" fill="#C2780F"></path> <path fill-rule="evenodd" clip-rule="evenodd" d="M20.766 53.608C18.408 52.554 16.538 51.89 14.076 51.006L12.158 51.641L18.076 54.172L20.766 53.608Z" fill="#FFC64A"></path> <path fill-rule="evenodd" clip-rule="evenodd" d="M10.108 15.768L14.116 50.905C14.116 50.905 3.18801 49.978 1.23701 37.628C-0.711993 25.279 3.59501 17.958 10.108 15.768Z" fill="#C2780F"></path> <path fill-rule="evenodd" clip-rule="evenodd" d="M7.97403 21.619L10.435 45.713C10.172 45.568 9.92703 45.42 9.71103 45.275C2.79303 40.653 2.62503 27.039 7.97403 21.619Z" fill="#8C3DB3"></path> <path fill-rule="evenodd" clip-rule="evenodd" d="M47.271 58.449L47.225 58.429L41.839 59.521L22.911 51.829L74.987 42.523L94.017 49.199L47.271 58.449ZM75.191 55.429L46.984 61.01L46.944 60.992L41.6 62.075L37.782 60.523L20.766 53.607C19.328 52.964 18.071 52.466 16.751 51.975L14.117 50.905L75.192 39.991L103.326 49.861L75.191 55.429Z" fill="#FFC64A"></path> <path fill-rule="evenodd" clip-rule="evenodd" d="M75.239 46.493L67.951 53.753L69.067 40.297L75.239 46.493Z" fill="#DB94FF"></path> <path fill-rule="evenodd" clip-rule="evenodd" d="M81.412 52.69L67.951 53.753L75.239 46.493L81.412 52.69Z" fill="#BF5AF2"></path> <path fill-rule="evenodd" clip-rule="evenodd" d="M81.77 46.16L81.412 52.69L75.239 46.493L81.77 46.16Z" fill="#5E5CE6"></path> <path fill-rule="evenodd" clip-rule="evenodd" d="M75.239 46.493L69.067 40.297L75.597 39.964L75.239 46.493Z" fill="#64D2FF"></path> <path fill-rule="evenodd" clip-rule="evenodd" d="M81.77 46.16L75.239 46.493L75.597 39.964L78.684 43.062L81.77 46.16Z" fill="#DB94FF"></path> <path d="M62.021 54.524C62.032 54.524 66.063 54.231 67.56 54.88C68.365 55.228 69.335 55.913 70.13 56.708C70.781 57.359 71.286 58.052 71.419 58.626C71.759 60.092 71.359 65.354 71.343 65.578C71.296 66.012 70.753 70.94 70.488 71.743C70.339 72.187 69.712 73.149 68.792 73.806C68.255 74.19 67.627 74.444 66.975 74.352C65.156 74.095 62.429 72.031 61.727 71.48C61.394 70.786 60.297 68.395 60.077 66.684C59.919 65.456 59.627 64.002 59.284 62.803C58.958 61.662 58.56 60.686 58.139 60.206C57.705 59.71 56.369 58.212 55.157 57.032C54.394 56.289 53.65 55.649 53.127 55.387C52.665 55.156 52.044 54.936 51.4 54.874C50.867 54.822 50.315 54.874 49.803 55.101C49.261 55.34 48.785 55.757 48.452 56.424H48.448C48.24 56.841 48.256 57.621 48.193 58.268L50.053 57.9C50.089 57.523 50.128 57.532 50.236 57.315L50.233 57.314C50.334 57.113 50.464 56.992 50.606 56.93C50.779 56.854 50.992 56.839 51.211 56.86C51.581 56.896 51.953 57.029 52.235 57.17C52.545 57.325 53.125 57.84 53.765 58.463C54.937 59.604 56.221 61.044 56.638 61.52C56.846 61.757 57.107 62.462 57.361 63.352C57.684 64.485 57.957 65.827 58.099 66.936C58.402 69.292 60.036 72.559 60.04 72.569L60.306 72.901C60.316 72.909 64.036 75.955 66.701 76.331C67.933 76.505 69.039 76.082 69.947 75.433C71.236 74.512 72.147 73.066 72.377 72.378V72.374C72.726 71.327 73.328 65.776 73.33 65.76L73.334 65.721C73.335 65.705 73.785 59.997 73.364 58.184C73.138 57.21 72.432 56.186 71.544 55.297C70.589 54.342 69.382 53.502 68.349 53.055C66.391 52.207 61.901 52.534 61.888 52.535L62.021 54.524Z" fill="#00A868"></path> <path fill-rule="evenodd" clip-rule="evenodd" d="M63.783 41.844L67.038 54.109L53.355 44.612L63.783 41.844Z" fill="#64D2FF"></path> <path fill-rule="evenodd" clip-rule="evenodd" d="M74.21 39.076L67.038 54.109L63.783 41.844L74.21 39.076Z" fill="#0A84FF"></path> <path fill-rule="evenodd" clip-rule="evenodd" d="M67.458 34.664L74.21 39.076L63.783 41.844L67.458 34.664Z" fill="white"></path> <path fill-rule="evenodd" clip-rule="evenodd" d="M63.783 41.844L53.355 44.612L57.03 37.432L63.783 41.844Z" fill="#0A84FF"></path> <path fill-rule="evenodd" clip-rule="evenodd" d="M67.458 34.664L63.783 41.844L57.03 37.432L62.244 36.048L67.458 34.664Z" fill="#64D2FF"></path> <path fill-rule="evenodd" clip-rule="evenodd" d="M52.014 94.348C49.996 94.348 48.188 94.854 46.963 95.654H45.337V98.124C45.337 100.21 48.326 101.9 52.013 101.9C55.701 101.9 58.69 100.21 58.69 98.124V95.654H57.0641C55.8401 94.854 54.032 94.348 52.014 94.348Z" fill="#FF9500"></path> <path fill-rule="evenodd" clip-rule="evenodd" d="M47.695 101.003C48.281 101.284 48.953 101.509 49.686 101.664V95.812H47.695V101.003V101.003Z" fill="#FFB71C"></path> <path fill-rule="evenodd" clip-rule="evenodd" d="M54.618 101.602C57.012 101.028 58.691 99.687 58.691 98.124V95.654H57.065C56.401 95.22 55.566 94.873 54.618 94.646V101.602Z" fill="#FFB71C"></path> <path fill-rule="evenodd" clip-rule="evenodd" d="M52.014 91.878C48.327 91.878 45.338 93.569 45.338 95.654C45.338 97.739 48.327 99.43 52.014 99.43C55.702 99.43 58.691 97.739 58.691 95.654C58.691 93.569 55.702 91.878 52.014 91.878Z" fill="#FFD60A"></path> <path fill-rule="evenodd" clip-rule="evenodd" d="M52.014 93.304C49.486 93.304 47.436 94.356 47.436 95.654C47.436 96.952 49.486 98.005 52.014 98.005C54.543 98.005 56.592 96.953 56.592 95.654C56.592 94.355 54.543 93.304 52.014 93.304Z" fill="#FFB71C"></path> <path fill-rule="evenodd" clip-rule="evenodd" d="M71.167 95.439C69.321 95.439 67.666 95.902 66.546 96.634H65.058V98.894C65.058 100.802 67.793 102.349 71.167 102.349C74.541 102.349 77.276 100.802 77.276 98.894V96.634H75.788C74.668 95.903 73.013 95.439 71.167 95.439Z" fill="#FF9500"></path> <path fill-rule="evenodd" clip-rule="evenodd" d="M67.214 101.529C67.75 101.786 68.365 101.992 69.036 102.134V96.779H67.214V101.529Z" fill="#FFB71C"></path> <path fill-rule="evenodd" clip-rule="evenodd" d="M73.549 102.077C75.739 101.552 77.276 100.325 77.276 98.894V96.634H75.788C75.181 96.237 74.416 95.919 73.549 95.712V102.077V102.077Z" fill="#FFB71C"></path> <path fill-rule="evenodd" clip-rule="evenodd" d="M71.167 93.18C67.793 93.18 65.058 94.727 65.058 96.635C65.058 98.543 67.793 100.09 71.167 100.09C74.541 100.09 77.276 98.543 77.276 96.635C77.276 94.727 74.541 93.18 71.167 93.18Z" fill="#FFD60A"></path> <path fill-rule="evenodd" clip-rule="evenodd" d="M71.167 94.484C68.854 94.484 66.978 95.447 66.978 96.635C66.978 97.823 68.854 98.786 71.167 98.786C73.481 98.786 75.356 97.823 75.356 96.635C75.356 95.447 73.48 94.484 71.167 94.484Z" fill="#FFB71C"></path> <path d="M62.287 66.361C62.287 67.926 61.018 69.195 59.453 69.195V69.194C57.887 69.194 56.619 67.925 56.619 66.36C56.619 64.794 57.888 63.526 59.453 63.526C61.018 63.527 62.287 64.796 62.287 66.361Z" fill="#01D180"></path> <path d="M59.68 65.673C59.68 66.146 60.063 66.529 60.536 66.529C61.009 66.529 61.392 66.145 61.392 65.673C61.392 65.201 61.009 64.818 60.536 64.818C60.063 64.818 59.68 65.201 59.68 65.673Z" fill="white"></path> <path d="M64.315 72.607C64.315 74.172 63.046 75.441 61.481 75.441C59.915 75.441 58.647 74.172 58.647 72.607C58.647 71.041 59.916 69.773 61.481 69.773C63.046 69.773 64.315 71.041 64.315 72.607Z" fill="#01D180"></path> <path d="M61.709 71.919C61.709 72.392 62.092 72.775 62.565 72.775C63.038 72.775 63.421 72.392 63.421 71.919C63.421 71.447 63.038 71.064 62.565 71.064C62.092 71.064 61.709 71.446 61.709 71.919Z" fill="white"></path> <path d="M70.125 75.004C70.125 76.569 68.856 77.838 67.291 77.838C65.726 77.838 64.457 76.569 64.457 75.004C64.457 73.438 65.726 72.17 67.291 72.17C68.856 72.17 70.125 73.438 70.125 75.004Z" fill="#01D180"></path> <path d="M67.519 74.315C67.519 74.787 67.902 75.171 68.375 75.171C68.848 75.171 69.23 74.787 69.23 74.315C69.23 73.842 68.847 73.46 68.375 73.46C67.902 73.46 67.519 73.843 67.519 74.315Z" fill="white"></path> <path d="M74.742 71.234C74.742 72.799 73.473 74.068 71.908 74.068C70.342 74.068 69.074 72.799 69.074 71.234C69.074 69.668 70.343 68.4 71.908 68.4C73.473 68.4 74.742 69.668 74.742 71.234Z" fill="#01D180"></path> <path d="M72.135 70.546C72.135 71.019 72.518 71.402 72.991 71.402C73.464 71.402 73.847 71.019 73.847 70.546C73.847 70.074 73.464 69.691 72.991 69.691C72.519 69.691 72.135 70.074 72.135 70.546Z" fill="white"></path> <path d="M75.221 64.83C75.221 66.395 73.952 67.664 72.387 67.664C70.821 67.664 69.553 66.395 69.553 64.83C69.553 63.264 70.822 61.996 72.387 61.996C73.952 61.996 75.221 63.264 75.221 64.83Z" fill="#01D180"></path> <path d="M72.615 64.142C72.615 64.615 72.998 64.998 73.471 64.998C73.944 64.998 74.327 64.614 74.327 64.142C74.327 63.67 73.944 63.287 73.471 63.287C72.998 63.287 72.615 63.669 72.615 64.142Z" fill="white"></path> <path d="M75.227 58.404C75.227 59.969 73.958 61.238 72.393 61.238C70.828 61.238 69.559 59.969 69.559 58.404C69.559 56.838 70.828 55.57 72.393 55.57C73.958 55.569 75.227 56.838 75.227 58.404Z" fill="#01D180"></path> <path d="M72.62 57.715C72.62 58.188 73.003 58.571 73.476 58.571C73.949 58.571 74.331 58.187 74.331 57.715C74.331 57.243 73.948 56.86 73.476 56.86C73.003 56.86 72.62 57.243 72.62 57.715Z" fill="white"></path> <path d="M70.789 53.966C70.789 55.531 69.52 56.8 67.955 56.8V56.801C66.389 56.801 65.121 55.532 65.121 53.967C65.121 52.401 66.39 51.133 67.955 51.133C69.52 51.132 70.789 52.4 70.789 53.966Z" fill="#01D180"></path> <path d="M68.183 53.278C68.183 53.75 68.566 54.134 69.039 54.134C69.512 54.134 69.895 53.75 69.895 53.278C69.895 52.806 69.512 52.423 69.039 52.423C68.566 52.423 68.183 52.805 68.183 53.278Z" fill="white"></path> <path d="M64.789 53.528C64.789 55.093 63.52 56.362 61.955 56.362V56.361V56.362C60.389 56.362 59.121 55.093 59.121 53.528C59.121 51.962 60.39 50.694 61.955 50.694C63.521 50.694 64.789 51.963 64.789 53.528Z" fill="#01D180"></path> <path d="M62.183 52.84C62.183 53.312 62.566 53.696 63.039 53.696C63.512 53.696 63.895 53.312 63.895 52.84C63.895 52.368 63.512 51.985 63.039 51.985C62.566 51.985 62.183 52.368 62.183 52.84Z" fill="white"></path> <path fill-rule="evenodd" clip-rule="evenodd" d="M55.624 47.376C53.629 47.677 51.916 48.447 50.825 49.421L49.217 49.663L49.585 52.105C49.896 54.167 53.104 55.393 56.75 54.843C60.396 54.293 63.1 52.176 62.789 50.113L62.421 47.671L60.813 47.914C59.482 47.305 57.619 47.074 55.624 47.376Z" fill="#FF9500"></path> <path fill-rule="evenodd" clip-rule="evenodd" d="M52.345 54.6C52.966 54.791 53.664 54.913 54.413 54.957L53.54 49.171L51.571 49.468L52.345 54.6Z" fill="#E68600"></path> <path fill-rule="evenodd" clip-rule="evenodd" d="M59.28 54.16C61.561 53.236 63.022 51.659 62.788 50.113L62.42 47.671L60.812 47.914C60.091 47.584 59.213 47.365 58.243 47.282L59.28 54.16Z" fill="#E68600"></path> <path fill-rule="evenodd" clip-rule="evenodd" d="M55.255 44.933C51.609 45.483 48.905 47.6 49.216 49.663C49.527 51.725 52.735 52.951 56.381 52.401C60.027 51.851 62.731 49.734 62.42 47.672C62.109 45.609 58.901 44.383 55.255 44.933Z" fill="#FFD60A"></path> <path fill-rule="evenodd" clip-rule="evenodd" d="M55.468 46.343C52.968 46.72 51.098 48.067 51.292 49.35C51.486 50.634 53.669 51.369 56.169 50.992C58.669 50.615 60.5389 49.269 60.3449 47.985C60.1509 46.701 57.968 45.966 55.468 46.343Z" fill="#E68600"></path> <path d="M60.224 60.862C60.224 62.427 58.955 63.696 57.39 63.696C55.824 63.696 54.556 62.427 54.556 60.862C54.556 59.296 55.825 58.028 57.39 58.028C58.955 58.028 60.224 59.296 60.224 60.862Z" fill="#01D180"></path> <path d="M57.618 60.173C57.618 60.646 58.001 61.029 58.474 61.029C58.947 61.029 59.33 60.646 59.33 60.173C59.33 59.701 58.947 59.318 58.474 59.318C58.001 59.318 57.618 59.701 57.618 60.173Z" fill="white"></path> <path d="M55.911 56.237C55.911 57.802 54.642 59.071 53.077 59.071C51.511 59.071 50.243 57.802 50.243 56.237C50.243 54.671 51.512 53.403 53.077 53.403C54.643 53.403 55.911 54.671 55.911 56.237Z" fill="#01D180"></path> <path d="M53.305 55.548C53.305 56.021 53.688 56.404 54.161 56.404C54.634 56.404 55.017 56.021 55.017 55.548C55.017 55.076 54.634 54.693 54.161 54.693C53.688 54.693 53.305 55.076 53.305 55.548Z" fill="white"></path> <path fill-rule="evenodd" clip-rule="evenodd" d="M88.957 43.474C86.972 43.204 85.124 43.46 83.812 44.084L82.212 43.866L81.882 46.297C81.603 48.349 84.319 50.413 87.947 50.906C91.576 51.399 94.743 50.135 95.022 48.083L95.353 45.652L93.753 45.435C92.655 44.484 90.943 43.744 88.957 43.474Z" fill="#FF9500"></path> <path fill-rule="evenodd" clip-rule="evenodd" d="M83.816 49.446C84.355 49.801 84.986 50.112 85.687 50.362L86.47 44.603L84.51 44.337L83.816 49.446Z" fill="#E68600"></path> <path fill-rule="evenodd" clip-rule="evenodd" d="M90.549 50.962C92.981 50.717 94.813 49.622 95.022 48.084L95.353 45.653L93.753 45.436C93.158 44.92 92.382 44.467 91.48 44.116L90.549 50.962Z" fill="#E68600"></path> <path fill-rule="evenodd" clip-rule="evenodd" d="M89.287 41.044C85.658 40.551 82.49 41.815 82.211 43.867C81.932 45.919 84.648 47.983 88.276 48.476C91.905 48.969 95.073 47.705 95.352 45.653C95.632 43.601 92.916 41.537 89.287 41.044Z" fill="#FFD60A"></path> <path fill-rule="evenodd" clip-rule="evenodd" d="M89.097 42.447C86.609 42.109 84.451 42.87 84.278 44.148C84.104 45.426 85.981 46.735 88.469 47.073C90.957 47.411 93.115 46.65 93.289 45.372C93.461 44.095 91.585 42.785 89.097 42.447Z" fill="#FF9500"></path> <path fill-rule="evenodd" clip-rule="evenodd" d="M41.721 49.671C39.219 49.331 36.891 49.654 35.238 50.439L33.222 50.165L32.806 53.228C32.454 55.814 35.876 58.414 40.448 59.035C45.02 59.657 49.012 58.064 49.363 55.478L49.779 52.415L47.763 52.141C46.38 50.943 44.223 50.011 41.721 49.671Z" fill="#FF9500"></path> <path fill-rule="evenodd" clip-rule="evenodd" d="M35.243 57.195C35.922 57.643 36.717 58.035 37.601 58.35L38.587 51.094L36.118 50.758L35.243 57.195Z" fill="#E68600"></path> <path fill-rule="evenodd" clip-rule="evenodd" d="M43.727 59.104C46.792 58.796 49.1 57.416 49.363 55.478L49.779 52.415L47.763 52.141C47.013 51.491 46.036 50.92 44.899 50.478L43.727 59.104Z" fill="#E68600"></path> <path fill-rule="evenodd" clip-rule="evenodd" d="M42.137 46.608C37.565 45.986 33.573 47.579 33.222 50.165C32.87 52.751 36.292 55.351 40.864 55.972C45.436 56.594 49.428 55.001 49.779 52.415C50.131 49.829 46.709 47.23 42.137 46.608Z" fill="#FFD60A"></path> <path fill-rule="evenodd" clip-rule="evenodd" d="M41.897 48.376C38.762 47.95 36.043 48.91 35.824 50.519C35.605 52.129 37.97 53.779 41.104 54.205C44.239 54.631 46.958 53.671 47.177 52.062C47.396 50.452 45.032 48.802 41.897 48.376Z" fill="#E68600"></path> <path fill-rule="evenodd" clip-rule="evenodd" d="M28.158 46.556C25.758 46.492 23.59 47.037 22.108 47.95L20.173 47.899L20.095 50.837C20.029 53.318 23.532 55.424 27.919 55.541C32.306 55.658 35.916 53.741 35.982 51.26L36.06 48.322L34.125 48.271C32.694 47.28 30.558 46.62 28.158 46.556Z" fill="#FF9500"></path> <path fill-rule="evenodd" clip-rule="evenodd" d="M22.808 54.337C23.496 54.69 24.288 54.979 25.156 55.186L25.342 48.224L22.973 48.161L22.808 54.337Z" fill="#E68600"></path> <path fill-rule="evenodd" clip-rule="evenodd" d="M31.026 55.269C33.892 54.662 35.932 53.12 35.982 51.26L36.06 48.322L34.125 48.271C33.349 47.734 32.366 47.294 31.246 46.994L31.026 55.269Z" fill="#E68600"></path> <path fill-rule="evenodd" clip-rule="evenodd" d="M28.236 43.618C23.849 43.501 20.239 45.418 20.173 47.899C20.107 50.38 23.61 52.486 27.997 52.603C32.384 52.72 35.994 50.803 36.06 48.322C36.126 45.841 32.623 43.735 28.236 43.618Z" fill="#FFD60A"></path> <path fill-rule="evenodd" clip-rule="evenodd" d="M28.191 45.314C25.183 45.234 22.711 46.421 22.67 47.966C22.629 49.511 25.034 50.828 28.042 50.908C31.05 50.988 33.522 49.801 33.563 48.256C33.604 46.711 31.199 45.394 28.191 45.314Z" fill="#FF9500"></path> <path fill-rule="evenodd" clip-rule="evenodd" d="M39.726 43.347C37.4 43.285 35.299 43.813 33.863 44.698L31.988 44.648L31.912 47.496C31.848 49.901 35.243 51.942 39.494 52.055C43.746 52.168 47.244 50.311 47.308 47.906L47.384 45.058L45.509 45.008C44.122 44.048 42.053 43.409 39.726 43.347Z" fill="#FF9500"></path> <path fill-rule="evenodd" clip-rule="evenodd" d="M34.541 50.888C35.208 51.23 35.976 51.51 36.817 51.711L36.997 44.964L34.701 44.903L34.541 50.888Z" fill="#E68600"></path> <path fill-rule="evenodd" clip-rule="evenodd" d="M42.506 51.791C45.283 51.203 47.261 49.708 47.309 47.906L47.385 45.058L45.51 45.008C44.758 44.487 43.806 44.061 42.72 43.77L42.506 51.791Z" fill="#E68600"></path> <path fill-rule="evenodd" clip-rule="evenodd" d="M39.802 40.499C35.551 40.386 32.052 42.243 31.988 44.648C31.924 47.053 35.319 49.093 39.57 49.207C43.822 49.32 47.32 47.463 47.384 45.058C47.448 42.653 44.054 40.612 39.802 40.499Z" fill="#FFD60A"></path> <path fill-rule="evenodd" clip-rule="evenodd" d="M39.758 42.142C36.843 42.064 34.447 43.215 34.407 44.712C34.367 46.209 36.698 47.485 39.613 47.563C42.528 47.641 44.924 46.49 44.963 44.993C45.004 43.497 42.673 42.22 39.758 42.142Z" fill="#FF9500"></path> <path fill-rule="evenodd" clip-rule="evenodd" d="M49.165 40.535C46.758 40.334 44.55 40.758 43.009 41.591L41.069 41.429L40.823 44.376C40.615 46.864 44.0131 49.179 48.4131 49.546C52.8121 49.913 56.547 48.193 56.755 45.705L57.001 42.758L55.061 42.596C53.679 41.52 51.572 40.736 49.165 40.535Z" fill="#FF9500"></path> <path fill-rule="evenodd" clip-rule="evenodd" d="M43.349 48.046C44.02 48.44 44.799 48.775 45.659 49.032L46.242 42.051L43.866 41.853L43.349 48.046Z" fill="#FFB71C"></path> <path fill-rule="evenodd" clip-rule="evenodd" d="M51.549 49.449C54.462 49.002 56.599 47.569 56.754 45.704L57 42.757L55.06 42.595C54.311 42.011 53.349 41.514 52.242 41.149L51.549 49.449Z" fill="#FFB71C"></path> <path fill-rule="evenodd" clip-rule="evenodd" d="M49.411 37.589C45.012 37.222 41.277 38.941 41.069 41.43C40.861 43.918 44.259 46.233 48.659 46.6C53.058 46.967 56.793 45.248 57.001 42.759C57.208 40.27 53.81 37.956 49.411 37.589Z" fill="#FFD60A"></path> <path fill-rule="evenodd" clip-rule="evenodd" d="M49.2689 39.289C46.2519 39.037 43.702 40.089 43.573 41.638C43.444 43.187 45.784 44.647 48.801 44.898C51.817 45.15 54.368 44.098 54.497 42.549C54.626 41 52.2849 39.541 49.2689 39.289Z" fill="#FF9500"></path> <path fill-rule="evenodd" clip-rule="evenodd" d="M37.891 17.859L37.33 19.685C36.891 21.112 35.864 22.139 34.437 22.578L32.611 23.139C32.362 23.215 32.199 23.436 32.199 23.697C32.199 23.957 32.362 24.178 32.611 24.254L34.437 24.815C35.864 25.253 36.892 26.281 37.33 27.708L37.891 29.534C37.968 29.783 38.188 29.946 38.448 29.946C38.708 29.946 38.929 29.783 39.006 29.534L39.567 27.708C40.005 26.281 41.033 25.253 42.46 24.815L44.286 24.254C44.535 24.177 44.698 23.957 44.698 23.697C44.698 23.437 44.535 23.216 44.286 23.139L42.46 22.578C41.033 22.139 40.005 21.112 39.567 19.685L39.006 17.859C38.929 17.61 38.709 17.447 38.448 17.447C38.188 17.447 37.967 17.61 37.891 17.859Z" fill="#FFD60A"></path> <path fill-rule="evenodd" clip-rule="evenodd" d="M38.695 19.359L38.324 20.567C38.034 21.511 37.354 22.191 36.41 22.481L35.202 22.852C35.037 22.903 34.929 23.049 34.929 23.221C34.929 23.393 35.037 23.539 35.202 23.59L36.41 23.961C37.354 24.251 38.034 24.931 38.324 25.875L38.695 27.083C38.746 27.248 38.892 27.356 39.064 27.356C39.236 27.356 39.382 27.248 39.433 27.083L39.804 25.875C40.094 24.93 40.774 24.251 41.718 23.961L42.926 23.59C43.091 23.539 43.199 23.393 43.199 23.221C43.199 23.049 43.091 22.903 42.926 22.852L41.718 22.481C40.774 22.191 40.094 21.511 39.804 20.567L39.433 19.359C39.382 19.194 39.236 19.086 39.064 19.086C38.892 19.086 38.746 19.194 38.695 19.359Z" fill="white"></path> <path fill-rule="evenodd" clip-rule="evenodd" d="M70.083 0.648987L69.596 2.23401C69.215 3.47301 68.324 4.365 67.085 4.745L65.5 5.23199C65.284 5.29899 65.143 5.49 65.143 5.716C65.143 5.942 65.284 6.13401 65.5 6.20001L67.085 6.68701C68.324 7.06701 69.216 7.959 69.596 9.198L70.083 10.782C70.15 10.998 70.341 11.14 70.567 11.14C70.793 11.14 70.985 10.998 71.051 10.782L71.538 9.198C71.918 7.959 72.81 7.06701 74.049 6.68701L75.633 6.20001C75.849 6.13401 75.991 5.942 75.991 5.716C75.991 5.49 75.849 5.29799 75.633 5.23199L74.049 4.745C72.81 4.365 71.918 3.47301 71.538 2.23401L71.051 0.648987C70.985 0.432987 70.793 0.290985 70.567 0.290985C70.341 0.290985 70.15 0.432987 70.083 0.648987Z" fill="#FFD60A"></path> <path fill-rule="evenodd" clip-rule="evenodd" d="M70.782 1.95099L70.46 3C70.208 3.82 69.618 4.40999 68.798 4.66199L67.75 4.98401C67.607 5.02801 67.513 5.15499 67.513 5.30399C67.513 5.45399 67.607 5.57999 67.75 5.62399L68.798 5.94601C69.618 6.19801 70.208 6.788 70.46 7.608L70.782 8.65701C70.826 8.80001 70.953 8.89401 71.102 8.89401C71.251 8.89401 71.378 8.80001 71.422 8.65701L71.744 7.608C71.996 6.788 72.586 6.19801 73.406 5.94601L74.454 5.62399C74.597 5.57999 74.691 5.45299 74.691 5.30399C74.691 5.15499 74.597 5.02801 74.454 4.98401L73.406 4.66199C72.586 4.40999 71.996 3.82 71.744 3L71.422 1.95099C71.378 1.80799 71.251 1.71399 71.102 1.71399C70.953 1.71399 70.826 1.80799 70.782 1.95099Z" fill="white"></path> <path fill-rule="evenodd" clip-rule="evenodd" d="M68.57 28.971L68.213 30.134C67.934 31.043 67.279 31.698 66.37 31.977L65.207 32.334C65.049 32.383 64.945 32.523 64.945 32.689C64.945 32.855 65.049 32.995 65.207 33.044L66.37 33.401C67.279 33.68 67.934 34.335 68.213 35.244L68.57 36.407C68.619 36.565 68.759 36.67 68.925 36.67C69.091 36.67 69.231 36.566 69.28 36.407L69.637 35.244C69.916 34.335 70.571 33.68 71.48 33.401L72.643 33.044C72.802 32.995 72.906 32.855 72.906 32.689C72.906 32.523 72.802 32.383 72.643 32.334L71.48 31.977C70.571 31.698 69.916 31.043 69.637 30.134L69.28 28.971C69.231 28.812 69.091 28.709 68.925 28.709C68.759 28.709 68.619 28.812 68.57 28.971Z" fill="#FFD60A"></path> <path fill-rule="evenodd" clip-rule="evenodd" d="M69.083 29.926L68.847 30.695C68.662 31.297 68.229 31.73 67.628 31.915L66.858 32.151C66.753 32.183 66.684 32.276 66.684 32.386C66.684 32.496 66.753 32.589 66.858 32.621L67.628 32.857C68.229 33.042 68.662 33.475 68.847 34.076L69.083 34.845C69.115 34.95 69.208 35.019 69.318 35.019C69.428 35.019 69.521 34.95 69.553 34.845L69.789 34.076C69.974 33.474 70.407 33.041 71.008 32.857L71.777 32.621C71.882 32.589 71.951 32.496 71.951 32.386C71.951 32.276 71.882 32.183 71.777 32.151L71.008 31.915C70.406 31.73 69.973 31.297 69.789 30.695L69.553 29.926C69.521 29.821 69.428 29.752 69.318 29.752C69.208 29.753 69.115 29.821 69.083 29.926Z" fill="white"></path> <path fill-rule="evenodd" clip-rule="evenodd" d="M83.31 43.925C81.325 43.655 79.477 43.911 78.165 44.535L76.564 44.317L76.234 46.748C75.955 48.8 78.671 50.864 82.299 51.357C85.928 51.85 89.095 50.586 89.374 48.534L89.705 46.103L88.105 45.886C87.008 44.935 85.296 44.194 83.31 43.925Z" fill="#FF9500"></path> <path fill-rule="evenodd" clip-rule="evenodd" d="M78.17 49.896C78.709 50.251 79.34 50.562 80.041 50.812L80.824 45.053L78.864 44.787L78.17 49.896Z" fill="#E68600"></path> <path fill-rule="evenodd" clip-rule="evenodd" d="M84.903 51.412C87.335 51.167 89.167 50.072 89.376 48.534L89.707 46.103L88.107 45.886C87.512 45.37 86.736 44.917 85.834 44.566L84.903 51.412Z" fill="#E68600"></path> <path fill-rule="evenodd" clip-rule="evenodd" d="M83.641 41.494C80.012 41.001 76.844 42.265 76.565 44.317C76.286 46.369 79.002 48.433 82.63 48.926C86.259 49.419 89.427 48.155 89.706 46.103C89.985 44.051 87.269 41.987 83.641 41.494Z" fill="#FFD60A"></path> <path fill-rule="evenodd" clip-rule="evenodd" d="M83.45 42.897C80.962 42.559 78.804 43.32 78.631 44.598C78.457 45.876 80.334 47.185 82.822 47.523C85.31 47.861 87.468 47.1 87.642 45.822C87.815 44.545 85.938 43.235 83.45 42.897Z" fill="#FF9500"></path> <path fill-rule="evenodd" clip-rule="evenodd" d="M82.71 36.319C80.725 36.049 78.877 36.305 77.565 36.929L75.965 36.711L75.635 39.142C75.356 41.194 78.072 43.258 81.7 43.751C85.329 44.244 88.496 42.98 88.775 40.928L89.106 38.497L87.506 38.28C86.408 37.329 84.696 36.589 82.71 36.319Z" fill="#FF9500"></path> <path fill-rule="evenodd" clip-rule="evenodd" d="M77.569 42.291C78.108 42.646 78.739 42.957 79.44 43.207L80.223 37.448L78.263 37.182L77.569 42.291Z" fill="#E68600"></path> <path fill-rule="evenodd" clip-rule="evenodd" d="M84.302 43.806C86.734 43.561 88.566 42.466 88.775 40.928L89.106 38.497L87.506 38.28C86.911 37.764 86.135 37.311 85.233 36.961L84.302 43.806Z" fill="#E68600"></path> <path fill-rule="evenodd" clip-rule="evenodd" d="M83.04 33.889C79.411 33.396 76.243 34.66 75.964 36.712C75.685 38.764 78.401 40.828 82.029 41.321C85.658 41.814 88.826 40.55 89.105 38.498C89.385 36.445 86.669 34.381 83.04 33.889Z" fill="#FFD60A"></path> <path fill-rule="evenodd" clip-rule="evenodd" d="M82.85 35.291C80.362 34.953 78.204 35.714 78.031 36.992C77.857 38.27 79.734 39.579 82.222 39.917C84.71 40.255 86.868 39.494 87.042 38.216C87.214 36.939 85.338 35.629 82.85 35.291Z" fill="#FF9500"></path> <path fill-rule="evenodd" clip-rule="evenodd" d="M41.825 36.505C39.418 36.304 37.21 36.728 35.67 37.561L33.73 37.399L33.484 40.346C33.277 42.834 36.675 45.149 41.074 45.516C45.473 45.883 49.208 44.164 49.415 41.675L49.661 38.728L47.721 38.566C46.34 37.49 44.233 36.706 41.825 36.505Z" fill="#FF9500"></path> <path fill-rule="evenodd" clip-rule="evenodd" d="M36.01 44.016C36.681 44.41 37.46 44.745 38.32 45.003L38.902 38.021L36.526 37.823L36.01 44.016Z" fill="#FFB71C"></path> <path fill-rule="evenodd" clip-rule="evenodd" d="M44.21 45.42C47.123 44.974 49.2599 43.541 49.4149 41.676L49.661 38.729L47.721 38.567C46.972 37.984 46.01 37.486 44.902 37.121L44.21 45.42Z" fill="#FFB71C"></path> <path fill-rule="evenodd" clip-rule="evenodd" d="M42.071 33.559C37.672 33.192 33.937 34.911 33.73 37.4C33.522 39.888 36.92 42.203 41.32 42.569C45.719 42.936 49.454 41.217 49.662 38.728C49.869 36.24 46.471 33.926 42.071 33.559Z" fill="#FFD60A"></path> <path fill-rule="evenodd" clip-rule="evenodd" d="M41.929 35.259C38.913 35.008 36.363 36.059 36.233 37.608C36.104 39.157 38.444 40.616 41.461 40.868C44.477 41.119 47.028 40.068 47.157 38.519C47.286 36.971 44.946 35.511 41.929 35.259Z" fill="#FF9500"></path> <path fill-rule="evenodd" clip-rule="evenodd" d="M51.464 33.939C49.765 32.222 47.812 31.109 46.1 30.74L44.731 29.356L42.629 31.436C40.854 33.192 41.932 37.16 45.037 40.298C48.142 43.436 52.098 44.557 53.873 42.801L55.975 40.721L54.606 39.337C54.255 37.622 53.162 35.657 51.464 33.939Z" fill="#FF9500"></path> <path fill-rule="evenodd" clip-rule="evenodd" d="M42.162 35.867C42.416 36.602 42.79 37.364 43.276 38.118L48.256 33.191L46.579 31.497L42.162 35.867Z" fill="#FFB71C"></path> <path fill-rule="evenodd" clip-rule="evenodd" d="M47.482 42.264C49.986 43.818 52.541 44.118 53.871 42.802L55.973 40.722L54.604 39.338C54.414 38.408 54.007 37.404 53.402 36.407L47.482 42.264Z" fill="#FFB71C"></path> <path fill-rule="evenodd" clip-rule="evenodd" d="M53.566 31.86C50.461 28.722 46.505 27.601 44.73 29.357C42.955 31.113 44.033 35.081 47.138 38.219C50.243 41.357 54.199 42.478 55.974 40.722C57.749 38.966 56.671 34.998 53.566 31.86Z" fill="#FFD60A"></path> <path fill-rule="evenodd" clip-rule="evenodd" d="M52.3531 33.06C50.2241 30.908 47.603 30.05 46.498 31.143C45.393 32.236 46.223 34.867 48.352 37.019C50.481 39.171 53.102 40.029 54.208 38.936C55.312 37.842 54.4811 35.212 52.3531 33.06Z" fill="#FF9500"></path> </svg>