<svg width="979" height="163" viewBox="0 0 979 163" fill="none" xmlns="http://www.w3.org/2000/svg">
<path d="M4 0.5H975C976.933 0.5 978.5 2.067 978.5 4V159C978.5 160.933 976.933 162.5 975 162.5H3.99998C2.06698 162.5 0.5 160.933 0.5 159V4C0.5 2.067 2.067 0.5 4 0.5Z" fill="#111A41" stroke="#2C3763"/>
<mask id="mask0_19_7" style="mask-type:alpha" maskUnits="userSpaceOnUse" x="0" y="0" width="979" height="162">
<path d="M0.5 0.5H978.5V161.5H0.5V0.5Z" fill="#111A41" stroke="#2C3763"/>
</mask>
<g mask="url(#mask0_19_7)">
<path d="M4 0.5H975C976.933 0.5 978.5 2.067 978.5 4V158C978.5 159.933 976.933 161.5 975 161.5H3.99998C2.06698 161.5 0.5 159.933 0.5 158V4C0.5 2.067 2.067 0.5 4 0.5Z" fill="#3F5DE3" stroke="#2C3763"/>
<path opacity="0.4" fill-rule="evenodd" clip-rule="evenodd" d="M486.508 68.984C486.222 69.0423 485.935 69.1005 485.648 69.1588L325.845 -657.621C255.957 -639.854 290.669 -649.883 222.115 -627.019L482.837 70.0277C482.55 70.0859 482.263 70.1442 482.034 70.4889C481.747 70.5471 481.518 70.8918 481.231 70.95L145.034 -593.179C81.3335 -558.18 112.521 -576.738 51.5305 -537.219L478.765 72.0471C478.536 72.3918 478.249 72.45 477.962 72.5082C477.734 72.8529 477.447 72.9112 477.218 73.2558L-14.2527 -485.992C-66.9495 -436.527 -41.4075 -462.288 -90.3628 -409.11L475.213 75.1538C474.984 75.4985 474.756 75.8432 474.469 75.9014C474.24 76.2461 474.011 76.5907 473.724 76.6489L-140.893 -343.087C-179.609 -282.147 -161.429 -313.272 -195.488 -249.997L472.755 79.2314C472.526 79.5761 472.584 79.8625 472.355 80.2071C472.127 80.5518 472.185 80.8381 471.956 81.1828L-228.594 -173.198C-251.04 -104.229 -241.081 -139.054 -258.53 -69.012L471.215 83.4206C471.273 83.707 471.045 84.0516 471.103 84.338C471.161 84.6244 470.932 84.9691 470.99 85.2555L-271.353 13.5097C-275.82 85.687 -274.763 49.6882 -274.119 122.021L470.998 88.236C471.056 88.5224 471.114 88.8088 470.885 89.1534C470.943 89.4398 471.002 89.7263 471.06 90.0127L-266.043 204.474C-252.542 275.389 -260.555 240.337 -242.005 309.631L471.583 92.5902C471.641 92.8766 471.699 93.163 471.757 93.4494C471.816 93.7358 471.874 94.0222 472.219 94.2504L-213.154 388.463C-182.212 454.048 -198.945 421.66 -163.358 485.109L473.661 96.9396C473.719 97.226 474.064 97.4541 474.122 97.7405C474.181 98.0269 474.526 98.255 474.584 98.5414L-115.929 553.907C-69.6823 609.526 -93.6936 582.494 -43.9531 634.719L476.484 100.541C476.829 100.769 476.887 101.056 477.232 101.284C477.577 101.512 477.635 101.799 477.98 102.027L18.827 689.367C76.9821 731.535 47.2473 711.628 108.435 749.602L480.109 103.682C480.454 103.91 480.741 103.852 481.086 104.08C481.431 104.308 481.718 104.25 482.063 104.478L182.941 786.959C250.186 813.564 216.05 801.41 285.291 823.136L484.591 105.158C484.936 105.386 485.223 105.327 485.568 105.556C485.855 105.497 486.2 105.725 486.487 105.667L366.925 841.154C438.948 850.09 402.768 846.998 475.237 850.774L488.957 106.06C489.244 106.002 489.531 105.944 489.876 106.172C490.163 106.114 490.45 106.056 490.737 105.997L558.252 847.637C629.884 838.462 590.703 829.419 661.634 815.317L493.319 105.473C493.606 105.415 493.893 105.356 494.18 105.298C494.467 105.24 494.754 105.182 495.041 105.123L745.324 806.675C812.777 779.86 779.57 794.355 844.945 763.19L497.794 103.968C498.081 103.91 498.309 103.565 498.596 103.507C498.883 103.449 499.112 103.104 499.399 103.046L917.122 719.909C975.693 677.303 947.328 699.463 1002.44 653.085L501.978 101.031C502.206 100.687 502.493 100.628 502.722 100.284C502.951 99.9391 503.238 99.8808 503.467 99.5362L1061.2 593.741C1106.99 538.223 1085.31 566.781 1126.9 508.238L504.839 97.4682C505.068 97.1236 505.297 96.779 505.239 96.4926C505.468 96.1479 505.696 95.8033 505.638 95.5169L1169.09 436.454C1199.75 371.184 1185.54 404.188 1211.95 337.097L507.298 93.3907C507.527 93.046 507.468 92.7597 507.697 92.415C507.926 92.0704 507.868 91.784 507.81 91.4976L1234.77 256.721C1248.37 185.374 1242.84 221.387 1251.21 149.312L507.86 88.8034C507.802 88.517 508.031 88.1724 507.973 87.886C507.915 87.5996 507.857 87.3133 508.085 86.9686L1253.69 65.9067C1249.03 -5.61027 1252.68 30.0293 1242.97 -41.3566L507.849 84.3327C507.791 84.0463 507.733 83.76 507.675 83.4736C507.616 83.1872 507.558 82.9008 507.442 82.328L1224.68 -122.63C1202.34 -191.453 1214.6 -157.561 1187.56 -224.534L506.632 79.8087C506.574 79.5223 506.229 79.2941 506.17 79.0077C506.112 78.7213 505.767 78.4932 505.709 78.2068L1148.84 -298.978C1109.87 -359.951 1130.56 -330.156 1087.35 -388.479L504.038 75.8622C503.693 75.6341 503.635 75.3476 503.29 75.1195C502.945 74.8914 502.886 74.605 502.541 74.3769L1031.73 -450.544C979.01 -499.78 1006.23 -476.082 950.42 -521.41L500.7 72.6633C500.355 72.4352 500.01 72.2071 500.01 72.2071C499.664 71.9789 499.319 71.7507 498.974 71.5226L881.288 -567.612C818.099 -602.197 850.351 -586.081 784.762 -616.303L496.617 70.212C496.272 69.9838 495.985 70.0421 495.64 69.814C495.295 69.5858 495.008 69.644 494.663 69.4159L705.858 -644.418C635.593 -662.358 670.923 -654.621 599.579 -667.571L492.193 69.0228C491.906 69.081 491.561 68.8529 491.274 68.9111C490.987 68.9694 490.642 68.7412 490.355 68.7995L516.537 -674.866C444.251 -674.802 480.132 -676.123 408.318 -670.787L487.714 69.0374C487.082 68.8675 486.795 68.9258 486.508 68.984Z" fill="url(#paint0_radial_19_7)"/>
<g opacity="0.03">
<path d="M764.266 -166.212L741.558 -188.862L511.825 -418L281.714 -188.862L259.006 -166.212C195.423 -102.793 195.423 -0.115141 259.006 63.3037C290.797 95.0131 332.429 110.868 374.061 110.868C415.693 110.868 457.325 95.0131 489.117 63.3037L511.825 40.6541L534.533 63.3037C566.325 95.0131 607.957 110.868 649.589 110.868C691.221 110.868 732.853 95.0131 764.644 63.3037C827.849 -0.115141 827.849 -103.171 764.266 -166.212ZM638.613 -86.1836L627.259 -74.8588L511.825 40.2767L396.391 -74.8588L385.037 -86.1836C353.245 -117.893 353.245 -169.61 385.037 -201.319C400.933 -217.174 421.749 -225.101 442.943 -225.101C463.759 -225.101 484.575 -217.174 500.849 -201.319L512.204 -189.994L523.558 -201.319C539.454 -217.174 560.27 -225.101 581.464 -225.101C602.658 -225.101 623.096 -217.174 639.37 -201.319C670.405 -169.61 670.405 -118.271 638.613 -86.1836Z" fill="white"/>
<path d="M620.934 194.704L512.281 86.3325L403.629 194.704L512.281 303.076L620.934 194.704Z" fill="white"/>
</g>
<path d="M899.252 155.826L913.708 153.103C917.451 152.401 921.247 154.03 923.318 157.225L931.562 169.97L924.404 177.052L899.252 155.826Z" fill="#404D81"/>
<path d="M867.623 130.319L868.93 139.279C870.215 148.239 874.266 156.573 880.518 163.118C880.678 163.279 880.833 163.434 880.983 163.585L903.05 183.808L911.888 175.067L920.536 166.513L900.736 144.052C900.575 143.891 900.421 143.735 900.271 143.585C893.804 137.259 885.523 133.112 876.584 131.72L867.623 130.319Z" fill="#404D81"/>
<path d="M920.551 166.518L900.748 144.059C900.588 143.898 900.433 143.743 900.283 143.592C893.814 137.261 885.529 133.109 876.586 131.717L867.636 130.305L911.905 175.069L920.551 166.518Z" fill="#2E3963"/>
<circle cx="886.372" cy="149.277" r="7.68221" transform="rotate(-134.7 886.372 149.277)" fill="white"/>
<circle cx="886.372" cy="149.277" r="5.81716" transform="rotate(-134.7 886.372 149.277)" fill="#01D180"/>
<g filter="url(#filter0_d_19_7)">
<path d="M566.52 52.084L510.911 32.5946C508.199 31.6441 506.772 28.6752 507.722 25.9632L537.531 -59.0893C538.481 -61.8014 541.45 -63.2293 544.162 -62.2788L599.769 -42.7899C602.483 -41.8388 603.911 -38.8699 602.961 -36.1579L573.153 48.8927C572.201 51.6066 569.232 53.0345 566.52 52.084Z" fill="#EFF2FA"/>
<path d="M509.505 32.1L559.552 49.64L546.155 0.00377154L533.569 -47.7878L507.171 27.5343C506.525 29.3776 507.57 31.4217 509.505 32.1Z" fill="#D9DDE1"/>
<path d="M564.504 -26.3752C564.182 -26.945 563.674 -27.3499 563.096 -27.5524C562.518 -27.7549 561.868 -27.756 561.261 -27.5118C549.731 -22.8821 541.352 -20.7216 538.778 -13.3754C536.747 -7.58027 539.222 -1.36668 544.925 0.632161C546.727 1.26374 548.559 1.35454 550.354 0.916784L548.339 6.66599L545.877 5.80319C544.518 5.32691 543.029 6.04328 542.553 7.40221C542.076 8.76115 542.793 10.2506 544.152 10.7269L553.999 14.1781C555.358 14.6544 556.847 13.938 557.324 12.5791C557.8 11.2201 557.083 9.73069 555.724 9.25442L553.263 8.39161L555.278 2.6424C556.407 4.10518 557.894 5.17744 559.696 5.80901C565.401 7.80843 571.212 4.49906 573.243 -1.29611C575.819 -8.64387 570.621 -15.5626 564.504 -26.3752V-26.3752Z" fill="#404D81"/>
<path d="M573.244 -1.29622C571.213 4.49894 565.402 7.80832 559.697 5.8089C557.895 5.17733 556.407 4.10507 555.278 2.64229L553.263 8.3915L555.725 9.25431C557.084 9.73058 557.8 11.22 557.324 12.579C556.848 13.9379 555.358 14.6543 553.999 14.178L549.076 12.4524L563.096 -27.5525C563.674 -27.35 564.183 -26.9451 564.505 -26.3753C570.622 -15.5627 575.819 -8.64398 573.244 -1.29622Z" fill="#2E3963"/>
<path d="M567.156 31.3122C567.049 31.1224 566.88 30.9876 566.688 30.9202C566.495 30.8527 566.279 30.8523 566.076 30.9337C562.237 32.4754 559.447 33.1948 558.589 35.6411C557.913 37.5709 558.737 39.6401 560.637 40.3057C561.237 40.516 561.847 40.5462 562.444 40.4005L561.773 42.315L560.954 42.0276C560.501 41.869 560.005 42.1076 559.847 42.5601C559.688 43.0126 559.926 43.5086 560.379 43.6672L563.658 44.8165C564.111 44.9751 564.607 44.7366 564.765 44.284C564.924 43.8315 564.685 43.3355 564.233 43.1769L563.413 42.8896L564.084 40.9751C564.46 41.4622 564.955 41.8193 565.555 42.0296C567.455 42.6954 569.39 41.5934 570.067 39.6636C570.924 37.2167 569.194 34.9128 567.156 31.3122V31.3122Z" fill="#404D81"/>
<path d="M570.066 39.6641C569.39 41.5939 567.455 42.6959 565.555 42.0301C564.955 41.8198 564.46 41.4627 564.084 40.9756L563.413 42.8901L564.233 43.1774C564.685 43.336 564.924 43.832 564.765 44.2845C564.606 44.7371 564.11 44.9756 563.658 44.817L562.018 44.2424L566.687 30.9207C566.88 30.9881 567.049 31.1229 567.156 31.3127C569.193 34.9133 570.924 37.2172 570.066 39.6641Z" fill="#2E3963"/>
</g>
<g filter="url(#filter1_d_19_7)">
<path d="M763.074 24.871L714.529 36.7355C712.161 37.3142 709.773 35.864 709.194 33.4965L691.048 -40.7533C690.469 -43.1209 691.919 -45.5091 694.287 -46.0877L742.831 -57.9519C745.2 -58.5309 747.588 -57.0808 748.167 -54.7132L766.313 19.5349C766.892 21.9041 765.442 24.2924 763.074 24.871Z" fill="#EFF2FA"/>
<path d="M713.302 37.0354L756.992 26.3577L724.511 -2.73219L693.46 -30.8857L709.53 34.8695C709.924 36.4787 711.612 37.4484 713.302 37.0354Z" fill="#D9DDE1"/>
<path d="M732.147 -26.8036C729.414 -26.1357 727.324 -24.353 726.067 -21.6294L726.065 -21.6275C723.693 -23.4656 721.015 -24.0829 718.282 -23.4149C712.927 -22.1061 710.13 -16.6864 711.46 -11.2465C713.146 -4.34923 720.559 -1.6452 730.612 3.57765C731.142 3.85317 731.732 3.90975 732.276 3.77684C732.818 3.6443 733.314 3.32073 733.657 2.83364C740.168 -6.43912 745.498 -12.2578 743.813 -19.1535C742.483 -24.5934 737.501 -28.112 732.147 -26.8036Z" fill="#FF655D"/>
<path d="M733.658 2.83341C733.315 3.3205 732.82 3.64407 732.278 3.7766L726.068 -21.6296C727.326 -24.3533 729.416 -26.1359 732.149 -26.8038C737.503 -28.1123 742.485 -24.5937 743.814 -19.1538C745.5 -12.258 740.169 -6.43936 733.658 2.83341Z" fill="#FF3A30"/>
<path d="M756.056 11.5018C755.181 11.7155 754.513 12.286 754.11 13.1575L754.11 13.1581C753.351 12.57 752.494 12.3724 751.619 12.5862C749.905 13.005 749.011 14.7392 749.436 16.48C749.976 18.6871 752.348 19.5524 755.565 21.2237C755.734 21.3118 755.923 21.33 756.097 21.2874C756.271 21.245 756.429 21.1415 756.539 20.9856C758.622 18.0184 760.328 16.1564 759.789 13.9498C759.363 12.209 757.769 11.0831 756.056 11.5018Z" fill="#FF655D"/>
<path d="M756.537 20.9862C756.427 21.142 756.269 21.2456 756.095 21.288L754.108 13.1581C754.511 12.2865 755.179 11.7161 756.054 11.5024C757.767 11.0837 759.361 12.2096 759.787 13.9504C760.326 16.157 758.62 18.0189 756.537 20.9862Z" fill="#FF3A30"/>
</g>
<path d="M237.48 -18L273.972 41.7029C274.447 42.4794 274.225 43.4912 273.468 43.9969V43.9969C273.072 44.2637 272.582 44.3517 272.117 44.2393C271.653 44.1268 271.257 43.8243 271.027 43.4059L237.48 -18Z" fill="#FBE4A8"/>
<circle cx="685" cy="151" r="3" fill="#FBE4A8"/>
<circle cx="65" cy="150" r="3" fill="#FBE4A8"/>
<circle cx="867" cy="49" r="3" fill="#FBE4A8"/>
<circle cx="246" cy="105" r="3" fill="#FBE4A8"/>
<circle cx="328" cy="161" r="3" fill="#FBE4A8"/>
<circle cx="345" cy="23" r="3" fill="#FBE4A8"/>
<circle cx="939" cy="99" r="3" fill="#FBE4A8"/>
<path d="M710.04 108L751.64 176.058C752.181 176.943 751.928 178.096 751.065 178.673V178.673C750.614 178.977 750.055 179.077 749.525 178.949C748.996 178.821 748.545 178.476 748.282 177.999L710.04 108Z" fill="#FBE4A8"/>
<path d="M871.041 -42.0002L922.355 41.9509C923.023 43.0427 922.71 44.4655 921.646 45.1766V45.1766C921.089 45.5518 920.4 45.6755 919.747 45.5174C919.094 45.3593 918.537 44.9339 918.214 44.3456L871.041 -42.0002Z" fill="#FBE4A8"/>
<path d="M561.598 165.345H485.729C485.729 158.648 491.204 153.22 497.958 153.22H504.656C504.656 145.268 511.158 138.822 519.178 138.822H534.463C537.629 138.822 540.196 141.367 540.196 144.506H540.579C546.154 144.506 551.5 146.702 555.442 150.61C559.383 154.518 561.598 159.818 561.598 165.345Z" fill="#253477"/>
<path d="M533.564 138.154C532.598 134.384 522.951 133.388 509.828 135.145C511.155 136.591 512.244 138.239 513.055 140.026C515.817 140.275 517.592 140.985 517.895 142.169C518.198 143.352 516.984 144.83 514.679 146.38C511.072 148.798 504.792 151.374 497.418 153.272C490.044 155.17 483.283 155.917 478.947 155.526C476.185 155.277 474.413 154.565 474.11 153.384C473.806 152.204 475.021 150.722 477.326 149.173C477.178 147.216 477.338 145.249 477.799 143.342C465.452 148.115 457.475 153.627 458.441 157.398C459.407 161.169 469.057 162.165 482.181 160.409C487.649 159.657 493.069 158.586 498.413 157.203C503.765 155.844 509.032 154.174 514.189 152.201C526.55 147.44 534.527 141.941 533.564 138.154Z" fill="#FF375F"/>
<path d="M514.679 146.379C514.514 144.182 513.965 142.031 513.055 140.025C512.244 138.238 511.154 136.59 509.828 135.144C509.284 134.548 508.703 133.987 508.088 133.466L508.021 133.406L507.95 133.351C501.228 127.793 491.56 127.611 484.633 132.91C477.706 138.21 475.353 147.589 478.959 155.531C483.282 155.919 490.041 155.165 497.43 153.276C504.818 151.387 511.075 148.801 514.679 146.379Z" fill="#FFDAE2"/>
<path d="M482.192 160.417C486.596 165.229 493.187 167.404 499.59 166.158C505.993 164.912 511.286 160.424 513.564 154.311C513.817 153.625 514.029 152.924 514.2 152.213C509.043 154.186 503.776 155.856 498.425 157.214C493.081 158.597 487.661 159.666 482.192 160.417V160.417Z" fill="#FEAFBD"/>
<path d="M512.252 176.448H437C437 169.751 442.431 164.322 449.13 164.322H455.774C455.774 156.37 462.223 149.924 470.178 149.924H485.338C488.479 149.924 491.025 152.469 491.025 155.609H491.405C496.934 155.609 502.237 157.804 506.146 161.712C510.056 165.62 512.252 170.921 512.252 176.448Z" fill="#334492"/>
<path d="M569 170.28H530.757C530.757 166.853 533.517 164.076 536.921 164.076H540.298C540.298 160.008 543.575 156.709 547.618 156.709H555.322C556.918 156.709 558.212 158.012 558.212 159.618H558.405C561.215 159.618 563.91 160.741 565.897 162.741C567.884 164.74 569 167.452 569 170.28Z" fill="#334492"/>
</g>
<rect x="0.25" y="162.25" width="978.5" height="0.5" fill="#222C55" stroke="#2C3763" stroke-width="0.5"/>
<defs>
<filter id="filter0_d_19_7" x="472.98" y="-92.5731" width="164.275" height="182.951" filterUnits="userSpaceOnUse" color-interpolation-filters="sRGB">
<feFlood flood-opacity="0" result="BackgroundImageFix"/>
<feColorMatrix in="SourceAlpha" type="matrix" values="0 0 0 0 0 0 0 0 0 0 0 0 0 0 0 0 0 0 127 0" result="hardAlpha"/>
<feOffset dy="4"/>
<feGaussianBlur stdDeviation="17"/>
<feComposite in2="hardAlpha" operator="out"/>
<feColorMatrix type="matrix" values="0 0 0 0 0 0 0 0 0 0 0 0 0 0 0 0 0 0 0.25 0"/>
<feBlend mode="normal" in2="BackgroundImageFix" result="effect1_dropShadow_19_7"/>
<feBlend mode="normal" in="SourceGraphic" in2="effect1_dropShadow_19_7" result="shape"/>
</filter>
<filter id="filter1_d_19_7" x="656.92" y="-88.0793" width="143.52" height="163.21" filterUnits="userSpaceOnUse" color-interpolation-filters="sRGB">
<feFlood flood-opacity="0" result="BackgroundImageFix"/>
<feColorMatrix in="SourceAlpha" type="matrix" values="0 0 0 0 0 0 0 0 0 0 0 0 0 0 0 0 0 0 127 0" result="hardAlpha"/>
<feOffset dy="4"/>
<feGaussianBlur stdDeviation="17"/>
<feComposite in2="hardAlpha" operator="out"/>
<feColorMatrix type="matrix" values="0 0 0 0 0 0 0 0 0 0 0 0 0 0 0 0 0 0 0.25 0"/>
<feBlend mode="normal" in2="BackgroundImageFix" result="effect1_dropShadow_19_7"/>
<feBlend mode="normal" in="SourceGraphic" in2="effect1_dropShadow_19_7" result="shape"/>
</filter>
<radialGradient id="paint0_radial_19_7" cx="0" cy="0" r="1" gradientUnits="userSpaceOnUse" gradientTransform="translate(463.308 97.5206) rotate(-101.476) scale(739.686 741.066)">
<stop stop-color="white"/>
<stop offset="0.9363" stop-color="white" stop-opacity="0.0637419"/>
<stop offset="1" stop-color="white" stop-opacity="0"/>
</radialGradient>
</defs>
</svg>
