<svg width="19" height="21" viewBox="0 0 19 21" fill="none" xmlns="http://www.w3.org/2000/svg">
<path d="M16.6875 7.1875H13.4531V4.67188C13.4531 3.62344 13.0366 2.61795 12.2953 1.87659C11.5539 1.13524 10.5484 0.71875 9.5 0.71875C8.45157 0.71875 7.44607 1.13524 6.70472 1.87659C5.96336 2.61795 5.54688 3.62344 5.54688 4.67188V7.1875H2.3125C1.93125 7.1875 1.56562 7.33895 1.29603 7.60853C1.02645 7.87812 0.875 8.24375 0.875 8.625V18.6875C0.875 19.0687 1.02645 19.4344 1.29603 19.704C1.56562 19.9735 1.93125 20.125 2.3125 20.125H16.6875C17.0687 20.125 17.4344 19.9735 17.704 19.704C17.9735 19.4344 18.125 19.0687 18.125 18.6875V8.625C18.125 8.24375 17.9735 7.87812 17.704 7.60853C17.4344 7.33895 17.0687 7.1875 16.6875 7.1875ZM10.2188 14.9859V16.5312C10.2188 16.7219 10.143 16.9047 10.0082 17.0395C9.87344 17.1743 9.69062 17.25 9.5 17.25C9.30938 17.25 9.12656 17.1743 8.99177 17.0395C8.85698 16.9047 8.78125 16.7219 8.78125 16.5312V14.9859C8.20218 14.8133 7.7046 14.438 7.3795 13.9286C7.05439 13.4193 6.92349 12.8099 7.01073 12.212C7.09797 11.6141 7.39751 11.0675 7.85459 10.6723C8.31167 10.2771 8.89574 10.0596 9.5 10.0596C10.1043 10.0596 10.6883 10.2771 11.1454 10.6723C11.6025 11.0675 11.902 11.6141 11.9893 12.212C12.0765 12.8099 11.9456 13.4193 11.6205 13.9286C11.2954 14.438 10.7978 14.8133 10.2188 14.9859ZM12.0156 7.1875H6.98438V4.67188C6.98438 4.00469 7.24941 3.36483 7.72118 2.89306C8.19296 2.42129 8.83281 2.15625 9.5 2.15625C10.1672 2.15625 10.807 2.42129 11.2788 2.89306C11.7506 3.36483 12.0156 4.00469 12.0156 4.67188V7.1875Z" fill="#F0F0F0"/>
</svg>
