<svg width="40" height="27" viewBox="0 0 40 27" fill="none" xmlns="http://www.w3.org/2000/svg">
<g clip-path="url(#clip0_4477_95591)">
<path fill-rule="evenodd" clip-rule="evenodd" d="M12.2766 16.4662L10.2318 17.7537C9.58067 18.1612 9.14074 19.2079 9.74597 19.6896C16.0914 24.8306 22.3265 21.1255 26.0035 16.957C29.1946 13.3352 30.57 12.4552 30.57 12.4552L30.8819 9.3612C30.8819 9.3612 28.9196 8.87952 26.7921 7.33251C24.6646 5.77636 19.9424 1.7654 16.4394 2.2376C12.9368 2.71928 11.5154 3.91434 9.9475 6.3783C8.14119 9.20369 7.93933 11.4454 7.72842 14.1872C7.69187 14.6411 7.82935 15.0394 8.13181 15.3727C8.43426 15.7061 8.81952 15.8822 9.26884 15.8822H12.1113C12.2581 15.8822 12.3772 15.9655 12.4137 16.1044C12.46 16.2436 12.405 16.392 12.2766 16.4662Z" fill="#2E7ACB"/>
<path fill-rule="evenodd" clip-rule="evenodd" d="M12.2762 16.4655L10.2315 17.753C9.58035 18.1605 9.14041 19.2072 9.74564 19.6889C15.064 23.9962 20.2998 22.0973 24.0225 18.9108C21.345 20.5134 17.888 21.0692 15.5314 20.782C12.9455 20.4764 12.1753 19.7817 13.7617 17.5769C14.5134 16.521 14.321 14.7054 11.726 14.9923C9.29601 15.2609 7.76465 14.7051 7.76465 14.7051C7.8287 14.9459 7.94806 15.1776 8.13148 15.372C8.43393 15.7054 8.8192 15.8815 9.26851 15.8815H12.1109C12.2578 15.8815 12.3768 15.9648 12.4134 16.1037C12.4596 16.2429 12.4047 16.3913 12.2762 16.4655ZM26.4525 16.4468C26.5165 16.3727 26.5899 16.2985 26.6543 16.2246C27.0024 15.539 26.9749 15.5021 26.4525 16.4468Z" fill="#2266AF"/>
<path fill-rule="evenodd" clip-rule="evenodd" d="M12.534 12.1123C13.662 12.1123 14.5787 11.1859 14.5787 10.0467C14.5787 8.91667 13.6616 7.99023 12.534 7.99023C11.406 7.99023 10.4893 8.91667 10.4893 10.0467C10.4889 11.1859 11.406 12.1123 12.534 12.1123Z" fill="white"/>
<path fill-rule="evenodd" clip-rule="evenodd" d="M12.2307 10.9162C12.7534 10.9162 13.1753 10.4901 13.1753 9.96203C13.1753 9.43394 12.7534 9.00781 12.2307 9.00781C11.708 9.00781 11.2861 9.43394 11.2861 9.96203C11.2865 10.4901 11.7083 10.9162 12.2307 10.9162Z" fill="#003131"/>
<path fill-rule="evenodd" clip-rule="evenodd" d="M20.1989 18.4843C20.5932 18.8177 23.0688 20.6333 23.0688 20.6333C23.0688 20.6333 23.5181 20.7166 25.022 20.1052C26.5164 19.4938 27.8644 20.0032 28.1856 20.133C28.5156 20.2532 29.1942 20.1144 29.0202 19.7997C28.8458 19.4846 25.5906 18.0768 23.8028 17.5024C22.5557 17.104 21.9046 16.9001 21.2262 17.0485C20.5107 17.206 19.5296 17.9193 20.1989 18.4843Z" fill="#E0C857"/>
<path fill-rule="evenodd" clip-rule="evenodd" d="M26.5628 19.8108C27.3696 19.8199 27.9842 20.0516 28.1857 20.1349C28.5157 20.2552 29.1943 20.1163 29.0203 19.8016C28.8459 19.4866 25.5908 18.0788 23.8029 17.5043C22.5559 17.106 21.9047 16.902 21.2263 17.0504C20.8964 17.1246 20.5202 17.3099 20.2637 17.5507C20.2637 17.5507 21.0614 17.5229 23.2345 18.2919C24.4172 18.7082 25.5173 19.3105 26.5628 19.8108Z" fill="#FCF65C"/>
<path fill-rule="evenodd" clip-rule="evenodd" d="M36.0904 7.75C36.0904 7.75 33.4679 8.30586 30.882 9.36171C28.2961 10.4084 27.6084 11.0107 27.6084 11.5848C27.6084 12.159 29.3782 12.2609 30.992 12.4557C32.6059 12.6596 34.3572 13.3544 34.9715 13.771C35.5767 14.188 35.7967 14.1138 35.6592 12.9374C35.5217 11.761 35.6776 11.5848 36.026 11.0107C36.3838 10.4365 36.2829 9.89894 36.0535 9.24145C35.8151 8.58363 36.0904 7.75 36.0904 7.75Z" fill="#E0C857"/>
<path fill-rule="evenodd" clip-rule="evenodd" d="M36.0899 7.75C36.0899 7.75 33.4674 8.30586 30.8815 9.36171C29.9645 9.73228 29.2861 10.0473 28.7999 10.3251C29.6895 9.86201 32.6054 9.87116 34.4117 9.2506C36.2274 8.63003 36.0621 7.83333 36.0896 7.75915V7.75H36.0899ZM28.6993 10.3806C28.6075 10.4362 28.6165 10.4362 28.6993 10.3806V10.3806Z" fill="#FCF65C"/>
<path fill-rule="evenodd" clip-rule="evenodd" d="M16.4394 2.23761C19.942 1.76508 24.6645 5.77604 26.7917 7.33252C26.9476 7.44363 27.1036 7.55474 27.2595 7.65669C27.6079 7.53644 28.1856 7.43448 28.7174 7.35115C28.9743 7.31422 29.1667 7.14724 29.2492 6.90639C29.3317 6.6564 29.2767 6.39694 29.0933 6.21165C27.7913 4.86856 25.8381 2.97876 24.9304 2.16376C22.372 -0.142695 19.1628 -0.43909 16.311 0.496497C13.4591 1.42293 12.3496 3.64606 12.3496 3.64606C13.3585 2.93236 14.6146 2.48793 16.4394 2.23761Z" fill="#E0C857"/>
<path fill-rule="evenodd" clip-rule="evenodd" d="M29.2767 6.53582C29.2492 6.41524 29.1852 6.30413 29.0933 6.21165C27.7913 4.86856 25.8381 2.97876 24.9304 2.16376C22.372 -0.142695 19.1628 -0.43909 16.311 0.496497C13.4591 1.42293 12.3496 3.64606 12.3496 3.64606C12.9273 2.76602 14.4768 1.38568 16.9618 0.913476C19.4377 0.431794 21.9224 1.26542 24.9485 3.65553C27.9838 6.03551 29.2767 6.53582 29.2767 6.53582Z" fill="#FCF65C"/>
<path fill-rule="evenodd" clip-rule="evenodd" d="M26.1682 13.2333C28.057 13.0388 29.2035 13.6039 29.2035 13.6039C30.1386 12.733 30.5698 12.4552 30.5698 12.4552V12.4088C29.0844 12.2421 27.6081 12.1124 27.6081 11.5843C27.6081 11.0102 28.2958 10.4079 30.8817 9.3612C30.8817 9.3612 29.1944 8.9537 27.2597 7.65669C27.1037 7.55473 26.9478 7.44362 26.7919 7.33252C24.6644 5.77636 19.9422 1.7654 16.4392 2.2376C14.6145 2.48759 13.3584 2.93235 12.3495 3.64572C11.4143 4.30354 10.6991 5.19272 9.94698 6.3783C9.37863 7.26749 8.96586 8.10111 8.66309 8.91644C9.55266 7.01749 12.4316 5.83192 13.9264 7.26749C15.5862 8.86089 17.3925 9.05533 17.0348 7.9436C16.6864 6.83188 17.2366 6.31327 18.8136 5.91492C22.0963 5.09044 24.1229 9.3795 23.3342 10.9726C22.5462 12.5568 24.2794 13.4369 26.1682 13.2333Z" fill="#165295"/>
<path fill-rule="evenodd" clip-rule="evenodd" d="M28.1128 8.56469C27.6175 8.333 27.0398 8.0183 26.4349 7.6291C26.288 7.53662 26.1415 7.43466 26.004 7.33271C24.0599 5.95237 19.7411 2.41393 16.5319 2.64562C14.863 2.75673 13.7169 3.0626 12.7908 3.60899C12.3415 3.8776 11.9472 4.19263 11.5713 4.5815C11.8097 4.37759 12.0572 4.20178 12.3231 4.04427C13.2492 3.49788 14.4047 3.19201 16.0735 3.07175C19.2737 2.84006 23.5925 6.37882 25.5366 7.76831C25.6835 7.87027 25.83 7.96275 25.9675 8.05556C26.8752 8.64835 27.352 8.94474 27.9481 9.07447C28.0856 9.1114 28.214 9.02807 28.26 8.89834C28.3059 8.7686 28.2412 8.62939 28.1128 8.56469Z" fill="#4074AC"/>
<path fill-rule="evenodd" clip-rule="evenodd" d="M2.29078 13.8898C2.56574 13.9084 2.76759 14.1493 2.74916 14.4271C2.73072 14.6957 2.49231 14.9087 2.21735 14.881C1.94239 14.8623 1.74054 14.6215 1.75898 14.3529C1.78648 14.0751 2.0155 13.8715 2.29078 13.8898Z" fill="#5F5CE4"/>
<path fill-rule="evenodd" clip-rule="evenodd" d="M2.49222 7.95231C3.12495 7.99871 3.61082 8.56372 3.56521 9.21207C3.51022 9.85126 2.95998 10.3421 2.31819 10.296C1.6764 10.2405 1.19959 9.6846 1.2452 9.03626C1.29114 8.38759 1.85044 7.9059 2.49222 7.95231Z" fill="#4947AB"/>
<path fill-rule="evenodd" clip-rule="evenodd" d="M2.72202 7.98932C3.1254 8.0171 3.43724 8.36905 3.40068 8.78603C3.37319 9.19353 3.0248 9.4994 2.61204 9.47162C2.20866 9.44385 1.90588 9.08242 1.93337 8.67492C1.96087 8.26709 2.31864 7.95207 2.72202 7.98932Z" fill="#5F5CE4"/>
<path d="M2.85938 0.367021C3.59304 0.422575 4.23482 0.765373 4.67508 1.29346C5.12439 1.81207 5.37186 2.50681 5.31686 3.24796C5.26187 3.98911 4.92254 4.63745 4.3998 5.08221C3.88643 5.53611 3.19871 5.78611 2.47412 5.73055H2.46506C1.7314 5.675 1.08962 5.32305 0.649362 4.80411C0.200047 4.28551 -0.0474155 3.59076 0.00757622 2.84961C0.0625679 2.10846 0.410957 1.46012 0.924644 1.01536C1.43801 0.561785 2.12573 0.311468 2.85938 0.367021ZM3.89549 1.97905C3.62053 1.66403 3.22621 1.45097 2.78595 1.41404C2.33664 1.38627 1.91482 1.5343 1.60331 1.80292C1.29147 2.08068 1.08056 2.47904 1.04401 2.92379C1.01651 3.3777 1.16337 3.80382 1.43833 4.11885C1.70423 4.43387 2.09856 4.64693 2.53881 4.68386C2.98813 4.71163 3.40995 4.5636 3.72178 4.28551C4.03362 4.01689 4.24453 3.61854 4.28108 3.17378C4.30825 2.71988 4.16139 2.29408 3.89549 1.97905Z" fill="#2D3F94"/>
<path fill-rule="evenodd" clip-rule="evenodd" d="M3.61178 1.54193C4.03359 1.56971 4.34543 1.94028 4.31793 2.35693C4.28138 2.78306 3.91455 3.09808 3.50179 3.07031C3.07965 3.04286 2.76814 2.67228 2.79563 2.24615C2.83219 1.82918 3.18996 1.505 3.61178 1.54193Z" fill="#5F5CE4"/>
<path d="M16.9896 25.1644C16.7787 25.1275 16.6318 24.9327 16.6596 24.7197C16.6871 24.5066 16.8796 24.3582 17.0905 24.3863C17.1089 24.3955 20.9875 24.9605 24.463 23.9511C24.6648 23.8955 24.8757 24.0158 24.9398 24.2197C24.9948 24.4236 24.8757 24.6458 24.6739 24.7014C21.0425 25.7572 16.9986 25.1644 16.9896 25.1644Z" fill="#2D3F94"/>
<path fill-rule="evenodd" clip-rule="evenodd" d="M32.4131 21.8206C33.0824 21.867 33.5776 22.4506 33.5317 23.1267C33.4858 23.8028 32.899 24.3031 32.2387 24.2567C31.5695 24.2012 31.0742 23.6175 31.1201 22.9414C31.1661 22.2745 31.7529 21.765 32.4131 21.8206Z" fill="#4947AB"/>
<path fill-rule="evenodd" clip-rule="evenodd" d="M32.6609 21.8474C33.0827 21.8843 33.4036 22.2549 33.367 22.681C33.3395 23.1071 32.9727 23.4313 32.5509 23.3944C32.12 23.3666 31.8082 22.996 31.8357 22.5699C31.8722 22.1438 32.239 21.8196 32.6609 21.8474Z" fill="#5F5CE4"/>
<path fill-rule="evenodd" clip-rule="evenodd" d="M29.6067 0.180649C30.0376 0.208426 30.3585 0.588151 30.331 1.02376C30.2945 1.45903 29.9276 1.78321 29.4964 1.74628C29.0655 1.7185 28.7447 1.33878 28.7722 0.903172C28.7996 0.467567 29.1759 0.143396 29.6067 0.180649Z" fill="#4947AB"/>
<path fill-rule="evenodd" clip-rule="evenodd" d="M29.7634 0.200361C30.0384 0.218988 30.2403 0.459829 30.2218 0.737597C30.2034 1.01536 29.965 1.21928 29.69 1.20065C29.4241 1.18202 29.2132 0.941184 29.2407 0.663416C29.2591 0.385649 29.4975 0.182061 29.7634 0.200361Z" fill="#5F5CE4"/>
<path fill-rule="evenodd" clip-rule="evenodd" d="M38.8498 6.74815C39.5375 6.80371 40.0508 7.40597 39.9958 8.10072C39.9499 8.79546 39.3541 9.31407 38.6663 9.268C37.9696 9.21244 37.4559 8.61018 37.5109 7.91543C37.5568 7.22068 38.162 6.6926 38.8498 6.74815Z" fill="#4947AB"/>
<path fill-rule="evenodd" clip-rule="evenodd" d="M39.0971 6.78604C39.5374 6.81382 39.8583 7.20302 39.8308 7.6383C39.7942 8.08305 39.418 8.41638 38.9781 8.37945C38.5472 8.35167 38.2169 7.96247 38.2538 7.52719C38.2813 7.08244 38.6572 6.74879 39.0971 6.78604Z" fill="#5F5CE4"/>
<path fill-rule="evenodd" clip-rule="evenodd" d="M8.55345 22.7646C8.97527 22.7924 9.29616 23.1629 9.25961 23.5982C9.23211 24.0243 8.86528 24.3394 8.43441 24.3116C8.01259 24.2747 7.70075 23.9041 7.72825 23.478C7.76513 23.0518 8.13163 22.7277 8.55345 22.7646Z" fill="#4947AB"/>
<path fill-rule="evenodd" clip-rule="evenodd" d="M8.70946 22.7824C8.97536 22.8011 9.17721 23.0419 9.15878 23.3105C9.14034 23.5791 8.90193 23.783 8.63603 23.7644C8.37013 23.7458 8.16828 23.5144 8.18672 23.2363C8.20515 22.9677 8.4345 22.7638 8.70946 22.7824Z" fill="#5F5CE4"/>
<path d="M22.6479 26.9977C22.437 27.0163 22.2536 26.8588 22.2261 26.6458C22.2077 26.4327 22.3636 26.2383 22.5745 26.2196C22.5835 26.2196 26.4899 25.8304 29.6257 24.0151C29.8091 23.904 30.0385 23.9687 30.1485 24.1635C30.2584 24.3488 30.1944 24.5805 30.0016 24.6916C26.7283 26.5902 22.6663 26.9977 22.6479 26.9977Z" fill="#2D3F94"/>
</g>
<defs>
<clipPath id="clip0_4477_95591">
<rect width="40" height="27" fill="white"/>
</clipPath>
</defs>
</svg>
