<svg width="59" height="29" viewBox="0 0 59 29" fill="none" xmlns="http://www.w3.org/2000/svg">
<g opacity="0.5">
<path
      d="M12.4688 13.6719C12.492 13.7 12.5189 13.7245 12.5483 13.7453C12.5287 13.7172 12.503 13.6915 12.4688 13.6719Z"
      fill="#2965BC"
    />
<path
      d="M20.9658 14.8939C20.5327 14.851 20.2402 15.1692 19.8755 15.3136C19.588 15.4274 19.1744 15.3711 19.0899 15.0738C19.0385 14.8963 19.1254 14.6883 18.9504 14.5476C18.8072 14.4325 18.5955 14.457 18.4658 14.5855C18.0791 14.9697 18.3386 15.5485 17.969 15.9438C17.8197 16.1029 17.5725 16.1249 17.4294 15.9597C17.258 15.7615 17.4171 15.4776 17.537 15.2524C17.6545 15.0334 17.6802 14.6748 17.4379 14.6149C17.2825 14.5757 17.1369 14.7042 16.9803 14.7348C16.6633 14.7984 16.41 14.4705 16.2987 14.167C16.0062 13.3679 16.1004 12.4342 16.5642 11.7184C16.6878 11.5275 16.7086 11.2791 16.5826 11.0894C16.3525 10.7455 15.9438 10.9426 15.7419 11.2056C15.5718 11.4259 15.4604 11.7025 15.2279 11.8554C15.097 11.9411 14.9098 11.9484 14.7715 11.8897C14.6601 11.842 14.5365 11.9154 14.5316 12.0365C14.5084 12.6631 14.7593 13.3006 15.212 13.7363C15.2438 13.7668 15.2181 13.8207 15.1741 13.8158L14.8914 13.7828C14.7348 13.7644 14.632 13.9443 14.7287 14.0691C15.3687 14.889 15.8434 15.8692 15.7688 16.8946C15.6929 17.9409 15.0652 18.8599 14.4876 19.7287C14.4276 19.818 14.3432 19.8915 14.2404 19.922C13.9614 20.0065 13.7999 19.7495 13.6959 19.5268C13.3593 18.8024 13.0791 18.0535 12.8564 17.2862C12.7928 17.0672 12.8576 16.8236 13.0351 16.6805C13.3544 16.4247 13.7424 16.7209 14.0336 16.9583C14.2429 17.1296 14.5671 17.2642 14.7911 17.1822C14.8975 17.143 14.9355 17.0096 14.8682 16.9179L14.6344 16.596C14.9342 16.4822 15.2561 16.3513 15.3748 16.0233C15.4482 15.8202 15.3662 15.5828 15.1655 15.5033C14.8119 15.3625 14.5121 15.8557 14.1327 15.9034C13.866 15.9365 13.6298 15.7431 13.3765 15.6526C13.1232 15.562 12.7377 15.6795 12.772 15.9463C12.3951 15.7884 12.3694 15.2267 12.6055 14.8939C12.8417 14.561 13.237 14.3885 13.5882 14.1817C14.0104 13.9333 14.4325 13.5478 14.3089 13.0094C14.2343 12.6875 13.9271 12.5101 13.6286 12.6496C13.2908 12.8075 13.3581 13.2615 13.1281 13.5123C13.0228 13.6261 12.8601 13.6702 12.7083 13.6494C12.6202 13.6371 12.548 13.7057 12.5333 13.7925C12.5101 13.9406 12.4024 14.0875 12.2507 14.118C11.9766 14.1731 11.7098 13.9345 11.64 13.6641C11.5703 13.3936 11.6474 13.1073 11.7441 12.8442C11.8407 12.5811 11.9594 12.3204 11.9753 12.0402C12.001 11.5752 11.7539 11.0429 12.0463 10.6819C12.2482 10.4323 12.6141 10.4041 12.9335 10.4237C13.3202 10.4482 13.7411 10.5069 14.0373 10.1973C14.1915 10.037 14.2135 9.77882 14.0617 9.61606C13.7901 9.32605 13.3177 9.69316 13.062 9.45331C12.8307 9.23549 13.051 8.74234 12.7769 8.58204C12.5333 8.43887 12.2837 8.76192 12.1895 9.02869C12.0953 9.29545 11.8848 9.63075 11.6229 9.52429C11.3513 9.41293 11.4149 8.94058 11.0845 8.86227C10.8997 8.81944 10.7186 8.93569 10.6415 9.11068C10.5069 9.41538 10.6415 9.7262 10.7455 10.0211C11.1041 11.0356 11.1163 12.1675 10.781 13.1893C10.4139 12.7365 10.1557 12.1981 10.0284 11.629C9.99173 11.4626 9.75066 11.4651 9.72618 11.6339C9.69682 11.8322 9.70293 12.0647 9.73475 12.2801C9.75066 12.3865 9.60993 12.4391 9.5512 12.3486C9.44963 12.1919 9.35418 12.0537 9.29544 12.0108C9.11189 11.8762 8.85858 12.0304 8.89162 12.2556C8.97973 12.8491 9.40435 13.4059 9.84121 13.8537C10.4053 14.4325 11.06 15.0211 11.1873 15.8178C10.4139 15.3858 9.64052 14.9551 8.86715 14.5231C8.69094 14.4252 8.50371 14.6259 8.61017 14.7972C9.17185 15.6978 10.1006 16.3697 11.1396 16.596C11.0001 17.2605 11.4602 17.9947 12.1197 18.1575C12.3241 18.2076 12.548 18.2138 12.7181 18.3361C12.8894 18.4585 12.9408 18.7681 12.7499 18.8562C12.641 18.5772 12.2201 18.4879 12.0072 18.6971C11.8909 18.8109 11.8615 18.9884 11.9044 19.145C11.9399 19.2759 11.826 19.4008 11.6914 19.3836C11.5116 19.3604 11.3305 19.3371 11.1506 19.3139C11.0098 19.2955 10.896 19.4289 10.9376 19.5635C11.0062 19.7887 11.2007 19.9832 11.4235 20.0811C11.7343 20.217 12.0867 20.2084 12.4269 20.201C12.7659 20.1937 13.1207 20.1949 13.4242 20.3467C13.7668 20.5192 14.0177 20.9463 13.8035 21.2999C13.6494 21.5545 13.3385 21.6218 13.1293 21.4088C12.9629 21.24 13.0253 21.0013 12.9788 20.7909C12.9396 20.611 12.7181 20.4397 12.5835 20.5657C12.5994 20.7468 12.6153 20.9291 12.63 21.1103C12.641 21.2338 12.5346 21.3366 12.411 21.3207C12.3106 21.3085 12.2103 21.2963 12.1099 21.2828C11.9227 21.2595 11.815 21.4872 11.9509 21.6193C12.1699 21.8322 12.4306 22.0023 12.7145 22.1174C12.8833 22.1859 12.8417 22.438 12.6606 22.4514C12.318 22.4759 11.9704 22.4404 11.64 22.3474C11.4443 22.2923 11.3048 22.5383 11.4528 22.6766C11.6474 22.8601 11.9215 22.9813 12.187 23.0351C12.6484 23.1281 13.1342 23.0902 13.5796 23.237C14.0263 23.3851 14.4399 23.822 14.3261 24.2784C14.2759 24.4766 14.1339 24.6492 14.1254 24.8523C14.1131 25.1778 14.435 25.4079 14.5635 25.7065C14.7482 26.1372 14.4692 26.6683 14.0434 26.8629C13.6175 27.0574 13.1048 26.9669 12.6949 26.7405C12.3033 26.5251 11.9399 26.0589 12.2825 25.6453C12.3853 25.5217 12.3706 25.3442 12.2286 25.2696C12.0891 25.195 11.979 25.3394 11.8664 25.4226C11.6021 25.6196 11.1873 25.4642 11.0343 25.1729C10.8814 24.8817 10.9438 24.517 11.0967 24.2258C11.2534 23.9284 11.4981 23.6776 11.5397 23.3264C11.5544 23.1979 11.5299 23.0633 11.4577 22.9556C11.2289 22.6105 10.7737 22.7745 10.5975 23.0694C10.4518 23.3141 10.4445 23.6139 10.442 23.8978C9.72251 23.6972 9.39211 22.6803 9.85467 22.0941C9.99173 21.9216 10.1753 21.7906 10.3099 21.6156C10.4445 21.4407 10.5228 21.191 10.4102 21.0013C10.1704 20.983 9.93054 20.9646 9.68947 20.9463C10.2365 20.403 9.03724 19.2955 9.86691 18.8109C9.94645 18.7644 10.0346 18.7314 10.1251 18.7081C10.3503 18.6518 10.6586 18.516 10.6966 18.2603C10.7284 18.051 10.4212 17.8528 10.3001 18.0253C10.4408 17.5591 10.0186 17.1283 9.6393 16.8236C9.24772 16.5092 8.85736 16.1947 8.46577 15.8802C8.29323 15.7419 8.05094 15.9365 8.15251 16.1335C8.20757 16.2399 8.28589 16.3378 8.37155 16.4149C8.59549 16.6168 8.88183 16.7661 9.02745 17.0304C9.17307 17.2948 9.04948 17.7292 8.74845 17.7243C8.63097 17.7231 8.50738 17.6545 8.40581 17.7671C8.34585 17.8344 8.32994 17.9311 8.35197 18.0192C8.5135 18.6457 8.67503 19.2735 8.83656 19.9C8.8647 20.0102 8.83778 20.1337 8.7509 20.2072C8.58203 20.3528 8.39113 20.1998 8.281 20.0493C7.76215 19.3408 7.72544 18.308 8.22103 17.5762C8.31893 17.4306 8.37277 17.2556 8.34952 17.0818C8.281 16.563 7.64223 16.6462 7.33018 16.3391C7.15152 16.1641 7.11359 15.8973 7.04017 15.6587C6.9594 15.3944 6.76973 15.108 6.47237 15.1545C6.23987 15.1912 6.09058 15.4164 6.10159 15.6513C6.12362 16.1286 6.51153 16.399 6.7477 16.76C6.93615 17.0476 6.99611 17.4918 6.71589 17.6912C6.36469 17.7059 6.13096 17.3168 6.09425 16.9668C6.05754 16.6181 6.13341 16.2534 6.0245 15.9193C5.91559 15.5853 5.48852 15.316 5.21563 15.5363C5.21686 16.0711 5.28783 16.5508 5.28783 17.0855C4.13878 16.0062 2.67279 15.2695 1.12114 14.9942C1.0208 14.9759 0.915558 14.9771 0.817662 15.0101C0.43954 15.1398 0.546001 15.5767 0.796859 15.748C0.99877 15.8863 1.25575 15.9034 1.49804 15.9328C3.06682 16.1225 4.54015 17.0035 5.45058 18.2945C5.08837 18.0412 4.72738 17.7879 4.36516 17.5346C4.26237 17.4624 4.14367 17.3865 4.01396 17.4624C3.90628 17.526 3.87446 17.6668 3.92341 17.7806C4.02008 18.007 4.26237 18.062 4.48264 18.1036C4.54749 18.2921 4.18895 18.3582 4.05679 18.2138C4.0005 18.1526 3.93809 18.0951 3.86467 18.0559C3.45106 17.8332 3.33726 18.3129 3.52693 18.5136C3.67133 18.6665 3.90016 18.6971 4.11063 18.713C4.79346 18.7644 5.49586 18.7608 6.13708 19.0043C6.77707 19.2478 7.35588 19.8131 7.36445 20.4984C7.14418 20.201 6.89332 19.8817 6.53111 19.7997C6.12729 19.7079 5.61333 20.1288 5.90825 20.5192C5.96576 20.5939 5.99635 20.6918 5.97065 20.7823C5.91681 20.972 5.67941 20.9279 5.49953 20.9291C5.33188 20.9304 5.14711 21.1568 5.29762 21.2314C5.36492 21.5263 5.77364 21.5924 6.05387 21.4798C6.33409 21.3685 6.57027 21.1482 6.8664 21.0846C7.40238 20.9708 7.88697 21.3991 8.26631 21.7943C8.05094 21.9363 7.80375 22.0305 7.54922 22.0709C7.44399 22.088 7.39871 22.214 7.47458 22.2899C7.62754 22.4404 7.74746 22.6227 7.82578 22.8234C6.97286 23.0094 6.0404 22.7843 5.36492 22.2299C4.78979 21.7576 4.54872 21.1311 4.49977 20.4164C4.49365 20.3283 4.37985 20.2989 4.3309 20.3724C4.29419 20.4262 4.2587 20.4801 4.22933 20.5388C4.1914 20.6159 4.09105 20.6416 4.02742 20.5841C3.4327 20.042 3.44617 18.9198 2.89795 18.3875C2.78659 18.2798 2.60059 18.3777 2.62139 18.5307C2.6373 18.6506 2.65321 18.7693 2.66912 18.8892C2.41826 18.7926 2.14905 18.7473 1.88106 18.7546C1.66446 18.7608 1.56901 19.0324 1.73054 19.1768C2.26774 19.6553 2.80495 20.1337 3.34215 20.6122C3.54284 20.7909 3.7631 21.0197 3.71905 21.2865C3.67989 21.5263 3.42781 21.7417 3.51959 21.9668C3.58689 22.132 3.79614 22.1749 3.94543 22.274C4.0935 22.3731 4.13021 22.6717 3.95155 22.6778C3.60525 22.4857 3.2259 22.2862 2.82086 22.4441C2.60304 22.5285 2.45742 22.7537 2.50025 22.9837C2.57 23.3545 3.03256 23.4316 3.39844 23.4365C3.1586 23.4806 3.11944 23.8575 3.30666 24.0129C3.49511 24.1683 3.78146 24.1303 3.99316 24.0104C4.20486 23.8905 4.37128 23.7045 4.56463 23.5577C5.10428 23.1477 5.83727 23.0682 6.50419 23.1905C7.1711 23.3129 7.78785 23.6152 8.39602 23.915C8.2088 24.5011 7.65691 24.9539 7.04628 25.0224C6.80644 25.0493 6.56048 25.0236 6.32675 25.0836C6.09302 25.1448 5.86419 25.3308 5.86664 25.5719C5.86786 25.8129 6.22518 25.9916 6.36713 25.7958C6.28147 26.3477 5.72959 26.7858 5.1728 26.7429C4.97579 26.727 4.77755 26.6609 4.58543 26.7503C4.50099 26.7894 4.43491 26.8665 4.4239 26.9583C4.39331 27.2239 4.78489 27.2655 4.79223 27.4894C4.79835 27.6717 4.53036 27.7745 4.61357 27.9948C4.66986 28.1428 4.84363 28.2126 4.99414 28.1624C5.2964 28.0621 5.38083 27.7525 5.52278 27.5004C5.6427 27.2875 5.88377 27.088 6.10893 27.1798C5.96821 27.285 6.06366 27.542 6.23497 27.5775C6.40629 27.6142 6.57638 27.4869 6.65715 27.3315C6.73791 27.1761 6.75137 26.9962 6.77829 26.8225C6.8248 26.5288 6.92024 26.2339 7.11481 26.0099C7.30938 25.7848 7.61775 25.6428 7.90777 25.7065C8.13048 25.7542 8.35809 25.9145 8.56245 25.7322C8.68726 25.6208 8.73499 25.4421 8.69461 25.2794C8.63465 25.0396 8.61139 24.566 8.90753 24.4864C9.22569 25.064 9.54508 25.6428 9.86324 26.2204C9.54997 26.0944 9.19877 25.9659 8.88917 26.169C8.72642 26.2767 8.653 26.4909 8.74356 26.6646C8.90386 26.9742 9.37865 26.7845 9.54018 27.0415C9.70905 27.312 9.32481 27.7819 9.6136 27.9348C9.76657 28.0168 9.95379 27.9385 10.0346 27.7855C10.3221 27.2373 11.0649 27.2887 11.4993 27.6411C11.7428 27.8394 11.9142 28.1049 12.0549 28.3876H17.7977C17.3119 27.8357 16.7771 26.9081 16.7759 26.5117C16.7747 26.2498 16.9215 25.9965 16.8836 25.7383C16.8444 25.4789 16.4186 25.3149 16.3476 25.5657C16.0441 25.2745 16.2668 24.7422 16.6021 24.4877C17.0317 24.1609 17.6227 24.03 17.7989 23.4304C17.8907 23.1183 17.701 22.8124 17.3767 22.7965C17.0574 22.7806 16.8763 23.1147 16.689 23.3631C16.5079 23.6042 16.1029 23.7804 15.9389 23.5271C16.0857 22.9262 15.2438 22.3278 15.7076 21.7674C15.8337 21.6144 16.0221 21.5263 16.2191 21.5055L18.5515 21.2522C18.7399 21.2314 18.9578 21.1947 19.041 21.016C19.0765 20.9414 19.0716 20.8533 19.0373 20.7786C19.0006 20.6954 18.959 20.6342 18.9137 20.5914C18.8403 20.5192 18.8476 20.4054 18.9247 20.3381C18.9737 20.2953 19.0177 20.2427 19.0544 20.1778C19.1572 19.9955 19.1022 19.7544 18.9125 19.6638C18.7289 19.577 18.5503 19.6908 18.3936 19.7899C17.8577 20.1289 17.258 20.3675 16.6364 20.4911C16.3146 20.5547 15.9462 20.5792 15.7248 20.2708C15.6171 20.1203 15.5816 19.9306 15.6012 19.7458C15.6391 19.3885 15.8557 19.096 16.0662 18.8158C16.2803 18.5307 16.5006 18.2407 16.7992 18.0461C17.0977 17.8516 17.4954 17.772 17.8124 17.9348C18.0522 18.0584 18.2186 18.3055 18.5111 18.3374C18.658 18.3533 18.8072 18.2749 18.8452 18.133C18.8929 17.9543 18.7338 17.8148 18.6457 17.6619C18.4108 17.2568 18.7106 16.7111 19.1352 16.5165C19.4166 16.3868 19.7275 16.3672 20.0407 16.3856C20.1509 16.3917 20.2316 16.2962 20.2218 16.1861C20.2169 16.1274 20.228 16.0674 20.261 16.0172C20.3846 15.8312 20.6306 15.7859 20.8471 15.7333C21.0858 15.6758 21.3587 15.5498 21.3574 15.283C21.355 15.0762 21.1751 14.9159 20.9658 14.8939Z"
      fill="#2965BC"
    />
<path
      d="M41.0908 28.3247C40.9403 27.9453 40.5768 27.7532 40.2195 27.5562C39.8622 27.3592 39.4743 27.2209 39.128 27.0055C38.7817 26.7901 38.4672 26.4781 38.3779 26.0804C38.2885 25.6827 38.4965 25.2042 38.8906 25.1002C39.2369 25.0097 39.5967 25.2238 39.8218 25.5016C40.047 25.7794 40.1816 26.1183 40.381 26.4157C40.512 26.6115 40.7176 26.8048 40.9501 26.7644C41.1581 26.7277 41.2878 26.516 41.3441 26.3129C41.5472 25.5775 41.1116 24.7869 40.501 24.3305C39.8891 23.8741 39.1304 23.6722 38.3999 23.4519C37.6681 23.2328 36.9168 22.9685 36.3796 22.4264C36.2817 22.3285 36.1874 22.2037 36.2009 22.0667C36.2217 21.8758 36.4493 21.7681 36.639 21.7987C36.8287 21.828 36.9877 21.9504 37.1493 22.0544C37.3108 22.1584 37.4992 22.2502 37.6865 22.2111C37.7428 21.7791 37.2839 21.4866 37.0036 21.1513C36.6647 20.7451 36.5705 20.1479 36.7699 19.6572C36.8629 19.4271 37.0281 19.2118 37.2594 19.1212C37.4919 19.0307 37.7929 19.0992 37.9165 19.3158C38.0267 19.5091 37.974 19.7502 37.9202 19.9668C37.8663 20.1822 37.8186 20.4269 37.9361 20.6154C38.0536 20.805 38.4084 20.8209 38.4586 20.6043C38.4757 20.5309 38.4537 20.4502 38.4855 20.3829C38.5565 20.236 38.8049 20.3156 38.8563 20.4697C38.9077 20.6239 38.8404 20.7891 38.7988 20.947C38.6458 21.5233 38.8429 22.1499 39.2002 22.6271C39.5575 23.1044 40.0592 23.4519 40.5719 23.7554C40.8497 23.9206 41.2352 24.065 41.4665 23.8386C41.7112 23.5987 41.5399 23.1888 41.3588 22.8976C40.2783 21.1648 39.1977 19.4333 38.1172 17.7005C37.826 17.2331 37.5115 16.7448 37.0208 16.4939C36.7846 16.3728 36.5166 16.3153 36.2511 16.3287C36.0039 16.341 35.7408 16.4095 35.5217 16.2945C35.2697 16.1611 35.1926 15.7915 35.3516 15.5554C35.5107 15.3192 35.8595 15.247 36.1128 15.3779C36.2719 15.4599 36.404 15.6129 36.5827 15.6251C36.8164 15.641 36.9975 15.3902 36.9975 15.1564C36.9975 14.9227 36.8715 14.7086 36.7503 14.5091C36.0577 13.3686 35.288 12.1743 34.5195 11.084C34.6407 10.8564 34.9919 10.9127 35.1999 11.0668C35.4067 11.221 35.5866 11.4462 35.8423 11.4805C36.1299 11.5184 36.3918 11.2883 36.5215 11.0277C36.6512 10.7683 36.6916 10.4734 36.8017 10.2041C36.9119 9.93492 37.126 9.67428 37.4148 9.64858C37.7305 9.61921 38.0169 9.90311 38.0646 10.2164C38.1123 10.5296 37.9655 10.8478 37.7538 11.0828C37.5898 11.2651 37.3818 11.4156 37.2741 11.6359C37.1664 11.8561 37.2178 12.1841 37.4515 12.2587C37.6975 12.3383 38.0156 12.1021 38.2016 12.2832C38.3375 12.4154 38.2518 12.6552 38.1074 12.7764C37.963 12.8975 37.7721 12.9587 37.6375 13.0908C37.5029 13.223 37.4564 13.4836 37.6192 13.5815C37.7317 13.6488 37.8859 13.6023 37.9997 13.6672C38.2004 13.781 38.105 14.0784 38.0572 14.3047C37.9165 14.9766 38.4598 15.5811 38.9579 16.0534C39.0717 16.1611 39.2112 16.2773 39.3654 16.2492C39.5306 16.2186 39.6187 16.0363 39.6505 15.8711C39.7141 15.5407 39.6529 15.2005 39.6652 14.8652C39.6774 14.5287 39.7912 14.1604 40.0849 13.9976C40.3786 13.8348 40.8473 14.049 40.8032 14.3818C40.7702 14.6266 40.4961 14.853 40.6148 15.0696C40.6955 15.2164 40.906 15.2237 41.0688 15.1821C41.2315 15.1405 41.4028 15.0683 41.5607 15.1246C41.7797 15.2017 41.8519 15.5027 41.7504 15.712C41.6488 15.9213 41.4273 16.0461 41.207 16.1183C40.9856 16.1905 40.7518 16.2235 40.5389 16.3153C40.0543 16.5221 39.73 17.0226 39.6603 17.5451C39.5918 18.0676 39.7545 18.6024 40.0384 19.0478C40.2526 19.3843 40.6405 19.7062 41.0149 19.5666C41.2572 19.4761 41.3979 19.2167 41.4432 18.9609C41.4885 18.7064 41.4591 18.4445 41.475 18.1863C41.4934 17.8902 41.5888 17.572 41.8372 17.4105C42.0857 17.249 42.5005 17.3554 42.547 17.6479C42.5959 17.9612 42.2288 18.2781 42.3818 18.5559C42.5996 18.9524 43.3791 18.4739 43.6165 18.8594C43.7181 19.0233 43.6263 19.2485 43.477 19.3721C43.3289 19.4957 43.1368 19.552 42.963 19.6364C42.4944 19.8677 42.1517 20.3388 42.0783 20.8564C42.0428 21.1036 42.1114 21.4181 42.3524 21.4842C42.5617 21.5417 42.7575 21.3777 42.9263 21.2419C43.0952 21.1061 43.3461 20.9898 43.5137 21.1269C43.6508 21.2394 43.6336 21.4646 43.5345 21.6127C43.4354 21.7607 43.2788 21.8574 43.1429 21.9737C42.7012 22.353 42.4931 22.9477 42.4601 23.529C42.4271 24.1102 42.5494 24.6878 42.6718 25.2568C42.7367 25.5579 42.8566 25.8405 42.8847 26.1477C42.9129 26.4548 42.9716 26.7901 43.2078 26.9896C43.444 27.1891 43.9016 27.1132 43.9445 26.8073C43.9555 26.7277 43.9371 26.6457 43.9188 26.5674C43.7266 25.7427 43.5345 24.9179 43.3436 24.0943C43.8123 24.0185 44.3103 24.3599 44.4095 24.8237C44.4498 25.0121 44.4315 25.2079 44.4621 25.3976C44.4927 25.5872 44.5918 25.7867 44.7729 25.8503C44.9736 25.9201 45.2036 25.7855 45.2966 25.5934C45.3884 25.4012 45.3688 25.1736 45.3089 24.9705C45.0568 24.1237 44.1831 23.5816 43.9004 22.7446C43.8306 22.5378 43.8025 22.2992 43.9077 22.107C44.013 21.9149 44.292 21.8134 44.4621 21.9516C44.6995 22.1438 44.6175 22.6504 44.9185 22.6956C45.1143 22.725 45.2501 22.4962 45.2685 22.2979C45.2868 22.1009 45.2501 21.8856 45.3566 21.7179C45.5377 21.4303 46.0284 21.5258 46.201 21.8195C46.3735 22.1119 46.3074 22.4876 46.1838 22.8033C46.0602 23.1203 45.8816 23.4213 45.8375 23.759C45.7922 24.0956 45.9317 24.4933 46.2536 24.6009C46.5448 24.6976 46.8703 24.5141 47.0355 24.2559C47.2007 23.9977 47.2435 23.6819 47.2839 23.3772C47.3378 22.9636 47.3904 22.55 47.4442 22.1364C47.4907 21.7791 47.5348 21.4046 47.4124 21.0657C47.1408 20.3131 46.2144 20.0647 45.6356 19.5128C45.3847 19.273 45.189 18.9377 45.233 18.5938C45.2771 18.2487 45.6405 17.944 45.9684 18.0591C46.4665 18.2328 46.4787 19.1139 47.0025 19.1824C47.175 18.1056 46.8556 16.9602 46.1532 16.1281C45.9538 15.8919 45.7237 15.6777 45.5646 15.411C45.4055 15.1454 45.326 14.8065 45.4569 14.525C45.5879 14.2448 45.9807 14.0869 46.2279 14.2754C46.4286 14.4283 46.4518 14.7147 46.5203 14.9582C46.5889 15.2017 46.8116 15.4648 47.0478 15.3767C47.2717 15.0794 47.268 14.6768 47.3206 14.3084C47.3733 13.9401 47.547 13.524 47.9092 13.4408C48.3779 13.3319 48.767 13.9009 48.6997 14.3769C48.6312 14.853 48.2861 15.2335 47.9924 15.6129C47.6988 15.9935 47.4308 16.467 47.5519 16.932C47.5984 17.1095 47.7122 17.2808 47.8835 17.3444C48.2005 17.4607 48.6202 17.1963 48.8625 17.4301C49.0314 17.594 48.9641 17.8853 48.8221 18.0737C48.6802 18.2622 48.4795 18.4066 48.3755 18.6171C48.1564 19.06 48.4403 19.5691 48.6153 20.0304C48.8613 20.6802 48.8882 21.4095 48.6912 22.0765C48.6349 22.2674 48.559 22.4558 48.5492 22.6553C48.5382 22.8547 48.6067 23.0725 48.7768 23.1766C48.9494 23.283 49.1819 23.2402 49.3495 23.1264C49.5172 23.0114 49.6322 22.8376 49.7387 22.6651C50.2771 21.7999 50.7201 20.8797 51.1618 19.9607C51.376 19.514 51.595 18.9976 51.4029 18.5412C51.3038 18.305 51.108 18.1239 50.9697 17.9085C50.8314 17.6932 50.7592 17.3921 50.9171 17.1902C51.0921 16.9663 51.4629 17.0006 51.6794 17.1829C51.896 17.3664 51.9976 17.6479 52.0906 17.9171C52.6792 17.189 52.6205 16.0204 51.9621 15.3559C51.7382 15.1295 51.4616 14.9619 51.2352 14.7392C51.0089 14.5164 50.8278 14.2081 50.8779 13.8936C50.9281 13.5791 51.2964 13.3209 51.5754 13.4739C51.7272 13.5571 51.8092 13.7284 51.9487 13.8312C52.2375 14.0441 52.6645 13.8862 52.9068 13.6219C53.1491 13.3576 53.28 13.0101 53.4966 12.725C53.7132 12.4398 54.0828 12.2098 54.4193 12.3334C54.8329 12.4863 54.9002 13.0921 54.6543 13.458C54.4083 13.8238 53.9727 14.0049 53.5627 14.1665C53.6618 14.7245 53.6288 15.3657 53.7279 15.9237C53.7854 16.2468 53.8833 16.6212 54.1868 16.7436C54.5172 16.8757 54.866 16.6273 55.2159 16.5649C55.6993 16.4793 56.2194 16.8133 56.343 17.2869C56.3882 17.4607 56.3772 17.6662 56.25 17.7935C56.097 17.9453 55.84 17.9244 55.6442 17.8339C55.4484 17.7421 55.2832 17.594 55.085 17.5084C54.7228 17.3518 54.2945 17.4276 53.947 17.6149C53.5994 17.8009 53.3168 18.086 53.0402 18.3662C52.9105 18.4971 52.7783 18.633 52.7098 18.8043C52.6413 18.9756 52.6535 19.1922 52.7881 19.317C53.0035 19.5177 53.362 19.3696 53.5713 19.1628C53.7805 18.956 53.9604 18.6831 54.2468 18.6122C54.505 18.5485 54.7987 18.6966 54.9002 18.9426C55.0018 19.1885 54.9002 19.5006 54.6738 19.6388C54.4683 19.7637 54.2113 19.7453 53.9714 19.7673C53.7316 19.7894 53.4599 19.8909 53.3951 20.1222C53.318 20.3914 53.5774 20.6472 53.8429 20.7377C54.1085 20.8283 54.4046 20.8295 54.6506 20.9629C54.8966 21.0975 55.0569 21.4585 54.8574 21.6555C54.7436 21.7681 54.5588 21.7754 54.4083 21.724C54.2566 21.6726 54.1281 21.5723 53.9947 21.4866C53.1026 20.9127 51.841 20.991 51.026 21.6702C50.851 21.8158 50.6834 22.0336 50.7482 22.2514C50.8167 22.4791 51.0896 22.5623 51.3234 22.61C52.0098 22.7507 52.7404 22.8902 53.3963 22.643C53.5847 22.5721 53.7854 22.468 53.9776 22.5292C54.2578 22.6173 54.3251 23.0065 54.2027 23.272C54.0277 23.6538 53.5566 23.8704 53.1528 23.7554C52.8297 23.6636 52.4797 23.3932 52.202 23.5816C51.9768 23.7346 52.0037 24.0637 52.0123 24.3354C52.0209 24.6071 51.8985 24.9595 51.6268 24.946C51.4555 24.9375 51.3319 24.7723 51.2854 24.6071C51.2389 24.4419 51.2438 24.2657 51.1961 24.1017C51.0652 23.6599 50.5598 23.4091 50.1009 23.4458C49.642 23.4825 49.2308 23.7456 48.8833 24.0478C48.63 24.2681 48.3987 24.5141 48.1687 24.7588C47.9337 25.0084 47.6975 25.2593 47.4626 25.5089C47.3268 25.6533 47.4638 26.0033 47.6327 26.1061C47.8028 26.2089 48.0255 26.1905 48.2017 26.1C48.3779 26.0082 48.5125 25.854 48.6251 25.69C48.7254 25.542 48.8123 25.3841 48.9359 25.2544C49.0595 25.1259 49.2321 25.028 49.4095 25.0464C49.6053 25.0672 49.7656 25.2287 49.8255 25.4159C49.8843 25.6032 49.8549 25.8087 49.7876 25.9923C49.6689 26.3117 49.434 26.587 49.1354 26.7522C49.035 26.8085 48.9151 26.8672 48.8906 26.9798C48.8649 27.101 48.9739 27.216 49.0926 27.2466C49.2125 27.2772 49.3373 27.2478 49.4597 27.2258C49.5808 27.2038 49.713 27.1903 49.8219 27.2478C49.9675 27.3249 50.0262 27.5121 50.003 27.6761C49.9797 27.8401 49.8451 28.2219 49.757 28.3614L41.0908 28.3247Z"
      fill="#2965BC"
    />
<path
      d="M10.4648 15.8594C10.4844 15.8838 10.5077 15.9047 10.5321 15.9218C10.5162 15.8973 10.4942 15.8753 10.4648 15.8594Z"
      fill="#D277A5"
    />
<path
      d="M17.6982 16.8998C17.3299 16.8631 17.0803 17.1335 16.7695 17.2571C16.5247 17.3538 16.1723 17.306 16.1001 17.0527C16.0573 16.9022 16.1307 16.7248 15.9814 16.6049C15.859 16.507 15.6791 16.5278 15.569 16.6379C15.2398 16.9659 15.4613 17.4578 15.1456 17.7943C15.0183 17.9301 14.8079 17.9485 14.6867 17.8078C14.5411 17.6389 14.6757 17.3966 14.7785 17.2057C14.8788 17.0185 14.8997 16.7138 14.6941 16.6624C14.5619 16.6293 14.4383 16.7382 14.3037 16.7652C14.0345 16.819 13.8179 16.54 13.7237 16.2818C13.474 15.6014 13.5548 14.8072 13.9501 14.1966C14.0553 14.0339 14.0737 13.8222 13.966 13.6606C13.7702 13.3682 13.4226 13.5358 13.2501 13.7598C13.1057 13.947 13.0103 14.1819 12.812 14.3129C12.7007 14.3863 12.5416 14.3924 12.4229 14.3422C12.3287 14.3019 12.2222 14.3643 12.2185 14.4671C12.1989 15.0006 12.4131 15.5427 12.7986 15.9135C12.8255 15.9392 12.8035 15.9857 12.7667 15.9808L12.5257 15.9526C12.3923 15.9367 12.3042 16.0897 12.3874 16.1961C12.9319 16.8949 13.3358 17.7282 13.2734 18.6019C13.2085 19.4928 12.675 20.276 12.183 21.0151C12.1329 21.0909 12.0594 21.1533 11.9726 21.1803C11.7352 21.2525 11.5969 21.0334 11.5088 20.8438C11.2224 20.227 10.9838 19.5882 10.7941 18.936C10.7403 18.75 10.7954 18.542 10.9471 18.4208C11.2188 18.203 11.5492 18.4551 11.7976 18.6582C11.9762 18.8038 12.2516 18.9189 12.4425 18.8491C12.533 18.8161 12.5661 18.7023 12.5085 18.624L12.3103 18.3499C12.5661 18.2532 12.8402 18.1406 12.9405 17.8616C13.0029 17.6891 12.9332 17.4871 12.7631 17.4186C12.462 17.2987 12.2063 17.7184 11.8832 17.7588C11.6556 17.787 11.4549 17.623 11.2383 17.5447C11.023 17.4676 10.6938 17.5679 10.7244 17.7955C10.4038 17.6609 10.3818 17.1824 10.5824 16.8998C10.7844 16.6171 11.1196 16.469 11.4195 16.2928C11.7792 16.0811 12.139 15.7532 12.0325 15.2943C11.9689 15.0202 11.7082 14.8697 11.4537 14.9884C11.1661 15.123 11.2237 15.5097 11.0279 15.7226C10.9385 15.8192 10.8003 15.8572 10.6706 15.8388C10.5959 15.8278 10.5335 15.8866 10.5213 15.9612C10.5017 16.0872 10.4099 16.2121 10.2814 16.2378C10.0477 16.2843 9.8213 16.0811 9.76134 15.8511C9.70138 15.621 9.76746 15.3763 9.85067 15.1536C9.93389 14.9296 10.0342 14.7069 10.0477 14.4695C10.0697 14.0743 9.85924 13.6203 10.1089 13.3131C10.2802 13.1014 10.5922 13.0769 10.8639 13.0941C11.1931 13.1149 11.5516 13.165 11.8037 12.902C11.9346 12.7649 11.9542 12.5459 11.8245 12.4076C11.5932 12.1604 11.1906 12.4724 10.974 12.2693C10.777 12.0845 10.9642 11.6648 10.7305 11.5277C10.5225 11.4066 10.3108 11.6807 10.2312 11.9071C10.1517 12.1347 9.97182 12.4198 9.74911 12.328C9.51783 12.2338 9.57167 11.8312 9.29022 11.7651C9.13236 11.7284 8.97818 11.8275 8.91332 11.9756C8.79829 12.235 8.91332 12.4994 9.00265 12.7502C9.30735 13.6129 9.31837 14.5772 9.03324 15.4472C8.7212 15.0618 8.50094 14.6029 8.39203 14.1195C8.36021 13.9776 8.15585 13.98 8.13505 14.1232C8.10935 14.2921 8.11547 14.4891 8.14239 14.6739C8.15585 14.7644 8.03593 14.8085 7.98576 14.7326C7.89888 14.5992 7.81811 14.4817 7.76794 14.445C7.61253 14.33 7.39594 14.4622 7.42408 14.6531C7.49873 15.1585 7.86094 15.632 8.23172 16.0138C8.71263 16.5057 9.26942 17.0075 9.37833 17.6866C8.71998 17.3195 8.06163 16.9512 7.40328 16.5841C7.25276 16.5008 7.09368 16.6722 7.18424 16.8178C7.6627 17.5838 8.45321 18.1565 9.33794 18.3486C9.21924 18.9152 9.61083 19.5393 10.1725 19.6788C10.3463 19.7216 10.5372 19.7265 10.6828 19.8305C10.8284 19.9345 10.8725 20.1976 10.7097 20.2735C10.6167 20.0361 10.2594 19.959 10.0771 20.1377C9.97794 20.2344 9.95346 20.3861 9.99018 20.5182C10.0208 20.6308 9.9241 20.7361 9.80907 20.7214C9.65611 20.7018 9.50192 20.681 9.34896 20.6614C9.22904 20.6455 9.13236 20.7593 9.16785 20.8743C9.22659 21.0665 9.39179 21.2317 9.58146 21.3149C9.84578 21.4311 10.1468 21.4226 10.4356 21.4164C10.7244 21.4103 11.0266 21.4115 11.2848 21.5413C11.5773 21.6881 11.7902 22.0515 11.6079 22.3526C11.4757 22.5704 11.2114 22.6267 11.034 22.4456C10.8933 22.3024 10.9459 22.098 10.9067 21.9194C10.8725 21.7664 10.684 21.6196 10.5702 21.7273C10.5837 21.8814 10.5971 22.0369 10.6106 22.191C10.6192 22.2963 10.5286 22.3844 10.4246 22.3709C10.3389 22.3599 10.2533 22.3501 10.1676 22.3391C10.0085 22.3195 9.91675 22.5129 10.0318 22.6255C10.2178 22.8066 10.4405 22.9522 10.6816 23.0501C10.826 23.1088 10.7905 23.323 10.6351 23.334C10.3438 23.3548 10.0477 23.3242 9.76624 23.2459C9.59982 23.1994 9.48112 23.4086 9.60716 23.5261C9.77236 23.6815 10.0061 23.7855 10.2325 23.8308C10.6253 23.9103 11.0389 23.8773 11.4182 24.0033C11.7988 24.1294 12.1512 24.5014 12.0533 24.8893C12.0105 25.0582 11.8894 25.205 11.8832 25.3788C11.8722 25.6553 12.1476 25.8523 12.2565 26.1069C12.4131 26.4728 12.1757 26.9268 11.8135 27.0907C11.4513 27.2559 11.0144 27.1788 10.6657 26.9867C10.3328 26.8032 10.0232 26.4067 10.3145 26.0543C10.4013 25.949 10.3903 25.7985 10.2692 25.7349C10.1505 25.6712 10.0563 25.7936 9.96081 25.8646C9.73565 26.0322 9.382 25.9001 9.25229 25.6517C9.12257 25.4032 9.17519 25.0937 9.30613 24.8452C9.43951 24.5919 9.64876 24.379 9.68303 24.0792C9.69526 23.9691 9.67446 23.8553 9.61328 23.7635C9.41748 23.4698 9.0308 23.6093 8.88028 23.8602C8.75546 24.0682 8.75057 24.3239 8.74812 24.5662C8.13627 24.3949 7.8536 23.5298 8.24885 23.0305C8.3651 22.8837 8.52174 22.7723 8.63677 22.623C8.75179 22.4749 8.81787 22.262 8.72242 22.1005C8.51807 22.0846 8.31371 22.0687 8.10935 22.054C8.57436 21.5914 7.55379 20.648 8.25987 20.2368C8.32839 20.1964 8.40304 20.1683 8.47891 20.1499C8.66981 20.1022 8.9329 19.9872 8.96594 19.7693C8.99286 19.5907 8.73221 19.4218 8.6282 19.5699C8.74812 19.1722 8.38835 18.8063 8.0653 18.5469C7.73245 18.2789 7.39961 18.0109 7.06676 17.7441C6.91992 17.6266 6.71311 17.7918 6.79999 17.9595C6.84649 18.05 6.91257 18.1333 6.986 18.1993C7.17689 18.3707 7.42041 18.4979 7.544 18.7231C7.6676 18.9482 7.56358 19.3178 7.30661 19.3141C7.20626 19.3129 7.10102 19.2542 7.01537 19.3508C6.96397 19.4084 6.95051 19.4903 6.97009 19.565C7.10714 20.0985 7.24542 20.6321 7.38247 21.1656C7.40695 21.2598 7.3837 21.3638 7.30905 21.4275C7.16466 21.551 7.00313 21.4213 6.9089 21.2928C6.46715 20.6896 6.43533 19.811 6.85751 19.1869C6.94072 19.0633 6.986 18.914 6.96642 18.7659C6.90768 18.3242 6.36436 18.3951 6.09882 18.1333C5.94708 17.984 5.91404 17.7564 5.85163 17.5532C5.78188 17.3281 5.62035 17.0846 5.36827 17.1237C5.17003 17.1543 5.04276 17.3464 5.05255 17.5471C5.07213 17.9534 5.40131 18.1834 5.60322 18.4918C5.76352 18.7365 5.81492 19.1147 5.5763 19.2848C5.27771 19.297 5.07825 18.9654 5.04643 18.668C5.01584 18.3707 5.07947 18.0611 4.9877 17.7759C4.8947 17.492 4.53126 17.262 4.29876 17.4492C4.29998 17.9044 4.35994 18.3131 4.35994 18.7671C3.38221 17.8481 2.13403 17.2216 0.81244 16.9867C0.726781 16.9707 0.637451 16.972 0.55424 17.0001C0.232407 17.1102 0.322961 17.4823 0.537108 17.6279C0.708426 17.7453 0.927468 17.76 1.13427 17.7857C2.47055 17.9473 3.72362 18.6974 4.49944 19.7963C4.19107 19.5809 3.8827 19.3655 3.57555 19.1489C3.48867 19.0877 3.3871 19.0229 3.27697 19.0877C3.18519 19.1416 3.15827 19.2615 3.19987 19.3582C3.28186 19.5503 3.48867 19.598 3.67589 19.6335C3.73096 19.7938 3.42626 19.8501 3.31246 19.7265C3.26473 19.6739 3.21089 19.6249 3.14848 19.5919C2.79728 19.4022 2.69938 19.8097 2.86091 19.981C2.98328 20.112 3.17907 20.1377 3.35773 20.1511C3.93899 20.1952 4.53738 20.1927 5.08315 20.3995C5.62892 20.6064 6.12084 21.0885 6.12818 21.6722C5.94096 21.4189 5.72681 21.1472 5.41966 21.0775C5.0758 20.9992 4.63772 21.3577 4.8898 21.6893C4.93875 21.753 4.96445 21.8362 4.94242 21.9133C4.89592 22.0748 4.69401 22.0369 4.54227 22.0381C4.3991 22.0393 4.24247 22.2314 4.36973 22.2951C4.42724 22.5459 4.77477 22.6022 5.01462 22.5068C5.25324 22.4113 5.45515 22.2241 5.70601 22.1702C6.16245 22.0736 6.57483 22.4382 6.89789 22.7735C6.71434 22.8947 6.50386 22.9742 6.28726 23.0085C6.19671 23.0232 6.15878 23.1308 6.22363 23.1945C6.35334 23.323 6.45614 23.4784 6.52221 23.6485C5.79534 23.8063 5.00238 23.6154 4.42724 23.1431C3.93776 22.7417 3.73218 22.2082 3.69058 21.5988C3.68568 21.5241 3.58901 21.4984 3.54741 21.5608C3.51681 21.6073 3.48622 21.6526 3.46175 21.7028C3.42993 21.7689 3.34305 21.7909 3.2892 21.7407C2.78259 21.2794 2.79483 20.3237 2.32738 19.8709C2.23315 19.7791 2.07407 19.8623 2.09243 19.9933C2.10589 20.0948 2.11935 20.1964 2.13281 20.2992C1.91989 20.2172 1.68983 20.1793 1.46222 20.1842C1.27745 20.1891 1.19668 20.4204 1.33374 20.5439C1.7914 20.9514 2.24906 21.3589 2.7055 21.7664C2.87682 21.9194 3.06404 22.1139 3.02733 22.3403C2.99307 22.5447 2.77892 22.7282 2.85724 22.9191C2.91475 23.0599 3.09341 23.0966 3.21945 23.181C3.34549 23.2654 3.37731 23.5188 3.22435 23.5249C2.92944 23.3609 2.60638 23.1908 2.2613 23.3254C2.0753 23.3976 1.9517 23.5885 1.98841 23.7843C2.04715 24.1 2.44241 24.1649 2.75323 24.1698C2.54887 24.2065 2.51583 24.5283 2.67613 24.6605C2.83644 24.7926 3.07995 24.7608 3.26106 24.6592C3.44217 24.5577 3.58289 24.3986 3.74809 24.2738C4.20698 23.925 4.83229 23.8565 5.39886 23.9605C5.96666 24.0645 6.49162 24.3227 7.00925 24.5773C6.85017 25.0765 6.38027 25.462 5.86019 25.5207C5.65584 25.544 5.44658 25.5219 5.24712 25.5733C5.04888 25.6247 4.85309 25.7838 4.85554 25.9894C4.85676 26.195 5.16024 26.3467 5.28138 26.1803C5.20919 26.6502 4.73806 27.0234 4.26449 26.9867C4.09685 26.9733 3.92798 26.917 3.764 26.9928C3.6918 27.0259 3.63551 27.092 3.62572 27.1703C3.60002 27.3967 3.93287 27.4321 3.93899 27.623C3.94388 27.7784 3.71628 27.8666 3.78725 28.0526C3.83497 28.1786 3.98304 28.2386 4.11153 28.1957C4.36851 28.1101 4.4407 27.8458 4.56185 27.6316C4.66342 27.4505 4.869 27.2804 5.06112 27.3587C4.9412 27.448 5.02318 27.6671 5.1688 27.6977C5.31442 27.7283 5.46004 27.6206 5.52857 27.4884C5.5971 27.3563 5.60811 27.2033 5.63259 27.0552C5.67297 26.8056 5.75373 26.5547 5.91893 26.3626C6.08413 26.1717 6.34723 26.0506 6.59441 26.1032C6.78409 26.1436 6.97743 26.2806 7.15242 26.1252C7.25888 26.0298 7.29926 25.8793 7.265 25.7398C7.2136 25.5354 7.19403 25.1328 7.44611 25.0655C7.71777 25.5574 7.98943 26.0494 8.25987 26.5413C7.9931 26.4336 7.69329 26.3247 7.4302 26.4972C7.2907 26.589 7.22951 26.7713 7.30538 26.9194C7.44244 27.1825 7.84626 27.021 7.98331 27.24C8.12771 27.4701 7.79976 27.8702 8.04572 28.0012C8.17665 28.0709 8.33574 28.0048 8.40426 27.8739C8.649 27.4064 9.28165 27.4505 9.65121 27.7515C9.85924 27.9204 10.0036 28.1456 10.1248 28.3878H15.0135C14.5998 27.9179 14.1446 27.1287 14.1434 26.7909C14.1422 26.5682 14.2682 26.3528 14.2352 26.1326C14.2021 25.9123 13.8399 25.7716 13.7787 25.9857C13.5205 25.7385 13.7102 25.2846 13.9953 25.068C14.3612 24.7902 14.8642 24.6776 15.0147 24.1673C15.093 23.9018 14.9315 23.6411 14.6549 23.6277C14.3833 23.6142 14.2291 23.8981 14.07 24.1098C13.9158 24.3154 13.5707 24.4659 13.4312 24.2493C13.556 23.7378 12.8389 23.2275 13.2342 22.7503C13.3419 22.6206 13.5022 22.5459 13.6698 22.5276L15.6559 22.3122C15.8162 22.2951 16.001 22.2632 16.0732 22.1115C16.1025 22.0479 16.0989 21.9732 16.0707 21.9096C16.0389 21.8386 16.0034 21.7872 15.9655 21.7493C15.9031 21.6881 15.9092 21.5914 15.9753 21.5339C16.0169 21.4972 16.0536 21.4532 16.0854 21.3981C16.1723 21.2427 16.1258 21.0371 15.9655 20.9612C15.8101 20.8866 15.6571 20.9833 15.5237 21.0689C15.0673 21.3577 14.557 21.5608 14.0272 21.6661C13.753 21.7199 13.4386 21.7407 13.2501 21.4788C13.1583 21.3504 13.1277 21.1888 13.1449 21.0322C13.1767 20.7287 13.3615 20.4791 13.5413 20.2405C13.7237 19.9982 13.9109 19.751 14.1654 19.5858C14.42 19.4206 14.7589 19.3521 15.0281 19.4916C15.2325 19.5968 15.3744 19.8073 15.6229 19.8342C15.7477 19.8477 15.8749 19.7816 15.9068 19.6604C15.9471 19.5087 15.8125 19.3888 15.7367 19.2591C15.536 18.914 15.7917 18.4502 16.1539 18.2838C16.3938 18.1736 16.6581 18.1565 16.9249 18.1724C17.0191 18.1773 17.0876 18.0965 17.0791 18.0023C17.0742 17.9522 17.084 17.9008 17.1121 17.8592C17.2173 17.7013 17.4266 17.6621 17.6114 17.6169C17.8145 17.5679 18.047 17.4602 18.0458 17.2338C18.0286 17.054 17.8757 16.9169 17.6982 16.8998Z"
      fill="#D277A5"
    />
<path
      d="M14.998 24.9336L14.5 28.464L16.9339 28.4835C16.9339 28.4835 18.3302 27.0273 18.2898 26.9674C18.2494 26.9074 16.874 25.3521 16.874 25.3521L14.998 24.9336Z"
      fill="#96484E"
    />
<path
      d="M15.7556 23.2763C15.7556 23.2763 15.8352 23.5162 15.5562 23.5553C15.2772 23.5957 14.7779 23.5749 14.6592 23.9542C14.5393 24.3336 14.9382 24.8524 14.9382 25.1314C14.9382 25.4104 14.7192 26.4273 15.0373 26.5681C15.3567 26.7076 16.2941 26.2695 16.5327 26.349C16.7725 26.4286 17.3905 27.5262 17.8885 27.4858C18.3878 27.4454 18.6068 27.3268 18.646 27.1664C18.6864 27.0074 18.7855 26.1092 19.1441 25.9501C19.5026 25.791 20.0422 25.8106 20.0422 25.4312C20.0422 25.0519 19.8624 25.0127 19.9223 24.6934C19.9823 24.374 20.1622 23.5162 19.5834 23.2971C19.0046 23.0781 18.7451 23.7364 17.9877 23.4562C17.2302 23.1772 17.0895 22.279 16.4323 22.4993C15.7764 22.7183 15.6969 22.6388 15.7556 23.2763Z"
      fill="#D36D66"
    />
<path
      d="M16.2743 25.2139C16.2339 25.1539 15.5964 24.416 16.3746 24.0771C17.1529 23.7381 18.6091 24.0367 18.7278 24.755C18.8477 25.4733 18.3289 25.9921 17.4711 25.8722C16.6133 25.7523 16.2743 25.2139 16.2743 25.2139Z"
      fill="#96484E"
    />
<path
      d="M12.1706 28.4021L13.42 25.3893L11.8843 24.332L10.6875 25.4688L10.9506 28.4008L12.1706 28.4021Z"
      fill="#467F49"
    />
<path
      d="M10.2719 24.1053C10.3368 24.2545 10.4531 24.372 10.5864 24.465C10.6537 24.5127 10.7186 24.6021 10.7088 24.7722C10.6892 25.1111 10.4494 25.4905 10.8887 25.57C11.328 25.6496 11.6266 24.9117 11.9851 24.9912C12.3437 25.0707 12.7634 25.909 13.3214 25.6092C13.8794 25.3094 13.5013 24.4528 13.8207 24.2533C14.1401 24.0539 14.818 23.754 14.4986 23.316C14.1792 22.8767 13.5808 23.196 13.5013 22.758C13.4217 22.3187 13.6408 22.0996 13.2223 22.0996C12.8038 22.0996 12.8038 22.6576 12.2849 22.5389C11.7661 22.419 11.5666 21.9601 11.2081 22.1804C10.8495 22.3994 11.0686 22.9586 10.8287 23.1177C10.5889 23.2768 10.2707 23.1777 10.19 23.5766C10.1532 23.7589 10.2046 23.9511 10.2719 24.1053Z"
      fill="#92CC92"
    />
<path
      d="M11.6719 23.0437C11.5103 23.1245 11.3904 23.2738 11.3047 23.4329C11.1958 23.6372 11.1395 23.9016 11.2741 24.09C11.3598 24.2099 11.5054 24.2723 11.6474 24.3115C12.0916 24.4339 12.5823 24.3874 12.9947 24.1818C13.1476 24.1059 13.2945 24.0043 13.3875 23.8612C13.4817 23.718 13.5135 23.5259 13.4364 23.3741C13.3752 23.253 13.2553 23.171 13.1268 23.1282C12.9983 23.0841 12.8625 23.0743 12.7279 23.0645C12.6508 23.0584 11.6719 22.9458 11.6719 23.0437Z"
      fill="#467F49"
    />
<path
      d="M55.4347 28.3325C55.4347 28.3325 56.7441 22.5015 56.5226 17.3767C56.3011 12.2518 54.7115 4.56335 52.2372 5.44686C49.7629 6.33037 51.7954 11.2349 52.8111 14.6368C53.8268 18.0387 54.1364 23.4744 54.0923 25.3736C54.0483 27.274 54.0483 28.3337 54.0483 28.3337L55.4347 28.3325Z"
      fill="#58BDAC"
    />
<path
      d="M54.7109 28.3333L56.522 28.2893C56.522 28.2893 59.0844 22.0594 58.9963 14.9461C58.9082 7.8327 58.0688 3.76758 56.1684 3.76758C54.268 3.76758 55.3203 9.03805 55.7707 14.4162C56.3899 21.7939 54.7109 28.3333 54.7109 28.3333Z"
      fill="#90E493"
    />
<path
      d="M51.7008 28.3416L52.8609 28.3501C52.8609 28.3501 51.5038 18.8934 51.6457 11.8131C51.7889 4.73277 53.261 1.88156 52.216 0.408225C51.1709 -1.06511 49.7086 1.59766 49.2693 6.01521C48.5094 13.6658 51.7008 28.3416 51.7008 28.3416Z"
      fill="#90E493"
    />
<path
      d="M50.6145 28.3417C50.6145 28.3417 50.136 20.3338 48.068 16.3617C45.9999 12.3896 44.0591 12.5217 43.7875 13.5729C43.517 14.624 46.3707 16.3531 47.7364 19.8358C49.485 24.2949 49.7836 28.3405 49.7836 28.3405H50.6145V28.3417Z"
      fill="#90E493"
    />
<path
      d="M23.2808 28.33C23.1596 28.024 22.8672 27.8686 22.5784 27.7108C22.2908 27.5529 21.9775 27.4403 21.6985 27.2678C21.4195 27.094 21.1662 26.8432 21.094 26.5226C21.0218 26.202 21.1895 25.8165 21.5076 25.7333C21.7866 25.6611 22.0767 25.8324 22.2578 26.0563C22.4389 26.2803 22.5478 26.5532 22.7081 26.7918C22.8145 26.9496 22.9797 27.105 23.1657 27.072C23.3334 27.0426 23.4374 26.8725 23.4827 26.7086C23.6467 26.1163 23.2955 25.48 22.8035 25.1116C22.3104 24.7433 21.6998 24.5806 21.1099 24.4043C20.5213 24.2281 19.9156 24.0152 19.4824 23.5783C19.4041 23.4988 19.327 23.3997 19.3392 23.2883C19.3552 23.1354 19.5399 23.0485 19.6917 23.0717C19.8446 23.0962 19.9731 23.1941 20.1028 23.2773C20.2325 23.3605 20.3843 23.4352 20.536 23.4034C20.5813 23.0558 20.2117 22.8197 19.9866 22.5504C19.7137 22.2225 19.6378 21.7416 19.7981 21.3463C19.874 21.1603 20.0062 20.9878 20.1934 20.9144C20.3806 20.8422 20.6229 20.8972 20.7232 21.071C20.8126 21.2264 20.7697 21.421 20.7269 21.5947C20.6841 21.7685 20.6449 21.9655 20.7392 22.1173C20.8334 22.2702 21.1197 22.2837 21.1601 22.1087C21.1736 22.0499 21.1552 21.9839 21.1821 21.93C21.2384 21.8113 21.4391 21.875 21.4807 21.9998C21.5223 22.1246 21.4673 22.2568 21.4342 22.384C21.3106 22.8478 21.4697 23.3532 21.7585 23.7374C22.0473 24.1217 22.4499 24.4019 22.8635 24.6466C23.0874 24.78 23.3982 24.8963 23.5843 24.7139C23.7813 24.5206 23.643 24.1902 23.4974 23.9552C22.6273 22.5602 21.756 21.164 20.886 19.769C20.651 19.3933 20.3977 18.9993 20.0037 18.7974C19.814 18.7007 19.5974 18.6542 19.3845 18.664C19.1863 18.6738 18.9734 18.7288 18.7971 18.6358C18.594 18.5294 18.5316 18.2308 18.6601 18.0411C18.7886 17.8514 19.07 17.7927 19.2732 17.8979C19.4004 17.964 19.5081 18.0876 19.6513 18.0974C19.8397 18.1096 19.9854 17.9077 19.9854 17.7193C19.9854 17.5308 19.8838 17.3583 19.7859 17.198C19.2279 16.2802 18.6087 15.3172 17.9883 14.4385C18.0862 14.255 18.3689 14.3003 18.5365 14.4239C18.7041 14.5475 18.8473 14.7298 19.0541 14.7567C19.2854 14.7873 19.4959 14.6013 19.6011 14.392C19.7051 14.1828 19.7382 13.9454 19.8275 13.7288C19.9156 13.5122 20.0881 13.3017 20.3219 13.2809C20.5764 13.2577 20.8077 13.4865 20.8456 13.7386C20.8836 13.9919 20.7661 14.2464 20.5948 14.4373C20.4626 14.5842 20.295 14.7053 20.2093 14.8827C20.1224 15.0602 20.164 15.3245 20.3512 15.3845C20.5495 15.4481 20.8052 15.2584 20.9557 15.404C21.0647 15.5105 20.9961 15.7039 20.8799 15.8017C20.7636 15.8996 20.6094 15.9486 20.5005 16.0551C20.3916 16.1615 20.3549 16.372 20.4858 16.4503C20.5764 16.5054 20.7 16.4662 20.7918 16.5188C20.9533 16.6106 20.8762 16.8505 20.8383 17.0316C20.7245 17.5724 21.1626 18.0595 21.5639 18.44C21.6557 18.5269 21.7683 18.6211 21.8931 18.5979C22.0265 18.5734 22.0975 18.4266 22.1232 18.2932C22.1746 18.0277 22.1256 17.7535 22.1354 17.4831C22.1452 17.2127 22.237 16.9153 22.4731 16.7844C22.7105 16.6534 23.0874 16.826 23.0519 17.094C23.025 17.291 22.8048 17.4733 22.9002 17.6471C22.9651 17.7658 23.1339 17.7719 23.2661 17.7376C23.397 17.7034 23.5353 17.6459 23.6626 17.6911C23.8388 17.7535 23.8975 17.9958 23.8155 18.1647C23.7335 18.3336 23.5561 18.4339 23.3774 18.4927C23.2 18.5514 23.0116 18.5771 22.839 18.6517C22.4487 18.8182 22.1868 19.222 22.1317 19.6429C22.0767 20.0639 22.2076 20.4946 22.4364 20.8532C22.609 21.1248 22.921 21.383 23.2233 21.2717C23.4191 21.1983 23.5316 20.989 23.5683 20.7834C23.6051 20.5778 23.5806 20.3674 23.594 20.1593C23.6087 19.9207 23.6858 19.665 23.8865 19.534C24.086 19.4031 24.4213 19.49 24.458 19.7249C24.4984 19.977 24.201 20.2328 24.3246 20.4555C24.4996 20.7749 25.1286 20.3894 25.3195 20.7002C25.4014 20.8324 25.3268 21.0135 25.2069 21.1126C25.087 21.2117 24.9328 21.257 24.7933 21.3255C24.4151 21.5115 24.1398 21.8921 24.0798 22.3081C24.0517 22.5076 24.1068 22.7597 24.3001 22.8135C24.4678 22.86 24.6268 22.7267 24.7627 22.6177C24.8985 22.5088 25.1004 22.4146 25.235 22.526C25.3464 22.6165 25.3317 22.7989 25.2522 22.9176C25.1726 23.0362 25.0466 23.1146 24.9377 23.2088C24.5816 23.5147 24.4139 23.9932 24.387 24.4619C24.3601 24.9305 24.4592 25.3955 24.5571 25.8532C24.6097 26.0967 24.7064 26.3243 24.7284 26.5715C24.7517 26.8187 24.7994 27.0891 24.9891 27.2494C25.1787 27.4097 25.5483 27.3486 25.5826 27.1026C25.5911 27.0377 25.5764 26.9729 25.5617 26.9093C25.4076 26.2448 25.2522 25.5803 25.098 24.9171C25.4761 24.8559 25.8762 25.1312 25.9558 25.5044C25.9876 25.6562 25.9729 25.814 25.9974 25.967C26.0219 26.12 26.1014 26.2815 26.2482 26.3317C26.4098 26.388 26.5958 26.279 26.6704 26.1249C26.7451 25.9707 26.7292 25.7871 26.6802 25.6231C26.4771 24.9403 25.7734 24.5047 25.5458 23.8292C25.4895 23.6616 25.4663 23.4694 25.552 23.3153C25.6376 23.1611 25.8616 23.0791 25.9986 23.1892C26.1895 23.3434 26.1234 23.7521 26.3669 23.7888C26.5248 23.8121 26.6337 23.6273 26.6484 23.4682C26.6631 23.3091 26.6337 23.1354 26.7194 23.0008C26.8662 22.7695 27.2602 22.8454 27.3997 23.0815C27.538 23.3177 27.4854 23.62 27.3863 23.8745C27.2859 24.129 27.1428 24.3725 27.1073 24.6442C27.0706 24.9158 27.1831 25.2365 27.4426 25.3221C27.6775 25.4004 27.9394 25.2524 28.0728 25.0443C28.2062 24.8363 28.2404 24.5818 28.2722 24.337C28.3151 24.0042 28.3579 23.6701 28.4007 23.3373C28.4374 23.0485 28.4742 22.7475 28.375 22.4746C28.156 21.8688 27.4095 21.6682 26.9433 21.224C26.7414 21.0306 26.5835 20.7602 26.619 20.4836C26.6545 20.2058 26.947 19.9599 27.2113 20.0529C27.6127 20.1924 27.6225 20.9033 28.0434 20.9572C28.1817 20.0896 27.9259 19.1669 27.3594 18.4963C27.1978 18.3054 27.0131 18.1329 26.8846 17.9187C26.7561 17.7046 26.6924 17.4317 26.7977 17.2053C26.9029 16.9789 27.2199 16.8529 27.4181 17.0046C27.5796 17.1282 27.598 17.3595 27.6543 17.5553C27.7093 17.7511 27.888 17.9628 28.0789 17.8918C28.2588 17.652 28.2563 17.3277 28.2992 17.0316C28.3408 16.7342 28.4815 16.4001 28.7727 16.3328C29.1496 16.2447 29.4641 16.7036 29.4091 17.0866C29.354 17.4696 29.0762 17.7756 28.84 18.0827C28.6039 18.3886 28.3885 18.7704 28.4852 19.1449C28.5219 19.2881 28.6137 19.4263 28.7532 19.4765C29.0077 19.5695 29.3466 19.3566 29.5412 19.545C29.677 19.6772 29.6232 19.9121 29.5082 20.0639C29.3944 20.2156 29.2316 20.3319 29.1484 20.502C28.9722 20.8581 29.201 21.268 29.3418 21.64C29.54 22.1638 29.5608 22.7511 29.4029 23.2883C29.3577 23.4425 29.2965 23.5943 29.2879 23.7546C29.2793 23.9149 29.3344 24.0911 29.4715 24.1743C29.611 24.2599 29.7982 24.2257 29.9328 24.1339C30.0674 24.0421 30.1604 23.9014 30.2473 23.7619C30.6817 23.0644 31.0378 22.3228 31.3939 21.5837C31.5664 21.224 31.7426 20.8079 31.5885 20.4408C31.5089 20.2499 31.3511 20.1043 31.2397 19.9305C31.1284 19.7567 31.0708 19.5144 31.1981 19.3517C31.3388 19.1718 31.6374 19.1987 31.8124 19.3468C31.9874 19.4949 32.0694 19.7213 32.144 19.9378C32.6176 19.3517 32.5699 18.4107 32.04 17.8747C31.8601 17.6924 31.6374 17.5578 31.4551 17.3779C31.2727 17.198 31.1271 16.9496 31.1675 16.6975C31.2079 16.4442 31.504 16.2362 31.7292 16.3585C31.8516 16.4258 31.9176 16.5641 32.0302 16.6461C32.2627 16.8174 32.6066 16.6902 32.8024 16.4772C32.9982 16.2643 33.1034 15.9841 33.2772 15.7552C33.4522 15.5252 33.7495 15.3404 34.0212 15.4395C34.354 15.5631 34.4079 16.0502 34.2096 16.3451C34.0114 16.64 33.6602 16.7856 33.331 16.9153C33.4105 17.3644 33.3836 17.8808 33.4644 18.3299C33.5109 18.5893 33.5892 18.8916 33.8339 18.9895C34.0995 19.0959 34.3809 18.8953 34.6636 18.8463C35.0527 18.7778 35.4713 19.0458 35.5716 19.4276C35.6083 19.5671 35.5997 19.7335 35.497 19.8351C35.3734 19.9574 35.1666 19.9415 35.0087 19.8669C34.8508 19.7934 34.7175 19.6735 34.5584 19.605C34.2671 19.479 33.9221 19.5401 33.6418 19.6907C33.3616 19.8412 33.134 20.07 32.9113 20.2964C32.8073 20.4016 32.7008 20.5105 32.6457 20.6488C32.5907 20.7871 32.6005 20.9609 32.7094 21.0624C32.8831 21.224 33.1719 21.1053 33.3408 20.9388C33.5097 20.7724 33.6541 20.5521 33.8853 20.4959C34.0934 20.4445 34.3295 20.5644 34.4115 20.7614C34.4935 20.9596 34.4115 21.2105 34.2292 21.3218C34.064 21.4222 33.8572 21.4075 33.6639 21.4259C33.4705 21.4442 33.2527 21.525 33.1988 21.7122C33.1364 21.93 33.3457 22.1344 33.5598 22.2078C33.774 22.28 34.0114 22.2812 34.2096 22.3889C34.4079 22.4966 34.5376 22.7878 34.3773 22.9469C34.2855 23.0375 34.1374 23.0436 34.0151 23.0032C33.8927 22.9616 33.7899 22.8808 33.6822 22.8111C32.9627 22.3498 31.947 22.4122 31.2899 22.9592C31.1492 23.0766 31.0133 23.2516 31.0659 23.4278C31.121 23.6114 31.3413 23.6787 31.5285 23.7166C32.0816 23.8304 32.6702 23.9418 33.1976 23.7423C33.3494 23.6848 33.5109 23.6016 33.6663 23.6505C33.8915 23.7215 33.9465 24.0348 33.8474 24.2489C33.7067 24.5561 33.3261 24.7311 33.0018 24.6381C32.7412 24.5634 32.4597 24.3456 32.2358 24.4986C32.0547 24.6222 32.0755 24.8877 32.0828 25.1055C32.089 25.3246 31.9911 25.6085 31.772 25.5974C31.6337 25.5901 31.5346 25.4579 31.4967 25.3246C31.4588 25.1912 31.4636 25.0492 31.4245 24.9171C31.3192 24.561 30.9118 24.3591 30.5422 24.3884C30.1726 24.4178 29.841 24.6295 29.5608 24.873C29.3564 25.0505 29.1704 25.2487 28.9844 25.4457C28.7948 25.6476 28.6051 25.8483 28.4154 26.0502C28.3065 26.1665 28.4166 26.4479 28.5525 26.5311C28.6895 26.6143 28.8694 26.5997 29.0114 26.5262C29.1533 26.4528 29.2622 26.328 29.3528 26.1958C29.4335 26.0771 29.5033 25.9487 29.6024 25.8446C29.7015 25.7406 29.841 25.6623 29.9842 25.677C30.142 25.6929 30.2718 25.8238 30.3183 25.9756C30.366 26.1261 30.3427 26.2925 30.2877 26.4406C30.1922 26.6976 30.0025 26.919 29.7627 27.0524C29.6819 27.0977 29.5853 27.1454 29.5657 27.236C29.5449 27.3327 29.6318 27.4269 29.7284 27.4514C29.8251 27.4758 29.9267 27.4526 30.0246 27.4354C30.1225 27.4171 30.2289 27.4073 30.317 27.4538C30.4345 27.5162 30.4822 27.6667 30.4627 27.7989C30.4431 27.931 30.3354 28.2382 30.2644 28.3508L23.2808 28.33Z"
      fill="#E67900"
    />
<path
      d="M45.2892 17.0077C45.2892 14.2201 43.8502 8.73553 41.7821 9.45507C39.7141 10.1746 43.581 14.3107 43.4904 16.4681C43.4011 18.6255 40.7934 21.7728 40.1632 23.661C39.5342 25.5491 39.6235 28.3367 39.6235 28.3367H39.9502C39.9466 28.0002 39.9527 27.6637 39.971 27.3272C39.9918 26.9331 40.0249 26.5403 40.0714 26.1488C40.1203 25.7572 40.1889 25.3668 40.2782 24.9801C40.3663 24.5959 40.4862 24.2067 40.6661 23.8482C41.0271 23.1311 41.5239 22.5107 41.973 21.8683C42.4258 21.2295 42.8541 20.5736 43.1845 19.87C43.5259 19.1725 43.7792 18.4321 43.9309 17.6697C44.0851 16.9074 44.1402 16.1254 44.1182 15.3472C44.0925 14.5689 43.9762 13.7906 43.7486 13.0442C43.6997 12.8545 43.6238 12.6746 43.5577 12.4911C43.5259 12.3981 43.4794 12.3124 43.4402 12.2231C43.3974 12.1362 43.3631 12.0432 43.313 11.96L43.1673 11.7054C43.1221 11.6186 43.0572 11.5439 43.0034 11.4619C42.8994 11.2943 42.7599 11.156 42.6326 11.0055C43.2138 11.5427 43.6042 12.261 43.8624 13.0075C44.1182 13.7588 44.2564 14.5469 44.3066 15.3386C44.3984 16.9233 44.0974 18.5386 43.4035 19.9764C43.0572 20.6947 42.6142 21.358 42.1529 21.998C41.6916 22.638 41.2045 23.2559 40.8325 23.9339C40.649 24.274 40.5254 24.6375 40.4263 25.0181C40.3271 25.395 40.25 25.7792 40.1876 26.1659C40.0677 26.883 39.998 27.6098 39.9576 28.3379H40.4299C40.4299 28.3379 40.4299 25.461 41.4187 23.7528C42.4123 22.042 45.2892 19.7941 45.2892 17.0077Z"
      fill="#FF57A3"
    />
<path
      d="M39.7632 21.2922C40.7544 19.2572 41.3809 16.909 40.807 15.3952C40.2331 13.8815 38.9286 12.6297 38.0941 12.943C37.2595 13.2562 39.6592 15.1346 39.7118 16.8049C39.7644 18.4753 38.668 21.5015 38.3033 23.6931C37.9374 25.8848 38.3009 28.3273 38.3009 28.3273L38.6729 28.3334C38.5689 27.1684 38.5444 25.9961 38.5334 24.8263C38.526 24.163 38.5848 23.4949 38.7169 22.8427C38.8491 22.1892 39.0535 21.5541 39.2774 20.9337C39.5038 20.3133 39.7412 19.7027 39.9211 19.0761C40.1034 18.4533 40.2233 17.8059 40.216 17.1635C40.2013 16.5198 40.0581 15.8749 39.8011 15.2765C39.5552 14.672 39.204 14.1091 38.7818 13.605C39.0167 13.8363 39.2236 14.0957 39.4108 14.3686C39.5992 14.6402 39.7681 14.9266 39.91 15.2276C40.1988 15.826 40.3738 16.4856 40.4069 17.1561C40.4277 17.4914 40.3971 17.8292 40.3518 18.1596C40.3273 18.3248 40.2943 18.4888 40.2637 18.6527C40.2233 18.8143 40.1903 18.9782 40.145 19.1385C39.9688 19.781 39.7302 20.3989 39.5087 21.0169C39.2823 21.6324 39.0816 22.2541 38.9445 22.8904C38.8026 23.5255 38.7402 24.1741 38.7243 24.8275C38.712 25.4846 38.701 26.143 38.6974 26.8001C38.6912 27.3116 38.6925 27.8219 38.7035 28.3334L38.9862 28.3383C38.9849 28.3383 38.772 23.3273 39.7632 21.2922Z"
      fill="#FF57A3"
    />
<path
      d="M46.8176 21.0178C46.5361 20.4022 45.8154 20.2799 45.4825 20.8599C45.1484 21.4399 44.9025 22.4066 44.8327 23.1617C44.763 23.9179 43.6727 24.5151 43.2505 24.6203C42.8283 24.7256 41.5104 25.0425 41.2289 26.2368C40.9475 27.4324 40.8594 28.3453 40.8594 28.3453L41.1384 28.333C41.1384 28.0002 41.1629 27.6673 41.1996 27.3345C41.2534 26.9294 41.3317 26.5219 41.4945 26.134C41.5765 25.9407 41.6817 25.7498 41.8457 25.5919L41.9093 25.5356L41.9803 25.4855C42.028 25.4549 42.0745 25.4329 42.1222 25.4059C42.1687 25.379 42.2177 25.3582 42.2666 25.3374C42.3156 25.3166 42.3633 25.2934 42.4122 25.2774C42.8051 25.1318 43.204 25.0474 43.5833 24.925C43.773 24.8651 43.9602 24.8014 44.1315 24.7133C44.3029 24.6277 44.4644 24.5212 44.5843 24.3817L44.632 24.3315L44.67 24.2752C44.6944 24.2361 44.725 24.2018 44.7446 24.159C44.7813 24.0745 44.8229 23.9938 44.8499 23.8947C44.9123 23.705 44.9649 23.5116 45.0175 23.3159C45.1203 22.9255 45.2121 22.5241 45.3724 22.1423C45.5278 21.763 45.7945 21.4044 46.1653 21.2258C45.9965 21.3408 45.8533 21.484 45.7395 21.648C45.6257 21.8119 45.5449 21.9955 45.4837 22.1852C45.3552 22.5633 45.2904 22.9622 45.2023 23.3599C45.1594 23.5594 45.1142 23.7601 45.0542 23.9571C45.0297 24.055 44.9857 24.1578 44.9416 24.2606C44.9196 24.3119 44.8853 24.356 44.856 24.4037L44.8107 24.4735L44.7556 24.5359C44.6125 24.7072 44.4265 24.8283 44.238 24.9262C44.0496 25.0266 43.8513 25.0951 43.6543 25.1587C43.259 25.2799 42.8613 25.3643 42.4893 25.494C42.4416 25.5087 42.3976 25.5283 42.3523 25.5467C42.307 25.565 42.2617 25.5821 42.2201 25.6054C42.1785 25.6274 42.132 25.647 42.0941 25.6715L42.039 25.707L41.9876 25.7498C41.8542 25.8722 41.749 26.0361 41.6646 26.2124C41.4969 26.5672 41.3941 26.96 41.3134 27.3541C41.2448 27.6759 41.1983 28.0026 41.1604 28.3318L41.6805 28.3098C41.6805 28.3098 41.7515 26.9037 42.1908 26.2185C42.6301 25.5332 44.2466 25.2346 45.0028 24.5665C45.7591 23.8983 45.2488 23.1433 45.7064 22.5107C46.1678 21.8792 47.099 21.6333 46.8176 21.0178Z"
      fill="#FF57A3"
    />
<path
      d="M42.5894 15.6444C42.1636 14.6055 41.4967 14.7388 41.3645 15.3776C41.2311 16.0164 41.5248 17.8018 41.1246 19.0805C40.7257 20.3593 39.7663 21.9305 39.7394 22.0113C39.7272 22.0468 39.6746 22.3466 39.6183 22.6708C39.8092 22.2585 40.0025 21.8485 40.202 21.4423L41.1149 19.592C41.2629 19.2849 41.4294 18.9765 41.5309 18.6669C41.6362 18.3512 41.6986 18.0159 41.7549 17.6794C41.8075 17.3429 41.8479 17.0027 41.8797 16.66C41.9164 16.3186 41.936 15.9748 41.9592 15.6309C42.0118 16.3186 42.0167 17.0125 41.9433 17.7039C41.9078 18.0502 41.8503 18.3952 41.7512 18.7367C41.7022 18.908 41.6288 19.0756 41.5566 19.231C41.4832 19.3889 41.4098 19.5443 41.3339 19.6997C41.028 20.3189 40.7061 20.9271 40.3709 21.5304C40.1175 21.9892 39.852 22.4408 39.5803 22.8899C39.5228 23.2264 39.4727 23.5299 39.4727 23.5299C39.4727 23.5299 40.3782 21.9317 41.2837 20.3862C42.1893 18.8419 43.0153 16.6833 42.5894 15.6444Z"
      fill="#FF57A3"
    />
<path
      d="M36.584 28.3326C36.5902 28.0487 36.6244 27.7648 36.6783 27.4858C36.7554 27.1089 36.8667 26.7405 37.0001 26.382C37.1396 26.0247 37.2962 25.6759 37.481 25.3406C37.6205 25.0836 37.7723 24.8328 37.9436 24.5954C37.9546 24.3494 37.9754 24.0545 38.0145 23.7266C36.8887 25.4532 36.2598 28.3338 36.2598 28.3338L36.584 28.3326Z"
      fill="#FF57A3"
    />
<path
      d="M37.935 24.7695C37.6878 25.3361 37.4443 25.899 37.2277 26.4717C37.0931 26.8217 36.9756 27.1778 36.8618 27.5351C36.7847 27.7982 36.7187 28.0649 36.6562 28.3354L36.9928 28.3342C36.9928 28.3342 37.1482 27.3711 37.3366 26.8829C37.5239 26.3946 37.9375 25.3434 37.9375 25.3434C37.9375 25.3434 37.9252 25.1281 37.935 24.7695Z"
      fill="#FF57A3"
    />
<path
      d="M36.0888 16.261C35.8991 15.2367 36.1646 14.478 35.5956 14.4401C35.0266 14.4022 34.761 14.7815 34.8369 15.3885C34.9128 15.9954 35.0951 16.8973 35.6335 17.2852C35.9174 17.4896 37.113 18.1198 37.113 18.8026C37.113 19.4854 36.5415 20.922 36.3898 21.9083C36.2381 22.8946 35.7119 25.2968 36.506 26.5792C36.5648 26.4262 36.6149 26.3002 36.659 26.1937C36.6333 26.1252 36.6064 26.0579 36.5819 25.9894C36.495 25.741 36.413 25.4889 36.3555 25.2282C36.2992 24.9627 36.3005 24.6922 36.309 24.4267C36.32 24.1612 36.3482 23.8968 36.3812 23.635C36.4143 23.3731 36.4546 23.1112 36.5024 22.8518C36.5464 22.5936 36.6027 22.3268 36.6712 22.0735C36.8071 21.5633 36.9564 21.0603 37.0885 20.5549C37.2195 20.052 37.3577 19.5393 37.392 19.0375C37.403 18.9127 37.3883 18.7965 37.3651 18.6778C37.332 18.5627 37.2917 18.4489 37.2268 18.3461C37.1032 18.1357 36.9196 17.9546 36.7288 17.7808C36.5366 17.6083 36.3286 17.4467 36.1291 17.2742C36.079 17.2314 36.0288 17.1873 35.9798 17.1433C35.9297 17.1004 35.882 17.0527 35.8342 17.0013C35.7388 16.9022 35.6629 16.7872 35.5968 16.6685C35.4683 16.4286 35.3998 16.1655 35.3594 15.9036C35.3203 15.6418 35.3142 15.375 35.3411 15.1131C35.3386 15.2441 35.3472 15.3762 35.3619 15.5059C35.3753 15.6357 35.3937 15.7654 35.4231 15.8926C35.4794 16.1459 35.5638 16.3944 35.6996 16.6097C35.7681 16.7162 35.8416 16.8202 35.9333 16.9046C35.9774 16.9487 36.0239 16.9903 36.0765 17.0307C36.1267 17.0723 36.1781 17.1127 36.2295 17.153C36.4351 17.3133 36.6468 17.4688 36.8523 17.6388C37.0555 17.8102 37.2598 17.9962 37.4079 18.2372C37.4862 18.3547 37.5388 18.4893 37.5804 18.6264C37.6123 18.7647 37.6306 18.9115 37.6221 19.0486C37.6123 19.3251 37.5609 19.587 37.5082 19.8476C37.4532 20.1083 37.3896 20.364 37.3235 20.6198C37.1864 21.1288 37.0347 21.633 36.8927 22.1372C36.8193 22.3892 36.7606 22.6352 36.7104 22.8946C36.659 23.1516 36.6101 23.4074 36.5672 23.6656C36.5244 23.9225 36.4901 24.182 36.4657 24.4402C36.4449 24.6984 36.4314 24.9578 36.4706 25.2099C36.5183 25.5182 36.5954 25.8229 36.6847 26.1252C36.763 25.9355 36.8071 25.8401 36.8071 25.8401C36.8071 25.8401 36.3739 24.1318 37.3382 21.8765C37.9121 20.5341 38.2107 19.0694 37.9072 18.1589C37.6061 17.2473 36.2784 17.2852 36.0888 16.261Z"
      fill="#FF57A3"
    />
<path
      d="M34.8162 24.3011C34.8052 24.7232 34.8199 25.1454 34.9031 25.5529C34.9459 25.7548 35.0108 25.9555 35.0879 26.1501C35.1601 26.3471 35.2616 26.5306 35.3705 26.7093C35.4843 26.8843 35.6189 27.047 35.7805 27.1817C35.86 27.2502 35.9493 27.3077 36.0423 27.3579C36.0754 27.3762 36.1109 27.3921 36.1464 27.408L36.2663 27.0972C35.6116 26.4548 35.0854 25.5651 35.0842 24.6486C35.083 23.9572 35.2885 23.283 35.3669 22.5952C35.4758 21.6456 35.3326 20.652 34.8578 19.8236C34.383 18.9939 33.5582 18.349 32.6148 18.1924C32.3676 18.152 32.0812 18.1569 31.9124 18.3417C31.6848 18.5901 31.8218 19.0122 32.0788 19.2313C32.3358 19.4503 32.6747 19.5421 32.9684 19.7073C33.6365 20.0842 34.0294 20.8258 34.1799 21.5783C34.3292 22.3297 34.2704 23.1055 34.2398 23.8716C34.208 24.6376 34.208 25.4232 34.4674 26.1452C34.7256 26.8672 35.2922 27.5206 36.0411 27.687L36.1402 27.4325C35.9995 27.3909 35.8661 27.3199 35.745 27.2367C35.5663 27.1119 35.4109 26.954 35.2763 26.7815C35.0193 26.4254 34.8345 26.0265 34.722 25.5994C34.6106 25.1723 34.591 24.733 34.5886 24.3011C34.5898 23.8679 34.6204 23.4396 34.6424 23.0137C34.6681 22.5879 34.6865 22.1645 34.6645 21.746C34.6449 21.3287 34.5776 20.9127 34.4087 20.5394C34.3867 20.4929 34.3683 20.4452 34.3438 20.3999L34.2643 20.2641C34.2141 20.1711 34.1542 20.0854 34.0979 19.9961C34.0428 19.9068 33.9755 19.826 33.9143 19.7391C33.847 19.6596 33.7834 19.5739 33.71 19.4993C33.431 19.1872 33.0871 18.9168 32.6808 18.7797C32.8925 18.8165 33.0932 18.9082 33.278 19.0196C33.464 19.1309 33.6365 19.2656 33.7944 19.4148C33.8764 19.487 33.9461 19.5703 34.022 19.6486C34.0905 19.733 34.1652 19.8138 34.2276 19.9019C34.2924 19.9888 34.3573 20.0769 34.4148 20.1699L34.5029 20.3069C34.5311 20.3546 34.5543 20.406 34.58 20.455C34.7856 20.8539 34.8615 21.2981 34.8957 21.7313C34.9263 22.1669 34.9092 22.5989 34.8872 23.0272C34.8554 23.453 34.8248 23.8789 34.8162 24.3011Z"
      fill="#FF57A3"
    />
<path
      d="M32.9498 24.7C32.809 23.7357 33.3964 23.2181 33.2324 22.2073C33.0685 21.1966 32.4799 20.4905 31.9157 20.6789C31.3516 20.8674 31.9157 21.4315 32.0565 22.2073C32.1972 22.9832 31.6563 23.3356 31.7983 24.3941C31.939 25.4526 33.3744 26.3459 33.7733 27.0985C34.1722 27.851 33.9618 28.2977 33.9618 28.2977L34.3105 28.3075C34.2457 27.796 34.1514 27.293 33.8406 26.8929C33.7941 26.8244 33.7464 26.7534 33.7011 26.6812C33.6595 26.6175 33.6118 26.5515 33.5616 26.4866L33.2557 26.0938C33.0513 25.8307 32.8494 25.5639 32.6561 25.2874C32.5618 25.1479 32.4688 25.0059 32.3856 24.853C32.344 24.7771 32.3036 24.6988 32.273 24.6095C32.2376 24.5189 32.2253 24.432 32.2131 24.3402C32.1947 24.1579 32.218 23.9756 32.2559 23.8092C32.2914 23.6415 32.3379 23.4824 32.3758 23.3234C32.4138 23.1643 32.4468 23.0003 32.4676 22.8437C32.4872 22.6846 32.486 22.5218 32.475 22.3579C32.4652 22.1939 32.4444 22.0299 32.4162 21.8659L32.3722 21.62L32.3538 21.4951C32.3514 21.4743 32.3489 21.4535 32.3489 21.4327C32.3489 21.4132 32.3452 21.3875 32.3636 21.3728C32.3489 21.3887 32.3563 21.4119 32.3587 21.4315C32.3624 21.4523 32.3673 21.4719 32.3734 21.4915L32.4089 21.6114L32.4799 21.8512C32.5251 22.0128 32.5655 22.1755 32.5937 22.3432C32.6206 22.5108 32.634 22.6821 32.6267 22.8547C32.6181 23.0284 32.5912 23.1936 32.5631 23.3613C32.508 23.6941 32.3991 24.0147 32.4444 24.3121C32.4652 24.4663 32.5166 24.5948 32.5973 24.7355C32.6744 24.875 32.7662 25.0121 32.8592 25.1467C33.044 25.4195 33.2434 25.6839 33.4417 25.9519L33.7366 26.3581C33.7855 26.4267 33.8333 26.4976 33.8785 26.5747C33.9177 26.6457 33.9593 26.7167 34.0021 26.7876C34.0878 26.9296 34.1759 27.085 34.231 27.2502C34.286 27.413 34.3227 27.583 34.3411 27.7519C34.3582 27.9379 34.368 28.1227 34.3705 28.3075L34.8318 28.3197C34.8318 28.3197 34.8318 27.5904 34.6201 27.0972C34.4084 26.6041 33.0917 25.6643 32.9498 24.7Z"
      fill="#FF57A3"
    />
<path
      d="M5.42788 28.3342C5.42788 28.3342 6.55858 23.2962 6.36768 18.8676C6.17678 14.4391 4.80257 7.79685 2.66477 8.56044C0.526969 9.32402 2.28298 13.5617 3.16159 16.501C4.04021 19.4403 4.30697 24.1369 4.26904 25.7779C4.2311 27.4188 4.2311 28.3354 4.2311 28.3354L5.42788 28.3342Z"
      fill="#B9D85B"
    />
<path
      d="M4.80273 28.3376L6.36784 28.2997C6.36784 28.2997 8.58151 22.9166 8.50564 16.77C8.42978 10.6233 7.70412 7.11133 6.06192 7.11133C4.41972 7.11133 5.32892 11.6647 5.71806 16.3123C6.25404 22.6878 4.80273 28.3376 4.80273 28.3376Z"
      fill="#588D52"
    />
<path
      d="M2.20141 28.343L3.20362 28.3504C3.20362 28.3504 2.03009 20.1797 2.15369 14.0625C2.27728 7.94399 3.54993 5.48068 2.64684 4.20804C1.74375 2.93539 0.480893 5.23594 0.101547 9.05266C-0.556803 15.6631 2.20141 28.343 2.20141 28.343Z"
      fill="#7BA353"
    />
<path
      d="M6.93555 28.343C6.93555 28.343 7.42013 20.2299 9.51633 16.2051C11.6125 12.1816 13.579 12.315 13.8531 13.3796C14.1272 14.4442 11.2368 16.1966 9.85162 19.7257C8.0797 24.2436 7.77745 28.3418 7.77745 28.3418H6.93555V28.343Z"
      fill="#7BA353"
    />
</g>
</svg>
