<svg width="219" height="258" viewBox="0 0 219 258" fill="none" xmlns="http://www.w3.org/2000/svg">
<path fill-rule="evenodd" clip-rule="evenodd" d="M0 4.55469C0 2.34555 1.79086 0.554688 4 0.554688H215C217.209 0.554688 219 2.34555 219 4.55469V253.555C219 255.764 217.209 257.555 215 257.555H4C1.79086 257.555 0 255.764 0 253.555V4.55469Z" fill="#F2F2F7"/>
<mask id="mask0_603_60918" style="mask-type:alpha" maskUnits="userSpaceOnUse" x="0" y="0" width="219" height="258">
<path fill-rule="evenodd" clip-rule="evenodd" d="M0 4.55469C0 2.34555 1.79086 0.554688 4 0.554688H215C217.209 0.554688 219 2.34555 219 4.55469V253.555C219 255.764 217.209 257.555 215 257.555H4C1.79086 257.555 0 255.764 0 253.555V4.55469Z" fill="white"/>
</mask>
<g mask="url(#mask0_603_60918)">
<rect x="-5.36035" y="-6.19812" width="230" height="270" fill="#AF52DE"/>
<mask id="mask1_603_60918" style="mask-type:alpha" maskUnits="userSpaceOnUse" x="-6" y="-7" width="231" height="271">
<rect x="-5.36035" y="-6.19812" width="230" height="270" fill="white"/>
</mask>
<g mask="url(#mask1_603_60918)">
<rect x="169.852" y="-5.65015" width="52.5949" height="52.5949" rx="7.43802" transform="rotate(-9.76 169.852 -5.65015)" fill="#97469E"/>
<rect x="-12.1425" y="264.21" width="67.441" height="67.441" rx="7.43802" transform="rotate(-80.07 -12.1425 264.21)" fill="#97469E"/>
<path fill-rule="evenodd" clip-rule="evenodd" d="M73.9612 200.648C73.9612 137.138 125.444 85.6554 188.954 85.6554C252.464 85.6554 303.946 137.138 303.946 200.648C303.946 264.158 252.464 315.64 188.954 315.64C125.444 315.64 73.9612 264.158 73.9612 200.648ZM84.4323 200.633C84.4323 258.361 131.23 305.154 188.954 305.154V305.169C246.677 305.169 293.475 258.361 293.475 200.633C293.475 142.905 246.682 96.1116 188.954 96.1116C131.225 96.1116 84.4323 142.905 84.4323 200.633Z" fill="white"/>
<rect x="135.861" y="224.943" width="57.9627" height="57.9627" rx="7.43802" transform="rotate(-75.94 135.861 224.943)" fill="#97469E"/>
<rect x="16.2018" y="77.4385" width="67.9997" height="67.9997" rx="7.43802" transform="rotate(-80.07 16.2018 77.4385)" fill="#97469E"/>
<circle cx="109.64" cy="128.802" r="84.8213" fill="#111A41"/>
<circle cx="109.64" cy="128.802" r="75.8269" fill="#222C56"/>
<rect x="71.9987" y="82.8314" width="93.9305" height="93.9305" rx="11.8729" transform="rotate(-35.6 71.9987 82.8314)" fill="white"/>
<path opacity="0.1" d="M136.713 151.655L130.228 113.931C129.121 107.494 123.006 103.172 116.569 104.278L89.7949 108.887L119.048 149.764C122.85 155.076 130.239 156.3 135.55 152.498L136.713 151.655Z" fill="#5856D6"/>
<circle cx="136.835" cy="93.618" r="8.04725" fill="#5856D6"/>
<circle cx="105.378" cy="88.3967" r="8.04725" fill="#5856D6"/>
<circle cx="142.214" cy="62.0313" r="8.04725" fill="#5856D6"/>
<circle cx="168.582" cy="98.8759" r="8.04725" fill="#5856D6"/>
<circle cx="131.743" cy="125.239" r="8.04725" fill="#5856D6"/>
<rect x="19.5111" y="127.411" width="94.2847" height="94.2847" rx="11.8879" transform="rotate(-9.76 19.5111 127.411)" fill="white"/>
<circle cx="73.9637" cy="165.885" r="8.04663" transform="rotate(-9.76 73.9637 165.885)" fill="#222C56"/>
<circle cx="55.5572" cy="191.929" r="8.04663" transform="rotate(-9.76 55.5572 191.929)" fill="#222C56"/>
<circle cx="92.5259" cy="139.602" r="8.04663" transform="rotate(-9.76 92.5259 139.602)" fill="#222C56"/>
</g>
</g>
</svg>
