<svg width="482" height="365" viewBox="0 0 482 365" fill="none" xmlns="http://www.w3.org/2000/svg">
<rect x="1" y="1" width="480" height="363" fill="#222C55" stroke="#2C3763"/>
<g clip-path="url(#clip0_1_131)">
<g filter="url(#filter0_d_1_131)">
<path d="M24.8085 103.401L-23.7148 78.6159C-26.0813 77.4071 -26.9267 74.6752 -25.6032 72.5139L15.9036 4.73152C17.2271 2.57016 20.2183 1.79801 22.5847 3.00681L71.1067 27.7917C73.4747 29.0012 74.3201 31.7331 72.9966 33.8944L31.4907 101.675C30.1663 103.838 27.175 104.61 24.8085 103.401Z" fill="#EFF2FA"/>
<path d="M-24.0548 76.4875L19.6149 98.7938L15.2174 54.6729L11.2743 12.2379L-25.484 72.2657C-26.3835 73.7347 -25.7437 75.6248 -24.0548 76.4875Z" fill="#D9DDE1"/>
<path d="M38.3218 46.6099C41.0986 42.4296 39.5552 36.8438 34.7695 34.3993C29.9837 31.9548 23.9648 33.6777 21.5186 38.0268C17.3731 37.0297 12.8445 38.6673 10.6569 42.2398C8.06503 46.4725 9.72718 51.8434 14.3616 54.2107C15.8915 54.9921 17.5586 55.3481 19.1968 55.3249L16.2139 60.1961L14.1125 59.1227C12.9525 58.5301 11.4845 58.9091 10.8357 59.9686C10.187 61.028 10.6019 62.3687 11.7619 62.9613L20.1677 67.2549C21.3277 67.8475 22.7957 67.4685 23.4445 66.4091C24.0932 65.3496 23.6783 64.0089 22.5183 63.4163L20.4168 62.3429L23.3997 57.4717C24.2356 58.7587 25.4405 59.8697 26.9703 60.6512C31.6047 63.0184 37.4854 61.5003 40.0773 57.2676C42.2649 53.6952 41.4221 49.3139 38.3218 46.6099Z" fill="#404D81"/>
<path d="M40.0783 57.2673C37.4864 61.5 31.6057 63.0181 26.9713 60.6509C25.4414 59.8694 24.2366 58.7584 23.4007 57.4714L20.4178 62.3426L22.5193 63.416C23.6793 64.0086 24.0942 65.3493 23.4454 66.4088C22.7967 67.4682 21.3287 67.8472 20.1687 67.2546L15.9658 65.1078L34.7704 34.399C39.5561 36.8435 41.0996 42.4293 38.3228 46.6096C41.4231 49.3136 42.2659 53.6949 40.0783 57.2673Z" fill="#2E3963"/>
<path d="M30.1667 88.7988C31.0923 87.4054 30.5778 85.5435 28.9825 84.7286C27.3873 83.9138 25.381 84.4881 24.5656 85.9378C23.1837 85.6054 21.6742 86.1513 20.945 87.3421C20.0811 88.753 20.6351 90.5433 22.1799 91.3324C22.6899 91.5929 23.2456 91.7116 23.7917 91.7038L22.7974 93.3275L22.0969 92.9697C21.7102 92.7722 21.2209 92.8985 21.0046 93.2517C20.7884 93.6049 20.9267 94.0518 21.3134 94.2493L24.1153 95.6805C24.502 95.878 24.9913 95.7517 25.2075 95.3985C25.4238 95.0454 25.2855 94.5985 24.8988 94.401L24.1983 94.0432L25.1926 92.4194C25.4713 92.8484 25.8729 93.2187 26.3828 93.4792C27.9276 94.2683 29.8879 93.7623 30.7518 92.3514C31.481 91.1606 31.2001 89.7001 30.1667 88.7988Z" fill="#404D81"/>
<path d="M30.7527 92.3513C29.8888 93.7622 27.9286 94.2682 26.3837 93.4791C25.8738 93.2187 25.4722 92.8483 25.1935 92.4193L24.1993 94.0431L24.8997 94.4009C25.2864 94.5984 25.4247 95.0453 25.2085 95.3984C24.9922 95.7516 24.5029 95.8779 24.1162 95.6804L22.7152 94.9648L28.9835 84.7285C30.5787 85.5434 31.0932 87.4053 30.1676 88.7987C31.201 89.7 31.4819 91.1605 30.7527 92.3513Z" fill="#2E3963"/>
<path d="M27.5279 12.515C28.4536 11.1216 27.9391 9.25967 26.3438 8.44482C24.7486 7.62998 22.7423 8.20429 21.9269 9.65399C20.545 9.32162 19.0355 9.8675 18.3063 11.0583C17.4423 12.4692 17.9964 14.2595 19.5412 15.0486C20.0512 15.3091 20.6069 15.4278 21.1529 15.42L20.1586 17.0438L19.4582 16.6859C19.0715 16.4884 18.5822 16.6148 18.3659 16.9679C18.1497 17.3211 18.288 17.768 18.6746 17.9655L21.4766 19.3967C21.8632 19.5942 22.3526 19.4679 22.5688 19.1147C22.7851 18.7616 22.6468 18.3147 22.2601 18.1172L21.5596 17.7594L22.5539 16.1356C22.8325 16.5646 23.2342 16.935 23.7441 17.1954C25.2889 17.9845 27.2491 17.4785 28.1131 16.0676C28.8423 14.8768 28.5614 13.4163 27.5279 12.515Z" fill="#404D81"/>
<path d="M28.114 16.0683C27.25 17.4792 25.2898 17.9853 23.745 17.1962C23.2351 16.9357 22.8334 16.5654 22.5548 16.1364L21.5605 17.7601L22.261 18.1179C22.6477 18.3154 22.786 18.7623 22.5697 19.1155C22.3535 19.4686 21.8641 19.5949 21.4775 19.3974L20.0765 18.6818L26.3447 8.44556C27.94 9.2604 28.4545 11.1223 27.5288 12.5157C28.5623 13.4171 28.8432 14.8775 28.114 16.0683Z" fill="#2E3963"/>
</g>
<g filter="url(#filter1_d_1_131)">
<path d="M65.7397 121.567L11.8266 124.819C9.19729 124.978 6.92537 123.163 6.75197 120.765L1.31396 45.5636C1.14056 43.1657 3.13136 41.0934 5.7607 40.9348L59.6723 37.6828C62.3033 37.5241 64.5752 39.3393 64.7486 41.7372L70.1865 116.937C70.36 119.336 68.3691 121.409 65.7397 121.567Z" fill="#EFF2FA"/>
<path d="M10.464 124.902L58.9843 121.975L29.8371 88.19L2.03711 55.5579L6.85299 122.156C6.97085 123.786 8.58747 125.015 10.464 124.902Z" fill="#D9DDE1"/>
<path d="M42.4698 66.1121C39.4345 66.2952 36.8756 67.6704 35.0271 70.1013L35.0255 70.1029C32.8429 67.9136 30.1065 66.8579 27.0713 67.041C21.124 67.3997 17.1329 72.1868 17.5313 77.6964C18.0365 84.6821 25.4251 88.5712 35.1539 95.3563C35.666 95.714 36.2839 95.8695 36.8879 95.8331C37.4901 95.7968 38.0784 95.567 38.5347 95.1524C47.2019 87.256 53.9662 82.5132 53.4612 75.5291C53.0628 70.0195 48.4153 65.7535 42.4698 66.1121Z" fill="#FF655D"/>
<path d="M38.5358 95.1517C38.0795 95.5663 37.4912 95.7962 36.889 95.8325L35.0282 70.1007C36.8767 67.6698 39.4357 66.2946 42.4709 66.1115C48.4164 65.7529 53.0639 70.0189 53.4623 75.5285C53.9673 82.5126 47.203 87.2554 38.5358 95.1517Z" fill="#FF3A30"/>
<path d="M14.9585 45.3169C13.9873 45.3755 13.1684 45.8156 12.5769 46.5934L12.5764 46.594C11.878 45.8934 11.0023 45.5556 10.0311 45.6141C8.12798 45.7289 6.85083 47.2608 6.9783 49.0238C7.13993 51.2592 9.50423 52.5037 12.6174 54.675C12.7813 54.7894 12.979 54.8392 13.1723 54.8275C13.365 54.8159 13.5532 54.7424 13.6992 54.6097C16.4727 52.0829 18.6373 50.5653 18.4757 48.3304C18.3483 46.5673 16.8611 45.2022 14.9585 45.3169Z" fill="#FF655D"/>
<path d="M13.6999 54.6104C13.5539 54.7431 13.3657 54.8166 13.173 54.8283L12.5776 46.5942C13.1691 45.8163 13.988 45.3762 14.9592 45.3177C16.8618 45.2029 18.3489 46.568 18.4764 48.3311C18.638 50.566 16.4734 52.0837 13.6999 54.6104Z" fill="#FF3A30"/>
</g>
<g filter="url(#filter2_d_1_131)">
<path d="M18.8614 168.091L-30.6298 145.575C-33.0435 144.477 -34.0255 141.8 -32.8232 139.595L4.88266 70.4609C6.08497 68.2564 9.01612 67.3596 11.4298 68.4577L60.9198 90.9729C63.3349 92.0717 64.3169 94.7487 63.1146 96.9532L25.4096 166.086C24.2065 168.292 21.2751 169.189 18.8614 168.091Z" fill="#EFF2FA"/>
<path d="M-31.8797 145.006L12.6611 165.269L5.99759 121.631L-0.126953 79.6487L-33.519 140.874C-34.3362 142.372 -33.6023 144.222 -31.8797 145.006Z" fill="#D9DDE1"/>
<path d="M15.0397 75.9458C14.9621 75.773 14.8202 75.6402 14.649 75.5624C14.4778 75.4845 14.2763 75.461 14.0786 75.5085C10.3237 76.4091 7.6417 76.7226 6.55721 78.711C5.70168 80.2797 6.22698 82.1272 7.91725 82.8962C8.45132 83.1391 9.01553 83.23 9.5892 83.17L8.74046 84.7262L8.01085 84.3942C7.6081 84.211 7.11841 84.3608 6.9178 84.7287C6.71718 85.0965 6.88123 85.5438 7.28397 85.727L10.2024 87.0547C10.6052 87.2379 11.0949 87.0881 11.2955 86.7203C11.4961 86.3524 11.332 85.9052 10.9293 85.722L10.1997 85.39L11.0484 83.8338C11.3415 84.2882 11.7608 84.6448 12.2949 84.8878C13.9857 85.657 15.9163 84.9267 16.7718 83.3581C17.8565 81.3692 16.5149 79.2252 15.0397 75.9458V75.9458Z" fill="#404D81"/>
<path d="M16.7714 83.3583C15.9159 84.927 13.9853 85.6572 12.2945 84.888C11.7604 84.645 11.3411 84.2885 11.048 83.8341L10.1993 85.3903L10.9289 85.7222C11.3316 85.9054 11.4957 86.3527 11.2951 86.7205C11.0945 87.0883 10.6048 87.2382 10.202 87.0549L8.7428 86.3911L14.6486 75.5626C14.8199 75.6405 14.9618 75.7732 15.0393 75.946C16.5145 79.2254 17.8561 81.3694 16.7714 83.3583Z" fill="#2E3963"/>
</g>
<circle cx="459" cy="69" r="48.8046" fill="url(#paint0_radial_1_131)" stroke="#2C3763" stroke-width="4"/>
<circle cx="459" cy="69" r="66" fill="url(#paint1_radial_1_131)" stroke="#2C3763" stroke-width="4"/>
<circle cx="459.137" cy="69.0465" r="34.7816" transform="rotate(90 459.137 69.0465)" fill="#FFDAE2"/>
<ellipse cx="436.188" cy="68.0286" rx="5.05405" ry="5.14595" transform="rotate(84.255 436.188 68.0286)" fill="#FEAFBD"/>
<ellipse cx="446.584" cy="53.868" rx="2.11351" ry="2.02162" transform="rotate(84.255 446.584 53.868)" fill="#FEAFBD"/>
<circle cx="437.044" cy="56.2973" r="2.96484" transform="rotate(84.255 437.044 56.2973)" fill="#FEAFBD"/>
<circle cx="475.577" cy="84.977" r="5.13632" transform="rotate(90 475.577 84.977)" fill="#FEAFBD"/>
<path d="M465.284 66.4036L464.724 65.8436L459.059 60.1784L453.385 65.8436L452.825 66.4036C451.257 67.9715 451.257 70.5101 452.825 72.0781C453.609 72.8621 454.635 73.2541 455.662 73.2541C456.689 73.2541 457.715 72.8621 458.499 72.0781L459.059 71.5181L459.619 72.0781C460.403 72.8621 461.43 73.2541 462.456 73.2541C463.483 73.2541 464.51 72.8621 465.294 72.0781C466.852 70.5101 466.852 67.9622 465.284 66.4036ZM462.186 68.3822L461.906 68.6622L459.059 71.5088L456.213 68.6622L455.933 68.3822C455.149 67.5982 455.149 66.3196 455.933 65.5356C456.325 65.1436 456.838 64.9476 457.361 64.9476C457.874 64.9476 458.387 65.1436 458.788 65.5356L459.068 65.8156L459.348 65.5356C459.74 65.1436 460.254 64.9476 460.776 64.9476C461.299 64.9476 461.803 65.1436 462.204 65.5356C462.97 66.3196 462.97 67.5889 462.186 68.3822Z" fill="#FEAFBD"/>
<path d="M461.752 75.3259L459.073 72.6466L456.393 75.3259L459.073 78.0053L461.752 75.3259Z" fill="#FEAFBD"/>
<path d="M406.152 43.5998L410.987 48.8348C412.028 49.9608 413.784 50.0309 414.91 48.9914V48.9914L418.294 52.655C418.574 52.958 418.963 53.1374 419.375 53.1537C419.787 53.17 420.189 53.022 420.492 52.7421V52.7421L422.595 55.0184V55.0184C423.524 54.1601 423.581 52.711 422.723 51.7818L418.349 47.0463L418.368 47.0287C418.93 46.5096 419.262 45.7886 419.293 45.0243C419.323 44.26 419.048 43.5149 418.529 42.953V42.953C418.722 42.7747 418.837 42.5271 418.847 42.2645C418.857 42.002 418.763 41.7461 418.585 41.5531L413.501 36.0493L406.152 43.5998Z" fill="#FE330D"/>
<path d="M407.933 42.647L410.88 45.8375C411.667 46.6895 412.996 46.7421 413.848 45.9551V45.9551L416.306 48.6162V48.6162C416.659 48.2905 416.869 47.8377 416.888 47.3576C416.907 46.8775 416.735 46.4095 416.409 46.0566L413.778 43.2091V43.2091C414.402 42.6321 414.771 41.8306 414.804 40.9813C414.836 40.132 414.53 39.3046 413.952 38.6815L413.157 37.8211L407.933 42.647Z" fill="#FED467"/>
<path d="M405.263 31.9034L411.658 30.9412C413.314 30.6932 414.955 31.47 415.813 32.9074L419.228 38.6398L415.969 41.6349L405.263 31.9034Z" fill="white"/>
<path d="M402.322 34.6001L400.826 40.8919C400.442 42.52 401.079 44.2188 402.438 45.1933L407.854 49.0847L411.113 46.0896L402.322 34.6001Z" fill="#8CD4EA"/>
<path d="M391.777 20.1799L392.207 24.1373C392.626 28.0941 394.271 31.821 396.911 34.7972C396.979 34.8705 397.045 34.9414 397.108 35.0099L406.475 44.2509L410.499 40.5539L414.436 36.9364L406.101 26.7486C406.034 26.6753 405.968 26.6044 405.905 26.5359C403.166 23.6526 399.595 21.6965 395.691 20.9405L391.777 20.1799Z" fill="white"/>
<path d="M414.442 36.9403L406.106 26.7536C406.039 26.6803 405.973 26.6094 405.91 26.5409C403.171 23.655 399.598 21.6971 395.692 20.9407L391.783 20.1757L410.506 40.5567L414.442 36.9403Z" fill="#FEAFBD"/>
<circle cx="399.706" cy="28.8135" r="3.37709" transform="rotate(-132.591 399.706 28.8135)" fill="white"/>
<circle cx="399.706" cy="28.8132" r="2.55722" transform="rotate(-132.591 399.706 28.8132)" fill="#2200CC"/>
<path d="M418.251 56.2037V56.2037C419.094 55.4252 420.408 55.4773 421.187 56.32L422.539 57.7838V57.7838C421.696 58.5623 420.382 58.5102 419.604 57.6675L418.251 56.2037V56.2037Z" fill="#FE330D"/>
<path d="M421.94 48.8591V48.8591L421.426 48.3023C421.052 47.8976 420.854 47.361 420.876 46.8104C420.898 46.2599 421.138 45.7406 421.542 45.3668V45.3668L422.057 45.9236C422.835 46.7664 422.783 48.0806 421.94 48.8591V48.8591Z" fill="#FE330D"/>
<path d="M101 2L122.781 23.7249C123.064 24.0075 123.074 24.4626 122.803 24.7568V24.7568C122.661 24.9117 122.461 25 122.25 25C122.04 25 121.84 24.9117 121.698 24.7568L101 2Z" fill="#FBE4A8"/>
<path d="M161 25L182.781 46.7249C183.064 47.0075 183.074 47.4626 182.803 47.7568V47.7568C182.661 47.9117 182.461 48 182.25 48C182.04 48 181.84 47.9117 181.698 47.7568L161 25Z" fill="#FBE4A8"/>
<path d="M150 59L171.781 80.7249C172.064 81.0075 172.074 81.4626 171.803 81.7568V81.7568C171.661 81.9117 171.461 82 171.25 82C171.04 82 170.84 81.9117 170.698 81.7568L150 59Z" fill="#FBE4A8"/>
<circle cx="217.5" cy="27.5" r="1.5" fill="#FBE4A8"/>
<circle cx="301.5" cy="9.5" r="1.5" fill="#FBE4A8"/>
<circle cx="364.5" cy="11.5" r="1.5" fill="#FBE4A8"/>
<circle cx="101.5" cy="42.5" r="1.5" fill="#FBE4A8"/>
<circle cx="143.5" cy="34.5" r="1.5" fill="#FBE4A8"/>
<circle cx="148.5" cy="6.5" r="1.5" fill="#FBE4A8"/>
<circle cx="178.5" cy="21.5" r="1.5" fill="#FBE4A8"/>
<circle cx="265.5" cy="7.5" r="1.5" fill="#FBE4A8"/>
<circle cx="285.5" cy="78.5" r="1.5" fill="#FBE4A8"/>
<circle cx="403.5" cy="6.5" r="1.5" fill="#FBE4A8"/>
<circle cx="370.5" cy="42.5" r="1.5" fill="#FBE4A8"/>
<circle cx="323.5" cy="40.5" r="1.5" fill="#FFDAE2"/>
<circle cx="338.5" cy="22.5" r="1.5" fill="#FFDAE2"/>
<circle cx="345.5" cy="50.5" r="1.5" fill="#FFDAE2"/>
<circle cx="255.5" cy="26.5" r="1.5" fill="#FFDAE2"/>
<path d="M288 38L309.781 59.7249C310.064 60.0075 310.074 60.4626 309.803 60.7568V60.7568C309.661 60.9117 309.461 61 309.25 61C309.04 61 308.84 60.9117 308.698 60.7568L288 38Z" fill="#FBE4A8"/>
<path d="M388 73H327C327 67.6979 331.402 63.3996 336.833 63.3996H342.218C342.218 57.1038 347.446 52 353.894 52H366.183C368.729 52 370.793 54.0151 370.793 56.5008H371.101C375.583 56.5008 379.881 58.2391 383.05 61.3333C386.22 64.4275 388 68.6241 388 73Z" fill="#334492"/>
<path d="M316 82H285C285 79.2227 287.237 76.9712 289.997 76.9712H292.734C292.734 73.6734 295.39 71 298.667 71H304.913C306.207 71 307.255 72.0555 307.255 73.3575H307.412C309.69 73.3575 311.874 74.2681 313.485 75.8889C315.095 77.5096 316 79.7079 316 82Z" fill="#334492"/>
<path d="M132.811 52.4112C131.818 49.1209 123.764 48.8958 112.965 51.358C114.139 52.5546 115.127 53.9465 115.89 55.4818C118.194 55.5142 119.703 56.0246 120.015 57.0574C120.326 58.0902 119.393 59.4891 117.559 61.0262C114.69 63.4259 109.61 66.1486 103.587 68.3431C97.5653 70.5377 91.9941 71.6658 88.3767 71.6152C86.0727 71.5828 84.5667 71.0699 84.255 70.0399C83.9434 69.0099 84.8765 67.6082 86.7103 66.0711C86.4883 64.3398 86.5209 62.5775 86.8071 60.8484C76.8049 65.9431 70.466 71.3959 71.4586 74.6862C72.4512 77.9764 80.508 78.2018 91.307 75.7396C95.8061 74.6958 100.249 73.3716 104.612 71.7739C108.983 70.1981 113.269 68.3508 117.447 66.2416C127.462 61.1568 133.802 55.7155 132.811 52.4112Z" fill="#8CD4EA"/>
<path d="M117.219 61.1977C116.97 59.2658 116.403 57.4006 115.546 55.6875C114.781 54.1614 113.792 52.7777 112.617 51.5879C112.135 51.0975 111.624 50.641 111.087 50.2212L111.029 50.1723L110.967 50.1287C105.104 45.6667 97.0718 46.1573 91.5956 51.3119C86.1193 56.4664 84.6483 64.9208 88.0478 71.7017C91.6556 71.7535 97.2252 70.6307 103.26 68.4617C109.294 66.2926 114.353 63.583 117.219 61.1977Z" fill="#334492"/>
<path d="M91.7068 75.4612C95.5988 79.4791 101.174 80.972 106.423 79.4023C111.673 77.8325 115.842 73.4262 117.428 67.7704C117.604 67.1355 117.745 66.4906 117.851 65.839C113.672 67.9746 109.385 69.8456 105.013 71.4426C100.649 73.0607 96.2059 74.4025 91.7068 75.4612H91.7068Z" fill="#334492"/>
<circle cx="222.5" cy="64.5" r="1.5" fill="#FFDAE2"/>
<circle cx="240.5" cy="79.5" r="1.5" fill="#FFDAE2"/>
<circle cx="264.5" cy="68.5" r="1.5" fill="#FFDAE2"/>
<circle cx="189.5" cy="71.5" r="1.5" fill="#FBE4A8"/>
<circle cx="201.5" cy="80.5" r="1.5" fill="#FBE4A8"/>
<circle cx="282.5" cy="21.5" r="1.5" fill="#FBE4A8"/>
<circle cx="303.5" cy="28.5" r="1.5" fill="#FBE4A8"/>
<circle cx="237.5" cy="10.5" r="1.5" fill="#FBE4A8"/>
<circle cx="198.5" cy="15.5" r="1.5" fill="#FBE4A8"/>
<path d="M213 5L234.781 26.7249C235.064 27.0075 235.074 27.4626 234.803 27.7568V27.7568C234.661 27.9117 234.461 28 234.25 28C234.04 28 233.84 27.9117 233.698 27.7568L213 5Z" fill="#FBE4A8"/>
<circle cx="83.5" cy="17.5" r="1.5" fill="#FFDAE2"/>
</g>
<defs>
<filter id="filter0_d_1_131" x="-60.2287" y="-27.5645" width="167.851" height="169.537" filterUnits="userSpaceOnUse" color-interpolation-filters="sRGB">
<feFlood flood-opacity="0" result="BackgroundImageFix"/>
<feColorMatrix in="SourceAlpha" type="matrix" values="0 0 0 0 0 0 0 0 0 0 0 0 0 0 0 0 0 0 127 0" result="hardAlpha"/>
<feOffset dy="4"/>
<feGaussianBlur stdDeviation="17"/>
<feComposite in2="hardAlpha" operator="out"/>
<feColorMatrix type="matrix" values="0 0 0 0 0 0 0 0 0 0 0 0 0 0 0 0 0 0 0.25 0"/>
<feBlend mode="normal" in2="BackgroundImageFix" result="effect1_dropShadow_1_131"/>
<feBlend mode="normal" in="SourceGraphic" in2="effect1_dropShadow_1_131" result="shape"/>
</filter>
<filter id="filter1_d_1_131" x="-32.6966" y="7.67311" width="136.894" height="155.236" filterUnits="userSpaceOnUse" color-interpolation-filters="sRGB">
<feFlood flood-opacity="0" result="BackgroundImageFix"/>
<feColorMatrix in="SourceAlpha" type="matrix" values="0 0 0 0 0 0 0 0 0 0 0 0 0 0 0 0 0 0 127 0" result="hardAlpha"/>
<feOffset dy="4"/>
<feGaussianBlur stdDeviation="17"/>
<feComposite in2="hardAlpha" operator="out"/>
<feColorMatrix type="matrix" values="0 0 0 0 0 0 0 0 0 0 0 0 0 0 0 0 0 0 0.25 0"/>
<feBlend mode="normal" in2="BackgroundImageFix" result="effect1_dropShadow_1_131"/>
<feBlend mode="normal" in="SourceGraphic" in2="effect1_dropShadow_1_131" result="shape"/>
</filter>
<filter id="filter2_d_1_131" x="-67.8531" y="37.9889" width="165.481" height="168.571" filterUnits="userSpaceOnUse" color-interpolation-filters="sRGB">
<feFlood flood-opacity="0" result="BackgroundImageFix"/>
<feColorMatrix in="SourceAlpha" type="matrix" values="0 0 0 0 0 0 0 0 0 0 0 0 0 0 0 0 0 0 127 0" result="hardAlpha"/>
<feOffset dy="4"/>
<feGaussianBlur stdDeviation="17"/>
<feComposite in2="hardAlpha" operator="out"/>
<feColorMatrix type="matrix" values="0 0 0 0 0 0 0 0 0 0 0 0 0 0 0 0 0 0 0.25 0"/>
<feBlend mode="normal" in2="BackgroundImageFix" result="effect1_dropShadow_1_131"/>
<feBlend mode="normal" in="SourceGraphic" in2="effect1_dropShadow_1_131" result="shape"/>
</filter>
<radialGradient id="paint0_radial_1_131" cx="0" cy="0" r="1" gradientUnits="userSpaceOnUse" gradientTransform="translate(459 69) rotate(90) scale(50.8046)">
<stop offset="0.744792" stop-color="#222C55" stop-opacity="0"/>
<stop offset="1" stop-color="#1B244B"/>
</radialGradient>
<radialGradient id="paint1_radial_1_131" cx="0" cy="0" r="1" gradientUnits="userSpaceOnUse" gradientTransform="translate(459 69) rotate(90) scale(68)">
<stop offset="0.744792" stop-color="#222C55" stop-opacity="0"/>
<stop offset="1" stop-color="#1B244B"/>
</radialGradient>
<clipPath id="clip0_1_131">
<rect width="480" height="88" fill="white" transform="translate(1 1)"/>
</clipPath>
</defs>
</svg>
