<svg width="20" height="20" viewBox="0 0 20 20" fill="none" xmlns="http://www.w3.org/2000/svg">
<path d="M11.2755 6.85376C10.9711 6.85376 10.3917 6.85376 9.8009 6.85376C8.98644 6.85376 8.32617 7.51399 8.32617 8.32845C8.32617 9.14289 8.98641 9.80313 9.80086 9.80313C10.6153 9.80313 11.2755 10.4634 11.2755 11.2778C11.2755 12.0923 10.6153 12.7525 9.80086 12.7525H8.32617" stroke="white" stroke-width="1.5" stroke-linecap="round" stroke-linejoin="round"/>
<path d="M9.80078 6.85432V5.37964" stroke="white" stroke-width="1.5" stroke-linecap="round" stroke-linejoin="round"/>
<path d="M9.80078 14.2297V12.755" stroke="white" stroke-width="1.5" stroke-linecap="round" stroke-linejoin="round"/>
<path d="M2.04688 8.04125C2.92286 4.51262 6.11159 1.89734 9.91116 1.89734C13.7107 1.89734 16.8994 4.51262 17.7754 8.04125" stroke="white" stroke-width="1.5" stroke-linecap="round" stroke-linejoin="round"/>
<path d="M17.7754 11.9587C16.8995 15.4874 13.7107 18.1027 9.91117 18.1027C6.1116 18.1027 2.92288 15.4874 2.04688 11.9587" stroke="white" stroke-width="1.5" stroke-linecap="round" stroke-linejoin="round"/>
<path d="M15.2676 6.87658L17.8346 8.10425L18.906 5.60425" stroke="white" stroke-width="1.5" stroke-linecap="round" stroke-linejoin="round"/>
<path d="M4.6639 13.0947L2.06693 11.9319L1.05859 14.458" stroke="white" stroke-width="1.5" stroke-linecap="round" stroke-linejoin="round"/>
</svg>
