<svg width="24" height="24" viewBox="0 0 24 24" fill="none" xmlns="http://www.w3.org/2000/svg">
<path fill-rule="evenodd" clip-rule="evenodd" d="M12.751 4.80005C12.751 4.38584 12.4152 4.05005 12.001 4.05005C11.5868 4.05005 11.251 4.38584 11.251 4.80005V6.46615C10.5267 6.51319 9.77566 6.6716 9.16294 7.05323C8.51668 7.45576 8.0582 8.08899 7.95418 8.96477C7.87151 9.66074 7.94812 10.2753 8.19365 10.8053C8.44009 11.3372 8.82882 11.7238 9.27001 12.0078C10.1065 12.5464 11.2249 12.7659 12.1401 12.9456L12.1484 12.9472L12.2302 12.9633C12.6841 13.0523 13.1 13.1338 13.4788 13.2362C13.8818 13.3451 14.1919 13.465 14.4164 13.6064C14.63 13.7409 14.7417 13.8788 14.7989 14.031C14.8588 14.1903 14.8922 14.4545 14.7839 14.8968C14.7022 15.2303 14.4745 15.4935 14.0453 15.6967C13.5996 15.9077 12.9876 16.024 12.2871 16.0461C10.8678 16.091 9.37632 15.7453 8.75021 15.4154C8.38376 15.2222 7.93015 15.3627 7.73704 15.7292C7.54393 16.0956 7.68444 16.5492 8.05088 16.7424C8.76257 17.1174 9.98809 17.4252 11.251 17.5199V19.2C11.251 19.6143 11.5868 19.95 12.001 19.95C12.4152 19.95 12.751 19.6143 12.751 19.2V17.5223C13.4272 17.468 14.1042 17.3284 14.6871 17.0525C15.4064 16.712 16.0241 16.1388 16.2409 15.2536C16.3976 14.6136 16.3993 14.0253 16.203 13.5032C16.004 12.9739 15.6351 12.6012 15.2158 12.3372C14.8075 12.0799 14.3324 11.9131 13.8702 11.7882C13.4381 11.6714 12.9727 11.5802 12.5333 11.4941L12.4373 11.4753C11.448 11.2811 10.6335 11.1017 10.082 10.7466C9.82792 10.583 9.65802 10.3978 9.55469 10.1747C9.45045 9.94973 9.38617 9.6261 9.4437 9.14169C9.49048 8.74787 9.6701 8.50452 9.95598 8.32645C10.2746 8.12799 10.7486 8.00171 11.3504 7.96285C12.552 7.88527 13.98 8.1725 14.8754 8.47368C15.268 8.60573 15.6933 8.39451 15.8254 8.00191C15.9574 7.6093 15.7462 7.18399 15.3536 7.05194C14.6781 6.82474 13.734 6.5999 12.751 6.5016V4.80005Z" fill="white"/>
</svg>
