<?xml version="1.0" encoding="UTF-8"?>
<svg id="Layer_2" data-name="Layer 2" xmlns="http://www.w3.org/2000/svg" viewBox="0 0 278.53 634.94">
  <defs>
    <style>
      .cls-1 {
        fill: #faed22;
        stroke-width: 0px;
      }
    </style>
  </defs>
  <g id="Layer_3" data-name="Layer 3">
    <path class="cls-1" d="M257.5,164.43c-5.06,9.83-10.18,18.29-14.96,26.94-4.89,8.85-9.91,17.63-14.88,26.43-4.88,8.64-9.77,17.28-14.65,25.93-4.97,8.8-9.95,17.6-14.92,26.41-4.87,8.65-9.71,17.32-14.58,25.96-4.87,8.65-9.77,17.28-14.65,25.93-4.97,8.8-9.99,17.58-14.91,26.42-4.79,8.62-9.85,17.1-14.6,26.11,2.57,1.03,4.55.48,6.47.26,8.39-.98,16.77-2.01,25.16-3.05,10.57-1.3,21.14-2.65,31.71-3.93,7.48-.91,14.96-1.74,22.44-2.63,4.56-.54,9.11-1.11,13.67-1.71,2.13-.28,4.25-.67,6.54-.3-.12,1.9-1.39,2.8-2.32,3.84-7.13,7.94-14.29,15.84-21.44,23.75-22.7,25.09-45.41,50.16-68.11,75.25-17.02,18.82-34.03,37.65-51.03,56.49-21.93,24.3-43.84,48.61-65.76,72.91-10.59,11.74-21.2,23.47-31.82,35.19-1.33,1.47-2.54,3.12-4.76,4.33,0-1-.22-1.72.04-2.19,1.49-2.74,3.08-5.44,4.66-8.13,24.29-41.38,48.58-82.75,72.87-124.13,6.24-10.62,12.47-21.24,18.69-31.87.63-1.07,1.13-2.22,1.73-3.42-1.59-1.23-3.07-.75-4.41-.57-5.83.76-11.64,1.63-17.46,2.47-9.27,1.34-18.54,2.68-27.81,4.02-9.09,1.31-18.17,2.63-27.26,3.92-3.23.46-6.48.83-10.16,1.29,2.14-5.83,5.36-10.55,7.88-15.61,2.63-5.26,5.5-10.4,8.26-15.59,2.67-5.03,5.33-10.07,7.99-15.11,2.67-5.04,5.34-10.07,8-15.11,2.66-5.04,5.31-10.09,7.97-15.12,2.75-5.2,5.51-10.39,8.27-15.59,2.67-5.03,5.34-10.07,8.01-15.1,2.67-5.03,5.35-10.06,8.02-15.1,2.76-5.2,5.52-10.39,8.26-15.59,2.66-5.04,5.28-10.1,7.94-15.14,2.66-5.04,5.35-10.06,8.02-15.1,2.68-5.03,5.35-10.06,8.02-15.1,2.76-5.2,5.53-10.38,8.24-15.6,2.6-5.01,5.47-9.89,7.58-14.9-.72-1.42-1.73-1.18-2.57-1.12-6.23.43-12.46.9-18.69,1.41-7.69.63-15.38,1.31-23.06,1.99-6.4.57-12.8,1.18-19.21,1.76-4.57.41-9.15.82-13.73,1.17-8.59.66-17.18,1.29-25.75,1.93-.44-1.57.75-2.12,1.45-2.86,9.14-9.58,18.29-19.14,27.46-28.7,13.75-14.33,27.53-28.64,41.27-42.97,16.8-17.52,33.57-35.06,50.36-52.6,16.15-16.87,32.3-33.74,48.45-50.61,16.91-17.67,33.83-35.32,50.73-53,11.31-11.83,22.58-23.7,33.9-35.52,1.23-1.28,2.19-2.98,4.13-3.44.84,1.29-.21,2.11-.71,2.97-8.35,14.28-16.74,28.54-25.11,42.81-19.72,33.61-39.44,67.23-59.15,100.85-4.19,7.14-8.38,14.27-12.53,21.42-.61,1.05-.99,2.24-1.67,3.81,1.31.17,2.16.44,2.98.37,5.67-.5,11.34-1.03,17.01-1.64,8.22-.89,16.42-1.87,24.64-2.79,9.31-1.04,18.62-2.05,27.93-3.05,1.62-.17,3.25-.19,5.92-.33Z"/>
  </g>
</svg>