<svg width="45" height="31" viewBox="0 0 45 31" fill="none" xmlns="http://www.w3.org/2000/svg">
<path fill-rule="evenodd" clip-rule="evenodd" d="M12.8258 16.992C17.8997 18.8178 23.1336 18.0389 28.143 16.4847C30.6482 15.7074 32.4622 17.8668 30.9939 19.508C30.1453 20.4565 28.4167 21.0735 27.1087 21.4248C27.1087 21.4248 26.1327 22.0599 26.1545 22.9326C26.19 23.1559 26.271 23.3747 26.3914 23.5677C26.8504 24.1113 27.8199 24.206 27.8199 24.206C34.9343 22.7578 45.2393 18.3008 38.8119 9.9626C38.1196 9.06443 37.2875 8.3355 36.3543 7.75002C36.3539 7.75002 36.3531 7.75002 36.3523 7.75002C36.173 7.6372 35.9896 7.52961 35.8027 7.42686C27.9984 3.15764 14.1334 7.82457 14.1334 7.82457C14.0351 7.75727 13.9323 7.6928 13.8247 7.63035C13.4145 7.39301 11.8592 7.95432 10.7148 8.3214C9.57003 8.68849 6.26587 10.179 5.05663 11.2585C3.84698 12.3384 4.88376 12.9214 4.88376 12.9214C4.57309 13.43 4.71493 13.7813 5.21901 14.2717C7.06451 16.0676 9.28354 16.8735 11.8165 17.2406C12.1239 17.2849 12.4692 17.1923 12.8258 16.992ZM11.3837 9.57376C12.5289 9.57376 13.4573 10.5021 13.4573 11.6473C13.4573 12.7921 12.5289 13.7205 11.3837 13.7205C10.2389 13.7205 9.31053 12.7921 9.31053 11.6473C9.31093 10.5017 10.2389 9.57376 11.3837 9.57376Z" fill="#8C8BFF"/>
<path fill-rule="evenodd" clip-rule="evenodd" d="M13.4374 11.9278C13.3189 12.7978 12.6605 13.4961 11.8111 13.6742C11.5218 14.2303 10.9222 15.7683 10.5293 17.0058C10.9484 17.0985 11.3771 17.175 11.8151 17.2387C12.1229 17.283 12.4687 17.1907 12.8249 16.9905C17.8988 18.8162 23.1327 18.0373 28.1421 16.4832C30.6472 15.7059 32.4613 17.8653 30.9929 19.5065C30.6936 19.8413 30.2838 20.1351 29.822 20.3901H29.8224C31.8573 19.5536 33.6052 17.9257 33.4142 15.8691C33.2237 13.8124 30.9337 12.9856 27.1174 14.1517C23.3011 15.3178 16.7286 15.4661 16.7286 15.4661C16.7286 15.4661 16.8556 14.6602 16.8983 12.7523C16.9406 10.8439 15.6072 9.65845 15.6072 9.65845C15.6072 9.65845 14.4544 10.8681 13.4374 11.9278Z" fill="#3A389B"/>
<path fill-rule="evenodd" clip-rule="evenodd" d="M13.9076 7.67968C13.6086 7.68371 13.3407 7.66275 13.1001 7.62044C13.4289 7.5604 13.6892 7.55194 13.8246 7.63011L13.9076 7.67968ZM39.7514 18.1825C40.2494 7.93877 22.2067 6.50267 14.8606 7.59747C17.8114 6.71542 29.0644 3.74128 35.8021 7.42703C35.9891 7.52978 36.1724 7.63737 36.3517 7.75019C36.3525 7.75019 36.3533 7.75019 36.3538 7.75019C37.287 8.33567 38.1191 9.0646 38.8113 9.96277C41.3914 13.3092 41.2741 16.0299 39.7514 18.1825Z" fill="#AFAEFF"/>
<path fill-rule="evenodd" clip-rule="evenodd" d="M4.88288 12.9209C4.88288 12.9209 3.84611 12.3379 5.05535 11.258C6.26499 10.1781 9.56916 8.68797 10.7139 8.32089C11.8587 7.9538 13.4137 7.3925 13.8239 7.62983C18.4759 10.3231 14.1039 17.5721 11.8152 17.2405C9.28225 16.8734 7.06323 16.0675 5.21774 14.2716C4.71405 13.7808 4.57181 13.4294 4.88288 12.9209Z" fill="#D0F1FF"/>
<path fill-rule="evenodd" clip-rule="evenodd" d="M15.8666 11.6298C15.6595 14.481 13.3002 17.4539 11.8158 17.2388C9.28283 16.8717 7.06381 16.0658 5.21831 14.2699C4.71423 13.7795 4.57239 13.4281 4.88306 12.9196C4.88306 12.9196 5.47297 12.9156 6.10923 12.7987C6.74508 12.6823 7.11619 12.9365 7.20121 13.2226C7.96076 15.7874 14.7387 16.7818 15.8666 11.6298Z" fill="#81DBFF"/>
<path fill-rule="evenodd" clip-rule="evenodd" d="M27.1084 21.4253C24.5364 20.9164 20.6294 20.3688 18.1001 21.7545C18.1001 21.7545 18.5321 22.5318 19.3529 22.7478C22.2694 23.5154 22.1586 23.7467 20.6052 26.5705C20.6052 26.5705 22.5776 27.8213 24.9317 26.2445C27.2857 24.6682 27.8196 24.206 27.8196 24.206C26.9299 23.7583 26.504 22.1538 27.1084 21.4253Z" fill="#D0F1FF"/>
<path fill-rule="evenodd" clip-rule="evenodd" d="M11.2817 9.66296C9.89998 9.66296 8.77979 10.7832 8.77979 12.1645C8.77979 13.5462 9.89998 14.6664 11.2817 14.6664C12.6634 14.6664 13.7836 13.5462 13.7836 12.1645C13.7832 10.7832 12.6634 9.66296 11.2817 9.66296Z" fill="#4EA8CC"/>
<path fill-rule="evenodd" clip-rule="evenodd" d="M21.1104 23.3283C22.0976 23.8424 21.7293 24.5283 20.6055 26.5712C20.6055 26.5712 22.5779 27.8219 24.9319 26.2452C27.2859 24.6689 27.8198 24.2067 27.8198 24.2067C27.3826 23.9867 27.0579 23.4874 26.9116 22.9503C20.8428 25.9861 24.6019 23.7937 21.1104 23.3283Z" fill="#81DBFF"/>
<path fill-rule="evenodd" clip-rule="evenodd" d="M11.3837 9.57288C10.2385 9.57288 9.31055 10.5013 9.31055 11.646C9.31055 12.7912 10.2385 13.7196 11.3837 13.7196C12.5289 13.7196 13.4569 12.7912 13.4569 11.646C13.4569 10.5009 12.5285 9.57288 11.3837 9.57288Z" fill="white"/>
<path fill-rule="evenodd" clip-rule="evenodd" d="M11.0784 10.6006C10.5481 10.6006 10.1182 11.0305 10.1182 11.5608C10.1182 12.0911 10.5481 12.521 11.0784 12.521C11.6087 12.521 12.0386 12.0911 12.0386 11.5608C12.0386 11.0305 11.6087 10.6006 11.0784 10.6006Z" fill="#003333"/>
<path fill-rule="evenodd" clip-rule="evenodd" d="M26.4213 6.27862C26.0248 6.14767 26.0986 6.01751 26.5781 5.65164C27.2562 5.13385 34.9815 1.88489 37.8674 2.10168C39.3595 2.2137 39.1057 3.64899 38.8893 4.77483C38.5222 6.68399 37.3311 8.61571 35.7161 8.47146C33.134 6.84758 29.765 6.29434 26.4213 6.27862Z" fill="#D0F1FF"/>
<path fill-rule="evenodd" clip-rule="evenodd" d="M26.4211 6.27777C26.077 6.16413 26.0875 6.0509 26.4095 5.78375C26.4095 5.78375 29.0056 5.33326 32.8429 5.60887C36.6806 5.88449 38.6961 5.4759 39.0451 3.25244C39.0862 3.72711 38.9842 4.28036 38.8891 4.77357C38.522 6.68273 37.3305 8.61445 35.7159 8.4702C33.1338 6.84672 29.7648 6.29348 26.4211 6.27777Z" fill="#81DBFF"/>
<path d="M33.8825 24.7302C33.6794 24.7302 33.4936 24.594 33.4392 24.3885C33.3743 24.1435 33.5206 23.8925 33.7656 23.8276C36.477 23.112 41.1077 20.9014 42.7521 17.7459C43.4283 16.448 43.5234 15.1159 43.035 13.7858C42.9476 13.548 43.0696 13.2845 43.3074 13.1971C43.5451 13.11 43.809 13.2317 43.8961 13.4695C44.4771 15.0522 44.3663 16.6338 43.5657 18.1698C41.8971 21.372 37.4377 23.8071 33.9997 24.7145C33.9606 24.725 33.9211 24.7302 33.8825 24.7302Z" fill="#193EDD"/>
<path d="M24.8913 30.463C22.3536 30.463 19.8908 30.0516 17.8333 29.1071C17.6028 29.0007 17.5017 28.7283 17.6073 28.4974C17.7136 28.2665 17.9872 28.1666 18.2169 28.271C23.9138 30.8861 32.8963 29.2022 37.3944 26.0552C37.6023 25.9089 37.8892 25.9605 38.0342 26.168C38.1797 26.3763 38.1289 26.6628 37.921 26.8083C34.8368 28.966 29.7287 30.463 24.8913 30.463Z" fill="#193EDD"/>
<path d="M17.3743 24.7515C17.1583 24.7515 15.3676 24.7233 12.8472 23.8348C10.2909 22.9338 8.43051 21.2346 8.32292 19.703C8.30519 19.45 8.49578 19.2308 8.74843 19.213C9.00148 19.1945 9.22028 19.3863 9.23801 19.6385C9.30611 20.6084 10.7007 22.1058 13.1518 22.9701C15.6203 23.8397 17.3634 23.832 17.3832 23.8344C17.3844 23.8344 17.386 23.8344 17.3872 23.8344C17.6386 23.8344 17.8437 24.0367 17.8462 24.2885C17.8486 24.5416 17.6463 24.7491 17.3928 24.7519C17.3904 24.7515 17.384 24.7515 17.3743 24.7515Z" fill="#193EDD"/>
<path fill-rule="evenodd" clip-rule="evenodd" d="M9.89977 24.6262C10.7633 24.6262 11.4636 25.3261 11.4636 26.1901C11.4636 27.0536 10.7637 27.7539 9.89977 27.7539C9.03626 27.7539 8.33594 27.0536 8.33594 26.1901C8.33634 25.3261 9.03626 24.6262 9.89977 24.6262Z" fill="#103DFF"/>
<path fill-rule="evenodd" clip-rule="evenodd" d="M10.4336 24.6262C11.0029 24.6262 11.4643 25.0876 11.4643 25.657C11.4643 26.2259 11.0029 26.6877 10.4336 26.6877C9.86421 26.6877 9.40283 26.2263 9.40283 25.657C9.40283 25.0876 9.86421 24.6262 10.4336 24.6262Z" fill="#C6C5FF"/>
<path fill-rule="evenodd" clip-rule="evenodd" d="M41.9907 7.49207C42.5931 7.49207 43.0815 7.98043 43.0815 8.58284C43.0815 9.18524 42.5931 9.67362 41.9907 9.67362C41.3883 9.67362 40.8999 9.18524 40.8999 8.58284C40.8999 7.98043 41.3883 7.49207 41.9907 7.49207Z" fill="#103DFF"/>
<path d="M2.06389 19.3568C0.925969 19.3568 0 18.4312 0 17.2937C0 16.1558 0.925566 15.2302 2.06389 15.2302C3.20181 15.2302 4.12738 16.1558 4.12738 17.2937C4.12738 18.4312 3.20181 19.3568 2.06389 19.3568ZM2.06389 16.1344C1.42482 16.1344 0.905019 16.6546 0.905019 17.2937C0.905019 17.9328 1.42522 18.4526 2.06389 18.4526C2.70256 18.4526 3.22277 17.9328 3.22277 17.2937C3.22277 16.6546 2.70296 16.1344 2.06389 16.1344Z" fill="#193EDD"/>
<path d="M22.4356 4.12738C21.2976 4.12738 20.3721 3.20181 20.3721 2.06349C20.3721 0.925566 21.2976 0 22.4356 0C23.5735 0 24.4991 0.925566 24.4991 2.06349C24.4991 3.20141 23.5735 4.12738 22.4356 4.12738ZM22.4356 0.904613C21.7965 0.904613 21.2767 1.42441 21.2767 2.06349C21.2767 2.70256 21.7965 3.22236 22.4356 3.22236C23.0746 3.22236 23.5944 2.70216 23.5944 2.06349C23.5944 1.42482 23.0746 0.904613 22.4356 0.904613Z" fill="#193EDD"/>
<path d="M4.08037 8.1063C5.8636 8.1063 7.30919 6.66072 7.30919 4.87749C7.30919 3.09427 5.8636 1.64868 4.08037 1.64868C2.29715 1.64868 0.851562 3.09427 0.851562 4.87749C0.851562 6.66072 2.29715 8.1063 4.08037 8.1063Z" fill="#193EDD"/>
<path d="M4.07984 8.55938C2.0502 8.55938 0.398926 6.9081 0.398926 4.87806C0.398926 2.84842 2.0502 1.19714 4.07984 1.19714C6.10948 1.19714 7.76076 2.84842 7.76076 4.87806C7.76076 6.9081 6.10948 8.55938 4.07984 8.55938ZM4.07984 2.10216C2.54905 2.10216 1.30354 3.34767 1.30354 4.87846C1.30354 6.40926 2.54905 7.65517 4.07984 7.65517C5.61063 7.65517 6.85614 6.40966 6.85614 4.87846C6.85614 3.34767 5.61063 2.10216 4.07984 2.10216Z" fill="#103DFF"/>
<path fill-rule="evenodd" clip-rule="evenodd" d="M4.31246 9.13477C4.8919 9.13477 5.36173 9.6046 5.36173 10.184C5.36173 10.7635 4.8919 11.2333 4.31246 11.2333C3.73302 11.2333 3.26318 10.7635 3.26318 10.184C3.26318 9.6046 3.73302 9.13477 4.31246 9.13477Z" fill="#103DFF"/>
<path d="M5.75097 6.19253C5.68932 6.19253 5.62687 6.18003 5.56723 6.15344C5.33876 6.0519 5.23601 5.78434 5.33755 5.55627C5.57126 5.03164 5.56119 4.50136 5.31015 4.06295C5.0563 3.61971 4.59492 3.33926 4.01105 3.27399C3.76284 3.24618 3.58393 3.02214 3.61173 2.77393C3.63954 2.52531 3.86237 2.34721 4.11179 2.37461C4.97692 2.47172 5.6998 2.92302 6.09509 3.61286C6.48756 4.29787 6.51255 5.14003 6.164 5.92336C6.08986 6.09219 5.92424 6.19253 5.75097 6.19253Z" fill="#CCCBFF"/>
</svg>
