<svg width="53" height="33" viewBox="0 0 53 33" fill="none" xmlns="http://www.w3.org/2000/svg">
<path fill-rule="evenodd" clip-rule="evenodd" d="M36.4686 11.7968C36.4686 11.7968 38.1936 11.6412 40.4598 11.2807C41.1879 11.1647 41.6954 11.0675 42.0493 10.9887C42.7668 10.8292 43.4467 10.9738 44.0369 11.4119C44.3229 11.6239 44.591 11.8767 44.7481 12.1561C45.2117 12.9802 45.4049 13.9591 45.4049 13.9591C45.4049 13.9591 44.6063 14.1782 44.0526 14.2808C43.8766 14.3134 43.5596 14.3835 43.2088 14.4635C42.0505 14.7284 41.001 14.706 39.8552 14.3921L35.3063 13.1468L34.3008 12.3454L36.4686 11.7968Z" fill="#D62D4F"/>
<path fill-rule="evenodd" clip-rule="evenodd" d="M45.4039 13.959C45.4039 13.959 45.8291 15.9548 45.6617 17.5387C45.4944 19.1227 44.8247 22.3807 44.8247 22.3807L43.3568 22.5097C43.3568 22.5097 42.6424 20.0314 42.7129 18.7238C42.7834 17.4157 44.0519 14.6158 44.0519 14.6158L44.2106 14.2498L45.4039 13.959Z" fill="#D62D4F"/>
<path fill-rule="evenodd" clip-rule="evenodd" d="M44.8258 22.3809C44.8258 22.3809 45.1096 23.81 44.9101 24.8148C44.7106 25.8192 43.2168 27.4999 43.2168 27.4999C43.2168 27.4999 43.4359 26.4375 43.629 25.4908C43.8222 24.5444 43.3583 22.5098 43.3583 22.5098L44.8258 22.3809Z" fill="#FF9500"/>
<path fill-rule="evenodd" clip-rule="evenodd" d="M17.956 14.4257C16.8427 14.0934 18.9804 12.0329 18.9804 12.0329L25.7026 10.5391L26.3107 11.1277L26.9189 10.5391L33.6411 12.0329C33.6411 12.0329 35.7788 14.0934 34.6655 14.4257C32.5039 15.0707 20.1172 15.0707 17.956 14.4257Z" fill="#D62D4F"/>
<path fill-rule="evenodd" clip-rule="evenodd" d="M16.1541 11.7968C16.1541 11.7968 14.429 11.6412 12.1628 11.2807C11.4347 11.1647 10.9272 11.0675 10.5734 10.9887C9.85586 10.8292 9.17595 10.9738 8.58579 11.4119C8.29972 11.6239 8.03168 11.8767 7.87454 12.1561C7.41095 12.9802 7.21777 13.9591 7.21777 13.9591C7.21777 13.9591 8.01641 14.1782 8.57012 14.2808C8.74607 14.3134 9.06311 14.3835 9.41383 14.4635C10.5722 14.7284 11.6216 14.706 12.7675 14.3921L17.3159 13.1468L18.3215 12.3454L16.1541 11.7968Z" fill="#D62D4F"/>
<path fill-rule="evenodd" clip-rule="evenodd" d="M7.21774 13.959C7.21774 13.959 6.79258 15.9548 6.95991 17.5387C7.12724 19.1227 7.79694 22.3807 7.79694 22.3807L9.26489 22.5097C9.26489 22.5097 9.97928 20.0314 9.90874 18.7238C9.8382 17.4157 8.56971 14.6158 8.56971 14.6158L8.41101 14.2498L7.21774 13.959Z" fill="#D62D4F"/>
<path fill-rule="evenodd" clip-rule="evenodd" d="M9.26503 22.508C9.26503 22.508 9.97942 20.0297 9.90888 18.7221C9.83834 17.414 8.56985 14.6141 8.56985 14.6141L8.41113 14.248C8.41113 14.248 8.98718 18.2307 8.96249 18.8306C8.9378 19.4306 9.26503 22.508 9.26503 22.508Z" fill="#FF375F"/>
<path fill-rule="evenodd" clip-rule="evenodd" d="M7.79676 22.3809C7.79676 22.3809 7.51305 23.81 7.71291 24.8148C7.91237 25.8192 9.40618 27.4999 9.40618 27.4999C9.40618 27.4999 9.18713 26.4375 8.99393 25.4908C8.80074 24.5444 9.26471 22.5098 9.26471 22.5098L7.79676 22.3809Z" fill="#FF9500"/>
<path fill-rule="evenodd" clip-rule="evenodd" d="M10.4442 2.95062C10.4442 2.95062 8.70585 1.17348 7.00591 0.60683C5.30596 0.040181 5.30595 0.0401813 5.30595 0.0401813L6.00116 0.632694C6.00116 0.632694 2.98765 -0.217279 1.49383 0.0531135C4.57806e-06 0.323506 0 0.323505 0 0.323505C0 0.323505 4.35293 1.97172 4.90664 2.5901C5.46036 3.20808 5.1641 3.33701 4.224 3.33701C3.28389 3.33701 0.438107 3.34994 0.438107 3.34994C0.438107 3.34994 0.296636 3.54314 1.48127 4.32884C2.6659 5.11455 5.78249 6.51824 7.89429 6.8141C10.0065 7.11036 11.088 6.89169 11.088 6.89169C10.5379 6.21689 9.99433 4.90019 10.4442 2.95062Z" fill="#FF9500"/>
<path fill-rule="evenodd" clip-rule="evenodd" d="M20.2159 13.1349C20.2159 13.1349 19.3773 14.8349 17.8831 15.6073C16.3889 16.38 12.8769 16.8436 12.8769 16.8436L11.5928 15.6978C11.5928 15.6978 12.8115 14.1138 13.7289 13.8047C14.6462 13.4955 18.7217 12.2207 18.7217 12.2207L20.4385 12.4652L20.2159 13.1349Z" fill="#FF375F"/>
<path fill-rule="evenodd" clip-rule="evenodd" d="M11.7773 15.4706C12.1528 15.0207 13.0286 14.0414 13.7292 13.8055C14.3402 13.5998 16.3528 12.9653 17.6284 12.5645C17.6284 12.5645 15.5856 14.1539 14.263 14.5947C12.9424 15.0348 11.7805 15.469 11.7773 15.4706Z" fill="#FF6E8B"/>
<path fill-rule="evenodd" clip-rule="evenodd" d="M11.5926 15.6992C11.5926 15.6992 10.9111 17.4505 10.9111 18.5838C10.9111 19.7171 11.6451 23.2455 11.6451 23.2455L12.8246 23.3357C12.8246 23.3357 13.7291 21.7646 13.6766 20.5541C13.6241 19.3436 13.2702 17.9141 13.1393 17.5406C13.0084 17.1672 12.8772 16.8451 12.8772 16.8451L11.5926 15.6992Z" fill="#FF375F"/>
<path fill-rule="evenodd" clip-rule="evenodd" d="M11.5926 15.6992C11.5926 15.6992 10.9111 17.4505 10.9111 18.5838C10.9111 19.7171 11.6451 23.2455 11.6451 23.2455L12.8246 23.3357L12.0852 22.838C12.0852 22.838 11.9261 22.2991 12.1463 21.3806C12.3665 20.462 12.1463 18.5764 12.0241 17.621C11.9014 16.6656 11.5926 15.6992 11.5926 15.6992Z" fill="#D62D4F"/>
<path fill-rule="evenodd" clip-rule="evenodd" d="M32.4472 13.1349C32.4472 13.1349 33.2858 14.8349 34.78 15.6073C36.2742 16.38 39.7862 16.8436 39.7862 16.8436L41.0704 15.6978C41.0704 15.6978 39.8516 14.1138 38.9343 13.8047C38.0169 13.4955 33.9414 12.2207 33.9414 12.2207L32.2246 12.4652L32.4472 13.1349Z" fill="#FF375F"/>
<path fill-rule="evenodd" clip-rule="evenodd" d="M41.0706 15.6992C41.0706 15.6992 41.752 17.4505 41.752 18.5838C41.752 19.7171 41.0181 23.2455 41.0181 23.2455L39.8385 23.3357C39.8385 23.3357 38.9341 21.7646 38.9866 20.5541C39.0391 19.3436 39.3929 17.9141 39.5238 17.5406C39.6547 17.1672 39.786 16.8451 39.786 16.8451L41.0706 15.6992Z" fill="#FF375F"/>
<path fill-rule="evenodd" clip-rule="evenodd" d="M41.0176 23.2441C41.0176 23.2441 41.4306 25.7553 40.0152 27.2746C38.5997 28.7942 38.1279 28.8714 38.1279 28.8714C38.1279 28.8714 38.9665 27.8153 39.2812 26.5276C39.5959 25.2399 39.8381 23.3339 39.8381 23.3339L41.0176 23.2441Z" fill="#FF9500"/>
<path fill-rule="evenodd" clip-rule="evenodd" d="M11.6459 23.2441C11.6459 23.2441 11.2329 25.7553 12.6484 27.2746C14.0638 28.7942 14.5356 28.8714 14.5356 28.8714C14.5356 28.8714 13.697 27.8153 13.3823 26.5276C13.0677 25.2399 12.8255 23.3339 12.8255 23.3339L11.6459 23.2441Z" fill="#FF9500"/>
<path fill-rule="evenodd" clip-rule="evenodd" d="M35.2226 10.2302C35.2226 10.2302 36.4469 8.23204 36.4723 6.66102C36.4982 5.09 33.4847 3.72471 32.0167 3.41592C28.716 2.72074 23.9049 2.72074 20.6042 3.41592C19.1362 3.72511 16.1227 5.09 16.1486 6.66102C16.1741 8.23204 17.3983 10.2302 17.3983 10.2302L22.4213 12.469L24.1052 11.8894C25.5943 11.3768 27.0258 11.3768 28.5149 11.8894L30.1988 12.469L35.2226 10.2302Z" fill="#FF9500"/>
<path fill-rule="evenodd" clip-rule="evenodd" d="M36.3605 6.11357C35.8056 4.78199 33.3106 3.68866 32.0162 3.41592C28.7155 2.72074 23.9044 2.72074 20.6037 3.41592C19.3834 3.6726 17.0961 4.65933 16.373 5.88707C16.9875 5.50343 19.8007 4.32311 21.3894 4.62289C23.1097 4.94736 23.6854 6.76683 26.4403 6.63437C28.8417 6.51877 29.5388 5.35256 31.2913 5.25655C33.4054 5.14095 36.3457 6.10535 36.3605 6.11357Z" fill="#FFB957"/>
<path fill-rule="evenodd" clip-rule="evenodd" d="M36.427 7.14453C36.427 7.14453 35.3255 8.96204 33.8807 9.36606C32.4354 9.77008 29.3314 9.7019 29.0802 10.8477C28.829 11.9936 29.362 12.4521 29.9741 12.7824C30.4769 13.0536 33.1949 12.443 34.7036 10.8991C35.5273 10.0561 36.277 8.31466 36.427 7.14453Z" fill="#D97F00"/>
<path fill-rule="evenodd" clip-rule="evenodd" d="M16.1914 7.14453C16.1914 7.14453 17.2926 8.96204 18.7378 9.36606C20.183 9.77008 23.287 9.7019 23.5382 10.8477C23.7894 11.9936 23.2565 12.4521 22.6444 12.7824C22.1416 13.0536 19.4236 12.443 17.9149 10.8991C17.0912 10.0561 16.3411 8.31466 16.1914 7.14453Z" fill="#D97F00"/>
<path fill-rule="evenodd" clip-rule="evenodd" d="M33.4726 10.6253C33.4726 10.6253 31.5928 10.3161 30.82 10.6253C30.0473 10.9341 29.4547 11.7586 29.9183 12.2481C30.3819 12.7375 32.2621 13.4068 33.3437 12.866C34.4253 12.3253 35.1722 12.866 37.1296 11.3209C39.087 9.77573 39.937 8.84856 39.937 8.84856L41.5339 6.89115C42.0844 6.21634 42.6276 4.90004 42.1777 2.95047C42.1777 2.95047 41.1988 2.43555 39.8339 2.79607C38.4694 3.1566 37.8255 5.26723 37.8251 5.2684V5.26919C37.815 5.30014 36.4575 9.51983 35.7392 9.98146C35.0182 10.445 33.4726 10.6253 33.4726 10.6253Z" fill="#FF375F"/>
<path fill-rule="evenodd" clip-rule="evenodd" d="M22.4516 3.84961C23.7067 3.84961 24.7244 4.92021 24.7244 6.24082C24.7244 7.56143 23.7067 8.63242 22.4516 8.63242C21.1964 8.63242 20.1787 7.56182 20.1787 6.24082C20.1787 4.91981 21.196 3.84961 22.4516 3.84961Z" fill="#D97F00"/>
<path fill-rule="evenodd" clip-rule="evenodd" d="M19.1497 10.6253C19.1497 10.6253 21.0299 10.3161 21.8022 10.6253C22.575 10.9345 23.1675 11.7586 22.7035 12.2481C22.24 12.7375 20.3602 13.4068 19.2782 12.866C18.1966 12.3253 17.4497 12.866 15.4923 11.3209C13.5349 9.77573 12.6849 8.84856 12.6849 8.84856L11.088 6.89115C10.5375 6.21634 9.99431 4.90004 10.4442 2.95047C10.4442 2.95047 11.4231 2.43555 12.788 2.79607C14.1529 3.1566 14.7967 5.2684 14.7967 5.2684C14.7967 5.2684 16.1616 9.51787 16.8827 9.98146C17.6045 10.445 19.1497 10.6253 19.1497 10.6253Z" fill="#FF375F"/>
<path fill-rule="evenodd" clip-rule="evenodd" d="M10.7871 2.81827C11.1872 2.69522 11.9071 2.56355 12.788 2.79593C14.1529 3.15646 14.7968 5.26826 14.7968 5.26826C14.7968 5.26826 15.6032 7.779 16.3039 9.15133C15.6322 7.98316 13.9448 5.0978 13.2085 4.28388C12.2782 3.25482 11.3526 2.90174 10.7871 2.81827Z" fill="#FF6E8B"/>
<path fill-rule="evenodd" clip-rule="evenodd" d="M22.7035 12.2488C22.24 12.7382 20.3601 13.4075 19.2782 12.8667C18.1966 12.326 17.4497 12.8667 15.4923 11.3216C13.5349 9.77643 12.6849 8.84926 12.6849 8.84926L11.088 6.89185C10.5375 6.21704 9.99431 4.90074 10.4442 2.95117C10.2749 3.90342 15.8512 10.5273 16.2964 10.8494C17.4085 11.6547 19.8636 12.2135 22.7035 12.2488Z" fill="#D62D4F"/>
<path fill-rule="evenodd" clip-rule="evenodd" d="M42.1771 2.95062C42.1771 2.95062 43.9158 1.17348 45.6153 0.60683C47.3153 0.040181 47.3153 0.0401813 47.3153 0.0401813L46.6201 0.632694C46.6201 0.632694 49.6336 -0.217279 51.1274 0.0531135C52.6212 0.323506 52.6212 0.323505 52.6212 0.323505C52.6212 0.323505 48.2683 1.97172 47.7146 2.5901C47.1609 3.20808 47.4571 3.33701 48.3973 3.33701C49.3374 3.33701 52.1831 3.34994 52.1831 3.34994C52.1831 3.34994 52.3246 3.54314 51.14 4.32884C49.9553 5.11455 46.8388 6.51824 44.727 6.8141C42.6148 7.11036 41.5332 6.89169 41.5332 6.89169C42.0838 6.21689 42.6269 4.90019 42.1771 2.95062Z" fill="#FF9500"/>
<path fill-rule="evenodd" clip-rule="evenodd" d="M42.5918 2.55797C43.2078 2.00111 44.4214 1.00497 45.6159 0.606831C47.3158 0.0401824 47.3158 0.0401813 47.3158 0.0401813L46.6206 0.632694C46.6206 0.632694 49.6341 -0.217279 51.128 0.0531135L51.3615 0.0954364C51.3611 0.0950446 44.9599 1.46895 42.5918 2.55797Z" fill="#FFB957"/>
<path fill-rule="evenodd" clip-rule="evenodd" d="M52.6214 0.324219C52.6214 0.324219 48.2685 1.97244 47.7147 2.59081C47.1979 3.16765 47.4216 3.31852 48.2187 3.33616C46.1531 3.32832 45.8957 2.4611 46.7523 1.89798C47.6097 1.33486 52.6214 0.324219 52.6214 0.324219Z" fill="#D97F00"/>
<path fill-rule="evenodd" clip-rule="evenodd" d="M52.1831 3.3501C52.1831 3.3501 52.3246 3.54329 51.14 4.329C49.9553 5.11471 46.8388 6.51839 44.727 6.81426C42.6148 7.11051 41.5332 6.89185 41.5332 6.89185C42.0838 6.21704 42.6269 4.90074 42.1771 2.95117C42.1771 2.95117 42.8448 3.87012 43.0164 4.3964C43.1881 4.92308 45.4167 5.31495 47.6699 4.75144C49.9232 4.18792 52.1831 3.3501 52.1831 3.3501Z" fill="#D97F00"/>
<path fill-rule="evenodd" clip-rule="evenodd" d="M22.4516 2.98242C23.7067 2.98242 24.7244 4.00012 24.7244 5.25529C24.7244 6.51046 23.7067 7.52815 22.4516 7.52815C21.1964 7.52815 20.1787 6.51046 20.1787 5.25529C20.1787 4.00012 21.196 2.98242 22.4516 2.98242Z" fill="white"/>
<path fill-rule="evenodd" clip-rule="evenodd" d="M30.2846 3.84961C31.5398 3.84961 32.5575 4.92021 32.5575 6.24082C32.5575 7.56143 31.5398 8.63242 30.2846 8.63242C29.0294 8.63242 28.0117 7.56182 28.0117 6.24082C28.0117 4.91981 29.029 3.84961 30.2846 3.84961Z" fill="#D97F00"/>
<path fill-rule="evenodd" clip-rule="evenodd" d="M22.451 4.20117C23.0325 4.20117 23.5036 4.67221 23.5036 5.25375C23.5036 5.83528 23.0321 6.30632 22.451 6.30632C21.8699 6.30632 21.3984 5.83528 21.3984 5.25375C21.3984 4.67221 21.8695 4.20117 22.451 4.20117Z" fill="#003333"/>
<path fill-rule="evenodd" clip-rule="evenodd" d="M30.2397 2.98242C31.4948 2.98242 32.5125 4.00012 32.5125 5.25529C32.5125 6.51046 31.4948 7.52815 30.2397 7.52815C28.9845 7.52815 27.9668 6.51046 27.9668 5.25529C27.9668 4.00012 28.9841 2.98242 30.2397 2.98242Z" fill="white"/>
<path fill-rule="evenodd" clip-rule="evenodd" d="M30.2391 4.20117C30.8206 4.20117 31.2916 4.67221 31.2916 5.25375C31.2916 5.83528 30.8206 6.30632 30.2391 6.30632C29.6579 6.30632 29.1865 5.83528 29.1865 5.25375C29.1865 4.67221 29.6575 4.20117 30.2391 4.20117Z" fill="#003333"/>
<path fill-rule="evenodd" clip-rule="evenodd" d="M0.000976562 0.324219C0.000976562 0.324219 4.3539 1.97244 4.90762 2.59081C5.4245 3.16765 5.20076 3.31852 4.40369 3.33616C6.46925 3.32832 6.72669 2.4611 5.87006 1.89798C5.01303 1.33486 0.000976562 0.324219 0.000976562 0.324219Z" fill="#D97F00"/>
<path fill-rule="evenodd" clip-rule="evenodd" d="M0.437876 3.3501C0.437876 3.3501 0.296405 3.54329 1.48104 4.329C2.66567 5.11471 5.78223 6.51839 7.89404 6.81426C10.0062 7.11051 11.0878 6.89185 11.0878 6.89185C10.5372 6.21704 9.99409 4.90074 10.444 2.95117C10.444 2.95117 9.77622 3.87012 9.60497 4.3964C9.43333 4.92308 7.20474 5.31495 4.95147 4.75144C2.69781 4.18792 0.437876 3.3501 0.437876 3.3501Z" fill="#D97F00"/>
<path fill-rule="evenodd" clip-rule="evenodd" d="M29.918 12.2488C30.3816 12.7382 32.2614 13.4075 33.3433 12.8667C34.4249 12.326 35.1718 12.8667 37.1292 11.3216C39.0866 9.77643 39.9366 8.84926 39.9366 8.84926L41.5335 6.89185C42.0841 6.21704 42.6272 4.90074 42.1773 2.95117C42.3466 3.90342 36.7703 10.5273 36.3251 10.8494C35.2126 11.6547 32.7579 12.2135 29.918 12.2488Z" fill="#D62D4F"/>
<path fill-rule="evenodd" clip-rule="evenodd" d="M41.0699 15.6992C41.0699 15.6992 41.7514 17.4505 41.7514 18.5838C41.7514 19.7171 41.0174 23.2455 41.0174 23.2455L39.8379 23.3357L40.5773 22.838C40.5773 22.838 40.7364 22.2991 40.5162 21.3806C40.296 20.462 40.5162 18.5764 40.6385 17.621C40.7615 16.6656 41.0699 15.6992 41.0699 15.6992Z" fill="#D62D4F"/>
<path fill-rule="evenodd" clip-rule="evenodd" d="M43.4027 22.508C43.4027 22.508 42.6879 20.0297 42.7589 18.7221C42.8294 17.414 44.0979 14.6141 44.0979 14.6141L44.2566 14.248C44.2566 14.248 43.6806 18.2307 43.7052 18.8306C43.7295 19.4306 43.4027 22.508 43.4027 22.508Z" fill="#FF375F"/>
<path d="M11.1705 31.0783C8.46777 31.0783 6.67066 30.534 6.55388 30.498C6.31876 30.4247 6.18747 30.1751 6.26036 29.9399C6.33325 29.7044 6.5817 29.5735 6.81839 29.6456C6.86111 29.6586 11.1764 30.9561 16.4585 29.447C17.0145 29.2883 17.5244 29.1405 17.9958 29.0038C22.1622 27.7956 23.4201 27.4308 27.0426 28.0648C27.2852 28.1072 27.4478 28.3384 27.4051 28.5809C27.3623 28.8235 27.1296 28.9846 26.8886 28.9434C23.4691 28.3454 22.3624 28.666 18.2439 29.8604C17.7716 29.9976 17.2606 30.1457 16.7034 30.3048C14.6523 30.891 12.7556 31.0783 11.1705 31.0783Z" fill="#825617"/>
<path d="M34.5583 27.6306C34.5027 27.6306 34.4458 27.6204 34.391 27.5981C27.0457 24.6242 20.9846 26.2289 18.0248 27.45C17.7967 27.5444 17.5365 27.4355 17.4421 27.2078C17.348 26.9797 17.4566 26.7191 17.6846 26.6251C23.0126 24.4275 29.0646 24.4792 34.7256 26.7709C34.9541 26.8633 35.0642 27.1235 34.9717 27.3516C34.9016 27.5252 34.7346 27.6306 34.5583 27.6306Z" fill="#825617"/>
<path fill-rule="evenodd" clip-rule="evenodd" d="M6.249 27.5059C5.84655 27.5059 5.52051 27.8319 5.52051 28.2343C5.52051 28.6368 5.84655 28.9628 6.249 28.9628C6.65146 28.9628 6.97788 28.6364 6.97788 28.2343C6.97788 27.8323 6.65146 27.5059 6.249 27.5059Z" fill="#D97F00"/>
<path fill-rule="evenodd" clip-rule="evenodd" d="M37.4033 25.3516C37.0008 25.3516 36.6748 25.6776 36.6748 26.0801C36.6748 26.4825 37.0012 26.8089 37.4033 26.8089C37.8054 26.8089 38.1318 26.4825 38.1318 26.0801C38.1322 25.678 37.8058 25.3516 37.4033 25.3516Z" fill="#D97F00"/>
<path fill-rule="evenodd" clip-rule="evenodd" d="M9.36755 30.6211C8.9651 30.6211 8.63867 30.9475 8.63867 31.3496C8.63867 31.7516 8.9651 32.0785 9.36755 32.0785C9.77 32.0785 10.096 31.752 10.096 31.3496C10.096 30.9471 9.77 30.6211 9.36755 30.6211Z" fill="#D97F00"/>
<path fill-rule="evenodd" clip-rule="evenodd" d="M16.2679 26.9473C15.8655 26.9473 15.5391 27.2737 15.5391 27.6758C15.5391 28.0778 15.8655 28.4042 16.2679 28.4042C16.6704 28.4042 16.9964 28.0778 16.9964 27.6758C16.9964 27.2737 16.6704 26.9473 16.2679 26.9473Z" fill="#D97F00"/>
<path fill-rule="evenodd" clip-rule="evenodd" d="M42.083 27.5332C41.6805 27.5332 41.3545 27.8592 41.3545 28.2617C41.3545 28.6641 41.6809 28.9902 42.083 28.9902C42.4854 28.9902 42.8119 28.6638 42.8119 28.2617C42.8119 27.8592 42.4854 27.5332 42.083 27.5332Z" fill="#D97F00"/>
<path fill-rule="evenodd" clip-rule="evenodd" d="M46.706 26.2129C46.3036 26.2129 45.9775 26.5393 45.9775 26.9414C45.9775 27.3438 46.3036 27.6699 46.706 27.6699C47.1085 27.6699 47.4349 27.3438 47.4349 26.9414C47.4349 26.5389 47.1085 26.2129 46.706 26.2129Z" fill="#D97F00"/>
<path d="M27.4518 32.4711C24.749 32.4711 22.9519 31.9268 22.8351 31.8907C22.6 31.8174 22.4687 31.5678 22.5416 31.3327C22.6145 31.0976 22.8633 30.9655 23.0996 31.0384C23.1424 31.0513 27.4573 32.3488 32.7397 30.8397C33.2958 30.681 33.8056 30.5333 34.277 30.3965C38.4438 29.1884 39.701 28.8231 43.3238 29.4576C43.5664 29.4999 43.729 29.7311 43.6863 29.9737C43.6436 30.2163 43.4108 30.3777 43.1698 30.3362C39.7503 29.7382 38.6437 30.0587 34.5251 31.2531C34.0529 31.3903 33.5419 31.5384 32.9847 31.6975C30.9332 32.2842 29.0369 32.4711 27.4518 32.4711Z" fill="#825617"/>
<path fill-rule="evenodd" clip-rule="evenodd" d="M10.0295 2.55797C9.41346 2.00111 8.19983 1.00497 7.00541 0.606831C5.30546 0.0401824 5.30545 0.0401813 5.30545 0.0401813L6.00066 0.632694C6.00066 0.632694 2.98715 -0.217279 1.49333 0.0531135L1.25977 0.0954364C1.26016 0.0950446 7.66179 1.46895 10.0295 2.55797Z" fill="#FFB957"/>
<path fill-rule="evenodd" clip-rule="evenodd" d="M41.885 2.81827C41.4849 2.69522 40.765 2.56355 39.8841 2.79593C38.5192 3.15646 37.8753 5.26826 37.8753 5.26826C37.8753 5.26826 37.0688 7.779 36.3682 9.15133C37.0398 7.98316 38.7273 5.0978 39.4636 4.28388C40.3939 3.25482 41.3195 2.90174 41.885 2.81827Z" fill="#FF6E8B"/>
<path fill-rule="evenodd" clip-rule="evenodd" d="M40.8892 15.4706C40.5137 15.0207 39.6379 14.0414 38.9372 13.8055C38.3263 13.5998 36.3136 12.9653 35.0381 12.5645C35.0381 12.5645 37.0809 14.1539 38.4035 14.5947C39.7237 15.0348 40.8856 15.469 40.8892 15.4706Z" fill="#FF6E8B"/>
</svg>
