<svg width="55" height="39" viewBox="0 0 55 39" fill="none" xmlns="http://www.w3.org/2000/svg">
<path fill-rule="evenodd" clip-rule="evenodd" d="M10.0794 13.2981C3.70038 5.20394 9.74122 -3.31999 18.9552 1.3076C21.8253 2.7491 23.9396 2.61553 25.8625 0.100156C25.8524 3.66599 20.973 3.66195 18.2462 2.57315C10.6751 -0.449085 7.07493 5.74794 12.0003 11.4728C12.5044 12.0031 12.483 12.8421 11.9523 13.3457C11.422 13.8501 10.583 13.8284 10.0794 13.2981Z" fill="#FF375F"/>
<path fill-rule="evenodd" clip-rule="evenodd" d="M9.66157 12.7417C6.26321 8.00313 7.03401 3.22501 10.1305 1.11804C6.41576 7.217 11.1628 11.0944 11.1628 11.0944C11.1628 11.0944 10.963 12.1767 10.7645 12.3506C10.6886 12.4168 10.2834 12.5807 9.66157 12.7417Z" fill="#C42A48"/>
<path fill-rule="evenodd" clip-rule="evenodd" d="M12.2537 10.9477L36.8965 12.4941C40.7666 12.7371 43.9434 15.6064 44.7117 19.2779C44.8841 20.1016 44.6964 20.8809 44.1673 21.535C43.6383 22.1896 42.9159 22.5371 42.0741 22.5411L36.7588 22.5673L17.9289 22.6614C15.6028 22.6731 13.5721 21.8329 11.8985 20.167C10.2254 18.5011 9.37549 16.4736 9.37549 14.1459V13.6503C9.37549 12.8747 9.66444 12.2072 10.2298 11.6761C10.7952 11.1455 11.4792 10.8989 12.2537 10.9477Z" fill="#FF5F7F"/>
<path fill-rule="evenodd" clip-rule="evenodd" d="M29.3085 22.6025C34.3897 22.0633 30.3485 13.5362 26.2657 11.8251L17.6094 11.2815C22.2281 13.0862 26.7992 22.0795 21.0469 22.6436L29.3085 22.6025Z" fill="#C42A48"/>
<path fill-rule="evenodd" clip-rule="evenodd" d="M26.2666 11.8252C30.3494 13.5367 34.3906 22.0638 29.3094 22.6026L36.7583 22.5655H37.0714L37.0876 22.5638C42.0207 22.0469 38.3128 14.253 34.3454 12.3321L26.2666 11.8252Z" fill="#FF375F"/>
<path fill-rule="evenodd" clip-rule="evenodd" d="M14.8657 18.4035C13.7737 18.2926 12.8887 18.937 12.8887 19.8434C12.8887 20.7498 13.7737 21.5751 14.8657 21.6861C15.9573 21.7975 16.8427 21.1526 16.8427 20.2458C16.8427 19.3398 15.9577 18.5149 14.8657 18.4035Z" fill="#202A53"/>
<path fill-rule="evenodd" clip-rule="evenodd" d="M13.4916 20.0874C9.47698 29.579 17.5546 36.2046 25.2193 29.3078C27.6072 27.1593 29.6815 26.7299 32.2005 28.648C31.2493 25.2117 26.5438 26.5043 24.2012 28.2743C17.697 33.1888 12.588 28.1625 15.8261 21.34C16.1724 20.6951 15.9299 19.892 15.2854 19.5462C14.6409 19.2003 13.8378 19.4425 13.4916 20.0874Z" fill="#FF375F"/>
<path fill-rule="evenodd" clip-rule="evenodd" d="M13.4914 20.087C9.57976 29.3357 17.1497 35.8613 24.6304 29.8083C18.883 32.1413 15.8623 31.0755 14.1468 27.7687C12.4317 24.4624 14.7986 19.4002 14.8006 19.3961C14.2808 19.34 13.7542 19.5975 13.4914 20.087Z" fill="#C42A48"/>
<path fill-rule="evenodd" clip-rule="evenodd" d="M14.7074 12.4829C13.0734 12.4829 11.7485 13.7856 11.7485 15.3926C11.7485 16.9995 13.0734 18.3022 14.7074 18.3022C16.3418 18.3022 17.6667 16.9995 17.6667 15.3926C17.6663 13.7856 16.3414 12.4829 14.7074 12.4829Z" fill="#C42A48"/>
<path fill-rule="evenodd" clip-rule="evenodd" d="M14.321 12.2395C13.0062 12.2395 11.9404 13.3053 11.9404 14.6201C11.9404 15.9349 13.0062 17.0007 14.321 17.0007C15.6358 17.0007 16.7016 15.9349 16.7016 14.6201C16.7016 13.3053 15.6358 12.2395 14.321 12.2395Z" fill="white"/>
<path fill-rule="evenodd" clip-rule="evenodd" d="M13.7795 13.5571C13.1919 13.5571 12.7153 14.0333 12.7153 14.6213C12.7153 15.2089 13.1915 15.6855 13.7795 15.6855C14.3675 15.6855 14.8437 15.2089 14.8437 14.6213C14.8437 14.0337 14.3675 13.5571 13.7795 13.5571Z" fill="#202A53"/>
<path d="M3.14532 18.4517C1.41124 18.4517 0 17.0405 0 15.306C0 13.5719 1.41124 12.1606 3.14532 12.1606C4.87941 12.1606 6.29065 13.5719 6.29065 15.306C6.29065 17.0405 4.87981 18.4517 3.14532 18.4517ZM3.14532 13.0795C1.9177 13.0795 0.9189 14.0783 0.9189 15.306C0.9189 16.534 1.9177 17.5328 3.14532 17.5328C4.37294 17.5328 5.37175 16.534 5.37175 15.306C5.37175 14.0783 4.37294 13.0795 3.14532 13.0795Z" fill="#007E4D"/>
<path d="M36.1229 7.90629C34.8275 7.90629 33.7734 6.8526 33.7734 5.55678C33.7734 4.26096 34.8275 3.20728 36.1229 3.20728C37.4184 3.20728 38.4721 4.26096 38.4721 5.55678C38.4721 6.8526 37.4184 7.90629 36.1229 7.90629ZM36.1229 4.12577C35.334 4.12577 34.6919 4.76783 34.6919 5.55638C34.6919 6.34493 35.334 6.98699 36.1229 6.98699C36.9119 6.98699 37.5536 6.34493 37.5536 5.55638C37.5536 4.76783 36.9115 4.12577 36.1229 4.12577Z" fill="#007E4D"/>
<path d="M35.7226 32.5279C34.4271 32.5279 33.373 31.4738 33.373 30.1784C33.373 28.883 34.4271 27.8289 35.7226 27.8289C37.018 27.8289 38.0721 28.883 38.0721 30.1784C38.0721 31.4738 37.0184 32.5279 35.7226 32.5279ZM35.7226 28.7478C34.9336 28.7478 34.2923 29.3894 34.2923 30.1784C34.2923 30.9673 34.934 31.609 35.7226 31.609C36.5111 31.609 37.1532 30.9673 37.1532 30.1784C37.1532 29.3894 36.5115 28.7478 35.7226 28.7478Z" fill="#007E4D"/>
<path fill-rule="evenodd" clip-rule="evenodd" d="M23.5871 7.84399C22.9003 7.84399 22.3438 8.4005 22.3438 9.08735C22.3438 9.77421 22.9007 10.3307 23.5871 10.3307C24.274 10.3307 24.8305 9.7738 24.8305 9.08735C24.8309 8.4005 24.274 7.84399 23.5871 7.84399Z" fill="#007E4D"/>
<path fill-rule="evenodd" clip-rule="evenodd" d="M6.279 2.42029C5.59215 2.42029 5.03564 2.9772 5.03564 3.66365C5.03564 4.3501 5.59255 4.90701 6.279 4.90701C6.96586 4.90701 7.52236 4.3501 7.52236 3.66365C7.52236 2.9772 6.96545 2.42029 6.279 2.42029Z" fill="#007E4D"/>
<path fill-rule="evenodd" clip-rule="evenodd" d="M9.36152 26.6954C8.67507 26.6954 8.11816 27.2523 8.11816 27.9388C8.11816 28.6256 8.67507 29.1822 9.36152 29.1822C10.0484 29.1822 10.6049 28.6252 10.6049 27.9388C10.6049 27.2523 10.0484 26.6954 9.36152 26.6954Z" fill="#007E4D"/>
<path fill-rule="evenodd" clip-rule="evenodd" d="M3.6418 12.8687C2.95494 12.8687 2.39844 13.4256 2.39844 14.112C2.39844 14.7989 2.95535 15.3554 3.6418 15.3554C4.32865 15.3554 4.88516 14.7985 4.88516 14.112C4.88516 13.4256 4.32865 12.8687 3.6418 12.8687Z" fill="#84FFCF"/>
<path fill-rule="evenodd" clip-rule="evenodd" d="M37.1314 3.46814C36.6176 3.46814 36.2012 3.88461 36.2012 4.39834C36.2012 4.91207 36.6176 5.32854 37.1314 5.32854C37.6451 5.32854 38.0616 4.91207 38.0616 4.39834C38.0612 3.88461 37.6447 3.46814 37.1314 3.46814Z" fill="#84FFCF"/>
<path fill-rule="evenodd" clip-rule="evenodd" d="M36.6182 28.401C36.1045 28.401 35.688 28.8175 35.688 29.3312C35.688 29.8449 36.1045 30.2614 36.6182 30.2614C37.1319 30.2614 37.5484 29.8449 37.5484 29.3312C37.5484 28.8175 37.1319 28.401 36.6182 28.401Z" fill="#84FFCF"/>
<path fill-rule="evenodd" clip-rule="evenodd" d="M35.5244 33.6011C35.0107 33.6011 34.5942 34.0175 34.5942 34.5313C34.5942 35.045 35.0107 35.4615 35.5244 35.4615C36.0382 35.4615 36.4546 35.045 36.4546 34.5313C36.4542 34.018 36.0382 33.6011 35.5244 33.6011Z" fill="#84FFCF"/>
<path fill-rule="evenodd" clip-rule="evenodd" d="M35.4245 37.3608C35.0653 37.3608 34.7739 37.6522 34.7739 38.0114C34.7739 38.3705 35.0653 38.6619 35.4245 38.6619C35.7836 38.6619 36.075 38.3705 36.075 38.0114C36.075 37.6522 35.784 37.3608 35.4245 37.3608Z" fill="#84FFCF"/>
<path d="M38.447 26.1929C37.2876 26.1933 36.2399 25.7372 34.9792 25.115C33.2883 24.282 31.2128 25.1884 31.1923 25.1973C30.961 25.3014 30.689 25.1973 30.5853 24.9661C30.4816 24.7348 30.5845 24.4632 30.8153 24.3591C30.9158 24.3143 33.3 23.2622 35.3856 24.2909C37.3332 25.253 38.4405 25.6243 40.1734 24.8777C40.5298 24.7243 40.8869 24.5552 41.2428 24.3865C42.9087 23.598 44.6315 22.7828 46.251 23.5685C47.9814 24.4087 50.6647 24.5706 51.5679 23.8894C51.7704 23.7364 52.0586 23.7772 52.2115 23.979C52.3645 24.1815 52.3241 24.4697 52.1215 24.6226C50.8205 25.6053 47.7373 25.3123 45.8494 24.3954C44.6279 23.801 43.1747 24.4886 41.6363 25.2175C41.2703 25.3906 40.9031 25.5641 40.537 25.7219C39.7687 26.0528 39.0907 26.1929 38.447 26.1929Z" fill="#007E4D"/>
<path d="M45.2179 11.0343C44.389 11.0343 43.6432 10.7103 42.7465 10.268C41.6218 9.71266 40.2461 10.32 40.2324 10.3269C40.0011 10.4314 39.7291 10.3281 39.6246 10.0968C39.5205 9.86561 39.6234 9.59321 39.8546 9.48909C39.9269 9.4568 41.644 8.69973 43.1529 9.44429C44.4984 10.1085 45.2094 10.3479 46.366 9.84906C46.6122 9.74333 46.8588 9.6263 47.1049 9.50967C48.2942 8.94671 49.523 8.36518 50.7103 8.94106C51.854 9.49636 53.6809 9.61783 54.2632 9.17795C54.4658 9.025 54.7544 9.06536 54.9069 9.26754C55.0598 9.47012 55.0199 9.75826 54.8173 9.91121C53.8742 10.6243 51.6591 10.4237 50.3092 9.76795C49.5182 9.38376 48.5372 9.84866 47.4988 10.3406C47.2426 10.4617 46.9859 10.5831 46.73 10.6937C46.1727 10.9326 45.6824 11.0343 45.2179 11.0343Z" fill="#007E4D"/>
</svg>
