<svg width="47" height="43" viewBox="0 0 47 43" fill="none" xmlns="http://www.w3.org/2000/svg">
<path fill-rule="evenodd" clip-rule="evenodd" d="M10.9922 33.4588C10.9922 33.4588 10.8008 36.4437 13.5279 38.699C16.2551 40.9543 20.6924 42.1078 20.6924 42.1078C20.6924 42.1078 16.0729 38.4853 15.8511 35.5179C15.7594 34.2863 14.7156 33.7994 14.7324 33.7023C14.7489 33.6055 15.043 33.6388 15.3524 33.6762C15.7121 33.7199 15.9303 33.7653 16.3941 32.8029C17.0295 31.4851 18.0972 30.8684 19.0021 30.6326C20.3349 30.2858 23.0822 30.1343 23.0822 30.1343C23.0822 30.1343 19.6544 27.9901 16.1008 29.0769C12.5471 30.1637 11.925 31.7513 11.925 31.7513L10.9922 33.4588Z" fill="#FF453A"/>
<path fill-rule="evenodd" clip-rule="evenodd" d="M20.6933 42.1088C20.6933 42.1088 16.0738 38.4863 15.852 35.5189C15.7779 34.5267 15.0864 34.0178 14.829 33.8066C14.829 33.8066 15.0006 34.2257 14.6812 34.669C14.3619 35.1123 14.007 36.4429 15.2312 37.702C16.4547 38.9618 18.5641 41.088 20.6933 42.1088Z" fill="#FF8882"/>
<path fill-rule="evenodd" clip-rule="evenodd" d="M12.2291 34.0948C3.31056 30.4653 1.29213 21.451 6.97344 15.2201C14.9808 6.43727 31.6497 7.39534 41.439 12.6818C44.3062 14.2302 45.6262 16.338 46.3136 19.0124C42.6302 22.1943 37.9447 22.7648 36.5822 22.8601C30.381 23.2946 16.1622 18.9219 12.1187 22.5737C8.53281 25.8113 10.2909 29.2043 12.9547 32.6417C12.9547 32.6417 14.2929 33.6548 13.7958 34.0372C13.2986 34.4193 12.2291 34.0948 12.2291 34.0948Z" fill="#FF453A"/>
<path fill-rule="evenodd" clip-rule="evenodd" d="M6.17871 16.1772C6.42474 15.8523 6.68872 15.533 6.97325 15.2213C7.51406 14.6281 8.09594 14.0807 8.71119 13.5743C8.71119 13.5743 10.2713 13.7338 12.1515 13.1307C14.0317 12.5275 15.5214 12.705 16.3372 12.9532C17.5395 13.3191 16.9781 14.4818 16.3127 15.0285C15.3586 15.8124 13.6661 15.9121 12.2047 15.5073C11.2924 15.2543 8.05965 14.4946 6.17871 16.1772Z" fill="#E6E6E6"/>
<path fill-rule="evenodd" clip-rule="evenodd" d="M8.71191 13.5764C17.2033 6.59091 32.3113 7.75578 41.4395 12.6851C43.921 14.0252 45.2432 15.7844 46 17.9675C45.9919 17.9711 44.7181 18.5244 43.5492 17.922C42.3803 17.32 39.398 13.1683 31.9142 11.8209C24.43 10.4727 16.9279 9.16996 8.71191 13.5764Z" fill="#FF8882"/>
<path fill-rule="evenodd" clip-rule="evenodd" d="M46.3142 19.0121C42.5365 20.1007 39.5164 20.1545 36.4651 19.8147C36.6239 19.683 36.7665 19.4942 36.9106 19.257C37.0983 18.9486 37.1489 18.6153 37.0613 18.2652C36.9737 17.9147 36.7724 17.6444 36.4615 17.4607C35.1481 16.6834 32.0964 16.3421 30.0754 16.4161C29.7576 16.4279 29.4958 16.6409 29.4202 16.9496C29.3443 17.2587 29.4778 17.5685 29.7542 17.7262C30.1916 17.9752 30.7038 18.1607 31.0624 18.322C31.2113 18.3891 31.2865 18.5545 31.2385 18.7107C31.1904 18.8672 31.0361 18.9622 30.8747 18.9343C30.1139 18.8027 29.3275 18.6703 28.5061 18.5446C27.8476 18.4437 27.0989 18.3356 26.2919 18.2355C22.4112 17.7522 17.1776 17.438 14.0871 18.8643C12.3664 19.6585 11.5722 20.585 9.58713 20.5186C9.16988 20.5047 8.51869 20.3954 8.1744 20.5032C6.87937 20.9077 6.44344 22.2042 6.93989 23.0665C7.56871 24.1581 8.66058 25.085 8.72657 26.1439C8.77204 26.8731 9.16292 29.5152 10.8125 31.5982C11.0384 31.8835 11.2877 32.1581 11.563 32.4162C12.1966 33.0095 12.9677 33.514 13.9049 33.8517C13.9562 33.3996 12.9548 32.6413 12.9548 32.6413C12.6523 32.2512 12.3612 31.8615 12.0888 31.4721C11.9447 31.2664 11.8058 31.0607 11.6723 30.8554C9.84159 28.0303 9.15518 25.2489 12.1185 22.5734C14.0115 20.864 18.1342 20.9132 22.6206 21.4041C27.7175 21.9622 33.284 23.0911 36.5821 22.8597C37.9457 22.7644 42.5068 22.6372 46.3142 19.0121Z" fill="#E6E6E6"/>
<path fill-rule="evenodd" clip-rule="evenodd" d="M39.652 18.5573C40.4454 18.69 40.9815 19.4442 40.8495 20.2413C40.7175 21.0388 39.967 21.5774 39.1735 21.4447C38.3801 21.312 37.844 20.5578 37.976 19.7603C38.1084 18.9632 38.8585 18.4242 39.652 18.5573Z" fill="#CCCCCC"/>
<path fill-rule="evenodd" clip-rule="evenodd" d="M39.6334 17.9911C40.3671 18.1132 40.8628 18.8069 40.7407 19.5406C40.6186 20.2743 39.9248 20.77 39.1912 20.6479C38.4575 20.5258 37.9618 19.8317 38.0839 19.0981C38.206 18.3648 38.8997 17.869 39.6334 17.9911Z" fill="white"/>
<path fill-rule="evenodd" clip-rule="evenodd" d="M39.14 18.6631C39.4865 18.7207 39.7208 19.0484 39.6633 19.3949C39.6057 19.7414 39.2779 19.9757 38.9311 19.9182C38.5846 19.8606 38.3503 19.5328 38.4082 19.1859C38.4658 18.8395 38.7936 18.6052 39.14 18.6631Z" fill="#003333"/>
<path fill-rule="evenodd" clip-rule="evenodd" d="M21.6709 10.4781C21.6709 10.4781 20.2794 9.58747 18.6097 7.16645C16.6778 4.36521 15.3879 0.337141 11.3162 0.00641851C10.2866 -0.0771788 10.3424 0.674465 10.5924 1.17532C11.9718 3.93439 13.827 7.48288 12.0887 11.5381C11.9215 11.9275 11.0119 12.8155 14.0404 11.9429C17.069 11.0699 21.6709 10.4781 21.6709 10.4781Z" fill="#FF453A"/>
<path fill-rule="evenodd" clip-rule="evenodd" d="M12.788 1.98057C13.3974 2.39562 13.6954 2.65778 14.3221 3.59348C15.4008 5.20493 16.4937 7.61165 17.6337 8.85314C18.5829 9.88674 19.6488 10.4092 20.3568 10.6626C20.5082 10.6398 20.6491 10.6186 20.7785 10.5999C20.2542 10.1727 19.24 9.23226 18.0949 7.57168C16.2587 4.90977 15.0025 1.14019 11.3877 0.488281C11.7096 1.26596 12.1416 1.53985 12.788 1.98057Z" fill="#FF8882"/>
<path fill-rule="evenodd" clip-rule="evenodd" d="M32.5986 21.3793C33.4177 25.8202 29.8473 29.9476 26.8862 30.9332C25.3488 31.4447 25.4987 31.481 24.9403 29.654C23.9625 26.456 25.1552 21.7265 27.4585 20.6013C29.3464 19.6791 31.4019 20.8854 32.5986 21.3793Z" fill="#FF453A"/>
<path fill-rule="evenodd" clip-rule="evenodd" d="M32.5991 21.3789C33.4182 25.8198 29.8477 29.9473 26.8866 30.9328C26.4081 31.092 26.0932 31.2053 25.8691 31.2306C30.2092 29.7309 30.4996 25.9306 30.8124 22.176C30.8655 21.5377 32.5991 21.3789 32.5991 21.3789Z" fill="#FF8882"/>
<path d="M2.60183 8.18309C2.51493 8.18309 2.42656 8.15706 2.34993 8.10316C2.1523 7.96383 2.10462 7.69068 2.24394 7.49305C4.4974 4.29472 9.41242 2.51204 9.62068 2.43761C9.848 2.35658 10.0992 2.47501 10.1798 2.7027C10.2616 2.9304 10.1424 3.18082 9.91509 3.26222C9.8667 3.27945 5.0518 5.02803 2.95966 7.99756C2.87497 8.11856 2.73932 8.18309 2.60183 8.18309Z" fill="#2D4096"/>
<path d="M6.41516 9.31922C6.33083 9.31922 6.2454 9.29429 6.17097 9.24186C5.97957 9.10693 5.93377 8.8422 6.0687 8.65081C7.34025 6.8465 10.0938 5.84773 10.21 5.80594C10.4315 5.72747 10.6735 5.84223 10.7523 6.06259C10.8315 6.28332 10.7164 6.52605 10.496 6.60488C10.47 6.61404 7.87775 7.55671 6.76275 9.13919C6.67989 9.25652 6.54826 9.31922 6.41516 9.31922Z" fill="#2D4096"/>
<path fill-rule="evenodd" clip-rule="evenodd" d="M4.98105 11.4488C5.28977 11.4715 5.52185 11.7403 5.49912 12.0494C5.47638 12.3581 5.20724 12.5902 4.89851 12.5675C4.58979 12.5447 4.35771 12.276 4.38044 11.9669C4.40318 11.6578 4.67232 11.4261 4.98105 11.4488Z" fill="#5E5CE6"/>
<path fill-rule="evenodd" clip-rule="evenodd" d="M1.72406 11.6783C2.6088 11.7435 3.27281 12.5135 3.20791 13.3982C3.14265 14.283 2.37266 14.947 1.48792 14.8821C0.603182 14.8168 -0.0608374 14.0468 0.00442712 13.1621C0.069325 12.277 0.839323 11.613 1.72406 11.6783Z" fill="#4947AD"/>
<path fill-rule="evenodd" clip-rule="evenodd" d="M2.04863 11.7235C2.60962 11.7649 3.03127 12.2533 2.98984 12.8143C2.94841 13.3753 2.46004 13.7969 1.89905 13.7555C1.33771 13.7141 0.916779 13.2257 0.957845 12.6644C0.999277 12.1034 1.48765 11.6821 2.04863 11.7235Z" fill="#5E5CE6"/>
<path fill-rule="evenodd" clip-rule="evenodd" d="M21.1285 34.9332C21.4372 34.9559 21.6693 35.225 21.6466 35.5338C21.6238 35.8425 21.3551 36.0746 21.046 36.0518C20.7369 36.0291 20.5052 35.7603 20.5279 35.4513C20.5506 35.1425 20.8194 34.9104 21.1285 34.9332Z" fill="#5E5CE6"/>
<path d="M35.8752 35.2935C35.7839 35.2935 35.6923 35.2898 35.5999 35.2832C33.5675 35.1336 32.036 33.3579 32.1859 31.3252C32.334 29.3145 34.0999 27.7543 36.144 27.9113C37.1284 27.9835 38.026 28.4356 38.6709 29.1832C39.3159 29.9308 39.6309 30.8848 39.5579 31.8693C39.4164 33.7895 37.7987 35.2935 35.8752 35.2935ZM35.8683 29.0849C34.5615 29.0849 33.4622 30.1072 33.3662 31.4128C33.2646 32.7944 34.3056 34.0014 35.6871 34.1033C37.0669 34.2031 38.2765 33.1497 38.3776 31.7824C38.4271 31.1133 38.213 30.4647 37.7741 29.9568C37.336 29.4487 36.7262 29.1414 36.0563 29.0923C35.9933 29.0868 35.9306 29.0849 35.8683 29.0849Z" fill="#2D4096"/>
<path fill-rule="evenodd" clip-rule="evenodd" d="M37.2469 29.4387C37.8534 29.4834 38.3091 30.0114 38.2644 30.6179C38.2197 31.2243 37.6917 31.6797 37.0849 31.6353C36.4784 31.5906 36.0231 31.0626 36.0674 30.4562C36.1122 29.8494 36.6401 29.394 37.2469 29.4387Z" fill="#5E5CE6"/>
<path fill-rule="evenodd" clip-rule="evenodd" d="M28.8753 35.5212C29.6006 35.5747 30.1451 36.2061 30.0915 36.931C30.038 37.6562 29.407 38.2007 28.6817 38.1472C27.9565 38.0937 27.412 37.4626 27.4655 36.7374C27.5191 36.0125 28.1504 35.4677 28.8753 35.5212Z" fill="#4947AD"/>
<path fill-rule="evenodd" clip-rule="evenodd" d="M29.1407 35.5589C29.6005 35.593 29.9459 35.9934 29.9122 36.4532C29.8781 36.913 29.4777 37.2584 29.0179 37.2246C28.5578 37.1905 28.2124 36.7901 28.2465 36.3304C28.2806 35.8706 28.6809 35.5252 29.1407 35.5589Z" fill="#5E5CE6"/>
<path fill-rule="evenodd" clip-rule="evenodd" d="M25.0591 39.3336C25.3682 39.3563 25.6 39.6251 25.5772 39.9342C25.5545 40.2432 25.2854 40.475 24.9766 40.4522C24.6676 40.4295 24.4358 40.1607 24.4586 39.8517C24.4813 39.5426 24.75 39.3108 25.0591 39.3336Z" fill="#5E5CE6"/>
<path d="M42.7549 12.4405C42.6515 12.4405 42.5473 12.4038 42.4637 12.3294C42.4344 12.3034 39.4847 9.70454 34.8429 8.08832C34.6144 8.00876 34.4938 7.75907 34.5733 7.53064C34.6529 7.30185 34.9018 7.18085 35.131 7.26115C39.947 8.93786 42.9228 11.5649 43.0471 11.676C43.2275 11.837 43.2432 12.1135 43.0823 12.2942C42.9958 12.391 42.8759 12.4405 42.7549 12.4405Z" fill="#2D4096"/>
<path fill-rule="evenodd" clip-rule="evenodd" d="M1.96737 26.314C2.27646 26.3368 2.50818 26.6055 2.48544 26.9146C2.46271 27.2233 2.19393 27.4554 1.88484 27.4327C1.57612 27.41 1.34404 27.1408 1.36677 26.8321C1.3895 26.523 1.65828 26.2913 1.96737 26.314Z" fill="#5E5CE6"/>
</svg>
