<svg width="46" height="38" viewBox="0 0 46 38" fill="none" xmlns="http://www.w3.org/2000/svg">
<path fill-rule="evenodd" clip-rule="evenodd" d="M11.0146 8.25696C21.6746 2.11956 41.0288 2.71289 38.7756 17.5475C37.0564 28.8653 22.4616 26.4121 21.305 32.9158C21.1169 33.9722 21.3023 33.526 20.9146 34.2289C20.2598 30.8622 20.6227 29.7142 22.2191 28.2791C23.7653 26.8894 24.8037 27.3101 26.3146 26.3982C27.5538 25.6503 28.6579 22.2611 32.3233 20.468C34.184 19.5583 35.1068 18.8085 35.3684 16.8416C35.6168 14.9727 34.2425 12.9649 32.8588 12.6174C31.8955 12.3753 30.2453 11.3399 29.7128 10.5064C29.3199 9.89095 28.9382 9.18466 27.6007 8.88856C26.3694 8.61611 25.5712 9.58697 23.9954 9.34341C21.8183 9.00678 21.7358 7.65763 19.88 7.71956C18.3211 7.77134 16.3703 9.43498 15.2767 9.67666C14.1513 9.84967 11.6785 9.98289 11.1839 8.51853C11.1843 8.51853 11.1179 8.41496 11.0146 8.25696Z" fill="#36C6FF"/>
<path fill-rule="evenodd" clip-rule="evenodd" d="M3.93419 9.03148C4.15448 8.80331 4.38753 8.58039 4.62546 8.36009C4.61007 8.27303 4.60182 8.18334 4.60182 8.09177C4.60182 7.25076 5.28372 6.56849 6.1251 6.56849C6.33076 6.56849 6.52702 6.6094 6.70603 6.68333C19.0169 -1.98537 45.2237 -2.03115 43.1469 17.1113C41.6293 31.0974 23.4621 28.0655 22.3817 36.1026C22.2064 37.4078 22.4113 36.8569 21.97 37.7253C21.2186 37.2251 21.362 37.4398 20.9023 36.3041C17.5116 27.9282 35.6937 25.3965 36.5745 17.5579C37.5964 8.4603 26.2088 6.38197 19.2649 6.85033C11.9754 7.34158 9.795 9.18122 5.69164 11.4187C5.0833 11.7504 4.30835 11.8566 3.81897 11.6513C3.49661 11.5159 3.50672 11.4888 3.70525 11.267C3.82872 11.1289 3.9796 10.9713 3.95371 10.9375C3.87002 10.8276 3.18924 11.1849 3.14008 11.0535C2.95056 10.5454 3.39678 9.58803 3.93419 9.03148Z" fill="#5E5CE6"/>
<path fill-rule="evenodd" clip-rule="evenodd" d="M10.209 4.62513C23.0411 -1.68753 43.9789 -0.431073 43.2389 15.8559C43.1503 15.3894 41.3988 6.6618 33.6151 3.91622C26.938 1.56056 18.9039 2.468 12.5429 4.7561C12.362 4.82103 12.1852 4.86981 12.0088 4.90246C11.921 4.80001 11.8171 4.72571 11.6966 4.68968C11.2538 4.55683 10.6856 4.57184 10.209 4.62513Z" fill="#7383FF"/>
<path fill-rule="evenodd" clip-rule="evenodd" d="M3.93419 9.03153C4.15448 8.80335 4.38753 8.58043 4.62546 8.36014C4.61007 8.27308 4.60182 8.18338 4.60182 8.09182C4.60182 7.2508 5.28372 6.56854 6.1251 6.56854C6.33076 6.56854 6.52702 6.60944 6.70603 6.68337C7.41682 6.18274 8.17602 5.71214 8.97162 5.27118C9.08908 5.24228 10.505 4.9019 11.4038 5.17173C12.3421 5.45319 12.2876 8.02614 11.1877 8.51926L11.1839 8.52114C9.26097 9.31599 7.70842 10.3195 5.69164 11.4191C5.0833 11.7508 4.30835 11.857 3.81897 11.6518C3.49661 11.5163 3.50672 11.4893 3.70525 11.2675C3.82872 11.1294 3.9796 10.9717 3.95371 10.938C3.87002 10.828 3.18924 11.1853 3.14008 11.0539C2.95056 10.5454 3.39678 9.58807 3.93419 9.03153Z" fill="#5E5CE6"/>
<path fill-rule="evenodd" clip-rule="evenodd" d="M4.88477 7.20849C5.16097 6.8212 5.61356 6.56863 6.12544 6.56863C6.3311 6.56863 6.52739 6.60954 6.7064 6.68347C7.41719 6.18284 8.17638 5.71223 8.97198 5.27127C9.0583 5.24988 9.8479 5.06037 10.6169 5.06862C10.7193 5.06975 10.8045 5.14068 10.8244 5.24088C10.8443 5.34145 10.7921 5.4394 10.6979 5.47918C10.1076 5.72912 9.53641 5.99107 8.98774 6.26278C5.76855 7.85586 4.94856 7.79431 4.88477 7.20849Z" fill="#7383FF"/>
<path fill-rule="evenodd" clip-rule="evenodd" d="M6.12551 6.99023C6.73347 6.99023 7.22657 7.48298 7.22657 8.09132C7.22657 8.69965 6.73384 9.1924 6.12551 9.1924C5.51717 9.1924 5.02441 8.69965 5.02441 8.09132C5.02441 7.48298 5.51717 6.99023 6.12551 6.99023Z" fill="white"/>
<path fill-rule="evenodd" clip-rule="evenodd" d="M6.07213 7.53711C6.35359 7.53711 6.58214 7.76528 6.58214 8.04712C6.58214 8.32896 6.35396 8.55675 6.07213 8.55675C5.79066 8.55675 5.5625 8.32858 5.5625 8.04712C5.5625 7.76566 5.79066 7.53711 6.07213 7.53711Z" fill="#003333"/>
<path fill-rule="evenodd" clip-rule="evenodd" d="M13.762 4.06556C12.9413 4.30012 11.7197 5.38994 11.7197 5.38994C11.8638 5.56032 11.9629 5.80838 12.0166 6.09247C12.2789 6.11161 13.0985 6.22533 13.8547 6.10711C14.2683 6.04256 14.6635 5.90821 14.9303 5.79337C15.0042 5.76147 15.0515 5.69655 15.059 5.61624C15.0661 5.53593 15.0316 5.4635 14.9648 5.41884C14.7254 5.25934 14.4649 5.03793 14.6773 4.93885C14.8804 4.84428 15.1686 4.54668 15.3769 4.31175C15.432 4.24945 15.4463 4.16652 15.4148 4.08921C15.3833 4.0119 15.3153 3.96274 15.232 3.95673C14.8492 3.93009 14.2619 3.92296 13.762 4.06556Z" fill="#64D2FF"/>
<path fill-rule="evenodd" clip-rule="evenodd" d="M32.7928 9.63801C35.3515 11.3167 36.9911 13.8566 36.5753 17.5591C36.4395 18.7676 35.8912 19.8495 35.0753 20.8466C33.9915 24.1645 30.0274 26.1224 27.2841 28.0277C22.5228 31.3347 20.6235 32.1637 20.7638 35.9274C20.8055 36.052 20.852 36.1781 20.9034 36.3053C21.3632 37.4409 21.2198 37.2259 21.9711 37.7265C22.4125 36.8581 22.2076 37.409 22.3828 36.1038C23.0193 31.3692 29.3748 29.9946 34.8899 27.0088C41.9126 23.2068 43.5447 15.2722 37.3897 9.65828C36.641 8.97564 35.8097 8.35567 34.9158 7.8055C32.723 6.4556 30.1546 5.52377 27.5149 5.10308C24.039 4.54878 20.7158 4.9691 16.6864 5.8589C15.7095 6.07469 14.691 6.31787 13.6188 6.5817C12.1409 6.94535 12.0479 6.30286 12.0479 6.30286C12.1004 6.80049 12.0265 7.36905 11.8238 7.81638C11.6786 8.13688 11.4669 8.39545 11.1885 8.52004C13.1767 7.69892 15.5616 7.10109 19.2657 6.85153C23.3833 6.57382 29.064 7.19153 32.7928 9.63801Z" fill="#4947AD"/>
<path fill-rule="evenodd" clip-rule="evenodd" d="M4.80175 10.7002C4.05906 11.0162 3.7971 11.1892 3.70478 11.268C3.70403 11.2695 3.7029 11.2703 3.70178 11.2714C3.68489 11.2901 3.66988 11.3074 3.65599 11.3232C3.50738 11.4954 3.52501 11.5292 3.81848 11.6523C4.30785 11.8576 5.08283 11.7514 5.69117 11.4196C7.70832 10.3197 9.26048 9.31615 11.1834 8.52167C11.1846 8.52092 11.1861 8.52055 11.1872 8.5198C11.4657 8.39483 11.6773 8.13663 11.8225 7.81614C12.0252 7.3688 12.0991 6.80025 12.0466 6.30262C12.0391 6.23056 12.0286 6.16001 12.0158 6.09133C11.9622 5.80724 11.8631 5.55918 11.719 5.3888C11.6833 5.34677 11.6451 5.30924 11.6038 5.27734C11.9794 5.73594 11.7148 6.60135 11.7148 6.60135C11.7148 6.60135 11.615 6.92372 10.243 7.78011C8.87169 8.63614 5.90433 10.2311 4.80175 10.7002Z" fill="#4947AD"/>
<path fill-rule="evenodd" clip-rule="evenodd" d="M18.2212 7.55871C16.5335 7.75161 14.8733 8.07022 13.2637 8.62226C14.0514 8.93262 15.3547 8.8283 15.9117 8.74573C16.1913 8.67818 16.5493 8.48229 16.797 8.34793C17.2492 8.1025 17.6909 7.83942 18.1461 7.59849C18.1709 7.58498 18.196 7.57184 18.2212 7.55871ZM27.6412 7.91373C25.9997 7.56397 24.2959 7.38458 22.681 7.3418C23.4969 7.85856 23.8129 8.24248 24.8836 8.40798C25.9107 8.5671 26.6741 8.01731 27.6412 7.91373ZM36.2705 13.8083C35.7413 12.3094 34.6909 11.0635 33.1579 10.0577C32.1975 9.42763 31.0912 8.92212 29.906 8.52582C30.0408 8.61701 30.1702 8.71946 30.293 8.83393C30.6423 9.1593 30.8619 9.51056 31.1144 9.90649C31.2919 10.1846 31.6369 10.4747 31.8973 10.6728C32.4058 11.0597 33.201 11.542 33.8142 11.6962C34.8601 11.9589 35.7259 12.8236 36.2705 13.8083ZM29.2361 24.8147C31.5456 23.3781 33.7831 21.9392 35.1852 20.2793L35.1855 20.2782L35.2722 20.172C35.5781 19.7986 35.8517 19.4016 36.0723 18.9786C35.4813 19.8091 34.5967 20.3642 33.4243 20.9376C31.9082 21.6792 30.7883 22.7495 29.7751 24.0772C29.5904 24.32 29.4125 24.567 29.2361 24.8147ZM22.6893 29.5038C23.2117 28.9739 23.8069 28.4665 24.4497 27.9749C24.1233 28.1318 23.8242 28.3348 23.4909 28.6343C23.1539 28.9372 22.8908 29.2212 22.6893 29.5038Z" fill="#1CA1D6"/>
<path fill-rule="evenodd" clip-rule="evenodd" d="M27.6224 9.39844C27.7729 10.435 26.7499 14.3725 20.2263 15.7584C19.5182 15.9089 19.4799 16.1956 19.3032 16.6302C19.2574 16.7382 19.218 16.8452 19.1774 16.9537C19.0495 17.2952 18.9301 17.6397 18.8033 17.9831C18.616 18.5831 19.338 19.2647 19.6919 19.7424C19.9869 20.1413 20.235 20.4592 20.5739 20.8405C20.9938 21.3137 21.2246 21.8158 21.6479 22.2936C21.9748 22.6674 22.0067 22.8854 22.7318 22.9308C23.5683 22.9661 23.4759 22.7098 24.493 22.9631C24.8885 23.0618 24.8405 23.0006 25.1756 23.3275C25.3032 23.4551 25.9986 24.2346 26.0354 24.3456C26.1164 24.5907 25.7186 24.5404 25.531 24.4451C24.9846 24.1678 24.5984 23.2911 23.7472 23.5823C23.5311 23.6562 23.2909 23.7902 23.0913 23.8942C22.8451 24.0221 22.582 24.1636 22.3876 24.3468C22.1951 24.5588 21.9789 24.9746 21.7969 25.2883C21.7823 25.3187 20.2766 28.4325 19.3546 29.1208C18.428 29.8128 18.428 29.8128 18.428 29.8128C18.428 29.8128 18.6625 29.0975 18.8855 28.804C19.1084 28.5109 20.2537 26.7703 20.6876 25.7473C20.7773 25.5255 20.8681 25.3052 20.9642 25.0913C21.1203 24.7431 21.4813 23.9002 21.4231 23.5414C21.3436 23.2134 20.7157 22.5901 20.4643 22.3007L20.39 22.2148C20.0646 21.829 19.8394 21.5824 19.4169 21.2488C18.6832 20.6694 17.9893 19.9147 17.1115 19.4568C16.672 19.2275 16.2938 19.2812 15.7263 19.3093C15.5725 19.3172 15.4186 19.3255 15.2647 19.3333C14.4552 19.3716 14.4556 19.5097 14.0863 20.0595C13.7084 20.6149 13.0813 21.295 12.6287 21.8001C11.9142 22.5976 11.1873 23.3699 10.4615 24.155C9.91205 24.7971 10.1293 25.2797 10.3507 25.9988C10.5864 26.7598 10.8356 27.4504 11.1118 28.1957C11.2649 28.6085 11.322 28.9714 11.5081 29.3823C11.6526 29.7017 11.731 29.9621 11.8436 30.2886C12.1022 31.0325 12.3739 31.7515 12.619 32.5009C12.7623 32.9385 12.9849 33.3547 13.1143 33.7686C13.2547 34.2167 12.9864 34.371 12.7255 33.942C12.2729 33.1975 12.0159 32.3155 11.6635 31.5162C11.507 31.1593 11.3614 30.8028 11.2098 30.4444C11.0582 30.14 10.8217 30.1393 10.5253 30.2181C9.86213 30.3945 8.90702 31.0966 8.33359 31.5053C7.76353 31.9117 7.91628 32.5253 7.99884 33.131C8.03037 33.3611 8.15721 34.0794 7.98233 34.2456C7.8446 34.3766 7.88925 34.0137 7.88512 33.9454C7.84571 33.2992 7.51209 32.3489 7.68472 31.7545C7.80593 31.3357 8.18499 31.1004 8.48446 30.814C8.97684 30.3438 10.3526 29.183 10.2817 28.4756C10.2637 28.2951 10.0745 27.9172 9.9916 27.7314L9.96684 27.6759C9.81147 27.3231 9.29433 25.9916 8.89502 25.9552C8.71113 25.9383 8.56326 26.144 8.45292 26.2648C8.04649 26.6983 7.25727 27.6511 6.68984 27.7757C5.94002 27.9405 5.43114 27.8403 5.16994 27.8155C4.72936 27.7735 4.68846 27.641 3.17194 27.1449C2.90098 27.0563 1.88772 26.7959 1.78302 26.5711C1.68657 26.3639 2.04233 26.3857 2.14403 26.3992C2.52419 26.4502 3.05109 26.5786 3.43201 26.6671C4.14955 26.8341 4.76652 27.0878 5.51446 27.2259C6.43354 27.3956 6.58703 27.4376 7.24715 26.743C7.58866 26.3838 7.95981 25.8122 8.24428 25.3964C8.51561 25.0069 8.91679 24.5963 9.22715 24.2229C9.87227 23.4468 10.5966 22.6599 11.2702 21.9003C11.9018 21.188 12.5751 20.4543 13.1736 19.7195C13.2127 19.6718 13.2506 19.6242 13.2873 19.5746C14.0886 18.4874 14.7284 18.3816 16.2866 18.236C16.576 18.209 16.8278 18.1913 17.1152 18.1805C17.2252 17.7894 17.4421 17.2738 17.6069 16.8797C17.847 16.3221 18.0242 16.2249 17.4159 15.8229C16.6431 15.3193 15.4437 14.7977 14.5194 14.4224C13.8079 14.1338 13.192 14.3319 12.4002 14.5714C11.5648 14.8299 10.6176 15.3058 9.96984 15.7895C9.35588 16.2781 9.40691 16.9645 9.35361 17.5327C9.29657 18.1388 9.34047 18.6574 9.41065 19.2459C9.44443 19.5285 9.66584 21.653 9.59529 21.8271C9.49997 22.0613 9.30896 21.8965 9.25491 21.7535C9.14308 21.4578 9.06015 20.8288 9.00348 20.5008C8.86162 19.7082 8.64845 18.9415 8.38425 18.1677C8.26266 17.8123 7.99922 17.7774 7.6138 17.8097C6.91803 17.8679 5.78429 18.3257 5.04948 18.51C4.20247 18.722 3.32054 18.928 2.44313 19.0432C1.83254 19.1209 1.87308 18.8428 2.41237 18.6383C2.8841 18.4597 3.55848 18.3204 4.08275 18.1452C4.6333 17.9594 5.01608 17.7932 5.53247 17.5579C5.99219 17.3481 6.1393 17.2937 6.65532 17.2426C7.3875 17.1698 8.32646 16.751 8.7389 16.229C9.05301 15.8098 9.03386 15.7419 9.50447 15.3565C9.63282 15.2514 9.76269 15.1474 9.89066 15.0416C10.0948 14.8723 10.2926 14.7143 10.5103 14.5537C10.8653 14.2996 11.4443 13.9585 11.6173 13.5881C11.7505 13.3033 11.8605 12.758 12.4032 12.9516C12.8269 13.1029 12.9207 13.4857 13.3504 13.5138C13.6281 13.5318 13.9325 13.504 14.2203 13.5168C14.8673 13.557 15.4025 13.766 16.0175 13.9409C16.8375 14.1709 17.668 14.38 18.5136 14.5702C19.1365 14.7098 19.4495 14.7969 20.1535 14.738C20.229 14.7316 20.3037 14.726 20.3787 14.72C23.7308 14.5623 26.0102 11.2238 27.6224 9.39844Z" fill="#64D2FF"/>
<path fill-rule="evenodd" clip-rule="evenodd" d="M2.72565 7.33008C3.18162 7.33008 3.55089 7.69973 3.55089 8.15533C3.55089 8.61092 3.18162 8.98058 2.72565 8.98058C2.26968 8.98058 1.90039 8.61092 1.90039 8.15533C1.90039 7.69973 2.26968 7.33008 2.72565 7.33008Z" fill="#4947AD"/>
<path fill-rule="evenodd" clip-rule="evenodd" d="M3.00706 7.33008C3.30728 7.33008 3.55083 7.57364 3.55083 7.87424C3.55083 8.17484 3.30728 8.4184 3.00706 8.4184C2.70645 8.4184 2.46289 8.17484 2.46289 7.87424C2.46289 7.57364 2.70645 7.33008 3.00706 7.33008Z" fill="#5E5CE6"/>
<path d="M2.7636 5.52719C1.23957 5.52719 0 4.28725 0 2.76359C0 1.23994 1.23994 0 2.7636 0C4.28763 0 5.52756 1.23994 5.52756 2.76359C5.52756 4.28725 4.28763 5.52719 2.7636 5.52719ZM2.7636 1.21142C1.90795 1.21142 1.2114 1.90757 1.2114 2.76359C1.2114 3.61962 1.90758 4.31577 2.7636 4.31577C3.61962 4.31577 4.31577 3.61962 4.31577 2.76359C4.31577 1.90757 3.61962 1.21142 2.7636 1.21142Z" fill="#2D4096"/>
<path fill-rule="evenodd" clip-rule="evenodd" d="M3.38303 1.63672C3.68326 1.63672 3.92681 1.88028 3.92681 2.18088C3.92681 2.48148 3.68326 2.72504 3.38303 2.72504C3.08243 2.72504 2.83887 2.48148 2.83887 2.18088C2.83887 1.88028 3.08243 1.63672 3.38303 1.63672Z" fill="#5E5CE6"/>
<path d="M26.4163 37.4565C26.351 37.4565 26.285 37.4411 26.223 37.4092C26.0163 37.3023 25.9352 37.0482 26.0425 36.8414C26.81 35.3579 29.5297 33.8774 35.3368 31.1191C35.5474 31.0189 35.7984 31.109 35.8979 31.3187C35.9981 31.5289 35.9084 31.78 35.6982 31.8798C30.299 34.4445 27.439 35.976 26.7912 37.2283C26.7162 37.3736 26.5687 37.4565 26.4163 37.4565Z" fill="#2D4096"/>
<path d="M44.3356 9.68531C44.1142 9.68531 43.9288 9.51268 43.9157 9.28901C43.9142 9.26536 43.7584 6.91346 42.3316 4.50639C40.9311 2.14247 37.17 1.00048 37.1324 0.989223C36.9095 0.922797 36.7822 0.688245 36.8487 0.465326C36.9151 0.242407 37.1493 0.11481 37.3726 0.181986C37.5399 0.231899 41.4894 1.43243 43.0566 4.07706C44.5923 6.6684 44.7507 9.13627 44.7567 9.24022C44.7698 9.47215 44.5927 9.67105 44.3604 9.68493C44.3525 9.68493 44.3439 9.68531 44.3356 9.68531Z" fill="#2D4096"/>
<path d="M39.7701 33.9136C38.5238 33.9136 37.5098 32.8996 37.5098 31.6529C37.5098 30.4066 38.5238 29.3926 39.7701 29.3926C41.0164 29.3926 42.0304 30.4066 42.0304 31.6529C42.0304 32.8996 41.0164 33.9136 39.7701 33.9136ZM39.7701 30.2764C39.0113 30.2764 38.3936 30.8941 38.3936 31.6529C38.3936 32.4121 39.0113 33.0298 39.7701 33.0298C40.5289 33.0298 41.1466 32.4121 41.1466 31.6529C41.1466 30.8937 40.5289 30.2764 39.7701 30.2764Z" fill="#2D4096"/>
<path d="M43.7045 27.0654C42.8785 27.0654 42.2061 26.3929 42.2061 25.5669C42.2061 24.7409 42.8785 24.0684 43.7045 24.0684C44.5305 24.0684 45.2031 24.7409 45.2031 25.5669C45.2031 26.3929 44.5309 27.0654 43.7045 27.0654ZM43.7045 24.6546C43.2013 24.6546 42.7923 25.0636 42.7923 25.5669C42.7923 26.0701 43.2013 26.4792 43.7045 26.4792C44.2078 26.4792 44.6169 26.0701 44.6169 25.5669C44.6169 25.0636 44.2078 24.6546 43.7045 24.6546Z" fill="#2D4096"/>
<path fill-rule="evenodd" clip-rule="evenodd" d="M15.0765 24.9961C15.7055 24.9961 16.2158 25.5061 16.2158 26.1351C16.2158 26.7641 15.7059 27.2744 15.0765 27.2744C14.4471 27.2744 13.9375 26.7644 13.9375 26.1351C13.9375 25.5057 14.4471 24.9961 15.0765 24.9961Z" fill="#4947AD"/>
<path fill-rule="evenodd" clip-rule="evenodd" d="M15.3388 25.0898C15.7535 25.0898 16.0898 25.4261 16.0898 25.8408C16.0898 26.2555 15.7535 26.5917 15.3388 26.5917C14.9241 26.5917 14.5879 26.2555 14.5879 25.8408C14.5879 25.4257 14.9241 25.0898 15.3388 25.0898Z" fill="#5E5CE6"/>
<path fill-rule="evenodd" clip-rule="evenodd" d="M4.44345 20.5684C4.83037 20.5684 5.14372 20.8821 5.14372 21.2686C5.14372 21.6552 4.83037 21.9689 4.44345 21.9689C4.05654 21.9689 3.74316 21.6552 3.74316 21.2686C3.74316 20.8821 4.05654 20.5684 4.44345 20.5684Z" fill="#4947AD"/>
<path fill-rule="evenodd" clip-rule="evenodd" d="M4.60612 20.625C4.86094 20.625 5.06772 20.8318 5.06772 21.0866C5.06772 21.3414 4.86094 21.5482 4.60612 21.5482C4.35131 21.5482 4.14453 21.3414 4.14453 21.0866C4.14453 20.8318 4.35131 20.625 4.60612 20.625Z" fill="#5E5CE6"/>
</svg>
