<svg width="43" height="39" viewBox="0 0 43 39" fill="none" xmlns="http://www.w3.org/2000/svg">
<path fill-rule="evenodd" clip-rule="evenodd" d="M40.6687 27.4533C39.8583 30.4176 35.7088 31.3545 33.9322 30.7267C31.5367 29.8799 30.4169 27.1421 30.5956 24.5774C30.6112 24.3516 30.7602 24.1694 30.9782 24.1082C31.1958 24.0471 31.418 24.1263 31.5487 24.311C31.891 24.7961 32.334 25.3362 32.8265 25.722C33.9509 26.603 33.9432 26.5373 33.8121 26.9704C33.6811 27.4032 33.9064 27.6095 34.094 27.37C34.2816 27.1305 34.2972 26.845 34.9539 27.0319C35.6106 27.2191 38.8928 26.8344 39.8043 26.9241C40.7154 27.0139 40.6687 27.4533 40.6687 27.4533Z" fill="#5E5CE6"/>
<path fill-rule="evenodd" clip-rule="evenodd" d="M34.193 27.2248C34.3139 27.0358 34.4297 26.8842 34.9533 27.0336C35.61 27.2209 38.8922 26.8362 39.8036 26.9259C40.7154 27.0153 40.6685 27.4547 40.6685 27.4547C40.3872 27.259 39.1589 27.5289 37.9342 27.6791C36.7097 27.8292 36.1781 27.9793 35.1554 27.8465C34.133 27.7137 34.193 27.2248 34.193 27.2248Z" fill="#7383FF"/>
<path fill-rule="evenodd" clip-rule="evenodd" d="M30.6855 24.3145C30.753 24.2163 30.8544 24.1429 30.9777 24.1082C31.1953 24.0471 31.4179 24.1263 31.5482 24.311C31.8906 24.7961 32.3335 25.3362 32.8263 25.7223C33.8317 26.5101 33.9317 26.5412 33.848 26.8482C33.7127 26.8849 33.6251 27.0715 32.8278 26.7768C32.0308 26.4822 31.5744 25.61 31.3317 25.0727C31.089 24.5353 30.6855 24.3145 30.6855 24.3145Z" fill="#7383FF"/>
<path fill-rule="evenodd" clip-rule="evenodd" d="M23.8527 13.6582C26.4835 18.2044 25.9978 21.7223 22.7622 24.5746C22.7622 24.5746 21.7875 25.4729 21.2566 24.1125C20.9676 23.3724 22.0147 19.9955 19.0674 18.9685C19.9216 16.3985 21.8942 14.877 23.8527 13.6582Z" fill="#5E5CE6"/>
<path fill-rule="evenodd" clip-rule="evenodd" d="M35.106 10.159C34.1893 9.74705 33.1327 9.45596 31.8606 9.06135C31.5073 8.23082 31.2579 7.89592 30.7704 7.25827C25.9171 0.912503 16.5559 2.12139 10.9894 7.36001C6.7841 11.318 4.58465 18.0217 6.64527 23.9273C9.53465 32.2086 16.8608 35.6922 25.4911 34.0113C27.615 33.598 34.0388 31.4445 34.1928 27.225C34.1928 27.225 33.3542 27.9669 32.1986 28.7059C28.325 31.1848 22.6929 29.4421 19.9289 26.2295C18.3667 24.4137 18.2166 22.1482 18.7963 20.0653C19.4138 17.8461 20.9361 15.8335 24.9888 14.7949C27.9078 14.0467 31.6514 13.645 36.2623 13.7383C36.7547 13.7482 37.1652 13.2497 37.3189 12.7018C37.6898 11.3795 36.104 10.6073 35.106 10.159Z" fill="#01D180"/>
<path fill-rule="evenodd" clip-rule="evenodd" d="M35.1054 10.1604C34.5617 9.91593 33.9685 9.71421 33.3108 9.50826C32.8441 9.362 32.2662 9.91664 33.345 10.3787C34.2388 10.7617 35.4466 11.1746 36.0055 11.4212C36.8756 11.8052 37.2667 12.0108 37.367 12.1896C37.2646 11.175 35.9663 10.5472 35.1054 10.1604Z" fill="#30FFB0"/>
<path fill-rule="evenodd" clip-rule="evenodd" d="M31.8607 9.06135C31.5075 8.23082 31.258 7.89592 30.7705 7.25827C25.9173 0.912503 16.556 2.12139 10.9896 7.36001C10.7988 7.53947 10.6123 7.72494 10.43 7.91535L10.3516 8.11848C10.3516 8.11848 13.0022 7.20846 16.4684 5.8452C19.9347 4.48193 24.0711 4.92104 26.1275 5.82223C28.1843 6.72342 29.1084 7.67089 29.8248 8.51449C30.5412 9.35739 31.1927 9.28497 31.8607 9.06135Z" fill="#30FFB0"/>
<path fill-rule="evenodd" clip-rule="evenodd" d="M20.4681 26.7962C20.2787 26.6114 20.0989 26.4207 19.9297 26.2239C18.3675 24.4081 18.2173 22.1426 18.7971 20.0597C19.4146 17.8405 20.9368 15.8279 24.9895 14.7893C27.9086 14.0411 31.6522 13.6394 36.263 13.7327C36.7555 13.7426 37.166 13.2441 37.3197 12.6962C37.355 12.5704 37.3723 12.4492 37.3744 12.3334C37.3719 12.333 33.6015 11.1068 29.2012 10.8436C23.5588 10.5063 16.3044 11.4004 15.2432 18.2142C14.7808 21.1835 16.0642 24.5166 20.4681 26.7962Z" fill="#00AB69"/>
<path fill-rule="evenodd" clip-rule="evenodd" d="M27.1693 7.52734C28.1468 7.52734 28.9392 8.40557 28.9392 9.4894C28.9392 10.5729 28.1468 11.4515 27.1693 11.4515C26.1918 11.4515 25.3994 10.5729 25.3994 9.4894C25.3994 8.40557 26.1918 7.52734 27.1693 7.52734Z" fill="#00AB69"/>
<path fill-rule="evenodd" clip-rule="evenodd" d="M27.1693 6.73242C28.1468 6.73242 28.9392 7.5248 28.9392 8.5023C28.9392 9.47979 28.1468 10.2722 27.1693 10.2722C26.1918 10.2722 25.3994 9.47979 25.3994 8.5023C25.3994 7.5248 26.1918 6.73242 27.1693 6.73242Z" fill="white"/>
<path fill-rule="evenodd" clip-rule="evenodd" d="M27.4451 7.25781C28.0114 7.25781 28.4703 7.71671 28.4703 8.283C28.4703 8.84929 28.0114 9.30819 27.4451 9.30819C26.8788 9.30819 26.4199 8.84929 26.4199 8.283C26.4199 7.71671 26.8788 7.25781 27.4451 7.25781Z" fill="#003333"/>
<path fill-rule="evenodd" clip-rule="evenodd" d="M11.6388 6.77912C6.30516 5.80303 2.03628 8.1989 0.00604029 11.3713C0.00604029 11.3713 -0.158569 12.0248 1.23084 11.9994C1.98683 11.9852 5.94235 11.5193 7.10531 12.9815C8.01922 10.8318 10.0148 8.30771 11.6388 6.77912Z" fill="#5E5CE6"/>
<path fill-rule="evenodd" clip-rule="evenodd" d="M10.7243 6.64311C6.19718 6.12592 2.526 8.04488 0.483398 10.6937C2.21548 8.45008 5.50935 8.15898 7.73283 8.25543C8.59834 8.29323 9.35822 7.99189 9.96267 7.37119C10.1132 7.21681 10.2665 7.06561 10.4226 6.91865C10.5219 6.82539 10.6229 6.73354 10.7243 6.64311Z" fill="#7383FF"/>
<path fill-rule="evenodd" clip-rule="evenodd" d="M16.493 30.1713C15.1601 29.5492 13.8855 28.7724 12.7265 27.8376C8.85533 24.7165 6.27011 19.8375 7.09075 13.0996C5.7123 16.4762 5.39648 20.348 6.64529 23.9269C7.49313 26.3574 8.72358 28.3746 10.2568 29.9696C13.9474 33.8086 19.3937 35.1987 25.4911 34.0114C27.0409 33.7097 30.8799 32.4817 32.9024 30.2003C33.6517 29.3553 34.1515 28.3658 34.1932 27.2251C33.9367 28.1323 33.2443 28.9536 32.2428 29.6407C28.8726 31.9525 22.0051 32.7438 16.493 30.1713Z" fill="#00AB69"/>
<path d="M22.5319 38.1634C22.3182 38.1634 22.1366 37.9991 22.1186 37.7822C22.0999 37.554 22.2698 37.3533 22.4983 37.3346C28.4718 36.8443 31.5463 33.8779 31.5766 33.8478C31.7399 33.6868 32.0023 33.6892 32.1634 33.8524C32.3242 34.0156 32.3224 34.2785 32.1589 34.4392C32.0264 34.5699 28.8367 37.6473 22.5658 38.162C22.5545 38.163 22.5432 38.1634 22.5319 38.1634Z" fill="#2D4096"/>
<path d="M28.2801 27.9409C27.5665 27.9409 26.4933 27.8505 25.5624 27.4001C25.3561 27.3004 25.2699 27.0521 25.3695 26.8458C25.4695 26.6395 25.7175 26.5529 25.9238 26.6529C27.2256 27.2821 28.9563 27.0793 28.9736 27.0765C29.2018 27.0507 29.4081 27.21 29.4364 27.4372C29.4646 27.6647 29.3035 27.8713 29.076 27.9003C29.0446 27.9038 28.7358 27.9409 28.2801 27.9409Z" fill="#2D4096"/>
<path fill-rule="evenodd" clip-rule="evenodd" d="M21.6826 27.8114C22.0069 28.2113 22.0988 28.5992 22.1599 28.9503C22.2486 29.4576 22.2733 29.8879 22.8435 30.1642C25.2782 31.3448 29.592 30.7824 31.9175 29.2722C32.6721 28.7822 33.3758 28.1717 33.9986 27.4542C34.0644 27.379 34.129 27.302 34.1926 27.2246C34.1926 27.2246 34.088 27.3172 33.9018 27.4691C33.5609 27.7478 32.9459 28.2272 32.1984 28.7055C32.038 28.8083 31.8748 28.9033 31.7087 28.9917C28.589 30.6513 24.5211 29.8264 21.6826 27.8114Z" fill="#30FFB0"/>
<path d="M3.80112 24.3215C3.65028 24.3215 3.50508 24.2395 3.4316 24.0958C1.62922 20.5864 2.56752 15.8872 2.6085 15.689C2.65477 15.4647 2.87202 15.3195 3.09847 15.3661C3.32314 15.4121 3.46761 15.6314 3.42133 15.8561C3.41215 15.9017 2.50319 20.4709 4.16992 23.7171C4.27484 23.9209 4.19428 24.171 3.99009 24.2756C3.93003 24.3067 3.86506 24.3215 3.80112 24.3215Z" fill="#2D4096"/>
<path d="M38.7651 7.0251C36.8285 7.0251 35.2529 5.44952 35.2529 3.51255C35.2529 1.57558 36.8285 0 38.7651 0C40.7017 0 42.2773 1.57558 42.2773 3.51255C42.2773 5.44952 40.7017 7.0251 38.7651 7.0251ZM38.7651 1.14071C37.4573 1.14071 36.3932 2.20475 36.3932 3.51255C36.3932 4.82035 37.4573 5.8844 38.7651 5.8844C40.0729 5.8844 41.1369 4.82035 41.1369 3.51255C41.1369 2.20475 40.0729 1.14071 38.7651 1.14071Z" fill="#2D4096"/>
<path fill-rule="evenodd" clip-rule="evenodd" d="M39.9137 1.37305C40.4902 1.37305 40.9576 1.84042 40.9576 2.41696C40.9576 2.99349 40.4902 3.46087 39.9137 3.46087C39.3371 3.46087 38.8701 2.99349 38.8701 2.41696C38.8701 1.84042 39.3375 1.37305 39.9137 1.37305Z" fill="#5E5CE6"/>
<path fill-rule="evenodd" clip-rule="evenodd" d="M38.9708 8.4668C39.5325 8.4668 39.9875 8.92216 39.9875 9.48351C39.9875 10.0452 39.5322 10.5002 38.9708 10.5002C38.4095 10.5002 37.9541 10.0449 37.9541 9.48351C37.9537 8.92216 38.4091 8.4668 38.9708 8.4668Z" fill="#5E5CE6"/>
<path d="M4.74404 34.3845C5.78005 34.3845 6.61988 33.5447 6.61988 32.5087C6.61988 31.4727 5.78005 30.6328 4.74404 30.6328C3.70803 30.6328 2.86816 31.4727 2.86816 32.5087C2.86816 33.5447 3.70803 34.3845 4.74404 34.3845Z" fill="#202A53"/>
<path d="M4.74355 34.6472C3.56399 34.6472 2.60449 33.6877 2.60449 32.5082C2.60449 31.3286 3.56399 30.3691 4.74355 30.3691C5.92312 30.3691 6.88257 31.3286 6.88257 32.5082C6.88257 33.6877 5.92312 34.6472 4.74355 34.6472ZM4.74355 30.8952C3.85402 30.8952 3.13051 31.619 3.13051 32.5082C3.13051 33.3974 3.85438 34.1212 4.74355 34.1212C5.63273 34.1212 6.35655 33.3974 6.35655 32.5082C6.35655 31.619 5.63309 30.8952 4.74355 30.8952Z" fill="#4947AD"/>
<path d="M5.71262 33.276C5.67658 33.276 5.64056 33.2686 5.60558 33.2534C5.47311 33.1944 5.41342 33.0393 5.47242 32.9065C5.60807 32.602 5.60206 32.2936 5.45616 32.0389C5.30849 31.7813 5.04033 31.6185 4.70119 31.5803C4.55706 31.5641 4.4532 31.4341 4.46945 31.2899C4.4857 31.1458 4.61182 31.0426 4.75984 31.0582C5.26254 31.1144 5.68226 31.3765 5.91224 31.7774C6.14045 32.1756 6.15525 32.6652 5.95247 33.1206C5.90937 33.2177 5.8133 33.276 5.71262 33.276Z" fill="#706EFF"/>
<path fill-rule="evenodd" clip-rule="evenodd" d="M11.0807 35.3301C11.7437 35.3301 12.2814 35.8678 12.2814 36.5308C12.2814 37.1939 11.7437 37.7316 11.0807 37.7316C10.4176 37.7316 9.87988 37.1939 9.87988 36.5308C9.87988 35.8678 10.4172 35.3301 11.0807 35.3301Z" fill="#4947AD"/>
<path fill-rule="evenodd" clip-rule="evenodd" d="M11.3558 35.4316C11.7928 35.4316 12.1475 35.786 12.1475 36.223C12.1475 36.66 11.7931 37.0143 11.3558 37.0143C10.9184 37.0143 10.5645 36.66 10.5645 36.223C10.5645 35.786 10.9188 35.4316 11.3558 35.4316Z" fill="#5E5CE6"/>
</svg>
