<svg width="49" height="39" viewBox="0 0 49 39" fill="none" xmlns="http://www.w3.org/2000/svg">
<path fill-rule="evenodd" clip-rule="evenodd" d="M11.1113 11.6357C11.1113 11.6357 12.0323 10.6096 13.927 10.3727C15.8217 10.1358 17.0057 9.0833 17.4004 8.29377C17.7952 7.50423 16.9533 7.55697 17.0321 7.55697C17.1112 7.55697 15.9532 6.978 14.7953 7.03073C13.6373 7.08347 12.3216 7.6097 12.3216 7.6097C12.3216 7.6097 12.6113 7.63607 12.2429 5.45203C11.8745 3.268 11.2691 3.42583 11.2428 2.18917C11.2164 0.952502 10.9531 -0.284536 10.506 0.0578678C10.0585 0.399901 8.13773 3.95207 9.16382 7.6097C10.1907 11.2673 11.1113 11.6357 11.1113 11.6357Z" fill="#01D180"/>
<path fill-rule="evenodd" clip-rule="evenodd" d="M10.0579 0.691406C9.36975 1.92993 8.35777 4.73712 9.16401 7.60968C9.54393 8.9637 9.90933 9.86687 10.2191 10.4674C10.5488 10.0726 10.9466 9.52855 10.9466 9.52855C10.9466 9.52855 10.3635 8.23767 10.0386 6.66491C9.63342 4.70221 9.51087 2.24597 10.0579 0.691406Z" fill="#00AB69"/>
<path fill-rule="evenodd" clip-rule="evenodd" d="M11.111 11.6367C11.111 11.6367 12.0323 10.6106 13.9267 10.3736C15.8214 10.1367 17.0058 9.08422 17.4002 8.29469C17.7949 7.50515 16.953 7.55789 17.0318 7.55789C17.1109 7.55789 16.3577 7.42234 15.1998 7.47507C13.4161 7.55603 12.1293 8.39384 11.8641 10.0186L10.7808 10.2722L10.7236 11.2764C10.9647 11.578 11.111 11.6367 11.111 11.6367Z" fill="#00AB69"/>
<path fill-rule="evenodd" clip-rule="evenodd" d="M47.6977 19.8976C47.6977 19.8976 46.3017 26.3134 39.678 29.1949C33.0538 32.0764 20.9412 35.1706 10.6368 31.6237C0.332333 28.0763 1.88798 17.8852 5.86797 13.4889C9.84832 9.09296 11.4456 9.48142 11.4456 9.48142C11.4456 9.48142 12.2834 9.53824 11.6005 10.7263C8.92028 15.3873 8.79884 21.7738 14.6587 21.0541C14.7727 20.5249 14.9558 19.7439 15.0624 19.6273C15.2258 19.449 15.8359 19.5827 16.907 19.8356C17.35 19.9403 17.9216 19.9634 18.4396 19.9541C25.9688 17.2204 42.5457 12.7023 47.6977 19.8976Z" fill="#0A84FF"/>
<path fill-rule="evenodd" clip-rule="evenodd" d="M11.7951 9.68164C11.7951 9.68498 11.8018 9.92192 11.8099 10.271C11.768 10.4002 11.7004 10.5506 11.5997 10.7256C9.46249 14.4426 8.95222 19.2563 11.8051 20.6895C11.3747 21.3368 10.444 21.424 9.47845 20.574C7.70515 19.0127 8.47613 15.794 9.07366 14.0207C9.67083 12.2493 11.791 9.68647 11.7951 9.68164Z" fill="#64D2FF"/>
<path fill-rule="evenodd" clip-rule="evenodd" d="M15.3115 22.4445C22.9202 17.2728 41.117 14.0452 46.4996 19.2021C46.4632 19.1995 44.6439 18.9867 42.6652 19.2229C40.6628 19.4617 38.4969 20.1505 37.9321 20.2456C36.809 20.4343 40.5525 18.7494 37.4887 18.5774C35.881 18.4872 30.4842 18.8092 25.8462 20.1691C21.6445 21.401 17.6025 23.3254 15.3115 22.4445Z" fill="#64D2FF"/>
<path fill-rule="evenodd" clip-rule="evenodd" d="M47.6892 19.9356C47.5644 20.4585 46.0095 26.4413 39.678 29.1954C33.0538 32.0769 20.9412 35.1711 10.6368 31.6242C0.332333 28.0768 1.88798 17.8857 5.86797 13.4894C9.84832 9.09345 11.5533 9.50492 11.5533 9.50492C11.5533 9.50492 11.3479 9.26873 11.632 9.69358C2.11675 15.7514 6.34518 25.3001 13.2453 26.9961C20.1453 28.6922 27.1613 26.4179 33.329 22.9868C39.4749 19.5683 47.365 19.5375 47.4211 19.5375L47.43 19.5479C47.4567 19.585 47.5548 19.7225 47.6892 19.9356Z" fill="#0C6ECF"/>
<path fill-rule="evenodd" clip-rule="evenodd" d="M47.6968 19.8984C47.6968 19.8984 47.4696 22.0349 45.8871 24.281C44.538 26.1961 42.0345 28.1704 39.6771 29.1957C34.554 31.4239 29.9245 32.7742 23.4448 33.2492L23.4444 33.2489C23.4444 33.2489 19.7437 30.9475 24.9786 29.5095C26.2104 29.1712 27.3334 28.5588 28.4628 28.1265C32.6763 26.5129 31.5619 25.9332 34.5065 23.4922C35.7242 22.4824 37.5658 21.6209 40.9226 20.8781C44.2791 20.1357 47.6968 19.8984 47.6968 19.8984Z" fill="#BAEBFF"/>
<path fill-rule="evenodd" clip-rule="evenodd" d="M39.7046 21.1717C40.0875 21.0726 40.4931 20.9753 40.9239 20.8798C41.1088 20.839 41.2933 20.7996 41.4783 20.7617C41.1065 21.8198 40.0671 23.4634 37.1815 25.7065C32.1212 29.6405 24.5408 30.9655 23.8352 31.0056C23.1296 31.0461 22.7077 30.7156 24.7528 30.2666C26.7984 29.8172 32.1743 28.0484 35.6637 25.5676C37.9662 23.931 39.1594 22.1763 39.7046 21.1717Z" fill="#91BBCC"/>
<path fill-rule="evenodd" clip-rule="evenodd" d="M45.0984 20.1692C45.6718 20.0961 46.1802 20.04 46.5921 19.998C46.4992 20.8871 45.8627 22.5 42.937 25.0576C38.4542 28.9767 31.1219 30.9747 30.4281 31.0902C29.7341 31.206 29.2717 30.9747 31.2377 30.3578C33.2038 29.741 38.2919 27.6208 41.4144 25.1152C44.5339 22.6121 45.0977 20.1733 45.0984 20.1692Z" fill="#91BBCC"/>
<path fill-rule="evenodd" clip-rule="evenodd" d="M28.4618 28.128C28.4618 28.128 25.3779 33.6863 24.5167 35.4978C23.6555 37.3097 21.7247 37.6663 18.4273 37.9039C15.1303 38.1416 12.0542 36.5068 17.4577 32.8815C19.0939 31.7837 21.9431 29.8359 23.4542 29.1581C26.9343 27.5973 28.4618 28.128 28.4618 28.128Z" fill="#01D180"/>
<path fill-rule="evenodd" clip-rule="evenodd" d="M28.1336 28.7227C27.3159 30.2048 25.2061 34.0492 24.5172 35.498C24.4214 35.6996 24.3126 35.8831 24.1897 36.0502C22.54 36.4219 23.1409 35.0616 23.1409 35.0616C23.1409 35.0616 23.9891 33.3076 25.5118 31.014C27.0322 28.7238 28.1303 28.7227 28.1336 28.7227Z" fill="#30FFB0"/>
<path fill-rule="evenodd" clip-rule="evenodd" d="M27.4086 23.8478C28.6412 23.4182 30.1994 22.684 31.2519 23.5563C31.7451 23.9648 32.483 24.1379 32.483 24.1379C32.483 24.1379 34.8464 22.6026 34.5586 22.3586C33.7709 21.6913 31.2069 21.1238 29.4058 21.49C28.1758 21.7399 27.2752 22.2068 26.7408 22.958C26.5912 23.1686 26.5945 23.4404 26.7494 23.6469C26.9042 23.8538 27.1646 23.9329 27.4086 23.8478Z" fill="#0C6ECF"/>
<path fill-rule="evenodd" clip-rule="evenodd" d="M28.4618 28.128C24.8732 28.4061 16.6198 33.8734 17.3849 36.0348C17.8283 37.2878 19.251 37.2915 23.4059 36.798C22.3345 37.5181 20.7079 37.7398 18.4273 37.9039C15.1303 38.1416 12.0542 36.5065 17.4577 32.8815C19.0939 31.7837 21.9431 29.8359 23.4542 29.1581C26.9343 27.5973 28.4618 28.128 28.4618 28.128Z" fill="#00AB69"/>
<path fill-rule="evenodd" clip-rule="evenodd" d="M30.7476 23.3838C31.6374 23.5327 32.2387 24.3783 32.0905 25.2726C31.9423 26.1668 31.1008 26.7711 30.211 26.6221C29.3212 26.4732 28.72 25.6276 28.8681 24.7334C29.0163 23.8391 29.8578 23.2352 30.7476 23.3838Z" fill="#1671CC"/>
<path fill-rule="evenodd" clip-rule="evenodd" d="M30.7262 22.7454C31.5492 22.8824 32.1047 23.6604 31.9681 24.4834C31.831 25.3063 31.053 25.8619 30.2304 25.7249C29.4074 25.5878 28.8515 24.8098 28.9885 23.9869C29.1256 23.1643 29.9036 22.6083 30.7262 22.7454Z" fill="white"/>
<path fill-rule="evenodd" clip-rule="evenodd" d="M31.0015 23.3067C31.3903 23.3713 31.6529 23.7389 31.5879 24.1278C31.5233 24.5166 31.1556 24.7791 30.7672 24.7141C30.3783 24.6495 30.1158 24.2819 30.1808 23.893C30.245 23.5046 30.6127 23.242 31.0015 23.3067Z" fill="#003333"/>
<path d="M41.9955 11.1503C41.9201 11.1503 41.844 11.1477 41.7675 11.1421C40.953 11.082 40.2103 10.7084 39.6763 10.0897C39.1426 9.47097 38.8819 8.68143 38.9421 7.86665C39.0643 6.20253 40.5226 4.91907 42.2172 5.04125C43.0316 5.10142 43.7744 5.47502 44.3084 6.09372C44.842 6.71242 45.1028 7.50196 45.0426 8.31675C44.9256 9.90584 43.5872 11.1503 41.9955 11.1503ZM41.9895 6.23187C41.0225 6.23187 40.2088 6.98872 40.1375 7.95503C40.1011 8.45044 40.2597 8.93025 40.5839 9.30645C40.9085 9.68265 41.3601 9.90993 41.8559 9.94632C42.8716 10.018 43.7722 9.24109 43.8472 8.22873C43.8836 7.73332 43.725 7.25351 43.4008 6.87694C43.0762 6.50074 42.6246 6.27346 42.1288 6.23707C42.082 6.23373 42.0356 6.23187 41.9895 6.23187Z" fill="#2D4096"/>
<path fill-rule="evenodd" clip-rule="evenodd" d="M43.0823 6.37743C43.5629 6.41271 43.9238 6.83125 43.8882 7.3118C43.8529 7.79235 43.4344 8.15333 42.9538 8.11767C42.4733 8.08202 42.1123 7.66386 42.1479 7.18331C42.1836 6.70275 42.6017 6.34178 43.0823 6.37743Z" fill="#5E5CE6"/>
<path fill-rule="evenodd" clip-rule="evenodd" d="M45.0189 13.2185C45.7534 13.2727 46.3049 13.9119 46.2507 14.6464C46.1965 15.381 45.557 15.9325 44.8224 15.8783C44.0879 15.8241 43.5364 15.1849 43.5906 14.4504C43.6452 13.7158 44.2843 13.1643 45.0189 13.2185Z" fill="#4947AD"/>
<path fill-rule="evenodd" clip-rule="evenodd" d="M45.288 13.2582C45.7537 13.2927 46.1035 13.6983 46.0694 14.164C46.0348 14.6297 45.6297 14.9795 45.1636 14.9454C44.6975 14.9108 44.3477 14.5053 44.3822 14.0396C44.4168 13.5735 44.8223 13.2237 45.288 13.2582Z" fill="#5E5CE6"/>
<path fill-rule="evenodd" clip-rule="evenodd" d="M47.77 17.3023C48.0827 17.3254 48.3178 17.5976 48.2948 17.9106C48.2714 18.2237 47.9992 18.4584 47.6865 18.4354C47.3738 18.4124 47.1387 18.1401 47.1617 17.8271C47.1847 17.5144 47.4573 17.2793 47.77 17.3023Z" fill="#5E5CE6"/>
<path fill-rule="evenodd" clip-rule="evenodd" d="M15.7099 12.1463C16.4445 12.2005 16.996 12.84 16.9418 13.5742C16.8875 14.3088 16.2484 14.8602 15.5138 14.806C14.7793 14.7518 14.2278 14.1127 14.282 13.3781C14.3362 12.6435 14.9757 12.092 15.7099 12.1463Z" fill="#4947AD"/>
<path fill-rule="evenodd" clip-rule="evenodd" d="M15.9804 12.1879C16.4461 12.2224 16.7959 12.628 16.7617 13.0937C16.7272 13.5594 16.3217 13.9092 15.856 13.875C15.3899 13.8405 15.0401 13.435 15.0746 12.9693C15.1092 12.5032 15.5147 12.1534 15.9804 12.1879Z" fill="#5E5CE6"/>
<path fill-rule="evenodd" clip-rule="evenodd" d="M30.5391 2.30468C30.9242 2.33291 31.2135 2.66826 31.1849 3.05337C31.1563 3.43848 30.8213 3.72778 30.4359 3.69955C30.0507 3.67096 29.7614 3.33598 29.79 2.9505C29.8186 2.56539 30.1536 2.27609 30.5391 2.30468Z" fill="#4947AD"/>
<path fill-rule="evenodd" clip-rule="evenodd" d="M30.6803 2.32546C30.9247 2.34329 31.1081 2.55608 31.0899 2.80045C31.0721 3.04481 30.8593 3.22827 30.615 3.21007C30.3706 3.19224 30.1871 2.97945 30.2053 2.73509C30.2232 2.49072 30.436 2.30727 30.6803 2.32546Z" fill="#5E5CE6"/>
<path fill-rule="evenodd" clip-rule="evenodd" d="M6.61138 8.29453C6.92221 8.31756 7.15583 8.58829 7.1328 8.89913C7.10978 9.20997 6.83903 9.44356 6.52819 9.42053C6.21698 9.39751 5.98375 9.12715 6.0064 8.81594C6.0298 8.5051 6.30054 8.27151 6.61138 8.29453Z" fill="#4947AD"/>
<path fill-rule="evenodd" clip-rule="evenodd" d="M6.72346 8.31152C6.92065 8.32601 7.06883 8.49758 7.05434 8.69515C7.03986 8.89235 6.86793 9.04053 6.67073 9.02604C6.47354 9.01156 6.32536 8.83962 6.33984 8.64242C6.3547 8.44522 6.52626 8.29704 6.72346 8.31152Z" fill="#5E5CE6"/>
<path d="M18.8418 10.4098C18.7367 10.4098 18.6316 10.3727 18.547 10.2973C18.3642 10.1346 18.3479 9.8546 18.5102 9.67189C18.6053 9.56493 20.8825 7.04704 25.0827 6.12158C25.3215 6.06959 25.5584 6.22037 25.6112 6.45953C25.6643 6.69869 25.5127 6.93526 25.2736 6.98799C21.3671 7.84846 19.1942 10.2375 19.1727 10.2616C19.0854 10.3597 18.9636 10.4098 18.8418 10.4098Z" fill="#2D4096"/>
<path d="M14.6979 3.97029C14.5449 3.97029 14.396 3.89081 14.3135 3.74858C14.191 3.53652 14.2634 3.26542 14.4758 3.14287C14.657 3.03814 19.011 0.585609 27.0207 1.18092C27.2647 1.19911 27.4482 1.41191 27.4304 1.6559C27.4125 1.89989 27.206 2.08521 26.955 2.06552C19.2127 1.49138 14.9619 3.88673 14.92 3.91124C14.8494 3.95097 14.7733 3.97029 14.6979 3.97029Z" fill="#2D4096"/>
<path fill-rule="evenodd" clip-rule="evenodd" d="M19.8516 5.16011C20.2367 5.1887 20.526 5.52368 20.4974 5.90879C20.4688 6.2939 20.1338 6.5832 19.7484 6.55498C19.3632 6.52638 19.0739 6.19141 19.1025 5.80592C19.1311 5.42081 19.4665 5.13188 19.8516 5.16011Z" fill="#4947AD"/>
<path fill-rule="evenodd" clip-rule="evenodd" d="M19.9928 5.18284C20.2372 5.20104 20.4206 5.41346 20.4024 5.65782C20.3842 5.90218 20.1718 6.08564 19.9275 6.06745C19.6831 6.04925 19.4996 5.83682 19.5178 5.59246C19.5357 5.3481 19.7485 5.16501 19.9928 5.18284Z" fill="#5E5CE6"/>
<path d="M9.87857 35.6849C9.84329 35.6849 9.80837 35.6809 9.77272 35.6723C2.17484 33.8084 1.52347 28.2122 1.49933 27.9749C1.47482 27.7313 1.65233 27.5137 1.89595 27.4888C2.14292 27.4632 2.35608 27.641 2.3817 27.8843C2.4051 28.0993 3.02049 33.1024 9.98407 34.81C10.2221 34.8683 10.3677 35.1086 10.3094 35.3463C10.2592 35.549 10.078 35.6849 9.87857 35.6849Z" fill="#2D4096"/>
<path d="M9.3052 38.7244C4.99581 38.7244 2.82368 37.0948 2.7067 37.0045C2.51284 36.8545 2.47683 36.5756 2.62686 36.3814C2.77653 36.1879 3.05503 36.1519 3.24888 36.3008C3.28899 36.3309 6.78099 38.9067 13.7034 37.3005C13.9403 37.2444 14.1809 37.3937 14.2367 37.6329C14.2924 37.8721 14.1434 38.1105 13.9043 38.1662C12.1666 38.5691 10.6343 38.7244 9.3052 38.7244Z" fill="#2D4096"/>
<path fill-rule="evenodd" clip-rule="evenodd" d="M0.750945 32.4629C1.13606 32.4911 1.42536 32.8265 1.39676 33.2116C1.36817 33.5967 1.0332 33.886 0.648084 33.8578C0.262972 33.8292 -0.0263226 33.4942 0.00190157 33.1087C0.0304971 32.7236 0.365833 32.4343 0.750945 32.4629Z" fill="#4947AD"/>
<path fill-rule="evenodd" clip-rule="evenodd" d="M0.891287 32.4817C1.13565 32.4999 1.31912 32.7123 1.30092 32.9567C1.28272 33.201 1.07028 33.3845 0.825916 33.3663C0.581554 33.3481 0.398087 33.1356 0.416284 32.8913C0.434481 32.6473 0.646925 32.4638 0.891287 32.4817Z" fill="#5E5CE6"/>
<path fill-rule="evenodd" clip-rule="evenodd" d="M1.12655 19.188C1.62011 19.2244 1.99106 19.6541 1.9543 20.1476C1.9179 20.6412 1.48823 21.0122 0.99468 20.9754C0.500756 20.939 0.130135 20.5094 0.166529 20.0158C0.202924 19.5222 0.633002 19.1516 1.12655 19.188Z" fill="#4947AD"/>
<path fill-rule="evenodd" clip-rule="evenodd" d="M1.30556 19.2125C1.61863 19.2355 1.85373 19.5081 1.8307 19.8212C1.80768 20.1342 1.53508 20.3693 1.22201 20.3463C0.908945 20.3233 0.673844 20.0507 0.696869 19.7376C0.719894 19.4245 0.992495 19.1895 1.30556 19.2125Z" fill="#5E5CE6"/>
</svg>
