<svg width="41" height="43" viewBox="0 0 41 43" fill="none" xmlns="http://www.w3.org/2000/svg">
<path fill-rule="evenodd" clip-rule="evenodd" d="M24.1366 36.334C23.6217 36.3795 21.9093 36.1531 18.7109 37.4372C15.5126 38.7217 14.9336 39.5775 14.9336 39.5775C14.9336 39.5775 14.9336 40.6605 17.0489 40.1818C19.1642 39.7032 19.1598 39.845 18.5304 40.4744C17.9011 41.1037 17.5989 42.3628 18.7069 42.0607C19.8149 41.7585 25.3845 39.3301 25.6113 37.9932C25.8378 36.6559 23.9988 36.34 23.9988 36.34L24.1366 36.334Z" fill="#FF9500"/>
<path fill-rule="evenodd" clip-rule="evenodd" d="M11.2277 16.7533C6.29844 18.0366 -0.803388 16.5325 0.0741669 10.8921C1.24464 3.36678 17.1965 7.78679 16.3964 1.50046C16.2944 0.698659 15.7779 0.463355 15.2984 0C16.0849 0.0902536 16.7574 0.991177 16.7755 1.80265C16.9266 8.48786 2.02791 4.60777 1.19709 11.0536C0.591911 15.7496 6.93424 16.4632 10.7817 15.383C11.16 15.2597 11.567 15.4664 11.6903 15.8451C11.8132 16.2235 11.6061 16.63 11.2277 16.7533Z" fill="#FF9500"/>
<path fill-rule="evenodd" clip-rule="evenodd" d="M11.2277 16.7535C6.29844 18.0368 -0.803388 16.5327 0.0741669 10.8922C0.217606 9.97115 0.583447 9.22978 1.11167 8.625C1.04318 8.78939 -1.02097 13.8251 2.76888 15.1873C3.53925 15.4641 4.32172 15.579 5.08082 15.5854C6.93021 15.9851 9.0955 15.8562 10.7813 15.3831C11.1596 15.2598 11.5666 15.4665 11.6899 15.8453C11.8132 16.2236 11.6061 16.6302 11.2277 16.7535Z" fill="#CC7700"/>
<path fill-rule="evenodd" clip-rule="evenodd" d="M17.1487 11.3633C13.8392 11.4137 11.6102 12.01 7.08184 14.0999C5.70306 14.7366 5.91499 15.3466 8.62018 16.0891C11.3258 16.8317 17.108 18.1315 19.4156 18.476C21.0623 18.7222 22.736 18.6843 23.8779 18.3439C28.9845 16.8213 25.2284 11.2404 17.1487 11.3633Z" fill="#FF453A"/>
<path fill-rule="evenodd" clip-rule="evenodd" d="M17.1479 11.3653C15.6563 11.3878 14.3839 11.5216 13.022 11.8528C12.9072 11.8806 12.8331 11.9898 12.8488 12.1066C12.8645 12.2235 12.9652 12.3085 13.0833 12.3053C16.1974 12.2094 20.1754 12.5966 23.9915 13.5318C24.1011 13.5583 24.2115 13.504 24.2566 13.4008C24.3017 13.2977 24.2667 13.1796 24.1732 13.1176C22.5986 12.0748 20.177 11.3193 17.1479 11.3653Z" fill="#FF6E66"/>
<path fill-rule="evenodd" clip-rule="evenodd" d="M6.27148 14.9622C6.40485 15.3159 7.13856 15.683 8.6213 16.0904C11.3269 16.8329 17.1092 18.1327 19.4167 18.4772C21.0634 18.7234 22.7371 18.6855 23.879 18.3451C26.4085 17.5908 26.7623 15.8405 25.4939 14.2812C27.5504 19.0929 16.4911 16.0372 14.6659 15.9445C10.7132 15.743 6.27471 14.963 6.27148 14.9622Z" fill="#D12E26"/>
<path fill-rule="evenodd" clip-rule="evenodd" d="M12.7404 12.8398C11.7226 12.8398 10.8975 13.613 10.8975 14.5668C10.8975 15.5205 11.7226 16.2937 12.7404 16.2937C13.7582 16.2937 14.5838 15.5205 14.5838 14.5668C14.5834 13.613 13.7582 12.8398 12.7404 12.8398Z" fill="#D12E26"/>
<path fill-rule="evenodd" clip-rule="evenodd" d="M12.7415 12.4863C11.9152 12.4863 11.2451 13.1564 11.2451 13.9828C11.2451 14.8091 11.9152 15.4792 12.7415 15.4792C13.5679 15.4792 14.238 14.8091 14.238 13.9828C14.238 13.1564 13.5679 12.4863 12.7415 12.4863Z" fill="white"/>
<path fill-rule="evenodd" clip-rule="evenodd" d="M12.5202 13.2285C12.1374 13.2285 11.8271 13.5388 11.8271 13.9215C11.8271 14.3043 12.1374 14.6146 12.5202 14.6146C12.9029 14.6146 13.2132 14.3043 13.2132 13.9215C13.2132 13.5388 12.9029 13.2285 12.5202 13.2285Z" fill="#003333"/>
<path fill-rule="evenodd" clip-rule="evenodd" d="M14.5726 17.4551C3.28968 26.765 -4.71428 12.4142 6.92601 10.8255C9.61468 10.4585 14.7346 10.703 16.5936 8.55469C15.9393 11.0044 8.6924 11.3243 7.02151 11.6225C-2.84917 13.3861 4.29456 24.368 13.5641 16.4253C13.8485 16.1469 14.3046 16.1513 14.5831 16.4358C14.8615 16.7206 14.857 17.1767 14.5726 17.4551Z" fill="#FF9500"/>
<path fill-rule="evenodd" clip-rule="evenodd" d="M14.573 17.457C7.60657 23.2051 1.8928 19.9334 1.27835 16.2148C1.26948 16.5283 3.44322 21.0567 8.32054 19.8218C12.6938 18.7141 13.2144 16.8728 13.5653 16.4268C13.6 16.3929 13.6374 16.3627 13.6769 16.3373C13.7333 16.3208 13.7978 16.2898 13.8707 16.2491C14.1165 16.179 14.3925 16.2422 14.5839 16.4377C14.8619 16.7225 14.8575 17.1786 14.573 17.457Z" fill="#CC7700"/>
<path fill-rule="evenodd" clip-rule="evenodd" d="M26.4709 20.3036C32.6613 20.111 32.8551 16.1048 31.1693 14.031C29.7978 12.3448 22.7886 11.1014 21.5082 11.9165C23.6158 12.5338 25.1034 13.5906 25.7859 14.6894C26.684 16.1359 26.188 17.6557 23.8773 18.3447C23.1561 18.5598 22.2229 18.6541 21.2181 18.6323C20.992 18.6275 20.762 18.6166 20.5303 18.6001C20.7442 18.6227 20.9557 18.6484 21.1653 18.6779C23.1637 18.9571 24.962 19.5373 26.4709 20.3036Z" fill="#FF453A"/>
<path fill-rule="evenodd" clip-rule="evenodd" d="M31.6732 14.8175C31.535 14.5355 31.3654 14.2699 31.1708 14.0306C30.0075 12.6002 24.7886 11.489 22.4492 11.682C23.8816 12.1321 25.0118 12.7868 25.7781 13.5137C26.2991 14.008 26.8346 14.3364 27.5111 14.5774C28.5905 14.9617 29.6276 15.3969 30.5934 15.8844C30.9056 16.042 31.2679 15.9852 31.5169 15.7394C31.7655 15.4932 31.8267 15.1322 31.6732 14.8175Z" fill="#FF6E66"/>
<path fill-rule="evenodd" clip-rule="evenodd" d="M26.4709 20.3025C30.2881 20.1836 31.8244 18.6147 32.0469 16.9434C31.756 18.0212 31.0722 18.364 30.2249 18.6948C27.8319 19.6284 24.2186 18.4483 25.1135 17.7971C24.7815 18.0115 24.3709 18.1968 23.8773 18.3439C23.1561 18.5591 22.2229 18.6533 21.2181 18.6316C20.992 18.6268 20.762 18.6159 20.5303 18.5994C20.7442 18.6219 20.9557 18.6477 21.1653 18.6771C23.1637 18.9559 24.962 19.5361 26.4709 20.3025Z" fill="#D12E26"/>
<path fill-rule="evenodd" clip-rule="evenodd" d="M31.1898 14.0547C32.8543 16.1354 32.6379 20.1105 26.4717 20.3023C28.6333 21.4007 30.2007 22.8802 30.909 24.4016C34.418 27.8772 38.1349 25.7598 38.6414 22.6658C38.8678 21.2818 38.4472 20.2858 37.7562 19.1254C37.6966 19.0255 37.6353 18.926 37.5721 18.8272C37.0595 18.0262 36.4624 17.3082 35.8057 16.6664C34.9277 15.8086 32.9111 14.2271 31.1898 14.0547Z" fill="#FF453A"/>
<path fill-rule="evenodd" clip-rule="evenodd" d="M34.4869 18.5491C35.8536 19.8529 36.7758 21.1886 37.3931 22.4485C37.5321 22.7326 37.8347 22.8816 38.1445 22.8196C38.4544 22.7575 38.676 22.5029 38.6945 22.1874C38.7622 21.0431 38.3637 20.1486 37.7549 19.1268C37.6953 19.0269 37.634 18.9274 37.5708 18.8287C37.0583 18.0277 36.4612 17.3097 35.8044 16.6678C35.1521 16.03 33.8704 14.9929 32.5488 14.4316C32.8744 14.9172 33.1032 15.4812 33.1923 16.0647C33.3438 17.053 33.7632 17.8585 34.4869 18.5491Z" fill="#FF6E66"/>
<path fill-rule="evenodd" clip-rule="evenodd" d="M30.984 18.9112C30.1141 19.6852 28.6716 20.2352 26.4717 20.3037C28.6333 21.402 30.2007 22.8816 30.909 24.403C34.2274 27.69 37.7312 25.9744 38.5306 23.1616C37.2687 24.7269 35.7855 24.7334 34.559 24.5722C33.2633 24.4018 32.2322 23.971 31.2608 22.1769C30.5706 20.9036 30.0274 20.1022 30.984 18.9112ZM31.7201 17.9805L31.7189 17.9829L31.7205 17.9809L31.7201 17.9805Z" fill="#D12E26"/>
<path fill-rule="evenodd" clip-rule="evenodd" d="M38.6243 22.7676C38.0557 25.8072 34.3807 27.8431 30.9092 24.4046C31.2094 25.0493 31.3552 25.7012 31.327 26.335C31.3044 26.8435 31.2267 27.3427 31.105 27.827C31.0824 27.9165 31.0587 28.0055 31.0333 28.0937C30.1533 31.7917 34.481 33.8792 37.6581 30.1386C37.7652 30.0124 37.8708 29.8795 37.9751 29.7401C38.5477 28.9733 38.7717 28.128 38.9776 27.1985C39.5159 24.7693 39.1924 23.5456 38.6243 22.7676Z" fill="#FF453A"/>
<path fill-rule="evenodd" clip-rule="evenodd" d="M38.3291 25.1216C38.4762 25.7953 38.5459 26.409 38.5721 26.9368C38.5777 27.0528 38.6675 27.1455 38.7836 27.1544C38.8996 27.1632 39.0028 27.0855 39.0261 26.9718C39.334 25.4762 39.3021 24.4572 39.0882 23.7207C38.9206 24.2364 38.6615 24.7119 38.3291 25.1216Z" fill="#FF6E66"/>
<path fill-rule="evenodd" clip-rule="evenodd" d="M35.8715 26.008C34.4452 26.475 32.6518 26.1284 30.9092 24.4023C31.2094 25.047 31.3552 25.6989 31.327 26.3327C31.3044 26.8412 31.2267 27.3404 31.105 27.8247C31.0824 27.9142 31.0587 28.0032 31.0333 28.0915C30.1533 31.7894 34.481 33.877 37.6581 30.1363C37.7652 30.0102 37.8708 29.8772 37.9752 29.7378C38.061 29.623 38.1391 29.5061 38.2105 29.3876C34.4972 31.814 32.46 30.0988 32.1361 28.3856C31.9052 27.1639 32.3625 26.7477 33.6261 26.5584C34.6749 26.4008 35.8719 26.0084 35.8715 26.008Z" fill="#D12E26"/>
<path fill-rule="evenodd" clip-rule="evenodd" d="M37.8945 29.8433C37.7672 30.0085 37.6374 30.164 37.5057 30.3095C34.3448 33.8108 30.1665 31.7314 31.0324 28.0918C30.6122 29.5552 29.8007 30.8663 28.9135 31.8518C28.8405 31.9328 28.7354 32.0331 28.6068 32.1472C28.6068 32.1472 26.5439 34.0884 27.3751 35.3226C28.1117 36.4165 30.2411 36.6792 32.5091 35.7956C34.618 34.9736 37.3896 32.0021 37.8945 29.8433Z" fill="#FF453A"/>
<path fill-rule="evenodd" clip-rule="evenodd" d="M30.5219 29.4375L30.5211 29.4395L30.5219 29.4375ZM37.8949 29.8428C36.4383 31.7317 34.9681 33.6834 32.7968 34.7794C30.6222 35.8765 27.7265 34.283 28.8305 32.6262C29.2068 32.0617 29.961 30.556 30.3309 29.8199C29.9268 30.5854 29.4332 31.274 28.9135 31.851C28.8405 31.932 28.7354 32.0323 28.6068 32.1463C28.6068 32.1463 26.5439 34.0876 27.3751 35.3217C28.1117 36.4156 30.2411 36.6783 32.5091 35.7947C34.6184 34.9732 37.39 32.0017 37.8949 29.8428Z" fill="#D12E26"/>
<path fill-rule="evenodd" clip-rule="evenodd" d="M32.4703 35.8122C30.2171 36.6772 28.1079 36.4109 27.3758 35.3238C26.545 34.0897 28.6075 32.1484 28.6075 32.1484C27.8363 32.8318 26.2299 33.9938 25.8012 34.267C24.9063 34.8375 24.0312 35.6276 23.6089 36.3456C23.0267 37.3348 23.3039 38.1866 25.5703 38.1362C25.8056 38.131 26.0623 38.1161 26.3415 38.0907C27.6844 37.9678 29.5374 37.3662 31.1322 36.6406C31.4158 36.5116 32.3897 36.1317 32.4703 35.8122Z" fill="#FF453A"/>
<path fill-rule="evenodd" clip-rule="evenodd" d="M32.4703 35.8107C31.7418 36.0904 31.0286 36.2519 30.3719 36.3055H30.3715C28.977 36.8748 25.5792 37.4329 24.8531 36.9071C24.127 36.3813 24.9482 34.8828 24.9482 34.8828C24.3845 35.3433 23.8938 35.8603 23.6089 36.3446C23.0267 37.3338 23.3039 38.1855 25.5703 38.1352C25.8056 38.1299 26.0623 38.115 26.3415 38.0896C27.6844 37.9667 29.5374 37.3652 31.1322 36.6395C31.4158 36.5102 32.3897 36.1302 32.4703 35.8107Z" fill="#D12E26"/>
<path d="M14.1658 24.9377C14.1355 24.9377 14.1053 24.9353 14.0747 24.9309C13.7447 24.8809 13.5175 24.5727 13.5674 24.2431L14.1718 20.2389C14.1924 20.1035 14.258 19.9786 14.3588 19.8855L16.7932 17.6336C17.0382 17.4064 17.4209 17.4217 17.6474 17.6671C17.8742 17.9121 17.8589 18.2944 17.6139 18.5213L15.335 20.6293L14.7621 24.4236C14.7174 24.723 14.4595 24.9377 14.1658 24.9377Z" fill="#FF9F0A"/>
<path d="M17.4919 25.461C17.4617 25.461 17.4315 25.4586 17.4009 25.4542C17.0709 25.4042 16.8436 25.0964 16.8936 24.7664L17.498 20.7622C17.5185 20.6264 17.5842 20.5019 17.6849 20.4088L20.1198 18.1569C20.3647 17.9301 20.7475 17.945 20.9739 18.1904C21.2008 18.4353 21.1855 18.8177 20.9405 19.0445L18.6612 21.1526L18.0883 24.9469C18.0435 25.2463 17.7857 25.461 17.4919 25.461Z" fill="#FF9F0A"/>
<path d="M20.5525 26.0468C20.5223 26.0468 20.492 26.0444 20.4614 26.04C20.1314 25.99 19.9042 25.6822 19.9542 25.3522L20.5585 21.348C20.5791 21.2126 20.6447 21.0877 20.7455 20.9946L23.1803 18.7427C23.4253 18.5159 23.8081 18.5312 24.0345 18.7762C24.2613 19.0211 24.246 19.4035 24.0011 19.6303L21.7217 21.7384L21.1488 25.5327C21.1041 25.832 20.8466 26.0468 20.5525 26.0468Z" fill="#FF9F0A"/>
<path d="M23.6169 26.9374C23.5867 26.9374 23.5565 26.935 23.5259 26.9306C23.1959 26.8806 22.9686 26.5728 23.0186 26.2428L23.623 22.2386C23.6435 22.1032 23.7092 21.9783 23.8099 21.8852L26.2448 19.6333C26.4897 19.4065 26.8725 19.4218 27.099 19.6668C27.3258 19.9118 27.3105 20.2941 27.0655 20.521L24.7862 22.629L24.2133 26.4233C24.1685 26.7227 23.9111 26.9374 23.6169 26.9374Z" fill="#FF9F0A"/>
<path d="M11.5949 34.3603C11.3673 34.3603 11.1698 34.1911 11.1404 33.9594C11.1086 33.708 11.2863 33.4787 11.5377 33.4469L11.8653 33.405C17.0697 32.7462 26.7567 31.5205 26.3477 25.117C26.3316 24.8643 26.5234 24.6463 26.776 24.6302C27.0311 24.6109 27.247 24.8055 27.2632 25.0585C27.7269 32.3223 17.4835 33.6185 11.9801 34.3152L11.6529 34.3567C11.6336 34.3591 11.6138 34.3603 11.5949 34.3603Z" fill="#2D4096"/>
<path d="M38.8943 15.3212C38.7199 15.3212 38.5535 15.2213 38.4765 15.0525C38.0567 14.129 37.358 13.2659 36.3991 12.4887C36.2024 12.3291 36.1722 12.0402 36.3318 11.8432C36.4913 11.6462 36.7798 11.6164 36.9773 11.7759C38.0474 12.6438 38.8327 13.6185 39.3117 14.6725C39.4165 14.9034 39.3146 15.1753 39.0841 15.2801C39.022 15.3079 38.9576 15.3212 38.8943 15.3212ZM32.0717 10.1139C32.0198 10.1139 31.9666 10.105 31.915 10.0861C27.9132 8.63075 23.1145 8.15007 20.1341 8.3193C19.8802 8.33541 19.6647 8.1404 19.6502 7.88737C19.6357 7.63474 19.8291 7.41757 20.0821 7.40347C22.9299 7.24149 27.8217 7.62104 32.2285 9.22425C32.4666 9.31088 32.5895 9.57398 32.5028 9.81211C32.4352 9.99826 32.2591 10.1139 32.0717 10.1139Z" fill="#2D4096"/>
<path d="M7.94729 42.4614C7.80304 42.4614 7.65719 42.4602 7.51012 42.4581C7.26031 42.4545 7.06088 42.2494 7.0645 41.9996C7.06773 41.7498 7.27039 41.5564 7.52302 41.554C11.001 41.6036 13.7908 41.0161 13.8186 41.0097C14.0636 40.9589 14.3033 41.1132 14.3553 41.357C14.4077 41.6011 14.2522 41.8417 14.008 41.8941C13.8948 41.9186 11.3201 42.4614 7.94729 42.4614Z" fill="#5E5CE6"/>
<path d="M7.2401 36.9739C6.10226 36.9739 5.17676 36.0484 5.17676 34.911C5.17676 33.7732 6.10226 32.8477 7.2401 32.8477C8.37794 32.8477 9.30344 33.7732 9.30344 34.911C9.30344 36.0484 8.37794 36.9739 7.2401 36.9739ZM7.2401 33.7518C6.60107 33.7518 6.08132 34.272 6.08132 34.911C6.08132 35.55 6.60107 36.0698 7.2401 36.0698C7.87913 36.0698 8.39889 35.55 8.39889 34.911C8.39889 34.272 7.87913 33.7518 7.2401 33.7518Z" fill="#2D4096"/>
<path d="M38.6057 40.7458C37.4679 40.7458 36.542 39.8203 36.542 38.6825C36.542 37.5446 37.4675 36.6191 38.6057 36.6191C39.7436 36.6191 40.6691 37.5446 40.6691 38.6825C40.6691 39.8203 39.7436 40.7458 38.6057 40.7458ZM38.6057 37.5233C37.9667 37.5233 37.4469 38.0435 37.4469 38.6825C37.4469 39.3215 37.9671 39.8417 38.6057 39.8417C39.2444 39.8417 39.7645 39.3215 39.7645 38.6825C39.7645 38.0435 39.2448 37.5233 38.6057 37.5233Z" fill="#2D4096"/>
<path d="M4.40453 30.0278C2.60711 30.0278 1.14453 28.5652 1.14453 26.7678C1.14453 24.9704 2.60671 23.5078 4.40453 23.5078C6.20235 23.5078 7.66454 24.9704 7.66454 26.7678C7.66454 28.5652 6.20235 30.0278 4.40453 30.0278ZM4.40453 24.7826C3.3098 24.7826 2.41935 25.6731 2.41935 26.7678C2.41935 27.8625 3.3098 28.753 4.40453 28.753C5.49925 28.753 6.3897 27.8625 6.3897 26.7678C6.3897 25.6731 5.49925 24.7826 4.40453 24.7826Z" fill="#2D4096"/>
<path fill-rule="evenodd" clip-rule="evenodd" d="M5.80519 23.8691C5.09243 23.8691 4.51465 24.4469 4.51465 25.1597C4.51465 25.8724 5.09243 26.4502 5.80519 26.4502C6.51796 26.4502 7.09573 25.8724 7.09573 25.1597C7.09613 24.4473 6.51836 23.8691 5.80519 23.8691Z" fill="#425DD6"/>
<path fill-rule="evenodd" clip-rule="evenodd" d="M3.95789 38.3984C4.56025 38.3984 5.04858 38.8868 5.04858 39.4891C5.04858 40.0915 4.56025 40.5798 3.95789 40.5798C3.35552 40.5798 2.86719 40.0915 2.86719 39.4891C2.86719 38.8868 3.35552 38.3984 3.95789 38.3984Z" fill="#4947AD"/>
<path fill-rule="evenodd" clip-rule="evenodd" d="M31.0546 40.3125C31.6569 40.3125 32.1453 40.8008 32.1453 41.4032C32.1453 42.0056 31.6569 42.4939 31.0546 42.4939C30.4522 42.4939 29.9639 42.0056 29.9639 41.4032C29.9639 40.8008 30.4522 40.3125 31.0546 40.3125Z" fill="#4947AD"/>
</svg>
