<svg width="48" height="36" viewBox="0 0 48 36" fill="none" xmlns="http://www.w3.org/2000/svg">
<path fill-rule="evenodd" clip-rule="evenodd" d="M22.5822 7.98247C22.5822 7.98247 20.6474 5.22374 16.2738 4.24343C11.9005 3.26313 6.58008 3.93135 6.58008 3.93135C6.58008 3.93135 13.8469 5.41412 16.1883 7.99815C17.16 9.07066 18.5651 9.10762 18.6174 9.20132C18.6696 9.29465 18.3482 9.3779 18.0074 9.46301C17.6117 9.56194 17.3582 9.60487 17.5743 10.649C17.8703 12.0788 17.2283 13.0441 16.479 13.6037C15.3756 14.428 12.6986 15.6207 12.6986 15.6207C12.6986 15.6207 17.7032 16.2318 20.5298 13.8878C23.3569 11.5442 22.8548 9.87664 22.8548 9.87664L22.5822 7.98247Z" fill="#5E5CE6"/>
<path fill-rule="evenodd" clip-rule="evenodd" d="M22.1888 7.51099C21.4243 6.67926 19.5215 4.97138 16.2738 4.24343C11.9005 3.26313 6.58008 3.93135 6.58008 3.93135C6.58008 3.93135 12.0419 3.75627 14.9586 5.28048C17.8748 6.80469 18.3781 7.63754 20.0158 7.70697C20.9147 7.74505 21.6606 7.65583 22.1888 7.51099Z" fill="#7383FF"/>
<path fill-rule="evenodd" clip-rule="evenodd" d="M11.8699 29.985C11.8699 29.985 9.6211 30.9336 10.576 31.6044C11.5309 32.2756 16.7561 35.2367 25.3646 33.5124C33.973 31.7881 42.4635 28.9774 43.729 20.867C44.9942 12.7561 34.4542 8.91032 27.3614 8.19842C20.2682 7.48653 20.1454 8.61541 20.1454 8.61541C20.1454 8.61541 19.2995 9.71517 21.2302 10.1646C23.161 10.6141 28.5616 10.8093 30.8593 13.4109C33.1574 16.0129 31.2781 17.0215 27.0571 18.0254C17.7909 20.229 11.4309 19.5466 3.37305 25.1529C4.09428 27.8553 9.48296 29.5874 11.8699 29.985Z" fill="#64D2FF"/>
<path fill-rule="evenodd" clip-rule="evenodd" d="M38.8767 11.8829C36.7832 10.5588 34.2604 9.60277 31.7839 8.98047C32.0392 9.05662 35.8395 10.2366 36.5394 13.1899C36.8952 14.6909 36.6719 16.1491 36.0679 17.3997C33.949 21.7868 26.4683 23.7813 22.085 24.7262C27.6095 24.6862 39.4199 23.4566 40.2191 15.8482C40.3897 14.2228 39.8712 12.9136 38.8767 11.8829Z" fill="#BAEBFF"/>
<path fill-rule="evenodd" clip-rule="evenodd" d="M20.3977 19.3105C14.4028 20.2946 9.35529 20.9904 3.37305 25.1532C3.37305 25.1532 5.23731 26.9928 10.8832 27.3146C10.8832 27.3146 8.52577 26.2167 8.10282 25.3383C6.79736 22.6274 17.2425 21.5146 20.3977 19.3105Z" fill="#BAEBFF"/>
<path fill-rule="evenodd" clip-rule="evenodd" d="M19.9986 8.91104C19.8884 9.26942 19.9347 9.86335 21.2294 10.1646C23.1601 10.6141 28.5607 10.8093 30.8584 13.4109C33.1565 16.0125 31.2772 17.0215 27.0563 18.0253C25.8456 18.3132 24.685 18.5517 23.5633 18.7615H23.5651C33.5291 18.1706 36.15 14.6503 33.2352 11.7146C30.3212 8.77964 20.0045 8.91104 19.9986 8.91104Z" fill="#0A84FF"/>
<path fill-rule="evenodd" clip-rule="evenodd" d="M11.8698 29.9834C11.8698 29.9834 9.62105 30.932 10.576 31.6028C11.5309 32.274 16.7561 35.2351 25.3645 33.5108C33.973 31.7865 42.4635 28.9758 43.7286 20.8654C43.9955 19.1549 43.7357 17.6348 43.0955 16.2931C42.6568 27.5931 11.8777 30.9697 4.1084 26.4441C5.84054 28.4043 9.88906 29.6534 11.8698 29.9834Z" fill="#0A84FF"/>
<path fill-rule="evenodd" clip-rule="evenodd" d="M13.0225 26.1873C13.0225 26.1873 16.4543 25.5934 18.4645 26.178C20.4748 26.7626 20.4748 26.7626 20.4748 26.7626C20.4748 26.7626 18.9745 24.1364 16.6969 24.0457C14.4194 23.9546 13.0225 26.1873 13.0225 26.1873Z" fill="#0A84FF"/>
<path fill-rule="evenodd" clip-rule="evenodd" d="M16.0663 25.5399C16.9589 25.6884 17.8261 26.6829 17.6611 27.6726C17.4961 28.6622 16.571 29.2233 15.6785 29.0747C14.7859 28.9261 13.9866 28.0522 14.1516 27.0626C14.3163 26.0733 15.1737 25.3913 16.0663 25.5399Z" fill="#0A84FF"/>
<path fill-rule="evenodd" clip-rule="evenodd" d="M16.1887 24.8155C17.0813 24.964 17.6845 25.8085 17.5356 26.701C17.387 27.5936 16.543 28.1969 15.65 28.0483C14.7575 27.8997 14.1542 27.0553 14.3028 26.1627C14.4517 25.2701 15.2961 24.6669 16.1887 24.8155Z" fill="white"/>
<path fill-rule="evenodd" clip-rule="evenodd" d="M15.5859 25.6337C16.0077 25.7039 16.2926 26.1025 16.2224 26.5244C16.1522 26.9462 15.7535 27.2311 15.3317 27.1609C14.9098 27.0907 14.625 26.692 14.6952 26.2702C14.7658 25.8483 15.1644 25.5635 15.5859 25.6337Z" fill="#003333"/>
<path fill-rule="evenodd" clip-rule="evenodd" d="M25.7852 31.472C30.6602 32.4714 43.9409 33.1668 47.836 29.9284C47.836 29.9284 46.1826 29.3091 43.8394 28.8096C41.8202 28.3792 36.1571 27.176 34.6773 28.0761C33.3446 28.8865 30.7139 30.1419 25.7852 31.472Z" fill="#4947AD"/>
<path fill-rule="evenodd" clip-rule="evenodd" d="M33.1875 32.2516C38.7733 32.4774 45.2965 32.038 47.8342 29.9277C46.3134 30.6867 40.9127 30.8311 37.9158 31.0574C34.9379 31.2817 33.2095 32.2392 33.1875 32.2516Z" fill="#5E5CE6"/>
<path fill-rule="evenodd" clip-rule="evenodd" d="M18.5283 21.8577C23.7789 18.1187 21.6007 10.3819 30.9807 7.06245C32.0077 6.69922 32.0077 6.69922 32.0077 6.69922C32.0077 6.69922 31.1629 7.84788 30.5018 9.31573C28.8402 13.004 30.6829 14.184 30.0878 17.5053C30.0878 17.5053 30.5369 19.0012 27.7057 20.2648C24.8742 21.5281 18.5283 21.8577 18.5283 21.8577Z" fill="#5E5CE6"/>
<path fill-rule="evenodd" clip-rule="evenodd" d="M18.5283 21.8577C23.7789 18.1183 21.6007 10.3819 30.9807 7.06245C32.0077 6.69922 32.0077 6.69922 32.0077 6.69922C23.6359 10.9292 24.5919 20.7542 18.5283 21.8577Z" fill="#7383FF"/>
<path fill-rule="evenodd" clip-rule="evenodd" d="M6.66406 28.2305C6.66406 28.2305 8.52539 30.6114 11.3995 32.1816C12.908 33.0058 14.8977 33.6423 17.0909 33.8353C21.6915 34.2403 23.7373 33.135 21.0174 30.7335C19.8579 29.5031 18.492 29.8301 17.0312 30.0156C13.6793 30.4412 8.74002 29.4015 6.66406 28.2305Z" fill="#0F5DAB"/>
<path fill-rule="evenodd" clip-rule="evenodd" d="M8.92811 29.2119C9.35368 29.5912 10.5617 31.1844 10.9197 31.2516C11.3423 31.3304 11.4524 30.2956 11.4524 30.2956L13.3137 32.2039C13.3137 32.2039 13.8289 31.305 14.0681 30.8477C14.3071 30.3908 16.4965 32.3745 16.4965 32.3745C17.1233 31.3935 17.2024 30.8966 17.4417 30.8585C17.6885 30.8194 18.0909 31.3229 20.1851 32.4794L19.2612 29.854C18.556 29.7782 17.8076 29.9163 17.0322 30.0149C15.3815 30.2243 13.3462 30.0787 11.4572 29.7371C10.5131 29.5662 9.60526 29.3467 8.80078 29.0977C8.80041 29.0973 8.84784 29.1402 8.92811 29.2119Z" fill="white"/>
<path d="M5.42363 18.3584C5.33105 18.3584 5.23772 18.355 5.14365 18.3479C4.14318 18.2744 3.23159 17.8152 2.57607 17.0555C1.92054 16.2958 1.6006 15.3264 1.67451 14.3255C1.82458 12.2817 3.61274 10.7026 5.69654 10.856C6.69701 10.9295 7.60859 11.3887 8.26412 12.1484C8.91965 12.9081 9.23959 13.8776 9.16567 14.8784C9.02195 16.8297 7.37826 18.3584 5.42363 18.3584ZM5.41693 12.051C4.08945 12.051 2.97363 13.0891 2.87582 14.4144C2.8258 15.0938 3.04306 15.7523 3.48842 16.2682C3.9334 16.7841 4.5531 17.0958 5.23214 17.1462C6.63876 17.2489 7.86171 16.1786 7.964 14.7899C8.01402 14.1105 7.79676 13.452 7.35141 12.9361C6.90642 12.4202 6.28673 12.1085 5.60768 12.0584C5.54385 12.0532 5.48002 12.051 5.41693 12.051Z" fill="#2D4096"/>
<path fill-rule="evenodd" clip-rule="evenodd" d="M6.81565 12.4035C7.43198 12.449 7.89449 12.9851 7.84894 13.6014C7.8034 14.2178 7.26734 14.6803 6.65101 14.6347C6.03468 14.5892 5.57213 14.0531 5.6173 13.4368C5.66285 12.8205 6.19932 12.3579 6.81565 12.4035Z" fill="#5E5CE6"/>
<path fill-rule="evenodd" clip-rule="evenodd" d="M1.9966 21.7518C2.73313 21.8059 3.28635 22.4472 3.23222 23.1841C3.17772 23.9207 2.53641 24.4739 1.79987 24.4194C1.06297 24.3653 0.510076 23.7239 0.564205 22.987C0.618708 22.2505 1.26006 21.6972 1.9966 21.7518Z" fill="#4947AD"/>
<path fill-rule="evenodd" clip-rule="evenodd" d="M2.26804 21.7895C2.73542 21.8238 3.08596 22.2307 3.05161 22.6977C3.01727 23.1651 2.61037 23.516 2.14336 23.4813C1.67598 23.447 1.32507 23.0401 1.35979 22.5727C1.39376 22.1057 1.80066 21.7548 2.26804 21.7895Z" fill="#5E5CE6"/>
<path fill-rule="evenodd" clip-rule="evenodd" d="M5.36779 29.5738C5.68174 29.597 5.91731 29.8702 5.89416 30.1838C5.87102 30.4974 5.59775 30.7333 5.2838 30.7102C4.97022 30.687 4.73428 30.4138 4.75743 30.1002C4.78094 29.7862 5.05384 29.5507 5.36779 29.5738Z" fill="#5E5CE6"/>
<path d="M43.6072 27.0797C43.4933 27.0797 43.3799 27.0364 43.2929 26.9494C43.1189 26.7762 43.1185 26.4943 43.2917 26.3204C43.3272 26.2849 46.7982 22.7333 45.6865 18.2853C45.6272 18.0468 45.772 17.8052 46.0101 17.7459C46.2476 17.6861 46.4899 17.831 46.5496 18.0695C47.7852 23.0136 44.0794 26.7907 43.9211 26.9494C43.8345 27.0364 43.721 27.0797 43.6072 27.0797Z" fill="#2D4096"/>
<path d="M0.445598 4.82185C0.295902 4.82185 0.149541 4.74607 0.0655467 4.60907C-0.0628709 4.39927 0.00321175 4.12564 0.21301 3.99722C2.04221 2.87767 6.03402 1.78612 10.143 1.86526C10.3883 1.87012 10.5839 2.07319 10.579 2.31846C10.5742 2.56409 10.3644 2.74216 10.1255 2.75448C5.74695 2.67161 2.06835 3.90464 0.677411 4.75578C0.604616 4.80058 0.524739 4.82185 0.445598 4.82185Z" fill="#2D4096"/>
<path d="M22.1595 2.76059C22.105 2.76059 22.0497 2.75014 21.9964 2.72849C15.5452 0.100033 9.58316 1.03554 9.5238 1.04562C9.28862 1.08332 9.06614 0.924669 9.02732 0.689485C8.98849 0.454302 9.14752 0.23181 9.38308 0.192986C9.63544 0.150803 15.6364 -0.796276 22.3223 1.92812C22.5433 2.01809 22.6493 2.27044 22.5593 2.49107C22.491 2.65905 22.3297 2.76059 22.1595 2.76059Z" fill="#2D4096"/>
<path fill-rule="evenodd" clip-rule="evenodd" d="M26.1506 5.40391C26.4645 5.42706 26.7001 5.70032 26.677 6.0139C26.6538 6.32785 26.3805 6.5634 26.067 6.54026C25.753 6.51711 25.5175 6.24385 25.5406 5.9299C25.5638 5.61633 25.837 5.38077 26.1506 5.40391Z" fill="#5E5CE6"/>
<path fill-rule="evenodd" clip-rule="evenodd" d="M44.9313 11.6783C45.8298 11.7444 46.5048 12.5269 46.4383 13.4254C46.3723 14.3243 45.5898 14.9989 44.6912 14.9325C43.7927 14.866 43.1178 14.0839 43.1842 13.1854C43.2507 12.2868 44.0327 11.6119 44.9313 11.6783Z" fill="#4947AD"/>
<path fill-rule="evenodd" clip-rule="evenodd" d="M45.2606 11.7275C45.8306 11.7697 46.2588 12.2658 46.2166 12.8358C46.1748 13.4059 45.6783 13.8337 45.1083 13.7919C44.5382 13.7497 44.1104 13.2536 44.1522 12.6835C44.194 12.1135 44.6905 11.6853 45.2606 11.7275Z" fill="#5E5CE6"/>
<path d="M26.2622 35.2604C26.0826 35.2604 25.9131 35.1507 25.8463 34.9726C25.7593 34.7426 25.8751 34.4858 26.1047 34.3992C27.9738 33.6922 32.2952 33.3476 35.7386 33.6298C35.9831 33.65 36.1656 33.8646 36.1455 34.1095C36.1253 34.354 35.9148 34.5351 35.6658 34.5164C32.3911 34.2476 28.1556 34.5747 26.4197 35.2309C26.3678 35.2511 26.3148 35.2604 26.2622 35.2604Z" fill="#2D4096"/>
</svg>
