<svg width="69" height="67" viewBox="0 0 69 67" fill="none" xmlns="http://www.w3.org/2000/svg">
<g clip-path="url(#clip0_7_9410)">
<path fill-rule="evenodd" clip-rule="evenodd" d="M63.8613 54.9982L48.7305 48.5351V26.3682L66.7805 32.6929L63.8613 54.9982Z" fill="#C2780F"/>
<path fill-rule="evenodd" clip-rule="evenodd" d="M9.54688 33.3612L48.731 26.3682V48.5351L12.049 56.222L9.54688 33.3612Z" fill="#D6820D"/>
<path fill-rule="evenodd" clip-rule="evenodd" d="M27.1797 40.5174L66.7808 32.6914L63.8617 54.9967L27.1797 62.6842V40.5174Z" fill="#FFB71C"/>
<path fill-rule="evenodd" clip-rule="evenodd" d="M27.1799 62.6833L12.049 56.2202L9.54688 33.3594L27.1799 40.5164V62.6833Z" fill="#C2780F"/>
<path fill-rule="evenodd" clip-rule="evenodd" d="M30.332 43.1042L63.0863 36.6309L61.0256 52.375L30.332 58.8074V43.1042Z" fill="#9740C2"/>
<path fill-rule="evenodd" clip-rule="evenodd" d="M24.0272 57.9124L14.9817 54.0488L13.2539 38.2617L24.0272 42.6347V57.9124Z" fill="#9740C2"/>
<path fill-rule="evenodd" clip-rule="evenodd" d="M13.6641 41.9969L13.3594 39.2109L24.0288 43.5513V46.2129L13.6641 41.9969ZM14.2396 47.2567L13.8264 43.4827L24.0281 47.6328V51.2388L14.2396 47.2567ZM14.7663 52.0699L14.4019 48.7432L24.0281 52.6593V55.938L14.7663 52.0699Z" fill="#7F38A3"/>
<path fill-rule="evenodd" clip-rule="evenodd" d="M48.7282 26.3669L9.54409 33.3599L6.97266 10.8464L46.1568 5.24121L48.7282 26.3669Z" fill="#FFB71C"/>
<path fill-rule="evenodd" clip-rule="evenodd" d="M45.2406 23.7913L12.2964 29.6701L10.4531 13.5287L43.4172 8.81348L45.2406 23.7913Z" fill="#D6820D"/>
<path fill-rule="evenodd" clip-rule="evenodd" d="M40.9642 9.1646L43.4182 8.81348L45.2416 23.7913C45.2416 23.7913 40.1898 23.3633 39.2884 17.662C38.6635 13.7068 39.4302 10.869 40.9642 9.1646Z" fill="#C2780F"/>
<path fill-rule="evenodd" clip-rule="evenodd" d="M58.8089 52.8396L30.332 58.8074V57.7207L57.1024 52.1104L59.9689 51.5094L61.8853 36.8679L63.0863 36.6309L61.0256 52.375L58.8089 52.8396Z" fill="#7F38A3"/>
<path fill-rule="evenodd" clip-rule="evenodd" d="M24.0272 57.9124L14.9817 54.0488L13.2539 38.2617L14.206 38.6481L15.8157 53.3549L24.0272 56.8623V57.9124Z" fill="#7F38A3"/>
<path fill-rule="evenodd" clip-rule="evenodd" d="M32.7813 64.5326L27.1797 65.7065V60.8478L32.2616 59.7822L32.7813 64.5326Z" fill="#FFB71C"/>
<path fill-rule="evenodd" clip-rule="evenodd" d="M27.1805 65.7056L22.7812 63.8264L23.3837 59.2246L27.1805 60.8469V65.7056Z" fill="#C2780F"/>
<path fill-rule="evenodd" clip-rule="evenodd" d="M32.2616 59.7811L30.6082 59.0429L27.1796 59.7375L24.6134 58.8174L23.3828 59.2243L27.1796 60.8466L32.2616 59.7811Z" fill="#FFC64A"/>
<path fill-rule="evenodd" clip-rule="evenodd" d="M66.4727 57.1362L60.8711 58.31V53.4513L65.953 52.3857L66.4727 57.1362Z" fill="#FFB71C"/>
<path fill-rule="evenodd" clip-rule="evenodd" d="M60.872 58.3105L59.0781 57.5441L59.6806 52.9424L60.872 53.4518V58.3105Z" fill="#C2780F"/>
<path fill-rule="evenodd" clip-rule="evenodd" d="M65.953 52.3856L64.299 51.6475L61.0251 52.3741L59.6797 52.9418L60.8711 53.4511L65.953 52.3856Z" fill="#FFC64A"/>
<path fill-rule="evenodd" clip-rule="evenodd" d="M16.5189 59.5291L14.2734 59.9994V55.1407L15.9993 54.7793L16.5189 59.5291Z" fill="#FFB71C"/>
<path fill-rule="evenodd" clip-rule="evenodd" d="M14.2743 59.999L9.875 58.1197L10.4768 53.5186L14.2743 55.1403V59.999Z" fill="#C2780F"/>
<path fill-rule="evenodd" clip-rule="evenodd" d="M15.9999 54.7795C14.4864 54.1042 13.2873 53.6787 11.7077 53.1123L10.4766 53.5192L14.274 55.1409L15.9999 54.7795Z" fill="#FFC64A"/>
<path fill-rule="evenodd" clip-rule="evenodd" d="M60.0382 42.4827L59.5538 46.1843L30.332 51.9644V48.3589L60.0382 42.4827ZM59.3633 47.6419L58.9533 50.7739L30.3327 56.7442V53.3842L59.3633 47.6419ZM30.3327 44.2774L60.5867 38.293L60.2294 41.0251L30.3327 46.9391V44.2774Z" fill="#BF5AF2"/>
<path fill-rule="evenodd" clip-rule="evenodd" d="M32.7813 45.3103L27.1797 46.4842V41.6254L32.2616 40.5605L32.7813 45.3103Z" fill="#FFB71C"/>
<path fill-rule="evenodd" clip-rule="evenodd" d="M27.1805 46.4859L22.7812 44.6066L23.3837 40.0049L27.1805 41.6272V46.4859Z" fill="#C2780F"/>
<path fill-rule="evenodd" clip-rule="evenodd" d="M32.2616 40.5611L30.6082 39.823L27.1796 40.5169L24.7301 39.5225L23.3828 40.0037L27.1796 41.626L32.2616 40.5611Z" fill="#FFC64A"/>
<path fill-rule="evenodd" clip-rule="evenodd" d="M68.9534 38.1785L63.3518 39.3523V34.4936L68.4337 33.4287L68.9534 38.1785Z" fill="#FFB71C"/>
<path fill-rule="evenodd" clip-rule="evenodd" d="M63.3531 39.3528L61.5586 38.5871L62.161 33.9854L63.3531 34.4941V39.3528Z" fill="#C2780F"/>
<path fill-rule="evenodd" clip-rule="evenodd" d="M68.4341 33.4295L66.7801 32.6914L63.5062 33.4174L62.1602 33.9857L63.3522 34.4944L68.4341 33.4295Z" fill="#FFC64A"/>
<path fill-rule="evenodd" clip-rule="evenodd" d="M14.3314 39.8406L12.0859 40.3109V35.4522L13.8118 35.0908L14.3314 39.8406Z" fill="#FFB71C"/>
<path fill-rule="evenodd" clip-rule="evenodd" d="M12.0874 40.3111L7.6875 38.4318L8.28994 33.8301L12.0874 35.4524V40.3111Z" fill="#C2780F"/>
<path fill-rule="evenodd" clip-rule="evenodd" d="M13.8117 35.092C12.2989 34.4167 11.0992 33.9912 9.5196 33.4248L8.28906 33.8317L12.0859 35.4534L13.8117 35.092Z" fill="#FFC64A"/>
<path fill-rule="evenodd" clip-rule="evenodd" d="M6.97491 10.8457L9.54634 33.3592C9.54634 33.3592 2.53522 32.7653 1.28351 24.8522C0.0324387 16.9391 2.79634 12.2483 6.97491 10.8457Z" fill="#C2780F"/>
<path fill-rule="evenodd" clip-rule="evenodd" d="M5.60749 14.5938L7.1864 30.0323C7.01767 29.9394 6.86048 29.8445 6.7219 29.7516C2.28285 26.7895 2.17571 18.0672 5.60749 14.5938Z" fill="#8C3DB3"/>
<path fill-rule="evenodd" clip-rule="evenodd" d="M30.817 38.1949L30.7875 38.1821L27.332 38.8817L15.1882 33.9532L48.5989 27.9905L60.8081 32.2681L30.817 38.1949ZM48.7304 36.2592L30.6335 39.8351L30.6078 39.8236L27.1793 40.5175L24.7297 39.5231L13.8127 35.0918C12.8901 34.6798 12.0837 34.3607 11.2368 34.0461L9.54688 33.3605L48.7304 26.3682L66.7805 32.6922L48.7304 36.2592Z" fill="#FFC64A"/>
<path fill-rule="evenodd" clip-rule="evenodd" d="M48.7617 30.5325L44.0859 35.1849L44.8013 26.5625L48.7617 30.5325Z" fill="#DB94FF"/>
<path fill-rule="evenodd" clip-rule="evenodd" d="M52.7219 34.5038L44.0857 35.1856L48.7615 30.5332L52.7219 34.5038Z" fill="#BF5AF2"/>
<path fill-rule="evenodd" clip-rule="evenodd" d="M52.9518 30.3193L52.7222 34.5033L48.7617 30.5327L52.9518 30.3193Z" fill="#5E5CE6"/>
<path fill-rule="evenodd" clip-rule="evenodd" d="M48.7612 30.533L44.8008 26.563L48.9909 26.3496L48.7612 30.533Z" fill="#64D2FF"/>
<path fill-rule="evenodd" clip-rule="evenodd" d="M52.9518 30.3196L48.7617 30.533L48.9914 26.3496L50.9713 28.3346L52.9518 30.3196Z" fill="#DB94FF"/>
<path d="M40.2818 35.6792C40.2889 35.6786 42.8751 35.4915 43.8355 35.9067C44.352 36.1297 44.9743 36.5686 45.4844 37.078C45.902 37.4951 46.226 37.9391 46.3114 38.3069C46.5295 39.2456 46.2729 42.6178 46.2626 42.7613C46.2325 43.0394 45.8841 46.1969 45.7141 46.7114C45.6185 46.9959 45.2162 47.6123 44.6259 48.0333C44.2814 48.2793 43.8785 48.4421 43.4602 48.3831C42.2932 48.2184 40.5436 46.896 40.0932 46.5429C39.8796 46.0976 39.1758 44.5662 39.0346 43.4699C38.9333 42.6831 38.7459 41.7515 38.5259 40.9832C38.3167 40.2522 38.0614 39.6268 37.7913 39.3193C37.5128 39.0015 36.6557 38.0416 35.8781 37.2856C35.3886 36.8095 34.9112 36.3994 34.5757 36.2315C34.2793 36.0835 33.8809 35.9426 33.4677 35.9029C33.1257 35.8695 32.7716 35.9029 32.4431 36.0477C32.0954 36.2008 31.79 36.468 31.5763 36.8954H31.5738C31.4403 37.1625 31.4506 37.6623 31.4102 38.0769L32.6035 37.8411C32.6266 37.5995 32.6516 37.6053 32.7209 37.4662L32.7203 37.465C32.7851 37.3362 32.8685 37.2586 32.9596 37.2189C33.0705 37.1702 33.2072 37.1606 33.3477 37.1741C33.5851 37.1971 33.8238 37.2824 34.0047 37.3727C34.2036 37.472 34.5757 37.802 34.9863 38.2012C35.7382 38.9323 36.562 39.8549 36.8295 40.1599C36.963 40.3124 37.1304 40.7635 37.2934 41.3337C37.5006 42.0597 37.6758 42.9195 37.7669 43.6301C37.9613 45.1397 39.0096 47.233 39.0122 47.2394L39.1828 47.4521C39.1892 47.4572 41.5759 49.4089 43.2857 49.6498C44.0761 49.7613 44.7857 49.4903 45.3682 49.0745C46.1952 48.4843 46.7797 47.5578 46.9273 47.117V47.1145C47.1512 46.4436 47.5374 42.8869 47.5387 42.8766L47.5413 42.8516C47.5419 42.8414 47.8306 39.1841 47.5605 38.0224C47.4155 37.3983 46.9626 36.7422 46.3928 36.1732C45.7801 35.5613 45.0058 35.0231 44.343 34.7367C43.0868 34.1934 40.2061 34.4029 40.1978 34.4035L40.2818 35.6792Z" fill="#00A868"/>
<path fill-rule="evenodd" clip-rule="evenodd" d="M41.4084 27.5537L43.4974 35.4117L34.7188 29.3266L41.4084 27.5537Z" fill="#64D2FF"/>
<path fill-rule="evenodd" clip-rule="evenodd" d="M48.1005 25.7803L43.4991 35.4118L41.4102 27.5538L48.1005 25.7803Z" fill="#0A84FF"/>
<path fill-rule="evenodd" clip-rule="evenodd" d="M43.7686 22.9541L48.1005 25.7817L41.4102 27.5552L43.7686 22.9541Z" fill="white"/>
<path fill-rule="evenodd" clip-rule="evenodd" d="M41.4084 27.5551L34.7188 29.328L37.0765 24.7275L41.4084 27.5551Z" fill="#0A84FF"/>
<path fill-rule="evenodd" clip-rule="evenodd" d="M43.7685 22.9541L41.41 27.5552L37.0781 24.7277L40.4233 23.8409L43.7685 22.9541Z" fill="#64D2FF"/>
<path fill-rule="evenodd" clip-rule="evenodd" d="M33.8619 61.1953C32.5672 61.1953 31.4073 61.5195 30.6213 62.0321H29.5781V63.6147C29.5781 64.9513 31.4958 66.0342 33.8613 66.0342C36.2274 66.0342 38.1451 64.9513 38.1451 63.6147V62.0321H37.1019C36.3166 61.5195 35.156 61.1953 33.8619 61.1953Z" fill="#FF9500"/>
<path fill-rule="evenodd" clip-rule="evenodd" d="M31.0898 65.4589C31.4658 65.6389 31.8969 65.7831 32.3672 65.8824V62.1328H31.0898V65.4589Z" fill="#FFB71C"/>
<path fill-rule="evenodd" clip-rule="evenodd" d="M35.5312 65.8437C37.0672 65.4759 38.1444 64.6167 38.1444 63.6152V62.0326H37.1012C36.6752 61.7545 36.1395 61.5322 35.5312 61.3867V65.8437Z" fill="#FFB71C"/>
<path fill-rule="evenodd" clip-rule="evenodd" d="M33.8613 59.6133C31.4958 59.6133 29.5781 60.6968 29.5781 62.0327C29.5781 63.3686 31.4958 64.4521 33.8613 64.4521C36.2274 64.4521 38.1451 63.3686 38.1451 62.0327C38.1444 60.6968 36.2267 59.6133 33.8613 59.6133Z" fill="#FFD60A"/>
<path fill-rule="evenodd" clip-rule="evenodd" d="M33.859 60.5254C32.2371 60.5254 30.9219 61.1994 30.9219 62.0311C30.9219 62.8628 32.2371 63.5375 33.859 63.5375C35.4815 63.5375 36.7961 62.8628 36.7961 62.0311C36.7961 61.1994 35.4809 60.5254 33.859 60.5254Z" fill="#FFB71C"/>
<path fill-rule="evenodd" clip-rule="evenodd" d="M46.1459 61.8936C44.9616 61.8936 43.8998 62.1902 43.1812 62.6592H42.2266V64.1073C42.2266 65.3298 43.9813 66.3211 46.1459 66.3211C48.3106 66.3211 50.0653 65.3298 50.0653 64.1073V62.6592H49.1107C48.3921 62.1902 47.3309 61.8936 46.1459 61.8936Z" fill="#FF9500"/>
<path fill-rule="evenodd" clip-rule="evenodd" d="M43.6133 65.7964C43.9572 65.9611 44.3517 66.0931 44.7822 66.1841V62.7529H43.6133V65.7964Z" fill="#FFB71C"/>
<path fill-rule="evenodd" clip-rule="evenodd" d="M47.6758 66.1476C49.0808 65.8112 50.0669 65.0251 50.0669 64.1082V62.6601H49.1123C48.7228 62.4057 48.232 62.202 47.6758 62.0693V66.1476Z" fill="#FFB71C"/>
<path fill-rule="evenodd" clip-rule="evenodd" d="M46.1459 60.4473C43.9813 60.4473 42.2266 61.4385 42.2266 62.661C42.2266 63.8835 43.9813 64.8747 46.1459 64.8747C48.3106 64.8747 50.0653 63.8835 50.0653 62.661C50.0653 61.4385 48.3106 60.4473 46.1459 60.4473Z" fill="#FFD60A"/>
<path fill-rule="evenodd" clip-rule="evenodd" d="M46.1485 61.2822C44.6645 61.2822 43.4609 61.8993 43.4609 62.6605C43.4609 63.4216 44.6645 64.0387 46.1485 64.0387C47.6331 64.0387 48.836 63.4216 48.836 62.6605C48.836 61.8993 47.6331 61.2822 46.1485 61.2822Z" fill="#FFB71C"/>
<path d="M40.4528 43.2628C40.4528 44.2655 39.6387 45.0786 38.6346 45.0786V45.078C37.6299 45.078 36.8164 44.2649 36.8164 43.2621C36.8164 42.2587 37.6306 41.4463 38.6346 41.4463C39.6393 41.4469 40.4528 42.2594 40.4528 43.2628Z" fill="#01D180"/>
<path d="M38.7773 42.8222C38.7773 43.1253 39.0231 43.3707 39.3265 43.3707C39.63 43.3707 39.8757 43.1247 39.8757 42.8222C39.8757 42.5198 39.63 42.2744 39.3265 42.2744C39.0231 42.2744 38.7773 42.5198 38.7773 42.8222Z" fill="white"/>
<path d="M41.7536 47.2651C41.7536 48.2678 40.9395 49.0809 39.9354 49.0809C38.9307 49.0809 38.1172 48.2678 38.1172 47.2651C38.1172 46.2617 38.9313 45.4492 39.9354 45.4492C40.9395 45.4492 41.7536 46.2617 41.7536 47.2651Z" fill="#01D180"/>
<path d="M40.082 46.8232C40.082 47.1263 40.3278 47.3717 40.6312 47.3717C40.9347 47.3717 41.1804 47.1263 41.1804 46.8232C41.1804 46.5208 40.9347 46.2754 40.6312 46.2754C40.3278 46.2754 40.082 46.5208 40.082 46.8232Z" fill="white"/>
<path d="M45.4802 48.8012C45.4802 49.804 44.666 50.617 43.662 50.617C42.6579 50.617 41.8438 49.804 41.8438 48.8012C41.8438 47.7978 42.6579 46.9854 43.662 46.9854C44.666 46.9854 45.4802 47.7978 45.4802 48.8012Z" fill="#01D180"/>
<path d="M43.8086 48.3594C43.8086 48.6618 44.0543 48.9078 44.3578 48.9078C44.6612 48.9078 44.9063 48.6618 44.9063 48.3594C44.9063 48.0563 44.6606 47.8115 44.3578 47.8115C44.055 47.8115 43.8086 48.0563 43.8086 48.3594Z" fill="white"/>
<path d="M48.4411 46.3852C48.4411 47.3879 47.627 48.201 46.6229 48.201C45.6182 48.201 44.8047 47.3879 44.8047 46.3852C44.8047 45.3818 45.6188 44.5693 46.6229 44.5693C47.627 44.5693 48.4411 45.3824 48.4411 46.3852Z" fill="#01D180"/>
<path d="M46.7695 45.9443C46.7695 46.2474 47.0153 46.4928 47.3187 46.4928C47.6222 46.4928 47.8679 46.2474 47.8679 45.9443C47.8679 45.6419 47.6222 45.3965 47.3187 45.3965C47.0153 45.3965 46.7695 45.6419 46.7695 45.9443Z" fill="white"/>
<path d="M48.7497 42.2817C48.7497 43.2844 47.9356 44.0975 46.9315 44.0975V44.0969V44.0975C45.9268 44.0975 45.1133 43.2844 45.1133 42.2817C45.1133 41.2783 45.9274 40.4658 46.9315 40.4658C47.9356 40.4658 48.7497 41.2789 48.7497 42.2817Z" fill="#01D180"/>
<path d="M47.0781 41.8408C47.0781 42.1439 47.3238 42.3893 47.6273 42.3893C47.9308 42.3893 48.1765 42.1432 48.1765 41.8408C48.1765 41.5384 47.9308 41.293 47.6273 41.293C47.3238 41.293 47.0781 41.5384 47.0781 41.8408Z" fill="white"/>
<path d="M48.7536 38.1635C48.7536 39.1663 47.9395 39.9793 46.9354 39.9793C45.9313 39.9793 45.1172 39.1663 45.1172 38.1635C45.1172 37.1601 45.9313 36.3477 46.9354 36.3477C47.9401 36.3477 48.7536 37.1601 48.7536 38.1635Z" fill="#01D180"/>
<path d="M47.082 37.7226C47.082 38.0257 47.3278 38.2711 47.6312 38.2711C47.9347 38.2711 48.1798 38.0251 48.1798 37.7226C48.1798 37.4202 47.934 37.1748 47.6312 37.1748C47.3278 37.1748 47.082 37.4202 47.082 37.7226Z" fill="white"/>
<path d="M45.906 35.3217C45.906 36.3244 45.0918 37.1375 44.0878 37.1375V37.1369V37.1375C43.083 37.1375 42.2695 36.3244 42.2695 35.3217C42.2695 34.3183 43.0837 33.5059 44.0878 33.5059C45.0918 33.5059 45.906 34.3183 45.906 35.3217Z" fill="#01D180"/>
<path d="M44.2344 34.8799C44.2344 35.1823 44.4801 35.4283 44.7836 35.4283C45.087 35.4283 45.3328 35.1823 45.3328 34.8799C45.3328 34.5774 45.087 34.332 44.7836 34.332C44.4807 34.332 44.2344 34.5774 44.2344 34.8799Z" fill="white"/>
<path d="M42.0583 35.0405C42.0583 36.0432 41.2442 36.8563 40.2401 36.8563V36.8557V36.8563C39.2354 36.8563 38.4219 36.0432 38.4219 35.0405C38.4219 34.0371 39.236 33.2246 40.2401 33.2246C41.2442 33.2246 42.0583 34.0371 42.0583 35.0405Z" fill="#01D180"/>
<path d="M40.3828 34.5986C40.3828 34.901 40.6285 35.1471 40.932 35.1471C41.2355 35.1471 41.4812 34.901 41.4812 34.5986C41.4812 34.2962 41.2355 34.0508 40.932 34.0508C40.6292 34.0508 40.3828 34.2962 40.3828 34.5986Z" fill="white"/>
<path fill-rule="evenodd" clip-rule="evenodd" d="M36.177 31.0969C34.897 31.2898 33.798 31.7832 33.0981 32.4072L32.0664 32.5623L32.3025 34.127C32.502 35.4482 34.5602 36.2337 36.8994 35.8813C39.2386 35.5289 40.9734 34.1725 40.7739 32.8506L40.5378 31.286L39.5061 31.4417C38.6528 31.0521 37.4569 30.9041 36.177 31.0969Z" fill="#FF9500"/>
<path fill-rule="evenodd" clip-rule="evenodd" d="M34.0747 35.7266C34.4731 35.849 34.9209 35.9272 35.4015 35.9553L34.8414 32.248L33.5781 32.4383L34.0747 35.7266Z" fill="#E68600"/>
<path fill-rule="evenodd" clip-rule="evenodd" d="M38.5208 35.446C39.9842 34.854 40.9216 33.8436 40.7714 32.853L40.5353 31.2883L39.5037 31.444C39.0411 31.2326 38.4778 31.0922 37.8555 31.0391L38.5208 35.446Z" fill="#E68600"/>
<path fill-rule="evenodd" clip-rule="evenodd" d="M35.9409 29.5332C33.6017 29.8856 31.8669 31.242 32.0664 32.5639C32.2659 33.8851 34.3241 34.6706 36.6633 34.3182C39.0025 33.9658 40.7373 32.6094 40.5378 31.2882C40.3382 29.967 38.2801 29.1814 35.9409 29.5332Z" fill="#FFD60A"/>
<path fill-rule="evenodd" clip-rule="evenodd" d="M36.0787 30.4363C34.4748 30.6779 33.275 31.5403 33.3995 32.363C33.524 33.1857 34.9245 33.6567 36.5285 33.4151C38.1324 33.1736 39.3321 32.3111 39.2077 31.4884C39.0832 30.6657 37.6826 30.1948 36.0787 30.4363Z" fill="#E68600"/>
<path d="M39.1286 39.7393C39.1286 40.7421 38.3145 41.5552 37.3104 41.5552V41.5545C36.3057 41.5545 35.4922 40.7415 35.4922 39.7387C35.4922 38.7353 36.3063 37.9229 37.3104 37.9229C38.3145 37.9235 39.1286 38.7359 39.1286 39.7393Z" fill="#01D180"/>
<path d="M37.457 39.2969C37.457 39.5999 37.7028 39.8453 38.0062 39.8453C38.3097 39.8453 38.5554 39.5993 38.5554 39.2969C38.5554 38.9944 38.3097 38.749 38.0062 38.749C37.7034 38.749 37.457 38.9944 37.457 39.2969Z" fill="white"/>
<path d="M36.3591 36.7764C36.3591 37.7792 35.5449 38.5923 34.5409 38.5923V38.5916C33.5362 38.5916 32.7227 37.7786 32.7227 36.7758C32.7227 35.7724 33.5368 34.96 34.5409 34.96C35.5449 34.9606 36.3591 35.7731 36.3591 36.7764Z" fill="#01D180"/>
<path d="M34.6875 36.334C34.6875 36.637 34.9332 36.8824 35.2367 36.8824C35.5401 36.8824 35.7859 36.6364 35.7859 36.334C35.7859 36.0315 35.5401 35.7861 35.2367 35.7861C34.9332 35.7861 34.6875 36.0315 34.6875 36.334Z" fill="white"/>
<path fill-rule="evenodd" clip-rule="evenodd" d="M57.5635 28.5987C56.29 28.4257 55.1043 28.5897 54.2626 28.9895L53.2361 28.8499L53.0244 30.4075C52.8454 31.7223 54.5879 33.0448 56.9155 33.3606C59.2438 33.6765 61.2757 32.8666 61.4547 31.5518L61.667 29.9942L60.6405 29.8552C59.9354 29.2458 58.837 28.7717 57.5635 28.5987Z" fill="#FF9500"/>
<path fill-rule="evenodd" clip-rule="evenodd" d="M54.2656 32.4259C54.6114 32.6533 55.0163 32.8526 55.466 33.0128L55.9684 29.3228L54.7109 29.1523L54.2656 32.4259Z" fill="#E68600"/>
<path fill-rule="evenodd" clip-rule="evenodd" d="M58.582 33.3962C60.1423 33.2393 61.3177 32.5377 61.4518 31.5522L61.6641 29.9946L60.6376 29.8555C60.2559 29.5249 59.758 29.2347 59.1793 29.0098L58.582 33.3962Z" fill="#E68600"/>
<path fill-rule="evenodd" clip-rule="evenodd" d="M57.7751 27.0419C55.4468 26.726 53.4143 27.5359 53.2353 28.8507C53.0563 30.1655 54.7988 31.488 57.1265 31.8039C59.4547 32.1198 61.4872 31.3099 61.6662 29.9951C61.8452 28.6803 60.1034 27.3578 57.7751 27.0419Z" fill="#FFD60A"/>
<path fill-rule="evenodd" clip-rule="evenodd" d="M57.6497 27.941C56.0535 27.7245 54.6689 28.2121 54.558 29.0309C54.4463 29.8498 55.6506 30.6885 57.2468 30.9051C58.843 31.1217 60.2275 30.6341 60.3392 29.8152C60.4502 28.997 59.2466 28.1576 57.6497 27.941Z" fill="#FF9500"/>
<path fill-rule="evenodd" clip-rule="evenodd" d="M27.259 32.5675C25.6537 32.3497 24.1602 32.5566 23.0996 33.0596L21.8062 32.8841L21.5393 34.8466C21.3141 36.5036 23.509 38.1695 26.4422 38.5674C29.3755 38.9659 31.9367 37.9452 32.1619 36.2883L32.4288 34.3257L31.1353 34.1502C30.2487 33.3826 28.8642 32.7854 27.259 32.5675Z" fill="#FF9500"/>
<path fill-rule="evenodd" clip-rule="evenodd" d="M23.1016 37.3891C23.5372 37.6755 24.0472 37.9273 24.6144 38.1291L25.247 33.4799L23.6629 33.2646L23.1016 37.3891Z" fill="#E68600"/>
<path fill-rule="evenodd" clip-rule="evenodd" d="M28.543 38.6129C30.5094 38.4156 31.9901 37.5314 32.1589 36.2896L32.4258 34.327L31.1324 34.1515C30.6512 33.735 30.0244 33.3691 29.2949 33.0859L28.543 38.6129Z" fill="#E68600"/>
<path fill-rule="evenodd" clip-rule="evenodd" d="M27.5247 30.6067C24.5914 30.2082 22.0302 31.2289 21.805 32.8858C21.5792 34.5428 23.7747 36.2087 26.7079 36.6066C29.6412 37.0051 32.2024 35.9844 32.4276 34.3275C32.6534 32.6712 30.4579 31.0053 27.5247 30.6067Z" fill="#FFD60A"/>
<path fill-rule="evenodd" clip-rule="evenodd" d="M27.3701 31.7386C25.3588 31.4656 23.6144 32.0807 23.4739 33.1117C23.3334 34.1433 24.8507 35.2005 26.8614 35.4734C28.8727 35.7464 30.6172 35.1319 30.7577 34.1003C30.8988 33.0687 29.3815 32.0115 27.3701 31.7386Z" fill="#E68600"/>
<path fill-rule="evenodd" clip-rule="evenodd" d="M18.5564 30.5726C17.0166 30.5316 15.6257 30.8808 14.6749 31.4658L13.4334 31.4331L13.3834 33.3156C13.3411 34.9052 15.5885 36.2546 18.4031 36.3296C21.2177 36.4046 23.5337 35.1763 23.5761 33.5866L23.6261 31.7041L22.3847 31.6715C21.4666 31.0358 20.0968 30.6136 18.5564 30.5726Z" fill="#FF9500"/>
<path fill-rule="evenodd" clip-rule="evenodd" d="M15.1211 35.5597C15.5625 35.7859 16.0706 35.9711 16.6275 36.1037L16.7468 31.6429L15.227 31.6025L15.1211 35.5597Z" fill="#E68600"/>
<path fill-rule="evenodd" clip-rule="evenodd" d="M20.3945 36.1566C22.2333 35.7677 23.5421 34.779 23.5742 33.5879L23.6242 31.7054L22.3828 31.6727C21.8849 31.3286 21.2542 31.0467 20.5357 30.8545L20.3945 36.1566Z" fill="#E68600"/>
<path fill-rule="evenodd" clip-rule="evenodd" d="M18.6072 28.6898C15.7926 28.6148 13.4765 29.8431 13.4342 31.4328C13.3918 33.0224 15.6393 34.3718 18.4539 34.4468C21.2684 34.5218 23.5845 33.2935 23.6269 31.7038C23.6686 30.1141 21.4218 28.7647 18.6072 28.6898Z" fill="#FFD60A"/>
<path fill-rule="evenodd" clip-rule="evenodd" d="M18.5776 29.7769C16.6478 29.7256 15.0618 30.4862 15.0355 31.4761C15.0092 32.466 16.5522 33.3099 18.482 33.3611C20.4119 33.4124 21.9979 32.6518 22.0242 31.6619C22.0505 30.672 20.5068 29.8281 18.5776 29.7769Z" fill="#FF9500"/>
<path fill-rule="evenodd" clip-rule="evenodd" d="M25.9748 28.5168C24.4825 28.4771 23.1345 28.8154 22.2132 29.3825L21.0103 29.3504L20.9615 31.1752C20.9204 32.7162 23.0986 34.0239 25.8259 34.0964C28.5539 34.1688 30.7981 32.9789 30.8392 31.4379L30.8879 29.6131L29.685 29.5811C28.7951 28.966 27.4671 28.5566 25.9748 28.5168Z" fill="#FF9500"/>
<path fill-rule="evenodd" clip-rule="evenodd" d="M22.6484 33.3485C23.0764 33.5676 23.5691 33.747 24.1087 33.8758L24.2241 29.5528L22.7511 29.5137L22.6484 33.3485Z" fill="#E68600"/>
<path fill-rule="evenodd" clip-rule="evenodd" d="M27.7617 33.9265C29.5434 33.5497 30.8124 32.5918 30.8432 31.4372L30.892 29.6124L29.689 29.5803C29.2065 29.2465 28.5958 28.9736 27.899 28.7871L27.7617 33.9265Z" fill="#E68600"/>
<path fill-rule="evenodd" clip-rule="evenodd" d="M26.0256 26.6916C23.2982 26.6192 21.0534 27.8091 21.0123 29.35C20.9712 30.891 23.1494 32.1981 25.8767 32.2711C28.6047 32.3435 30.8489 31.1537 30.89 29.6127C30.931 28.0724 28.7529 26.7647 26.0256 26.6916Z" fill="#FFD60A"/>
<path fill-rule="evenodd" clip-rule="evenodd" d="M25.9959 27.7456C24.1257 27.6956 22.5885 28.4331 22.5628 29.3923C22.5372 30.3514 24.0327 31.169 25.9029 31.219C27.7731 31.269 29.3103 30.5315 29.3353 29.5723C29.3616 28.6131 27.8661 27.7949 25.9959 27.7456Z" fill="#FF9500"/>
<path fill-rule="evenodd" clip-rule="evenodd" d="M32.0336 26.7153C30.4893 26.5865 29.0727 26.8581 28.0841 27.3919L26.8394 27.2881L26.6816 29.1763C26.5481 30.7705 28.7282 32.2538 31.5511 32.4889C34.3734 32.7241 36.7697 31.622 36.9032 30.0279L37.061 28.1396L35.8163 28.0358C34.9297 27.3464 33.5779 26.844 32.0336 26.7153Z" fill="#FF9500"/>
<path fill-rule="evenodd" clip-rule="evenodd" d="M28.3008 31.5276C28.7313 31.7801 29.2311 31.9947 29.7828 32.1594L30.1569 27.6864L28.6318 27.5596L28.3008 31.5276Z" fill="#FFB71C"/>
<path fill-rule="evenodd" clip-rule="evenodd" d="M33.5623 32.4265C35.4312 32.1401 36.8022 31.2219 36.9016 30.0269L37.0595 28.1387L35.8148 28.0349C35.3343 27.6607 34.7171 27.3423 34.0069 27.1084L33.5623 32.4265Z" fill="#FFB71C"/>
<path fill-rule="evenodd" clip-rule="evenodd" d="M32.1899 24.8265C29.3676 24.5914 26.9713 25.6928 26.8378 27.2876C26.7044 28.8818 28.8845 30.3651 31.7074 30.6002C34.5297 30.8354 36.926 29.7339 37.0594 28.1392C37.1922 26.5444 35.0121 25.0617 32.1899 24.8265Z" fill="#FFD60A"/>
<path fill-rule="evenodd" clip-rule="evenodd" d="M32.0991 25.9174C30.1634 25.756 28.5274 26.43 28.4447 27.4225C28.3619 28.415 29.8632 29.3505 31.7988 29.5113C33.7338 29.6728 35.3705 28.9987 35.4532 28.0062C35.536 27.0144 34.0341 26.0789 32.0991 25.9174Z" fill="#FF9500"/>
<path fill-rule="evenodd" clip-rule="evenodd" d="M24.7996 12.1849L24.4397 13.3549C24.1581 14.2692 23.4992 14.9272 22.5836 15.2085L21.4128 15.568C21.253 15.6167 21.1484 15.7583 21.1484 15.9255C21.1484 16.0921 21.253 16.2337 21.4128 16.2824L22.5836 16.6418C23.4992 16.9225 24.1587 17.5812 24.4397 18.4955L24.7996 19.6655C24.849 19.825 24.9902 19.9295 25.157 19.9295C25.3238 19.9295 25.4656 19.825 25.515 19.6655L25.8749 18.4955C26.1559 17.5812 26.8155 16.9225 27.731 16.6418L28.9025 16.2824C29.0623 16.2331 29.1668 16.0921 29.1668 15.9255C29.1668 15.7589 29.0623 15.6173 28.9025 15.568L27.731 15.2085C26.8155 14.9272 26.1559 14.2692 25.8749 13.3549L25.515 12.1849C25.4656 12.0253 25.3244 11.9209 25.157 11.9209C24.9908 11.9215 24.849 12.026 24.7996 12.1849Z" fill="#FFD60A"/>
<path fill-rule="evenodd" clip-rule="evenodd" d="M25.3146 13.1466L25.0766 13.9206C24.8905 14.5261 24.4543 14.9612 23.8486 15.147L23.0736 15.3847C22.9677 15.4174 22.8984 15.5109 22.8984 15.6211C22.8984 15.7313 22.9677 15.8249 23.0736 15.8576L23.8486 16.0953C24.4543 16.2811 24.8905 16.7168 25.0766 17.3216L25.3146 18.0956C25.3473 18.2014 25.441 18.2706 25.5513 18.2706C25.6617 18.2706 25.7554 18.2014 25.7881 18.0956L26.0261 17.3216C26.2122 16.7161 26.6484 16.2811 27.2541 16.0953L28.0291 15.8576C28.135 15.8249 28.2043 15.7313 28.2043 15.6211C28.2043 15.5109 28.135 15.4174 28.0291 15.3847L27.2541 15.147C26.6484 14.9612 26.2122 14.5255 26.0261 13.9206L25.7881 13.1466C25.7554 13.0409 25.6617 12.9717 25.5513 12.9717C25.441 12.9723 25.3473 13.0415 25.3146 13.1466Z" fill="white"/>
<path fill-rule="evenodd" clip-rule="evenodd" d="M45.4506 1.15907L45.1382 2.17464C44.8937 2.96851 44.3221 3.54005 43.5272 3.78353L42.5103 4.09492C42.3717 4.13785 42.2812 4.26023 42.2812 4.40504C42.2812 4.54985 42.3717 4.67287 42.5103 4.71516L43.5272 5.02719C44.3221 5.27067 44.8944 5.84221 45.1382 6.63608L45.4506 7.65101C45.4936 7.78941 45.6162 7.88039 45.7612 7.88039C45.9061 7.88039 46.0293 7.78941 46.0717 7.65101L46.3841 6.63608C46.6279 5.84221 47.2002 5.27067 47.9951 5.02719L49.0114 4.71516C49.1499 4.67287 49.241 4.54985 49.241 4.40504C49.241 4.26023 49.1499 4.13721 49.0114 4.09492L47.9951 3.78288C47.2002 3.5394 46.6279 2.96787 46.3841 2.174L46.0717 1.15843C46.0293 1.02067 45.9061 0.929688 45.7612 0.929688C45.6162 0.929688 45.4936 1.02067 45.4506 1.15907Z" fill="#FFD60A"/>
<path fill-rule="evenodd" clip-rule="evenodd" d="M45.902 1.9917L45.6954 2.66383C45.5337 3.18923 45.1552 3.56727 44.6291 3.72873L43.9567 3.93505C43.865 3.96324 43.8047 4.04462 43.8047 4.14009C43.8047 4.2362 43.865 4.31693 43.9567 4.34512L44.6291 4.55144C45.1552 4.7129 45.5337 5.09094 45.6954 5.61634L45.902 6.28847C45.9302 6.3801 46.0117 6.44033 46.1073 6.44033C46.2029 6.44033 46.2844 6.3801 46.3126 6.28847L46.5192 5.61634C46.6809 5.09094 47.0594 4.7129 47.5855 4.55144L48.2579 4.34512C48.3496 4.31693 48.4099 4.23556 48.4099 4.14009C48.4099 4.04462 48.3496 3.96324 48.2579 3.93505L47.5855 3.72873C47.0594 3.56727 46.6809 3.18923 46.5192 2.66383L46.3126 1.9917C46.2844 1.90007 46.2029 1.83984 46.1073 1.83984C46.0117 1.83984 45.9302 1.90071 45.902 1.9917Z" fill="white"/>
<path fill-rule="evenodd" clip-rule="evenodd" d="M44.482 19.3046L44.2529 20.0498C44.0739 20.6322 43.6537 21.0519 43.0705 21.2306L42.3243 21.4594C42.223 21.4908 42.1562 21.5805 42.1562 21.6868C42.1562 21.7932 42.223 21.8829 42.3243 21.9143L43.0705 22.1431C43.6537 22.3218 44.0739 22.7415 44.2529 23.3239L44.482 24.0691C44.5134 24.1703 44.6032 24.2376 44.7097 24.2376C44.8162 24.2376 44.906 24.171 44.9375 24.0691L45.1665 23.3239C45.3455 22.7415 45.7657 22.3218 46.3489 22.1431L47.0951 21.9143C47.1971 21.8829 47.2638 21.7932 47.2638 21.6868C47.2638 21.5805 47.1971 21.4901 47.0951 21.4594L46.3489 21.2306C45.7657 21.0519 45.3455 20.6322 45.1665 20.0498L44.9375 19.3046C44.906 19.2027 44.8162 19.1367 44.7097 19.1367C44.6032 19.1367 44.5128 19.2034 44.482 19.3046Z" fill="#FFD60A"/>
<path fill-rule="evenodd" clip-rule="evenodd" d="M44.8087 19.9181L44.6573 20.4109C44.5386 20.7966 44.2608 21.074 43.8752 21.1919L43.3812 21.3431C43.3138 21.3636 43.2695 21.4232 43.2695 21.4937C43.2695 21.5642 43.3138 21.6238 43.3812 21.6443L43.8752 21.7955C44.2608 21.914 44.5386 22.1915 44.6573 22.5765L44.8087 23.0693C44.8292 23.1365 44.8889 23.1808 44.9594 23.1808C45.03 23.1808 45.0897 23.1365 45.1102 23.0693L45.2616 22.5765C45.3803 22.1908 45.6581 21.9134 46.0437 21.7955L46.5371 21.6443C46.6044 21.6238 46.6487 21.5642 46.6487 21.4937C46.6487 21.4232 46.6044 21.3636 46.5371 21.3431L46.0437 21.1919C45.6575 21.0734 45.3797 20.7959 45.2616 20.4109L45.1102 19.9181C45.0897 19.8509 45.03 19.8066 44.9594 19.8066C44.8895 19.8066 44.8292 19.8509 44.8087 19.9181Z" fill="white"/>
<path fill-rule="evenodd" clip-rule="evenodd" d="M53.9385 28.8868C52.665 28.7138 51.4794 28.8778 50.6376 29.2776L49.6111 29.1379L49.3994 30.6956C49.2204 32.0104 50.9629 33.3328 53.2905 33.6487C55.6188 33.9646 57.6507 33.1547 57.8297 31.8399L58.042 30.2823L57.0155 30.1433C56.3111 29.5339 55.2127 29.0598 53.9385 28.8868Z" fill="#FF9500"/>
<path fill-rule="evenodd" clip-rule="evenodd" d="M50.6404 32.7139C50.9862 32.9414 51.391 33.1407 51.8408 33.3009L52.3431 29.6109L51.0856 29.4404L50.6404 32.7139Z" fill="#E68600"/>
<path fill-rule="evenodd" clip-rule="evenodd" d="M54.9609 33.6843C56.5212 33.5274 57.6966 32.8257 57.8307 31.8403L58.0431 30.2827L57.0165 30.1436C56.6348 29.813 56.1369 29.5227 55.5582 29.2979L54.9609 33.6843Z" fill="#E68600"/>
<path fill-rule="evenodd" clip-rule="evenodd" d="M54.1501 27.33C51.8218 27.0141 49.7893 27.824 49.6103 29.1388C49.4313 30.4536 51.1738 31.7761 53.5014 32.092C55.8297 32.4078 57.8622 31.598 58.0412 30.2832C58.2202 28.9684 56.4777 27.6459 54.1501 27.33Z" fill="#FFD60A"/>
<path fill-rule="evenodd" clip-rule="evenodd" d="M54.0286 28.2291C52.4324 28.0126 51.0479 28.5002 50.9369 29.319C50.8252 30.1379 52.0295 30.9766 53.6257 31.1932C55.2219 31.4097 56.6065 30.9221 56.7181 30.1033C56.8284 29.2851 55.6248 28.4457 54.0286 28.2291Z" fill="#FF9500"/>
<path fill-rule="evenodd" clip-rule="evenodd" d="M53.5557 24.0128C52.2822 23.8398 51.0965 24.0038 50.2548 24.4036L49.2283 24.2639L49.0166 25.8216C48.8376 27.1363 50.5801 28.4588 52.9077 28.7747C55.236 29.0906 57.2678 28.2807 57.4468 26.9659L57.6592 25.4083L56.6327 25.2692C55.9276 24.6599 54.8292 24.1858 53.5557 24.0128Z" fill="#FF9500"/>
<path fill-rule="evenodd" clip-rule="evenodd" d="M50.2539 27.8399C50.5997 28.0674 51.0045 28.2667 51.4543 28.4268L51.9566 24.7368L50.6992 24.5664L50.2539 27.8399Z" fill="#E68600"/>
<path fill-rule="evenodd" clip-rule="evenodd" d="M54.5781 28.8113C56.1384 28.6543 57.3138 27.9527 57.4479 26.9672L57.6602 25.4096L56.6337 25.2706C56.252 24.94 55.7541 24.6497 55.1754 24.4248L54.5781 28.8113Z" fill="#E68600"/>
<path fill-rule="evenodd" clip-rule="evenodd" d="M53.7673 22.457C51.439 22.1411 49.4065 22.951 49.2275 24.2658C49.0485 25.5806 50.791 26.903 53.1186 27.2189C55.4469 27.5348 57.4794 26.7249 57.6584 25.4101C57.8374 24.0947 56.0955 22.7729 53.7673 22.457Z" fill="#FFD60A"/>
<path fill-rule="evenodd" clip-rule="evenodd" d="M53.6419 23.3561C52.0457 23.1395 50.6611 23.6271 50.5501 24.446C50.4385 25.2648 51.6427 26.1036 53.239 26.3201C54.8352 26.5367 56.2197 26.0491 56.3314 25.2302C56.4424 24.412 55.2388 23.5733 53.6419 23.3561Z" fill="#FF9500"/>
<path fill-rule="evenodd" clip-rule="evenodd" d="M27.3259 24.1332C25.7816 24.0044 24.365 24.2761 23.377 24.8098L22.1323 24.706L21.9745 26.5943C21.8417 28.1884 24.0218 29.6717 26.8441 29.9069C29.6663 30.142 32.0626 29.0406 32.1954 27.4458L32.3532 25.5576L31.1086 25.4538C30.2226 24.7644 28.8701 24.262 27.3259 24.1332Z" fill="#FF9500"/>
<path fill-rule="evenodd" clip-rule="evenodd" d="M23.5938 28.9456C24.0242 29.1981 24.524 29.4127 25.0758 29.578L25.4492 25.1044L23.9248 24.9775L23.5938 28.9456Z" fill="#FFB71C"/>
<path fill-rule="evenodd" clip-rule="evenodd" d="M28.8555 29.8438C30.7244 29.5581 32.0954 28.6399 32.1949 27.4449L32.3527 25.5567L31.108 25.4529C30.6275 25.0793 30.0103 24.7602 29.2994 24.5264L28.8555 29.8438Z" fill="#FFB71C"/>
<path fill-rule="evenodd" clip-rule="evenodd" d="M27.4822 22.2445C24.6599 22.0094 22.2636 23.1108 22.1308 24.7056C21.9974 26.2997 24.1774 27.783 27.0004 28.0176C29.8226 28.2527 32.2189 27.1513 32.3524 25.5565C32.4845 23.963 30.3045 22.4797 27.4822 22.2445Z" fill="#FFD60A"/>
<path fill-rule="evenodd" clip-rule="evenodd" d="M27.392 23.3353C25.4571 23.1744 23.821 23.8478 23.7376 24.8403C23.6549 25.8328 25.1562 26.7677 27.0918 26.9291C29.0268 27.0906 30.6634 26.4166 30.7462 25.4241C30.829 24.4316 29.3277 23.4961 27.392 23.3353Z" fill="#FF9500"/>
<path fill-rule="evenodd" clip-rule="evenodd" d="M33.5059 22.4892C32.4159 21.3891 31.1629 20.6759 30.0645 20.4395L29.1862 19.5527L27.8376 20.8855C26.6988 22.0106 27.3904 24.553 29.3825 26.5637C31.3746 28.5743 33.9126 29.2926 35.0514 28.1674L36.4 26.8347L35.5217 25.9479C35.2965 24.8484 34.5959 23.5894 33.5059 22.4892Z" fill="#FF9500"/>
<path fill-rule="evenodd" clip-rule="evenodd" d="M27.5391 23.7235C27.702 24.1944 27.942 24.6827 28.2538 25.1658L31.4488 22.0089L30.3729 20.9229L27.5391 23.7235Z" fill="#FFB71C"/>
<path fill-rule="evenodd" clip-rule="evenodd" d="M30.9531 27.8231C32.5596 28.8188 34.1988 29.011 35.0521 28.1678L36.4007 26.8351L35.5224 25.9483C35.4005 25.3524 35.1394 24.7091 34.7512 24.0703L30.9531 27.8231Z" fill="#FFB71C"/>
<path fill-rule="evenodd" clip-rule="evenodd" d="M34.8581 21.1562C32.866 19.1455 30.3279 18.4273 29.1891 19.5524C28.0503 20.6775 28.742 23.22 30.7341 25.2306C32.7261 27.2412 35.2642 27.9595 36.403 26.8344C37.5418 25.7092 36.8502 23.1668 34.8581 21.1562Z" fill="#FFD60A"/>
<path fill-rule="evenodd" clip-rule="evenodd" d="M34.0781 21.9251C32.7122 20.5462 31.0306 19.9965 30.3217 20.6968C29.6127 21.3971 30.1453 23.0829 31.5112 24.4618C32.8771 25.8406 34.5586 26.3904 35.2682 25.6901C35.9765 24.9897 35.444 23.304 34.0781 21.9251Z" fill="#FF9500"/>
</g>
<defs>
<clipPath id="clip0_7_9410">
<rect width="67.9735" height="65.3922" fill="white" transform="translate(0.980469 0.929688)"/>
</clipPath>
</defs>
</svg>
