<svg width="67" height="70" viewBox="0 0 67 70" fill="none" xmlns="http://www.w3.org/2000/svg">
<path fill-rule="evenodd" clip-rule="evenodd" d="M21.457 44.9998C19.5559 47.1791 11.3489 50.8421 11.3489 50.8421C11.3489 50.8421 14.9655 54.9688 21.8279 54.0415C28.6903 53.0678 31.3796 48.431 31.3796 48.431H35.7845C35.7845 48.431 38.4738 53.1141 45.3362 54.0415C52.1985 55.0152 55.8152 50.8421 55.8152 50.8421C55.8152 50.8421 47.6081 47.1791 45.7071 44.9998C57.948 48.8947 65.5523 40.7804 66.5724 29.2349C64.254 30.5332 54.7023 33.8717 50.5756 33.6862C50.5756 33.6862 53.1258 32.2024 55.9079 30.2087C58.6899 28.2149 62.1211 26.0356 65.0423 19.1269C68.0098 12.2181 66.016 0.208984 66.016 0.208984L44.316 21.9089C46.3562 24.3664 47.6082 27.473 47.6082 30.9505C47.6082 38.6939 41.3486 44.9535 33.6052 44.9535C25.8619 44.9535 19.6023 38.6939 19.6023 30.9505C19.6023 27.5194 20.8542 24.3664 22.8944 21.9089L1.19445 0.208984C1.19445 0.208984 -0.799355 12.2645 2.16815 19.1269C5.13566 26.0356 8.52049 28.2149 11.3025 30.2087C14.0846 32.2024 16.6348 33.6862 16.6348 33.6862C12.5544 33.918 2.95641 30.5332 0.638038 29.2349C1.61175 40.7804 9.21601 48.9411 21.457 44.9998Z" fill="#A449D1"/>
<path fill-rule="evenodd" clip-rule="evenodd" d="M1.65625 17.9678L1.74899 18.1996V18.246L1.79535 18.3387C1.84171 18.4314 1.84172 18.4778 1.88809 18.5706V18.6169C1.93445 18.7096 1.98082 18.8024 2.02718 18.8951C4.99469 25.8039 8.37949 27.9831 11.1615 29.9769C13.9436 31.9707 16.4938 33.4545 16.4938 33.4545C17.5139 32.9908 17.7921 32.8053 18.0703 32.2489C18.0703 32.2489 13.1554 29.1423 10.2806 27.1485C7.68402 25.5257 4.53103 23.5319 1.65625 17.9678Z" fill="#7F38A3"/>
<path fill-rule="evenodd" clip-rule="evenodd" d="M1.83984 35.2627C4.62188 43.377 11.4843 48.1992 21.4533 44.9998C21.7778 44.768 22.0096 44.4434 22.2878 44.1652C12.3189 44.8144 6.70841 41.3368 1.83984 35.2627Z" fill="#7F38A3"/>
<path fill-rule="evenodd" clip-rule="evenodd" d="M19.6028 32.1094C19.5564 31.7384 19.5564 31.3211 19.5564 30.9502C19.5564 27.519 20.8083 24.366 22.8485 21.9086L21.3647 20.4248C19.881 22.6041 19 25.247 19 28.0754C19 29.4664 19.1855 30.8111 19.6028 32.1094Z" fill="#7F38A3"/>
<path fill-rule="evenodd" clip-rule="evenodd" d="M45.7064 20.4248L44.2227 21.9086C46.2628 24.366 47.5147 27.4726 47.5147 30.9502C47.5147 31.3211 47.5147 31.7384 47.4684 32.1094C47.8393 30.8575 48.0712 29.5128 48.0712 28.1218C48.0712 25.247 47.1901 22.6504 45.7064 20.4248Z" fill="#7F38A3"/>
<path fill-rule="evenodd" clip-rule="evenodd" d="M13.2487 49.9606C12.1359 50.517 11.3477 50.8415 11.3477 50.8415C11.3477 50.8415 14.9643 54.9682 21.8267 54.0409C28.689 53.0672 31.3784 48.4304 31.3784 48.4304H35.7833C35.7833 48.4304 38.4726 53.1135 45.3349 54.0409C52.1973 55.0146 55.8139 50.8415 55.8139 50.8415C55.8139 50.8415 55.0257 50.517 53.9129 49.9606C52.1046 50.8879 49.3689 51.6762 45.7986 51.1661C38.658 50.1924 35.876 45.5557 35.876 45.5557H31.332C31.332 45.5557 28.5036 50.2388 21.4094 51.1661C20.6212 51.2588 19.8793 51.3052 19.1837 51.3052C16.6335 51.3052 14.6397 50.7024 13.2487 49.9606Z" fill="#7F38A3"/>
<path fill-rule="evenodd" clip-rule="evenodd" d="M16.5397 33.6856C12.4594 33.9175 2.86134 30.5327 0.542969 29.2344C0.542969 29.4198 0.589353 29.5589 0.589353 29.7444V29.7908C0.589353 29.9299 0.635709 30.1154 0.635709 30.2545V30.3472C0.635709 30.4863 0.682065 30.6254 0.682065 30.7645V30.9036C0.682065 30.9963 0.728449 31.1354 0.728449 31.2282L0.774805 31.5064V31.5527L0.82119 31.7382C0.82119 31.8309 0.867546 31.9237 0.867546 32.0164V32.0628V32.1091V32.1555C2.67587 32.9901 12.8767 36.514 16.5397 33.6856Z" fill="#D582FF"/>
<path fill-rule="evenodd" clip-rule="evenodd" d="M22.846 21.9089L1.14606 0.208984C1.14606 0.208984 0.357828 4.98482 0.49693 10.2243C0.589664 6.14401 1.98069 5.30939 1.98069 5.30939L14.268 16.6694C16.6791 18.8487 19.4148 21.4452 22.846 21.9089Z" fill="#D582FF"/>
<path fill-rule="evenodd" clip-rule="evenodd" d="M47.4681 32.2959C46.7726 39.3901 40.7912 44.9542 33.5579 44.9542C26.2782 44.9542 20.2968 39.3901 19.6477 32.2959C19.6013 32.7596 19.6013 33.2232 19.6013 33.6406C19.6013 41.3839 25.8609 47.6435 33.6042 47.6435C41.3476 47.6435 47.6072 41.3839 47.6072 33.6406C47.5145 33.2232 47.5144 32.7596 47.4681 32.2959Z" fill="#D582FF"/>
<path fill-rule="evenodd" clip-rule="evenodd" d="M33.8334 60.6718L35.0854 62.8511C35.1317 62.9438 35.2245 62.9902 35.3172 63.0365L37.7746 63.5466C37.9137 63.5929 38.0065 63.6393 38.0528 63.7784C38.0992 63.9175 38.0529 64.0103 37.9601 64.1494L36.2909 66.004C36.1982 66.0968 36.1981 66.1895 36.1981 66.2822L36.43 68.7861C36.43 68.9252 36.3836 69.0179 36.2909 69.1107C36.1982 69.2034 36.059 69.2034 35.9199 69.157L33.6479 68.1369C33.5552 68.0906 33.4625 68.0906 33.3697 68.1369L31.0977 69.157C30.9586 69.2034 30.8659 69.2034 30.7268 69.1107C30.6341 69.0179 30.5877 68.9252 30.5877 68.7861L30.8195 66.2822C30.8195 66.1895 30.8196 66.0968 30.7268 66.004L29.0576 64.1494C28.9649 64.0566 28.9648 63.9175 28.9648 63.7784C29.0112 63.6393 29.1039 63.5466 29.243 63.5466L31.7005 63.0365C31.7933 63.0365 31.886 62.9438 31.9324 62.8511L33.1843 60.6718C33.2306 60.5791 33.3698 60.4863 33.5089 60.4863C33.648 60.4863 33.787 60.5327 33.8334 60.6718Z" fill="#E8A515"/>
<path fill-rule="evenodd" clip-rule="evenodd" d="M26.4135 41.3369H40.6484V48.5239V53.2997C40.6484 54.8298 39.9528 56.1745 38.6545 57.0091L33.5078 60.4403L28.361 57.0091C27.0627 56.1281 26.3672 54.8298 26.3672 53.2997V41.3369H26.4135Z" fill="#64D2FF"/>
<path fill-rule="evenodd" clip-rule="evenodd" d="M35.9219 48.4311V58.9101L38.6576 57.0554C39.9558 56.1745 40.6514 54.8762 40.6514 53.3461V52.3723V48.5239V43.2843V41.3369H35.9219V44.8145V48.4311Z" fill="#3DA7D1"/>
<path fill-rule="evenodd" clip-rule="evenodd" d="M26.4141 42.6352V52.8824V53.2997C26.4141 54.7834 27.0632 56.0354 28.2224 56.9163C28.2688 56.9627 28.3615 57.0091 28.4079 57.0554L31.1436 58.9101V49.4048V44.629V41.3369H28.2224H26.4141V42.6352Z" fill="#3DA7D1"/>
<path fill-rule="evenodd" clip-rule="evenodd" d="M40.6484 51.584V53.2996C40.6484 54.8297 39.9528 56.1743 38.6545 57.009L33.5078 60.4401L28.361 57.009C27.0627 56.128 26.3672 54.8297 26.3672 53.2996V51.584C26.3672 53.1141 27.0627 54.4588 28.361 55.2934L33.5078 58.7246L38.6545 55.2934C39.9528 54.4588 40.6484 53.1141 40.6484 51.584Z" fill="#44A5CE"/>
<path fill-rule="evenodd" clip-rule="evenodd" d="M35.9219 57.1481V58.8637L38.6576 57.009C39.9558 56.128 40.6514 54.8297 40.6514 53.2996V52.3259V51.584C40.6514 53.1141 39.9558 54.4588 38.6576 55.2934L35.9219 57.1481Z" fill="#217FA5"/>
<path fill-rule="evenodd" clip-rule="evenodd" d="M26.4141 51.584V52.8823V53.2996V53.3459V53.3923V53.4387V53.485V53.5314V53.5778V53.6241V53.6705V53.7169V53.7632V53.8096V53.856V53.9024V53.9487V53.9951V54.0415V54.0878V54.1342V54.1806V54.2269V54.2733V54.3197V54.366V54.4124V54.4588V54.5051V54.5515V54.5979V54.6442V54.6906V54.737V54.7833V54.8297V54.8761L26.4604 54.9224V54.9688V55.0152V55.0615V55.1079V55.1543V55.2006L26.5068 55.247L26.5532 55.2934L26.5995 55.3397L26.6459 55.3861L26.6923 55.4325L26.7387 55.4788L26.785 55.5252L26.8314 55.5716L26.8777 55.6179L26.9241 55.6643L26.9705 55.7107L27.0169 55.757C27.0632 55.8034 27.0632 55.8034 27.1096 55.8498L27.1559 55.8961V55.9425L27.2023 55.9889L27.2487 56.0353L27.2951 56.0816L27.3414 56.128L27.3878 56.1743L27.4342 56.2207L27.4805 56.2671L27.5269 56.3135L27.5732 56.3598L27.6196 56.4062L27.666 56.4526L27.7124 56.4989L27.7587 56.5453L30.4944 58.4V56.6844L27.7587 54.8297C27.1096 54.4588 26.4141 53.1141 26.4141 51.584Z" fill="#217FA5"/>
<path d="M40.6489 41.3369H26.4141V42.7743H40.6489V41.3369Z" fill="#7BFCFF"/>
<path fill-rule="evenodd" clip-rule="evenodd" d="M40.6514 48.5239V41.3369H35.9219V42.7743H39.5849L40.6514 48.5239Z" fill="#4DC9FB"/>
<path fill-rule="evenodd" clip-rule="evenodd" d="M26.4141 42.4034V48.8948L27.1559 42.7743H31.1436V41.3369H28.2224H26.4141V42.4034Z" fill="#4DC9FB"/>
<path fill-rule="evenodd" clip-rule="evenodd" d="M33.744 62.2486L34.5322 63.5933C34.5786 63.6396 34.625 63.686 34.6714 63.686L36.2015 64.0106C36.2942 64.0106 36.3406 64.1033 36.3869 64.1497C36.4333 64.2424 36.387 64.2888 36.3406 64.3815L35.3205 65.5407C35.2742 65.5871 35.2741 65.6334 35.2741 65.7262L35.4132 67.2563C35.4132 67.349 35.3669 67.3954 35.3205 67.4418C35.2742 67.4881 35.1814 67.4881 35.0887 67.4881L33.6513 66.8854C33.6049 66.839 33.5122 66.839 33.4658 66.8854L32.0284 67.4881C31.9357 67.5345 31.8893 67.5345 31.7966 67.4418C31.7502 67.3954 31.7038 67.3027 31.7038 67.2563L31.843 65.7262C31.843 65.6798 31.8429 65.5871 31.7966 65.5407L30.7765 64.3815C30.7301 64.3352 30.6838 64.2424 30.7301 64.1497C30.7765 64.0569 30.8229 64.0106 30.9156 64.0106L32.4457 63.686C32.4921 63.686 32.5385 63.6396 32.5848 63.5933L33.3731 62.2486C33.4194 62.1559 33.4658 62.1559 33.5585 62.1559C33.6049 62.1095 33.6977 62.1559 33.744 62.2486Z" fill="#FFD60A"/>
<path fill-rule="evenodd" clip-rule="evenodd" d="M50.4805 33.6856C54.5608 33.9175 64.1588 30.5327 66.4772 29.2344C66.4772 29.4198 66.4308 29.5589 66.4308 29.7444V29.7908C66.4308 29.9299 66.3845 30.1154 66.3845 30.2545V30.3472C66.3845 30.4863 66.3381 30.6254 66.3381 30.7645V30.9036C66.3381 30.9963 66.2917 31.1354 66.2917 31.2282L66.2454 31.5064V31.5527L66.199 31.7382C66.199 31.8309 66.1527 31.9237 66.1527 32.0164V32.0628V32.1091V32.1555C64.3907 32.9901 54.1899 36.514 50.4805 33.6856Z" fill="#D582FF"/>
<path fill-rule="evenodd" clip-rule="evenodd" d="M44.2227 21.9089L65.9226 0.208984C65.9226 0.208984 66.7108 4.98482 66.5717 10.2243C66.479 6.14401 65.088 5.30939 65.088 5.30939L52.8006 16.6694C50.3895 18.8487 47.6075 21.4452 44.2227 21.9089Z" fill="#D582FF"/>
<path fill-rule="evenodd" clip-rule="evenodd" d="M65.4101 17.9678L65.3174 18.1996V18.246L65.271 18.3387C65.2246 18.4314 65.2246 18.4778 65.1782 18.5706V18.6169C65.1319 18.7096 65.0855 18.8024 65.0392 18.8951C62.0717 25.8039 58.6868 27.9831 55.9048 29.9769C53.1227 31.9707 50.5725 33.4545 50.5725 33.4545C49.5525 32.9908 49.2743 32.8053 48.9961 32.2489C48.9961 32.2489 53.911 29.1423 56.7858 27.1485C59.336 25.5257 62.5353 23.5319 65.4101 17.9678Z" fill="#7F38A3"/>
<path fill-rule="evenodd" clip-rule="evenodd" d="M65.2251 35.2627C62.4431 43.377 55.5807 48.1992 45.6117 44.9998C45.2872 44.768 45.0553 44.4434 44.7771 44.1652C54.7461 44.8144 60.3102 41.3368 65.2251 35.2627Z" fill="#7F38A3"/>
<path fill-rule="evenodd" clip-rule="evenodd" d="M40.652 35.7265H26.3708C25.3971 35.7265 24.5625 34.9383 24.5625 33.9182V23.9492L29.0138 28.0759L33.4651 23.9492L37.9163 28.0759L42.3676 23.9492V33.9182C42.4603 34.9383 41.6721 35.7265 40.652 35.7265Z" fill="#FFCC00"/>
<path fill-rule="evenodd" clip-rule="evenodd" d="M27.6697 35.7265H26.4177C25.444 35.7265 24.6094 34.9383 24.6094 33.9182V23.9492L27.6697 26.7776V35.7265Z" fill="#E8A515"/>
<path fill-rule="evenodd" clip-rule="evenodd" d="M38.0093 35.7265H33.5117V23.9492L38.0093 28.0759V35.7265Z" fill="#FFE357"/>
<path fill-rule="evenodd" clip-rule="evenodd" d="M40.6516 35.7265H39.8633V26.314L42.4135 23.9492V33.9182C42.4599 34.9383 41.6716 35.7265 40.6516 35.7265Z" fill="#E8A515"/>
<path fill-rule="evenodd" clip-rule="evenodd" d="M24.6094 25.7575V23.9492L29.0607 28.0759L33.5119 23.9492L38.0095 28.0759L42.4608 23.9492V25.7575L38.0095 29.8379L33.5119 25.7575L29.0607 29.8379L24.6094 25.7575Z" fill="#FFE357"/>
<path fill-rule="evenodd" clip-rule="evenodd" d="M40.652 35.7258H26.3708C25.3971 35.7258 24.5625 34.9375 24.5625 33.9174V32.6191C24.5625 33.5929 25.3508 34.4275 26.3708 34.4275H40.652C41.6257 34.4275 42.4603 33.6392 42.4603 32.6191V33.9174C42.4603 34.9375 41.6721 35.7258 40.652 35.7258Z" fill="#E2B400"/>
<path fill-rule="evenodd" clip-rule="evenodd" d="M27.6697 35.7258H26.4177C25.444 35.7258 24.6094 34.9375 24.6094 33.9174V32.6191C24.6094 33.5929 25.3976 34.4275 26.4177 34.4275H27.6697V35.7258Z" fill="#CD9111"/>
<path d="M37.963 34.4746H33.5117V35.7729H37.963V34.4746Z" fill="#E2C94C"/>
<path fill-rule="evenodd" clip-rule="evenodd" d="M40.6516 35.7258H39.8633V34.4275H40.6516C41.6253 34.4275 42.4598 33.6392 42.4598 32.6191V33.9174C42.4598 34.9375 41.6716 35.7258 40.6516 35.7258Z" fill="#CD9111"/>
</svg>
