<svg width="64" height="64" viewBox="0 0 64 64" fill="none" xmlns="http://www.w3.org/2000/svg">
<g clip-path="url(#clip0_7_9549)">
<path fill-rule="evenodd" clip-rule="evenodd" d="M41.5121 36.1986L5.30078 43.7487V18.8064C5.30078 17.3525 6.29979 16.1304 7.73123 15.8318L39.0861 9.29428C39.6999 9.16599 40.281 9.30589 40.768 9.69907C41.2549 10.0917 41.5121 10.6287 41.5121 11.2519V36.1986Z" fill="#BF5AF2"/>
<path fill-rule="evenodd" clip-rule="evenodd" d="M15.8279 53.2998L5.30078 48.826V18.2216C5.30078 17.1122 6.06325 16.1793 7.15576 15.9515L8.44862 15.6816L7.22087 17.1543L15.8279 20.8118V53.2998Z" fill="#8C3DB3"/>
<path fill-rule="evenodd" clip-rule="evenodd" d="M6.56804 49.3642L5.30078 48.8256V39.251C8.07017 40.0805 11.946 42.6591 11.946 42.6591L6.56804 49.3642Z" fill="#7F38A3"/>
<path fill-rule="evenodd" clip-rule="evenodd" d="M50.428 12.5768L42.726 9.30364C41.9017 8.9536 41.0981 8.87452 40.2204 9.05701L7.30166 15.9213C7.02172 15.9794 6.8208 16.2023 6.79242 16.4854C6.76403 16.768 6.91764 17.0257 7.18033 17.1374L13.6919 19.9046C14.5501 20.269 15.8285 20.8126 15.8285 23.8447L17.9557 20.3691L49.5498 13.7813L52.0404 16.7884V15.0039C52.0398 13.9239 51.427 13.0015 50.428 12.5768Z" fill="#DB94FF"/>
<path fill-rule="evenodd" clip-rule="evenodd" d="M52.0389 45.7493L15.8281 53.2994V23.8634C15.8281 22.0656 17.0637 20.5537 18.834 20.1848L49.8071 13.727C50.372 13.6092 50.9068 13.738 51.3543 14.0991C51.8023 14.4608 52.0389 14.9541 52.0389 15.5275V45.7493Z" fill="#BF5AF2"/>
<path fill-rule="evenodd" clip-rule="evenodd" d="M31.976 17.4465L34.9619 16.8232L35.1344 17.1705L37.4658 17.0196L38.3474 17.5079L36.2353 20.4636L36.7022 23.7468L34.0403 22.8443L31.3783 25.0645L30.4967 24.5762L30.9637 21.062L28.8516 19.1514L31.8018 17.8822L31.976 17.4465Z" fill="#7F38A3"/>
<path fill-rule="evenodd" clip-rule="evenodd" d="M48.9425 38.3906L19.4961 44.5305V28.2415L48.9425 22.1016V38.3906Z" fill="#CCCCCC"/>
<path fill-rule="evenodd" clip-rule="evenodd" d="M38.4141 24.297L48.9417 22.1016V38.3906L38.4141 33.9169V24.297Z" fill="#AB50D9"/>
<path fill-rule="evenodd" clip-rule="evenodd" d="M48.9425 38.3907L19.4961 44.5307V37.8615L38.4154 33.917L48.9425 38.3907Z" fill="#DB94FF"/>
<path fill-rule="evenodd" clip-rule="evenodd" d="M4.41016 25.3942L7.68099 24.6631L7.91196 24.6211L8.14794 24.6045L8.38836 24.6122L8.62991 24.6465L8.86978 24.7046L9.10743 24.787L9.34285 24.8926L9.57493 25.0209L9.80422 25.1719L10.0302 25.3438L10.2517 25.5368L10.4699 25.7497L10.683 25.9826L10.8917 26.2342L11.0949 26.504L11.293 26.7916L11.485 27.0957L11.6714 27.417L11.8512 27.7538L12.0243 28.1055L12.1901 28.4716L12.3482 28.8521L12.499 29.2452L12.6421 29.6511L12.7762 30.0686L12.902 30.4978L13.0183 30.9374L13.1257 31.387L13.2231 31.846L13.311 32.3138L13.3878 32.7899L13.4546 33.2727L13.5103 33.7627L13.5542 34.2593L13.5865 34.7614L13.6071 35.2618L13.6155 35.7551L13.611 36.2401L13.5954 36.7162L13.5682 37.1829L13.5292 37.6397L13.4797 38.086L13.419 38.5212L13.3478 38.9442L13.2665 39.3551L13.1752 39.7533L13.0745 40.1382L12.9638 40.5087L12.8441 40.8648L12.7155 41.2054L12.5786 41.53L12.4328 41.8386L12.2792 42.13L12.1172 42.4038L11.948 42.6593L11.7716 42.8959L11.588 43.1138L11.3971 43.3112L11.2 43.4882L10.9964 43.6441L10.7865 43.7785L10.5717 43.8902L10.3508 43.9793L10.1242 44.0451L6.85396 44.7761L7.07992 44.7109L7.30087 44.6213L7.51625 44.5096L7.72607 44.3752L7.92921 44.2193L8.12679 44.0423L8.31713 43.8449L8.50079 43.6276L8.67777 43.3903L8.84696 43.1348L9.00892 42.8611L9.16252 42.5697L9.30834 42.2611L9.44525 41.9365L9.57381 41.5959L9.69347 41.2397L9.80422 40.8692L9.90496 40.4843L9.99623 40.0862L10.0775 39.6753L10.1487 39.2523L10.2088 38.817L10.2589 38.3708L10.2973 37.914L10.3246 37.4473L10.3407 36.9711L10.3446 36.4862L10.3368 35.9929L10.3162 35.4924L10.284 34.9903L10.2394 34.4943L10.1838 34.0043L10.1176 33.5204L10.0402 33.0449L9.95282 32.577L9.85543 32.1181L9.74801 31.6685L9.63114 31.2288L9.50591 30.7997L9.37179 30.3822L9.22875 29.9763L9.07793 29.5831L8.91931 29.2027L8.75346 28.8366L8.58093 28.4849L8.40061 28.1481L8.21472 27.8274L8.02271 27.5227L7.82458 27.2351L7.62144 26.9652L7.41274 26.7136L7.19902 26.4808L6.98141 26.2679L6.75935 26.0749L6.53395 25.9029L6.30465 25.7525L6.07201 25.6237L5.83715 25.518L5.5995 25.4356L5.35963 25.3776L5.11753 25.3438L4.8771 25.3356L4.64168 25.3521L4.41016 25.3942Z" fill="#01D180"/>
<path fill-rule="evenodd" clip-rule="evenodd" d="M5.11601 25.3442L5.35811 25.378L5.59799 25.436L5.83563 25.5184L6.0705 25.624L6.30313 25.7529L6.53243 25.9033L6.75783 26.0753L6.9799 26.2683L7.19751 26.4812L7.41122 26.714L7.61993 26.9656L7.82307 27.2355L8.0212 27.523L8.21321 27.8277L8.39909 28.1485L8.57942 28.4853L8.75195 28.837L8.9178 29.203L9.07641 29.5835L9.22724 29.9767L9.37027 30.3826L9.5044 30.8001L9.62962 31.2292L9.7465 31.6689L9.85391 32.1184L9.95131 32.5774L10.0387 33.0453L10.116 33.5208L10.1823 34.0047L10.2379 34.4947L10.2825 34.9907L10.3147 35.4928L10.3353 35.9933L10.3431 36.4866L10.3392 36.9715L10.3231 37.4477L10.2958 37.9144L10.2574 38.3712L10.2073 38.8174L10.1472 39.2526L10.076 39.6757L9.99472 40.0866L9.90345 40.4847L9.80271 40.8696L9.69196 41.2401L9.5723 41.5962L9.44374 41.9369L9.30682 42.2615L9.16101 42.5701L9.0074 42.8615L8.84545 43.1352L8.67626 43.3907L8.49927 43.6279L8.31561 43.8453L8.12527 44.0427L7.9277 44.2196L7.72456 44.3756L7.51474 44.51L7.29935 44.6217L7.0784 44.7113L6.85245 44.7765L6.62092 44.818L6.3855 44.8351L6.14507 44.8268L5.90297 44.7931L5.66366 44.735L5.42546 44.6526L5.19059 44.547L4.95795 44.4182L4.72866 44.2678L4.50325 44.0958L4.28119 43.9028L4.06358 43.6899L3.84987 43.4571L3.64172 43.2055L3.43802 42.9356L3.23989 42.648L3.04788 42.3433L2.86144 42.0226L2.68223 41.6858L2.50914 41.3341L2.34329 40.9675L2.18467 40.5876L2.03385 40.1944L1.89137 39.7885L1.75669 39.371L1.63091 38.9419L1.51459 38.5022L1.40773 38.0526L1.30978 37.5937L1.2224 37.1258L1.14504 36.6497L1.07881 36.1664L1.02316 35.6764L0.978633 35.1798L0.946353 34.6783L0.92576 34.1778L0.917969 33.6845L0.921865 33.1995L0.938004 32.7234L0.965275 32.2567L1.00368 31.7999L1.05377 31.3536L1.11443 30.9184L1.18511 30.4954L1.26637 30.084L1.35764 29.6864L1.45893 29.3015L1.56913 28.931L1.68879 28.5748L1.81735 28.2342L1.95482 27.9096L2.10008 27.601L2.25424 27.3096L2.41564 27.0358L2.58483 26.7804L2.76181 26.5431L2.94548 26.3258L3.13637 26.1284L3.33339 25.9514L3.53653 25.7955L3.74635 25.6611L3.96173 25.5488L4.18268 25.4598L4.40864 25.3946L4.64017 25.3525L4.87559 25.3359L5.11601 25.3442Z" fill="#00A163"/>
<path fill-rule="evenodd" clip-rule="evenodd" d="M45.1627 22.8896C46.4923 24.1848 47.5024 26.8768 47.6672 29.9879C47.8993 34.3621 46.3743 37.9079 44.2611 37.9079L20.4336 42.876C22.1428 42.1444 23.2892 38.947 23.0855 35.1131C22.9203 32.0019 21.9107 29.3099 20.5811 28.0148L45.1627 22.8896Z" fill="#64D2FF"/>
<path fill-rule="evenodd" clip-rule="evenodd" d="M47.5698 32.7861C47.1824 35.7801 45.8985 37.9096 44.2611 37.9096L20.4336 42.8778C21.7036 42.3342 22.6631 40.428 22.9881 37.9113L47.5698 32.7861Z" fill="#4AA5C9"/>
<path fill-rule="evenodd" clip-rule="evenodd" d="M20.5825 28.0156C21.9121 29.3107 22.9217 32.0027 23.0869 35.1139C23.319 39.4881 21.7941 43.0339 19.6809 43.0339C19.6191 43.0339 19.5579 43.0306 19.4961 43.0245V28.2418L20.5825 28.0156Z" fill="#51B0D6"/>
<path fill-rule="evenodd" clip-rule="evenodd" d="M30.1174 39.3073L23.7316 40.6201C24.302 38.9545 24.5257 37.1523 24.5452 35.7991C24.5714 33.9947 24.2953 31.8131 23.5117 30.007L30.3044 28.645C31.1776 30.1248 31.4498 32.4485 31.4275 33.9742C31.4058 35.4911 31.1426 37.2391 30.4725 38.6669C30.404 38.8129 30.2766 39.0562 30.1174 39.3073ZM38.0688 37.6732L31.6089 39.0009C31.7659 38.7526 31.8911 38.5132 31.959 38.3689C32.6291 36.941 32.8918 35.1936 32.9135 33.6761C32.9358 32.1504 32.6636 29.8273 31.7904 28.3469L38.2814 27.0452C39.1413 28.5222 39.4095 30.8227 39.3878 32.3357C39.3656 33.8487 39.1034 35.5912 38.4356 37.0151C38.3649 37.1644 38.233 37.4161 38.0688 37.6732ZM45.0958 25.6787C45.9902 27.1159 46.2673 29.4463 46.2451 30.9648C46.2239 32.4441 45.9673 34.1484 45.3139 35.5408C45.2377 35.7034 45.0869 35.9893 44.9004 36.2686L39.5553 37.3674C39.7167 37.1136 39.847 36.8658 39.916 36.7182C40.5838 35.2942 40.846 33.5517 40.8677 32.0387C40.8894 30.5257 40.6211 28.2253 39.7618 26.7482L45.0958 25.6787Z" fill="white"/>
<path fill-rule="evenodd" clip-rule="evenodd" d="M40.0717 36.3637L41.3434 36.1021L41.7169 36.0253L44.1351 35.5281C44.321 35.2483 44.4723 34.9624 44.548 34.8004C45.2014 33.4079 45.458 31.7036 45.4791 30.2243C45.4975 28.9668 45.3105 27.153 44.7378 25.75L45.0946 25.6787C45.9889 27.1159 46.2661 29.4463 46.2438 30.9648C46.2227 32.4441 45.9661 34.1484 45.3127 35.5408C45.2365 35.7034 45.0857 35.9893 44.8992 36.2686L43.1116 36.6363L39.5547 37.3674C39.5981 37.2988 39.6393 37.2314 39.6777 37.1655C39.7818 36.9869 39.8647 36.826 39.9153 36.7182C39.9704 36.602 40.0222 36.4837 40.0717 36.3637Z" fill="#4AA5C9"/>
<path fill-rule="evenodd" clip-rule="evenodd" d="M39.1186 34.8861C38.9666 35.6271 38.7446 36.3549 38.4357 37.0135C38.3845 37.1235 38.2993 37.2878 38.193 37.4697C38.1546 37.5355 38.1129 37.6035 38.0695 37.6716L31.6096 38.9993C31.653 38.9307 31.6937 38.8633 31.7315 38.7975C31.8311 38.626 31.9102 38.4717 31.9591 38.3672C32.0159 38.2461 32.0699 38.1217 32.1216 37.9962L37.3042 36.9311C37.4684 36.674 37.6003 36.4223 37.6704 36.273C37.9203 35.7405 38.1135 35.1632 38.2582 34.5698C38.3099 34.358 38.3555 34.144 38.3956 33.9294C38.5425 33.1386 38.6116 32.3385 38.6227 31.593C38.626 31.3525 38.6221 31.0926 38.6099 30.8188C38.5576 29.6625 38.3528 28.2668 37.9047 27.1187L38.2815 27.043C38.4824 27.3875 38.6505 27.7768 38.7908 28.191C39.251 29.5508 39.4046 31.1739 39.3879 32.3335C39.3757 33.1469 39.2944 34.0262 39.1186 34.8861Z" fill="#4AA5C9"/>
<path fill-rule="evenodd" clip-rule="evenodd" d="M30.4714 38.6675C30.4219 38.7736 30.3406 38.9312 30.2387 39.106C30.2003 39.1712 30.1597 39.2393 30.1163 39.3078L23.7305 40.6206C23.7522 40.5576 23.7733 40.4946 23.7934 40.431C23.8757 40.1771 23.9503 39.9205 24.0176 39.6634L29.3505 38.5674C29.5097 38.3163 29.6371 38.073 29.7056 37.927C29.9577 37.3895 30.1525 36.8066 30.2977 36.2077C30.5393 35.2162 30.6467 34.1799 30.6601 33.2343C30.6784 31.9668 30.4936 30.148 29.9299 28.7202L30.3022 28.6455C31.1754 30.1253 31.4476 32.449 31.4253 33.9747C31.4158 34.6256 31.3619 35.3196 31.2506 36.012C31.1036 36.9333 30.8537 37.8523 30.4714 38.6675Z" fill="#4AA5C9"/>
<path fill-rule="evenodd" clip-rule="evenodd" d="M5.625 24.894V11.0719C5.625 10.7616 5.88046 10.5078 6.19268 10.5078H8.53519C8.84742 10.5078 9.10287 10.7616 9.10287 11.0719V24.894C9.10287 25.3547 8.46006 25.6815 7.55567 25.6621C6.72418 25.6444 5.625 25.3176 5.625 24.894Z" fill="#00A163"/>
<path fill-rule="evenodd" clip-rule="evenodd" d="M7.19531 10.5078H8.53047C8.8427 10.5078 9.09815 10.7616 9.09815 11.0719V24.894C9.09815 25.3547 8.45534 25.6815 7.55095 25.6621C7.4363 25.6594 7.31664 25.6511 7.19531 25.6378V10.5078Z" fill="#01D180"/>
<path fill-rule="evenodd" clip-rule="evenodd" d="M7.42274 7.7998C9.31946 7.7998 10.8572 9.32773 10.8572 11.2123C10.8572 13.097 9.31946 14.6249 7.42274 14.6249C5.52602 14.6249 3.98828 13.097 3.98828 11.2123C3.98828 9.32773 5.52602 7.7998 7.42274 7.7998Z" fill="#5E5CE6"/>
<path fill-rule="evenodd" clip-rule="evenodd" d="M8.64626 9.34473C9.55789 9.34473 10.2964 10.0791 10.2964 10.9844C10.2964 11.8896 9.55733 12.624 8.64626 12.624C7.73519 12.624 6.99609 11.8902 6.99609 10.9844C6.99609 10.0786 7.73463 9.34473 8.64626 9.34473Z" fill="#A9A8FF"/>
<path d="M25.8442 33.6478C25.842 33.6002 25.842 33.5338 25.842 33.4476C25.842 33.1158 25.8954 32.8631 26.004 32.6905C26.113 32.5185 26.29 32.4024 26.5338 32.3438C26.6078 32.3261 26.7831 32.3106 27.0575 32.2984C27.3336 32.2857 27.5745 32.2537 27.7816 32.2033C27.9213 32.1696 28.0604 32.1198 28.1995 32.0518C28.3392 31.9843 28.4812 31.8997 28.6264 31.8008C28.4222 32.0817 28.1155 32.4516 27.707 32.9139C27.2985 33.3746 27.0213 33.7102 26.8761 33.9215C26.5889 34.344 26.3785 34.7604 26.2472 35.1674C26.1158 35.576 26.0496 36.0179 26.0496 36.4901C26.0496 36.5764 26.0502 36.6422 26.0524 36.687C26.0541 36.7296 26.0568 36.7694 26.0591 36.8009C26.0591 37.3445 26.501 37.6774 27.0475 37.5453C27.5924 37.4136 28.0354 36.8673 28.0354 36.3237C28.0354 36.2833 28.0315 36.2419 28.0265 36.2026V36.1097C28.0265 35.5462 28.0955 35.0131 28.2341 34.5054C28.3715 34 28.6348 33.3807 29.0249 32.6502C29.0616 32.5772 29.1167 32.4726 29.1919 32.3388C29.739 31.3445 30.0133 30.6594 30.0133 30.2772C30.0133 30.228 30.0122 30.1904 30.0106 30.1678C30.0089 30.1423 30.0067 30.1202 30.0039 30.0986L29.178 30.2983V30.3635C29.178 30.4559 29.1507 30.5327 29.0961 30.5941C29.0422 30.6566 28.9637 30.7003 28.8624 30.7246C28.7695 30.7473 28.5257 30.729 28.1311 30.6688C27.7365 30.609 27.3814 30.6168 27.0659 30.6931C26.7937 30.7584 26.5561 30.8739 26.3535 31.0398C26.1509 31.2057 25.9823 31.4231 25.8504 31.6874L25.8593 31.099L24.7734 31.3611V34.0326L25.8509 33.7727C25.8476 33.7368 25.8453 33.6948 25.8442 33.6478Z" fill="#FF453A"/>
<path fill-rule="evenodd" clip-rule="evenodd" d="M5.36813 30.0884L5.49224 30.1055L5.61524 30.1354L5.73712 30.178L5.85789 30.2322L5.97699 30.298L6.09498 30.3754L6.21074 30.4633L6.32428 30.5623L6.43615 30.6718L6.54579 30.7913L6.65264 30.9201L6.75672 31.0589L6.85857 31.206L6.95708 31.3625L7.0528 31.5273L7.14463 31.6998L7.23368 31.8801L7.31883 32.0681L7.40009 32.2628L7.47745 32.4646L7.55036 32.6731L7.61937 32.8871L7.68393 33.1072L7.74348 33.3328L7.79858 33.5634L7.84867 33.799L7.89375 34.039L7.93326 34.2829L7.96721 34.5312L7.9956 34.7822L8.01841 35.0372L8.03511 35.2943L8.04569 35.5515L8.04958 35.8042L8.04791 36.053L8.03956 36.2974L8.02565 36.5369L8.00561 36.7708L7.98001 36.9997L7.94885 37.2232L7.91267 37.4399L7.87093 37.6512L7.82418 37.8552L7.77242 38.0527L7.71565 38.2429L7.65443 38.4254L7.5882 38.6001L7.51808 38.7666L7.44294 38.9247L7.36447 39.0746L7.28154 39.2151L7.19472 39.3461L7.10401 39.4672L7.00995 39.5789L6.912 39.6801L6.8107 39.7714L6.70607 39.851L6.59866 39.9201L6.48846 39.9776L6.37493 40.023L6.25916 40.0567L6.14062 40.0783L6.01929 40.0866L5.8963 40.0827L5.77218 40.0656L5.64919 40.0351L5.5273 39.9931L5.40653 39.9389L5.28743 39.8731L5.16944 39.7957L5.05368 39.7078L4.94014 39.6088L4.82828 39.4993L4.71864 39.3798L4.61178 39.251L4.50771 39.1122L4.40586 38.9651L4.30735 38.8086L4.21218 38.6444L4.11979 38.4713L4.03074 38.291L3.94615 38.103L3.86434 37.9078L3.78698 37.7065L3.71407 37.498L3.64506 37.2834L3.5805 37.0639L3.52095 36.8383L3.46585 36.6077L3.41576 36.3721L3.37068 36.1321L3.33116 35.8882L3.29721 35.6399L3.26883 35.3889L3.24601 35.1339L3.22931 34.8768L3.21874 34.6197L3.21484 34.3669L3.21707 34.1181L3.22486 33.8737L3.23878 33.6342L3.25881 33.4003L3.28441 33.1714L3.31558 32.948L3.35175 32.7306L3.3935 32.5199L3.44025 32.3159L3.49201 32.1185L3.54877 31.9282L3.60999 31.7457L3.67622 31.571L3.74635 31.4045L3.82148 31.2464L3.89996 31.0965L3.98288 30.9561L4.0697 30.825L4.16042 30.7033L4.25503 30.5922L4.35243 30.4904L4.45372 30.3997L4.55835 30.3196L4.66577 30.251L4.77596 30.1935L4.8895 30.1481L5.00526 30.1144L5.12436 30.0928L5.24513 30.084L5.36813 30.0884Z" fill="#01D180"/>
<path fill-rule="evenodd" clip-rule="evenodd" d="M6.63177 30.8975L6.65014 30.9196L6.75421 31.0578L6.85606 31.2055L6.95457 31.362L7.0503 31.5268L7.14213 31.6993L7.23118 31.8796L7.31633 32.0676L7.39758 32.2623L7.47494 32.4641L7.54785 32.6726L7.61686 32.8866L7.68142 33.1067L7.74097 33.3323L7.79607 33.5629L7.84616 33.7985L7.89124 34.0385L7.93076 34.2824L7.96471 34.5306L7.99309 34.7817L8.01591 35.0366L8.03261 35.2938L8.04318 35.5509L8.04708 35.8036L8.04541 36.0525L8.03706 36.2969L8.02314 36.5364L8.00311 36.7703L7.97751 36.9992L7.94634 37.2226L7.91016 37.44L7.86842 37.6507L7.82167 37.8547L7.76991 38.0521L7.71315 38.2424L7.65193 38.4248L7.5857 38.5996L7.51557 38.766L7.44044 38.9242L7.36196 39.0741L7.27904 39.214L7.19222 39.3456L7.1015 39.4667L7.00744 39.5784L6.90949 39.6796L6.8082 39.7708L6.70357 39.8505L6.61508 39.9074L6.59671 39.8848L6.49208 39.7465L6.39079 39.5989L6.29228 39.4429L6.19655 39.2781L6.10417 39.1056L6.01568 38.9248L5.93052 38.7373L5.84927 38.5421L5.77191 38.3402L5.69844 38.1323L5.62999 37.9178L5.56543 37.6977L5.50532 37.472L5.45078 37.2414L5.40069 37.0059L5.35561 36.7664L5.31609 36.522L5.28214 36.2742L5.25376 36.0226L5.23094 35.7683L5.21425 35.5106L5.20367 35.254L5.19922 35.0012L5.20145 34.7524L5.20979 34.508L5.22371 34.2685L5.24374 34.0341L5.26934 33.8051L5.29995 33.5823L5.33669 33.3649L5.37843 33.1542L5.42518 32.9496L5.47694 32.7528L5.5337 32.5625L5.59492 32.38L5.6606 32.2053L5.73128 32.0383L5.80586 31.8801L5.88489 31.7308L5.96781 31.5904L6.05463 31.4593L6.14535 31.3376L6.23941 31.2259L6.33736 31.1247L6.43865 31.034L6.54273 30.9539L6.63177 30.8975Z" fill="#00A163"/>
<path fill-rule="evenodd" clip-rule="evenodd" d="M48.0919 17.2229C48.9406 17.2384 49.6291 17.9352 49.6291 18.7785C49.6291 19.6218 48.9406 20.2931 48.0919 20.2777C47.2426 20.2622 46.5547 19.566 46.5547 18.7221C46.5547 17.8782 47.2431 17.2074 48.0919 17.2229Z" fill="#7F38A3"/>
<path fill-rule="evenodd" clip-rule="evenodd" d="M48.0919 16.4426C48.9406 16.4581 49.6291 17.1549 49.6291 17.9982C49.6291 18.8421 48.9406 19.5129 48.0919 19.4974C47.2426 19.4819 46.5547 18.7851 46.5547 17.9418C46.5547 17.0985 47.2431 16.4272 48.0919 16.4426Z" fill="#FF9500"/>
<path fill-rule="evenodd" clip-rule="evenodd" d="M48.4552 16.7375C48.95 16.7469 49.3518 17.1528 49.3518 17.6444C49.3518 18.136 48.9505 18.5275 48.4552 18.5187C47.9599 18.5098 47.5586 18.1034 47.5586 17.6118C47.5586 17.1196 47.9604 16.7281 48.4552 16.7375Z" fill="#FFD60A"/>
<path fill-rule="evenodd" clip-rule="evenodd" d="M41.0218 18.6233C41.8705 18.6388 42.559 19.3356 42.559 20.1789C42.559 21.0228 41.8705 21.6935 41.0218 21.6781C40.1725 21.6626 39.4846 20.9658 39.4846 20.1225C39.4846 19.2792 40.1731 18.6078 41.0218 18.6233Z" fill="#7F38A3"/>
<path fill-rule="evenodd" clip-rule="evenodd" d="M41.0218 17.845C41.8705 17.8605 42.559 18.5572 42.559 19.4006C42.559 20.2439 41.8705 20.9152 41.0218 20.8997C40.1725 20.8843 39.4846 20.188 39.4846 19.3442C39.4846 18.5003 40.1731 17.8295 41.0218 17.845Z" fill="#FF9500"/>
<path fill-rule="evenodd" clip-rule="evenodd" d="M41.381 18.1378C41.8763 18.1467 42.2776 18.5531 42.2776 19.0448C42.2776 19.5369 41.8763 19.9284 41.381 19.919C40.8856 19.9102 40.4844 19.5037 40.4844 19.0116C40.4849 18.5205 40.8862 18.129 41.381 18.1378Z" fill="#FFD60A"/>
<path fill-rule="evenodd" clip-rule="evenodd" d="M26.877 21.426C27.7258 21.4415 28.4142 22.1383 28.4142 22.9816C28.4142 23.8249 27.7258 24.4963 26.877 24.4808C26.0277 24.4653 25.3398 23.7685 25.3398 22.9252C25.3398 22.0819 26.0283 21.4106 26.877 21.426Z" fill="#7F38A3"/>
<path fill-rule="evenodd" clip-rule="evenodd" d="M26.877 20.6477C27.7258 20.6632 28.4142 21.36 28.4142 22.2033C28.4142 23.0472 27.7258 23.718 26.877 23.7025C26.0277 23.687 25.3398 22.9908 25.3398 22.1469C25.3398 21.303 26.0283 20.6322 26.877 20.6477Z" fill="#FF9500"/>
<path fill-rule="evenodd" clip-rule="evenodd" d="M27.2364 20.9406C27.7318 20.9494 28.133 21.3559 28.133 21.8475C28.133 22.3391 27.7318 22.7306 27.2364 22.7218C26.7411 22.7129 26.3398 22.3065 26.3398 21.8149C26.3404 21.3233 26.7417 20.9317 27.2364 20.9406Z" fill="#FFD60A"/>
<path fill-rule="evenodd" clip-rule="evenodd" d="M19.8028 22.8294C20.6521 22.8448 21.34 23.5416 21.34 24.3849C21.34 25.2288 20.6521 25.8996 19.8028 25.8841C18.9541 25.8686 18.2656 25.1719 18.2656 24.3285C18.2656 23.4847 18.9541 22.8139 19.8028 22.8294Z" fill="#7F38A3"/>
<path fill-rule="evenodd" clip-rule="evenodd" d="M19.8028 22.0491C20.6521 22.0646 21.34 22.7613 21.34 23.6047C21.34 24.448 20.6521 25.1193 19.8028 25.1038C18.9541 25.0884 18.2656 24.3921 18.2656 23.5483C18.2656 22.7049 18.9541 22.0336 19.8028 22.0491Z" fill="#FF9500"/>
<path fill-rule="evenodd" clip-rule="evenodd" d="M20.1622 22.3429C20.657 22.3518 21.0588 22.7582 21.0588 23.2499C21.0588 23.742 20.6576 24.1335 20.1622 24.1241C19.6669 24.1153 19.2656 23.7088 19.2656 23.2172C19.2662 22.7251 19.6675 22.3335 20.1622 22.3429Z" fill="#FFD60A"/>
<path fill-rule="evenodd" clip-rule="evenodd" d="M34.6994 13.8945L33.8178 13.4062L32.4609 16.8072L33.3425 17.296L34.6994 13.8945Z" fill="#FF9500"/>
<path fill-rule="evenodd" clip-rule="evenodd" d="M33.3436 17.2955L32.462 16.8066L29.5117 18.0763L30.3933 18.5646L33.3436 17.2955Z" fill="#FF9500"/>
<path fill-rule="evenodd" clip-rule="evenodd" d="M30.3933 18.5645L29.5117 18.0762L31.6233 19.9868L32.5054 20.4751L30.3933 18.5645Z" fill="#FF9500"/>
<path fill-rule="evenodd" clip-rule="evenodd" d="M32.5048 20.4756L31.6226 19.9873L31.1562 23.501L32.0378 23.9893L32.5048 20.4756Z" fill="#FF9500"/>
<path fill-rule="evenodd" clip-rule="evenodd" d="M39.0076 16.4326L38.126 15.9443L35.1758 16.1357L36.0574 16.624L39.0076 16.4326Z" fill="#FF9500"/>
<path fill-rule="evenodd" clip-rule="evenodd" d="M34.7017 13.8955L33.3448 17.2964L30.3945 18.5661L32.5066 20.4767L32.0397 23.9905L34.7017 21.7707L37.3636 22.6727L36.8967 19.3901L39.0088 16.4338L36.0585 16.6251L34.7017 13.8955Z" fill="#FFD60A"/>
<path fill-rule="evenodd" clip-rule="evenodd" d="M16.8359 56.0162L58.3634 47.3574V53.948L16.8359 62.6069V56.0162Z" fill="#BF5AF2"/>
<path fill-rule="evenodd" clip-rule="evenodd" d="M15.8283 53.3008L52.039 45.7508V44.6719L53.7421 45.3957L58.3603 47.3578L16.8329 56.0166L12.2152 54.054L1.6875 49.5803L5.30061 48.8271L15.8283 53.3008Z" fill="#DB94FF"/>
<path fill-rule="evenodd" clip-rule="evenodd" d="M16.8329 62.607L1.6875 56.1707V49.5801L16.8329 56.0164V62.607Z" fill="#8C3DB3"/>
<path d="M56.5043 55.3243L57.0986 55.655C59.2914 56.8749 61.5048 55.639 61.9356 53.7544C62.3052 52.1363 62.4354 49.5831 62.4426 49.4808L61.5065 49.6561C61.4603 50.2727 61.2216 52.0838 60.6756 53.0532C60.1791 53.9335 59.0549 54.2482 58.1694 53.756L57.5756 53.4253C56.689 52.9321 56.3723 51.8156 56.8682 50.9352C57.4081 49.9768 58.8223 48.7979 59.3215 48.424L58.9575 47.5586C58.874 47.62 56.7619 49.0788 55.6088 50.2345C54.2257 51.6165 54.1462 54.0121 56.5043 55.3243Z" fill="#FFD60A"/>
<path d="M57.5195 47.6642L59.4102 48.7158L60.0099 47.6513L58.1193 46.5997L57.5195 47.6642Z" fill="#FF9500"/>
<path d="M61.2429 49.7387L63.1328 50.79L63.7326 49.7257L61.8427 48.6743L61.2429 49.7387Z" fill="#FF9500"/>
<path d="M55.8448 53.587C55.7185 53.8115 55.7992 54.0957 56.0257 54.2218C56.2522 54.3479 56.5383 54.2677 56.6646 54.0432C56.791 53.8187 56.7103 53.5344 56.4843 53.4083C56.2578 53.2823 55.9717 53.3624 55.8448 53.587Z" fill="#FF9500"/>
<path d="M55.4157 51.5873C55.3133 51.7687 55.3784 51.9987 55.5609 52.1005C55.7435 52.2017 55.975 52.137 56.0769 51.9556C56.1793 51.7742 56.1136 51.5442 55.9316 51.443C55.749 51.3407 55.5181 51.4059 55.4157 51.5873Z" fill="#FF9500"/>
<path d="M56.6455 50.3861C56.7949 50.3861 56.916 50.2658 56.916 50.1174C56.916 49.969 56.7949 49.8486 56.6455 49.8486C56.4961 49.8486 56.375 49.969 56.375 50.1174C56.375 50.2658 56.4961 50.3861 56.6455 50.3861Z" fill="#FF9500"/>
<path d="M56.6455 50.3861C56.7949 50.3861 56.916 50.2658 56.916 50.1174C56.916 49.969 56.7949 49.8486 56.6455 49.8486C56.4961 49.8486 56.375 49.969 56.375 50.1174C56.375 50.2658 56.4961 50.3861 56.6455 50.3861Z" stroke="#FF9500" stroke-width="0.216" stroke-miterlimit="10"/>
<path d="M58.9253 55.3002C58.7984 55.5247 58.5129 55.6049 58.2869 55.4793C58.0609 55.3538 57.9802 55.0696 58.1066 54.8451C58.2329 54.62 58.519 54.5404 58.7455 54.6659C58.9715 54.7909 59.0522 55.0751 58.9253 55.3002Z" fill="#FF9500"/>
<path d="M60.8667 54.6187C60.7643 54.8001 60.5338 54.8653 60.3502 54.7636C60.1676 54.6618 60.1025 54.4318 60.2044 54.2504C60.3068 54.0685 60.5377 54.0043 60.7208 54.1055C60.904 54.2078 60.9691 54.4368 60.8667 54.6187Z" fill="#FF9500"/>
<path d="M61.7223 52.9439C61.6494 53.0739 61.4841 53.1198 61.3533 53.0468C61.2231 52.9743 61.1764 52.8106 61.2493 52.6807C61.3227 52.5507 61.4875 52.5048 61.6177 52.5773C61.749 52.6503 61.7958 52.814 61.7223 52.9439Z" fill="#FF9500"/>
<path d="M56.0542 52.6936L56.4287 53.1056L58.6733 55.5808L52.9676 60.69L51.4882 59.0597L50.0156 57.4234L50.5315 56.9655L55.7342 52.3408L56.0542 52.6936Z" fill="#007347"/>
<path d="M56.2456 52.9055L56.6201 53.3175L58.8653 55.7933L53.159 60.9019L51.6802 59.2716L50.207 57.6353L50.7235 57.1774L55.9261 52.5527L56.2456 52.9055Z" fill="#00A163"/>
<path d="M53.7923 59.6714C53.4923 59.3445 52.9853 59.3169 52.6514 59.6067L51.4531 58.2861C51.7876 57.9853 51.8143 57.4727 51.5116 57.1403L55.2777 53.7676L55.2783 53.7681C55.5771 54.0988 56.0875 54.127 56.422 53.8345L57.6286 55.165C57.2986 55.4614 57.2685 55.9641 57.5579 56.2981L53.7923 59.6714ZM52.3302 58.6931C52.5067 58.8872 52.8083 58.9033 53.0048 58.7285C53.2007 58.5527 53.2168 58.2524 53.0398 58.0577C52.8629 57.8631 52.5612 57.8476 52.3653 58.0234C52.1694 58.1982 52.1538 58.499 52.3302 58.6931ZM56.7337 54.7668C56.5567 54.5722 56.2545 54.5567 56.0591 54.732C55.8627 54.9079 55.8471 55.2081 56.0241 55.4022C56.2005 55.5974 56.5032 55.6129 56.6986 55.4376C56.8951 55.2623 56.9101 54.9615 56.7337 54.7668ZM55.7174 55.6776C55.1325 55.0334 54.134 54.9814 53.4862 55.5626C52.8384 56.1421 52.7861 57.1348 53.3699 57.779C53.9537 58.4233 54.9533 58.4747 55.6016 57.8946C56.2495 57.3139 56.3012 56.3213 55.7174 55.6776Z" fill="#01D180"/>
<path d="M53.367 57.7786C52.7832 57.1343 52.8349 56.1422 53.4833 55.5621C54.1311 54.9815 55.1301 55.0329 55.7145 55.6772C56.2978 56.3209 56.2466 57.3135 55.5982 57.8941C54.9504 58.4737 53.9508 58.4228 53.367 57.7786ZM55.3639 57.6348L55.4763 57.5341L55.2704 57.3063C55.2949 57.2698 55.3149 57.2316 55.3288 57.1891C55.3589 57.105 55.365 57.0171 55.3472 56.9286C55.33 56.8401 55.2893 56.7583 55.2281 56.6825L54.9715 56.9109C55.0072 56.9574 55.0227 57.0049 55.0177 57.0541C55.0133 57.1017 54.991 57.1437 54.9521 57.1808C54.9498 57.1819 54.9487 57.1835 54.9476 57.1852C54.9075 57.22 54.8647 57.2355 54.8168 57.2322C54.7689 57.2278 54.7267 57.2051 54.6899 57.1647C54.6532 57.1255 54.6365 57.0829 54.6393 57.0359C54.6421 56.9983 54.6582 56.9485 54.6871 56.8893C54.6938 56.8761 54.6999 56.8633 54.7077 56.849L54.7478 56.7782C54.809 56.6665 54.8463 56.5714 54.8591 56.4928C54.8836 56.3319 54.8407 56.1903 54.7305 56.0687C54.6593 55.9902 54.5747 55.936 54.4768 55.9045C54.3788 55.8746 54.2797 55.8696 54.179 55.8917C54.1267 55.9028 54.0788 55.9205 54.0332 55.9443L53.8289 55.7192L53.7165 55.8198L53.6174 55.9083L53.8189 56.1306C53.7516 56.2224 53.7143 56.328 53.7098 56.4464C53.7059 56.5194 53.7165 56.5885 53.7416 56.6521C53.7583 56.7057 53.7922 56.7644 53.844 56.8274L54.1033 56.5951C54.0599 56.5393 54.0404 56.4823 54.0454 56.4232C54.051 56.3668 54.0788 56.3159 54.1261 56.27C54.1289 56.2672 54.1311 56.2645 54.1345 56.2617C54.1862 56.2158 54.243 56.1937 54.3059 56.1959C54.3682 56.1986 54.4222 56.2246 54.4667 56.2739C54.5191 56.3319 54.5408 56.3961 54.5313 56.4674C54.5252 56.5155 54.5035 56.5758 54.4667 56.646C54.4573 56.6648 54.4473 56.6836 54.435 56.7041C54.4144 56.7389 54.4016 56.7616 54.3972 56.7688C54.366 56.8291 54.3449 56.8794 54.3326 56.9198C54.3092 57.001 54.3081 57.0829 54.327 57.1669C54.3471 57.251 54.386 57.3251 54.4428 57.3876C54.5046 57.4556 54.5786 57.5026 54.666 57.5292C54.7534 57.5557 54.8424 57.5585 54.9331 57.5375C54.9765 57.5286 55.0166 57.5131 55.055 57.4938L55.2626 57.7222L55.3639 57.6348Z" fill="#00A163"/>
<path d="M54.9379 57.5395C54.8472 57.56 54.7581 57.5577 54.6707 57.5306C54.5834 57.5047 54.5093 57.4571 54.447 57.3896C54.3902 57.3266 54.3513 57.253 54.3313 57.169C54.3123 57.0849 54.3134 57.0031 54.3368 56.9218C54.3485 56.8814 54.3697 56.8311 54.4008 56.7708C54.4058 56.7631 54.4181 56.741 54.4387 56.7061C54.4509 56.6857 54.4609 56.6669 54.4709 56.6481C54.5077 56.5778 54.5288 56.5176 54.5349 56.4695C54.545 56.3981 54.5233 56.334 54.4704 56.2759C54.4259 56.2267 54.3719 56.2007 54.3095 56.1979C54.2472 56.1957 54.1899 56.2178 54.1381 56.2637C54.1353 56.2665 54.1326 56.2693 54.1298 56.272C54.0825 56.3185 54.0552 56.3688 54.0491 56.4252C54.0441 56.4844 54.0636 56.5413 54.1075 56.5972L53.8476 56.8295C53.7958 56.7659 53.7613 56.7078 53.7452 56.6542C53.7202 56.59 53.7101 56.5214 53.7135 56.4479C53.7179 56.3295 53.7552 56.2234 53.8226 56.1316L53.6211 55.9098L53.7207 55.8213L53.8331 55.7207L54.0374 55.9458C54.083 55.9214 54.1315 55.9043 54.1832 55.8927C54.2834 55.8711 54.383 55.8761 54.4804 55.906C54.5784 55.9369 54.663 55.9911 54.7342 56.0696C54.8444 56.1919 54.8872 56.3329 54.8628 56.4938C54.8494 56.5723 54.8127 56.6674 54.7509 56.7791L54.7108 56.8499C54.703 56.8643 54.6969 56.877 54.6908 56.8897C54.6618 56.9495 54.6451 56.9987 54.6424 57.0363C54.6396 57.0833 54.6563 57.1259 54.693 57.1651C54.7297 57.206 54.7726 57.2287 54.8199 57.2326C54.8678 57.2365 54.9112 57.221 54.9512 57.1861C54.9524 57.1845 54.9529 57.1828 54.9551 57.1817C54.9941 57.1447 55.0164 57.1021 55.0208 57.0551C55.0258 57.0059 55.0102 56.9583 54.9746 56.9119L55.2306 56.6835C55.2919 56.7592 55.3319 56.8411 55.3497 56.9295C55.3675 57.018 55.3614 57.106 55.3314 57.19C55.3169 57.232 55.2974 57.2707 55.2729 57.3072L55.4789 57.5345L55.3664 57.6352L55.2668 57.7242L55.0592 57.4958C55.0214 57.5146 54.9807 57.5301 54.9379 57.5395Z" fill="white"/>
<path d="M50.7168 57.1781L55.93 52.5439L56.25 52.8973L56.6251 53.3104L58.8747 55.7906L53.1573 60.9097L51.6752 59.2767L50.1992 57.637L50.7168 57.1781ZM51.5116 57.1388C51.8138 57.4711 51.7871 57.9838 51.4531 58.2846L52.6514 59.6051C52.9853 59.3154 53.4923 59.3425 53.7923 59.6698L57.5585 56.2966C57.2691 55.9631 57.2986 55.4604 57.6291 55.164L56.422 53.8335C56.0869 54.1255 55.5766 54.0968 55.2783 53.7672L55.2777 53.7666L51.5116 57.1388Z" fill="#00A163"/>
<path d="M31.2096 52.9421L31.7845 52.3664L35.234 48.9141L43.1921 56.7644L40.9208 59.0389L38.6395 61.3056L37.9255 60.5945L30.7188 53.4343L31.2096 52.9421Z" fill="#007347"/>
<path d="M31.5076 52.6477L32.082 52.0715L35.5315 48.6191L43.4895 56.4695L41.2183 58.7434L38.937 61.0107L38.2229 60.2995L31.0156 53.1388L31.5076 52.6477Z" fill="#00A163"/>
<path d="M41.6339 55.6559C41.1786 56.1166 41.1792 56.8537 41.6311 57.3138L39.7912 59.1564C39.3231 58.6963 38.5684 58.6991 38.1054 59.1642L32.8516 53.9831L32.8521 53.9826C33.3124 53.523 33.3129 52.7815 32.8571 52.3203L34.711 50.4639C35.1729 50.9184 35.9131 50.9206 36.379 50.4744L41.6339 55.6559ZM40.3177 57.8524C40.5881 57.5815 40.5876 57.143 40.3149 56.8731C40.0411 56.6032 39.5992 56.6043 39.3281 56.877C39.0565 57.149 39.0588 57.5876 39.332 57.8569C39.6047 58.1256 40.0466 58.124 40.3177 57.8524ZM34.1995 51.7933C33.9279 52.0653 33.9302 52.5044 34.2029 52.7732C34.4767 53.043 34.918 53.0414 35.1891 52.7699C35.4612 52.4983 35.459 52.0587 35.1863 51.79C34.9136 51.519 34.4711 51.5217 34.1995 51.7933ZM35.6187 53.1912C34.721 54.0904 34.726 55.5415 35.631 56.4324C36.5342 57.3243 37.9946 57.3188 38.8918 56.4207C39.7901 55.5227 39.7839 54.0711 38.8807 53.1791C37.9763 52.2877 36.5159 52.2937 35.6187 53.1912Z" fill="#01D180"/>
<path d="M38.892 56.4192C37.9942 57.3172 36.5344 57.3227 35.6311 56.4308C34.7268 55.5393 34.7212 54.0883 35.6189 53.1896C36.5161 52.2921 37.9764 52.2861 38.8808 53.1775C39.7841 54.0695 39.7897 55.5211 38.892 56.4192ZM38.5196 53.5386L38.3627 53.3838L38.0454 53.7006C37.9903 53.668 37.9319 53.6426 37.869 53.6249C37.7427 53.5884 37.6136 53.5861 37.485 53.6193C37.3564 53.652 37.2396 53.7172 37.1338 53.8112L37.4895 54.164C37.5546 54.1087 37.623 54.0822 37.6954 54.0855C37.7655 54.0883 37.8289 54.117 37.8868 54.1707C37.8885 54.1734 37.8907 54.1751 37.8935 54.1762C37.9481 54.2315 37.9742 54.2923 37.9731 54.362C37.9703 54.4311 37.9408 54.4953 37.884 54.5517C37.8295 54.6081 37.7683 54.6352 37.6993 54.6352C37.6436 54.6346 37.5702 54.6147 37.4806 54.5771C37.4605 54.5688 37.441 54.5605 37.4199 54.5506L37.313 54.4986C37.1444 54.4184 37.0014 54.3731 36.8856 54.3603C36.648 54.3377 36.4437 54.4118 36.274 54.581C36.1643 54.6905 36.092 54.8177 36.0536 54.962C36.0174 55.1063 36.0185 55.2501 36.0586 55.3939C36.0792 55.4685 36.1087 55.5366 36.1476 55.6013L35.8337 55.9148L35.9907 56.0697L36.1287 56.2062L36.4387 55.8966C36.5789 55.9867 36.7364 56.0321 36.9112 56.0293C37.0192 56.0287 37.1194 56.0083 37.2106 55.9662C37.288 55.938 37.3709 55.8839 37.4594 55.8037L37.0976 55.4464C37.0192 55.5139 36.9374 55.5465 36.85 55.5443C36.7665 55.5404 36.6903 55.5045 36.6185 55.4398C36.614 55.4354 36.6101 55.4326 36.6051 55.4282C36.5339 55.3568 36.4971 55.2761 36.4949 55.186C36.4944 55.0953 36.5277 55.0151 36.5962 54.946C36.6769 54.8652 36.7693 54.8293 36.875 54.837C36.9463 54.842 37.0359 54.868 37.1422 54.9161C37.1711 54.9283 37.1989 54.941 37.2301 54.9576C37.2835 54.9841 37.3169 55.0013 37.3286 55.0068C37.4193 55.0472 37.4945 55.0737 37.5551 55.0881C37.6765 55.1152 37.7967 55.1102 37.918 55.0759C38.0399 55.04 38.1451 54.978 38.2324 54.8901C38.3271 54.7956 38.39 54.6838 38.4217 54.5556C38.4534 54.4267 38.4501 54.2973 38.4122 54.1679C38.3955 54.106 38.3699 54.049 38.3387 53.9948L38.6571 53.6757L38.5196 53.5386Z" fill="#00A163"/>
<path d="M38.4116 54.1685C38.4495 54.2979 38.4528 54.4278 38.4205 54.5561C38.3894 54.685 38.3254 54.7961 38.2313 54.8913C38.1434 54.9786 38.0387 55.0411 37.9169 55.0771C37.7955 55.1113 37.6753 55.1169 37.5534 55.0892C37.4928 55.0754 37.4176 55.0489 37.3269 55.0085C37.3152 55.0024 37.2813 54.9858 37.2284 54.9593C37.1972 54.9432 37.1689 54.9305 37.1405 54.9178C37.0342 54.8702 36.944 54.8448 36.8733 54.8393C36.7681 54.831 36.6758 54.8675 36.5951 54.9488C36.5266 55.0173 36.4927 55.0981 36.4932 55.1882C36.4949 55.2784 36.5322 55.3596 36.6034 55.431C36.6079 55.4348 36.6123 55.4382 36.6162 55.4426C36.688 55.5073 36.7637 55.5432 36.8477 55.5466C36.9351 55.5488 37.0175 55.5161 37.096 55.4481L37.4577 55.8054C37.3692 55.8855 37.2863 55.9397 37.2089 55.9679C37.1171 56.01 37.0169 56.0299 36.9095 56.0304C36.7348 56.0332 36.5772 55.9884 36.4364 55.8977L36.127 56.2079L35.989 56.0713L35.832 55.9165L36.1459 55.6024C36.107 55.5383 36.078 55.4697 36.0569 55.395C36.0174 55.2518 36.0168 55.1069 36.0524 54.9637C36.0903 54.8194 36.1632 54.6922 36.2723 54.5827C36.442 54.4135 36.6463 54.3394 36.8834 54.362C36.9997 54.3748 37.1421 54.4201 37.3113 54.5003L37.4182 54.5528C37.4393 54.5628 37.4588 54.5711 37.4783 54.5794C37.5685 54.617 37.6419 54.6363 37.6976 54.6374C37.7666 54.6374 37.8278 54.6098 37.8824 54.5539C37.9391 54.4975 37.9686 54.4339 37.9709 54.3642C37.9725 54.2946 37.9464 54.2332 37.8918 54.1779C37.8896 54.1768 37.8868 54.1757 37.8851 54.1724C37.8278 54.1187 37.7638 54.09 37.6942 54.0872C37.6219 54.0844 37.5534 54.1104 37.4878 54.1657L37.1321 53.8118C37.2379 53.7172 37.3547 53.6525 37.4833 53.6199C37.6119 53.5867 37.741 53.5884 37.8673 53.6254C37.9302 53.6426 37.9881 53.668 38.0438 53.7001L38.361 53.3838L38.5179 53.5386L38.6565 53.6758L38.3382 53.9948C38.3688 54.049 38.3944 54.1066 38.4116 54.1685Z" fill="white"/>
<path d="M38.2257 60.3116L31.0039 53.137L31.4965 52.6443L32.0725 52.067L35.5286 48.6074L43.5029 56.4738L41.2266 58.7527L38.9408 61.0239L38.2257 60.3116ZM38.1038 59.1636C38.5668 58.6985 39.321 58.6957 39.7901 59.1558L41.6301 57.3132C41.1776 56.8532 41.1765 56.1166 41.6323 55.6554L36.3779 50.4738C35.9121 50.9201 35.1719 50.9178 34.7105 50.4633L32.8567 52.3197C33.3125 52.7809 33.3119 53.523 32.8516 53.982L32.8505 53.9825L38.1038 59.1636Z" fill="#00A163"/>
<path d="M44.3324 41.5909L45.1372 41.7236L49.9669 42.5216L48.1275 53.5129L44.9457 52.9882L41.7656 52.4506L41.9365 51.4608L43.6445 41.4775L44.3324 41.5909Z" fill="#007347"/>
<path d="M44.7459 41.6623L45.5513 41.7945L50.381 42.5925L48.541 53.5844L45.3604 53.059L42.1797 52.5221L42.35 51.5322L44.058 41.5479L44.7459 41.6623Z" fill="#00A163"/>
<path d="M48.1361 51.607C47.4944 51.5047 46.89 51.9317 46.7737 52.5643L44.1968 52.139C44.3031 51.4937 43.8646 50.8837 43.2151 50.7776L44.4284 43.5222H44.4295C45.0728 43.6295 45.6823 43.201 45.7969 42.5645L48.3932 42.993C48.2875 43.6301 48.7138 44.2312 49.3499 44.3506L48.1361 51.607ZM45.5715 51.8106C45.9505 51.873 46.3101 51.6187 46.3741 51.2415C46.4369 50.8633 46.1804 50.5066 45.7997 50.4441C45.4196 50.3811 45.0612 50.6371 44.9977 51.0142C44.9348 51.3908 45.1914 51.7481 45.5715 51.8106ZM47.0057 43.3469C46.6256 43.2845 46.2661 43.5399 46.2032 43.9165C46.1397 44.2948 46.3969 44.6515 46.7764 44.714C47.1566 44.7775 47.5161 44.5215 47.579 44.1449C47.6435 43.7667 47.3859 43.41 47.0057 43.3469ZM46.679 45.3057C45.4218 45.0983 44.2336 45.9422 44.0254 47.1908C43.8162 48.4389 44.6655 49.619 45.9216 49.827C47.1783 50.0349 48.3665 49.1905 48.5763 47.9423C48.7845 46.6937 47.9352 45.5136 46.679 45.3057Z" fill="#01D180"/>
<path d="M45.9202 49.8251C44.6635 49.6172 43.8142 48.4371 44.024 47.189C44.2322 45.9403 45.4204 45.0964 46.6777 45.3038C47.9332 45.5117 48.7836 46.6918 48.5749 47.9405C48.3651 49.1886 47.1769 50.033 45.9202 49.8251ZM48.0696 47.857L48.1058 47.6402L47.6622 47.5667C47.6572 47.5031 47.6444 47.4411 47.6221 47.3797C47.5793 47.2564 47.5058 47.1502 47.4045 47.0656C47.3032 46.9799 47.1824 46.923 47.0439 46.892L46.9604 47.3847C47.0433 47.4052 47.1045 47.4455 47.144 47.5058C47.1824 47.5644 47.1952 47.6325 47.1847 47.7099C47.183 47.7126 47.1836 47.716 47.1841 47.7187C47.1702 47.7945 47.1357 47.8514 47.0778 47.8907C47.0194 47.9283 46.9498 47.9416 46.8708 47.9283C46.7929 47.9167 46.7355 47.883 46.6949 47.8271C46.6637 47.7818 46.637 47.7104 46.6159 47.6159C46.6109 47.5949 46.6064 47.5744 46.6025 47.5517L46.5836 47.435C46.5513 47.252 46.5068 47.1099 46.45 47.0087C46.3309 46.803 46.1517 46.6802 45.9146 46.6404C45.7616 46.6149 45.6152 46.6299 45.4744 46.6824C45.3353 46.7366 45.2173 46.8207 45.1227 46.9362C45.0731 46.996 45.0342 47.0596 45.0041 47.1281L44.565 47.0551L44.5288 47.2719L44.4965 47.4627L44.9301 47.5346C44.9368 47.7005 44.9913 47.8542 45.0948 47.9941C45.1577 48.0809 45.2323 48.1506 45.3197 48.2004C45.387 48.2468 45.48 48.2828 45.5968 48.3082L45.6803 47.8083C45.5796 47.784 45.5056 47.7364 45.4566 47.664C45.4115 47.5943 45.3965 47.5119 45.4082 47.4162C45.4087 47.4102 45.4093 47.4052 45.4098 47.3985C45.4271 47.2996 45.4716 47.2227 45.5451 47.169C45.6191 47.116 45.7043 47.0972 45.8005 47.1126C45.9135 47.1314 45.997 47.1856 46.051 47.2752C46.0877 47.3361 46.1189 47.424 46.1406 47.5373C46.1473 47.5678 46.1528 47.5976 46.1578 47.6325C46.1667 47.6911 46.1723 47.7287 46.174 47.7408C46.1935 47.8376 46.2152 47.9145 46.2385 47.9714C46.2864 48.0859 46.3604 48.1805 46.4589 48.2584C46.5586 48.3364 46.6704 48.3856 46.7934 48.4061C46.9259 48.4277 47.0539 48.4144 47.178 48.3657C47.3021 48.3171 47.4062 48.2396 47.4913 48.134C47.532 48.0843 47.5648 48.0312 47.5904 47.9742L48.0367 48.0478L48.0696 47.857Z" fill="#00A163"/>
<path d="M47.4925 48.136C47.4079 48.2416 47.3033 48.3191 47.1792 48.3672C47.0551 48.4164 46.9271 48.4291 46.7946 48.4081C46.6716 48.3876 46.5603 48.3384 46.4602 48.2604C46.3616 48.1819 46.2876 48.0873 46.2403 47.9729C46.2164 47.9159 46.1947 47.8391 46.1752 47.7423C46.1735 47.729 46.168 47.692 46.1585 47.6339C46.154 47.5996 46.1479 47.5686 46.1418 47.5388C46.119 47.4254 46.0884 47.3369 46.0516 47.2767C45.9977 47.1865 45.9142 47.1329 45.8006 47.1141C45.7044 47.098 45.6192 47.1174 45.5452 47.1705C45.4717 47.2241 45.4272 47.301 45.4099 47.4C45.4094 47.4061 45.4088 47.4116 45.4083 47.4171C45.3966 47.5128 45.4111 47.5952 45.4567 47.6649C45.5057 47.7367 45.5797 47.7849 45.681 47.8086L45.5969 48.3086C45.4795 48.2831 45.3871 48.2472 45.3192 48.2013C45.2313 48.1509 45.1573 48.0813 45.0944 47.9944C44.9909 47.8545 44.9369 47.7008 44.9296 47.5344L44.4961 47.463L44.5284 47.2722L44.5645 47.0555L45.0042 47.1279C45.0343 47.0593 45.0738 46.9957 45.1228 46.9355C45.2174 46.8204 45.3354 46.7358 45.4745 46.6822C45.6148 46.6291 45.7611 46.6147 45.9147 46.6402C46.1518 46.68 46.3305 46.8022 46.4496 47.0079C46.5063 47.1096 46.5514 47.2512 46.5837 47.4348L46.6026 47.552C46.6065 47.5747 46.6115 47.5957 46.616 47.6162C46.6371 47.7108 46.6638 47.7821 46.695 47.8274C46.7351 47.8833 46.793 47.917 46.8709 47.9286C46.9505 47.9419 47.0195 47.9292 47.0779 47.891C47.1358 47.8523 47.1714 47.7948 47.1853 47.7191C47.1848 47.7163 47.1842 47.7135 47.1859 47.7108C47.1965 47.6333 47.1831 47.5648 47.1453 47.5067C47.1057 47.4464 47.0445 47.4061 46.9616 47.385L47.0451 46.8929C47.1842 46.9238 47.305 46.9808 47.4057 47.0665C47.5076 47.1511 47.5805 47.2573 47.6233 47.3806C47.645 47.4414 47.6584 47.5034 47.664 47.567L48.107 47.6405L48.0702 47.8573L48.038 48.0486L47.5916 47.9751C47.5655 48.0326 47.5332 48.0862 47.4925 48.136Z" fill="white"/>
<path d="M42.3427 51.5389L44.0541 41.5352L44.7431 41.6491L45.5501 41.7818L50.3899 42.5814L48.546 53.5949L45.3587 53.069L42.1719 52.5309L42.3427 51.5389ZM43.2148 50.7757C43.8643 50.8819 44.3035 51.4918 44.1972 52.1377L46.7745 52.563C46.8903 51.9298 47.4941 51.5029 48.1364 51.6058L49.3497 44.3494C48.7135 44.2299 48.2878 43.6288 48.3935 42.9917L45.7972 42.5632C45.6826 43.1997 45.0732 43.6282 44.4298 43.521L44.4287 43.5204L43.2148 50.7757Z" fill="#00A163"/>
<path fill-rule="evenodd" clip-rule="evenodd" d="M26.7157 59.6387C25.6132 59.6387 24.6247 59.9135 23.9552 60.3482H23.0664V61.6897C23.0664 62.8223 24.7004 63.7402 26.7157 63.7402C28.731 63.7402 30.365 62.8223 30.365 61.6897V60.3482H29.4762C28.8072 59.9135 27.8188 59.6387 26.7157 59.6387Z" fill="#FF9500"/>
<path fill-rule="evenodd" clip-rule="evenodd" d="M24.3555 63.2532C24.6755 63.4058 25.0428 63.528 25.4435 63.6121V60.4346H24.3555V63.2532Z" fill="#FFB71C"/>
<path fill-rule="evenodd" clip-rule="evenodd" d="M28.1406 63.5779C29.4491 63.266 30.3668 62.5377 30.3668 61.6888V60.3473H29.478C29.1151 60.1117 28.6588 59.9231 28.1406 59.7998V63.5779Z" fill="#FFB71C"/>
<path fill-rule="evenodd" clip-rule="evenodd" d="M26.7157 58.2979C24.7004 58.2979 23.0664 59.2158 23.0664 60.3484C23.0664 61.4809 24.7004 62.3989 26.7157 62.3989C28.731 62.3989 30.365 61.4809 30.365 60.3484C30.365 59.2158 28.731 58.2979 26.7157 58.2979Z" fill="#FFD60A"/>
<path fill-rule="evenodd" clip-rule="evenodd" d="M26.7171 59.0723C25.3352 59.0723 24.2148 59.6441 24.2148 60.3486C24.2148 61.0536 25.3352 61.6254 26.7171 61.6254C28.099 61.6254 29.2188 61.0536 29.2188 60.3486C29.2193 59.6441 28.099 59.0723 26.7171 59.0723Z" fill="#FFB71C"/>
<path fill-rule="evenodd" clip-rule="evenodd" d="M14.0323 57.4287C12.5129 57.4287 11.1511 57.8075 10.2289 58.4059H9.00391V60.254C9.00391 61.8145 11.2551 63.0792 14.0318 63.0792C16.8084 63.0792 19.0596 61.814 19.0596 60.254V58.4059H17.8352C16.9141 57.8075 15.5517 57.4287 14.0323 57.4287Z" fill="#FF9500"/>
<path fill-rule="evenodd" clip-rule="evenodd" d="M10.7812 62.4087C11.2226 62.6194 11.7285 62.7875 12.2806 62.9031V58.5244H10.7812V62.4087Z" fill="#FFB71C"/>
<path fill-rule="evenodd" clip-rule="evenodd" d="M15.9922 62.8562C17.7948 62.427 19.0593 61.4234 19.0593 60.2538V58.4057H17.8349C17.3351 58.081 16.7057 57.8211 15.9922 57.6514V62.8562Z" fill="#FFB71C"/>
<path fill-rule="evenodd" clip-rule="evenodd" d="M14.0318 55.5811C11.2546 55.5811 9.00391 56.8458 9.00391 58.4063C9.00391 59.9669 11.2551 61.2321 14.0318 61.2321C16.8084 61.2321 19.0596 59.9669 19.0596 58.4063C19.0596 56.8458 16.8089 55.5811 14.0318 55.5811Z" fill="#FFD60A"/>
<path fill-rule="evenodd" clip-rule="evenodd" d="M14.0298 56.6465C12.1259 56.6465 10.582 57.434 10.582 58.4056C10.582 59.3772 12.1253 60.1646 14.0298 60.1646C15.9338 60.1646 17.4771 59.3772 17.4771 58.4056C17.4777 57.434 15.9338 56.6465 14.0298 56.6465Z" fill="#FFB71C"/>
<path fill-rule="evenodd" clip-rule="evenodd" d="M48.6253 57.7334C47.5862 57.7334 46.6551 57.9922 46.0245 58.4014H45.1875V59.665C45.1875 60.7323 46.7269 61.5972 48.6253 61.5972C50.5242 61.5972 52.0631 60.7323 52.0631 59.665V58.4014H51.2255C50.596 57.9928 49.6644 57.7334 48.6253 57.7334Z" fill="#FF9500"/>
<path fill-rule="evenodd" clip-rule="evenodd" d="M46.4023 61.1394C46.704 61.2832 47.0502 61.3988 47.4281 61.4773V58.4834H46.4023V61.1394Z" fill="#FFB71C"/>
<path fill-rule="evenodd" clip-rule="evenodd" d="M49.9648 61.4448C51.1976 61.1512 52.0619 60.4649 52.0619 59.6653V58.4017H51.2243C50.8826 58.1799 50.4524 58.0019 49.9648 57.8857V61.4448Z" fill="#FFB71C"/>
<path fill-rule="evenodd" clip-rule="evenodd" d="M48.6253 56.4717C46.7264 56.4717 45.1875 57.3366 45.1875 58.4039C45.1875 59.4711 46.7269 60.336 48.6253 60.336C50.5242 60.336 52.0631 59.4711 52.0631 58.4039C52.0637 57.3366 50.5242 56.4717 48.6253 56.4717Z" fill="#FFD60A"/>
<path fill-rule="evenodd" clip-rule="evenodd" d="M48.6226 57.2002C47.3208 57.2002 46.2656 57.7388 46.2656 58.403C46.2656 59.0671 47.3208 59.6057 48.6226 59.6057C49.9244 59.6057 50.9801 59.0671 50.9801 58.403C50.9801 57.7388 49.9249 57.2002 48.6226 57.2002Z" fill="#FFB71C"/>
<path fill-rule="evenodd" clip-rule="evenodd" d="M51.1132 9.66631L50.801 10.6761C50.5572 11.4652 49.9856 12.0331 49.1909 12.2759L48.1746 12.5861C48.036 12.6282 47.9453 12.7504 47.9453 12.8941C47.9453 13.0379 48.036 13.1601 48.1746 13.2027L49.1909 13.513C49.9851 13.7552 50.5572 14.3236 50.801 15.1128L51.1132 16.1225C51.1555 16.2602 51.2785 16.3504 51.4232 16.3504C51.5679 16.3504 51.6909 16.2602 51.7337 16.1225L52.046 15.1128C52.2897 14.3236 52.8619 13.7557 53.6561 13.513L54.6723 13.2027C54.8109 13.1607 54.9016 13.0385 54.9016 12.8941C54.9016 12.7504 54.8109 12.6282 54.6723 12.5861L53.6561 12.2759C52.8619 12.0337 52.2897 11.4652 52.046 10.6761L51.7337 9.66631C51.6909 9.52862 51.5684 9.43848 51.4232 9.43848C51.2785 9.43848 51.1555 9.52862 51.1132 9.66631Z" fill="#FF9500"/>
<path fill-rule="evenodd" clip-rule="evenodd" d="M51.5642 10.4967L51.3577 11.1647C51.1963 11.6873 50.8178 12.0628 50.2924 12.2231L49.6201 12.4283C49.5289 12.4565 49.4688 12.5372 49.4688 12.6323C49.4688 12.7275 49.5289 12.8082 49.6201 12.8364L50.2924 13.0416C50.8178 13.2019 51.1963 13.578 51.3577 14.1L51.5642 14.768C51.5925 14.8593 51.6738 14.919 51.7695 14.919C51.8652 14.919 51.9465 14.8593 51.9749 14.768L52.1814 14.1C52.3428 13.5774 52.7212 13.2019 53.2466 13.0416L53.9189 12.8364C54.0102 12.8082 54.0703 12.7275 54.0703 12.6323C54.0703 12.5372 54.0102 12.4565 53.9189 12.4283L53.2466 12.2231C52.7212 12.0628 52.3428 11.6867 52.1814 11.1647L51.9743 10.4967C51.9465 10.4054 51.8652 10.3457 51.769 10.3457C51.6727 10.3457 51.592 10.4054 51.5642 10.4967Z" fill="#FFD60A"/>
<path fill-rule="evenodd" clip-rule="evenodd" d="M14.4759 1.15752L14.1637 2.16729C13.9199 2.95642 13.3478 3.52434 12.5536 3.76711L11.5379 4.07734C11.3993 4.11992 11.3086 4.24158 11.3086 4.38591C11.3086 4.52969 11.3993 4.6519 11.5379 4.69448L12.5536 5.00472C13.3478 5.24693 13.9199 5.81541 14.1637 6.60453L14.4759 7.6143C14.5188 7.752 14.6412 7.84214 14.7865 7.84214C14.9312 7.84214 15.0542 7.752 15.0965 7.6143L15.4087 6.60453C15.6525 5.81541 16.224 5.24748 17.0188 5.00472L18.035 4.69448C18.1736 4.6519 18.2643 4.53024 18.2643 4.38591C18.2643 4.24213 18.1736 4.11992 18.035 4.07734L17.0188 3.76656C16.2246 3.52379 15.6525 2.95586 15.4087 2.16674L15.0965 1.15697C15.0536 1.01983 14.9306 0.929688 14.7859 0.929688C14.6412 0.929688 14.5182 1.01983 14.4759 1.15752Z" fill="#FF9500"/>
<path fill-rule="evenodd" clip-rule="evenodd" d="M14.9241 1.98691L14.7176 2.65492C14.5562 3.17695 14.1778 3.55299 13.6524 3.71336L12.9801 3.91852C12.8882 3.94672 12.8281 4.02746 12.8281 4.12258C12.8281 4.21769 12.8882 4.29843 12.9801 4.32663L13.6524 4.53179C14.1778 4.69216 14.5562 5.0682 14.7176 5.59023L14.9241 6.25825C14.9519 6.34949 15.0337 6.40922 15.1295 6.40922C15.2252 6.40922 15.3064 6.34949 15.3348 6.25825L15.5413 5.59023C15.7027 5.0682 16.0812 4.69216 16.6065 4.53179L17.2788 4.32663C17.3707 4.29843 17.4308 4.21769 17.4308 4.12258C17.4308 4.02746 17.3707 3.94672 17.2788 3.91852L16.606 3.71336C16.0806 3.55299 15.7021 3.17695 15.5407 2.65492L15.3343 1.98691C15.3059 1.89566 15.2246 1.83594 15.1289 1.83594C15.0332 1.83594 14.9519 1.89566 14.9241 1.98691Z" fill="#FFD60A"/>
<path fill-rule="evenodd" clip-rule="evenodd" d="M15.5235 47.1022L15.3393 47.6972C15.1957 48.1622 14.8584 48.4974 14.3903 48.64L13.7915 48.8225C13.7097 48.8474 13.6562 48.9193 13.6562 49.0045C13.6562 49.0896 13.7097 49.1615 13.7915 49.1864L14.3903 49.3694C14.8584 49.5121 15.1957 49.8472 15.3393 50.3123L15.5235 50.9073C15.5485 50.9886 15.6209 51.0417 15.7066 51.0417C15.7917 51.0417 15.8646 50.9886 15.8897 50.9073L16.0739 50.3123C16.218 49.8472 16.5548 49.5121 17.0228 49.3694L17.6217 49.1864C17.7029 49.1615 17.7569 49.0896 17.7569 49.0045C17.7569 48.9198 17.7035 48.848 17.6217 48.8225L17.0228 48.64C16.5548 48.4968 16.2175 48.1622 16.0739 47.6972L15.8897 47.1022C15.8646 47.0209 15.7923 46.9678 15.7066 46.9678C15.6209 46.9678 15.5485 47.0209 15.5235 47.1022Z" fill="#FFB71C"/>
<path fill-rule="evenodd" clip-rule="evenodd" d="M15.7863 47.59L15.6644 47.9837C15.5693 48.2918 15.3461 48.513 15.0366 48.6075L14.6404 48.7286C14.5864 48.7452 14.5508 48.7928 14.5508 48.8486C14.5508 48.905 14.5864 48.9526 14.6404 48.9692L15.0366 49.0903C15.3466 49.1849 15.5693 49.4066 15.6644 49.7141L15.7863 50.1078C15.803 50.1614 15.8509 50.1968 15.9071 50.1968C15.9633 50.1968 16.0117 50.1614 16.0279 50.1078L16.1497 49.7141C16.2449 49.4061 16.4681 49.1849 16.7775 49.0903L17.1738 48.9692C17.2278 48.9526 17.2634 48.905 17.2634 48.8486C17.2634 48.7922 17.2283 48.7447 17.1738 48.7286L16.7775 48.6075C16.4675 48.513 16.2449 48.2918 16.1497 47.9837L16.0279 47.59C16.0112 47.5364 15.9633 47.501 15.9071 47.501C15.8509 47.501 15.803 47.5364 15.7863 47.59Z" fill="#FFD60A"/>
<path d="M59.3409 42.3294H60.1735V37.0931C60.1735 35.1449 58.5785 33.5605 56.6172 33.5605C54.657 33.5605 53.0625 35.1454 53.0625 37.0931V39.4389H53.894V37.0931C53.894 35.6011 55.1156 34.3873 56.6172 34.3873C58.1193 34.3873 59.3415 35.6011 59.3415 37.0931V42.3294H59.3409Z" fill="#FFD60A"/>
<path d="M62.6325 41.9532C62.6325 43.5298 61.3469 44.8078 59.7596 44.8078C58.1723 44.8078 56.8867 43.5298 56.8867 41.9532C56.8867 40.3766 58.1723 39.0986 59.7596 39.0986C61.3469 39.0992 62.6325 40.3772 62.6325 41.9532Z" fill="#FF453A"/>
<path d="M59.7812 41.3649C59.7812 41.8986 60.2154 42.3305 60.7535 42.3305C61.2901 42.3305 61.7242 41.8986 61.7242 41.3649C61.7242 40.8319 61.2901 40.3994 60.7535 40.3994C60.2154 40.3989 59.7812 40.8313 59.7812 41.3649Z" fill="white"/>
<path d="M56.3513 39.2696C56.3513 40.8456 55.0651 42.1242 53.4784 42.1242V42.1236V42.1242C51.8917 42.1242 50.6055 40.8456 50.6055 39.2696C50.6055 37.6925 51.8917 36.415 53.4784 36.415V36.4156C55.0651 36.415 56.3513 37.6925 56.3513 39.2696Z" fill="#FF453A"/>
<path d="M53.7109 38.5768C53.7109 39.053 54.0994 39.439 54.5786 39.439C55.0578 39.439 55.4463 39.0524 55.4463 38.5768C55.4463 38.1013 55.0583 37.7158 54.5786 37.7158C54.1 37.7158 53.7109 38.1013 53.7109 38.5768Z" fill="white"/>
<path d="M25.3834 50.5906C25.2437 50.5004 25.0945 50.4202 24.9365 50.3522L22.3162 49.2235C21.8827 49.0372 21.4291 48.9625 20.9872 48.9813C20.941 48.9835 20.8965 48.9891 20.8514 48.9929C20.2069 49.0499 19.5925 49.3076 19.1066 49.7345L18.9986 49.6886C18.3402 49.4044 17.5755 49.7058 17.29 50.36L17.2756 50.3931C16.9901 51.0473 17.2923 51.8071 17.9512 52.0908L18.0609 52.1378C18.0898 53.1719 18.6547 54.1513 19.6025 54.6778C19.7422 54.7679 19.8913 54.8481 20.0494 54.9161L22.6696 56.0448C23.1032 56.2311 23.5568 56.3058 23.9992 56.287C24.0449 56.2848 24.09 56.2792 24.135 56.2754C24.7795 56.2184 25.3939 55.9607 25.8798 55.5338L25.9878 55.5797C26.6462 55.8639 27.4109 55.5631 27.6964 54.9084L27.7109 54.8752C27.9958 54.221 27.6936 53.4612 27.0352 53.1775L26.9261 53.1305C26.8966 52.0964 26.3312 51.117 25.3834 50.5906Z" fill="#FFD60A"/>
<path fill-rule="evenodd" clip-rule="evenodd" d="M22.2365 50.1541C22.0105 49.5867 21.3644 49.3086 20.7934 49.5325C20.2224 49.7571 19.9424 50.3991 20.1678 50.9665C20.3938 51.5338 21.0399 51.812 21.6109 51.588C22.1825 51.3641 22.4625 50.722 22.2365 50.1541Z" fill="white"/>
<path d="M34.2361 31.8627C34.2344 31.8173 34.2344 31.7537 34.2344 31.6719C34.2344 31.3545 34.2856 31.1139 34.3892 30.9491C34.4932 30.7849 34.6619 30.6743 34.8945 30.6179C34.9652 30.6007 35.1322 30.5864 35.3948 30.5748C35.6581 30.5626 35.8885 30.5322 36.0861 30.4841C36.2191 30.452 36.3521 30.4044 36.4851 30.3397C36.6181 30.2756 36.7539 30.1949 36.8925 30.1003C36.6972 30.3679 36.4044 30.7213 36.0148 31.1626C35.6253 31.6022 35.3603 31.923 35.2218 32.1243C34.9479 32.5274 34.747 32.925 34.6218 33.3137C34.4966 33.7042 34.4331 34.1255 34.4331 34.5762C34.4331 34.6586 34.4342 34.7211 34.4359 34.7643C34.4376 34.8052 34.4404 34.8428 34.4426 34.8732C34.4426 35.3919 34.8645 35.7099 35.3859 35.5838C35.9063 35.4583 36.3287 34.9368 36.3287 34.4181C36.3287 34.3794 36.3254 34.3401 36.3198 34.3025V34.2135C36.3198 33.6754 36.3855 33.1666 36.518 32.6822C36.6487 32.2 36.9003 31.6089 37.2732 30.911C37.3083 30.8413 37.3611 30.7412 37.4324 30.6135C37.955 29.6645 38.2165 29.0103 38.2165 28.6459C38.2165 28.5989 38.2154 28.5635 38.2138 28.5414C38.2127 28.5176 38.2104 28.496 38.2076 28.4756L37.419 28.6658V28.7283C37.419 28.8162 37.3929 28.8898 37.3411 28.9484C37.2893 29.0081 37.2148 29.0496 37.1179 29.0728C37.0289 29.0944 36.7962 29.0772 36.4195 29.0192C36.0427 28.9622 35.7043 28.9694 35.4032 29.0424C35.1433 29.1049 34.9168 29.2155 34.7231 29.3736C34.5294 29.5324 34.3686 29.7392 34.2428 29.9919L34.2511 29.4306L33.2148 29.6806V32.2304L34.2428 31.9821C34.2395 31.9473 34.2372 31.9069 34.2361 31.8627Z" fill="#FF453A"/>
<path d="M41.6571 30.1272C41.6554 30.0852 41.6554 30.0266 41.6554 29.9503C41.6554 29.6566 41.7027 29.4332 41.7984 29.2806C41.8947 29.1285 42.0511 29.0262 42.267 28.9737C42.3327 28.9576 42.4874 28.9444 42.7307 28.9339C42.9744 28.9222 43.1881 28.894 43.3712 28.8498C43.4948 28.8199 43.6178 28.7757 43.7408 28.716C43.8643 28.6562 43.9901 28.5816 44.1187 28.4937C43.9378 28.742 43.6668 29.0693 43.305 29.478C42.9438 29.8856 42.6989 30.1825 42.5704 30.3689C42.3166 30.7427 42.1301 31.111 42.0144 31.471C41.8981 31.8327 41.8396 32.2231 41.8396 32.6406C41.8396 32.7169 41.8402 32.775 41.8418 32.8148C41.8435 32.8524 41.8457 32.8878 41.848 32.9154C41.848 33.3965 42.2392 33.6907 42.7223 33.574C43.2043 33.4574 43.5961 32.9746 43.5961 32.4935C43.5961 32.4575 43.5927 32.421 43.5883 32.3868V32.3044C43.5883 31.8061 43.649 31.3344 43.772 30.8854C43.8933 30.4386 44.1265 29.8905 44.4715 29.2441C44.5038 29.1794 44.5528 29.087 44.619 28.9687C45.1032 28.0894 45.3459 27.4833 45.3459 27.1455C45.3459 27.1018 45.3453 27.0691 45.3436 27.0481C45.3425 27.026 45.3403 27.0067 45.3381 26.9873L44.6073 27.1637V27.2218C44.6073 27.3031 44.5828 27.3716 44.535 27.4258C44.4871 27.4811 44.4181 27.5198 44.3279 27.5414C44.2456 27.5613 44.0302 27.5453 43.6812 27.4916C43.3323 27.4391 43.0184 27.4457 42.739 27.5132C42.498 27.5713 42.2882 27.6736 42.109 27.8201C41.9298 27.9672 41.7806 28.1591 41.6638 28.393L41.6715 27.8727L40.7109 28.1044V30.4673L41.6638 30.2373C41.6604 30.2063 41.6587 30.1687 41.6571 30.1272Z" fill="#FF453A"/>
</g>
<defs>
<clipPath id="clip0_7_9549">
<rect width="62.811" height="62.811" fill="white" transform="translate(0.917969 0.929688)"/>
</clipPath>
</defs>
</svg>
