<svg width="47" height="42" viewBox="0 0 47 42" fill="none" xmlns="http://www.w3.org/2000/svg">
<path fill-rule="evenodd" clip-rule="evenodd" d="M27.2823 20.353C26.466 35.6524 47.0893 36.9399 39.0019 23.7001C35.8984 18.6193 28.3367 15.8281 31.5193 10.0449C33.3017 6.80631 37.9428 10.1753 36.7553 11.9727C36.5407 9.42657 33.1944 8.42231 32.2446 10.4135C29.3838 16.4078 38.7962 17.6552 41.9788 26.252C46.6257 38.8064 24.332 37.7883 25.0113 20.0354C25.0993 19.4082 25.6786 18.9709 26.3058 19.0585C26.933 19.1461 27.3703 19.7259 27.2823 20.353Z" fill="#9B42C7"/>
<path fill-rule="evenodd" clip-rule="evenodd" d="M20.2 21.0339C18.3606 27.0926 14.6689 33.3035 7.31255 30.4393C1.49154 28.1733 -0.68951 21.328 4.50934 17.1585C7.04431 15.1256 11.7364 13.6976 11.2285 8.49758C10.8637 4.76769 7.07712 3.86069 4.09598 2.87109C8.30562 2.88885 12.6411 5.11312 12.2571 9.87969C11.8383 15.0812 8.17092 15.9686 5.44683 18.3005C1.38 21.7822 3.32754 26.9745 7.98875 28.655C14.0371 30.8353 16.6161 25.3593 17.9519 20.5792C18.0773 19.9586 18.6821 19.5568 19.3031 19.6822C19.9241 19.8081 20.3255 20.4129 20.2 21.0339Z" fill="#9B42C7"/>
<path fill-rule="evenodd" clip-rule="evenodd" d="M32.5062 10.0043C32.4067 10.1232 32.3187 10.259 32.2453 10.413C29.3846 16.4073 38.797 17.6547 41.9796 26.2516C43.3559 29.9703 42.3682 32.4975 40.3149 33.7526C41.8943 32.3829 42.5249 30.0289 41.3092 26.7436C38.1269 18.1464 28.7142 16.899 31.5753 10.9047C31.786 10.4609 32.1172 10.1664 32.5062 10.0043ZM31.9794 9.40991C33.9837 7.31648 37.8517 10.3138 36.7556 11.9727C36.6205 10.3686 35.2423 9.37672 34.0034 9.36012C33.3353 9.13241 32.6139 9.105 31.9794 9.40991ZM27.2614 21.0944C27.1812 30.5507 35.4708 34.313 39.1567 32.2486C36.7406 34.5273 30.8099 33.0552 28.0484 27.9011C26.8647 25.6915 26.9666 23.5599 27.2599 21.0959L27.2614 21.0944Z" fill="#BF5AF2"/>
<path fill-rule="evenodd" clip-rule="evenodd" d="M31.7113 12.4785C31.7113 12.4785 31.0107 14.3454 34.1829 17.1316C35.5674 18.3478 36.582 19.0904 37.286 19.5412C34.4728 16.8811 31.6819 15.137 31.7116 12.4789L31.7113 12.4785Z" fill="#D47FFF"/>
<path fill-rule="evenodd" clip-rule="evenodd" d="M18.8457 12.7093C18.2235 13.7858 17.9715 15.2821 19.2787 16.1575C19.965 16.6172 19.7647 16.8198 19.2741 17.3786C18.3884 18.3875 17.0911 19.4632 17.6512 20.1857C18.2108 20.9082 19.2969 20.8141 20.6751 20.8924L20.6748 20.9005C20.6748 20.9005 21.2506 20.9287 22.0685 20.9376L22.0889 20.9379L22.2113 20.9391H22.2151L22.3448 20.9399H22.3521L22.4776 20.9403H22.4903H22.613H22.6258L22.6883 20.9399L22.7512 20.9403H22.7639H22.8867H22.8994L23.0248 20.9399H23.0322L23.1619 20.9391H23.1657L23.2881 20.9379L23.3085 20.9376C24.1264 20.9283 24.7022 20.9005 24.7022 20.9005L24.7018 20.8924C26.0801 20.8141 27.1662 20.9082 27.7258 20.1857C28.2854 19.4632 26.9886 18.3879 26.1029 17.3786C25.6123 16.8198 25.412 16.6172 26.0982 16.1575C27.4055 15.2821 27.1534 13.7858 26.5313 12.7093C26.5224 12.6939 30.803 5.89873 25.4734 3.25067C24.637 2.835 23.6605 2.60728 22.6895 2.5957C21.7184 2.60728 20.7419 2.835 19.9055 3.25067C14.5739 5.89873 18.8546 12.6939 18.8457 12.7093Z" fill="#BF5AF2"/>
<path fill-rule="evenodd" clip-rule="evenodd" d="M5.86345 17.9609C5.72219 18.0717 5.58284 18.1852 5.44583 18.3025C1.379 21.7842 3.32654 26.9765 7.98774 28.657C10.3135 29.4953 12.126 29.2008 13.5525 28.2498C12.0519 29.508 10.0793 30.0067 7.45128 29.0591C2.78969 27.3787 0.842533 22.1864 4.90937 18.7047C5.21736 18.4411 5.5377 18.196 5.86345 17.9609Z" fill="#BF5AF2"/>
<path fill-rule="evenodd" clip-rule="evenodd" d="M20.6512 12.748C19.6801 12.748 18.8936 13.6076 18.8936 14.6674C18.8936 15.7276 19.6805 16.5872 20.6512 16.5872C21.6219 16.5872 22.4092 15.7276 22.4092 14.6674C22.4092 13.6076 21.6223 12.748 20.6512 12.748Z" fill="#9B42C7"/>
<path fill-rule="evenodd" clip-rule="evenodd" d="M22.7975 20.8979C21.0217 25.5309 21.0711 25.644 20.2784 30.5746C19.2768 36.8055 14.3134 41.7709 7.99797 40.2413C0.867793 38.5138 2.75359 28.6464 8.66414 24.4082C11.8892 22.0959 11.4878 21.1461 11.4137 17.4609C13.1131 20.5656 11.5712 23.2387 9.15584 25.1782C5.06122 28.4661 2.38575 36.501 7.68186 38.4555C12.8464 40.3617 17.4952 35.7576 18.2386 30.2933C18.9167 25.3094 18.963 24.7972 20.6462 20.1028C20.8658 19.5088 21.5254 19.2051 22.1194 19.4247C22.7134 19.6443 23.0167 20.3039 22.7975 20.8979Z" fill="#9B42C7"/>
<path fill-rule="evenodd" clip-rule="evenodd" d="M24.9734 20.4958C24.5601 24.1303 23.5774 34.2625 29.6655 34.6824C32.5945 34.8846 35.8069 29.8097 33.9743 25.4437C33.0087 23.1434 28.7234 18.224 33.5251 15.7859C37.4684 13.7836 42.7912 17.4652 43.8201 22.5012L43.7028 22.2862C42.142 18.9396 38.6687 15.0754 34.4633 16.5941C30.7558 17.933 33.5521 21.6745 34.6814 23.5854C38.2824 29.6792 34.2078 36.7496 29.5787 36.5574C21.8661 36.2374 22.2227 25.3253 22.6974 20.2144C22.775 19.5857 23.3474 19.1391 23.9761 19.2167C24.6044 19.2947 25.051 19.8674 24.9734 20.4958Z" fill="#9B42C7"/>
<path fill-rule="evenodd" clip-rule="evenodd" d="M24.7873 12.748C23.8166 12.748 23.0293 13.6076 23.0293 14.6674C23.0293 15.7276 23.8163 16.5872 24.7873 16.5872C25.7584 16.5872 26.5454 15.7276 26.5454 14.6674C26.545 13.6076 25.758 12.748 24.7873 12.748Z" fill="#9B42C7"/>
<path fill-rule="evenodd" clip-rule="evenodd" d="M28.1444 7.37617C28.1089 5.80224 27.4581 4.23795 25.4709 3.25067C24.6345 2.835 23.658 2.60728 22.687 2.5957C21.7159 2.60728 20.7394 2.835 19.903 3.25067C18.6641 3.86628 17.9451 4.70573 17.5703 5.63242C20.0443 2.72153 26.2567 3.7173 28.1444 7.37617Z" fill="#D47FFF"/>
<path fill-rule="evenodd" clip-rule="evenodd" d="M18.8461 12.7092C18.2239 13.7857 17.9719 15.282 19.2792 16.1574C19.9654 16.617 19.7651 16.8197 19.2745 17.3785C18.3888 18.3874 17.0916 19.4631 17.6516 20.1856C18.2112 20.9081 19.2973 20.8139 20.6755 20.8923L20.6752 20.9004C20.6752 20.9004 21.251 20.9286 22.0689 20.9374L22.0893 20.9378L22.2117 20.939H22.2155L22.3452 20.9398H22.3525L22.478 20.9401H22.4907H22.6135H22.6262L22.6887 20.9398L22.7516 20.9401H22.7644H22.8871H22.8998L23.0253 20.9398H23.0326L23.1623 20.939H23.1661L23.2885 20.9378L23.3089 20.9374C24.1268 20.9282 24.7026 20.9004 24.7026 20.9004L24.7022 20.8923C25.9331 20.8224 26.9308 20.89 27.5286 20.3905C27.1847 20.3782 26.8065 20.3597 26.3931 20.3334C26.3472 20.3323 26.2997 20.3292 26.2499 20.3245H26.2484C18.1819 19.7935 19.5385 18.5754 20.7678 18.0165C21.9974 17.4577 25.1214 16.9285 25.1214 16.9285C25.4286 16.8158 25.6621 16.7475 25.6621 16.7475C25.6324 16.5935 25.7092 16.4511 25.9412 16.2705C24.402 16.4777 19.1012 16.1716 19.0661 14.27C19.051 13.4568 21.6343 12.9589 23.7296 12.678C23.8821 12.6575 23.994 12.5294 23.9944 12.3754C23.9944 12.2214 23.8821 12.0932 23.7296 12.0728C23.5498 12.0488 23.3749 12.0288 23.2136 12.0149C22.1854 11.9253 21.4251 12.0817 20.0167 11.2769C18.6238 10.4807 17.2764 7.14912 17.2467 7.07617C17.0414 9.81763 18.8519 12.6992 18.8461 12.7092Z" fill="#9B42C7"/>
<path fill-rule="evenodd" clip-rule="evenodd" d="M20.5882 12.748C21.4296 12.748 22.112 13.43 22.112 14.2718C22.112 15.1132 21.43 15.7956 20.5882 15.7956C19.7468 15.7956 19.0645 15.1136 19.0645 14.2718C19.0645 13.4304 19.7468 12.748 20.5882 12.748Z" fill="white"/>
<path fill-rule="evenodd" clip-rule="evenodd" d="M20.9126 13.5332C21.3024 13.5332 21.6181 13.8493 21.6181 14.2387C21.6181 14.6282 21.302 14.9443 20.9126 14.9443C20.5231 14.9443 20.207 14.6285 20.207 14.2387C20.207 13.8489 20.5227 13.5332 20.9126 13.5332Z" fill="#003333"/>
<path fill-rule="evenodd" clip-rule="evenodd" d="M24.7874 12.748C23.946 12.748 23.2637 13.43 23.2637 14.2718C23.2637 15.1132 23.9457 15.7956 24.7874 15.7956C25.6288 15.7956 26.3112 15.1136 26.3112 14.2718C26.3108 13.4304 25.6288 12.748 24.7874 12.748Z" fill="white"/>
<path fill-rule="evenodd" clip-rule="evenodd" d="M25.1645 13.543C24.7747 13.543 24.459 13.8591 24.459 14.2485C24.459 14.6383 24.7747 14.954 25.1645 14.954C25.5543 14.954 25.87 14.6383 25.87 14.2485C25.8704 13.8591 25.5543 13.543 25.1645 13.543Z" fill="#003333"/>
<path fill-rule="evenodd" clip-rule="evenodd" d="M6.36762 3.62603C5.60304 3.35084 4.82496 3.11348 4.09473 2.87109C8.30436 2.88885 12.6398 5.11312 12.2558 9.87969C11.9922 13.1576 10.4383 14.7219 8.64323 16.0141C10.2029 14.7898 11.482 13.2279 11.7193 10.2819C12.0169 6.58979 9.48191 4.42341 6.36762 3.62603Z" fill="#BF5AF2"/>
<path fill-rule="evenodd" clip-rule="evenodd" d="M4.50293 17.1658L4.50872 17.1607C5.48983 16.3738 6.79399 15.6775 7.99509 14.8184C6.85844 15.7146 5.56045 16.4178 4.50293 17.1658Z" fill="#D47FFF"/>
<path fill-rule="evenodd" clip-rule="evenodd" d="M32.8604 17.808C31.9256 19.5174 33.8056 22.1025 34.6817 23.5857C37.18 27.8143 35.9828 32.5118 33.4698 34.9279C35.5046 32.3724 36.2753 28.1551 34.0109 24.3233C32.9963 22.6058 30.635 19.4093 32.8604 17.808ZM31.8183 17.1989C32.1711 16.674 32.7199 16.195 33.5254 15.7859C37.4687 13.7836 42.7915 17.4652 43.8204 22.5012L43.7031 22.2862C42.5116 19.7312 40.2048 16.8743 37.3086 16.3421C35.8188 15.8187 34.2506 15.8149 32.855 16.5235C32.4455 16.7315 32.1035 16.9581 31.8183 17.1989ZM24.9737 20.4958C24.5604 24.1303 23.5777 34.2625 29.6658 34.6824C30.5493 34.7434 31.4578 34.3238 32.2463 33.5898C31.3324 34.7696 30.1421 35.4995 28.9954 35.4204C22.9073 35.0004 23.89 24.8683 24.3033 21.2337C24.3809 20.6054 23.9344 20.0326 23.3056 19.955C23.1053 19.9303 22.9108 19.9589 22.7363 20.0295C22.8923 19.5012 23.4118 19.1476 23.9764 19.2175C24.6048 19.2947 25.0513 19.8674 24.9737 20.4958Z" fill="#BF5AF2"/>
<path fill-rule="evenodd" clip-rule="evenodd" d="M11.125 21.8616C11.6059 20.7779 11.4569 19.5656 11.4149 17.4609C13.1142 20.5656 11.5723 23.2387 9.157 25.1782C5.06238 28.4661 2.38694 36.501 7.68304 38.4555C9.14196 38.9939 10.5596 39.0124 11.8595 38.6396C10.3608 39.2675 8.67148 39.3694 6.9231 38.7241C1.62699 36.7696 4.30243 28.7344 8.39706 25.4464C9.6545 24.4363 10.6754 23.2271 11.125 21.8616ZM22.7983 20.8979C21.0225 25.5309 21.0719 25.644 20.2791 30.5746C19.5508 35.1054 16.7276 38.9661 12.8128 40.1483C16.3304 38.7222 18.8388 35.0749 19.5192 30.8429C20.312 25.9122 20.2625 25.7992 22.0383 21.1665C22.2579 20.5725 21.9542 19.9129 21.3602 19.6933C21.2367 19.6478 21.1101 19.6246 20.9855 19.6223C21.2904 19.3668 21.7203 19.2773 22.1202 19.4251C22.7142 19.6443 23.0175 20.3039 22.7983 20.8979Z" fill="#BF5AF2"/>
<path fill-rule="evenodd" clip-rule="evenodd" d="M26.1006 17.3789C26.1006 17.3789 26.9153 18.6641 26.8733 19.0563C26.8312 19.4484 27.8308 19.7529 27.6598 19.1933C27.4881 18.634 26.1006 17.3789 26.1006 17.3789Z" fill="#D47FFF"/>
<path fill-rule="evenodd" clip-rule="evenodd" d="M13.8948 13.4668C14.5942 13.4668 15.1608 14.0338 15.1608 14.7327C15.1608 15.4317 14.5938 15.9987 13.8948 15.9987C13.1955 15.9987 12.6289 15.4317 12.6289 14.7327C12.6289 14.0338 13.1959 13.4668 13.8948 13.4668Z" fill="#4947AD"/>
<path fill-rule="evenodd" clip-rule="evenodd" d="M14.1975 13.7246C14.5877 13.7246 14.9038 14.0407 14.9038 14.4309C14.9038 14.8211 14.5877 15.1372 14.1975 15.1372C13.8073 15.1372 13.4912 14.8211 13.4912 14.4309C13.4916 14.0407 13.8077 13.7246 14.1975 13.7246Z" fill="#5E5CE6"/>
<path fill-rule="evenodd" clip-rule="evenodd" d="M33.9405 4.46875C34.4095 4.46875 34.7892 4.84892 34.7892 5.31747C34.7892 5.78602 34.4095 6.16619 33.9405 6.16619C33.4716 6.16619 33.0918 5.78602 33.0918 5.31747C33.0918 4.84892 33.4716 4.46875 33.9405 4.46875Z" fill="#4947AD"/>
<path fill-rule="evenodd" clip-rule="evenodd" d="M34.2296 4.46875C34.5383 4.46875 34.7888 4.71924 34.7888 5.02839C34.7888 5.33715 34.5383 5.58803 34.2296 5.58803C33.9204 5.58803 33.6699 5.33754 33.6699 5.02839C33.6699 4.71924 33.9204 4.46875 34.2296 4.46875Z" fill="#5E5CE6"/>
<path fill-rule="evenodd" clip-rule="evenodd" d="M7.13094 0C7.59988 0 7.97967 0.380167 7.97967 0.84872C7.97967 1.31727 7.59988 1.69744 7.13094 1.69744C6.662 1.69744 6.28223 1.31727 6.28223 0.84872C6.28223 0.380167 6.66238 0 7.13094 0Z" fill="#4947AD"/>
<path fill-rule="evenodd" clip-rule="evenodd" d="M7.41999 0C7.72915 0 7.97926 0.250487 7.97926 0.559639C7.97926 0.868791 7.72876 1.11928 7.41999 1.11928C7.11084 1.11928 6.86035 0.868791 6.86035 0.559639C6.86035 0.250487 7.11084 0 7.41999 0Z" fill="#5E5CE6"/>
<path fill-rule="evenodd" clip-rule="evenodd" d="M4.96004 12.9297C5.42898 12.9297 5.80877 13.3099 5.80877 13.7784C5.80877 14.247 5.42898 14.6271 4.96004 14.6271C4.4911 14.6271 4.11133 14.247 4.11133 13.7784C4.11133 13.3099 4.49149 12.9297 4.96004 12.9297Z" fill="#4947AD"/>
<path fill-rule="evenodd" clip-rule="evenodd" d="M5.2491 12.9297C5.55825 12.9297 5.80836 13.1802 5.80836 13.4893C5.80836 13.7985 5.55786 14.049 5.2491 14.049C4.93994 14.049 4.68945 13.7985 4.68945 13.4893C4.68945 13.1802 4.93994 12.9297 5.2491 12.9297Z" fill="#5E5CE6"/>
<path fill-rule="evenodd" clip-rule="evenodd" d="M41.812 14.7246C42.171 14.7246 42.462 15.0156 42.462 15.3746C42.462 15.7335 42.171 16.0245 41.812 16.0245C41.4531 16.0245 41.1621 15.7335 41.1621 15.3746C41.1621 15.0156 41.4531 14.7246 41.812 14.7246Z" fill="#4947AD"/>
<path fill-rule="evenodd" clip-rule="evenodd" d="M42.0349 14.7246C42.2714 14.7246 42.4633 14.9164 42.4633 15.153C42.4633 15.3896 42.2714 15.5814 42.0349 15.5814C41.7983 15.5814 41.6064 15.3896 41.6064 15.153C41.6064 14.9168 41.7983 14.7246 42.0349 14.7246Z" fill="#5E5CE6"/>
<path d="M4.78998 9.79516C3.70003 9.79516 2.81348 8.90861 2.81348 7.81828C2.81348 6.72834 3.70003 5.8418 4.78998 5.8418C5.87992 5.8418 6.76645 6.72834 6.76645 7.81828C6.76645 8.90861 5.87992 9.79516 4.78998 9.79516ZM4.78998 6.70866C4.17785 6.70866 3.67995 7.20654 3.67995 7.81867C3.67995 8.4308 4.17785 8.92868 4.78998 8.92868C5.40211 8.92868 5.89998 8.43041 5.89998 7.81867C5.89998 7.20693 5.40211 6.70866 4.78998 6.70866Z" fill="#2D4096"/>
<path d="M30.5325 26.451C29.4426 26.451 28.5557 25.5645 28.5557 24.4745C28.5557 23.3846 29.4422 22.498 30.5325 22.498C31.6225 22.498 32.509 23.3846 32.509 24.4745C32.509 25.5645 31.6225 26.451 30.5325 26.451ZM30.5325 23.3641C29.9204 23.3641 29.4225 23.8624 29.4225 24.4745C29.4225 25.0867 29.9208 25.5849 30.5325 25.5849C31.1443 25.5849 31.6422 25.0867 31.6422 24.4745C31.6422 23.8624 31.1447 23.3641 30.5325 23.3641Z" fill="#2D4096"/>
<path fill-rule="evenodd" clip-rule="evenodd" d="M36.3248 36.4238C36.6837 36.4238 36.9747 36.7148 36.9747 37.0738C36.9747 37.4327 36.6837 37.7237 36.3248 37.7237C35.9658 37.7237 35.6748 37.4327 35.6748 37.0738C35.6748 36.7148 35.9658 36.4238 36.3248 36.4238Z" fill="#4947AD"/>
<path fill-rule="evenodd" clip-rule="evenodd" d="M36.4753 36.4766C36.7119 36.4766 36.9037 36.6684 36.9037 36.905C36.9037 37.1416 36.7119 37.3334 36.4753 37.3334C36.2387 37.3334 36.0469 37.1416 36.0469 36.905C36.0469 36.6684 36.2387 36.4766 36.4753 36.4766Z" fill="#5E5CE6"/>
<path d="M4.04992 41.3425C3.95343 41.3425 3.85617 41.3104 3.7755 41.2444C3.66049 41.1503 0.951457 38.9052 0.252488 36.0923C-0.43799 33.3134 0.502208 29.5735 0.542734 29.4156C0.601785 29.1837 0.838373 29.0451 1.06956 29.103C1.30152 29.1624 1.44124 29.3982 1.38219 29.6298C1.37292 29.6669 0.45628 33.318 1.0935 35.8831C1.72376 38.4196 4.29885 40.5524 4.32471 40.5736C4.50958 40.7253 4.537 40.9982 4.38532 41.1831C4.29964 41.2888 4.17536 41.3425 4.04992 41.3425Z" fill="#2D4096"/>
<path d="M44.8677 36.2541C44.8117 36.2541 44.755 36.2433 44.7006 36.2202C44.4798 36.1279 44.376 35.8743 44.4682 35.6532C45.5968 32.958 45.9217 30.657 45.4613 28.6187C45.4084 28.3856 45.5551 28.1536 45.7886 28.1008C46.0209 28.0475 46.2537 28.1942 46.3065 28.4281C46.8079 30.6477 46.4679 33.1201 45.2679 35.9878C45.1981 36.1538 45.0371 36.2541 44.8677 36.2541Z" fill="#2D4096"/>
<path d="M29.2587 39.5574C29.2436 39.5574 29.229 39.5566 29.2139 39.5547C29.1329 39.5466 27.2035 39.3347 24.9711 37.8959C22.6747 36.4161 21.895 32.8518 21.863 32.7009C21.8136 32.467 21.9626 32.237 22.1964 32.1872C22.4303 32.1378 22.6607 32.2871 22.7105 32.5206C22.7179 32.5538 23.4496 35.8846 25.4404 37.1676C27.5003 38.4949 29.2846 38.6909 29.3027 38.6929C29.5408 38.7172 29.7137 38.9299 29.6894 39.1676C29.6663 39.3911 29.4783 39.5574 29.2587 39.5574Z" fill="#2D4096"/>
</svg>
