<svg width="45" height="41" viewBox="0 0 45 41" fill="none" xmlns="http://www.w3.org/2000/svg">
<path fill-rule="evenodd" clip-rule="evenodd" d="M4.42385 25.2664C3.30625 16.7073 8.56568 13.6502 11.5076 11.5396C13.273 10.2732 14.0659 9.32279 13.8919 7.60938C13.8919 7.60938 15.4565 9.9966 14.9044 11.5287C14.3523 13.0609 6.63017 21.0968 5.96033 23.2312C5.29049 25.3657 4.42385 25.2664 4.42385 25.2664Z" fill="#5E5CE6"/>
<path fill-rule="evenodd" clip-rule="evenodd" d="M24.8382 40.5122C22.9901 39.577 20.825 38.7483 19.3542 37.6426C18.3637 36.8976 17.9164 35.6728 17.2295 35.5453C16.0199 35.3203 17.604 34.6465 19.1463 34.4826C18.1763 34.0085 16.3441 33.7835 16.7662 33.8951C17.1884 34.007 18.3341 33.4564 18.8306 31.6523C18.9874 31.0821 19.0444 30.0108 19.8785 29.1846C21.6844 27.396 24.8971 25.752 24.8971 25.752C22.3178 29.3319 23.2642 33.3715 21.6833 35.1257C23.5889 36.3834 22.3618 38.1463 24.8382 40.5122Z" fill="#5E5CE6"/>
<path fill-rule="evenodd" clip-rule="evenodd" d="M21.7106 35.1445C23.4583 36.3214 22.5137 37.938 24.4127 40.0732C24.4127 40.0732 22.2057 38.8202 21.8446 37.8723C21.4835 36.9244 21.4608 35.9877 21.0545 35.8523C20.6483 35.7169 21.0321 36.113 21.6865 35.1759C21.6944 35.1651 21.7023 35.155 21.7106 35.1445Z" fill="#7383FF"/>
<path fill-rule="evenodd" clip-rule="evenodd" d="M42.2213 6.48633C42.2213 6.48633 31.5675 9.79471 28.2648 9.66761C21.9431 9.42459 20.2575 8.66664 14.3253 11.8248C11.1563 13.5119 7.7696 16.0591 6.13238 19.3635C2.58278 26.5273 4.38284 32.7967 12.6946 34.9416C15.8084 35.7451 19.3504 35.5905 20.9858 35.4302C22.6209 35.2699 21.0844 34.5585 19.6299 34.2498C15.8153 33.4402 11.3141 30.8916 11.5947 27.5741C11.9276 23.632 15.7423 23.3793 19.0547 22.1158C21.0393 21.3589 26.2466 19.9109 28.0009 17.7537C28.1507 17.5692 28.3013 17.3767 28.4526 17.1785V17.1788C29.8772 15.7868 33.7561 14.1886 35.5786 13.8011C34.5223 13.0511 33.5643 12.6185 31.8368 12.9511C32.6146 12.178 33.4776 11.5125 34.4667 11.077C37.3631 9.80085 41.7465 8.25318 42.2213 6.48633Z" fill="#FF9500"/>
<path fill-rule="evenodd" clip-rule="evenodd" d="M12.5177 30.3697C11.8688 29.5287 11.5091 28.5884 11.5947 27.577C11.9277 23.6349 15.7423 23.3821 19.0547 22.1186C21.0393 21.3618 26.2467 19.9137 28.0009 17.7565C28.1507 17.572 28.3013 17.3795 28.4526 17.1813V17.1817C29.8772 15.7896 33.7561 14.1914 35.5786 13.804C35.5786 13.804 32.7537 13.2775 30.5373 13.9311C28.3212 14.5846 25.9961 15.4971 24.6987 16.1879C23.4012 16.8783 19.5714 18.0714 16.8512 18.7199C14.1307 19.3685 11.5565 21.2104 10.887 24.3495C10.2175 27.4885 11.4326 29.2568 12.5163 30.369L12.5177 30.3697Z" fill="#D97F00"/>
<path fill-rule="evenodd" clip-rule="evenodd" d="M28.6589 11.4258C29.4566 11.4258 30.1029 12.1426 30.1029 13.0269C30.1029 13.9112 29.4566 14.6276 28.6589 14.6276C27.8612 14.6276 27.2148 13.9109 27.2148 13.0269C27.2148 12.1426 27.8616 11.4258 28.6589 11.4258Z" fill="#D97F00"/>
<path fill-rule="evenodd" clip-rule="evenodd" d="M42.221 6.48633C42.221 6.48633 31.5672 9.79471 28.2645 9.66761C21.9168 9.42351 20.2308 8.66628 14.2752 11.8515C11.1207 13.5386 7.76098 16.0764 6.13243 19.3635C4.18538 23.2933 3.84921 26.9534 5.31383 29.8119L5.31273 29.8122C6.51771 32.1644 8.94249 33.9735 12.6947 34.9416C15.8084 35.7451 19.3505 35.5905 20.9859 35.4302C21.464 35.3833 21.6705 35.2894 21.6875 35.1724C18.3665 35.02 14.9866 34.7842 12.0794 33.616C9.93877 32.7559 7.98777 31.4668 6.84815 28.9409C4.91735 20.6963 12.5408 15.8724 18.0848 13.5881C21.712 12.0935 24.9143 11.831 28.7271 11.5962C31.2609 11.4406 33.9327 11.0268 37.2703 9.88174C39.6027 8.87175 41.8856 7.73356 42.221 6.48633Z" fill="#BF5AF2"/>
<path fill-rule="evenodd" clip-rule="evenodd" d="M42.2207 6.48633C42.2207 6.48633 31.5668 9.79471 28.2642 9.66761C21.8915 9.42278 20.2026 8.66592 14.225 11.8786C12.0678 13.0377 9.81999 14.5941 8.09863 16.5148C12.4885 11.732 20.3691 10.7224 22.1649 10.6386C23.9646 10.5548 29.1543 10.5129 32.5028 9.9063C35.8516 9.29965 42.2207 6.48633 42.2207 6.48633Z" fill="#D47FFF"/>
<path fill-rule="evenodd" clip-rule="evenodd" d="M23.042 9.41577C23.042 9.41577 18.9349 3.72124 15.126 3.30273C11.3175 2.88422 11.9866 3.00988 11.9866 3.00988C15.3264 4.74532 17.7173 9.10739 14.7552 11.6022C16.9424 10.4839 20.4818 9.34716 23.042 9.41577Z" fill="#5E5CE6"/>
<path fill-rule="evenodd" clip-rule="evenodd" d="M23.042 9.4158C23.042 9.4158 18.9349 3.72127 15.126 3.30276C12.091 2.96947 11.8996 2.98138 11.9469 2.9998L11.9476 3.00016H11.948C12.8103 3.19335 14.2814 3.21068 16.652 4.77352C19.0226 6.33671 21.6583 9.47899 21.6583 9.47899H21.6587C22.1404 9.42736 22.6055 9.40425 23.042 9.4158Z" fill="#7383FF"/>
<path fill-rule="evenodd" clip-rule="evenodd" d="M28.6589 10.7773C29.4566 10.7773 30.1029 11.4237 30.1029 12.2214C30.1029 13.019 29.4566 13.6654 28.6589 13.6654C27.8612 13.6654 27.2148 13.019 27.2148 12.2214C27.2148 11.4241 27.8616 10.7773 28.6589 10.7773Z" fill="white"/>
<path fill-rule="evenodd" clip-rule="evenodd" d="M28.7264 11.5996C29.0958 11.5996 29.3951 11.899 29.3951 12.2684C29.3951 12.6378 29.0958 12.9371 28.7264 12.9371C28.357 12.9371 28.0576 12.6378 28.0576 12.2684C28.0576 11.899 28.357 11.5996 28.7264 11.5996Z" fill="#003333"/>
<path fill-rule="evenodd" clip-rule="evenodd" d="M7.70511 27.4258C7.70511 27.4258 7.10748 28.7741 6.78971 30.7349C6.47195 32.6957 6.83452 35.3003 7.2097 35.9741C7.58488 36.6482 7.61735 36.6789 7.61735 36.6789C7.61735 36.6789 7.80227 34.5344 8.56347 33.3698C9.32467 32.2056 7.70511 27.4258 7.70511 27.4258Z" fill="#5E5CE6"/>
<path fill-rule="evenodd" clip-rule="evenodd" d="M25.7978 17.6328C25.7978 17.6328 26.4608 21.4709 24.4458 23.0594C22.4309 24.6479 22.757 24.3474 22.757 24.3474C23.7839 22.4 22.8313 19.7413 19.7393 19.8337C22.0572 19.391 23.9046 18.7771 24.5318 18.4189C24.9871 18.1589 25.3926 17.9036 25.7978 17.6328Z" fill="#5E5CE6"/>
<path fill-rule="evenodd" clip-rule="evenodd" d="M25.8572 19.9883C25.7431 21.0893 25.3856 22.3181 24.4468 23.0583C23.0666 24.1463 22.7846 24.3482 22.7441 24.3677L22.7579 24.3467C24.2045 22.2639 25.8514 19.9962 25.8572 19.9883Z" fill="#7383FF"/>
<path d="M40.3681 5.31826C38.9017 5.31826 37.709 4.12519 37.709 2.65913C37.709 1.19307 38.9021 0 40.3681 0C41.8349 0 43.0276 1.19307 43.0276 2.65913C43.0276 4.12519 41.8345 5.31826 40.3681 5.31826ZM40.3681 1.16563C39.5448 1.16563 38.8746 1.83547 38.8746 2.65913C38.8746 3.4828 39.5445 4.15264 40.3681 4.15264C41.1918 4.15264 41.862 3.4828 41.862 2.65913C41.862 1.83547 41.1918 1.16563 40.3681 1.16563Z" fill="#2D4096"/>
<path fill-rule="evenodd" clip-rule="evenodd" d="M41.1781 1.14844C41.585 1.14844 41.9147 1.47812 41.9147 1.88508C41.9147 2.29168 41.585 2.62172 41.1781 2.62172C40.7711 2.62172 40.4414 2.29204 40.4414 1.88508C40.4414 1.47812 40.7711 1.14844 41.1781 1.14844Z" fill="#5E5CE6"/>
<path fill-rule="evenodd" clip-rule="evenodd" d="M29.7454 34.9453C30.3506 34.9453 30.8417 35.436 30.8417 36.0412C30.8417 36.6464 30.3509 37.1375 29.7454 37.1375C29.1398 37.1375 28.6494 36.6468 28.6494 36.0412C28.6494 35.4357 29.1402 34.9453 29.7454 34.9453Z" fill="#4947AD"/>
<path fill-rule="evenodd" clip-rule="evenodd" d="M29.998 35.0371C30.397 35.0371 30.7205 35.3607 30.7205 35.7597C30.7205 36.1587 30.397 36.4822 29.998 36.4822C29.599 36.4822 29.2754 36.1587 29.2754 35.7597C29.2754 35.3607 29.599 35.0371 29.998 35.0371Z" fill="#5E5CE6"/>
<path fill-rule="evenodd" clip-rule="evenodd" d="M38.2149 28.1602C38.8627 28.1602 39.3877 28.6852 39.3877 29.333C39.3877 29.9808 38.8627 30.5059 38.2149 30.5059C37.567 30.5059 37.042 29.9808 37.042 29.333C37.042 28.6852 37.567 28.1602 38.2149 28.1602Z" fill="#4947AD"/>
<path fill-rule="evenodd" clip-rule="evenodd" d="M38.485 28.2598C38.9118 28.2598 39.2581 28.6061 39.2581 29.0329C39.2581 29.4597 38.9118 29.806 38.485 29.806C38.0582 29.806 37.7119 29.4601 37.7119 29.0329C37.7119 28.6061 38.0582 28.2598 38.485 28.2598Z" fill="#5E5CE6"/>
<path fill-rule="evenodd" clip-rule="evenodd" d="M33.4742 19.6523C34.7452 19.6523 35.7755 20.6826 35.7755 21.9536C35.7755 23.2247 34.7452 24.2549 33.4742 24.2549C32.2031 24.2549 31.1729 23.2247 31.1729 21.9536C31.1729 20.6826 32.2034 19.6523 33.4742 19.6523Z" fill="#4947AD"/>
<path fill-rule="evenodd" clip-rule="evenodd" d="M34.0033 19.8438C34.841 19.8438 35.5199 20.523 35.5199 21.3607C35.5199 22.1985 34.841 22.8777 34.0033 22.8777C33.1655 22.8777 32.4863 22.1985 32.4863 21.3607C32.4863 20.5226 33.1655 19.8438 34.0033 19.8438Z" fill="#5E5CE6"/>
<path fill-rule="evenodd" clip-rule="evenodd" d="M42.7726 4.33398L43.1413 5.53319L44.3401 5.90151L43.1413 6.26984L42.7726 7.46904L42.4043 6.26984L41.2051 5.90151L42.4043 5.53319L42.7726 4.33398Z" fill="#D47FFF"/>
<path d="M4.16539 31.1726C4.07439 31.1726 3.98305 31.1422 3.90722 31.0798C-0.147924 27.7259 -0.0699318 23.9791 0.0293703 19.235C0.0340646 19.0111 0.22364 18.8302 0.443188 18.8381C0.667069 18.8428 0.844369 19.0281 0.840035 19.252C0.745428 23.7769 0.670681 27.3511 4.42466 30.4547C4.59727 30.5977 4.62112 30.853 4.47849 31.0256C4.39796 31.1227 4.28202 31.1726 4.16539 31.1726Z" fill="#2D4096"/>
<path d="M2.25573 22.3777C2.25501 22.3777 2.2543 22.3777 2.25322 22.3777C2.02933 22.3766 1.84915 22.1939 1.85059 21.97C1.86359 19.703 2.58468 15.9834 4.13669 13.174C5.86996 10.0353 8.53852 8.02186 10.4581 7.18447C10.6647 7.09455 10.9023 7.1888 10.9922 7.3939C11.0814 7.59901 10.9875 7.8377 10.7827 7.92761C9.06714 8.67581 6.48349 10.6015 4.84663 13.5662C3.3636 16.2517 2.6739 19.8078 2.66126 21.9754C2.65982 22.1979 2.47853 22.3777 2.25573 22.3777Z" fill="#2D4096"/>
</svg>
