<svg width="723" height="396" viewBox="0 0 723 396" fill="none" xmlns="http://www.w3.org/2000/svg">
<g clip-path="url(#clip0_7_9860)">
<path fill-rule="evenodd" clip-rule="evenodd" d="M636.295 378.659C636.295 378.659 510.467 364.505 446.651 373.73C382.834 382.956 257.286 371.765 202.282 380.978C147.277 390.191 74.7575 399.196 36.5152 394.214C-1.72708 389.231 -14.4745 339.404 20.4424 322.242C55.3592 305.079 159.556 307.294 201.123 270.2C242.691 233.107 228.281 162.796 180.617 123.488C89.6655 48.4814 138.922 -6.85954 233.074 0.689213C273.601 3.9381 316.853 24.6716 339.682 53.1762C384.021 108.539 424.205 88.0549 484.063 74.7678C514.835 67.9369 600.056 47.7497 654.506 68.6972C688.073 81.6106 716.132 117.71 694.089 159.694C686.989 173.215 672.231 185.674 648.331 201.421C596.233 235.746 638.14 288.469 669.732 310.614C701.323 332.76 727.372 355.458 722.384 367.638C717.397 379.818 707.975 390.891 636.295 378.659Z" fill="#222C55"/>
<path fill-rule="evenodd" clip-rule="evenodd" d="M636.292 378.659C636.292 378.659 510.465 364.504 446.648 373.729C382.832 382.955 257.283 371.764 202.279 380.977C163.293 387.507 115.511 393.932 77.3672 395.347C127.012 369.555 125.506 368.07 180.616 361.106C188.139 360.155 195.652 359.115 203.121 357.815C208.272 356.919 213.694 355.975 218.658 354.348C223.27 352.836 229.121 350.456 232.285 346.722C234.412 344.214 235.756 340.327 237.218 337.409C240.088 331.678 247.189 328.028 252.865 325.296C259.396 322.153 266.147 319.457 272.925 316.86C283.392 312.849 293.968 309.099 304.635 305.622L307.763 304.602L359.082 314.463L387.675 353.223L391.31 354.27L457.695 344.279C460.449 343.865 462.475 342.937 464.556 341.14L486.501 322.175C488.801 320.188 491.274 318.518 493.995 317.117L509.833 308.957C510.089 308.825 510.34 308.686 510.588 308.538L523.833 300.604C533.772 294.651 544.875 292.912 556.242 295.531C567.608 298.15 576.717 304.543 582.832 314.194L594.482 332.58C595.214 333.734 596.009 334.649 597.06 335.543L610.398 346.897C612.575 348.749 614.703 349.677 617.576 350.025L714.94 377.843L714.934 377.848L696.212 383.563C683.762 384.719 665.035 383.564 636.292 378.659Z" fill="#3D4C87"/>
<path fill-rule="evenodd" clip-rule="evenodd" d="M636.293 378.658C636.293 378.658 510.466 364.504 446.649 373.729C382.833 382.955 257.284 371.764 202.28 380.977C174.764 385.586 142.868 390.142 113.07 392.921L145.147 379.176C160.007 377.937 174.979 376.339 189.761 374.414C197.005 373.471 204.262 372.434 211.452 371.145C216.566 370.229 222.23 369.172 227.153 367.508C232.835 365.59 239.159 362.744 243.061 358.002C245.693 354.802 246.807 351.233 248.578 347.589C250.453 343.734 256.755 340.572 260.466 338.733C266.47 335.755 272.786 333.159 279.019 330.698C288.816 326.83 298.837 323.17 308.827 319.814L310.148 319.37L354.653 328.182L381.617 365.842L388.636 367.926L453.164 357.92C457.035 357.32 460.11 355.87 463.033 353.267L483.884 334.702C485.697 333.088 487.574 331.782 489.719 330.643L504.767 322.655C505.137 322.459 505.496 322.253 505.853 322.033L518.437 314.267C526.402 309.351 535.164 307.938 544.273 310.1C553.382 312.262 560.572 317.461 565.472 325.43L576.54 343.428C577.592 345.139 578.738 346.495 580.248 347.819L592.92 358.934C595.978 361.615 599.21 363.065 603.247 363.57L685.889 383.974C673.998 383.929 658.003 382.363 636.293 378.658Z" fill="#6272B3"/>
<path fill-rule="evenodd" clip-rule="evenodd" d="M568.424 140.933C543.744 140.933 523.738 160.917 523.738 185.569C523.738 210.221 543.744 230.206 568.424 230.206C593.103 230.206 613.109 210.221 613.109 185.569C613.109 160.917 593.103 140.933 568.424 140.933Z" fill="#3D4C87"/>
<path fill-rule="evenodd" clip-rule="evenodd" d="M295.825 330.458H479.461L499.615 145.828C500.6 136.802 494.673 129.491 487.007 124.247L410.155 71.6697C401.987 66.0808 373.286 66.09 365.128 71.6697L288.277 124.247C280.612 129.49 274.686 136.818 275.669 145.828L295.825 330.458Z" fill="#693015"/>
<path fill-rule="evenodd" clip-rule="evenodd" d="M304.929 357.576C311.401 357.576 317.894 357.576 324.386 357.576C345.819 357.576 367.293 357.576 388.725 357.576C410.156 357.576 449.425 357.576 470.877 357.576C471.402 357.576 471.929 357.576 472.454 357.576C472.454 357.553 472.454 357.531 472.454 357.507C482.498 356.623 491.329 347.537 492.436 336.545C493.658 324.417 494.875 312.286 496.092 300.158C497.31 288.03 498.523 275.898 499.749 263.758C500.916 252.192 492.059 242.716 480.04 242.716C468.02 242.716 457.604 252.193 456.926 263.758C456.409 272.579 455.885 281.402 455.372 290.21C454.858 299.02 454.321 307.83 453.816 316.639C434.8 316.639 397.992 316.639 378.997 316.639C359.981 316.639 340.965 316.639 321.971 316.639C321.466 307.83 320.931 299.02 320.416 290.21C319.903 281.401 319.4 272.578 318.882 263.758C318.203 252.191 307.83 242.716 295.811 242.716C288.521 242.716 281.25 242.716 273.98 242.716C275.535 258.36 277.122 274.002 278.687 289.637C280.252 305.267 281.824 320.915 283.393 336.545C284.553 348.112 294.234 357.576 304.929 357.576Z" fill="#693015"/>
<path fill-rule="evenodd" clip-rule="evenodd" d="M413.102 357.575H470.876C471.401 357.575 471.927 357.575 472.452 357.575C472.452 357.553 472.452 357.53 472.452 357.506C482.496 356.622 491.326 347.536 492.435 336.545C493.566 325.329 494.691 314.11 495.816 302.895C495.807 302.944 489.753 339.865 473.547 344.281C457.331 348.699 413.102 357.575 413.102 357.575Z" fill="#B55122"/>
<path fill-rule="evenodd" clip-rule="evenodd" d="M309.058 298.05H466.143L472.054 156.47C472.331 149.825 468.431 144.501 462.817 140.659L406.514 102.139C400.53 98.0453 374.746 98.0518 368.77 102.139L312.469 140.659C306.854 144.5 302.958 149.838 303.232 156.47L309.058 298.05Z" fill="#591410"/>
<path fill-rule="evenodd" clip-rule="evenodd" d="M285.955 228.312C268.44 228.312 254.238 241.986 254.238 258.852C254.238 275.717 268.44 289.392 285.955 289.392C303.471 289.392 317.672 275.717 317.672 258.852C317.672 241.986 303.471 228.312 285.955 228.312Z" fill="#873C19"/>
<path fill-rule="evenodd" clip-rule="evenodd" d="M489.916 228.312C472.401 228.312 458.199 241.986 458.199 258.852C458.199 275.717 472.401 289.392 489.916 289.392C507.432 289.392 521.633 275.717 521.633 258.852C521.632 241.986 507.432 228.312 489.916 228.312Z" fill="#873C19"/>
<path fill-rule="evenodd" clip-rule="evenodd" d="M264.262 280.33H317.673V298.051H272.296C267.876 298.051 264.262 294.44 264.262 290.026V280.33Z" fill="#4A210E"/>
<path fill-rule="evenodd" clip-rule="evenodd" d="M511.61 281.128H458.199V298.051H503.939C508.159 298.051 511.61 294.603 511.61 290.387V281.128Z" fill="#4A210E"/>
<path fill-rule="evenodd" clip-rule="evenodd" d="M458.91 298.052H503.936C508.156 298.052 511.607 294.604 511.607 290.388V283.901C511.607 283.901 502.928 289.898 490.08 292.001C477.233 294.105 458.91 298.052 458.91 298.052Z" fill="#B55122"/>
<path fill-rule="evenodd" clip-rule="evenodd" d="M332.068 316.637H443.802C451.73 316.637 458.198 310.176 458.198 302.257V298.051C418.235 282.454 359.45 283.774 317.672 298.051V302.257C317.672 310.175 324.14 316.637 332.068 316.637Z" fill="#4A210E"/>
<path fill-rule="evenodd" clip-rule="evenodd" d="M317.672 302.719H458.198V284.133C418.235 268.536 359.45 269.856 317.672 284.133V302.719Z" fill="#873C19"/>
<path fill-rule="evenodd" clip-rule="evenodd" d="M499.614 145.827C500.764 136.819 494.681 129.499 487.009 124.246L410.158 71.6686C401.982 66.0733 373.293 66.0825 365.129 71.6686L288.277 124.246C335.446 95.9666 356.804 89.5841 365.129 83.8891C373.299 78.3002 401.983 78.2938 410.158 83.8891C426.213 94.8741 492.67 132.452 499.614 145.827Z" fill="#E06328"/>
<path fill-rule="evenodd" clip-rule="evenodd" d="M285.954 244.873C277.937 244.873 271.438 251.132 271.438 258.85C271.438 266.57 277.937 272.828 285.954 272.828C293.97 272.828 300.469 266.569 300.469 258.85C300.47 251.132 293.971 244.873 285.954 244.873Z" fill="#4A210E"/>
<path fill-rule="evenodd" clip-rule="evenodd" d="M489.915 244.873C481.898 244.873 475.398 251.132 475.398 258.85C475.398 266.57 481.898 272.828 489.915 272.828C497.931 272.828 504.431 266.569 504.431 258.85C504.431 251.132 497.932 244.873 489.915 244.873Z" fill="#4A210E"/>
<path fill-rule="evenodd" clip-rule="evenodd" d="M486.925 228.459C470.886 229.98 458.352 243.007 458.352 258.853C458.352 260.243 458.449 261.612 458.635 262.953C460.625 248.683 472.849 237.534 487.961 236.58C488.657 236.536 489.36 236.514 490.069 236.514C500.341 236.514 509.474 241.217 515.271 248.51C515.44 248.722 515.605 248.937 515.769 249.152C518.767 253.137 520.79 257.845 521.502 262.954C521.69 261.613 521.786 260.244 521.786 258.854C521.786 258.522 521.78 258.191 521.769 257.864C521.538 250.86 518.857 244.452 514.524 239.407C508.708 232.632 499.911 228.314 490.068 228.314C489.008 228.312 487.959 228.362 486.925 228.459Z" fill="#E06328"/>
<path fill-rule="evenodd" clip-rule="evenodd" d="M568.423 156.848C552.544 156.848 539.672 169.706 539.672 185.567C539.672 201.429 552.544 214.287 568.423 214.287C584.302 214.287 597.174 201.429 597.174 185.567C597.174 169.707 584.302 156.848 568.423 156.848Z" fill="#6272B3"/>
<path d="M330.356 339.497H315.531V369.004H330.356V339.497Z" fill="#4A210E"/>
<path d="M452.039 357.575H437.215V370.59H452.039V357.575Z" fill="#4A210E"/>
<path fill-rule="evenodd" clip-rule="evenodd" d="M441.575 279.1C408.71 266.274 360.368 267.359 326.012 279.1C389.151 276.208 441.575 279.1 441.575 279.1Z" fill="#FC9300"/>
<path fill-rule="evenodd" clip-rule="evenodd" d="M361.053 129.298H402.571C402.853 129.298 403.033 129.533 403.083 129.809L410.219 169.249C410.268 169.525 409.988 169.759 409.707 169.76L389.186 180.496L356.342 169.968C355.797 173.581 355.33 173.671 355.83 169.456L360.541 129.809C360.575 129.53 360.771 129.298 361.053 129.298Z" fill="#E89576"/>
<path fill-rule="evenodd" clip-rule="evenodd" d="M297.342 233.315C284.152 234.565 273.844 245.279 273.844 258.31C273.844 259.454 273.923 260.579 274.077 261.681C275.712 249.946 285.765 240.778 298.193 239.993C298.766 239.957 299.344 239.937 299.926 239.937C308.374 239.937 315.884 243.806 320.652 249.802C320.79 249.977 320.926 250.153 321.061 250.331C323.526 253.608 325.19 257.479 325.777 261.68C325.93 260.577 326.009 259.452 326.009 258.309C326.009 258.036 326.005 257.764 325.996 257.494C325.806 251.734 323.601 246.465 320.039 242.316C315.255 236.744 308.022 233.193 299.927 233.193C299.054 233.193 298.191 233.235 297.342 233.315Z" fill="#9E512E"/>
<path fill-rule="evenodd" clip-rule="evenodd" d="M343.085 152.06H360.237C364.16 158.725 381.224 171.921 390.598 171.921C399.973 171.921 403.214 158.872 407.136 152.206L424.582 152.834C438.072 153.318 448.01 159.46 458.063 167.49L485.568 187.33L520.575 178.308L531.132 205.293L485.852 230.241C478.825 234.113 461.008 224.167 449.143 216.36L439.888 253.499H327.005L319.431 245.452L313.585 239.464L280.387 230.132C289.35 222.103 292.498 217.824 306.912 204.17L305.641 182.149L305.645 182.152C303.515 165.778 326.036 152.06 343.085 152.06Z" fill="#00B06D"/>
<path fill-rule="evenodd" clip-rule="evenodd" d="M288.098 222.813C292.736 218.169 297.34 213.237 306.912 204.169L305.642 182.148L305.646 182.151C303.921 168.893 318.36 157.376 332.967 153.474C332.474 153.911 338.485 150.769 330.805 154.906C323.125 159.043 312.121 180.543 312.121 180.543L324.591 173.622L314.998 195.071L328.748 207.186L313.252 205.785L288.098 222.813Z" fill="#01D180"/>
<path fill-rule="evenodd" clip-rule="evenodd" d="M343.262 181.17L339.936 226.429L313.586 239.465L321.064 250.333L357.951 253.293L377.719 243.723L403.685 202.779L355.99 225.457L353.389 216.309L352.406 212.852L351.491 209.633L343.262 181.17Z" fill="#008C56"/>
<path fill-rule="evenodd" clip-rule="evenodd" d="M508.491 217.768L485.851 230.242C478.824 234.114 461.006 224.168 449.142 216.36L447.018 224.883C444.584 220.393 442.711 216.518 443.087 215.014C443.78 212.246 451.821 201.623 451.821 201.623C451.821 201.623 478.835 218.336 480.636 219.305C482.438 220.274 508.491 217.768 508.491 217.768Z" fill="#008C56"/>
<path fill-rule="evenodd" clip-rule="evenodd" d="M449.141 216.36L441.273 247.933C418.773 244.513 379.004 237.06 391.765 233.228C395.038 232.245 453.489 194.033 454.083 193.154C450.482 204.918 449.141 216.36 449.141 216.36Z" fill="#008C56"/>
<path fill-rule="evenodd" clip-rule="evenodd" d="M353.988 152.06H360.235C364.158 158.725 381.222 171.921 390.597 171.921C399.971 171.921 403.212 158.872 407.134 152.206L410.331 152.322C410.309 153.902 410.184 156.728 409.709 161.105C408.904 168.524 398.397 181.453 380.593 174.671C362.787 167.888 353.988 152.06 353.988 152.06Z" fill="#00995E"/>
<path fill-rule="evenodd" clip-rule="evenodd" d="M279.909 232.998C279.909 232.998 278.512 225.132 287.415 223.199C296.642 221.197 309.811 220.686 315.575 229.798C316.488 231.242 318.202 237.046 313.586 239.466C312.118 240.235 310.995 235.63 300.058 234.76C289.12 233.89 279.023 236.541 279.023 236.541L279.909 232.998Z" fill="white"/>
<path fill-rule="evenodd" clip-rule="evenodd" d="M145.586 389.586C145.586 389.586 209.302 384.257 228.834 377.662C248.366 371.065 249.887 362.077 253.292 355.071C256.698 348.064 310.5 329.969 310.5 329.969L351.604 338.107L378.406 375.542L422.286 388.573L145.586 389.586Z" fill="#FF9F0A"/>
<path fill-rule="evenodd" clip-rule="evenodd" d="M315.531 339.497C315.531 339.497 329.689 345.871 335.109 347.225C340.53 348.578 350.209 351.479 350.209 351.479C350.209 351.479 336.766 355.54 333.561 357.473C330.356 359.407 332.787 364.822 337.432 367.722C342.079 370.623 385.829 383.772 388.152 384.546C390.475 385.32 328.334 382.612 314.589 381.065C300.845 379.519 301.425 379.519 301.425 379.519C301.425 379.519 310.164 364.629 312.847 364.629C315.531 364.629 323.359 357.988 322.944 354.25C322.527 350.512 315.531 339.497 315.531 339.497Z" fill="#FFD60A"/>
<path fill-rule="evenodd" clip-rule="evenodd" d="M253.523 354.685C258.597 347.426 310.497 329.969 310.497 329.969C310.497 329.969 294.262 347.03 292.713 349.736C291.165 352.444 301.231 359.791 301.231 359.791C301.231 359.791 292.713 371.393 285.744 372.941C278.774 374.487 282.646 377.969 282.646 377.969C282.646 377.969 274.903 380.676 253.608 381.837C232.313 382.998 217.988 385.317 217.988 385.317C217.988 385.317 251.672 373.135 262.319 368.494C272.966 363.853 270.075 362.329 267.158 359.986C264.241 357.643 272.966 353.025 274.708 351.091C276.45 349.157 262.706 351.284 259.222 352.831C257.806 353.46 255.618 354.122 253.523 354.685Z" fill="#FFD60A"/>
<path fill-rule="evenodd" clip-rule="evenodd" d="M466.52 362.37L487.371 343.805C488.908 342.436 490.361 341.426 492.179 340.46L507.226 332.472C507.72 332.211 508.133 331.974 508.607 331.681L521.191 323.915C527.974 319.728 535.308 318.545 543.065 320.386C550.823 322.227 556.84 326.579 561.013 333.364L572.081 351.362C573.428 353.552 574.862 355.25 576.796 356.946L589.469 368.06C593.319 371.437 597.516 373.322 602.601 373.956L641.939 378.87C595.444 381.064 560.663 385.07 522.439 384.613C493.336 384.264 461.016 379.621 427.159 379.621C417.062 379.621 379.43 379.845 379.43 379.845L453.97 368.286C458.844 367.531 462.838 365.649 466.52 362.37Z" fill="#FF9F0A"/>
<path fill-rule="evenodd" clip-rule="evenodd" d="M572.781 383.125C559.417 383.919 545.632 384.627 532.253 384.637C529.123 384.639 527.383 383.747 524.13 384.182C521.093 384.588 519.855 384.586 516.827 384.497C508.065 384.232 498.849 383.797 490.122 383.041C487.064 382.776 485.369 381.786 482.097 381.946C479.29 382.082 477.518 382.097 474.704 381.889C464.434 381.109 454.175 380.372 443.881 379.966C438.305 379.749 432.739 379.627 427.159 379.623C424.11 379.623 418.549 379.644 412.273 379.672C412.292 379.671 446.546 377.306 467.642 378.658C470.086 378.814 476.248 379.422 478.302 378.965C480.287 378.436 482.803 376.749 484.94 375.853C494.982 371.648 489.783 378.813 492.533 379.732C494.511 380.393 502.458 380.398 505.014 380.474C509.2 380.601 513.386 380.696 517.574 380.756C521.024 380.806 522.398 379.076 524.532 376.624C527.513 373.199 529.71 371.253 533.931 369.436C537.265 368 532.498 373.079 532.135 373.575C530.283 376.112 529.948 380.829 534.23 380.576C535.009 380.53 535.78 380.472 536.557 380.398C548.358 379.239 572.748 383.12 572.781 383.125Z" fill="#FFD60A"/>
<path fill-rule="evenodd" clip-rule="evenodd" d="M557.024 328.185C558.5 329.714 559.831 331.442 561.014 333.365L571.131 349.818C574.409 356.495 572.506 360.483 566.698 367.637C560.891 374.792 560.311 378.273 560.311 378.273C560.311 378.273 562.634 367.444 564.182 362.224C565.73 357.003 564.763 353.329 559.343 346.367C553.926 339.411 557.02 328.203 557.024 328.185Z" fill="#FFD60A"/>
<path fill-rule="evenodd" clip-rule="evenodd" d="M475.97 347.941L482.421 343.804C484.557 342.435 486.45 341.425 488.69 340.459L507.224 332.472C507.224 332.472 499.944 340.371 495.254 342.692C490.563 345.012 484.829 346.172 482.799 347.72C480.769 349.267 490.456 362.996 488.355 366.478C486.255 369.958 472.555 367.637 469.775 369.571C466.996 371.505 460.914 374.793 460.914 374.793C460.914 374.793 471.305 364.738 472.944 360.097C474.583 355.456 475.01 351.108 475.138 349.751C475.165 349.459 475.455 348.817 475.97 347.941Z" fill="#FFD60A"/>
<path fill-rule="evenodd" clip-rule="evenodd" d="M510.649 330.422L521.191 323.915C527.974 319.728 535.308 318.545 543.065 320.386L543.185 320.415C538.972 321.728 532.786 323.984 530.689 326.449C527.398 330.316 526.431 333.796 528.947 339.018C531.463 344.239 529.721 343.079 523.527 349.847C517.332 356.615 512.686 365.316 515.59 369.184C518.494 373.052 508.233 380.594 499.716 381.173C491.198 381.753 496.038 385.04 503.588 374.598C511.137 364.155 510.429 363.467 510.556 357.194C510.684 350.922 493.909 350.619 498.941 347.139C503.974 343.659 520.616 328.592 510.649 330.422Z" fill="#FFD60A"/>
<path fill-rule="evenodd" clip-rule="evenodd" d="M299.1 255.219C298.937 251.884 300.066 245.313 302.889 243.203C303.302 242.895 303.804 242.823 304.287 243.006C314.475 246.85 314.989 239.374 312.015 235.156C308.739 230.512 299.135 229.066 293.855 229.172H293.851C287.167 229.038 279.578 229.51 273.521 232.266C270.431 233.673 267.32 239.845 267.521 244.499C267.93 254.006 273.771 266.423 279.176 265.952C282.588 265.655 287.458 264.413 294.321 262.164C297.342 261.175 299.256 258.39 299.1 255.219Z" fill="#C48D79"/>
<path fill-rule="evenodd" clip-rule="evenodd" d="M384.653 352.596L390.899 371.277L393.646 382.973L375.862 383.72L370.687 377.262L365.634 383.971L324.756 385.8L324.098 381.151L325.87 379.963C325.87 379.963 324.552 373.297 331.802 368.043C339.051 362.788 346.302 361.483 346.302 361.483L345.499 355.208L386.494 352.473L384.653 352.596Z" fill="#090F29"/>
<path fill-rule="evenodd" clip-rule="evenodd" d="M385.325 354.61L390.898 371.278L392.437 377.829C392.437 377.829 389.802 375.785 387.463 371.546C385.125 367.307 381.574 355.11 381.574 355.11L385.325 354.61Z" fill="#4C5EA8"/>
<path fill-rule="evenodd" clip-rule="evenodd" d="M325.871 379.966C325.871 379.966 324.554 373.3 331.802 368.045C337.501 363.914 343.199 362.225 345.376 361.691C345.432 361.73 345.483 361.768 345.532 361.807C336.483 365.933 338.524 378.94 338.524 378.94L325.871 379.966Z" fill="#2D3863"/>
<path fill-rule="evenodd" clip-rule="evenodd" d="M344.745 242.863C357.748 241.189 379.158 252.889 380.146 266.299L386.492 352.474L343.088 358.507L325.986 270.07C323.412 256.76 331.742 244.539 344.745 242.863Z" fill="#6E2B8F"/>
<path fill-rule="evenodd" clip-rule="evenodd" d="M372.665 253.188C376.871 256.996 379.796 261.538 380.146 266.298L383.44 311.023C374.114 298.446 348.803 297.134 334.405 295.933L328.641 253.499V253.498L372.665 253.188Z" fill="#5B2675"/>
<path fill-rule="evenodd" clip-rule="evenodd" d="M369.908 71.8889L383.269 69.9531C396.432 68.0458 411.291 76.7812 411.843 90.0545C412.081 95.7984 409.613 101.182 409.875 105.903C410.109 110.101 413.006 116.268 412.485 121.555C412.131 125.15 410.233 128.007 407.228 132.029L401.654 139.486C396.417 146.493 387.787 149.352 379.397 146.86C375.864 145.811 372.5 144.099 369.319 141.726L364.6 138.206C357.547 132.945 353.354 125.908 352.09 117.207L349.478 99.2235C347.568 86.0757 356.746 73.7962 369.908 71.8889Z" fill="#FFB296"/>
<path fill-rule="evenodd" clip-rule="evenodd" d="M397.5 119.685C397.5 119.685 399.578 121.156 402.609 125.178C405.64 129.2 407.892 127.124 407.892 127.124C407.228 121.819 399.713 118.548 397.5 119.685Z" fill="#DB8C70"/>
<path fill-rule="evenodd" clip-rule="evenodd" d="M369.91 71.8882L374.818 71.1768C391.634 75.2469 407.737 82.9691 409.077 85.1716C411.762 89.5841 402.875 92.2655 398.598 92.2655C394.322 92.2655 396.769 93.2878 395.811 94.6322C390.106 94.4209 389.052 89.119 380.225 92.3439C379.441 92.6299 377.376 94.7236 375.439 95.6528C371.51 97.537 369.381 97.5517 373.917 97.4124C380.643 97.2066 384.377 93.5517 387.529 101.605C388.09 103.037 388.6 104.504 388.92 105.21C390.411 108.498 391.908 118.974 389.158 119.731C384.136 121.115 375.438 124.549 375.438 124.549C375.438 124.549 371.319 129.809 368.288 131.712C366.609 132.766 362.75 132.625 358.139 131.893C354.925 127.705 352.903 122.8 352.09 117.207L349.477 99.2237C347.57 86.075 356.748 73.7954 369.91 71.8882Z" fill="#DB8C70"/>
<path fill-rule="evenodd" clip-rule="evenodd" d="M410.671 110.265C411.569 113.821 412.844 117.898 412.483 121.554C412.27 123.71 411.503 125.601 410.273 127.638C410.175 127.183 410.162 126.636 410.258 125.979C411.21 119.448 409.868 118.02 409.911 114.993C409.955 111.965 410.671 110.265 410.671 110.265Z" fill="#FFD9CC"/>
<path fill-rule="evenodd" clip-rule="evenodd" d="M412.681 96.8424C408.855 91.5026 404.28 87.4131 396.601 82.6703L398.278 88.74C380.65 77.063 367.01 79.6457 360.474 87.4731C356.763 91.916 358.837 97.8426 355.054 104.332C354.051 102.375 351.561 97.969 349.685 100.67C347.963 96.7741 346.439 88.99 347.707 79.8385C348.414 74.7267 352.235 63.3652 358.918 63.4557C361.87 51.5046 383.165 51.1632 392.422 54.5616C410.62 61.2421 422.955 80.2971 412.681 96.8424Z" fill="#A64623"/>
<path fill-rule="evenodd" clip-rule="evenodd" d="M372.343 81.0361C367.273 81.7881 363.237 84.1604 360.474 87.4711C356.763 91.914 358.837 97.8406 355.054 104.33C354.051 102.373 351.561 97.967 349.685 100.668C347.963 96.7721 346.439 88.9881 347.707 79.8366C348.414 74.7247 352.235 63.3633 358.918 63.4537C361.87 51.5027 383.165 51.1613 392.422 54.5596C401.073 57.7356 408.397 63.7093 412.599 70.8788C412.4 70.7773 403.074 66.0032 400.847 65.3185C398.595 64.6265 398.595 64.6265 398.595 64.6265C398.595 64.6265 402.663 71.1815 404.006 75.5598C405.349 79.9381 405.523 81.9274 405.523 81.9274C405.523 81.9274 399.634 77.6017 395.131 75.1796C390.628 72.7575 389.589 73.276 389.589 73.276C389.589 73.276 391.494 76.2177 392.793 77.7743C394.092 79.3309 385.757 73.9994 372.344 81.0342L372.343 81.0361Z" fill="#75351D"/>
<path fill-rule="evenodd" clip-rule="evenodd" d="M412.683 96.8428C412.323 96.3399 411.22 93.5994 410.844 93.1169C411.398 92.2347 413.668 91.6673 413.88 87.2151C414.14 81.7665 413.898 75.9562 413.196 71.9414C417.301 79.623 417.834 88.5476 412.683 96.8428Z" fill="#E66637"/>
<path fill-rule="evenodd" clip-rule="evenodd" d="M457.859 241.82C457.859 241.82 444.165 272.972 431.896 278.675C419.628 284.378 368.402 277.905 368.402 277.905L369.577 258.153L457.859 241.82Z" fill="#6E2B8F"/>
<path fill-rule="evenodd" clip-rule="evenodd" d="M338.552 243.506L318.179 242.265L309.445 242.934L309.956 260.144L315.788 264.167L309.83 271.045L314.957 312.887L321.553 311.54L321.357 309.883C321.357 309.883 328.457 309.411 332.51 300.719C336.563 292.027 336.555 284.398 336.555 284.398L343.158 283.515L338.336 241.626L338.552 243.506Z" fill="#090F29"/>
<path fill-rule="evenodd" clip-rule="evenodd" d="M315.213 242.493L309.445 242.934L309.956 260.144L315.788 264.167L309.83 271.045L314.957 312.886L321.553 311.539L321.357 309.882L316.989 272.195L320.757 261.516L315.44 258.128L315.213 242.493Z" fill="#1E2545"/>
<path fill-rule="evenodd" clip-rule="evenodd" d="M396.818 25.4903C395.726 24.5916 394.2 25.3261 393.474 27.118C392.1 30.5118 389.347 35.1992 388.116 38.5403C389.26 39.261 389.876 39.4003 390.396 41.9534C392.077 50.209 381.25 54.0853 378.736 46.126C377.911 43.5138 378.486 42.3834 379.456 40.6949C376.303 38.5302 373.068 36.3692 369.701 34.3198C366.284 32.24 362.707 30.2635 359.055 28.3065C357.625 27.5397 355.973 28.3304 355.48 30.031C354.332 33.9895 353.288 37.9101 352.4 41.8049C351.525 45.6388 350.838 49.4496 350.208 53.2088C351.922 53.755 352.911 54.0263 354.194 56.3691C358.178 63.6401 348.073 68.6145 343.265 61.624C341.809 59.5072 342.148 59.0846 342.351 57.8343C338.9 56.3017 333.185 55.0118 329.591 53.5474C327.941 52.8738 326.462 53.6074 326.355 55.1299C331.635 61.982 336.904 68.8405 342.184 75.6917C344.825 79.1205 348.965 80.6089 353.189 79.6502C359.941 78.1175 367.666 75.629 375.071 72.6052C382.526 69.5612 389.894 65.8795 395.895 61.9783C399.54 59.6087 401.353 55.5792 400.707 51.283C399.416 42.6842 398.113 34.0882 396.818 25.4903Z" fill="#FF9F0A"/>
<path fill-rule="evenodd" clip-rule="evenodd" d="M390.148 34.0365C389.35 35.6411 388.61 37.1986 388.116 38.5403C389.261 39.2609 389.876 39.4002 390.396 41.9534C392.077 50.2089 381.25 54.0853 378.737 46.1259C377.912 43.5137 378.486 42.3834 379.456 40.6948C376.304 38.5301 373.069 36.3691 369.702 34.3197C368.983 33.8833 368.259 33.4505 367.527 33.0215L379.953 70.5124C387.242 67.5247 389.763 65.9357 395.664 62.1258L390.148 34.0365Z" fill="#FFD60A"/>
<path fill-rule="evenodd" clip-rule="evenodd" d="M348.17 64.9001C346.405 64.6159 344.626 63.5963 343.269 61.6235C341.813 59.5068 342.152 59.0842 342.355 57.8339C338.904 56.3013 333.188 55.0113 329.595 53.547C327.944 52.8734 326.466 53.6069 326.359 55.1294C331.638 61.9815 336.907 68.8401 342.187 75.6913C344.829 79.1201 348.969 80.6084 353.193 79.6497C354.344 79.3886 355.522 79.0989 356.723 78.7851L348.17 64.9001Z" fill="#FFD60A"/>
<path fill-rule="evenodd" clip-rule="evenodd" d="M367.176 51.5471L372.39 53.5983L370.336 58.8061L365.123 56.7549L367.176 51.5471ZM368.882 43.9365L368.668 44.4809L366.486 50.0135L360.948 47.835L360.403 47.62C358.877 47.0202 358.123 45.2883 358.723 43.764C359.023 43.0018 359.604 42.4343 360.313 42.1261C361.009 41.8235 361.82 41.7866 362.596 42.0818L363.14 42.2968L363.356 41.7524C363.656 40.9903 364.236 40.4228 364.945 40.1146C365.654 39.8073 366.453 39.775 367.229 40.0703C368.729 40.6812 369.477 42.4002 368.882 43.9365ZM371.918 39.4309L370.828 39.0018L359.804 34.665L355.449 45.6823L355.02 46.7711C353.819 49.8188 355.316 53.2578 358.367 54.4583C359.893 55.058 361.516 54.9842 362.909 54.3789C364.301 53.7745 365.461 52.6387 366.063 51.1153L366.493 50.0274L367.582 50.4555C369.107 51.0553 370.731 50.9815 372.123 50.3771C373.516 49.7718 374.676 48.6368 375.277 47.1134C376.466 44.0703 374.963 40.6184 371.918 39.4309Z" fill="#A83500"/>
<path fill-rule="evenodd" clip-rule="evenodd" d="M463.44 254.08C463.112 240.776 448.513 223.289 435.374 225.59L338.445 242.567L339.698 287.778L439.854 280.118C453.155 279.101 463.768 267.384 463.44 254.08Z" fill="#9946C2"/>
<path fill-rule="evenodd" clip-rule="evenodd" d="M381.492 284.581H381.493L381.93 284.548C381.93 284.548 435.605 270.124 441.415 269.036C447.226 267.948 451.76 271.47 456.72 271.746C452.448 276.444 446.485 279.611 439.852 280.119L381.93 284.549L381.492 284.581Z" fill="#CA61FF"/>
<path fill-rule="evenodd" clip-rule="evenodd" d="M463.439 254.08C463.111 240.775 448.512 223.289 435.373 225.59L381.039 235.106C403.404 235.106 455.378 231.087 463.06 259.006C463.349 257.401 463.481 255.753 463.439 254.08Z" fill="#D37AFF"/>
<path fill-rule="evenodd" clip-rule="evenodd" d="M344.087 241.577L338.441 242.566L351.317 286.889C370.43 283.054 418.795 270.106 439.31 262.233C401.116 267.57 356.672 271.935 356.672 271.935L390.892 255.748L356.34 260.002L350.358 248.701L344.087 241.577Z" fill="#6E2B8F"/>
<path fill-rule="evenodd" clip-rule="evenodd" d="M530.568 203.846L542.18 196.222L557.718 201.007C564.458 203.083 571.051 202.305 577.122 198.72L587.342 192.683C589.17 191.604 590.31 189.944 590.661 187.853C591.012 185.761 590.476 183.82 589.102 182.205L587.756 180.623C585.814 178.34 582.787 177.564 579.983 178.629L562.7 185.199L551.807 179.306C546.652 176.516 541.306 175.797 535.597 177.127L521.406 180.43L530.568 203.846Z" fill="#DB8C70"/>
<path fill-rule="evenodd" clip-rule="evenodd" d="M589.909 183.361C589.683 182.96 589.413 182.574 589.099 182.204L587.753 180.623C585.811 178.34 582.784 177.564 579.981 178.629L562.697 185.199L551.804 179.305C548.637 177.591 542.93 175.206 535.594 177.127C543.844 186.331 572.066 198.311 582.401 187.632C585.044 184.902 587.949 184.326 589.909 183.361Z" fill="#FFBAA1"/>
<path fill-rule="evenodd" clip-rule="evenodd" d="M549.52 178.21L557.216 173.011C558.159 172.374 559.204 172.171 560.317 172.409L564.059 173.21L567.931 167.977C568.643 167.016 569.628 166.464 570.82 166.361C572.011 166.257 573.078 166.629 573.945 167.453L587.22 180.058C587.22 180.058 580.126 184.233 574.706 186.167C573.479 186.604 572.342 187.072 571.317 187.533C567.79 189.118 565.715 192.537 565.938 196.393C566.261 202.007 566.776 210.762 567.252 218.267C568.026 230.449 564.833 243.599 564.833 243.599L559.879 225.782C558.612 221.225 558.124 217.168 558.273 212.44L558.908 192.372C558.986 189.911 558.196 187.767 556.541 185.944L549.52 178.21Z" fill="#FF9F0A"/>
<path fill-rule="evenodd" clip-rule="evenodd" d="M564.904 172.068L567.931 167.978C568.642 167.016 569.628 166.465 570.82 166.361C570.82 166.361 568.339 171.655 569.016 172.719C569.693 173.782 571.243 176.296 571.533 178.133C571.824 179.97 566.714 182.251 565.446 184.157C564.177 186.061 559.415 196.727 560.499 199.308C561.582 201.889 558.273 212.441 558.273 212.441L558.909 192.374C558.942 191.308 558.813 190.302 558.522 189.356V189.355C558.522 189.355 558.757 185.773 560.596 183.356C562.435 180.938 564.855 179.005 564.564 177.264C564.441 176.531 564.61 174.384 564.904 172.068Z" fill="#FFD60A"/>
<path fill-rule="evenodd" clip-rule="evenodd" d="M550.382 177.629L557.216 173.012C558.16 172.375 559.204 172.172 560.317 172.41L564.059 173.211L558.755 177.456L550.039 178.434C550.038 178.434 550.147 178.127 550.382 177.629Z" fill="#FFD60A"/>
<path fill-rule="evenodd" clip-rule="evenodd" d="M564.931 258.485L562.374 271.963C561.077 278.801 561.958 285.054 565.095 291.268L567.873 296.773L570.043 281.093C570.863 275.164 570.096 269.874 567.623 264.422L564.931 258.485Z" fill="#FF9F0A"/>
<path fill-rule="evenodd" clip-rule="evenodd" d="M567.972 317.984L566.726 328.181C566.015 333.997 566.509 339.111 568.321 344.684L569.468 348.211L570.14 340.673C570.852 332.688 570.186 325.564 568.04 318.221L567.972 317.984Z" fill="#FF9F0A"/>
<path fill-rule="evenodd" clip-rule="evenodd" d="M513.588 181.193L512.762 179.009L528.926 173.304L541.799 203.858L526.12 209.659L517.41 189.877L522.74 183.843L515.005 184.413L513.588 181.193Z" fill="white"/>
<path fill-rule="evenodd" clip-rule="evenodd" d="M530.038 195.926C527.926 195.926 526.215 197.636 526.215 199.745C526.215 201.854 527.926 203.564 530.038 203.564C532.15 203.564 533.861 201.854 533.861 199.745C533.861 197.636 532.15 195.926 530.038 195.926Z" fill="#008C56"/>
<path fill-rule="evenodd" clip-rule="evenodd" d="M383.191 159.524L370.371 173.508C364.177 168.36 357.547 161.666 355.535 155.066L356.886 149.992C356.886 149.991 376.843 156.846 383.191 159.524Z" fill="white"/>
<path fill-rule="evenodd" clip-rule="evenodd" d="M383.194 159.523L385.279 170.882C379.802 169.385 379.119 168.294 376.547 166.961L383.194 159.523Z" fill="#808080"/>
<path fill-rule="evenodd" clip-rule="evenodd" d="M396.848 159.133L402.866 173.64C406.25 168.787 409.92 162.413 411.217 155.925L409.134 149.284C409.134 149.285 400.212 156.748 396.848 159.133Z" fill="white"/>
<path fill-rule="evenodd" clip-rule="evenodd" d="M396.849 159.135L395.523 170.523C398.393 169.276 398.588 168.057 399.962 166.842L396.849 159.135Z" fill="#808080"/>
<path fill-rule="evenodd" clip-rule="evenodd" d="M430.942 371.858C431.577 371.74 433.818 370.159 439.363 370.069C441.39 370.037 457.454 375.454 454.164 379.031C453.499 379.754 449.44 378.271 447.181 379.001C442.774 380.427 439.623 374.238 433.722 375.986C427.821 377.734 417.316 379.36 417.316 379.36L430.942 371.858Z" fill="#FFD60A"/>
<path fill-rule="evenodd" clip-rule="evenodd" d="M553.718 149.392L555.944 156.63L563.191 158.853L555.944 161.077L553.718 168.316L551.493 161.077L544.246 158.853L551.493 156.63L553.718 149.392Z" fill="#FFFF00"/>
<path fill-rule="evenodd" clip-rule="evenodd" d="M536.962 310.689L538.651 316.182L544.15 317.87L538.651 319.558L536.962 325.051L535.272 319.558L529.773 317.87L535.272 316.182L536.962 310.689Z" fill="white"/>
<path fill-rule="evenodd" clip-rule="evenodd" d="M563.942 346.536L565.631 352.03L571.13 353.717L565.631 355.404L563.942 360.897L562.253 355.404L556.754 353.717L562.253 352.03L563.942 346.536Z" fill="white"/>
<path fill-rule="evenodd" clip-rule="evenodd" d="M453.481 368.716L455.17 374.209L460.67 375.896L455.17 377.583L453.481 383.076L451.792 377.583L446.293 375.896L451.792 374.209L453.481 368.716Z" fill="white"/>
<path fill-rule="evenodd" clip-rule="evenodd" d="M385.671 124.381C381.547 121.793 374.585 124.649 369.76 126.855C367.521 127.878 361.994 123.267 359.711 117.113C357.932 112.319 355.834 109.964 355.688 109.713C355.688 109.713 349.669 115.346 352.103 123.276C355.427 134.098 362.077 147.472 366.1 151.054C367.576 152.367 370.182 154.447 371.513 155.335C371.475 151.995 371.547 149.023 371.959 149.815C373.125 154.64 390.922 164.589 394.135 166.12C394.579 166.19 395.005 166.247 395.41 166.299C396.804 166.108 407.916 145.408 411.872 131.332C412.787 128.076 413.459 124.533 412.485 121.553C411.954 123.242 407.307 126.799 405.883 126.156C400.031 123.511 399.253 121.987 394.678 124.918C391.283 127.097 388.829 126.363 385.671 124.381Z" fill="#A64623"/>
<path fill-rule="evenodd" clip-rule="evenodd" d="M384.906 123.976C380.726 122.131 374.297 124.78 369.76 126.855C367.521 127.878 361.994 123.267 359.711 117.113C357.932 112.319 355.834 109.964 355.688 109.713C355.688 109.713 349.669 115.346 352.103 123.276C355.427 134.098 362.077 147.472 366.1 151.054C367.576 152.367 370.182 154.447 371.513 155.335C371.475 151.995 371.547 149.023 371.959 149.815C373.125 154.64 390.922 164.589 394.135 166.12C394.579 166.19 395.005 166.247 395.41 166.299C395.41 166.299 391.193 160.217 387.815 151.826C384.438 143.435 384.785 144.3 384.785 144.3C384.785 144.3 383.399 150.097 383.658 151.22C383.859 152.089 382.096 147.766 381.284 142.187H381.283C376.316 139.052 377.327 130.395 377.327 130.395L380.97 134.34C381.341 128.609 382.83 126.366 383.095 126.177C383.398 125.961 380.8 125.615 379.371 126.09C377.945 126.565 382.084 123.508 384.906 123.976Z" fill="#75351D"/>
<path fill-rule="evenodd" clip-rule="evenodd" d="M351.98 122.86C352.018 122.999 352.058 123.138 352.101 123.278C355.424 134.101 362.075 147.475 366.098 151.057C367.574 152.37 370.18 154.45 371.511 155.337C371.511 155.337 368.361 150.607 367.278 147.104C366.196 143.6 366.196 143.6 366.196 143.6C366.196 143.6 366.283 143.773 368.49 144.768C370.699 145.762 370.828 145.416 370.828 145.416C370.828 145.416 355.65 134.882 351.98 122.86Z" fill="#A64623"/>
<path fill-rule="evenodd" clip-rule="evenodd" d="M404.879 149.431C407.633 143.479 410.31 136.89 411.872 131.332C412.787 128.081 413.458 124.542 412.489 121.564C412.521 121.679 412.726 122.746 411.224 127.653C409.622 132.885 406.023 141.41 404.879 149.431Z" fill="#E66637"/>
<path fill-rule="evenodd" clip-rule="evenodd" d="M403.547 129.256C403.547 136.488 397.678 142.606 390.438 142.92C383.197 143.234 377.328 137.626 377.328 130.394L403.547 129.256Z" fill="#591410"/>
<path fill-rule="evenodd" clip-rule="evenodd" d="M379.289 130.309L401.704 129.337C399.501 134.325 383.001 137.485 379.289 130.309Z" fill="#CCCCCC"/>
<path fill-rule="evenodd" clip-rule="evenodd" d="M401.705 129.337C400.303 132.51 393.116 134.942 387.115 134.446C385.26 133.007 386.248 131.085 390.533 130.61C394.819 130.134 401.705 129.337 401.705 129.337Z" fill="white"/>
<path fill-rule="evenodd" clip-rule="evenodd" d="M400.196 98.2671L400.002 98.3105C395.87 99.2277 393.241 103.354 394.16 107.481L394.16 107.483C395.079 111.611 399.21 114.236 403.342 113.318L403.537 113.274C407.669 112.357 410.298 108.231 409.38 104.103L409.379 104.101C408.46 99.9741 404.328 97.349 400.196 98.2671Z" fill="white"/>
<path fill-rule="evenodd" clip-rule="evenodd" d="M403.115 103.053L403.02 103.074C401.011 103.521 399.733 105.528 400.179 107.535V107.536C400.626 109.542 402.635 110.819 404.644 110.374L404.739 110.353C406.748 109.906 408.028 107.899 407.581 105.892V105.891C407.133 103.883 405.124 102.606 403.115 103.053Z" fill="black"/>
<path fill-rule="evenodd" clip-rule="evenodd" d="M338.594 346.548L343.088 358.508L386.492 352.475V339.497L338.594 346.548Z" fill="#9946C2"/>
<path fill-rule="evenodd" clip-rule="evenodd" d="M374.531 354.138L386.494 352.475V339.497L376.63 340.949L374.531 354.138Z" fill="#C859FF"/>
<path fill-rule="evenodd" clip-rule="evenodd" d="M350.093 238.066L336.441 241.372L337.261 289.448L351.427 291.172L350.093 238.066Z" fill="#AB4ED9"/>
<path fill-rule="evenodd" clip-rule="evenodd" d="M336.441 241.372L337.261 289.448L351.427 291.172C351.427 291.172 347.157 280.491 344.882 264.729C342.607 248.966 336.441 241.372 336.441 241.372Z" fill="#8D3EB5"/>
<path fill-rule="evenodd" clip-rule="evenodd" d="M279.333 318.235L281.022 323.728L286.521 325.416L281.022 327.104L279.333 332.597L277.643 327.104L272.145 325.416L277.643 323.728L279.333 318.235Z" fill="#FFFF00"/>
<path fill-rule="evenodd" clip-rule="evenodd" d="M228.927 367.113L229.871 370.182L232.943 371.125L229.871 372.068L228.927 375.137L227.982 372.068L224.91 371.125L227.982 370.182L228.927 367.113Z" fill="#FFFF00"/>
<path fill-rule="evenodd" clip-rule="evenodd" d="M326.705 329.167L327.648 332.236L330.721 333.179L327.648 334.122L326.705 337.191L325.76 334.122L322.687 333.179L325.76 332.236L326.705 329.167Z" fill="#FFFF00"/>
<path fill-rule="evenodd" clip-rule="evenodd" d="M466.411 343.14L467.355 346.209L470.428 347.152L467.355 348.095L466.411 351.164L465.468 348.095L462.395 347.152L465.468 346.209L466.411 343.14Z" fill="#FFFF00"/>
<path fill-rule="evenodd" clip-rule="evenodd" d="M503.118 300.445L504.808 305.938L510.307 307.626L504.808 309.313L503.118 314.806L501.429 309.313L495.93 307.626L501.429 305.938L503.118 300.445Z" fill="#FFFF00"/>
<path fill-rule="evenodd" clip-rule="evenodd" d="M594.806 187.901L595.749 190.97L598.823 191.913L595.749 192.856L594.806 195.925L593.862 192.856L590.789 191.913L593.862 190.97L594.806 187.901Z" fill="#FFFF00"/>
<path fill-rule="evenodd" clip-rule="evenodd" d="M435.668 373.304C430.443 373.269 425.747 374.224 422.558 375.762L418.347 375.733L418.289 380.548C418.241 384.613 425.943 387.961 435.494 388.025C445.044 388.088 452.824 384.845 452.873 380.78L452.93 375.965L448.719 375.937C445.566 374.356 440.894 373.339 435.668 373.304Z" fill="#FF9500"/>
<path fill-rule="evenodd" clip-rule="evenodd" d="M424.328 386.202C425.838 386.76 427.574 387.211 429.47 387.525L429.604 376.118L424.447 376.083L424.328 386.202Z" fill="#FFB71C"/>
<path fill-rule="evenodd" clip-rule="evenodd" d="M442.242 387.489C448.454 386.412 452.834 383.827 452.871 380.78L452.928 375.965L448.717 375.938C447.008 375.08 444.852 374.389 442.404 373.93L442.242 387.489Z" fill="#FFB71C"/>
<path fill-rule="evenodd" clip-rule="evenodd" d="M435.723 368.488C426.173 368.425 418.393 371.668 418.344 375.733C418.296 379.799 425.999 383.147 435.548 383.21C445.098 383.274 452.878 380.03 452.927 375.965C452.975 371.9 445.272 368.552 435.723 368.488Z" fill="#FFE70A"/>
<path fill-rule="evenodd" clip-rule="evenodd" d="M435.692 371.266C429.144 371.222 423.812 373.238 423.781 375.769C423.751 378.3 429.036 380.387 435.583 380.432C442.131 380.475 447.463 378.46 447.493 375.929C447.524 373.398 442.24 371.311 435.692 371.266Z" fill="#FFB71C"/>
<path fill-rule="evenodd" clip-rule="evenodd" d="M410.95 378.27C406.131 378.238 401.801 379.119 398.859 380.538L394.975 380.512L394.922 384.952C394.878 388.701 401.981 391.788 410.788 391.847C419.595 391.906 426.77 388.915 426.815 385.166L426.867 380.726L422.983 380.7C420.078 379.242 415.769 378.303 410.95 378.27Z" fill="#FF9500"/>
<path fill-rule="evenodd" clip-rule="evenodd" d="M400.492 390.166C401.884 390.681 403.486 391.096 405.234 391.386L405.358 380.866L400.603 380.834L400.492 390.166Z" fill="#FFB71C"/>
<path fill-rule="evenodd" clip-rule="evenodd" d="M417.016 391.353C422.745 390.359 426.784 387.976 426.817 385.165L426.87 380.725L422.986 380.7C421.41 379.909 419.422 379.271 417.163 378.848L417.016 391.353Z" fill="#FFB71C"/>
<path fill-rule="evenodd" clip-rule="evenodd" d="M411.003 373.83C402.197 373.771 395.021 376.762 394.977 380.511C394.932 384.26 402.036 387.348 410.843 387.407C419.65 387.466 426.825 384.474 426.869 380.725C426.915 376.976 419.81 373.889 411.003 373.83Z" fill="#FFE70A"/>
<path fill-rule="evenodd" clip-rule="evenodd" d="M410.972 376.392C404.934 376.352 400.016 378.211 399.988 380.544C399.961 382.878 404.833 384.803 410.873 384.843C416.911 384.884 421.829 383.025 421.857 380.691C421.884 378.358 417.012 376.433 410.972 376.392Z" fill="#FFB71C"/>
<path fill-rule="evenodd" clip-rule="evenodd" d="M418.422 369.158C413.603 369.126 409.273 370.007 406.332 371.425L402.447 371.4L402.395 375.84C402.35 379.589 409.454 382.676 418.261 382.735C427.067 382.794 434.243 379.803 434.287 376.054L434.34 371.614L430.456 371.588C427.551 370.129 423.241 369.191 418.422 369.158Z" fill="#FF9500"/>
<path fill-rule="evenodd" clip-rule="evenodd" d="M407.965 381.054C409.358 381.569 410.959 381.984 412.706 382.274L412.831 371.754L408.075 371.722L407.965 381.054Z" fill="#FFB71C"/>
<path fill-rule="evenodd" clip-rule="evenodd" d="M424.488 382.242C430.217 381.248 434.257 378.865 434.29 376.054L434.343 371.614L430.458 371.588C428.882 370.797 426.895 370.16 424.636 369.736L424.488 382.242Z" fill="#FFB71C"/>
<path fill-rule="evenodd" clip-rule="evenodd" d="M418.476 364.719C409.669 364.66 402.494 367.652 402.449 371.401C402.405 375.15 409.508 378.237 418.315 378.296C427.122 378.355 434.297 375.364 434.342 371.615C434.386 367.866 427.283 364.778 418.476 364.719Z" fill="#FFE70A"/>
<path fill-rule="evenodd" clip-rule="evenodd" d="M418.445 367.282C412.407 367.241 407.489 369.101 407.461 371.434C407.433 373.768 412.307 375.692 418.345 375.733C424.384 375.774 429.302 373.914 429.329 371.581C429.357 369.247 424.484 367.323 418.445 367.282Z" fill="#FFB71C"/>
<path fill-rule="evenodd" clip-rule="evenodd" d="M466.336 377.026C461.517 376.994 457.187 377.875 454.246 379.293L450.361 379.268L450.309 383.708C450.264 387.458 457.368 390.544 466.175 390.603C474.982 390.662 482.157 387.671 482.201 383.922L482.254 379.482L478.37 379.456C475.465 377.997 471.155 377.059 466.336 377.026Z" fill="#FF9500"/>
<path fill-rule="evenodd" clip-rule="evenodd" d="M455.879 388.922C457.272 389.437 458.873 389.852 460.62 390.142L460.745 379.622L455.989 379.59L455.879 388.922Z" fill="#FFB71C"/>
<path fill-rule="evenodd" clip-rule="evenodd" d="M472.402 390.11C478.131 389.116 482.171 386.733 482.204 383.922L482.257 379.482L478.372 379.456C476.796 378.666 474.809 378.028 472.55 377.604L472.402 390.11Z" fill="#FFB71C"/>
<path fill-rule="evenodd" clip-rule="evenodd" d="M466.39 372.586C457.583 372.527 450.408 375.518 450.363 379.267C450.319 383.016 457.423 386.104 466.229 386.163C475.036 386.222 482.212 383.231 482.256 379.482C482.301 375.732 475.197 372.645 466.39 372.586Z" fill="#FFE70A"/>
<path fill-rule="evenodd" clip-rule="evenodd" d="M466.359 375.148C460.321 375.108 455.403 376.967 455.375 379.301C455.347 381.635 460.221 383.56 466.259 383.6C472.298 383.641 477.216 381.782 477.243 379.448C477.271 377.114 472.398 375.189 466.359 375.148Z" fill="#FFB71C"/>
<path fill-rule="evenodd" clip-rule="evenodd" d="M446.262 366.242C441.443 366.21 437.113 367.091 434.171 368.509L430.287 368.483L430.235 372.923C430.19 376.673 437.294 379.76 446.101 379.819C454.907 379.878 462.083 376.887 462.127 373.138L462.18 368.697L458.296 368.672C455.39 367.213 451.081 366.274 446.262 366.242Z" fill="#FF9500"/>
<path fill-rule="evenodd" clip-rule="evenodd" d="M435.805 378.137C437.197 378.652 438.798 379.067 440.546 379.357L440.671 368.837L435.916 368.806L435.805 378.137Z" fill="#FFB71C"/>
<path fill-rule="evenodd" clip-rule="evenodd" d="M452.328 379.326C458.057 378.332 462.097 375.949 462.13 373.138L462.182 368.698L458.298 368.672C456.722 367.881 454.734 367.244 452.476 366.82L452.328 379.326Z" fill="#FFB71C"/>
<path fill-rule="evenodd" clip-rule="evenodd" d="M446.316 361.8C437.509 361.741 430.334 364.732 430.289 368.481C430.245 372.231 437.348 375.317 446.155 375.377C454.962 375.436 462.138 372.444 462.182 368.695C462.227 364.946 455.123 361.86 446.316 361.8Z" fill="#FFE70A"/>
<path fill-rule="evenodd" clip-rule="evenodd" d="M446.285 364.364C440.247 364.323 435.329 366.183 435.301 368.517C435.273 370.851 440.147 372.775 446.185 372.816C452.224 372.857 457.142 370.997 457.169 368.664C457.197 366.329 452.324 364.405 446.285 364.364Z" fill="#FFB71C"/>
<path fill-rule="evenodd" clip-rule="evenodd" d="M155.77 384.161C151.822 384.134 148.275 384.856 145.866 386.018L142.684 385.997L142.641 389.634C142.605 392.706 148.423 395.234 155.639 395.283C162.854 395.331 168.731 392.881 168.768 389.81L168.811 386.172L165.63 386.151C163.248 384.956 159.718 384.188 155.77 384.161Z" fill="#FF9500"/>
<path fill-rule="evenodd" clip-rule="evenodd" d="M147.203 393.907C148.344 394.328 149.656 394.669 151.087 394.906L151.189 386.288L147.293 386.262L147.203 393.907Z" fill="#FFB71C"/>
<path fill-rule="evenodd" clip-rule="evenodd" d="M160.738 394.879C165.432 394.065 168.741 392.112 168.767 389.81L168.81 386.173L165.628 386.152C164.338 385.504 162.709 384.982 160.859 384.635L160.738 394.879Z" fill="#FFB71C"/>
<path fill-rule="evenodd" clip-rule="evenodd" d="M155.813 380.524C148.598 380.476 142.72 382.927 142.684 385.998C142.648 389.069 148.466 391.599 155.682 391.647C162.896 391.695 168.774 389.244 168.811 386.173C168.846 383.101 163.028 380.572 155.813 380.524Z" fill="#FFE70A"/>
<path fill-rule="evenodd" clip-rule="evenodd" d="M155.787 382.624C150.841 382.59 146.811 384.114 146.789 386.026C146.766 387.937 150.758 389.514 155.705 389.548C160.652 389.581 164.681 388.057 164.703 386.147C164.726 384.234 160.735 382.657 155.787 382.624Z" fill="#FFB71C"/>
<path fill-rule="evenodd" clip-rule="evenodd" d="M176.602 382.939C172.655 382.913 169.107 383.634 166.698 384.797L163.516 384.776L163.473 388.413C163.437 391.485 169.255 394.013 176.471 394.062C183.686 394.11 189.563 391.66 189.6 388.588L189.642 384.951L186.461 384.93C184.079 383.735 180.55 382.965 176.602 382.939Z" fill="#FF9500"/>
<path fill-rule="evenodd" clip-rule="evenodd" d="M168.035 392.685C169.176 393.106 170.488 393.447 171.919 393.684L172.021 385.066L168.125 385.04L168.035 392.685Z" fill="#FFB71C"/>
<path fill-rule="evenodd" clip-rule="evenodd" d="M181.57 393.657C186.264 392.843 189.573 390.89 189.599 388.589L189.642 384.951L186.461 384.93C185.17 384.282 183.541 383.76 181.691 383.413L181.57 393.657Z" fill="#FFB71C"/>
<path fill-rule="evenodd" clip-rule="evenodd" d="M176.645 379.3C169.43 379.253 163.552 381.703 163.516 384.774C163.48 387.845 169.298 390.374 176.514 390.423C183.728 390.471 189.606 388.02 189.643 384.949C189.679 381.879 183.859 379.349 176.645 379.3Z" fill="#FFE70A"/>
<path fill-rule="evenodd" clip-rule="evenodd" d="M176.619 381.4C171.673 381.367 167.643 382.89 167.621 384.802C167.598 386.714 171.59 388.291 176.537 388.324C181.484 388.357 185.513 386.834 185.535 384.923C185.558 383.011 181.566 381.434 176.619 381.4Z" fill="#FFB71C"/>
<path fill-rule="evenodd" clip-rule="evenodd" d="M201.52 384.877C197.573 384.85 194.025 385.572 191.616 386.734L188.434 386.713L188.391 390.35C188.355 393.422 194.173 395.95 201.389 395.999C208.604 396.048 214.481 393.597 214.517 390.526L214.561 386.888L211.38 386.867C208.997 385.672 205.468 384.903 201.52 384.877Z" fill="#FF9500"/>
<path fill-rule="evenodd" clip-rule="evenodd" d="M192.953 394.622C194.094 395.044 195.406 395.384 196.837 395.621L196.939 387.003L193.043 386.977L192.953 394.622Z" fill="#FFB71C"/>
<path fill-rule="evenodd" clip-rule="evenodd" d="M206.488 395.594C211.182 394.78 214.491 392.827 214.517 390.525L214.561 386.888L211.379 386.867C210.088 386.219 208.46 385.697 206.61 385.35L206.488 395.594Z" fill="#FFB71C"/>
<path fill-rule="evenodd" clip-rule="evenodd" d="M201.563 381.24C194.348 381.192 188.47 383.643 188.434 386.713C188.398 389.784 194.216 392.314 201.432 392.362C208.646 392.41 214.524 389.96 214.561 386.889C214.596 383.817 208.777 381.289 201.563 381.24Z" fill="#FFE70A"/>
<path fill-rule="evenodd" clip-rule="evenodd" d="M201.537 383.339C196.591 383.306 192.561 384.83 192.539 386.741C192.516 388.653 196.508 390.23 201.455 390.263C206.402 390.297 210.431 388.773 210.453 386.862C210.476 384.95 206.484 383.373 201.537 383.339Z" fill="#FFB71C"/>
<path fill-rule="evenodd" clip-rule="evenodd" d="M187.11 376.297C183.162 376.27 179.614 376.991 177.205 378.154L174.024 378.133L173.981 381.77C173.945 384.842 179.763 387.37 186.978 387.419C194.194 387.467 200.071 385.017 200.107 381.946L200.151 378.308L196.969 378.287C194.587 377.092 191.058 376.322 187.11 376.297Z" fill="#FF9500"/>
<path fill-rule="evenodd" clip-rule="evenodd" d="M178.543 386.042C179.684 386.464 180.995 386.804 182.427 387.041L182.529 378.423L178.633 378.397L178.543 386.042Z" fill="#FFB71C"/>
<path fill-rule="evenodd" clip-rule="evenodd" d="M192.078 387.014C196.772 386.2 200.08 384.246 200.107 381.945L200.151 378.308L196.969 378.286C195.678 377.639 194.049 377.116 192.2 376.77L192.078 387.014Z" fill="#FFB71C"/>
<path fill-rule="evenodd" clip-rule="evenodd" d="M187.152 372.658C179.938 372.61 174.059 375.061 174.023 378.131C173.987 381.202 179.806 383.732 187.021 383.78C194.235 383.828 200.114 381.378 200.151 378.307C200.186 375.236 194.367 372.707 187.152 372.658Z" fill="#FFE70A"/>
<path fill-rule="evenodd" clip-rule="evenodd" d="M187.127 374.757C182.18 374.724 178.151 376.248 178.129 378.159C178.106 380.071 182.098 381.648 187.045 381.681C191.991 381.715 196.021 380.191 196.043 378.279C196.066 376.368 192.074 374.79 187.127 374.757Z" fill="#FFB71C"/>
<path fill-rule="evenodd" clip-rule="evenodd" d="M292.438 384.224C288.491 384.198 284.943 384.919 282.533 386.082L279.352 386.061L279.309 389.698C279.273 392.77 285.091 395.298 292.307 395.347C299.522 395.395 305.399 392.945 305.436 389.873L305.48 386.236L302.298 386.215C299.915 385.02 296.385 384.251 292.438 384.224Z" fill="#FF9500"/>
<path fill-rule="evenodd" clip-rule="evenodd" d="M283.871 393.97C285.012 394.391 286.324 394.732 287.756 394.969L287.858 386.351L283.962 386.325L283.871 393.97Z" fill="#FFB71C"/>
<path fill-rule="evenodd" clip-rule="evenodd" d="M297.406 394.941C302.1 394.127 305.408 392.174 305.435 389.873L305.479 386.235L302.297 386.214C301.006 385.566 299.377 385.044 297.528 384.697L297.406 394.941Z" fill="#FFB71C"/>
<path fill-rule="evenodd" clip-rule="evenodd" d="M292.481 380.588C285.266 380.54 279.388 382.99 279.352 386.061C279.316 389.132 285.134 391.661 292.35 391.71C299.564 391.759 305.442 389.307 305.478 386.236C305.514 383.165 299.696 380.636 292.481 380.588Z" fill="#FFE70A"/>
<path fill-rule="evenodd" clip-rule="evenodd" d="M292.455 382.687C287.509 382.654 283.479 384.177 283.457 386.089C283.434 388.001 287.426 389.578 292.373 389.611C297.32 389.644 301.349 388.121 301.371 386.21C301.393 384.297 297.402 382.72 292.455 382.687Z" fill="#FFB71C"/>
<path fill-rule="evenodd" clip-rule="evenodd" d="M633.019 376.131C628.969 376.103 625.331 376.844 622.859 378.036L619.595 378.014L619.551 381.746C619.514 384.897 625.483 387.49 632.884 387.54C640.285 387.59 646.315 385.076 646.352 381.926L646.396 378.194L643.133 378.173C640.69 376.947 637.068 376.158 633.019 376.131Z" fill="#FF9500"/>
<path fill-rule="evenodd" clip-rule="evenodd" d="M624.23 386.125C625.401 386.558 626.746 386.907 628.215 387.151L628.32 378.31L624.323 378.283L624.23 386.125Z" fill="#FFB71C"/>
<path fill-rule="evenodd" clip-rule="evenodd" d="M638.117 387.124C642.932 386.289 646.325 384.286 646.354 381.925L646.398 378.193L643.135 378.172C641.811 377.508 640.14 376.971 638.243 376.616L638.117 387.124Z" fill="#FFB71C"/>
<path fill-rule="evenodd" clip-rule="evenodd" d="M633.066 372.398C625.665 372.348 619.635 374.863 619.598 378.013C619.56 381.164 625.53 383.758 632.931 383.808C640.332 383.857 646.362 381.343 646.399 378.193C646.436 375.042 640.467 372.447 633.066 372.398Z" fill="#FFE70A"/>
<path fill-rule="evenodd" clip-rule="evenodd" d="M633.039 374.552C627.964 374.518 623.832 376.08 623.809 378.042C623.786 380.004 627.88 381.621 632.955 381.654C638.029 381.689 642.161 380.126 642.185 378.165C642.208 376.203 638.114 374.586 633.039 374.552Z" fill="#FFB71C"/>
<path fill-rule="evenodd" clip-rule="evenodd" d="M610.574 378.761C606.524 378.733 602.885 379.474 600.414 380.666L597.15 380.644L597.106 384.375C597.069 387.526 603.038 390.12 610.439 390.17C617.84 390.22 623.87 387.705 623.907 384.555L623.951 380.824L620.688 380.803C618.244 379.576 614.623 378.787 610.574 378.761Z" fill="#FF9500"/>
<path fill-rule="evenodd" clip-rule="evenodd" d="M601.785 388.755C602.956 389.188 604.3 389.537 605.77 389.78L605.874 380.94L601.878 380.913L601.785 388.755Z" fill="#FFB71C"/>
<path fill-rule="evenodd" clip-rule="evenodd" d="M615.672 389.754C620.486 388.919 623.88 386.916 623.909 384.554L623.953 380.823L620.69 380.802C619.366 380.137 617.695 379.601 615.797 379.246L615.672 389.754Z" fill="#FFB71C"/>
<path fill-rule="evenodd" clip-rule="evenodd" d="M610.617 375.028C603.216 374.978 597.186 377.493 597.149 380.643C597.111 383.794 603.081 386.388 610.482 386.437C617.883 386.487 623.913 383.973 623.95 380.823C623.987 377.672 618.017 375.077 610.617 375.028Z" fill="#FFE70A"/>
<path fill-rule="evenodd" clip-rule="evenodd" d="M610.593 377.181C605.518 377.147 601.386 378.709 601.363 380.671C601.34 382.633 605.435 384.25 610.509 384.283C615.584 384.318 619.716 382.755 619.74 380.794C619.763 378.833 615.668 377.215 610.593 377.181Z" fill="#FFB71C"/>
<path fill-rule="evenodd" clip-rule="evenodd" d="M596.365 366.971C593.015 364.699 589.577 363.293 586.86 362.911L584.16 361.08L582.046 364.156C580.262 366.755 583.779 372.227 589.903 376.378C596.026 380.53 602.438 381.79 604.222 379.192L606.336 376.116L603.636 374.285C602.286 371.909 599.715 369.242 596.365 366.971Z" fill="#FF9500"/>
<path fill-rule="evenodd" clip-rule="evenodd" d="M583.496 370.397C584.228 371.407 585.151 372.445 586.238 373.462L591.246 366.173L587.939 363.931L583.496 370.397Z" fill="#FFB71C"/>
<path fill-rule="evenodd" clip-rule="evenodd" d="M594.48 378.94C598.947 380.92 602.883 381.139 604.221 379.192L606.335 376.116L603.635 374.285C602.904 372.997 601.813 371.624 600.435 370.274L594.48 378.94Z" fill="#FFB71C"/>
<path fill-rule="evenodd" clip-rule="evenodd" d="M598.479 363.894C592.356 359.742 585.944 358.482 584.16 361.08C582.375 363.677 585.892 369.15 592.016 373.301C598.139 377.454 604.551 378.714 606.336 376.116C608.121 373.518 604.604 368.046 598.479 363.894Z" fill="#FFE70A"/>
<path fill-rule="evenodd" clip-rule="evenodd" d="M597.257 365.671C593.058 362.824 588.753 361.827 587.643 363.445C586.531 365.062 589.035 368.681 593.233 371.528C597.431 374.374 601.737 375.372 602.847 373.754C603.958 372.137 601.455 368.518 597.257 365.671Z" fill="#FFB71C"/>
<path fill-rule="evenodd" clip-rule="evenodd" d="M211.168 375.113C207.386 376.243 204.206 377.972 202.244 379.788L199.195 380.699L200.222 384.19C201.088 387.137 207.393 387.851 214.306 385.785C221.218 383.719 226.118 379.656 225.252 376.708L224.226 373.218L221.177 374.129C218.55 373.685 214.949 373.983 211.168 375.113Z" fill="#FF9500"/>
<path fill-rule="evenodd" clip-rule="evenodd" d="M205.837 386.937C207.051 387.006 208.405 386.948 209.844 386.755L207.412 378.485L203.68 379.601L205.837 386.937Z" fill="#FFB71C"/>
<path fill-rule="evenodd" clip-rule="evenodd" d="M219.061 383.906C223.31 381.754 225.901 378.917 225.251 376.708L224.225 373.218L221.177 374.129C219.752 373.889 218.042 373.866 216.172 374.075L219.061 383.906Z" fill="#FFB71C"/>
<path fill-rule="evenodd" clip-rule="evenodd" d="M210.14 371.622C203.228 373.688 198.327 377.751 199.193 380.698C200.059 383.646 206.365 384.36 213.277 382.294C220.189 380.228 225.09 376.164 224.223 373.217C223.358 370.27 217.052 369.556 210.14 371.622Z" fill="#FFE70A"/>
<path fill-rule="evenodd" clip-rule="evenodd" d="M210.735 373.637C205.997 375.053 202.591 377.689 203.13 379.524C203.67 381.358 207.949 381.697 212.688 380.28C217.428 378.864 220.833 376.229 220.293 374.394C219.755 372.559 215.475 372.22 210.735 373.637Z" fill="#FFB71C"/>
<path fill-rule="evenodd" clip-rule="evenodd" d="M146.025 338.342L148.803 347.378L157.849 350.154L148.803 352.93L146.025 361.966L143.245 352.93L134.199 350.154L143.245 347.378L146.025 338.342Z" fill="#44528A"/>
<path fill-rule="evenodd" clip-rule="evenodd" d="M273.521 132.044L276.299 141.08L285.346 143.857L276.299 146.632L273.521 155.668L270.741 146.632L261.695 143.857L270.741 141.08L273.521 132.044Z" fill="#44528A"/>
<path fill-rule="evenodd" clip-rule="evenodd" d="M480.646 111.889L482.199 116.938L487.254 118.489L482.199 120.04L480.646 125.089L479.094 120.04L474.039 118.489L479.094 116.938L480.646 111.889Z" fill="#44528A"/>
<path d="M662.981 127.634L663.453 124.295L666.275 104.256L620.328 97.8008L618.466 110.999L616.656 124.21L620.799 124.772L662.578 130.488L662.981 127.634Z" fill="#5263A5"/>
<path d="M663.215 125.919L663.688 122.58L666.509 102.541L620.562 96.0869L618.702 109.284L616.891 122.495L621.034 123.057L662.815 128.774L663.215 125.919Z" fill="#3E4B7D"/>
<path d="M627.915 100.154C627.526 102.813 625.08 104.664 622.423 104.331L620.914 115.023C623.611 115.408 625.489 117.898 625.105 120.592L655.433 124.856L655.435 124.853C655.806 122.181 658.265 120.315 660.936 120.656L662.454 109.884C659.792 109.507 657.932 107.077 658.247 104.419L627.915 100.154ZM623.923 110.012C624.144 108.439 625.601 107.339 627.179 107.558C628.759 107.781 629.858 109.238 629.635 110.816C629.412 112.394 627.952 113.488 626.375 113.267C624.799 113.047 623.7 111.588 623.923 110.012ZM659.325 114.913C659.103 116.491 657.641 117.588 656.067 117.367C654.486 117.144 653.387 115.687 653.61 114.111C653.83 112.533 655.292 111.435 656.867 111.656C658.448 111.875 659.545 113.337 659.325 114.913ZM651.137 113.759C650.402 118.976 645.576 122.608 640.357 121.871C635.139 121.141 631.505 116.32 632.237 111.106C632.97 105.891 637.799 102.261 643.017 102.99C648.237 103.725 651.871 108.547 651.137 113.759Z" fill="#8696DB"/>
<path d="M632.239 111.105C631.505 116.319 635.14 121.139 640.359 121.869C645.578 122.606 650.404 118.974 651.14 113.757C651.872 108.546 648.238 103.723 643.018 102.989C637.8 102.26 632.972 105.89 632.239 111.105ZM642.724 105.085L643.629 105.211L643.372 107.052C643.618 107.152 643.849 107.279 644.064 107.444C644.501 107.766 644.831 108.187 645.042 108.693C645.256 109.198 645.332 109.747 645.284 110.332L643.223 110.047C643.243 109.694 643.16 109.403 642.969 109.172C642.784 108.948 642.53 108.812 642.207 108.757C642.194 108.759 642.182 108.756 642.172 108.75C641.854 108.71 641.585 108.776 641.358 108.956C641.135 109.139 640.997 109.397 640.952 109.725C640.901 110.047 640.964 110.316 641.137 110.544C641.278 110.725 641.529 110.918 641.877 111.119C641.954 111.163 642.03 111.206 642.116 111.252L642.557 111.472C643.243 111.826 643.752 112.181 644.085 112.53C644.755 113.257 645.019 114.115 644.883 115.099C644.793 115.735 644.553 116.294 644.169 116.782C643.782 117.264 643.302 117.624 642.724 117.853C642.425 117.972 642.124 118.047 641.815 118.082L641.559 119.904L640.652 119.777L639.853 119.666L640.105 117.867C639.456 117.633 638.91 117.227 638.483 116.646C638.216 116.289 638.032 115.908 637.943 115.501C637.843 115.176 637.814 114.765 637.86 114.273L639.949 114.566C639.921 114.994 640.018 115.346 640.244 115.628C640.464 115.893 640.774 116.054 641.168 116.127C641.193 116.132 641.213 116.136 641.24 116.142C641.655 116.197 642.014 116.116 642.32 115.895C642.623 115.67 642.804 115.356 642.861 114.957C642.927 114.488 642.815 114.093 642.526 113.766C642.33 113.545 642.019 113.314 641.595 113.085C641.482 113.021 641.37 112.961 641.238 112.9C641.017 112.793 640.875 112.722 640.829 112.7C640.468 112.503 640.191 112.322 639.992 112.158C639.598 111.826 639.314 111.418 639.125 110.931C638.939 110.44 638.882 109.939 638.954 109.428C639.032 108.879 639.244 108.391 639.591 107.963C639.938 107.534 640.376 107.219 640.9 107.017C641.148 106.918 641.401 106.857 641.659 106.825L641.921 104.974L642.724 105.085Z" fill="#3E4B7D"/>
<path d="M640.9 107.018C640.377 107.219 639.938 107.534 639.593 107.963C639.243 108.391 639.034 108.88 638.953 109.43C638.882 109.939 638.938 110.441 639.124 110.932C639.314 111.419 639.598 111.827 639.993 112.157C640.19 112.322 640.467 112.503 640.828 112.701C640.878 112.724 641.019 112.793 641.239 112.9C641.37 112.962 641.483 113.024 641.596 113.084C642.019 113.315 642.331 113.547 642.526 113.767C642.817 114.093 642.928 114.489 642.861 114.958C642.804 115.357 642.622 115.671 642.32 115.896C642.017 116.117 641.654 116.199 641.24 116.143C641.215 116.139 641.193 116.133 641.168 116.128C640.775 116.055 640.466 115.895 640.245 115.629C640.019 115.347 639.921 114.994 639.951 114.565L637.861 114.274C637.816 114.767 637.843 115.177 637.943 115.502C638.034 115.91 638.218 116.289 638.485 116.646C638.912 117.227 639.456 117.634 640.108 117.87L639.853 119.667L640.652 119.778L641.558 119.906L641.816 118.083C642.126 118.05 642.426 117.973 642.727 117.855C643.301 117.625 643.783 117.264 644.17 116.785C644.553 116.298 644.793 115.738 644.883 115.101C645.019 114.116 644.754 113.259 644.086 112.534C643.751 112.182 643.245 111.829 642.556 111.473L642.115 111.253C642.029 111.208 641.954 111.164 641.878 111.121C641.529 110.919 641.278 110.726 641.137 110.545C640.965 110.318 640.903 110.047 640.952 109.727C640.997 109.397 641.135 109.141 641.359 108.958C641.585 108.778 641.856 108.711 642.174 108.75C642.184 108.755 642.196 108.761 642.208 108.759C642.53 108.814 642.785 108.952 642.969 109.173C643.16 109.405 643.245 109.695 643.226 110.05L645.285 110.334C645.334 109.747 645.257 109.2 645.043 108.695C644.831 108.188 644.501 107.768 644.064 107.445C643.851 107.282 643.619 107.154 643.374 107.052L643.63 105.213L642.725 105.086L641.924 104.976L641.662 106.826C641.401 106.86 641.147 106.919 640.9 107.018Z" fill="#202A56"/>
<path d="M620.993 123.079L662.856 128.809L663.258 125.949L663.731 122.601L666.559 102.523L620.521 96.0566L618.656 109.281L616.84 122.517L620.993 123.079ZM625.106 120.593C625.491 117.899 623.613 115.409 620.914 115.022L622.423 104.331C625.08 104.664 627.526 102.814 627.916 100.155L658.248 104.42C657.933 107.077 659.791 109.506 662.453 109.884L660.935 120.655C658.264 120.315 655.806 122.182 655.434 124.852V124.857L625.106 120.593Z" fill="#3E4B7D"/>
<path d="M551.887 253.326L551.313 250.498L547.861 233.534L508.965 241.434L511.236 252.609L513.553 263.777L517.055 263.048L552.378 255.741L551.887 253.326Z" fill="#5263A5"/>
<path d="M551.586 251.876L551.013 249.049L547.559 232.085L508.664 239.985L510.936 251.158L513.252 262.328L516.754 261.6L552.08 254.292L551.586 251.876Z" fill="#3E4B7D"/>
<path d="M515.754 241.167C516.201 243.422 514.758 245.611 512.52 246.102L514.36 255.154C516.645 254.695 518.871 256.168 519.331 258.449L545.006 253.238V253.235C544.542 250.975 545.991 248.768 548.243 248.281L546.388 239.161C544.133 239.616 541.938 238.187 541.433 235.954L515.754 241.167ZM515.354 250.254C515.083 248.923 515.943 247.62 517.278 247.347C518.615 247.077 519.92 247.937 520.189 249.274C520.461 250.609 519.596 251.909 518.261 252.179C516.928 252.451 515.624 251.589 515.354 250.254ZM545.303 244.109C545.574 245.445 544.71 246.746 543.377 247.017C542.038 247.289 540.735 246.427 540.465 245.093C540.191 243.758 541.057 242.455 542.389 242.184C543.727 241.909 545.029 242.775 545.303 244.109ZM538.37 245.513C539.268 249.931 536.414 254.235 531.995 255.13C527.58 256.029 523.27 253.178 522.37 248.766C521.47 244.352 524.327 240.046 528.743 239.147C533.163 238.25 537.471 241.102 538.37 245.513Z" fill="#8696DB"/>
<path d="M522.373 248.765C523.272 253.18 527.581 256.029 531.998 255.129C536.417 254.234 539.27 249.93 538.373 245.513C537.473 241.102 533.165 238.249 528.745 239.145C524.329 240.046 521.473 244.351 522.373 248.765ZM529.107 240.92L529.873 240.764L530.192 242.322C530.418 242.332 530.642 242.369 530.862 242.44C531.306 242.576 531.693 242.82 532.007 243.169C532.324 243.516 532.542 243.936 532.67 244.421L530.926 244.78C530.842 244.489 530.691 244.278 530.471 244.146C530.258 244.019 530.014 243.981 529.738 244.029C529.728 244.034 529.717 244.034 529.708 244.034C529.439 244.093 529.241 244.222 529.109 244.431C528.983 244.643 528.945 244.89 529.002 245.168C529.054 245.442 529.181 245.641 529.386 245.775C529.552 245.88 529.809 245.965 530.147 246.028C530.222 246.041 530.295 246.055 530.377 246.066L530.795 246.118C531.451 246.207 531.962 246.349 532.33 246.536C533.078 246.93 533.536 247.547 533.708 248.38C533.818 248.918 533.783 249.437 533.613 249.94C533.438 250.439 533.154 250.865 532.753 251.215C532.547 251.397 532.326 251.543 532.087 251.659L532.402 253.202L531.634 253.358L530.958 253.496L530.647 251.974C530.056 251.971 529.5 251.799 528.99 251.451C528.673 251.24 528.416 250.984 528.227 250.682C528.054 250.449 527.913 250.125 527.81 249.716L529.579 249.356C529.678 249.709 529.858 249.965 530.12 250.128C530.374 250.279 530.67 250.32 531.009 250.267C531.03 250.264 531.046 250.263 531.07 250.259C531.421 250.185 531.688 250.017 531.87 249.752C532.051 249.483 532.107 249.179 532.039 248.841C531.957 248.444 531.755 248.157 531.428 247.976C531.206 247.854 530.889 247.757 530.483 247.693C530.374 247.675 530.266 247.657 530.142 247.645C529.932 247.621 529.799 247.606 529.755 247.602C529.408 247.545 529.132 247.479 528.926 247.402C528.514 247.247 528.167 246.999 527.876 246.661C527.586 246.317 527.397 245.929 527.308 245.498C527.214 245.033 527.245 244.579 527.402 244.134C527.56 243.688 527.823 243.311 528.188 242.998C528.359 242.847 528.546 242.726 528.745 242.626L528.428 241.06L529.107 240.92Z" fill="#3E4B7D"/>
<path d="M528.19 243C527.825 243.311 527.561 243.691 527.406 244.135C527.247 244.58 527.218 245.034 527.309 245.499C527.398 245.93 527.586 246.32 527.876 246.663C528.168 247.001 528.514 247.249 528.928 247.403C529.134 247.479 529.409 247.547 529.756 247.603C529.802 247.607 529.936 247.623 530.143 247.647C530.266 247.659 530.376 247.678 530.484 247.694C530.89 247.76 531.209 247.858 531.429 247.979C531.757 248.159 531.959 248.446 532.04 248.845C532.108 249.183 532.051 249.487 531.871 249.755C531.69 250.02 531.421 250.188 531.071 250.262C531.049 250.266 531.031 250.268 531.009 250.272C530.67 250.324 530.376 250.284 530.121 250.132C529.859 249.969 529.679 249.712 529.58 249.358L527.811 249.719C527.916 250.129 528.055 250.452 528.228 250.685C528.419 250.988 528.675 251.241 528.992 251.453C529.502 251.8 530.057 251.973 530.65 251.977L530.959 253.499L531.635 253.361L532.403 253.206L532.089 251.662C532.33 251.547 532.549 251.4 532.757 251.219C533.155 250.87 533.44 250.442 533.615 249.944C533.785 249.442 533.818 248.923 533.709 248.384C533.537 247.55 533.079 246.934 532.332 246.54C531.962 246.352 531.453 246.211 530.796 246.121L530.378 246.069C530.296 246.057 530.222 246.045 530.149 246.031C529.81 245.968 529.552 245.883 529.387 245.778C529.183 245.644 529.056 245.443 529.003 245.171C528.945 244.892 528.983 244.646 529.111 244.435C529.243 244.225 529.441 244.094 529.71 244.035C529.719 244.036 529.73 244.038 529.74 244.032C530.015 243.985 530.26 244.023 530.472 244.149C530.692 244.282 530.844 244.492 530.929 244.782L532.67 244.424C532.543 243.937 532.324 243.518 532.007 243.172C531.692 242.823 531.306 242.579 530.861 242.443C530.642 242.373 530.419 242.336 530.192 242.323L529.873 240.767L529.107 240.923L528.429 241.063L528.747 242.63C528.549 242.729 528.361 242.849 528.19 243Z" fill="#202A56"/>
<path d="M516.727 261.628L552.123 254.307L551.63 251.887L551.054 249.052L547.595 232.055L508.621 239.972L510.898 251.167L513.218 262.359L516.727 261.628ZM519.333 258.449C518.872 256.167 516.646 254.694 514.359 255.153L512.52 246.101C514.758 245.611 516.202 243.422 515.756 241.167L541.435 235.955C541.94 238.187 544.133 239.615 546.388 239.161L548.243 248.281C545.991 248.767 544.543 250.975 545.007 253.234L545.008 253.238L519.333 258.449Z" fill="#3E4B7D"/>
<path fill-rule="evenodd" clip-rule="evenodd" d="M191.145 43.0302L202.091 62.7192L207.889 53.062L213.688 43.4058L208.215 33.5613L202.742 23.7168L191.145 43.0302Z" fill="#3D4C87"/>
<path fill-rule="evenodd" clip-rule="evenodd" d="M168.602 42.6552L191.144 43.0307L202.742 23.7173L191.471 23.5291L180.199 23.3418L174.401 32.998L168.602 42.6552Z" fill="#8696DB"/>
<path fill-rule="evenodd" clip-rule="evenodd" d="M191.144 43.0298L168.602 42.6543L174.075 52.4988L179.548 62.3433L190.819 62.5315L202.091 62.7188L191.144 43.0298Z" fill="#2C3763"/>
<path fill-rule="evenodd" clip-rule="evenodd" d="M186.367 31.2224C185.186 31.0987 183.808 31.8637 183.289 32.9294C182.77 33.9951 183.306 34.9594 184.486 35.0821C185.667 35.2048 187.045 34.4408 187.564 33.3751C188.083 32.3093 187.548 31.3451 186.367 31.2224ZM189.202 36.9894C188.021 36.8657 186.644 37.6306 186.124 38.6964C185.605 39.7621 186.141 40.7264 187.321 40.8491C188.502 40.9718 189.879 40.2078 190.399 39.142C190.918 38.0754 190.382 37.1121 189.202 36.9894ZM194.274 26.5765C193.094 26.4538 191.716 27.2178 191.196 28.2835C190.677 29.3492 191.213 30.3135 192.393 30.4362C193.573 30.5589 194.951 29.7949 195.47 28.7292C195.99 27.6634 195.455 26.7001 194.274 26.5765ZM178.46 35.8682C177.279 35.7455 175.902 36.5095 175.382 37.5753C174.863 38.641 175.399 39.6053 176.579 39.728C177.759 39.8507 179.137 39.0867 179.656 38.0209C180.175 36.9552 179.639 35.9919 178.46 35.8682ZM183.532 25.4563C182.352 25.3336 180.973 26.0976 180.454 27.1633C179.935 28.2291 180.471 29.1933 181.651 29.316C182.832 29.4387 184.21 28.6747 184.729 27.609C185.248 26.5433 184.713 25.579 183.532 25.4563Z" fill="#111A41"/>
<path fill-rule="evenodd" clip-rule="evenodd" d="M193.244 56.6976C191.913 56.5933 191.383 57.4948 192.059 58.71C192.735 59.9253 194.36 60.9956 195.691 61.099C197.021 61.2032 197.551 60.3017 196.876 59.0865C196.201 57.8713 194.574 56.8009 193.244 56.6976ZM174.537 43.8773C173.207 43.7731 172.677 44.6746 173.352 45.8898C174.028 47.1059 175.654 48.1754 176.984 48.2787C178.314 48.383 178.845 47.4815 178.169 46.2663C177.493 45.051 175.867 43.9807 174.537 43.8773ZM181.138 55.75C179.808 55.6457 179.278 56.5472 179.953 57.7624C180.629 58.9776 182.255 60.048 183.585 60.1522C184.915 60.2565 185.446 59.355 184.77 58.1398C184.094 56.9246 182.468 55.8542 181.138 55.75ZM186.643 44.8241C185.313 44.7198 184.782 45.6213 185.458 46.8365C186.134 48.0517 187.759 49.1221 189.09 49.2254C190.42 49.3297 190.95 48.4282 190.275 47.213C189.6 45.9978 187.973 44.9283 186.643 44.8241Z" fill="#111A41"/>
<path fill-rule="evenodd" clip-rule="evenodd" d="M201.193 41.0156C201.807 39.8326 202.853 39.8594 203.53 41.0746C204.205 42.2898 204.255 44.234 203.64 45.4169C203.025 46.5999 201.98 46.574 201.304 45.3579C200.627 44.1436 200.577 42.1985 201.193 41.0156Z" fill="#111A41"/>
<path d="M637.539 318.121L636.463 314.925L629.992 295.749L586.023 310.555L590.283 323.186L594.594 335.805L598.549 334.452L638.461 320.852L637.539 318.121Z" fill="#5263A5"/>
<path d="M636.98 316.484L635.904 313.286L629.433 294.111L585.465 308.917L589.725 321.546L594.035 334.167L597.991 332.814L637.904 319.214L636.98 316.484Z" fill="#3E4B7D"/>
<path d="M593.863 309.258C594.708 311.809 593.353 314.558 590.828 315.451L594.278 325.683C596.862 324.82 599.659 326.205 600.524 328.784L629.547 319.016V319.012C628.681 316.458 630.04 313.688 632.581 312.797L629.103 302.488C626.554 303.342 623.801 302.003 622.89 299.486L593.863 309.258ZM594.719 319.858C594.211 318.353 595.019 316.717 596.528 316.207C598.041 315.698 599.677 316.508 600.185 318.019C600.695 319.529 599.881 321.162 598.371 321.669C596.865 322.178 595.227 321.367 594.719 319.858ZM628.563 308.385C629.072 309.895 628.258 311.53 626.752 312.037C625.239 312.546 623.602 311.735 623.094 310.227C622.582 308.718 623.397 307.081 624.903 306.574C626.416 306.062 628.053 306.877 628.563 308.385ZM620.727 311.019C622.411 316.012 619.727 321.419 614.732 323.099C609.74 324.782 604.328 322.101 602.643 317.113C600.958 312.123 603.644 306.715 608.636 305.031C613.631 303.35 619.043 306.033 620.727 311.019Z" fill="#8696DB"/>
<path d="M602.64 317.113C604.325 322.102 609.736 324.783 614.73 323.099C619.725 321.42 622.409 316.012 620.725 311.02C619.04 306.034 613.629 303.35 608.633 305.03C603.641 306.716 600.954 312.124 602.64 317.113ZM609.31 307.037L610.177 306.745L610.773 308.505C611.037 308.484 611.301 308.495 611.567 308.546C612.102 308.638 612.586 308.867 613.002 309.225C613.419 309.58 613.734 310.037 613.953 310.581L611.983 311.25C611.842 310.926 611.637 310.702 611.362 310.581C611.096 310.464 610.808 310.456 610.495 310.551C610.483 310.559 610.471 310.56 610.46 310.56C610.157 310.667 609.947 310.846 609.824 311.108C609.708 311.372 609.699 311.664 609.806 311.978C609.906 312.289 610.083 312.502 610.339 312.627C610.547 312.726 610.858 312.786 611.258 312.81C611.347 312.815 611.435 312.82 611.532 312.822L612.025 312.821C612.798 312.83 613.413 312.92 613.866 313.083C614.792 313.432 615.412 314.08 615.733 315.022C615.939 315.63 615.974 316.238 615.851 316.846C615.72 317.45 615.452 317.986 615.039 318.449C614.826 318.689 614.591 318.891 614.33 319.061L614.919 320.805L614.051 321.098L613.287 321.357L612.706 319.636C612.021 319.717 611.35 319.598 610.708 319.27C610.309 319.07 609.974 318.812 609.711 318.488C609.477 318.243 609.266 317.888 609.086 317.428L611.085 316.754C611.252 317.149 611.497 317.421 611.825 317.572C612.141 317.709 612.491 317.715 612.875 317.604C612.9 317.598 612.918 317.593 612.945 317.586C613.341 317.45 613.626 317.216 613.8 316.882C613.97 316.545 613.99 316.183 613.862 315.801C613.711 315.353 613.434 315.049 613.028 314.886C612.754 314.775 612.372 314.709 611.89 314.694C611.761 314.687 611.633 314.684 611.488 314.687C611.243 314.69 611.085 314.692 611.033 314.693C610.622 314.678 610.292 314.64 610.042 314.583C609.54 314.463 609.103 314.225 608.716 313.875C608.329 313.519 608.054 313.097 607.889 312.609C607.711 312.083 607.683 311.551 607.8 311.013C607.918 310.474 608.168 309.997 608.546 309.582C608.723 309.383 608.921 309.215 609.139 309.071L608.542 307.299L609.31 307.037Z" fill="#3E4B7D"/>
<path d="M608.551 309.581C608.173 309.995 607.923 310.473 607.806 311.012C607.686 311.551 607.718 312.081 607.893 312.608C608.058 313.095 608.334 313.519 608.72 313.875C609.108 314.226 609.545 314.463 610.047 314.581C610.297 314.64 610.626 314.678 611.037 314.692C611.092 314.691 611.249 314.69 611.493 314.688C611.637 314.684 611.767 314.689 611.895 314.692C612.376 314.709 612.759 314.777 613.032 314.886C613.438 315.047 613.714 315.351 613.866 315.802C613.994 316.184 613.973 316.545 613.803 316.881C613.631 317.215 613.344 317.45 612.948 317.586C612.924 317.593 612.902 317.598 612.877 317.605C612.492 317.715 612.145 317.712 611.827 317.572C611.499 317.421 611.254 317.15 611.087 316.753L609.087 317.428C609.269 317.89 609.477 318.244 609.712 318.488C609.977 318.813 610.311 319.069 610.71 319.268C611.353 319.597 612.022 319.717 612.71 319.635L613.29 321.355L614.053 321.097L614.921 320.805L614.332 319.06C614.595 318.891 614.828 318.689 615.044 318.449C615.455 317.987 615.723 317.448 615.853 316.845C615.978 316.239 615.94 315.631 615.735 315.022C615.415 314.08 614.793 313.432 613.87 313.084C613.413 312.92 612.802 312.829 612.027 312.821H611.534C611.437 312.819 611.35 312.815 611.262 312.809C610.859 312.785 610.549 312.725 610.341 312.626C610.085 312.501 609.909 312.286 609.808 311.978C609.701 311.663 609.708 311.372 609.826 311.109C609.948 310.846 610.159 310.665 610.463 310.558C610.474 310.558 610.487 310.559 610.497 310.549C610.809 310.454 611.099 310.464 611.363 310.58C611.638 310.702 611.844 310.923 611.985 311.249L613.953 310.581C613.734 310.035 613.419 309.58 613.001 309.224C612.586 308.865 612.102 308.638 611.566 308.544C611.302 308.495 611.037 308.484 610.772 308.503L610.176 306.744L609.309 307.037L608.543 307.297L609.139 309.068C608.928 309.214 608.727 309.38 608.551 309.581Z" fill="#202A56"/>
<path d="M597.966 332.851L637.957 319.226L637.033 316.489L635.953 313.285L629.469 294.071L585.414 308.909L589.683 321.565L594 334.209L597.966 332.851ZM600.526 328.787C599.661 326.207 596.865 324.822 594.279 325.685L590.83 315.452C593.355 314.559 594.711 311.811 593.866 309.259L622.893 299.489C623.804 302.004 626.556 303.344 629.105 302.488L632.582 312.797C630.042 313.688 628.683 316.459 629.549 319.011L629.551 319.016L600.526 328.787Z" fill="#3E4B7D"/>
<path fill-rule="evenodd" clip-rule="evenodd" d="M206.963 138.62L216.049 141.943L221.264 154.411L230.1 144.808L226.009 134.681L214.592 131.705L210.768 124.135L203.57 128.349L206.963 138.62Z" fill="#2C3763"/>
<path fill-rule="evenodd" clip-rule="evenodd" d="M206.965 138.619L214.594 131.704L226.01 134.68L216.051 141.943L206.965 138.619Z" fill="#475696"/>
<path fill-rule="evenodd" clip-rule="evenodd" d="M684.825 249.825L675.739 253.148L670.524 265.616L661.688 256.013L665.78 245.886L677.195 242.91L681.02 235.34L688.217 239.554L684.825 249.825Z" fill="#2C3763"/>
<path fill-rule="evenodd" clip-rule="evenodd" d="M684.823 249.826L677.193 242.911L665.777 245.887L675.737 253.15L684.823 249.826Z" fill="#475696"/>
<path fill-rule="evenodd" clip-rule="evenodd" d="M357.567 16.1094L359.329 21.8385L365.064 23.5982L359.329 25.3587L357.567 31.0869L355.805 25.3587L350.07 23.5982L355.805 21.8385L357.567 16.1094Z" fill="#FFD60A"/>
<path d="M199.706 224.998L202.212 223.439C211.455 217.683 211.357 206.69 205.053 201.096C199.64 196.294 190.153 190.439 189.777 190.195L188.491 194.117C190.752 195.587 197.175 200.297 199.739 204.405C202.067 208.137 200.921 213.064 197.187 215.388L194.682 216.948C190.945 219.275 186.015 218.132 183.685 214.4C181.151 210.338 179.598 202.497 179.214 199.817L175.145 199.38C175.204 199.825 176.367 210.902 178.376 217.706C180.773 225.856 189.763 231.191 199.706 224.998Z" fill="#3E4B7D"/>
<path d="M172.565 205.066L180.535 200.104L177.72 195.593L169.75 200.555L172.565 205.066Z" fill="#202A56"/>
<path d="M188.239 195.304L196.207 190.343L193.392 185.832L185.424 190.794L188.239 195.304Z" fill="#202A56"/>
<path d="M191.695 223.847C192.289 224.799 193.545 225.09 194.499 224.496C195.452 223.902 195.745 222.648 195.151 221.695C194.557 220.743 193.301 220.452 192.347 221.047C191.391 221.641 191.1 222.895 191.695 223.847Z" fill="#202A56"/>
<path d="M183.148 221.276C183.628 222.046 184.641 222.282 185.412 221.802C186.18 221.324 186.416 220.31 185.936 219.541C185.455 218.77 184.441 218.536 183.672 219.015C182.902 219.495 182.667 220.506 183.148 221.276Z" fill="#202A56"/>
<path d="M180.1 214.708C180.748 214.708 181.274 214.183 181.274 213.535C181.274 212.887 180.748 212.362 180.1 212.362C179.451 212.362 178.926 212.887 178.926 213.535C178.926 214.183 179.451 214.708 180.1 214.708Z" fill="#202A56"/>
<path d="M180.1 214.708C180.748 214.708 181.274 214.183 181.274 213.535C181.274 212.887 180.748 212.362 180.1 212.362C179.451 212.362 178.926 212.887 178.926 213.535C178.926 214.183 179.451 214.708 180.1 214.708Z" stroke="#202A56" stroke-width="0.216" stroke-miterlimit="10"/>
<path d="M204.673 215.767C205.268 216.719 204.976 217.972 204.025 218.566C203.071 219.159 201.817 218.868 201.222 217.916C200.628 216.964 200.919 215.71 201.872 215.117C202.824 214.524 204.079 214.815 204.673 215.767Z" fill="#202A56"/>
<path d="M206.129 206.97C206.61 207.739 206.377 208.752 205.604 209.232C204.833 209.712 203.818 209.477 203.339 208.707C202.858 207.937 203.095 206.925 203.865 206.445C204.637 205.964 205.649 206.199 206.129 206.97Z" fill="#202A56"/>
<path d="M201.508 200.202C201.85 200.752 201.682 201.474 201.13 201.817C200.581 202.159 199.858 201.993 199.514 201.443C199.171 200.892 199.339 200.169 199.887 199.828C200.44 199.485 201.164 199.651 201.508 200.202Z" fill="#202A56"/>
<path fill-rule="evenodd" clip-rule="evenodd" d="M533.966 132.237L523.266 145.582L545.323 141.325L533.966 132.237Z" fill="#3D4C87"/>
<path fill-rule="evenodd" clip-rule="evenodd" d="M522.609 123.15L523.267 145.582L533.967 132.237L522.609 123.15Z" fill="#5263A5"/>
<path fill-rule="evenodd" clip-rule="evenodd" d="M533.345 121.386L522.609 123.149L533.967 132.236L533.345 121.386Z" fill="#8696DB"/>
<path fill-rule="evenodd" clip-rule="evenodd" d="M533.969 132.237L545.326 141.325L544.704 130.475L533.969 132.237Z" fill="#5263A5"/>
<path fill-rule="evenodd" clip-rule="evenodd" d="M533.344 121.386L533.966 132.236L544.702 130.474L539.023 125.929L533.344 121.386Z" fill="#3D4C87"/>
<path fill-rule="evenodd" clip-rule="evenodd" d="M58.0547 348.573L69.992 372.821L78.6917 338.436L58.0547 348.573Z" fill="#3D4C87"/>
<path fill-rule="evenodd" clip-rule="evenodd" d="M37.418 358.709L69.9923 372.818L58.0549 348.571L37.418 358.709Z" fill="#5263A5"/>
<path fill-rule="evenodd" clip-rule="evenodd" d="M42.0948 342.184L37.418 358.711L58.0549 348.573L42.0948 342.184Z" fill="#8696DB"/>
<path fill-rule="evenodd" clip-rule="evenodd" d="M58.0547 348.573L78.6917 338.435L62.7315 332.045L58.0547 348.573Z" fill="#5263A5"/>
<path fill-rule="evenodd" clip-rule="evenodd" d="M42.0938 342.183L58.0539 348.573L62.7307 332.045L52.4127 337.113L42.0938 342.183Z" fill="#3D4C87"/>
<path d="M245.295 328.806L246.692 325.736L255.064 307.309L212.813 288.154L207.295 300.291L201.824 312.452L205.64 314.161L244.102 331.43L245.295 328.806Z" fill="#5263A5"/>
<path d="M246.006 327.227L247.403 324.158L255.775 305.73L213.524 286.576L208.008 298.711L202.535 310.874L206.351 312.582L244.815 329.853L246.006 327.227Z" fill="#3E4B7D"/>
<path d="M219.427 292.552C218.302 294.992 215.433 296.077 212.978 295.01L208.508 304.841C210.986 305.971 212.084 308.889 210.954 311.365L238.841 324.012L238.844 324.009C239.955 321.552 242.842 320.454 245.308 321.534L249.809 311.63C247.363 310.517 246.266 307.66 247.319 305.2L219.427 292.552ZM212.811 300.882C213.468 299.436 215.177 298.791 216.628 299.447C218.081 300.107 218.724 301.815 218.064 303.265C217.404 304.716 215.693 305.354 214.244 304.697C212.794 304.041 212.151 302.331 212.811 300.882ZM245.387 315.571C244.727 317.021 243.015 317.662 241.568 317.006C240.114 316.346 239.472 314.638 240.132 313.189C240.789 311.737 242.502 311.097 243.95 311.753C245.404 312.409 246.044 314.121 245.387 315.571ZM237.859 312.154C235.678 316.951 230.022 319.073 225.224 316.895C220.425 314.723 218.301 309.072 220.477 304.278C222.655 299.481 228.313 297.361 233.113 299.533C237.913 301.71 240.036 307.36 237.859 312.154Z" fill="#8696DB"/>
<path d="M220.476 304.279C218.299 309.075 220.423 314.723 225.223 316.896C230.022 319.075 235.677 316.953 237.858 312.156C240.033 307.363 237.911 301.712 233.112 299.535C228.313 297.362 222.654 299.483 220.476 304.279ZM232.237 301.462L233.07 301.84L232.303 303.533C232.51 303.698 232.696 303.885 232.856 304.104C233.184 304.537 233.382 305.033 233.441 305.578C233.503 306.123 233.421 306.671 233.21 307.218L231.312 306.364C231.432 306.031 231.434 305.728 231.316 305.452C231.202 305.185 230.996 304.983 230.704 304.839C230.69 304.837 230.681 304.83 230.671 304.823C230.377 304.694 230.1 304.682 229.832 304.79C229.567 304.902 229.361 305.111 229.225 305.413C229.085 305.709 229.07 305.983 229.171 306.251C229.256 306.464 229.441 306.721 229.719 307.011C229.78 307.076 229.841 307.14 229.91 307.206L230.271 307.542C230.83 308.076 231.217 308.56 231.437 308.989C231.875 309.875 231.886 310.772 231.477 311.679C231.212 312.264 230.823 312.731 230.318 313.092C229.809 313.445 229.247 313.654 228.628 313.71C228.307 313.741 227.998 313.728 227.691 313.673L226.931 315.349L226.097 314.971L225.362 314.64L226.113 312.986C225.556 312.578 225.147 312.035 224.902 311.356C224.747 310.939 224.678 310.521 224.707 310.106C224.702 309.767 224.791 309.364 224.975 308.905L226.896 309.776C226.748 310.178 226.743 310.544 226.878 310.878C227.015 311.194 227.267 311.436 227.624 311.618C227.646 311.629 227.664 311.639 227.689 311.652C228.071 311.822 228.439 311.846 228.794 311.719C229.149 311.588 229.41 311.339 229.579 310.973C229.774 310.541 229.779 310.13 229.593 309.735C229.469 309.468 229.235 309.159 228.893 308.819C228.803 308.727 228.712 308.636 228.604 308.54C228.422 308.374 228.307 308.268 228.268 308.234C227.977 307.942 227.762 307.691 227.618 307.477C227.334 307.048 227.177 306.576 227.133 306.056C227.094 305.533 227.181 305.036 227.394 304.566C227.624 304.061 227.966 303.654 228.419 303.34C228.874 303.026 229.383 302.848 229.943 302.802C230.209 302.776 230.469 302.789 230.725 302.831L231.5 301.13L232.237 301.462Z" fill="#3E4B7D"/>
<path d="M229.943 302.801C229.384 302.846 228.874 303.025 228.421 303.34C227.966 303.652 227.626 304.061 227.394 304.565C227.182 305.034 227.094 305.531 227.133 306.054C227.177 306.575 227.334 307.046 227.62 307.475C227.762 307.69 227.976 307.941 228.267 308.232C228.309 308.268 228.423 308.374 228.603 308.539C228.711 308.635 228.804 308.727 228.894 308.817C229.234 309.158 229.469 309.469 229.594 309.734C229.78 310.129 229.775 310.54 229.578 310.972C229.411 311.338 229.148 311.588 228.795 311.718C228.441 311.845 228.07 311.821 227.688 311.65C227.666 311.639 227.646 311.627 227.623 311.617C227.267 311.435 227.015 311.195 226.878 310.877C226.741 310.542 226.748 310.176 226.896 309.773L224.973 308.903C224.791 309.364 224.701 309.765 224.705 310.104C224.677 310.521 224.747 310.938 224.902 311.355C225.147 312.033 225.554 312.577 226.113 312.986L225.36 314.639L226.095 314.97L226.929 315.348L227.691 313.672C227.997 313.728 228.307 313.739 228.628 313.71C229.244 313.652 229.808 313.442 230.315 313.09C230.82 312.731 231.208 312.262 231.474 311.678C231.883 310.771 231.872 309.874 231.435 308.99C231.214 308.559 230.829 308.075 230.268 307.541L229.908 307.205C229.838 307.138 229.777 307.075 229.717 307.011C229.439 306.72 229.254 306.463 229.169 306.25C229.068 305.984 229.086 305.706 229.222 305.412C229.359 305.109 229.564 304.901 229.829 304.789C230.098 304.681 230.376 304.692 230.671 304.821C230.679 304.828 230.688 304.837 230.701 304.838C230.994 304.982 231.2 305.186 231.314 305.451C231.431 305.728 231.431 306.03 231.312 306.365L233.206 307.218C233.42 306.669 233.5 306.123 233.438 305.578C233.379 305.033 233.181 304.536 232.853 304.103C232.695 303.887 232.509 303.699 232.302 303.532L233.068 301.84L232.234 301.463L231.497 301.131L230.722 302.832C230.468 302.791 230.208 302.775 229.943 302.801Z" fill="#202A56"/>
<path d="M206.302 312.59L244.841 329.895L246.036 327.266L247.436 324.188L255.825 305.725L213.488 286.534L207.961 298.694L202.477 310.879L206.302 312.59ZM210.951 311.365C212.081 308.89 210.984 305.971 208.504 304.839L212.974 295.008C215.429 296.078 218.299 294.994 219.424 292.552L247.316 305.201C246.263 307.66 247.359 310.515 249.806 311.628L245.304 321.534C242.839 320.453 239.952 321.552 238.841 324.008L238.839 324.012L210.951 311.365Z" fill="#3E4B7D"/>
<path fill-rule="evenodd" clip-rule="evenodd" d="M352.691 100.6C352.691 100.6 348.534 96.9324 346.04 99.9773C343.546 103.022 345.209 111.188 346.594 114.649C347.98 118.109 353.799 118.316 354.977 113.749C356.155 109.181 352.691 100.6 352.691 100.6Z" fill="#DB8C70"/>
<path fill-rule="evenodd" clip-rule="evenodd" d="M387.154 119.331C387.742 119.101 393.748 116.485 392.777 115.224C391.639 113.747 390.72 111.375 390.64 109.504C390.514 106.586 390.942 105.088 391.47 107.115C392.163 109.772 393.837 112.898 395.272 115.438C396.004 116.735 396.327 116.99 395.962 118.091C395.775 118.657 394.891 120.055 394.357 120.11L386.417 120.933C385.104 121.07 386.201 119.702 387.154 119.331Z" fill="#FFD9CC"/>
<path fill-rule="evenodd" clip-rule="evenodd" d="M405.312 106.225L405.272 106.234C404.403 106.427 403.849 107.295 404.042 108.164C404.235 109.033 405.106 109.585 405.975 109.392L406.015 109.382C406.885 109.19 407.438 108.321 407.245 107.452C407.051 106.585 406.182 106.032 405.312 106.225Z" fill="white"/>
<path fill-rule="evenodd" clip-rule="evenodd" d="M401.847 103.517L401.822 103.523C401.299 103.639 400.965 104.162 401.082 104.685C401.198 105.208 401.722 105.54 402.245 105.424L402.27 105.418C402.793 105.302 403.126 104.779 403.01 104.256C402.893 103.733 402.37 103.401 401.847 103.517Z" fill="#FFB18F"/>
<path fill-rule="evenodd" clip-rule="evenodd" d="M412.682 96.8421C409.465 92.3541 405.719 88.749 400.047 84.8966H400.048C412.952 90.0528 412.845 94.7476 412.865 94.8814C412.605 95.364 412.979 96.3633 412.682 96.8421ZM412.893 87.7755C412.893 87.7755 413.62 81.9799 411.531 77.0489C409.442 72.1179 407.583 69.9551 407.583 69.9551C407.583 69.9551 409.408 73.7613 410.486 78.8648C411.564 83.9684 410.952 87.8613 411.86 89.5914C412.767 91.3215 413.649 91.9268 413.649 91.9268C413.649 91.9268 412.648 89.6782 412.893 87.7755Z" fill="#E66637"/>
<path fill-rule="evenodd" clip-rule="evenodd" d="M399.414 156.397C399.414 156.397 402.142 150.256 402.965 146.535C403.788 142.816 405.087 139.182 405.736 138.318C406.385 137.452 406.385 137.452 406.385 137.452C406.385 137.452 405.173 140.999 404.697 144.07C404.22 147.141 403.706 151.424 402.123 153.932C400.54 156.441 399.414 156.397 399.414 156.397Z" fill="#E66637"/>
<path fill-rule="evenodd" clip-rule="evenodd" d="M371.638 89.1516L371.853 89.0999C376.404 87.9973 380.989 90.5855 382.042 94.8531L365.277 98.9158C364.224 94.6473 367.087 90.2542 371.638 89.1516Z" fill="#5E1C00"/>
<path fill-rule="evenodd" clip-rule="evenodd" d="M404.041 88.8508L403.826 88.7991C399.274 87.6965 394.69 90.2847 393.637 94.5523L410.401 98.615C411.455 94.3465 408.593 89.9535 404.041 88.8508Z" fill="#5E1C00"/>
<path fill-rule="evenodd" clip-rule="evenodd" d="M385.453 338.346L377.898 338.168L383.618 313.434L385.453 338.346Z" fill="#9946C2"/>
<path fill-rule="evenodd" clip-rule="evenodd" d="M377.42 98.3605L377.615 98.4039C381.747 99.3211 384.376 103.447 383.458 107.575L383.457 107.577C382.539 111.704 378.407 114.329 374.275 113.411L374.08 113.368C369.948 112.45 367.319 108.324 368.238 104.197V104.194C369.157 100.068 373.289 97.4434 377.42 98.3605Z" fill="white"/>
<path fill-rule="evenodd" clip-rule="evenodd" d="M379.23 103.765L379.325 103.786C381.334 104.232 382.614 106.239 382.167 108.246V108.247C381.72 110.254 379.711 111.531 377.701 111.085L377.606 111.064C375.596 110.618 374.318 108.611 374.765 106.604V106.603C375.211 104.595 377.221 103.319 379.23 103.765Z" fill="black"/>
<path fill-rule="evenodd" clip-rule="evenodd" d="M379.922 106.8L379.881 106.81C379.012 107.003 378.459 107.871 378.652 108.739C378.846 109.608 379.715 110.16 380.584 109.967L380.625 109.958C381.494 109.765 382.047 108.897 381.854 108.028C381.66 107.159 380.791 106.607 379.922 106.8Z" fill="white"/>
<path fill-rule="evenodd" clip-rule="evenodd" d="M376.558 104.253L376.533 104.258C376.01 104.374 375.676 104.898 375.793 105.42C375.909 105.943 376.433 106.275 376.956 106.159L376.981 106.153C377.504 106.037 377.837 105.514 377.721 104.992C377.604 104.469 377.08 104.136 376.558 104.253Z" fill="#FFB18F"/>
<path fill-rule="evenodd" clip-rule="evenodd" d="M427.152 61.2061L429.192 67.8385L435.831 69.8759L429.192 71.9133L427.152 78.5458L425.112 71.9133L418.473 69.8759L425.112 67.8385L427.152 61.2061Z" fill="#FFD60A"/>
<path fill-rule="evenodd" clip-rule="evenodd" d="M335.667 78.4111L337.152 83.2425L341.989 84.7262L337.152 86.2109L335.667 91.0422L334.18 86.2109L329.344 84.7262L334.18 83.2425L335.667 78.4111Z" fill="#FFD60A"/>
<path fill-rule="evenodd" clip-rule="evenodd" d="M407.292 51.6885L407.963 53.8725L410.151 54.5434L407.963 55.2151L407.292 57.3992L406.62 55.2151L404.434 54.5434L406.62 53.8725L407.292 51.6885Z" fill="#FFD60A"/>
<path fill-rule="evenodd" clip-rule="evenodd" d="M377.133 49.8125L378.543 54.3975L383.133 55.8065L378.543 57.2145L377.133 61.7995L375.723 57.2145L371.133 55.8065L375.723 54.3975L377.133 49.8125Z" fill="white"/>
<path fill-rule="evenodd" clip-rule="evenodd" d="M394.567 21.3867L395.659 24.9373L399.213 26.0271L395.659 27.1177L394.567 30.6674L393.476 27.1177L389.922 26.0271L393.476 24.9373L394.567 21.3867Z" fill="white"/>
<path fill-rule="evenodd" clip-rule="evenodd" d="M354.849 69.9102L355.94 73.4599L359.494 74.5505L355.94 75.6412L354.849 79.1909L353.757 75.6412L350.203 74.5505L353.757 73.4599L354.849 69.9102Z" fill="white"/>
<path fill-rule="evenodd" clip-rule="evenodd" d="M430.148 153.375C430.148 153.375 414.658 173.736 404.439 181.521C394.22 189.306 368.414 205.223 368.414 205.223C368.414 205.223 400.283 195.881 410.155 191.383C420.027 186.884 420.893 187.403 420.893 187.403L415.87 211.452L453.925 193.669C480.639 215.345 485.31 213.13 519.673 211.604L525.547 208.367L517.407 189.876L522.736 183.843L515.001 184.412L513.583 181.192L513.21 180.205L485.564 187.329L474.134 179.085L458.06 167.491C451.089 161.923 444.174 157.262 436.092 154.766C434.182 154.176 432.206 153.706 430.148 153.375Z" fill="#01D180"/>
<path fill-rule="evenodd" clip-rule="evenodd" d="M485.568 187.329L474.138 179.085L458.064 167.491C451.094 161.923 444.178 157.262 436.096 154.766C434.456 154.26 432.766 153.843 431.02 153.524C444.786 163.355 435.439 156.496 450.16 168.434C464.882 180.371 472.896 190.467 472.896 190.467L485.568 187.329Z" fill="#00FA9A"/>
<path fill-rule="evenodd" clip-rule="evenodd" d="M519.187 200.553L476.047 221.512C485.116 219.551 519.674 211.605 519.674 211.605L525.548 208.368L517.408 189.877L522.738 183.844L515.002 184.414L513.584 181.193L513.211 180.206L509.993 181.035L519.187 200.553Z" fill="#00B06D"/>
<path fill-rule="evenodd" clip-rule="evenodd" d="M457.816 221.743L482.718 225.181L520.099 211.371L485.852 230.24C480.399 233.245 468.443 227.926 457.816 221.743Z" fill="#01D180"/>
<path fill-rule="evenodd" clip-rule="evenodd" d="M472.896 190.467L438.211 185.474L479.853 183.206L472.896 190.467Z" fill="#00FA9A"/>
<path fill-rule="evenodd" clip-rule="evenodd" d="M331.765 27.4404L334.786 34.7271L342.517 36.3207L335.223 39.338L333.627 47.062L330.607 39.7753L322.875 38.1818L330.169 35.1645L331.765 27.4404Z" fill="#FF9F0A"/>
<path fill-rule="evenodd" clip-rule="evenodd" d="M324.773 57.9258L325.681 60.8776L328.637 61.7846L325.681 62.6916L324.773 65.6434L323.866 62.6916L320.91 61.7846L323.866 60.8776L324.773 57.9258Z" fill="#FF9F0A"/>
<path fill-rule="evenodd" clip-rule="evenodd" d="M544.018 206.357L545.478 211.106L550.232 212.565L545.478 214.022L544.018 218.771L542.558 214.022L537.805 212.565L542.558 211.106L544.018 206.357Z" fill="#FFFF00"/>
<path fill-rule="evenodd" clip-rule="evenodd" d="M581.6 169.879L582.739 173.585L586.449 174.723L582.739 175.862L581.6 179.567L580.46 175.862L576.75 174.723L580.46 173.585L581.6 169.879Z" fill="#FFD60A"/>
<path fill-rule="evenodd" clip-rule="evenodd" d="M566.893 226.167L568.032 229.873L571.742 231.011L568.032 232.149L566.893 235.856L565.753 232.149L562.043 231.011L565.753 229.873L566.893 226.167Z" fill="#FFD60A"/>
</g>
<defs>
<clipPath id="clip0_7_9860">
<rect width="723" height="396" fill="white"/>
</clipPath>
</defs>
</svg>
