<svg width="51" height="53" viewBox="0 0 51 53" fill="none" xmlns="http://www.w3.org/2000/svg">
<path fill-rule="evenodd" clip-rule="evenodd" d="M30.076 46.9117L29.2728 48.0361L29.1121 48.2289L28.9194 48.3895L28.6945 48.4859L28.4375 48.5501L9.19317 51.7308L8.93615 51.7629L8.67913 51.7308L8.45424 51.6344L8.22934 51.5059L8.03658 51.3452L7.87594 51.1525L7.77956 50.9276L7.68318 50.6706L3.15322 23.2338L3.12109 22.9768L3.18535 22.7197L3.2496 22.4627L3.37811 22.27L4.1813 21.1455L4.05279 21.3704L3.95641 21.5953L3.92428 21.8523L3.95641 22.1093L8.48636 49.5461L8.55062 49.8031L8.67913 50.028L8.83976 50.2529L9.03253 50.4135L9.22529 50.542L9.48231 50.6063L9.73933 50.6384H9.99635L29.2406 47.4578L29.4977 47.3936L29.7226 47.2651L29.9153 47.1044L30.076 46.9117Z" fill="#4442AB"/>
<path fill-rule="evenodd" clip-rule="evenodd" d="M5.01847 20.6008L24.2628 17.4202C24.9696 17.2917 25.6442 17.7736 25.7727 18.4804L30.3027 45.9171C30.4312 46.6239 29.9493 47.2986 29.2425 47.4271L9.99821 50.6077C9.29141 50.7362 8.61673 50.2543 8.48822 49.5475L3.95826 22.1108C3.82976 21.404 4.31167 20.7293 5.01847 20.6008Z" fill="#5E5CE6"/>
<path fill-rule="evenodd" clip-rule="evenodd" d="M5.01562 20.6008L24.2599 17.4202C24.9667 17.2917 25.6414 17.7736 25.7699 18.4804L30.2999 45.9171C30.332 46.0457 30.332 46.142 30.2999 46.2384C29.1111 42.0297 27.2799 33.4196 26.6695 29.7571L24.9667 19.4442C24.8382 18.7374 24.1635 18.2555 23.4567 18.384L20.5653 18.8659C15.6498 19.7333 9.96324 20.7936 5.01562 20.6008Z" fill="#64D2FF"/>
<path fill-rule="evenodd" clip-rule="evenodd" d="M16.4877 30.2052C17.0982 28.2776 17.8371 27.2495 19.6041 26.9603C21.5639 26.6391 23.4272 27.9563 23.7485 29.9161C24.3268 33.4822 21.1783 36.4058 18.2226 40.5502C14.0782 37.5945 10.1265 35.8275 9.54823 32.2935C9.22696 30.3337 10.5442 28.4703 12.5039 28.149C14.271 27.8278 15.299 28.5667 16.4877 30.2052Z" fill="#64D2FF"/>
<path fill-rule="evenodd" clip-rule="evenodd" d="M16.4847 30.2052C17.0951 28.2776 17.8341 27.2495 19.6011 26.9603C21.5608 26.6391 23.4242 27.9563 23.7455 29.9161C23.7776 30.1088 23.8097 30.3016 23.8097 30.4943C23.2957 28.7916 21.5608 27.6993 19.7617 27.9884C17.9947 28.2776 17.2558 29.3056 16.6453 31.2333C15.4566 29.5948 14.4286 28.8559 12.6616 29.145C10.8624 29.4341 9.60945 31.0405 9.64158 32.8075C9.57733 32.6148 9.5452 32.422 9.51307 32.2292C9.1918 30.2695 10.509 28.4061 12.4688 28.0848C14.2679 27.8278 15.296 28.5667 16.4847 30.2052Z" fill="#7BFCFF"/>
<path fill-rule="evenodd" clip-rule="evenodd" d="M7.04151 22.334C7.17002 21.9164 7.33066 21.7236 7.68406 21.6594C8.10171 21.5951 8.48724 21.8842 8.5515 22.2698C8.68001 23.0087 8.00533 23.6191 7.39491 24.5187C6.52747 23.9083 5.69216 23.5227 5.56365 22.7838C5.4994 22.3662 5.78854 21.9806 6.17407 21.9164C6.59173 21.8521 6.81662 22.0128 7.04151 22.334Z" fill="#64D2FF"/>
<path fill-rule="evenodd" clip-rule="evenodd" d="M27.1545 44.5352C27.2831 44.1175 27.4437 43.9248 27.7971 43.8605C28.2148 43.7963 28.6003 44.0854 28.6645 44.471C28.793 45.2099 28.1184 45.8203 27.5079 46.7199C26.6405 46.1094 25.8052 45.7239 25.6767 44.985C25.6124 44.5673 25.9016 44.1818 26.2871 44.1175C26.6726 44.0533 26.8975 44.1818 27.1545 44.5352Z" fill="#A9A8FF"/>
<path fill-rule="evenodd" clip-rule="evenodd" d="M32.7774 47.5544L31.8778 48.5825L31.685 48.7431L31.4601 48.8716L31.2352 48.968L30.9461 49.0001L11.4769 49.9639H11.2199L10.9629 49.8997L10.738 49.7712L10.5452 49.6105L10.3846 49.4499L10.2561 49.225L10.1597 48.968L10.1276 48.711L8.74609 20.9529L8.77822 20.6638L8.84248 20.4389L8.93886 20.214L9.09949 19.9891L9.99906 18.9932L9.87055 19.1859L9.74204 19.4108L9.67779 19.6678V19.9249L11.0271 47.715L11.0914 47.972L11.1556 48.1969L11.2842 48.4218L11.4769 48.6146L11.6697 48.7752L11.8946 48.8716L12.1516 48.9359H12.4086L31.8778 48.0042L32.1348 47.9399L32.3918 47.8757L32.5846 47.7472L32.7774 47.5544Z" fill="#4442AB"/>
<path fill-rule="evenodd" clip-rule="evenodd" d="M10.8975 18.5433L30.3667 17.5795C31.0735 17.5473 31.716 18.0935 31.7482 18.8324L33.0975 46.6226C33.1296 47.3294 32.5835 47.972 31.8445 48.0041L12.3754 48.9679C11.6686 49 11.026 48.4539 10.9939 47.7149L9.64453 19.9248C9.64453 19.218 10.1907 18.6075 10.8975 18.5433Z" fill="#5E5CE6"/>
<path fill-rule="evenodd" clip-rule="evenodd" d="M10.8984 18.5433L30.3676 17.5795C31.0744 17.5473 31.717 18.0935 31.7491 18.8324L33.0984 46.6226C33.0984 46.7511 33.0984 46.8475 33.0663 46.9439C32.3916 42.6388 31.5242 33.868 31.3314 30.1734L30.8174 19.732C30.7853 19.0252 30.1749 18.4469 29.4359 18.479L26.5123 18.6075C21.5647 18.8967 15.8139 19.3143 10.8984 18.5433Z" fill="#8482FF"/>
<path fill-rule="evenodd" clip-rule="evenodd" d="M13.8868 33.0011L20.4086 25.8045C20.762 25.419 21.3403 25.3869 21.6937 25.7403L28.8903 32.2621C29.2758 32.6155 29.3079 33.1938 28.9545 33.5472L22.4327 40.7438C22.0793 41.1293 21.501 41.1614 21.1476 40.808L13.951 34.2862C13.5655 33.9649 13.5334 33.3866 13.8868 33.0011Z" fill="#64D2FF"/>
<path fill-rule="evenodd" clip-rule="evenodd" d="M13.8845 33.0011L20.4063 25.8045C20.7597 25.419 21.338 25.3869 21.6914 25.7403L28.888 32.2621C29.2735 32.6155 29.3056 33.1938 28.9522 33.5472L28.888 33.6115L21.7878 27.186C21.4023 26.8326 20.824 26.8647 20.5027 27.2503L14.0773 34.3504L14.013 34.2862C13.5632 33.9649 13.5311 33.3866 13.8845 33.0011Z" fill="#7BFCFF"/>
<path fill-rule="evenodd" clip-rule="evenodd" d="M10.8963 21.3384L12.2778 19.8284C12.3421 19.7642 12.4706 19.732 12.5348 19.8284L14.0448 21.2099C14.1091 21.2741 14.1412 21.4026 14.0448 21.4669L12.6955 22.9769C12.6312 23.0411 12.5027 23.0733 12.4385 22.9769L10.9285 21.5954C10.8321 21.5633 10.8321 21.4348 10.8963 21.3384Z" fill="#64D2FF"/>
<path fill-rule="evenodd" clip-rule="evenodd" d="M28.8919 45.4663L30.2734 43.9563C30.3377 43.8921 30.4662 43.86 30.5304 43.9563L32.0404 45.3378C32.1047 45.4021 32.1368 45.5306 32.0404 45.5948L30.6589 47.1048C30.5947 47.1691 30.4662 47.2012 30.4019 47.1048L28.8919 45.7233C28.8277 45.6591 28.8277 45.5306 28.8919 45.4663Z" fill="#A9A8FF"/>
<path fill-rule="evenodd" clip-rule="evenodd" d="M36.1823 49.0963L35.1221 49.9638L34.8972 50.0923L34.6723 50.1887L34.4153 50.2529H34.1583L14.7855 48.1968L14.5285 48.1325L14.2715 48.0361L14.0787 47.8755L13.8859 47.7148L13.7574 47.49L13.661 47.2651L13.6289 47.008V46.751L16.5525 19.0894L16.6168 18.8324L16.7131 18.6075L16.8738 18.3826L17.0344 18.2219L18.1267 17.3545L17.934 17.5151L17.7733 17.74L17.677 17.9649L17.6448 18.2219L14.6891 45.8836V46.1406L14.7212 46.3976L14.8176 46.6225L14.9783 46.8474L15.1389 47.0402L15.3638 47.1687L15.5887 47.2651L15.8457 47.3293L35.2185 49.3855H35.4755L35.7325 49.3533L35.9895 49.257L36.1823 49.0963Z" fill="#4442AB"/>
<path fill-rule="evenodd" clip-rule="evenodd" d="M19.0609 17.066L38.4337 19.1221C39.1405 19.1864 39.6867 19.8611 39.5903 20.5679L36.6346 48.2295C36.5704 48.9363 35.8957 49.4825 35.1889 49.3861L15.8161 47.3299C15.1093 47.2657 14.5631 46.591 14.6595 45.8842L17.6152 18.2226C17.7116 17.5158 18.3541 17.0017 19.0609 17.066Z" fill="#5E5CE6"/>
<path fill-rule="evenodd" clip-rule="evenodd" d="M34.7376 33.5149C34.577 35.0249 33.2276 36.1172 31.7176 35.9566C30.6253 35.828 29.7578 35.1212 29.4044 34.1574L28.1515 34.0289L28.023 35.3783C28.8583 35.9244 29.3723 36.9204 29.2759 37.9806C29.1153 39.4906 27.7659 40.5829 26.256 40.4223C24.746 40.2616 23.6536 38.9123 23.8143 37.4023C23.9428 36.3421 24.6496 35.4746 25.5813 35.1212L25.7098 33.7719L24.3926 33.6434C23.8464 34.5108 22.8505 35.057 21.7581 34.9285C20.2481 34.7678 19.1558 33.4185 19.3165 31.9085C19.4771 30.3985 20.8264 29.3062 22.3364 29.4668C23.3966 29.5953 24.2319 30.27 24.6175 31.2017L25.9668 31.3302L26.0953 30.0772C25.26 29.5311 24.746 28.5351 24.8424 27.4749C25.003 25.9649 26.3523 24.8726 27.8623 25.0333C29.3723 25.1939 30.4647 26.5432 30.304 28.0532C30.1755 29.1134 29.4687 29.9809 28.537 30.3343L28.4085 31.5872L29.6936 31.7157C30.2398 30.8804 31.2357 30.3985 32.2959 30.4949C33.8059 30.6555 34.8982 32.0049 34.7376 33.5149Z" fill="#64D2FF"/>
<path fill-rule="evenodd" clip-rule="evenodd" d="M19.0586 17.0645L38.4314 19.1206C39.1382 19.1849 39.6844 19.8595 39.588 20.5663L36.6323 48.228C36.6323 48.3565 36.6001 48.4529 36.568 48.5493C36.568 44.1799 37.082 35.4092 37.4676 31.7145L38.5599 21.3374C38.6242 20.6306 38.1101 19.988 37.4033 19.8917L34.4797 19.5704C29.5642 19.0563 23.7813 18.5744 19.0586 17.0645Z" fill="#64D2FF"/>
<path fill-rule="evenodd" clip-rule="evenodd" d="M24.8423 27.9577C24.8423 27.7971 24.8423 27.6043 24.8423 27.4437C25.003 25.9337 26.3523 24.8414 27.8623 25.002C29.3723 25.1626 30.4646 26.512 30.304 28.022C30.2718 28.1826 30.2397 28.3754 30.2076 28.536C30.1112 27.2509 29.0831 26.1586 27.7659 26.0301C26.4487 25.8694 25.2278 26.7048 24.8423 27.9577ZM19.3164 32.3913C19.3164 32.2307 19.3164 32.0379 19.3164 31.8773C19.477 30.3673 20.8264 29.2749 22.3364 29.4356C23.3966 29.5641 24.2319 30.2388 24.6174 31.1705L25.9668 31.299L25.8704 32.327L24.521 32.1985C24.1676 31.2668 23.3002 30.5922 22.24 30.4637C20.8906 30.303 19.7019 31.1383 19.3164 32.3913ZM23.7821 37.8851C23.7821 37.7244 23.7821 37.5317 23.7821 37.371C23.9106 36.3108 24.6174 35.4434 25.5491 35.09L25.4527 36.1181C24.6817 36.4072 24.0391 37.0819 23.7821 37.8851ZM28.0229 35.347C28.8582 35.8932 29.3723 36.8891 29.2759 37.9493C29.2438 38.11 29.2116 38.3027 29.1795 38.4634C29.1153 37.5959 28.6333 36.8249 27.9265 36.3751L28.0229 35.347ZM34.7375 33.5158C34.7054 33.6764 34.6733 33.8692 34.6412 34.0298C34.5448 32.7447 33.5167 31.6524 32.1995 31.5239C31.1393 31.3953 30.1755 31.9094 29.5972 32.7447L28.3121 32.6162L28.4085 31.5881L29.6935 31.7166C30.2397 30.8813 31.2357 30.3994 32.2959 30.4958C33.8058 30.6564 34.8982 32.0058 34.7375 33.5158Z" fill="#7BFCFF"/>
<path fill-rule="evenodd" clip-rule="evenodd" d="M21.6307 20.1176C21.5986 20.4389 21.3095 20.6638 20.9882 20.6317C20.7633 20.5995 20.5705 20.4389 20.5063 20.2461L20.2493 20.214L20.2171 20.5031C20.4099 20.6317 20.5063 20.8244 20.4741 21.0493C20.442 21.3706 20.1529 21.5955 19.8316 21.5633C19.5103 21.5312 19.2854 21.2421 19.3176 20.9208C19.3497 20.6959 19.4782 20.5031 19.7031 20.4389L19.7352 20.1497L19.4461 20.1176C19.3176 20.3104 19.1248 20.4068 18.8999 20.3746C18.5786 20.3425 18.3537 20.0534 18.3859 19.7321C18.418 19.4108 18.7071 19.1859 19.0284 19.218C19.2533 19.2502 19.4139 19.3787 19.5103 19.5714L19.7673 19.6357L19.7995 19.3787C19.6067 19.2502 19.5103 19.0574 19.5424 18.8325C19.5746 18.5112 19.8637 18.2864 20.185 18.3185C20.5063 18.3506 20.7312 18.6398 20.699 18.961C20.6669 19.1859 20.5384 19.3787 20.3135 19.4429L20.2814 19.7L20.5384 19.7321C20.6669 19.5714 20.8597 19.4429 21.0846 19.4751C21.438 19.5072 21.6629 19.7963 21.6307 20.1176Z" fill="#64D2FF"/>
<path fill-rule="evenodd" clip-rule="evenodd" d="M35.8924 47.2982C35.8603 47.6195 35.5712 47.8443 35.2499 47.8122C35.025 47.7801 34.8322 47.6195 34.768 47.4267L34.511 47.3946L34.4788 47.6837C34.6716 47.8122 34.768 48.005 34.7359 48.2299C34.7037 48.5511 34.4146 48.776 34.0933 48.7439C33.772 48.7118 33.5472 48.4226 33.5793 48.1014C33.6114 47.8765 33.7399 47.6837 33.9648 47.6195L33.9969 47.3303L33.7078 47.2982C33.5793 47.4909 33.3865 47.5873 33.1616 47.5552C32.8403 47.5231 32.6155 47.2339 32.6476 46.9127C32.6797 46.5914 32.9689 46.3665 33.2901 46.3986C33.515 46.4307 33.6757 46.5592 33.772 46.752L34.0612 46.7841L34.0933 46.5271C33.9006 46.3986 33.8042 46.2059 33.8363 45.981C33.8684 45.6597 34.1576 45.4348 34.4788 45.4669C34.8001 45.499 35.025 45.7882 34.9929 46.1095C34.9608 46.3344 34.8322 46.5271 34.6074 46.5914L34.5752 46.8484L34.8322 46.8805C34.9608 46.7199 35.1535 46.5914 35.3784 46.6235C35.6997 46.6878 35.9246 46.9769 35.8924 47.2982Z" fill="#A9A8FF"/>
<path fill-rule="evenodd" clip-rule="evenodd" d="M39.104 51.668L37.9153 52.3748L37.6904 52.4712L37.4334 52.5354H37.1764L36.9194 52.5033L18.0927 47.4593L17.8357 47.3629L17.6429 47.2344L17.4502 47.0416L17.2895 46.8489L17.1932 46.624L17.1289 46.367V46.1099L17.161 45.8529L24.3576 18.9945L24.4539 18.7374L24.6146 18.5125L24.7752 18.3519L24.968 18.1913L26.1567 17.5166L25.9639 17.6451L25.7712 17.8379L25.6427 18.0628L25.5463 18.2877L18.3497 45.1783L18.3176 45.4353V45.6923L18.3819 45.9172L18.4783 46.1742L18.6389 46.367L18.8317 46.5276L19.0244 46.6882L19.2814 46.7846L38.1081 51.8286L38.3651 51.8607H38.6221L38.8791 51.7965L39.104 51.668Z" fill="#4A47CC"/>
<path fill-rule="evenodd" clip-rule="evenodd" d="M27.1546 17.387L45.9812 22.431C46.688 22.6238 47.1057 23.3306 46.9129 24.0374L39.7164 50.8958C39.5236 51.6026 38.8168 52.0203 38.11 51.8275L19.2834 46.7835C18.5766 46.5908 18.1589 45.884 18.3517 45.1772L25.5482 18.2866C25.741 17.6119 26.4478 17.1942 27.1546 17.387Z" fill="#6B68FF"/>
<path fill-rule="evenodd" clip-rule="evenodd" d="M27.1562 17.3857L45.9829 22.4297C46.6897 22.6225 47.1073 23.3293 46.9146 24.0361L39.718 50.8946C39.6859 50.991 39.6538 51.1195 39.5895 51.2159C40.2642 46.9108 42.1276 38.3007 43.0914 34.7024L45.7901 24.6144C45.9829 23.9076 45.5652 23.2008 44.8584 23.008L42.0312 22.237C37.2121 20.9519 31.5898 19.6025 27.1562 17.3857Z" fill="#72FEFF"/>
<path fill-rule="evenodd" clip-rule="evenodd" d="M35.6041 34.7035L35.2828 34.8963L32.0379 36.7597L30.1745 33.5148L29.9818 33.1935C29.4677 32.294 29.789 31.1695 30.6564 30.6555C31.1062 30.3985 31.6203 30.3342 32.0701 30.4627C32.5198 30.5912 32.9375 30.8804 33.1945 31.3301L33.3873 31.6514L33.7085 31.4587C34.1583 31.2016 34.6724 31.1374 35.1222 31.2659C35.6041 31.3944 35.9896 31.6835 36.2466 32.1333C36.7928 33.065 36.5036 34.1895 35.6041 34.7035ZM38.8489 33.6754L38.4955 33.0329L34.7687 26.6074L28.3433 30.3342L27.7007 30.6876C25.9337 31.7157 25.3233 33.9967 26.3514 35.7637C26.8654 36.6633 27.7007 37.2416 28.6003 37.4986C29.532 37.7556 30.5279 37.6271 31.4275 37.1131L32.0701 36.7597L32.4235 37.4022C32.9375 38.3018 33.7728 38.8801 34.6724 39.1371C35.6041 39.3941 36.6 39.2656 37.4996 38.7516C39.2666 37.7235 39.877 35.4424 38.8489 33.6754ZM31.813 37.7877L33.58 40.8398L30.5279 42.6068L28.7609 39.5547L31.813 37.7877Z" fill="#72FEFF"/>
<path fill-rule="evenodd" clip-rule="evenodd" d="M31.3931 37.1452L31.4252 37.1131L32.0678 36.7597L32.4212 37.4022L32.4533 37.4343L35.0235 35.9565L35.3448 35.7637C35.9552 35.4103 36.3086 34.7356 36.2765 34.061C36.1158 34.318 35.8909 34.5429 35.6339 34.7035L35.3126 34.8963L32.0678 36.7597L30.2044 33.5148L30.0116 33.1935C29.851 32.9365 29.7867 32.6152 29.7546 32.3261C29.4012 32.9044 29.3691 33.6433 29.7225 34.2537L29.9152 34.575L31.3931 37.1452ZM38.8466 33.6754L38.4932 33.0329L34.7665 26.6074L28.341 30.3342L27.6984 30.6876C26.6382 31.298 25.9957 32.3582 25.8672 33.4827C26.1885 32.7759 26.7025 32.1655 27.4093 31.7478L28.0518 31.3944L34.4773 27.6676L38.2041 34.0931L38.5575 34.7356C38.9752 35.4424 39.1358 36.2456 39.0394 37.0167C39.4892 35.9886 39.4571 34.7356 38.8466 33.6754ZM32.4854 38.9765L33.5456 40.8077L32.871 41.1932L31.5216 38.8158L29.1442 40.1652L28.7586 39.5547L30.6863 38.4303C30.8469 38.366 31.0076 38.3018 31.1361 38.2054L31.7786 37.852L32.132 38.4945C32.2284 38.6552 32.3569 38.8158 32.4854 38.9765ZM31.8107 37.7877L31.7786 37.8199V37.7877H31.8107Z" fill="#8FFFFF"/>
<path fill-rule="evenodd" clip-rule="evenodd" d="M28.2766 20.5992L28.2123 20.6314L27.5377 21.0169L27.1521 20.3422L27.12 20.278C27.0236 20.0852 27.0879 19.8603 27.2485 19.7318C27.3449 19.6675 27.4413 19.6675 27.5377 19.6997C27.634 19.7318 27.7304 19.796 27.7625 19.8924L27.7947 19.9567L27.8589 19.9246C27.9553 19.8603 28.0517 19.8603 28.1481 19.8924C28.2445 19.9246 28.3408 19.9888 28.373 20.0852C28.5336 20.2458 28.4693 20.5029 28.2766 20.5992ZM28.9834 20.3743L28.9191 20.2458L28.1159 18.8965L26.7666 19.6675L26.6381 19.7318C26.2526 19.9567 26.1241 20.4386 26.3489 20.792C26.4453 20.9848 26.6381 21.1133 26.8309 21.1454C27.0236 21.2097 27.2485 21.1775 27.4091 21.0811L27.5377 21.0169L27.6019 21.1454C27.6983 21.3382 27.8911 21.4667 28.0838 21.4988C28.2766 21.5631 28.5015 21.5309 28.6621 21.4345C29.0476 21.2418 29.1761 20.7599 28.9834 20.3743ZM27.4734 21.2418L27.8268 21.8843L27.1843 22.2377L26.8309 21.5952L27.4734 21.2418Z" fill="#72FEFF"/>
<path fill-rule="evenodd" clip-rule="evenodd" d="M38.2063 49.3229L38.142 49.355L37.4673 49.7405L37.0818 49.0658L37.0497 49.0016C36.9533 48.8088 37.0176 48.5839 37.1782 48.4554C37.2746 48.3912 37.371 48.3912 37.4673 48.4233C37.5637 48.4554 37.6601 48.5197 37.6922 48.6161L37.7244 48.6803L37.7886 48.6482C37.885 48.5839 37.9814 48.5839 38.0778 48.6161C38.1741 48.6482 38.2705 48.7124 38.3027 48.8088C38.4312 48.9695 38.3669 49.2265 38.2063 49.3229ZM38.8809 49.098L38.8167 48.9695L38.0456 47.6201L36.6963 48.3912L36.5678 48.4554C36.1822 48.6803 36.0537 49.1622 36.2786 49.5156C36.375 49.7084 36.5678 49.8369 36.7605 49.869C36.9533 49.9333 37.1782 49.9012 37.3388 49.8048L37.4673 49.7405L37.5316 49.869C37.628 50.0618 37.8207 50.1903 38.0135 50.2224C38.2063 50.2867 38.4312 50.2546 38.5918 50.1582C38.9773 49.9654 39.1058 49.4835 38.8809 49.098ZM37.4031 49.9654L37.7565 50.608L37.1139 50.9614L36.7605 50.3188L37.4031 49.9654Z" fill="#72FEFF"/>
<path fill-rule="evenodd" clip-rule="evenodd" d="M12.3772 19.1221C16.1361 18.6723 19.9913 18.4474 23.8145 18.4474C27.6698 18.4474 31.4929 18.7044 35.2518 19.1221C36.794 19.3148 38.2718 18.4153 38.5288 17.0659C38.9786 14.7527 39.4284 12.4396 39.8461 10.1264C40.2958 7.81322 40.7456 5.50005 41.1954 3.15475C38.0148 4.69687 34.4165 7.87748 32.0391 9.99788C29.6295 7.68471 26.224 2.7371 23.8145 0.456055C21.3728 2.80135 17.9031 7.81322 15.5899 10.03C13.2125 7.62046 9.6142 4.69687 6.43359 3.18688C6.88338 5.50005 7.33316 7.81322 7.78294 10.1585C8.23273 12.4717 8.68251 14.7849 9.13229 17.098C9.35718 18.4474 10.835 19.3148 12.3772 19.1221Z" fill="#FFEC00"/>
<path fill-rule="evenodd" clip-rule="evenodd" d="M41.2263 3.15475C38.0457 4.69687 34.4475 7.87748 32.0701 9.99788C29.6284 7.68471 26.2229 2.7371 23.8133 0.456055C21.6929 2.48008 18.8015 6.56025 16.5525 9.03406L16.4883 9.22682L23.8454 3.4439L31.9094 11.54L41.2263 3.15475Z" fill="#FFFF58"/>
<path fill-rule="evenodd" clip-rule="evenodd" d="M39.203 13.693L39.8777 10.1269C40.3274 7.81374 40.7772 5.50057 41.227 3.15527C38.2392 6.20737 32.1992 13.0826 32.1992 13.0826C32.1992 13.0826 34.1911 14.946 34.6409 15.4279C35.0907 15.942 39.203 13.693 39.203 13.693Z" fill="#FFBB04"/>
<path fill-rule="evenodd" clip-rule="evenodd" d="M12.3763 19.1225C16.1352 18.6727 19.9583 18.4478 23.8136 18.4478V3.44434C21.3719 5.75751 17.9022 7.81366 15.589 10.0304C13.2116 7.62089 11.2197 6.75345 8.03906 5.21134C8.52097 8.64897 8.29608 12.8255 9.09927 17.0663C9.35628 18.4478 10.8341 19.3153 12.3763 19.1225Z" fill="#FFCE00"/>
<path d="M23.8217 8.94593L20.4141 12.3535L23.8217 15.7611L27.2292 12.3535L23.8217 8.94593Z" fill="#FFBB04"/>
<path fill-rule="evenodd" clip-rule="evenodd" d="M26.8657 18.51C26.6087 18.51 26.3517 18.51 26.0946 18.4779C25.5163 18.4779 24.9702 18.4458 24.3919 18.4458C24.1991 18.4458 24.0385 18.4458 23.8457 18.4458C23.5566 18.4458 23.2674 18.4458 22.9783 18.4458C22.6891 18.4458 22.4 18.4458 22.1108 18.4458C22.0466 18.4458 21.9823 18.4458 21.9502 18.4458C20.4402 18.4779 18.8981 18.5421 17.3881 18.6385C17.0026 18.6707 16.6171 18.7028 16.2315 18.7028C15.6854 18.7349 15.1713 18.7992 14.6252 18.8313C13.7577 18.8955 11.2518 19.1526 10.3844 19.2489C8.93863 19.4096 8.9065 18.51 8.58523 17.0322L8.03906 14.3013C8.39246 14.3335 8.77799 14.3656 9.13139 14.3013C13.0188 13.9158 16.9705 13.6267 20.9543 13.5303L23.8457 16.4217L26.7372 13.5303C30.721 13.6267 34.6726 13.9158 38.5601 14.3335C38.9456 14.3656 39.299 14.3656 39.6524 14.3335L39.1062 17.0643C38.8813 18.253 38.8813 18.9919 37.6926 19.1526C37.4035 19.1847 36.022 19.1847 35.7007 19.1204C34.4478 18.9919 33.1948 18.8634 31.9097 18.767C31.6205 18.7349 31.2993 18.7349 31.0101 18.7028C30.6889 18.6707 30.3355 18.6707 30.0142 18.6385C29.3074 18.6064 28.6327 18.5743 27.9259 18.5421C27.701 18.5421 27.4761 18.51 27.2834 18.51C27.1227 18.51 26.9942 18.51 26.8657 18.51Z" fill="#FFBB04"/>
<path fill-rule="evenodd" clip-rule="evenodd" d="M23.8145 18.4458C23.5253 18.4458 23.2362 18.4458 22.947 18.4458C22.6579 18.4458 22.3687 18.4458 22.0796 18.4458C22.0153 18.4458 21.9511 18.4458 21.919 18.4458C20.409 18.4779 18.8669 18.5421 17.3569 18.6385C16.9713 18.6707 16.5858 18.7028 16.2003 18.7028C15.6541 18.7349 15.1401 18.7992 14.5939 18.8313C13.7265 18.8955 11.2205 19.1526 10.3531 19.2489C8.90738 19.4096 8.87525 18.51 8.55398 17.0322L8.00781 14.3013C8.36121 14.3335 8.74674 14.3656 9.10014 14.3013C13.0197 13.9158 16.9713 13.6267 20.9551 13.5303L23.8145 16.3896V18.4458Z" fill="#EDA100"/>
<path d="M23.8213 9.67288L21.1406 12.3535L23.8213 15.0342L26.5019 12.3535L23.8213 9.67288Z" fill="#FFFF58"/>
<path fill-rule="evenodd" clip-rule="evenodd" d="M8.00781 14.3343L8.4576 13.6596C8.811 13.6918 8.74674 13.6596 9.13227 13.6275C13.0197 13.2098 16.9713 12.9207 20.9551 12.8564L23.8466 15.7479L26.7381 12.8564C30.7219 12.9528 34.6735 13.242 38.5609 13.6596C38.9465 13.6918 38.8822 13.7239 39.2356 13.6918L39.6854 14.3664C39.3641 14.3986 38.9143 14.3986 38.5931 14.3664C34.6414 13.9166 30.6897 13.6275 26.7059 13.5311L23.8145 16.4226L20.923 13.5311C16.9392 13.6275 12.9876 13.9166 9.10014 14.3343C8.811 14.3986 8.32909 14.3664 8.00781 14.3343Z" fill="#FFFF58"/>
<path fill-rule="evenodd" clip-rule="evenodd" d="M23.8432 12.3423H21.1445L23.8432 9.64355V12.3423Z" fill="#FFBB04"/>
<path fill-rule="evenodd" clip-rule="evenodd" d="M26.5103 12.3423H23.8438V9.64355L26.5103 12.3423Z" fill="#FFFF58"/>
<path fill-rule="evenodd" clip-rule="evenodd" d="M26.5103 12.3438L23.8438 15.0103V12.3438H26.5103Z" fill="#EDA100"/>
<path fill-rule="evenodd" clip-rule="evenodd" d="M23.8432 12.3438V15.0103L21.1445 12.3438H23.8432Z" fill="#FFEC00"/>
<path fill-rule="evenodd" clip-rule="evenodd" d="M47.5227 21.307L47.8118 22.2066C48.0367 22.9134 48.5508 23.4274 49.2576 23.6523L50.1571 23.9415C50.2856 23.9736 50.3499 24.1021 50.3499 24.2306C50.3499 24.3591 50.2535 24.4555 50.1571 24.5198L49.2576 24.8089C48.5508 25.0338 48.0367 25.5478 47.8118 26.2546L47.5227 27.1542C47.4906 27.2827 47.362 27.347 47.2335 27.347C47.105 27.347 47.0087 27.2506 46.9444 27.1542L46.6552 26.2546C46.4304 25.5478 45.9163 25.0338 45.2095 24.8089L44.3099 24.5198C44.1814 24.4876 44.1172 24.3591 44.1172 24.2306C44.1172 24.1021 44.2136 24.0057 44.3099 23.9415L45.2095 23.6523C45.9163 23.4274 46.4304 22.9134 46.6552 22.2066L46.9444 21.307C46.9765 21.1785 47.105 21.1143 47.2335 21.1143C47.362 21.1143 47.4906 21.1785 47.5227 21.307Z" fill="#FFB71C"/>
<path fill-rule="evenodd" clip-rule="evenodd" d="M47.1356 22.0465L47.3284 22.6569C47.4569 23.1388 47.8103 23.4601 48.2601 23.5886L48.8705 23.7814C48.9669 23.8135 48.999 23.8777 48.999 23.9741C48.999 24.0705 48.9348 24.1348 48.8705 24.1669L48.2601 24.3596C47.7782 24.4882 47.4569 24.8416 47.3284 25.2913L47.1356 25.9018C47.1035 25.9981 47.0393 26.0303 46.9429 26.0303C46.8465 26.0303 46.7822 25.966 46.7501 25.9018L46.5573 25.2913C46.4288 24.8094 46.0754 24.4882 45.6256 24.3596L45.0152 24.1669C44.9188 24.1348 44.8867 24.0705 44.8867 23.9741C44.8867 23.8777 44.951 23.8135 45.0152 23.7814L45.6256 23.5886C46.1076 23.4601 46.4288 23.1067 46.5573 22.6569L46.7501 22.0465C46.7822 21.9501 46.8465 21.918 46.9429 21.918C47.0393 21.918 47.1035 21.9822 47.1356 22.0465Z" fill="#FFFF58"/>
<path fill-rule="evenodd" clip-rule="evenodd" d="M2.35167 23.3628L2.51231 23.8768C2.64081 24.2624 2.92996 24.5515 3.31549 24.68L3.82953 24.8406C3.89378 24.8728 3.95804 24.937 3.95804 25.0013C3.95804 25.0655 3.92591 25.1298 3.82953 25.1619L3.31549 25.3226C2.92996 25.4511 2.64081 25.7402 2.51231 26.1257L2.35167 26.6398C2.31954 26.704 2.25529 26.7683 2.19103 26.7683C2.12678 26.7683 2.06252 26.7362 2.03039 26.6398L1.90189 26.0615C1.77338 25.676 1.48423 25.3868 1.0987 25.2583L0.616791 25.0977C0.520409 25.0977 0.488281 25.0334 0.488281 24.9692C0.488281 24.9049 0.520409 24.8406 0.616791 24.8085L1.13083 24.6479C1.51636 24.5194 1.8055 24.2302 1.93401 23.8447L2.09465 23.3307C2.12678 23.2664 2.19103 23.2021 2.25529 23.2021C2.28741 23.2343 2.35167 23.2664 2.35167 23.3628Z" fill="#FFB71C"/>
<path fill-rule="evenodd" clip-rule="evenodd" d="M2.15834 23.75L2.25472 24.0713C2.31898 24.3283 2.51174 24.521 2.76876 24.5853L3.09003 24.6817C3.12216 24.6817 3.15429 24.7459 3.15429 24.7781C3.15429 24.8102 3.12216 24.8744 3.09003 24.8744L2.76876 24.9708C2.51174 25.0351 2.31898 25.2278 2.25472 25.4849L2.15834 25.8061C2.15834 25.8383 2.09408 25.8704 2.06196 25.8704C2.02983 25.8704 1.96558 25.8383 1.96558 25.8061L1.86919 25.4849C1.77281 25.2921 1.58005 25.0993 1.32303 25.0351L1.00175 24.9387C0.969627 24.9387 0.9375 24.8744 0.9375 24.8423C0.9375 24.8102 0.969627 24.7459 1.00175 24.7459L1.32303 24.6496C1.58005 24.5853 1.77281 24.3925 1.83707 24.1355L1.93345 23.8142C1.93345 23.7821 1.9977 23.75 2.02983 23.75C2.09408 23.6857 2.12621 23.7179 2.15834 23.75Z" fill="#FFFF58"/>
<path fill-rule="evenodd" clip-rule="evenodd" d="M21.9822 46.6224L21.693 47.554C21.4681 48.293 20.922 48.807 20.2152 49.0319L19.2835 49.321C19.155 49.3532 19.0586 49.4817 19.0586 49.6102C19.0586 49.7387 19.155 49.8672 19.2835 49.8993L20.2152 50.1885C20.9541 50.4134 21.4681 50.9595 21.693 51.6663L21.9822 52.598C22.0143 52.7266 22.1428 52.8229 22.2713 52.8229C22.3998 52.8229 22.5283 52.7266 22.5605 52.598L22.8496 51.6663C23.0745 50.9274 23.6207 50.4134 24.3275 50.1885L25.2592 49.8993C25.3877 49.8672 25.4841 49.7387 25.4841 49.6102C25.4841 49.4817 25.3877 49.3532 25.2592 49.321L24.3275 49.0319C23.5886 48.807 23.0745 48.2608 22.8496 47.554L22.5605 46.6224C22.5283 46.4938 22.3998 46.3975 22.2713 46.3975C22.1428 46.3975 22.0143 46.4938 21.9822 46.6224Z" fill="#FFB71C"/>
<path fill-rule="evenodd" clip-rule="evenodd" d="M22.4003 47.3941L22.2075 48.0046C22.0469 48.4865 21.6935 48.8399 21.2116 49.0005L20.6012 49.1933C20.5048 49.2254 20.4727 49.2897 20.4727 49.386C20.4727 49.4824 20.5369 49.5467 20.6012 49.5788L21.2116 49.7716C21.6935 49.9322 22.0469 50.2856 22.2075 50.7675L22.4003 51.3779C22.4324 51.4743 22.4967 51.5064 22.5931 51.5064C22.6894 51.5064 22.7537 51.4422 22.7858 51.3779L22.9786 50.7675C23.1392 50.2856 23.4926 49.9322 23.9745 49.7716L24.585 49.5788C24.6813 49.5467 24.7135 49.4824 24.7135 49.386C24.7135 49.2897 24.6492 49.2254 24.585 49.1933L23.9745 49.0005C23.4926 48.8399 23.1392 48.4865 22.9786 48.0046L22.7858 47.3941C22.7537 47.2978 22.6894 47.2656 22.5931 47.2656C22.4967 47.2656 22.4324 47.2978 22.4003 47.3941Z" fill="#FFFF58"/>
</svg>
