<svg width="50" height="58" viewBox="0 0 50 58" fill="none" xmlns="http://www.w3.org/2000/svg">
<path d="M39.3203 35.8634C39.3203 35.3289 39.7605 34.8887 40.2951 34.8887C40.8296 34.8887 41.2698 35.3289 41.2698 35.8634V40.6113C41.2698 41.1459 40.8296 41.5861 40.2951 41.5861C39.7605 41.5861 39.3203 41.1459 39.3203 40.6113V35.8634Z" fill="#64D2FF"/>
<path d="M39.3203 35.8634C39.3203 35.3289 39.7605 34.8887 40.2951 34.8887V41.5861C39.7605 41.5861 39.3203 41.1459 39.3203 40.6113V35.8634Z" fill="#3DA7D1"/>
<path d="M12.5625 48.7238C12.5625 48.1892 13.0027 47.749 13.5372 47.749C14.0718 47.749 14.512 48.1892 14.512 48.7238V53.4717C14.512 54.0062 14.0718 54.4464 13.5372 54.4464C13.0027 54.4464 12.5625 54.0062 12.5625 53.4717V48.7238Z" fill="#64D2FF"/>
<path d="M12.5625 48.7238C12.5625 48.1892 13.0027 47.749 13.5372 47.749V54.4464C13.0027 54.4464 12.5625 54.0062 12.5625 53.4717V48.7238Z" fill="#3DA7D1"/>
<path fill-rule="evenodd" clip-rule="evenodd" d="M6.71461 19.1665L25.7063 10.4568L28.6933 11.5573L29.7939 8.57021L39.1325 4.29395L41.6479 9.76505L41.0505 11.3372C39.1953 12.2176 38.6923 13.4124 39.5727 15.3619C40.5474 17.4686 43.0314 18.4119 45.1381 17.4372L47.6535 22.9083L47.0561 24.4804L38.3149 27.216L35.3278 26.1155L34.2273 29.1026L15.2357 37.8123L12.1228 33.9134L12.7202 32.3412C14.8269 31.3665 15.7702 28.8825 14.7955 26.7758C13.8208 24.6691 11.3368 23.7258 9.23006 24.7005L6.11719 20.8016L6.71461 19.1665Z" fill="#AD4BDE"/>
<path fill-rule="evenodd" clip-rule="evenodd" d="M39.1331 4.26172L41.6485 9.73282L41.0511 11.305C39.196 12.1854 38.6929 13.3802 39.5733 15.3297C40.548 17.4364 43.032 18.3797 45.1387 17.4049L47.6542 22.876L47.0567 24.4482L40.9568 26.3662C37.781 22.2786 34.8254 16.1158 34.731 15.1096C34.6053 13.9148 35.0455 11.9024 36.7434 9.76426L38.5357 5.86532L39.1331 4.26172Z" fill="#B565DE"/>
<path fill-rule="evenodd" clip-rule="evenodd" d="M6.11719 20.7085L25.1088 11.9988L28.0959 13.0993L29.1964 10.1122L38.535 5.83594L41.0505 11.307C38.9438 12.2818 38.0005 14.7658 38.9752 16.8725C39.95 18.9792 42.434 19.9225 44.5407 18.9477L47.0561 24.4188L37.7175 28.6951L34.7304 27.5946L33.6299 30.5817L14.6383 39.2914L12.1228 33.8203C14.2295 32.8456 15.1728 30.3616 14.1981 28.2549C13.2233 26.1482 10.7393 25.2049 8.63264 26.1796L6.11719 20.7085Z" fill="#862FB1"/>
<path fill-rule="evenodd" clip-rule="evenodd" d="M25.0781 11.9961L28.0652 13.0966L34.7312 27.5919L33.6306 30.579L25.0781 11.9961Z" fill="#AD4BDE"/>
<path fill-rule="evenodd" clip-rule="evenodd" d="M28.0625 13.0993L29.163 10.1122L38.5016 5.83594L41.0171 11.307C38.9104 12.2818 37.9671 14.7658 38.9418 16.8725C39.9166 18.9792 42.4006 19.9225 44.5072 18.9477L47.0227 24.4188L37.6841 28.6951L34.697 27.5946L28.0625 13.0993Z" fill="#862FB1"/>
<path fill-rule="evenodd" clip-rule="evenodd" d="M18.4103 18.4121L21.1144 20.3301C21.2402 20.4244 21.366 20.4244 21.4917 20.393L24.7304 19.6698C24.8876 19.6383 25.0762 19.6698 25.1706 19.827C25.2963 19.9528 25.3278 20.11 25.2649 20.2986L24.2902 23.4744C24.2587 23.6002 24.2587 23.7259 24.3216 23.8517L25.9881 26.713C26.0824 26.8703 26.0824 27.0275 25.9881 27.1847C25.8938 27.3419 25.768 27.4362 25.5793 27.4362L22.2778 27.4991C22.152 27.4991 22.0263 27.562 21.9319 27.6563L19.7309 30.1403C19.6051 30.2661 19.4479 30.329 19.2907 30.2976C19.1335 30.2661 18.9763 30.1403 18.9448 29.9831L17.8758 26.8388C17.8443 26.713 17.75 26.6187 17.6242 26.5558L14.5742 25.2352C14.417 25.1723 14.3227 25.0151 14.2913 24.8579C14.2598 24.6692 14.3541 24.512 14.4799 24.4177L17.1211 22.4368C17.2469 22.3424 17.3098 22.2481 17.3098 22.0909L17.6242 18.7894C17.6557 18.6007 17.75 18.4749 17.9072 18.4121C18.0959 18.2863 18.2845 18.3177 18.4103 18.4121Z" fill="#631E85"/>
<path fill-rule="evenodd" clip-rule="evenodd" d="M29.1945 10.1104L28.0625 13.0974L34.7284 27.5927L37.7155 28.6932L29.1945 10.1104Z" fill="#631E85"/>
<path fill-rule="evenodd" clip-rule="evenodd" d="M19.6366 18.7568L22.3407 20.6748C22.4665 20.7691 22.5923 20.7691 22.718 20.7377L25.9567 20.0145C26.1139 19.9831 26.3025 20.0145 26.3969 20.1717C26.5226 20.2975 26.5541 20.4547 26.4912 20.6434L25.5165 23.8191C25.485 23.9449 25.485 24.0707 25.5479 24.1964L27.2144 27.0578C27.3087 27.215 27.3087 27.3722 27.2144 27.5294C27.1201 27.6866 26.9943 27.781 26.8056 27.781L23.5041 27.8438C23.3783 27.8438 23.2526 27.9067 23.1582 28.0011L20.9572 30.4851C20.8315 30.6108 20.6742 30.6737 20.517 30.6423C20.3598 30.6108 20.2026 30.4851 20.1711 30.3278L19.1021 27.1835C19.0706 27.0578 18.9763 26.9634 18.8505 26.9005L15.8006 25.5799C15.6433 25.5171 15.549 25.3598 15.5176 25.2026C15.4861 25.014 15.5804 24.8567 15.7062 24.7624L18.3474 22.7815C18.4732 22.6872 18.5361 22.5928 18.5361 22.4356L18.8505 19.1341C18.882 18.9454 18.9763 18.8197 19.1335 18.7568C19.3222 18.631 19.5108 18.6625 19.6366 18.7568Z" fill="#DE9C00"/>
<path fill-rule="evenodd" clip-rule="evenodd" d="M19.6361 18.7593L22.3402 20.6773C22.466 20.7717 22.5917 20.7717 22.7175 20.7402L25.9562 20.017C26.1134 19.9856 26.302 20.017 26.3964 20.1742C26.5221 20.3 26.5536 20.4572 26.4907 20.6459L25.516 23.8216C25.4845 23.9474 25.4845 24.0732 25.5474 24.199L27.2139 27.0603C27.3082 27.2175 27.3082 27.3747 27.2139 27.5319C27.1196 27.6891 26.9938 27.7835 26.8051 27.7835L23.5036 27.8464C23.4407 27.8464 23.3778 27.8464 23.3149 27.8778L19.1016 18.7279C19.3217 18.6335 19.5103 18.665 19.6361 18.7593Z" fill="#DEDE3D"/>
<path fill-rule="evenodd" clip-rule="evenodd" d="M30.4209 16.9958L29.2889 17.5303L30.3265 19.7628L31.4585 19.2283L30.4209 16.9958ZM32.3075 21.0834L31.1755 21.6179L32.2131 23.8504L33.3451 23.3159L32.3075 21.0834ZM34.1941 25.171L33.0621 25.7055L34.0997 27.938L35.2317 27.4035L34.1941 25.171ZM28.5343 12.9082L27.4023 13.4427L28.44 15.6752L29.5719 15.1407L28.5343 12.9082Z" fill="#631E85"/>
<path fill-rule="evenodd" clip-rule="evenodd" d="M12.1211 33.8511C13.4417 33.2537 14.2907 32.0589 14.5108 30.7383C14.102 31.3986 13.4731 31.9646 12.7185 32.3104L12.1211 33.8511Z" fill="#631E85"/>
<path fill-rule="evenodd" clip-rule="evenodd" d="M4.60914 29.1011L23.6008 20.3914L26.5879 21.4919L27.6884 18.5048L37.027 14.2285L39.5424 19.6996L38.945 21.2718C37.0899 22.1522 36.5868 23.347 37.4672 25.2965C38.4419 27.4032 40.9259 28.3465 43.0326 27.3717L45.5481 32.8428L44.9506 34.415L36.2095 37.1505L33.2224 36.05L32.1219 39.0371L13.1302 47.7469L10.0174 43.8479L10.6148 42.2758C12.7215 41.301 13.6648 38.817 12.69 36.7103C11.7153 34.6037 9.23127 33.6604 7.12458 34.6351L4.01172 30.7362L4.60914 29.1011Z" fill="#CC66FF"/>
<path fill-rule="evenodd" clip-rule="evenodd" d="M37.0237 14.1963L39.5391 19.6674L38.9417 21.2395C37.0866 22.12 36.5835 23.3148 37.4639 25.2643C38.4386 27.371 40.9226 28.3142 43.0293 27.3395L45.5448 32.8106L44.9474 34.3828L38.8474 36.3008C35.6716 32.2132 32.716 26.0503 32.6217 25.0442C32.4959 23.8493 32.9361 21.837 34.634 19.6988L36.4263 15.7999L37.0237 14.1963Z" fill="#D582FF"/>
<path fill-rule="evenodd" clip-rule="evenodd" d="M4.01172 30.6743L23.0034 21.9646L25.9904 23.0651L27.091 20.078L36.4296 15.8018L38.945 21.2729C36.8383 22.2476 35.895 24.7316 36.8698 26.8383C37.8445 28.945 40.3285 29.8883 42.4352 28.9135L44.9506 34.3846L35.612 38.6609L32.6249 37.5604L31.5244 40.5475L12.5328 49.2572L10.0174 43.7861C12.124 42.8114 13.0673 40.3274 12.0926 38.2207C11.1179 36.114 8.63386 35.1707 6.52717 36.1454L4.01172 30.6743Z" fill="#A449D1"/>
<path fill-rule="evenodd" clip-rule="evenodd" d="M23.0039 21.9639L25.991 23.0644L32.6569 37.5282L31.525 40.5467L23.0039 21.9639Z" fill="#CC66FF"/>
<path fill-rule="evenodd" clip-rule="evenodd" d="M25.9883 23.0651L27.0888 20.078L36.4274 15.8018L38.9428 21.2729C36.8362 22.2476 35.8929 24.7316 36.8676 26.8383C37.8423 28.945 40.3263 29.8883 42.433 28.9135L44.9485 34.3846L35.6099 38.6609L32.6228 37.5604L25.9883 23.0651Z" fill="#A449D1"/>
<path fill-rule="evenodd" clip-rule="evenodd" d="M16.3322 28.3805L19.0363 30.2985C19.162 30.3928 19.2878 30.3928 19.4136 30.3614L22.6522 29.6382C22.8094 29.6067 22.9981 29.6382 23.0924 29.7954C23.2182 29.9212 23.2497 30.0784 23.1868 30.267L22.212 33.4428C22.1806 33.5686 22.1806 33.6943 22.2435 33.8201L23.91 36.6814C24.0043 36.8387 24.0043 36.9959 23.91 37.1531C23.8156 37.3103 23.6899 37.4046 23.5012 37.4046L20.1997 37.4675C20.0739 37.4675 19.9481 37.5304 19.8538 37.6247L17.6528 40.1087C17.527 40.2345 17.3698 40.2974 17.2126 40.266C17.0554 40.2345 16.8981 40.1087 16.8667 39.9515L15.7976 36.8072C15.7662 36.6814 15.6719 36.5871 15.5461 36.5242L12.4961 35.2036C12.3389 35.1407 12.2446 34.9835 12.2131 34.8263C12.1817 34.6376 12.276 34.4804 12.4018 34.3861L15.043 32.4052C15.1688 32.3109 15.2317 32.2165 15.2317 32.0593L15.5461 28.7578C15.5775 28.5691 15.6719 28.4433 15.8291 28.3805C16.0177 28.2547 16.1749 28.2547 16.3322 28.3805Z" fill="#7F38A3"/>
<path fill-rule="evenodd" clip-rule="evenodd" d="M27.0888 20.0781L25.9883 23.0652L32.6542 37.5291L35.6413 38.661L27.0888 20.0781Z" fill="#7F38A3"/>
<path fill-rule="evenodd" clip-rule="evenodd" d="M17.5587 28.6918L20.2628 30.6099C20.3886 30.7042 20.5144 30.7042 20.6402 30.6728L23.8788 29.9496C24.036 29.9181 24.2247 29.9496 24.319 30.1068C24.4448 30.2326 24.4762 30.3898 24.4133 30.5784L23.4386 33.7542C23.4071 33.88 23.4072 34.0057 23.47 34.1315L25.1365 36.9928C25.2308 37.15 25.2308 37.3073 25.1365 37.4645C25.0422 37.6217 24.9164 37.716 24.7278 37.716L21.4262 37.7789C21.3005 37.7789 21.1747 37.8418 21.0804 37.9361L18.8793 40.4201C18.7536 40.5459 18.5964 40.6088 18.4391 40.5773C18.2819 40.5459 18.1247 40.4201 18.0933 40.2629L17.0242 37.1186C16.9928 36.9928 16.8984 36.8985 16.7727 36.8356L13.7227 35.515C13.5655 35.4521 13.4711 35.2949 13.4397 35.1377C13.4082 34.949 13.5026 34.7918 13.6283 34.6975L16.2696 32.7166C16.3953 32.6222 16.4582 32.5279 16.4582 32.3707L16.7727 29.0692C16.8041 28.8805 16.8984 28.7547 17.0556 28.6918C17.2443 28.5975 17.4015 28.5975 17.5587 28.6918Z" fill="#FFBB04"/>
<path fill-rule="evenodd" clip-rule="evenodd" d="M17.5619 28.6934L20.266 30.6115C20.3918 30.7058 20.5175 30.7058 20.6433 30.6744L23.8819 29.9512C24.0392 29.9197 24.2278 29.9512 24.3221 30.1084C24.4479 30.2341 24.4794 30.3914 24.4165 30.58L23.4417 33.7558C23.4103 33.8815 23.4103 34.0073 23.4732 34.1331L25.1397 36.9944C25.234 37.1516 25.234 37.3088 25.1397 37.4661C25.0453 37.6233 24.9196 37.7176 24.7309 37.7176L21.4294 37.7805C21.3665 37.7805 21.3036 37.7805 21.2407 37.8119L17.0273 28.662C17.2474 28.5991 17.4047 28.5991 17.5619 28.6934Z" fill="#FFFF58"/>
<path fill-rule="evenodd" clip-rule="evenodd" d="M28.3467 26.9323L27.2147 27.4669L28.2523 29.6993L29.3843 29.1648L28.3467 26.9323ZM30.2333 31.0199L29.1013 31.5545L30.1389 33.7869L31.2709 33.2524L30.2333 31.0199ZM32.0884 35.1075L30.9564 35.6421L31.9941 37.8745L33.126 37.34L32.0884 35.1075ZM26.4601 22.8447L25.3281 23.3793L26.3658 25.6117L27.4977 25.0772L26.4601 22.8447Z" fill="#7F38A3"/>
<path fill-rule="evenodd" clip-rule="evenodd" d="M10.0469 43.7857C11.3675 43.1883 12.2165 41.9935 12.4366 40.6729C12.0278 41.3332 11.3989 41.8991 10.6443 42.245L10.0469 43.7857Z" fill="#7F38A3"/>
<path d="M47.4961 28.6923C47.4961 28.0949 47.9992 27.5918 48.5966 27.5918C49.194 27.5918 49.6971 28.0949 49.6971 28.6923V41.0494C49.6971 41.6469 49.194 42.15 48.5966 42.15C47.9992 42.15 47.4961 41.6469 47.4961 41.0494V28.6923Z" fill="#3DA7D1"/>
<path d="M31.6797 46.93C31.6797 46.3011 32.2142 45.7666 32.8431 45.7666C33.4719 45.7666 34.0065 46.3011 34.0065 46.93V56.7402C34.0065 57.3691 33.4719 57.9036 32.8431 57.9036C32.2142 57.9036 31.6797 57.3691 31.6797 56.7402V46.93Z" fill="#3DA7D1"/>
<path d="M32.8438 45.7666C33.4726 45.7666 34.0071 46.3011 34.0071 46.93V56.7402C34.0071 57.3691 33.4726 57.9036 32.8438 57.9036V45.7666Z" fill="#64D2FF"/>
<path d="M48.5938 27.5918C49.1912 27.5918 49.6943 28.0949 49.6943 28.6923V41.0494C49.6943 41.6469 49.1912 42.15 48.5938 42.15V27.5918Z" fill="#64D2FF"/>
<path d="M29.1338 1.02343L29.3539 1.74662C29.5426 2.31259 29.9513 2.72135 30.5173 2.91001L31.2405 3.13011C31.3348 3.16156 31.3977 3.25589 31.3977 3.35022C31.3977 3.44455 31.3348 3.53888 31.2405 3.57032L30.5173 3.79042C29.9513 3.97908 29.5426 4.38784 29.3539 4.95382L29.1338 5.67701C29.1024 5.77134 29.008 5.83422 28.9137 5.83422C28.8194 5.83422 28.725 5.77134 28.6936 5.67701L28.4735 4.95382C28.2848 4.38784 27.8761 3.97908 27.3101 3.79042L26.5869 3.57032C26.4926 3.53888 26.4297 3.44455 26.4297 3.35022C26.4297 3.25589 26.4926 3.16156 26.5869 3.13011L27.3101 2.91001C27.8761 2.72135 28.2848 2.31259 28.4735 1.74662L28.6936 1.02343C28.725 0.929097 28.8194 0.866211 28.9137 0.866211C29.008 0.866211 29.1024 0.929097 29.1338 1.02343Z" fill="#64D2FF"/>
<path d="M3.34864 37.7178L3.56875 38.441C3.7574 39.0069 4.16616 39.4157 4.73214 39.6043L5.45533 39.8245C5.54966 39.8559 5.61255 39.9502 5.61255 40.0446C5.61255 40.1389 5.54966 40.2332 5.45533 40.2647L4.73214 40.4848C4.16616 40.6734 3.7574 41.0822 3.56875 41.6482L3.34864 42.3713C3.3172 42.4657 3.22286 42.5286 3.12854 42.5286C3.03421 42.5286 2.93988 42.4657 2.90844 42.3713L2.68833 41.6482C2.49967 41.0822 2.09092 40.6734 1.52494 40.4848L0.801747 40.2647C0.707417 40.2332 0.644531 40.1389 0.644531 40.0446C0.644531 39.9502 0.707417 39.8559 0.801747 39.8245L1.52494 39.6043C2.09092 39.4157 2.49967 39.0069 2.68833 38.441L2.90844 37.7178C2.93988 37.6234 3.03421 37.5605 3.12854 37.5605C3.25431 37.5605 3.3172 37.6234 3.34864 37.7178Z" fill="#64D2FF"/>
<path d="M47.8418 14.2605L48.0305 14.858C48.1877 15.3296 48.5021 15.644 48.9738 15.8013L49.5712 15.9899C49.6655 16.0214 49.697 16.0842 49.697 16.1786C49.697 16.2729 49.6341 16.3358 49.5712 16.3672L48.9738 16.5559C48.5021 16.7131 48.1877 17.0275 48.0305 17.4992L47.8418 18.0966C47.8104 18.1909 47.7475 18.2224 47.6532 18.2224C47.5589 18.2224 47.496 18.1595 47.4645 18.0966L47.2759 17.4992C47.1187 17.0275 46.8042 16.7131 46.3326 16.5559L45.7351 16.3672C45.6408 16.3358 45.6094 16.2729 45.6094 16.1786C45.6094 16.0842 45.6723 16.0214 45.7351 15.9899L46.3326 15.8013C46.8042 15.644 47.1187 15.3296 47.2759 14.858L47.4645 14.2605C47.496 14.1662 47.5589 14.1348 47.6532 14.1348C47.7475 14.1348 47.8104 14.1977 47.8418 14.2605Z" fill="#64D2FF"/>
</svg>
