<svg width="53" height="49" viewBox="0 0 53 49" fill="none" xmlns="http://www.w3.org/2000/svg">
<path fill-rule="evenodd" clip-rule="evenodd" d="M29.9164 19.5567L37.8724 27.5128C38.1099 27.7502 38.4959 27.7502 38.7333 27.5128L50.519 15.7271L41.702 6.91016L29.9164 18.6958C29.6789 18.9333 29.6789 19.3192 29.9164 19.5567Z" fill="#A449D1"/>
<path fill-rule="evenodd" clip-rule="evenodd" d="M29.9168 19.5591L31.1042 20.7466C33.7167 20.6575 37.7244 21.2809 41.2571 25.0215L44.107 22.1715C39.9806 17.8373 35.2604 16.7982 31.8761 16.7686L29.9464 18.6982C29.6793 18.9357 29.6793 19.3216 29.9168 19.5591Z" fill="#FF9F0A"/>
<path fill-rule="evenodd" clip-rule="evenodd" d="M46.7763 19.4974L49.6262 16.6475L49.5371 16.5287L48.32 15.3116C45.3513 12.521 42.3826 11.0367 39.6514 10.2945C39.2952 10.2055 38.9389 10.1164 38.5827 10.0273L34.9609 13.6491C36.089 13.6788 37.3062 13.8272 38.5827 14.1538C41.1061 14.896 43.8966 16.41 46.7763 19.4974Z" fill="#FF9F0A"/>
<path fill-rule="evenodd" clip-rule="evenodd" d="M29.9164 19.5571L32.7663 22.407L44.1363 11.037L40.8708 7.77148L29.9164 18.7259C29.6789 18.9337 29.6789 19.3196 29.9164 19.5571Z" fill="#C767F6"/>
<path fill-rule="evenodd" clip-rule="evenodd" d="M29.9164 19.5591L31.1039 20.7466C31.9945 20.7169 33.0335 20.7763 34.1616 20.9841L37.3974 17.7482C35.3787 17.0357 33.4491 16.7686 31.846 16.7686L29.9164 18.6982C29.6789 18.9357 29.6789 19.3216 29.9164 19.5591Z" fill="#FFC124"/>
<path fill-rule="evenodd" clip-rule="evenodd" d="M43.3631 11.8091C42.0865 11.1263 40.81 10.6514 39.5928 10.3248C39.2366 10.2357 38.8804 10.1467 38.5241 10.0576L34.9023 13.6794C36.0304 13.7091 37.2476 13.8575 38.5241 14.1841C39.1179 14.3325 39.7116 14.5403 40.335 14.8075L43.3631 11.8091Z" fill="#FFC124"/>
<path fill-rule="evenodd" clip-rule="evenodd" d="M30.3601 20.002L37.4256 27.0674L36.5943 27.8986C36.3568 28.1361 36.0006 28.1361 35.7631 27.8986L29.1133 21.2488V21.2191L30.3601 20.002Z" fill="#7F38A3"/>
<path fill-rule="evenodd" clip-rule="evenodd" d="M50.4581 15.7001L41.7599 7.00188C41.5818 6.82376 41.5224 6.55658 41.6115 6.31909C41.7005 6.08159 41.9083 5.90347 42.1458 5.87379L51.4675 4.74569C51.8237 4.716 52.1503 4.80506 52.4175 5.07224C52.6846 5.33942 52.7737 5.66598 52.744 6.02222L51.5862 15.3142C51.5565 15.5814 51.3784 15.7892 51.1409 15.8485C50.9034 15.9376 50.6362 15.8782 50.4581 15.7001Z" fill="#BF5AF2"/>
<path fill-rule="evenodd" clip-rule="evenodd" d="M32.376 24.516L30.5651 22.7051L11.9812 41.289C11.5063 41.764 11.5063 42.5358 11.9812 43.0108L12.0703 43.0999C12.5453 43.5749 13.3171 43.5749 13.7921 43.0999L32.376 24.516Z" fill="#E68600"/>
<path d="M35.4781 39.767L38.207 37.0381L24.2477 23.0787L21.5188 25.8076L35.4781 39.767Z" fill="#3DA7D1"/>
<path d="M36.7687 38.2232L38.0703 36.9219L24.2179 23.0655L22.9162 24.3668L36.7687 38.2232Z" fill="#7BFCFF"/>
<path fill-rule="evenodd" clip-rule="evenodd" d="M21.4844 25.821L24.2156 23.0898L27.392 26.2663C26.8577 27.4835 26.0264 28.5225 24.9874 29.3537L21.4844 25.821Z" fill="#3DA7D1"/>
<path fill-rule="evenodd" clip-rule="evenodd" d="M42.7401 35.1724L42.8291 35.2614L33.6559 44.405L33.5669 44.3159C29.6482 40.3972 38.8214 31.224 42.7401 35.1724Z" fill="#3DA7D1"/>
<path fill-rule="evenodd" clip-rule="evenodd" d="M13.2925 5.01091L24.1875 15.0747C32.7373 22.9714 21.1595 34.5492 13.2628 25.9994L3.19901 15.1044C1.09126 12.8185 10.9769 2.87346 13.2925 5.01091Z" fill="#3DA7D1"/>
<path fill-rule="evenodd" clip-rule="evenodd" d="M12.9956 4.80338C15.1034 7.08925 5.42548 16.3218 3.19897 15.1047C1.09121 12.8188 10.68 3.55653 12.9956 4.80338Z" fill="#7BFCFF"/>
<path fill-rule="evenodd" clip-rule="evenodd" d="M24.3058 17.9834C28.4917 23.9207 20.3575 31.2237 14.717 25.1082L8.15625 17.9834H24.3058Z" fill="#2481A6"/>
<path fill-rule="evenodd" clip-rule="evenodd" d="M11.5978 5.75167C13.0822 7.35475 5.92765 14.3014 4.29488 13.4108C2.78085 11.7781 9.93537 4.86106 11.5978 5.75167Z" fill="#3DA7D1"/>
<path fill-rule="evenodd" clip-rule="evenodd" d="M8.00724 11.5414C6.49321 12.8476 4.9495 13.7679 4.29639 13.4116C3.67297 12.7288 4.53389 11.1554 5.89948 9.58203L8.00724 11.5414Z" fill="#3DA7D1"/>
<path fill-rule="evenodd" clip-rule="evenodd" d="M16.2312 18.9322C20.6842 18.9322 24.306 18.5166 24.306 17.9822C24.306 17.4478 20.6842 17.0322 16.2312 17.0322C11.7782 17.0322 8.15643 17.4478 8.15643 17.9822C8.12674 18.5166 11.7485 18.9322 16.2312 18.9322Z" fill="#7BFCFF"/>
<path fill-rule="evenodd" clip-rule="evenodd" d="M37.6624 36.5071C38.9686 36.0321 40.2748 36.0618 41.2842 36.7743L42.8279 35.2305L42.7388 35.1415C41.1654 33.5681 38.7608 34.0728 36.6827 35.5274C36.178 35.8837 35.7031 36.2696 35.2578 36.7149C34.7828 37.1899 34.3375 37.7242 33.9515 38.2586C33.4765 38.9414 33.0906 39.6539 32.8828 40.3663C33.2984 39.7429 33.8031 39.1492 34.3375 38.6148C34.8421 38.1398 35.3765 37.6945 35.9108 37.3383C36.5046 37.0117 37.0686 36.7149 37.6624 36.5071Z" fill="#7BFCFF"/>
<path fill-rule="evenodd" clip-rule="evenodd" d="M25.9653 25.3456C26.0247 25.2268 26.1137 25.1378 26.1731 25.019C27.8059 22.1691 27.6871 18.3098 24.1841 15.074L13.2891 5.01015C13.2 4.95078 13.1109 4.8914 13.0219 4.83203C13.4078 5.27733 13.3484 6.0195 12.9922 6.85073L22.9669 16.0833C26.2028 19.0223 26.8559 22.466 25.9653 25.3456Z" fill="#7BFCFF"/>
<path fill-rule="evenodd" clip-rule="evenodd" d="M21.3383 20.4795C20.982 20.4795 20.7148 20.7467 20.7148 21.1029C20.7148 21.4592 20.982 21.7263 21.3383 21.7263C21.6945 21.7263 21.9617 21.4592 21.9617 21.1029C21.9617 20.7764 21.6945 20.4795 21.3383 20.4795Z" fill="#3DA7D1"/>
<path fill-rule="evenodd" clip-rule="evenodd" d="M15.6937 20.2988C15.189 20.2988 14.7734 20.7144 14.7734 21.2191C14.7734 21.7238 15.189 22.1394 15.6937 22.1394C16.1984 22.1394 16.614 21.7238 16.614 21.2191C16.614 20.7144 16.1984 20.2988 15.6937 20.2988Z" fill="#3DA7D1"/>
<path fill-rule="evenodd" clip-rule="evenodd" d="M19.9117 24.2764C19.4367 24.2764 19.0508 24.6623 19.0508 25.1373C19.0508 25.6123 19.4367 25.9982 19.9117 25.9982C20.3867 25.9982 20.7726 25.6123 20.7726 25.1373C20.7726 24.6623 20.3867 24.2764 19.9117 24.2764Z" fill="#3DA7D1"/>
<path fill-rule="evenodd" clip-rule="evenodd" d="M11.2422 13.2051C10.589 13.2051 10.0547 13.7394 10.0547 14.3925C10.0547 15.0457 10.589 15.58 11.2422 15.58C11.8953 15.58 12.4296 15.0457 12.4296 14.3925C12.4296 13.7098 11.8953 13.2051 11.2422 13.2051Z" fill="#7BFCFF"/>
<path fill-rule="evenodd" clip-rule="evenodd" d="M16.707 15.0752C16.0539 15.0752 15.5195 15.6096 15.5195 16.2627C15.5195 16.9158 16.0539 17.4501 16.707 17.4501C17.3601 17.4501 17.8945 16.9158 17.8945 16.2627C17.8945 15.6096 17.3601 15.0752 16.707 15.0752Z" fill="#7BFCFF"/>
<path fill-rule="evenodd" clip-rule="evenodd" d="M16.2617 10.9785C15.6086 10.9785 15.0742 11.5129 15.0742 12.166C15.0742 12.8191 15.6086 13.3535 16.2617 13.3535C16.9148 13.3535 17.4492 12.8191 17.4492 12.166C17.4492 11.5129 16.9148 10.9785 16.2617 10.9785Z" fill="#7BFCFF"/>
<path fill-rule="evenodd" clip-rule="evenodd" d="M42.2344 5.84254L51.4669 4.71444C51.8232 4.68475 52.1497 4.77381 52.4169 5.04099C52.6841 5.30817 52.7732 5.63473 52.7435 5.99097C52.4466 8.33622 51.8826 13.1752 51.8826 13.1158L51.4373 9.13776C51.4076 8.78152 51.2294 8.48466 50.9623 8.27685C50.6951 8.06904 50.3685 7.97998 50.0123 8.00967L47.103 8.36591C45.7374 8.54403 44.5202 8.09873 43.5406 7.14875L42.2344 5.84254Z" fill="#D582FF"/>
<path fill-rule="evenodd" clip-rule="evenodd" d="M13.3798 31.6396C13.6469 31.1052 14.3297 30.8974 14.8641 31.1646C15.3985 31.4318 15.6063 32.1146 15.3391 32.649C14.7453 33.8067 13.6766 34.5489 12.5485 34.8755C11.8064 35.0833 11.0345 35.113 10.322 35.0239C9.57987 34.9052 8.86738 34.5786 8.33302 34.1036C7.73928 33.5693 7.38305 32.8568 7.35336 31.9365C7.32367 31.1943 7.62053 30.4521 8.06583 29.8881C8.54082 29.324 9.22362 28.9084 9.96579 28.8491C10.5892 28.8194 11.0939 29.2647 11.1236 29.8881C11.1532 30.5115 10.7079 31.0162 10.0845 31.0459C9.96578 31.0459 9.84704 31.1349 9.75798 31.2537C9.60954 31.4318 9.52048 31.6396 9.55017 31.8474C9.55017 32.0849 9.63924 32.263 9.81736 32.4115C10.0252 32.5896 10.322 32.7083 10.6783 32.7677C11.0642 32.8271 11.5095 32.7974 11.9251 32.6786C12.5485 32.5896 13.0829 32.2037 13.3798 31.6396Z" fill="#FFBB04"/>
<path fill-rule="evenodd" clip-rule="evenodd" d="M26.3512 32.8849C26.6777 32.3802 27.3605 32.2318 27.8652 32.5583C28.3699 32.8849 28.5183 33.5677 28.1917 34.0723C28.1917 34.0723 27.509 35.0817 27.4496 36.2988C27.4199 36.9519 27.3902 37.4863 27.509 37.9019C27.6277 38.3175 27.9246 38.7332 28.548 39.2675C28.9933 39.6831 29.0527 40.3659 28.637 40.8112C28.2214 41.2565 27.5387 41.3159 27.0934 40.9003C26.1434 40.0691 25.6387 39.2972 25.4012 38.4957C25.1637 37.6941 25.1934 36.9816 25.2528 36.1207C25.3715 34.3692 26.3512 32.8849 26.3512 32.8849Z" fill="#FFBB04"/>
<path d="M4.17496 36.5088C3.31404 36.5088 2.60156 37.2213 2.60156 38.0822C2.60156 38.9431 3.31404 39.6556 4.17496 39.6556C5.03587 39.6556 5.74835 38.9431 5.74835 38.0822C5.74835 37.1916 5.03587 36.5088 4.17496 36.5088Z" fill="#3DA7D1"/>
<path fill-rule="evenodd" clip-rule="evenodd" d="M29.0226 44.998C28.1617 44.998 27.4492 45.7105 27.4492 46.5714C27.4492 47.4324 28.1617 48.1448 29.0226 48.1448C29.8835 48.1448 30.596 47.4324 30.596 46.5714C30.596 45.6808 29.8835 44.998 29.0226 44.998Z" fill="#FFD60A"/>
<path d="M47.7561 31.3137C47.7561 31.7293 47.4296 32.0558 47.014 32.0558C46.5983 32.0558 46.2718 31.7293 46.2718 31.3137V29.4731C46.2718 29.0575 46.5983 28.7309 47.014 28.7309C47.4296 28.7309 47.7561 29.0575 47.7561 29.4731V31.3137ZM45.5593 27.306C45.9749 27.306 46.3015 27.6325 46.3015 28.0481C46.3015 28.4638 45.9749 28.7903 45.5593 28.7903H43.7187C43.3031 28.7903 42.9766 28.4638 42.9766 28.0481C42.9766 27.6325 43.3031 27.306 43.7187 27.306H45.5593ZM47.7561 26.5935C47.7561 27.0091 47.4296 27.3357 47.014 27.3357C46.5983 27.3357 46.2718 27.0091 46.2718 26.5935V24.7529C46.2718 24.3373 46.5983 24.0107 47.014 24.0107C47.4296 24.0107 47.7561 24.3373 47.7561 24.7529V26.5935ZM50.2795 27.306C50.6951 27.306 51.0217 27.6325 51.0217 28.0481C51.0217 28.4638 50.6951 28.7903 50.2795 28.7903H48.4389C48.0233 28.7903 47.6967 28.4638 47.6967 28.0481C47.6967 27.6325 48.0233 27.306 48.4389 27.306H50.2795Z" fill="#3DA7D1"/>
<path d="M3.79108 29.0877C3.79108 29.3846 3.55358 29.6518 3.22703 29.6518C2.93016 29.6518 2.66297 29.4143 2.66297 29.0877V27.7222C2.66297 27.4253 2.90047 27.1581 3.22703 27.1581C3.52389 27.1581 3.79108 27.3956 3.79108 27.7222V29.0877ZM2.12861 26.0597C2.42548 26.0597 2.69267 26.2972 2.69267 26.6237C2.69267 26.9206 2.45517 27.1878 2.12861 27.1878H0.76303C0.466163 27.1878 0.198975 26.9503 0.198975 26.6237C0.198975 26.3269 0.436476 26.0597 0.76303 26.0597H2.12861ZM3.79108 25.5253C3.79108 25.8222 3.55358 26.0894 3.22703 26.0894C2.93016 26.0894 2.66297 25.8519 2.66297 25.5253V24.1598C2.66297 23.8629 2.90047 23.5957 3.22703 23.5957C3.52389 23.5957 3.79108 23.8332 3.79108 24.1598V25.5253ZM5.69102 26.0597C5.98789 26.0597 6.25508 26.2972 6.25508 26.6237C6.25508 26.9206 6.01758 27.1878 5.69102 27.1878H4.32544C4.02857 27.1878 3.76138 26.9503 3.76138 26.6237C3.76138 26.3269 3.99888 26.0597 4.32544 26.0597H5.69102Z" fill="#3DA7D1"/>
<path fill-rule="evenodd" clip-rule="evenodd" d="M22.6421 47.4033C22.6421 47.8486 22.2858 48.2049 21.8405 48.2049C21.3952 48.2049 21.039 47.8486 21.039 47.4033V45.4143C21.039 44.969 21.3952 44.6128 21.8405 44.6128C22.2858 44.6128 22.6421 44.969 22.6421 45.4143V47.4033ZM20.2671 43.0394C20.7124 43.0394 21.0687 43.3956 21.0687 43.8409C21.0687 44.2862 20.7124 44.6424 20.2671 44.6424H18.2781C17.8328 44.6424 17.4766 44.2862 17.4766 43.8409C17.4766 43.3956 17.8328 43.0394 18.2781 43.0394H20.2671ZM22.6421 42.2378C22.6421 42.6831 22.2858 43.0394 21.8405 43.0394C21.3952 43.0394 21.039 42.6831 21.039 42.2378V40.2488C21.039 39.8035 21.3952 39.4473 21.8405 39.4473C22.2858 39.4473 22.6421 39.8035 22.6421 40.2488V42.2378ZM25.4029 43.0394C25.8482 43.0394 26.2045 43.3956 26.2045 43.8409C26.2045 44.2862 25.8482 44.6424 25.4029 44.6424H23.4139C22.9686 44.6424 22.6124 44.2862 22.6124 43.8409C22.6124 43.3956 22.9686 43.0394 23.4139 43.0394H25.4029Z" fill="#A449D1"/>
<path fill-rule="evenodd" clip-rule="evenodd" d="M30.1522 11.4507C30.1522 11.9554 29.7366 12.371 29.2319 12.371C28.7272 12.371 28.3116 11.9554 28.3116 11.4507V9.16487C28.3116 8.66019 28.7272 8.24458 29.2319 8.24458C29.7366 8.24458 30.1522 8.66019 30.1522 9.16487V11.4507ZM27.421 6.46337C27.9257 6.46337 28.3413 6.87899 28.3413 7.38366C28.3413 7.88834 27.9257 8.30395 27.421 8.30395H25.1351C24.6305 8.30395 24.2148 7.88834 24.2148 7.38366C24.2148 6.87899 24.6305 6.46337 25.1351 6.46337H27.421ZM30.1522 5.54308C30.1522 6.04776 29.7366 6.46337 29.2319 6.46337C28.7272 6.46337 28.3116 6.04776 28.3116 5.54308V3.2572C28.3116 2.75253 28.7272 2.33691 29.2319 2.33691C29.7366 2.33691 30.1522 2.75253 30.1522 3.2572V5.54308ZM33.3287 6.46337C33.8334 6.46337 34.249 6.87899 34.249 7.38366C34.249 7.88834 33.8334 8.30395 33.3287 8.30395H31.0428C30.5381 8.30395 30.1225 7.88834 30.1225 7.38366C30.1225 6.87899 30.5381 6.46337 31.0428 6.46337H33.3287Z" fill="#A449D1"/>
<path fill-rule="evenodd" clip-rule="evenodd" d="M20.7726 1.74316C19.9117 1.74316 19.1992 2.45565 19.1992 3.31656C19.1992 4.17748 19.9117 4.88996 20.7726 4.88996C21.6335 4.88996 22.346 4.17748 22.346 3.31656C22.346 2.45565 21.6632 1.74316 20.7726 1.74316Z" fill="#FFD60A"/>
<path d="M34.7843 0.201172C34.0719 0.201172 33.5078 0.76522 33.5078 1.4777C33.5078 2.19018 34.0719 2.75423 34.7843 2.75423C35.4968 2.75423 36.0609 2.19018 36.0609 1.4777C36.0609 0.76522 35.4671 0.201172 34.7843 0.201172Z" fill="#3DA7D1"/>
</svg>
