<svg width="25" height="25" viewBox="0 0 25 25" fill="none" xmlns="http://www.w3.org/2000/svg">
<g clip-path="url(#clip0_7_9667)">
<path d="M23.6094 11.6511C23.8675 11.4589 24.0589 11.1906 24.1569 10.8841C24.2548 10.5775 24.2544 10.248 24.1556 9.94164C24.0568 9.63533 23.8647 9.36762 23.606 9.17604C23.3474 8.98446 23.0353 8.87862 22.7135 8.87337L16.4635 8.63726C16.4328 8.63514 16.4034 8.62418 16.3787 8.60569C16.3541 8.58721 16.3353 8.562 16.3247 8.53309L14.1649 2.69976C14.0564 2.40298 13.8593 2.14671 13.6003 1.96566C13.3414 1.7846 13.033 1.6875 12.717 1.6875C12.401 1.6875 12.0927 1.7846 11.8337 1.96566C11.5747 2.14671 11.3776 2.40298 11.2691 2.69976L9.11632 8.55393C9.10568 8.58283 9.0869 8.60805 9.06226 8.62653C9.03762 8.64501 9.00816 8.65597 8.97743 8.65809L2.72743 8.8942C2.40563 8.89946 2.09354 9.0053 1.83492 9.19687C1.57631 9.38845 1.38414 9.65617 1.28535 9.96248C1.18657 10.2688 1.18612 10.5983 1.28408 10.9049C1.38205 11.2115 1.5735 11.4797 1.8316 11.672L6.73437 15.5261C6.75891 15.5455 6.77725 15.5715 6.78712 15.6012C6.797 15.6308 6.79797 15.6626 6.78993 15.6928L5.10243 21.672C5.01498 21.9765 5.02345 22.3005 5.12669 22.6C5.22993 22.8995 5.42292 23.1599 5.67941 23.3458C5.9359 23.5317 6.24343 23.6341 6.56018 23.639C6.87692 23.644 7.18749 23.5512 7.44965 23.3734L12.6302 19.9011C12.6557 19.8835 12.686 19.8741 12.717 19.8741C12.748 19.8741 12.7783 19.8835 12.8038 19.9011L17.9844 23.3734C18.243 23.5573 18.5525 23.6561 18.8698 23.6561C19.1871 23.6561 19.4966 23.5573 19.7552 23.3734C20.0118 23.1892 20.2049 22.9301 20.3082 22.6316C20.4114 22.3331 20.4196 22.01 20.3316 21.7067L18.6302 15.7067C18.6212 15.6766 18.6217 15.6444 18.6316 15.6146C18.6416 15.5848 18.6605 15.5587 18.6858 15.54L23.6094 11.6511Z" fill="#01D180"/>
</g>
<defs>
<clipPath id="clip0_7_9667">
<rect width="25" height="25" fill="white"/>
</clipPath>
</defs>
</svg>
