<svg width="22" height="22" viewBox="0 0 22 22" fill="none" xmlns="http://www.w3.org/2000/svg">
<g clip-path="url(#clip0_7_9849)">
<path d="M0 2.75C0 2.02065 0.289731 1.32118 0.805456 0.805456C1.32118 0.289731 2.02065 0 2.75 0L19.25 0C19.9793 0 20.6788 0.289731 21.1945 0.805456C21.7103 1.32118 22 2.02065 22 2.75V13.75C22 14.4793 21.7103 15.1788 21.1945 15.6945C20.6788 16.2103 19.9793 16.5 19.25 16.5H6.06925C5.70461 16.5001 5.35493 16.645 5.09713 16.9029L1.17425 20.8258C1.07818 20.9221 0.955695 20.9877 0.8223 21.0144C0.688904 21.0411 0.550594 21.0276 0.424874 20.9756C0.299155 20.9236 0.191678 20.8355 0.116046 20.7225C0.0404148 20.6094 2.88955e-05 20.4764 0 20.3404L0 2.75ZM4.8125 4.125C4.63016 4.125 4.4553 4.19743 4.32636 4.32636C4.19743 4.4553 4.125 4.63016 4.125 4.8125C4.125 4.99484 4.19743 5.1697 4.32636 5.29864C4.4553 5.42757 4.63016 5.5 4.8125 5.5H17.1875C17.3698 5.5 17.5447 5.42757 17.6736 5.29864C17.8026 5.1697 17.875 4.99484 17.875 4.8125C17.875 4.63016 17.8026 4.4553 17.6736 4.32636C17.5447 4.19743 17.3698 4.125 17.1875 4.125H4.8125ZM4.8125 7.5625C4.63016 7.5625 4.4553 7.63493 4.32636 7.76386C4.19743 7.8928 4.125 8.06766 4.125 8.25C4.125 8.43234 4.19743 8.6072 4.32636 8.73614C4.4553 8.86507 4.63016 8.9375 4.8125 8.9375H17.1875C17.3698 8.9375 17.5447 8.86507 17.6736 8.73614C17.8026 8.6072 17.875 8.43234 17.875 8.25C17.875 8.06766 17.8026 7.8928 17.6736 7.76386C17.5447 7.63493 17.3698 7.5625 17.1875 7.5625H4.8125ZM4.8125 11C4.63016 11 4.4553 11.0724 4.32636 11.2014C4.19743 11.3303 4.125 11.5052 4.125 11.6875C4.125 11.8698 4.19743 12.0447 4.32636 12.1736C4.4553 12.3026 4.63016 12.375 4.8125 12.375H11.6875C11.8698 12.375 12.0447 12.3026 12.1736 12.1736C12.3026 12.0447 12.375 11.8698 12.375 11.6875C12.375 11.5052 12.3026 11.3303 12.1736 11.2014C12.0447 11.0724 11.8698 11 11.6875 11H4.8125Z" fill="#01D180"/>
</g>
<defs>
<clipPath id="clip0_7_9849">
<rect width="22" height="22" fill="white"/>
</clipPath>
</defs>
</svg>
