<svg width="154" height="57" viewBox="0 0 154 57" fill="none" xmlns="http://www.w3.org/2000/svg">
<path fill-rule="evenodd" clip-rule="evenodd" d="M28.0625 19.481C32.0539 19.481 35.447 22.065 36.6561 25.648C34.5339 24.8895 32.35 24.4639 30.0243 24.5256L30.0551 25.6049C32.4858 25.5432 34.756 26.0057 36.9707 26.8321C37.0756 27.3871 37.1311 27.9545 37.1311 28.5403C37.1311 33.548 33.0718 37.5998 28.0687 37.5998C27.4579 37.5998 26.8595 37.5381 26.2796 37.4209C27.9946 35.9593 29.4567 34.2881 30.5671 32.2406L29.6171 31.7226C28.4573 33.8564 26.915 35.5893 25.0951 37.094C21.5479 35.8668 19 32.4934 19 28.5342C19 26.24 19.8513 24.1432 21.2641 22.546C21.6712 24.7599 22.393 26.8629 23.6083 28.8425L24.5337 28.2752C23.2629 26.203 22.5349 24.0076 22.1401 21.6764C23.7317 20.3012 25.8046 19.4686 28.0687 19.4686L28.0625 19.481Z" fill="white"/>
<path d="M44.5693 31.4076H48.3517V27.5638H45.3381C45.1331 27.5638 44.9537 27.6407 44.8 27.7944C44.6462 27.9482 44.5693 28.1275 44.5693 28.3325V31.4076ZM44.5693 33.3295H42.5859V22.7667H44.5693V26.426C44.5693 26.2108 44.6462 26.0263 44.8 25.8725C44.9537 25.7188 45.1331 25.6419 45.3381 25.6419H49.5663C49.7815 25.6419 49.9609 25.7188 50.1044 25.8725C50.2582 26.0263 50.335 26.2056 50.335 26.4106V32.5607C50.335 32.776 50.2582 32.9605 50.1044 33.1142C49.9609 33.2577 49.7815 33.3295 49.5663 33.3295H45.3381C45.1331 33.3295 44.9537 33.2577 44.8 33.1142C44.6462 32.9605 44.5693 32.776 44.5693 32.5607V33.3295Z" fill="white"/>
<path d="M52.1797 26.4107C52.1797 26.1954 52.2514 26.0161 52.3949 25.8726C52.5487 25.7188 52.7332 25.642 52.9484 25.642H59.1753C59.3803 25.642 59.5547 25.7188 59.6981 25.8726C59.852 26.0161 59.929 26.1954 59.929 26.4107V29.6856C59.929 29.8906 59.852 30.07 59.6981 30.2237C59.5547 30.3775 59.3752 30.4544 59.1599 30.4544H54.1631V31.4077H59.929V33.3296H52.9484C52.7332 33.3296 52.5487 33.2578 52.3949 33.1143C52.2514 32.9606 52.1797 32.776 52.1797 32.5608V26.4107ZM54.1631 27.5638V28.5325H57.9453V27.5638H54.1631Z" fill="white"/>
<path d="M64.1081 22.7667V25.6419H65.4611V27.5638H64.1081V31.4076H65.4611V33.3295H62.8781C62.6732 33.3295 62.4937 33.2577 62.3398 33.1142C62.1863 32.9605 62.1094 32.7811 62.1094 32.5761V27.5638H61.1562V25.6419H62.1094V22.7667H64.1081Z" fill="white"/>
<path d="M67.7648 33.3296C67.5498 33.3296 67.3654 33.2578 67.2115 33.1143C67.068 32.9606 66.9961 32.776 66.9961 32.5608V30.931H68.9797V31.4077H72.7617V30.4544H67.7648C67.5498 30.4544 67.3654 30.3775 67.2115 30.2237C67.068 30.07 66.9961 29.8906 66.9961 29.6856V26.4107C66.9961 26.2057 67.068 26.0263 67.2115 25.8726C67.3654 25.7188 67.5498 25.642 67.7648 25.642H73.9767C74.1916 25.642 74.3711 25.7188 74.5145 25.8726C74.6684 26.0263 74.7454 26.2057 74.7454 26.4107V28.0559H72.7617V27.5638H68.9797V28.5325H73.9767C74.1916 28.5325 74.3711 28.6094 74.5145 28.7631C74.6684 28.9066 74.7454 29.0809 74.7454 29.2859V32.5762C74.7454 32.7812 74.6684 32.9606 74.5145 33.1143C74.3711 33.2578 74.1916 33.3296 73.9767 33.3296H67.7648Z" fill="white"/>
<path d="M82.3555 27.5638H78.5735V31.4077H82.3555V27.5638ZM84.3391 32.5608C84.3391 32.776 84.2622 32.9606 84.1083 33.1143C83.9648 33.2578 83.7854 33.3296 83.5704 33.3296H77.3585C77.1436 33.3296 76.9591 33.2578 76.8052 33.1143C76.6618 32.9606 76.5898 32.776 76.5898 32.5608V26.4261C76.5898 26.2108 76.6618 26.0263 76.8052 25.8726C76.9591 25.7188 77.1436 25.642 77.3585 25.642H83.5704C83.7854 25.642 83.9648 25.7188 84.1083 25.8726C84.2622 26.0263 84.3391 26.2057 84.3391 26.4107V32.5608Z" fill="white"/>
<path d="M88.1711 22.7667V31.4076H88.8629V33.3295H86.9566C86.7412 33.3295 86.5568 33.2577 86.4029 33.1142C86.2594 32.9605 86.1875 32.7811 86.1875 32.5761V22.7667H88.1711Z" fill="white"/>
<path d="M95.8269 25.642H97.8102V33.3296H95.8269V32.5608C95.8269 32.776 95.75 32.9606 95.5961 33.1143C95.4426 33.2578 95.2578 33.3296 95.0428 33.3296H91.4757C91.2604 33.3296 91.0759 33.2578 90.922 33.1143C90.7786 32.9606 90.707 32.776 90.707 32.5608V25.642H92.6903V31.4077H95.0428C95.2578 31.4077 95.4426 31.3359 95.5961 31.1924C95.75 31.0387 95.8269 30.8541 95.8269 30.6389V25.642Z" fill="white"/>
<path d="M101.991 22.7667V25.6419H103.344V27.5638H101.991V31.4076H103.344V33.3295H100.761C100.556 33.3295 100.377 33.2577 100.223 33.1142C100.069 32.9605 99.9926 32.7811 99.9926 32.5761V27.5638H99.0391V25.6419H99.9926V22.7667H101.991Z" fill="white"/>
<path d="M104.883 22.9512C104.883 22.8282 104.944 22.7667 105.067 22.7667H106.682C106.805 22.7667 106.866 22.8282 106.866 22.9512V24.5041C106.866 24.6271 106.805 24.6886 106.682 24.6886H105.067C104.944 24.6886 104.883 24.6271 104.883 24.5041V22.9512ZM106.866 33.3295H104.883V25.6419H106.866V33.3295Z" fill="white"/>
<path d="M114.477 27.5638H110.694V31.4077H114.477V27.5638ZM116.46 32.5608C116.46 32.776 116.383 32.9606 116.229 33.1143C116.086 33.2578 115.906 33.3296 115.691 33.3296H109.48C109.264 33.3296 109.08 33.2578 108.926 33.1143C108.783 32.9606 108.711 32.776 108.711 32.5608V26.4261C108.711 26.2108 108.783 26.0263 108.926 25.8726C109.08 25.7188 109.264 25.642 109.48 25.642H115.691C115.906 25.642 116.086 25.7188 116.229 25.8726C116.383 26.0263 116.46 26.2057 116.46 26.4107V32.5608Z" fill="white"/>
<path d="M120.288 33.3296H118.305V25.642H120.288V26.4107C120.288 26.2057 120.365 26.0263 120.519 25.8726C120.673 25.7188 120.852 25.642 121.057 25.642H124.639C124.854 25.642 125.034 25.7188 125.177 25.8726C125.331 26.0263 125.408 26.2057 125.408 26.4107V33.3296H123.425V27.5638H121.057C120.852 27.5638 120.673 27.6407 120.519 27.7945C120.365 27.938 120.288 28.1174 120.288 28.3326V33.3296Z" fill="white"/>
<path d="M128.023 33.3296C127.808 33.3296 127.623 33.2578 127.469 33.1143C127.326 32.9606 127.254 32.776 127.254 32.5608V30.931H129.238V31.4077H133.02V30.4544H128.023C127.808 30.4544 127.623 30.3775 127.469 30.2237C127.326 30.07 127.254 29.8906 127.254 29.6856V26.4107C127.254 26.2057 127.326 26.0263 127.469 25.8726C127.623 25.7188 127.808 25.642 128.023 25.642H134.234C134.45 25.642 134.629 25.7188 134.773 25.8726C134.926 26.0263 135.003 26.2057 135.003 26.4107V28.0559H133.02V27.5638H129.238V28.5325H134.234C134.45 28.5325 134.629 28.6094 134.773 28.7631C134.926 28.9066 135.003 29.0809 135.003 29.2859V32.5762C135.003 32.7812 134.926 32.9606 134.773 33.1143C134.629 33.2578 134.45 33.3296 134.234 33.3296H128.023Z" fill="white"/>
</svg>
