<svg width="154" height="57" viewBox="0 0 154 57" fill="none" xmlns="http://www.w3.org/2000/svg">
<path fill-rule="evenodd" clip-rule="evenodd" d="M47.9409 38.3867C48.1619 38.4183 48.3196 38.4183 48.4459 38.4183C50.2447 38.4498 50.5919 38.1027 50.5919 36.3354C50.5919 34.8837 50.5919 33.432 50.6234 32.0119C50.6234 30.1815 49.7713 29.5503 47.9409 30.1184C47.9409 32.8324 47.9409 35.578 47.9409 38.3867ZM47.9094 27.1203C49.7713 27.4043 50.3078 26.9625 50.3078 25.1952C50.3078 23.712 50.3078 22.1972 50.3078 20.7139C50.3078 19.0098 49.6451 18.4733 47.9094 18.8835C47.9094 21.6291 47.9094 24.3431 47.9094 27.1203ZM52.5485 28.0355C50.0238 28.0355 47.6569 28.0355 45.2585 28.0355C45.2585 24.0276 45.2585 20.0512 45.2585 16.0432C46.7102 16.0432 48.1619 15.9486 49.582 16.0748C51.4439 16.2326 52.9903 17.9368 53.0219 19.8303C53.085 21.9131 53.085 23.996 52.9903 26.0789C53.0219 26.7416 53.0219 27.4674 52.5485 28.0355ZM83.5705 29.1085C84.5173 29.1085 85.3378 29.1085 86.2215 29.1085C86.253 29.4241 86.2846 29.7397 86.2846 30.0552C86.253 32.1381 86.253 34.221 86.2215 36.2723C86.2215 36.5879 86.2215 36.9035 86.2846 37.219C86.4108 38.0396 86.9473 38.4814 87.7047 38.4183C88.4306 38.3551 88.9355 37.8186 88.9671 36.9981C88.9986 35.4202 88.9986 33.8738 88.9986 32.3275C88.9986 31.286 88.9986 30.2446 88.9986 29.14C89.8823 29.14 90.7343 29.14 91.618 29.14C91.6495 29.1716 91.7126 29.2032 91.7126 29.2347C91.7442 31.9488 91.8389 34.6628 91.6811 37.3768C91.5864 39.7122 89.6298 41.2585 87.3576 41.1639C85.2432 41.0692 83.6337 39.2703 83.6337 36.9666C83.5705 34.3788 83.5705 31.7594 83.5705 29.1085ZM91.6811 27.9724C90.7343 27.9724 89.9138 27.9724 88.9671 27.9724C88.9671 27.1203 88.9671 26.2682 88.9671 25.4477C88.9671 23.712 88.9986 21.9763 88.9671 20.2405C88.9355 19.3253 88.4306 18.7573 87.6416 18.7573C86.8526 18.7573 86.3477 19.3253 86.3161 20.2405C86.2846 22.4496 86.2846 24.6903 86.2846 26.9309C86.2846 27.2465 86.2846 27.5621 86.2846 27.9408C85.3694 27.9408 84.5173 27.9408 83.5705 27.9408C83.5705 26.8678 83.5705 25.8264 83.5705 24.7534C83.5705 23.2386 83.539 21.6922 83.5705 20.1459C83.6021 17.9683 85.18 16.1695 87.1998 16.0117C89.472 15.8539 91.4602 17.3056 91.618 19.6094C91.8073 22.355 91.6811 25.1321 91.6811 27.9724ZM73.8821 35.1677C74.8604 35.1677 75.6809 35.1677 76.5961 35.1677C76.5961 35.7989 76.5645 36.367 76.5961 36.9981C76.6277 37.8818 77.1326 38.4183 77.89 38.4183C78.7105 38.4498 79.247 37.8818 79.2786 36.9666C79.3101 35.7989 79.3101 34.6628 79.247 33.4951C79.1839 32.2643 78.7421 31.1914 77.7953 30.3708C77.3535 29.9921 76.9432 29.6134 76.5014 29.0454C77.1957 29.0454 77.89 29.0454 78.5843 29.0454C79.2786 29.0454 79.9729 29.0454 80.6987 29.0454C81.5824 30.0237 81.9611 31.1914 81.9926 32.4537C82.0557 34.0316 82.0557 35.6411 81.9926 37.219C81.9295 39.4597 80.0675 41.1954 77.7638 41.1639C75.5862 41.1323 73.8821 39.365 73.8505 37.1244C73.8505 36.4932 73.8821 35.8936 73.8821 35.1677ZM82.0557 22.0078C81.109 22.0078 80.2885 22.0078 79.3101 22.0078C79.3101 21.4713 79.3101 20.9979 79.3101 20.493C79.3101 19.3569 78.8683 18.7888 78.0478 18.7888C77.1642 18.7573 76.6592 19.3569 76.6277 20.4614C76.5961 21.282 76.6592 22.134 76.5961 22.9861C76.533 24.785 77.1957 26.2051 78.6159 27.2465C78.8368 27.4359 79.0577 27.6252 79.2786 27.8146C79.3101 27.8461 79.3101 27.9093 79.3417 28.0039C77.9216 28.0039 76.5014 28.0039 75.1129 28.0039C74.1977 26.9941 73.9136 25.7633 73.8821 24.4694C73.819 23.0177 73.8505 21.566 73.8821 20.1459C73.9452 17.7474 75.744 15.9801 78.1109 16.0432C80.3516 16.0748 82.0242 17.8736 82.0242 20.2405C82.0557 20.8086 82.0557 21.3766 82.0557 22.0078ZM55.3256 16.0117C57.6925 16.0117 59.9647 16.0117 62.3001 16.0117C62.3001 16.8953 62.3001 17.779 62.3001 18.7257C60.8799 18.7257 59.4598 18.7257 58.0397 18.7257C58.0397 21.566 58.0397 24.3431 58.0397 27.1834C59.4914 27.1834 60.8799 27.1834 62.3316 27.1834C62.3316 27.4674 62.3316 27.6884 62.3316 27.9724C59.9963 27.9724 57.661 27.9724 55.2941 27.9724C55.3256 24.0276 55.3256 20.0827 55.3256 16.0117ZM62.3316 29.14C62.3316 29.3925 62.3316 29.645 62.3316 29.9606C60.9115 29.9606 59.5229 29.9606 58.1028 29.9606C58.1028 32.8008 58.1028 35.578 58.1028 38.4183C59.4914 38.4183 60.8484 38.4183 62.3316 38.4183C62.3316 39.365 62.3316 40.2171 62.3316 41.1323C59.9963 41.1323 57.7241 41.1323 55.3572 41.1323C55.3572 37.1559 55.3572 33.1795 55.3572 29.14C57.6294 29.14 59.9648 29.14 62.3316 29.14ZM93.543 16.0748C95.9415 16.0748 98.2137 16.0748 100.581 16.0748C100.581 16.99 100.581 17.8421 100.581 18.7573C99.1605 18.7573 97.7403 18.7573 96.2886 18.7573C96.2886 21.6291 96.2886 24.3747 96.2886 27.215H100.612V27.9724C98.2137 27.9724 95.8784 27.9724 93.5115 27.9724C93.543 23.996 93.543 20.0827 93.543 16.0748ZM69.6532 28.0039C68.7065 28.0039 67.8544 28.0039 66.9392 28.0039C66.9392 24.9428 66.9392 21.9447 66.9392 18.8204C66.0556 18.8204 65.2035 18.8204 64.2883 18.8204C64.2883 17.8736 64.2883 16.99 64.2883 16.0748C66.8761 16.0748 69.4323 16.0748 72.0201 16.0748C72.0201 16.9584 72.0201 17.8105 72.0201 18.7573C71.2312 18.7573 70.4737 18.7573 69.6217 18.7573C69.6532 21.8816 69.6532 24.9112 69.6532 28.0039ZM109.449 16.0748C109.449 16.9584 109.449 17.779 109.449 18.7257C108.66 18.7257 107.934 18.7257 107.082 18.7257C107.082 21.85 107.082 24.8796 107.082 27.9724C106.135 27.9724 105.283 27.9724 104.336 27.9724C104.336 24.9428 104.336 21.9131 104.336 18.7888C103.389 18.7888 102.569 18.7888 101.685 18.7888C101.685 17.8421 101.685 16.99 101.685 16.0748C104.241 16.0748 106.798 16.0748 109.449 16.0748ZM100.581 29.14C100.581 29.4241 100.581 29.6765 100.581 29.9921C99.1605 29.9921 97.7719 29.9921 96.2886 29.9921C96.2886 33.7476 96.2886 37.4084 96.2886 41.1323C95.3103 41.1323 94.4583 41.1323 93.5746 41.1323C93.5746 37.1559 93.5746 33.1795 93.5746 29.14C95.8468 29.14 98.1506 29.14 100.581 29.14ZM69.5901 41.1639C68.6749 41.1639 67.8544 41.1639 66.9708 41.1639C66.9708 37.1559 66.9708 33.148 66.9708 29.1085C67.8228 29.1085 68.6749 29.1085 69.5901 29.1085C69.5901 33.1164 69.5901 37.0928 69.5901 41.1639ZM104.305 41.1323C104.305 37.0928 104.305 33.148 104.305 29.14C105.188 29.14 106.009 29.14 106.955 29.14C106.955 33.1164 106.955 37.0928 106.955 41.1323C106.103 41.1323 105.251 41.1323 104.305 41.1323ZM42.292 28.6982C41.0296 30.0237 39.5464 31.5701 38 33.148C38 30.0868 38 27.0887 38 24.1854C39.4517 25.7002 40.9349 27.2465 42.292 28.6982ZM115.35 23.9644C115.35 27.0572 115.35 30.0868 115.35 32.9586C113.898 31.4438 112.415 29.8974 110.963 28.4142C112.226 27.1203 113.741 25.6055 115.35 23.9644ZM45.2585 29.14C47.7516 29.14 49.866 29.14 52.5169 29.14C53.085 29.5819 53.2428 30.5602 53.2743 31.3176C53.3375 33.1795 53.3375 35.0731 53.3059 36.9666C53.2743 39.5228 51.5702 41.1954 49.0455 41.1954C47.8147 41.1954 46.5524 41.1954 45.2585 41.1954C45.2585 37.1559 45.2585 33.1795 45.2585 29.14Z" fill="white"/>
</svg>
