<svg width="433" height="179" viewBox="0 0 433 179" fill="none" xmlns="http://www.w3.org/2000/svg">
<rect width="433" height="179" fill="#4769FC"/>
<mask id="mask0_41_854" style="mask-type:alpha" maskUnits="userSpaceOnUse" x="0" y="0" width="433" height="179">
<path d="M0 0H433V179H0V0Z" fill="#4769FC"/>
</mask>
<g mask="url(#mask0_41_854)">
<path d="M455.731 135.985L320.397 214.877C317.534 216.546 316.557 220.254 318.226 223.116L324.295 233.527C325.963 236.39 329.671 237.366 332.534 235.698L467.868 156.805C470.731 155.137 471.708 151.429 470.039 148.566L463.97 138.156C462.301 135.293 458.593 134.316 455.731 135.985ZM415.865 19.7446C407.244 24.7702 404.327 35.842 409.352 44.463C410.699 46.7728 412.471 48.6164 414.539 50.0699L399.216 77.9191C395.951 83.8326 388.491 85.9149 382.637 82.5277L329.08 51.5929C330.892 46.7008 330.666 41.0791 327.821 36.1993C322.796 27.5782 311.724 24.6612 303.103 29.6868C294.482 34.7123 291.565 45.7841 296.59 54.4051C299.435 59.285 304.216 62.2517 309.366 63.0853L309.895 124.932C309.958 131.695 304.438 137.18 297.716 137.088L265.964 136.681C265.705 134.217 264.987 131.715 263.641 129.405C258.615 120.784 247.544 117.867 238.922 122.892C230.301 127.918 227.352 139.009 232.377 147.63C237.403 156.251 248.475 159.168 257.096 154.142C257.942 153.649 258.712 153.026 259.449 152.422L319.533 201.432L444.457 128.609L431.414 52.1755C432.303 51.8315 433.225 51.4686 434.071 50.9755C442.692 45.9499 445.609 34.8781 440.583 26.2571C435.558 17.6361 424.486 14.719 415.865 19.7446Z" fill="white" fill-opacity="0.09"/>
</g>
</svg>

